<svg width="35" height="35" viewBox="0 0 35 35" fill="none" xmlns="http://www.w3.org/2000/svg">
<path d="M12.1279 23.0998L12.4573 24.583H22.544L22.8734 23.0998C23.0965 22.0961 23.5732 21.1505 24.3191 20.4428C26.2804 18.5835 27.4173 15.9867 27.4173 13.2497C27.4173 7.7828 22.9669 3.35076 17.5007 3.34863C12.0344 3.35076 7.58398 7.7828 7.58398 13.2497C7.58398 15.9867 8.72086 18.5835 10.6815 20.4428C11.4281 21.1505 11.9048 22.0961 12.1279 23.0998ZM12.9298 26.708L13.5999 29.7248C13.852 30.8596 14.8586 31.6664 16.0202 31.6664H18.9811C20.1427 31.6664 21.1493 30.8596 21.4014 29.7248L22.0715 26.708H12.9298Z" fill="#FFA800"/>
</svg>
