<svg width="192" height="56" viewBox="0 0 192 56" fill="none" xmlns="http://www.w3.org/2000/svg">
<g clip-path="url(#clip0_3131_8487)">
<path d="M149.906 74.0828H106.495C105.507 74.0799 104.553 73.7226 103.81 73.0767L85.9287 57.4315C85.3148 56.8936 84.5239 56.5969 83.7049 56.5975H68.2734V3.79617C68.2746 2.78971 68.6781 1.8248 69.3955 1.11313C70.1128 0.401455 71.0855 0.0011375 72.1 0H146.08C147.094 0.00113689 148.067 0.401455 148.784 1.11313C149.502 1.8248 149.905 2.78971 149.906 3.79617L149.906 74.0828Z" fill="#014043" fill-opacity="0.05"/>
<path d="M86.0154 24.5014C90.4982 24.5014 94.1323 20.8962 94.1323 16.449C94.1323 12.0017 90.4982 8.39648 86.0154 8.39648C81.5325 8.39648 77.8984 12.0017 77.8984 16.449C77.8984 20.8962 81.5325 24.5014 86.0154 24.5014Z" fill="#212838" fill-opacity="0.11"/>
<path d="M117.555 12.1357H102.481C102.204 12.1357 101.939 12.2448 101.743 12.439C101.547 12.6331 101.438 12.8965 101.438 13.1711C101.438 13.4456 101.547 13.709 101.743 13.9031C101.939 14.0973 102.204 14.2064 102.481 14.2064H117.555C117.832 14.2064 118.098 14.0973 118.293 13.9031C118.489 13.709 118.599 13.4456 118.599 13.1711C118.599 12.8965 118.489 12.6331 118.293 12.439C118.098 12.2448 117.832 12.1357 117.555 12.1357Z" fill="#212838" fill-opacity="0.11"/>
<path d="M139.439 18.6934H102.282C101.815 18.6934 101.438 19.1581 101.438 19.7287C101.438 20.2993 101.815 20.764 102.282 20.764H139.439C139.905 20.764 140.283 20.2993 140.283 19.7287C140.283 19.1581 139.905 18.6934 139.439 18.6934Z" fill="#212838" fill-opacity="0.11"/>
<path d="M136.519 32.5537H81.6625C81.2173 32.5537 80.8555 33.0185 80.8555 33.589C80.8555 34.1596 81.2173 34.6243 81.6625 34.6243H136.519C136.964 34.6243 137.326 34.1596 137.326 33.589C137.326 33.0185 136.964 32.5537 136.519 32.5537Z" fill="#212838" fill-opacity="0.11"/>
<path d="M136.519 38.9971H81.6625C81.2173 38.9971 80.8555 39.4618 80.8555 40.0324C80.8555 40.603 81.2173 41.0677 81.6625 41.0677H136.519C136.964 41.0677 137.326 40.603 137.326 40.0324C137.326 39.4618 136.964 38.9971 136.519 38.9971Z" fill="#212838" fill-opacity="0.11"/>
<path d="M136.519 45.4385H81.6625C81.2173 45.4385 80.8555 45.9032 80.8555 46.4738C80.8555 47.0444 81.2173 47.5091 81.6625 47.5091H136.519C136.964 47.5091 137.326 47.0444 137.326 46.4738C137.326 45.9032 136.964 45.4385 136.519 45.4385Z" fill="#212838" fill-opacity="0.11"/>
<path d="M136.519 51.8809H81.6625C81.2173 51.8809 80.8555 52.3456 80.8555 52.9162C80.8555 53.4868 81.2173 53.9515 81.6625 53.9515H136.519C136.964 53.9515 137.326 53.4868 137.326 52.9162C137.326 52.3456 136.964 51.8809 136.519 51.8809Z" fill="#212838" fill-opacity="0.11"/>
<path d="M185.852 74.082H106.494C105.704 74.0833 104.931 73.8543 104.271 73.4233L104.219 73.3893V19.6702C104.22 18.6637 104.623 17.6988 105.341 16.9872C106.058 16.2755 107.031 15.8752 108.045 15.874H182.025C183.04 15.8752 184.012 16.2755 184.73 16.9872C185.447 17.6988 185.851 18.6637 185.852 19.6702L185.852 74.082Z" fill="white" fill-opacity="0.8"/>
<path d="M121.961 40.3774C126.444 40.3774 130.078 36.7722 130.078 32.3249C130.078 27.8777 126.444 24.2725 121.961 24.2725C117.478 24.2725 113.844 27.8777 113.844 32.3249C113.844 36.7722 117.478 40.3774 121.961 40.3774Z" fill="#212838" fill-opacity="0.11"/>
<path d="M153.505 28.0117H138.43C138.154 28.0117 137.888 28.1208 137.692 28.315C137.497 28.5091 137.387 28.7725 137.387 29.047C137.387 29.3216 137.497 29.585 137.692 29.7791C137.888 29.9733 138.154 30.0824 138.43 30.0824H153.505C153.781 30.0824 154.047 29.9733 154.243 29.7791C154.438 29.585 154.548 29.3216 154.548 29.047C154.548 28.7725 154.438 28.5091 154.243 28.315C154.047 28.1208 153.781 28.0117 153.505 28.0117Z" fill="#212838" fill-opacity="0.11"/>
<path d="M175.388 34.5674H138.231C137.765 34.5674 137.387 35.0321 137.387 35.6027C137.387 36.1733 137.765 36.638 138.231 36.638H175.388C175.854 36.638 176.232 36.1733 176.232 35.6027C176.232 35.0321 175.854 34.5674 175.388 34.5674Z" fill="#212838" fill-opacity="0.11"/>
<path d="M172.468 48.4297H117.612C117.166 48.4297 116.805 48.8944 116.805 49.465C116.805 50.0356 117.166 50.5003 117.612 50.5003H172.468C172.913 50.5003 173.275 50.0356 173.275 49.465C173.275 48.8944 172.913 48.4297 172.468 48.4297Z" fill="#212838" fill-opacity="0.11"/>
<path d="M172.468 54.8711H117.612C117.166 54.8711 116.805 55.3358 116.805 55.9064C116.805 56.477 117.166 56.9417 117.612 56.9417H172.468C172.913 56.9417 173.275 56.477 173.275 55.9064C173.275 55.3358 172.913 54.8711 172.468 54.8711Z" fill="#212838" fill-opacity="0.11"/>
</g>
<defs>
<clipPath id="clip0_3131_8487">
<rect width="192" height="153.342" fill="white"/>
</clipPath>
</defs>
</svg>
