<svg width="311" height="311" viewBox="0 0 311 311" fill="none" xmlns="http://www.w3.org/2000/svg">
<g opacity="0.05">
<path d="M155.136 25.8438C83.8532 25.8438 25.8564 83.8405 25.8564 155.123C25.8564 176.295 31.433 196.084 40.4762 213.729L26.4624 263.9C23.1984 275.557 34.7246 287.083 46.3846 283.822L96.5942 269.809C114.224 278.833 133.984 284.403 155.136 284.403C226.419 284.403 284.416 226.406 284.416 155.123C284.416 83.8405 226.419 25.8438 155.136 25.8438ZM155.136 45.2357C215.938 45.2357 265.024 94.3213 265.024 155.123C265.024 215.926 215.938 265.011 155.136 265.011C135.734 265.011 117.584 259.966 101.758 251.149C99.5269 249.906 96.8956 249.593 94.4353 250.278L46.6876 263.597L60.0196 215.875C60.7083 213.411 60.3952 210.774 59.1485 208.54C50.3139 192.702 45.2484 174.545 45.2484 155.123C45.2484 94.3213 94.334 45.2357 155.136 45.2357ZM155.136 84.7014C151.439 84.7014 148.066 86.7953 146.438 90.1049L131.06 121.263L96.6699 126.263C93.0242 126.793 89.9866 129.356 88.8424 132.866C87.7048 136.376 88.6479 140.229 91.2917 142.801L116.188 167.067L110.305 201.318C109.678 204.957 111.182 208.628 114.168 210.8C117.161 212.965 121.117 213.257 124.382 211.544L155.136 195.359L185.903 211.544C187.325 212.288 188.865 212.655 190.41 212.655C192.421 212.655 194.423 212.021 196.117 210.8C199.103 208.628 200.588 204.964 199.967 201.318L194.097 167.067L218.981 142.801C221.618 140.222 222.568 136.376 221.43 132.866C220.286 129.356 217.255 126.799 213.602 126.263L179.212 121.263L163.835 90.1049C162.206 86.7953 158.834 84.7014 155.136 84.7014Z" fill="#5B5B5B"/>
</g>
</svg>
