<svg width="21" height="21" viewBox="0 0 21 21" fill="none" xmlns="http://www.w3.org/2000/svg">
<path d="M10.4996 1.75C5.68109 1.75 1.7496 5.6815 1.7496 10.5C1.7496 11.9562 2.14554 13.275 2.72286 14.4657L1.77438 17.8478C1.77258 17.8537 1.77087 17.8597 1.76925 17.8657C1.57252 18.6526 2.34695 19.4271 3.13387 19.2303C3.13988 19.2287 3.14586 19.227 3.15182 19.2252L6.53304 18.2776C7.73746 18.8915 9.06067 19.25 10.4996 19.25C15.3181 19.25 19.2496 15.3185 19.2496 10.5C19.2496 5.6815 15.3181 1.75 10.4996 1.75ZM10.4996 3.0625C14.6061 3.0625 17.9371 6.39351 17.9371 10.5C17.9371 14.6065 14.6061 17.9375 10.4996 17.9375C9.16191 17.9375 7.96827 17.6179 6.88082 17.0138C6.72971 16.9299 6.55163 16.9091 6.38522 16.9557L3.13131 17.8683L4.04391 14.6144C4.08877 14.4541 4.07106 14.2827 3.99435 14.135C3.42038 13.0281 3.0621 11.8244 3.0621 10.5C3.0621 6.39351 6.3931 3.0625 10.4996 3.0625ZM7.4371 9.625C6.95585 9.625 6.5621 10.0188 6.5621 10.5C6.5621 10.9813 6.95585 11.375 7.4371 11.375C7.91835 11.375 8.3121 10.9813 8.3121 10.5C8.3121 10.0188 7.91835 9.625 7.4371 9.625ZM10.4996 9.625C10.0183 9.625 9.6246 10.0188 9.6246 10.5C9.6246 10.9813 10.0183 11.375 10.4996 11.375C10.9808 11.375 11.3746 10.9813 11.3746 10.5C11.3746 10.0188 10.9808 9.625 10.4996 9.625ZM13.5621 9.625C13.0808 9.625 12.6871 10.0188 12.6871 10.5C12.6871 10.9813 13.0808 11.375 13.5621 11.375C14.0433 11.375 14.4371 10.9813 14.4371 10.5C14.4371 10.0188 14.0433 9.625 13.5621 9.625Z" fill="#667085"/>
</svg>
