<svg width="49" height="49" viewBox="0 0 49 49" fill="none" xmlns="http://www.w3.org/2000/svg">
<path d="M42.7351 11.9815V37.0173C42.7351 40.0516 40.2616 42.5251 37.2272 42.5251H31.7194V28.5051H35.3445C35.8553 28.5051 36.2859 28.1246 36.346 27.6238L36.7165 24.6196C36.7565 24.3391 36.6664 24.0487 36.4761 23.8384C36.2859 23.6181 36.0155 23.4979 35.7251 23.4979H31.7194V19.9929C31.7194 18.8914 32.6206 17.9901 33.7222 17.9901H35.7251C36.2759 17.9901 36.7265 17.5394 36.7265 16.9887V13.6038C36.7265 13.0931 36.3259 12.6625 35.8152 12.6124C35.7551 12.6024 34.3431 12.4822 32.5505 12.4822C28.1442 12.4822 25.7108 15.106 25.7108 19.8628V23.4979H21.705C21.1543 23.4979 20.7036 23.9486 20.7036 24.4994V27.5037C20.7036 28.0545 21.1543 28.5051 21.705 28.5051H25.7108V42.5251H12.1915C9.15713 42.5251 6.68359 40.0516 6.68359 37.0173V11.9815C6.68359 8.94717 9.15713 6.47363 12.1915 6.47363H37.2272C40.2616 6.47363 42.7351 8.94717 42.7351 11.9815Z" fill="#212838"/>
</svg>
