<svg width="321" height="321" viewBox="0 0 321 321" fill="none" xmlns="http://www.w3.org/2000/svg">
<path d="M160.365 26.7275C86.7727 26.7275 26.7275 86.7727 26.7275 160.365C26.7275 182.605 32.7747 202.747 41.5921 220.933L27.106 272.587C27.0786 272.678 27.0525 272.769 27.0277 272.861C24.023 284.879 35.8508 296.707 47.8694 293.702C47.9611 293.677 48.0524 293.651 48.1434 293.624L99.7844 279.151C118.179 288.526 138.388 294.002 160.365 294.002C233.957 294.002 294.002 233.957 294.002 160.365C294.002 86.7727 233.957 26.7275 160.365 26.7275ZM160.365 46.7732C223.083 46.7732 273.957 97.6471 273.957 160.365C273.957 223.083 223.083 273.957 160.365 273.957C139.935 273.957 121.704 269.076 105.096 259.849C102.788 258.568 100.068 258.249 97.5266 258.962L47.8302 272.9L61.7682 223.203C62.4534 220.755 62.1828 218.138 61.0112 215.882C52.2452 198.976 46.7731 180.593 46.7731 160.365C46.7731 97.6471 97.6471 46.7732 160.365 46.7732ZM160.365 86.8644C138.315 86.8644 120.274 104.905 120.274 126.956C120.255 128.284 120.5 129.602 120.996 130.835C121.491 132.067 122.226 133.189 123.159 134.135C124.091 135.081 125.203 135.832 126.428 136.345C127.653 136.857 128.968 137.121 130.297 137.121C131.625 137.121 132.94 136.857 134.165 136.345C135.391 135.832 136.502 135.081 137.434 134.135C138.367 133.189 139.102 132.067 139.597 130.835C140.093 129.602 140.338 128.284 140.319 126.956C140.319 115.596 149.006 106.91 160.365 106.91C171.724 106.91 180.411 115.596 180.411 126.956C180.411 137.408 176.136 140.453 168.561 147.523C160.986 154.593 150.342 165.635 150.342 183.752C150.323 185.08 150.569 186.398 151.064 187.631C151.559 188.863 152.295 189.985 153.227 190.931C154.16 191.877 155.271 192.628 156.496 193.14C157.722 193.653 159.037 193.917 160.365 193.917C161.693 193.917 163.008 193.653 164.234 193.14C165.459 192.628 166.57 191.877 167.503 190.931C168.435 189.985 169.171 188.863 169.666 187.631C170.161 186.398 170.407 185.08 170.388 183.752C170.388 172.468 174.779 169.141 182.238 162.179C189.697 155.217 200.456 144.567 200.456 126.956C200.456 104.905 182.415 86.8644 160.365 86.8644ZM160.365 207.138C156.821 207.138 153.422 208.546 150.915 211.052C148.409 213.558 147.001 216.958 147.001 220.502C147.001 224.046 148.409 227.445 150.915 229.951C153.422 232.458 156.821 233.866 160.365 233.866C163.909 233.866 167.308 232.458 169.815 229.951C172.321 227.445 173.729 224.046 173.729 220.502C173.729 216.958 172.321 213.558 169.815 211.052C167.308 208.546 163.909 207.138 160.365 207.138Z" fill="#5B5B5B" fill-opacity="0.05"/>
</svg>
