<svg width="49" height="49" viewBox="0 0 49 49" fill="none" xmlns="http://www.w3.org/2000/svg">
<path d="M37.2956 6.47363H12.2598C9.22348 6.47363 6.75195 8.94516 6.75195 11.9815V37.0173C6.75195 40.0536 9.22348 42.5251 12.2598 42.5251H37.2956C40.3319 42.5251 42.8034 40.0536 42.8034 37.0173V11.9815C42.8034 8.94516 40.3319 6.47363 37.2956 6.47363ZM18.7691 34.5137C18.7691 35.0675 18.3215 35.5151 17.7677 35.5151H14.7634C14.2096 35.5151 13.762 35.0675 13.762 34.5137V21.4951C13.762 20.9413 14.2096 20.4937 14.7634 20.4937H17.7677C18.3215 20.4937 18.7691 20.9413 18.7691 21.4951V34.5137ZM16.2655 18.4908C14.8826 18.4908 13.762 17.3702 13.762 15.9872C13.762 14.6042 14.8826 13.4836 16.2655 13.4836C17.6485 13.4836 18.7691 14.6042 18.7691 15.9872C18.7691 17.3702 17.6485 18.4908 16.2655 18.4908ZM35.7934 34.5137C35.7934 35.0675 35.3458 35.5151 34.792 35.5151H31.7877C31.2339 35.5151 30.7863 35.0675 30.7863 34.5137V27.003C30.7863 25.622 29.6637 24.4994 28.2827 24.4994C26.9017 24.4994 25.7791 25.622 25.7791 27.003V34.5137C25.7791 35.0675 25.3315 35.5151 24.7777 35.5151H21.7734C21.2196 35.5151 20.772 35.0675 20.772 34.5137V21.4951C20.772 20.9413 21.2196 20.4937 21.7734 20.4937H24.7777C25.3315 20.4937 25.7791 20.9413 25.7791 21.4951V22.0369C26.8436 21.0805 28.2446 20.4937 29.7848 20.4937C33.0986 20.4937 35.7934 23.1885 35.7934 26.5022V34.5137Z" fill="#212838"/>
</svg>
