<svg width="331" height="139" viewBox="0 0 331 139" fill="none" xmlns="http://www.w3.org/2000/svg">
<g opacity="0.1">
<path d="M238.699 129.355L241.495 153.668L244.292 177.981L281.011 148.507L259.855 138.931L238.699 129.355Z" fill="#002A2D" fill-opacity="0.37"/>
<path d="M267.343 54.2028L305.842 23.2998L334.84 64.3269L296.342 95.23L267.343 54.2028Z" fill="#E6E6E6"/>
<path d="M221.266 50.2138C207.624 61.1641 188.235 58.2559 177.96 43.7183C167.685 29.1806 170.414 8.51861 184.055 -2.43163C197.697 -13.3819 217.086 -10.4737 227.361 4.06393C237.637 18.6016 234.908 39.2636 221.266 50.2138Z" fill="#002A2D" fill-opacity="0.37"/>
<path d="M211.496 85.6899C210.886 84.8282 210.051 84.1783 209.096 83.8224C208.14 83.4665 207.107 83.4206 206.127 83.6905C205.146 83.9604 204.263 84.534 203.589 85.3387C202.915 86.1434 202.48 87.1431 202.339 88.2114C202.198 89.2797 202.357 90.3685 202.797 91.3403C203.236 92.3121 203.936 93.1231 204.808 93.6708C205.681 94.2186 206.686 94.4784 207.696 94.4175C208.707 94.3565 209.678 93.9775 210.487 93.3285C211.571 92.4581 212.286 91.1644 212.476 89.7318C212.665 88.2993 212.312 86.8454 211.496 85.6899ZM210.814 86.2368C211.322 86.9549 211.618 87.8173 211.666 88.7148C211.713 89.6124 211.51 90.5049 211.082 91.2794C210.654 92.0539 210.019 92.6757 209.259 93.0661C208.499 93.4565 207.648 93.598 206.813 93.4727C205.977 93.3474 205.196 92.9609 204.566 92.3622C203.937 91.7634 203.489 90.9792 203.277 90.1088C203.066 89.2384 203.102 88.3208 203.381 87.4722C203.659 86.6235 204.167 85.8818 204.841 85.3409C205.744 84.6156 206.881 84.3025 208.002 84.4705C209.122 84.6386 210.134 85.2739 210.814 86.2368Z" fill="#CCCCCC"/>
<path d="M300.271 133.219L301.429 121.513L290.444 120.279L289.286 131.985L300.271 133.219ZM300.495 122.319L299.515 132.224L290.22 131.18L291.2 121.274L300.495 122.319Z" fill="#CCCCCC"/>
<path d="M217.437 58.4066C224.175 52.9977 229.257 45.5809 232.04 37.0941C234.823 28.6073 235.182 19.4316 233.071 10.7275C230.961 2.02329 226.476 -5.81845 220.183 -11.8061C213.89 -17.7938 206.073 -21.6585 197.719 -22.9115C189.366 -24.1645 180.851 -22.7495 173.252 -18.8455C165.653 -14.9415 159.311 -8.72371 155.027 -0.978546C150.744 6.76662 148.713 15.6913 149.189 24.667C149.666 33.6428 152.629 42.2663 157.705 49.4472C164.511 59.0765 174.628 65.4301 185.83 67.1103C197.032 68.7905 208.401 65.6597 217.437 58.4066ZM166.625 -13.4817C173.229 -18.7824 181.159 -21.8773 189.413 -22.375C197.667 -22.8726 205.874 -20.7508 212.997 -16.2777C220.119 -11.8046 225.837 -5.18115 229.428 2.75501C233.018 10.6912 234.319 19.5836 233.167 28.3079C232.014 37.0322 228.46 45.1964 222.954 51.7682C217.448 58.3399 210.236 63.0241 202.232 65.2282C194.228 67.4324 185.79 67.0576 177.985 64.1512C170.181 61.2449 163.36 55.9375 158.386 48.9002C151.716 39.4635 148.837 27.5897 150.382 15.8908C151.927 4.19195 157.77 -6.37365 166.625 -13.4817Z" fill="#3F3D56"/>
<path d="M232.72 33.5107L255.318 45.9658L254.926 46.7733L232.329 34.3182L232.72 33.5107Z" fill="#3F3D56"/>
<path d="M266.914 77.3785L267.689 77.7568L244.726 131.234L243.95 130.856L266.914 77.3785Z" fill="#3F3D56"/>
<path d="M285.688 104.345L335.43 64.4167L297.963 11.4082L248.221 51.336L285.688 104.345ZM334.235 64.2375L285.856 103.071L249.416 51.5152L297.795 12.6813L334.235 64.2375Z" fill="#3F3D56"/>
<path d="M230.406 189.697L281.858 148.397L222.569 121.562L230.406 189.697ZM280.164 148.618L231.073 188.023L223.596 123.014L280.164 148.618Z" fill="#3F3D56"/>
<path d="M392.795 195.039C392.775 194.81 392.228 189.338 387.428 180.916C383.023 173.191 374.03 161.428 356.196 149.266C322.411 126.226 317.898 89.3763 317.857 89.0066L316.883 89.1316C316.895 89.2243 318.002 98.6544 323.318 110.819C330.374 126.938 341.596 140.58 355.668 150.146C389.396 173.147 391.799 194.923 391.819 195.14L392.795 195.039Z" fill="#3F3D56"/>
<path d="M318.991 116.556C316.179 118.813 312.182 118.213 310.064 115.217C307.946 112.22 308.508 107.961 311.32 105.703C314.132 103.446 318.129 104.046 320.247 107.042C322.366 110.039 321.803 114.298 318.991 116.556Z" fill="#002A2D"/>
<path d="M336.687 135.887C336.078 135.025 335.243 134.376 334.287 134.02C333.331 133.664 332.298 133.618 331.318 133.888C330.338 134.158 329.455 134.731 328.781 135.536C328.106 136.341 327.671 137.34 327.53 138.409C327.389 139.477 327.548 140.566 327.988 141.538C328.428 142.509 329.128 143.32 330 143.868C330.872 144.416 331.877 144.676 332.888 144.615C333.898 144.554 334.869 144.175 335.678 143.526C336.762 142.655 337.478 141.362 337.667 139.929C337.856 138.497 337.504 137.043 336.687 135.887ZM336.006 136.434C336.513 137.152 336.809 138.015 336.857 138.912C336.905 139.81 336.702 140.702 336.273 141.477C335.845 142.251 335.211 142.873 334.451 143.263C333.691 143.654 332.839 143.795 332.004 143.67C331.169 143.545 330.387 143.158 329.758 142.559C329.128 141.961 328.68 141.177 328.469 140.306C328.258 139.436 328.294 138.518 328.572 137.669C328.85 136.821 329.358 136.079 330.032 135.538C330.936 134.813 332.073 134.5 333.193 134.668C334.313 134.836 335.325 135.471 336.006 136.434Z" fill="#CCCCCC"/>
<path d="M339.499 112.557C338.89 111.695 338.055 111.045 337.1 110.69C336.144 110.334 335.111 110.288 334.131 110.558C333.15 110.828 332.267 111.401 331.593 112.206C330.919 113.011 330.484 114.01 330.343 115.079C330.202 116.147 330.361 117.236 330.8 118.208C331.24 119.179 331.94 119.99 332.812 120.538C333.685 121.086 334.689 121.346 335.7 121.285C336.711 121.224 337.682 120.845 338.491 120.196C339.575 119.325 340.29 118.032 340.479 116.599C340.669 115.167 340.316 113.713 339.499 112.557ZM338.818 113.104C339.326 113.822 339.622 114.684 339.67 115.582C339.717 116.48 339.514 117.372 339.086 118.147C338.657 118.921 338.023 119.543 337.263 119.933C336.503 120.324 335.652 120.465 334.817 120.34C333.981 120.215 333.199 119.828 332.57 119.229C331.941 118.631 331.492 117.846 331.281 116.976C331.07 116.106 331.106 115.188 331.384 114.339C331.663 113.491 332.171 112.749 332.845 112.208C333.748 111.483 334.885 111.17 336.006 111.338C337.126 111.506 338.137 112.141 338.818 113.104Z" fill="#CCCCCC"/>
</g>
</svg>
