<svg width="361" height="361" viewBox="0 0 361 361" fill="none" xmlns="http://www.w3.org/2000/svg">
<path d="M86.307 75.0498C71.8224 75.0498 60.0395 86.8327 60.0395 101.317V213.892C60.0395 228.377 71.8224 240.16 86.307 240.16H218.627C218.041 236.482 217.645 232.745 217.645 228.902C217.645 225.06 218.041 221.322 218.627 217.645H86.307C84.2357 217.645 82.5545 215.964 82.5545 213.892V101.317C82.5545 99.2459 84.2357 97.5648 86.307 97.5648H273.932C276.003 97.5648 277.685 99.2459 277.685 101.317V158.587C281.362 158.002 285.1 157.605 288.942 157.605C292.785 157.605 296.522 158.002 300.2 158.587V101.317C300.2 86.8327 288.417 75.0498 273.932 75.0498H86.307ZM289.499 172.615C285.913 172.581 282.235 172.885 278.52 173.553C256.118 177.576 237.95 195.514 233.71 217.879C231.609 228.972 232.855 239.601 236.48 249.043L179.709 305.697C170.538 314.845 170.054 330.321 179.548 339.147C183.908 343.199 189.473 345.23 195.042 345.23C200.866 345.23 206.693 343.011 211.136 338.575L268.553 281.261C278.039 284.961 288.731 286.251 299.906 284.149C322.316 279.931 340.291 261.728 344.306 239.28C345.65 231.745 345.497 224.424 344.086 217.557C342.525 209.939 333.017 207.182 327.508 212.676L304.612 235.513C301.505 238.613 297.437 240.16 293.354 240.16C289.737 240.16 286.109 238.942 283.167 236.495C275.834 230.401 276.163 218.924 282.918 212.192L304.876 190.293C310.399 184.784 307.627 175.223 299.98 173.7C296.584 173.024 293.086 172.649 289.499 172.615ZM41.277 247.665C35.0554 247.665 30.0195 252.701 30.0195 258.922C30.0195 265.144 35.0554 270.18 41.277 270.18H194.045L216.604 247.665H41.277Z" fill="#5B5B5B" fill-opacity="0.05"/>
</svg>
