<svg width="147" height="63" viewBox="0 0 147 63" fill="none" xmlns="http://www.w3.org/2000/svg">
<path d="M140.894 12.6812H152.437C153.547 12.6822 154.611 13.1202 155.395 13.899C156.18 14.6779 156.621 15.7339 156.622 16.8354V29.2564C156.77 29.2476 156.918 29.2345 157.063 29.217C159.798 28.9315 162.397 27.8933 164.569 26.2197C166.741 24.546 168.399 22.3034 169.356 19.7447C170.312 17.186 170.529 14.4129 169.983 11.7381C169.437 9.06337 168.148 6.59327 166.263 4.60634C164.378 2.61941 161.972 1.19467 159.314 0.492761C156.657 -0.209152 153.855 -0.160327 151.225 0.633735C148.594 1.4278 146.239 2.93552 144.425 4.9869C142.612 7.03828 141.412 9.55175 140.96 12.2439C140.936 12.3882 140.914 12.5347 140.894 12.6812Z" fill="white"/>
<path d="M4.62683 12.2754H152.399C153.625 12.2769 154.8 12.8175 155.667 13.7786C156.534 14.7397 157.022 16.0428 157.023 17.402V103.822C157.022 105.181 156.534 106.484 155.667 107.445C154.8 108.406 153.625 108.947 152.399 108.948H4.62683C3.40068 108.947 2.22513 108.406 1.35811 107.445C0.491091 106.484 0.00341374 105.181 0.00207302 103.822V17.402C0.00341374 16.0428 0.491091 14.7397 1.35811 13.7786C2.22513 12.8175 3.40068 12.2769 4.62683 12.2754ZM0.442526 103.822C0.44353 105.051 0.884697 106.231 1.66919 107.1C2.45368 107.97 3.51739 108.459 4.62683 108.46H152.399C153.508 108.459 154.572 107.97 155.356 107.1C156.141 106.231 156.582 105.051 156.583 103.822V17.402C156.582 16.1722 156.141 14.993 155.356 14.1234C154.572 13.2538 153.508 12.7648 152.399 12.7636H4.62683C3.51739 12.7648 2.45368 13.2538 1.66919 14.1234C0.884697 14.993 0.44353 16.1722 0.442526 17.402V103.822Z" fill="white"/>
<path d="M11.8962 24.7869H145.166C145.225 24.7869 145.281 24.7639 145.322 24.7229C145.364 24.6819 145.387 24.6262 145.387 24.5683C145.387 24.5103 145.364 24.4547 145.322 24.4137C145.281 24.3726 145.225 24.3496 145.166 24.3496H11.8962C11.8378 24.3496 11.7818 24.3726 11.7404 24.4137C11.6991 24.4547 11.6759 24.5103 11.6759 24.5683C11.6759 24.6262 11.6991 24.6819 11.7404 24.7229C11.7818 24.7639 11.8378 24.7869 11.8962 24.7869Z" fill="white"/>
<path d="M128.882 47.3555H136.931C137.193 47.3552 137.445 47.2514 137.631 47.067C137.817 46.8825 137.922 46.6324 137.922 46.3716V36.9438C137.922 36.683 137.817 36.4329 137.631 36.2484C137.445 36.064 137.193 35.9603 136.931 35.96H128.882C128.619 35.9603 128.367 36.064 128.181 36.2484C127.995 36.4329 127.891 36.683 127.89 36.9438V46.3716C127.891 46.6324 127.995 46.8825 128.181 47.067C128.367 47.2514 128.619 47.3552 128.882 47.3555Z" fill="white"/>
<path d="M117.428 74.248H125.477C125.74 74.2477 125.992 74.144 126.178 73.9595C126.364 73.7751 126.468 73.525 126.469 73.2641V63.8364C126.468 63.5756 126.364 63.3255 126.178 63.141C125.992 62.9566 125.74 62.8528 125.477 62.8525H117.428C117.166 62.8528 116.914 62.9566 116.728 63.141C116.542 63.3255 116.437 63.5756 116.437 63.8364V73.2642C116.437 73.525 116.542 73.7751 116.728 73.9595C116.914 74.144 117.166 74.2477 117.428 74.248Z" fill="white"/>
<path d="M91.4362 53.04H99.4853C99.7481 53.0397 100 52.936 100.186 52.7515C100.372 52.5671 100.476 52.317 100.477 52.0561V42.6284C100.476 42.3676 100.372 42.1175 100.186 41.933C100 41.7486 99.7481 41.6448 99.4853 41.6445H91.4362C91.1734 41.6448 90.9215 41.7486 90.7356 41.933C90.5498 42.1175 90.4452 42.3676 90.445 42.6284V52.0561C90.4452 52.317 90.5498 52.5671 90.7356 52.7515C90.9215 52.936 91.1734 53.0397 91.4362 53.04Z" fill="white"/>
<path d="M57.7331 42.7627H65.7822C66.045 42.7624 66.297 42.6586 66.4828 42.4742C66.6686 42.2897 66.7731 42.0396 66.7734 41.7788V32.3511C66.7731 32.0902 66.6686 31.8401 66.4828 31.6557C66.297 31.4712 66.045 31.3675 65.7822 31.3672H57.7331C57.4703 31.3675 57.2183 31.4712 57.0325 31.6557C56.8467 31.8401 56.7421 32.0902 56.7418 32.3511V41.7788C56.7421 42.0397 56.8467 42.2897 57.0325 42.4742C57.2183 42.6586 57.4703 42.7624 57.7331 42.7627Z" fill="white"/>
<path d="M26.6706 42.7627H34.7197C34.9825 42.7624 35.2345 42.6586 35.4203 42.4742C35.6061 42.2897 35.7106 42.0396 35.7109 41.7788V32.3511C35.7106 32.0902 35.6061 31.8401 35.4203 31.6557C35.2345 31.4712 34.9825 31.3675 34.7197 31.3672H26.6706C26.4078 31.3675 26.1558 31.4712 25.97 31.6557C25.7842 31.8401 25.6796 32.0902 25.6793 32.3511V41.7788C25.6796 42.0397 25.7842 42.2897 25.97 42.4742C26.1558 42.6586 26.4078 42.7624 26.6706 42.7627Z" fill="white"/>
<path d="M12.3542 45.3867H20.4033C20.6661 45.3864 20.918 45.2827 21.1039 45.0982C21.2897 44.9138 21.3942 44.6637 21.3945 44.4028V34.9751C21.3942 34.7142 21.2897 34.4642 21.1039 34.2797C20.918 34.0953 20.6661 33.9915 20.4033 33.9912H12.3542C12.0914 33.9915 11.8394 34.0953 11.6536 34.2797C11.4678 34.4642 11.3632 34.7142 11.3629 34.9751V44.4028C11.3632 44.6637 11.4678 44.9138 11.6536 45.0982C11.8394 45.2827 12.0914 45.3864 12.3542 45.3867Z" fill="#016A70" fill-opacity="0.14"/>
<path d="M18.7409 62.2226H26.79C27.0528 62.2223 27.3048 62.1186 27.4906 61.9341C27.6764 61.7497 27.781 61.4996 27.7812 61.2388V51.811C27.781 51.5502 27.6764 51.3001 27.4906 51.1156C27.3048 50.9312 27.0528 50.8274 26.79 50.8271H18.7409C18.4781 50.8274 18.2261 50.9312 18.0403 51.1156C17.8545 51.3001 17.7499 51.5502 17.7496 51.811V61.2388C17.7499 61.4996 17.8545 61.7497 18.0403 61.9341C18.2261 62.1186 18.4781 62.2223 18.7409 62.2226Z" fill="#016A70" fill-opacity="0.14"/>
<path d="M46.0573 58.7246H54.1064C54.3692 58.7243 54.6212 58.6205 54.807 58.4361C54.9928 58.2516 55.0974 58.0016 55.0977 57.7407V48.313C55.0974 48.0521 54.9928 47.802 54.807 47.6176C54.6212 47.4331 54.3692 47.3294 54.1064 47.3291H46.0573C45.7945 47.3294 45.5425 47.4331 45.3567 47.6176C45.1709 47.802 45.0663 48.0521 45.066 48.313V57.7407C45.0663 58.0016 45.1709 58.2516 45.3567 58.4361C45.5425 58.6205 45.7945 58.7243 46.0573 58.7246Z" fill="white"/>
<path d="M61.694 62.2226H69.7431C70.0059 62.2223 70.2579 62.1186 70.4437 61.9341C70.6296 61.7497 70.7341 61.4996 70.7344 61.2388V51.811C70.7341 51.5502 70.6296 51.3001 70.4437 51.1156C70.2579 50.9312 70.0059 50.8274 69.7431 50.8271H61.694C61.4312 50.8274 61.1793 50.9312 60.9934 51.1156C60.8076 51.3001 60.7031 51.5502 60.7028 51.811V61.2388C60.7031 61.4996 60.8076 61.7497 60.9934 61.9341C61.1793 62.1186 61.4312 62.2223 61.694 62.2226Z" fill="#016A70" fill-opacity="0.14"/>
<path d="M136.155 64.6269H144.204C144.467 64.6266 144.719 64.5229 144.905 64.3384C145.09 64.154 145.195 63.9039 145.195 63.6431V54.2153C145.195 53.9545 145.09 53.7044 144.905 53.5199C144.719 53.3355 144.467 53.2317 144.204 53.2314H136.155C135.892 53.2317 135.64 53.3355 135.454 53.5199C135.269 53.7044 135.164 53.9545 135.164 54.2153V63.6431C135.164 63.9039 135.269 64.154 135.454 64.3384C135.64 64.5229 135.892 64.6266 136.155 64.6269Z" fill="white"/>
<path d="M113.464 47.3555H121.513C121.775 47.3552 122.027 47.2514 122.213 47.067C122.399 46.8825 122.504 46.6324 122.504 46.3716V36.9438C122.504 36.683 122.399 36.4329 122.213 36.2484C122.027 36.064 121.775 35.9603 121.513 35.96H113.464C113.201 35.9603 112.949 36.064 112.763 36.2484C112.577 36.4329 112.473 36.683 112.472 36.9438V46.3716C112.473 46.6324 112.577 46.8825 112.763 47.067C112.949 47.2514 113.201 47.3552 113.464 47.3555Z" fill="#016A70" fill-opacity="0.14"/>
<path d="M120.055 21.2081H132.611C132.845 21.2081 133.069 21.116 133.234 20.952C133.399 20.7879 133.492 20.5655 133.492 20.3335C133.492 20.1016 133.399 19.8792 133.234 19.7151C133.069 19.5511 132.845 19.459 132.611 19.459H120.055C119.821 19.459 119.597 19.5511 119.432 19.7151C119.267 19.8792 119.174 20.1016 119.174 20.3335C119.174 20.5655 119.267 20.7879 119.432 20.952C119.597 21.116 119.821 21.2081 120.055 21.2081Z" fill="white"/>
<path d="M84.5863 21.2081H97.1423C97.376 21.2081 97.6001 21.116 97.7654 20.952C97.9306 20.7879 98.0234 20.5655 98.0234 20.3335C98.0234 20.1016 97.9306 19.8792 97.7654 19.7151C97.6001 19.5511 97.376 19.459 97.1423 19.459H84.5863C84.3526 19.459 84.1285 19.5511 83.9632 19.7151C83.798 19.8792 83.7051 20.1016 83.7051 20.3335C83.7051 20.5655 83.798 20.7879 83.9632 20.952C84.1285 21.116 84.3526 21.2081 84.5863 21.2081Z" fill="white"/>
<path d="M51.3246 21.2081H63.8806C64.1143 21.2081 64.3384 21.116 64.5036 20.952C64.6689 20.7879 64.7617 20.5655 64.7617 20.3335C64.7617 20.1016 64.6689 19.8792 64.5036 19.7151C64.3384 19.5511 64.1143 19.459 63.8806 19.459H51.3246C51.0909 19.459 50.8667 19.5511 50.7015 19.7151C50.5363 19.8792 50.4434 20.1016 50.4434 20.3335C50.4434 20.5655 50.5363 20.7879 50.7015 20.952C50.8667 21.116 51.0909 21.2081 51.3246 21.2081Z" fill="white"/>
<path d="M20.266 21.2081H32.822C33.0557 21.2081 33.2798 21.116 33.445 20.952C33.6103 20.7879 33.7031 20.5655 33.7031 20.3335C33.7031 20.1016 33.6103 19.8792 33.445 19.7151C33.2798 19.5511 33.0557 19.459 32.822 19.459H20.266C20.0323 19.459 19.8082 19.5511 19.6429 19.7151C19.4777 19.8792 19.3848 20.1016 19.3848 20.3335C19.3848 20.5655 19.4777 20.7879 19.6429 20.952C19.8082 21.116 20.0323 21.2081 20.266 21.2081Z" fill="white"/>
</svg>
