<svg width="18" height="18" viewBox="0 0 18 18" fill="none" xmlns="http://www.w3.org/2000/svg">
<path d="M9.0035 1.87501C8.89838 1.87435 8.79517 1.90317 8.70558 1.95819C8.616 2.01321 8.54362 2.09223 8.49667 2.18629L6.56454 6.05055L1.97665 6.7566C1.87396 6.77247 1.77766 6.81647 1.69845 6.88373C1.61924 6.95098 1.5602 7.03886 1.52789 7.13762C1.49558 7.23638 1.49125 7.34217 1.51539 7.44324C1.53952 7.54431 1.59118 7.63671 1.66464 7.71022L4.83822 10.8838L4.13143 15.4768C4.11562 15.5796 4.1286 15.6847 4.16892 15.7805C4.20924 15.8764 4.27533 15.9592 4.35985 16.0197C4.44437 16.0802 4.54401 16.1162 4.64772 16.1235C4.75143 16.1309 4.85514 16.1093 4.94735 16.0613L8.99984 13.9468L13.0523 16.0613C13.1445 16.1093 13.2483 16.1309 13.352 16.1235C13.4557 16.1162 13.5553 16.0802 13.6398 16.0197C13.7244 15.9592 13.7904 15.8764 13.8308 15.7805C13.8711 15.6847 13.8841 15.5796 13.8683 15.4768L13.1615 10.8838L16.335 7.71022C16.4085 7.63671 16.4602 7.54431 16.4843 7.44324C16.5084 7.34217 16.5041 7.23638 16.4718 7.13762C16.4395 7.03886 16.3804 6.95098 16.3012 6.88373C16.222 6.81647 16.1257 6.77247 16.023 6.7566L11.4351 6.05055L9.50302 2.18629C9.45662 2.09334 9.38538 2.01506 9.29722 1.96011C9.20905 1.90517 9.10739 1.87572 9.0035 1.87501Z" fill="#212838"/>
</svg>
