<svg width="18" height="18" viewBox="0 0 18 18" fill="none" xmlns="http://www.w3.org/2000/svg">
<path d="M13.8375 7.31211C13.5 6.93711 13.05 6.74961 12.5625 6.74961H9.1125C9.0375 6.74961 9 6.71211 8.9625 6.67461C8.925 6.59961 8.925 6.52461 8.9625 6.44961C9.2625 5.77461 9.45 5.17461 9.6 4.42461C9.7125 4.01211 9.75 3.74961 9.75 3.48711C9.75 2.39961 8.925 1.98711 8.5125 1.91211C8.4375 1.91211 8.3625 1.91211 8.325 1.98711C8.2875 2.02461 5.925 5.43711 4.9875 6.37461C4.2 7.12461 3.75 8.06211 3.75 8.99961V11.4746C3.75 13.6121 5.5125 15.3746 7.6875 15.3746H11.175C12.4125 15.3746 13.425 14.4746 13.6125 13.2371L14.25 8.66211C14.325 8.17461 14.175 7.68711 13.8375 7.31211Z" fill="#212838"/>
</svg>
