<svg width="340" height="360" viewBox="0 0 340 360" fill="none" xmlns="http://www.w3.org/2000/svg">
<g opacity="0.1">
<path d="M241.638 129.355L244.618 153.668L247.598 177.981L286.729 148.507L264.183 138.931L241.638 129.355Z" fill="#002A2D" fill-opacity="0.37"/>
<path d="M272.164 54.2028L313.191 23.2998L344.094 64.3269L303.067 95.23L272.164 54.2028Z" fill="#E6E6E6"/>
<path d="M223.062 50.2138C208.524 61.1641 187.862 58.2559 176.912 43.7183C165.962 29.1806 168.87 8.51862 183.408 -2.43162C197.945 -13.3819 218.607 -10.4737 229.558 4.06393C240.508 18.6016 237.6 39.2636 223.062 50.2138Z" fill="#002A2D" fill-opacity="0.37"/>
<path d="M212.649 85.6899C212 84.8282 211.11 84.1783 210.091 83.8224C209.073 83.4665 207.972 83.4206 206.927 83.6905C205.883 83.9604 204.942 84.534 204.223 85.3387C203.505 86.1434 203.041 87.1431 202.891 88.2114C202.74 89.2797 202.91 90.3685 203.379 91.3403C203.847 92.3121 204.593 93.1231 205.523 93.6708C206.452 94.2186 207.523 94.4784 208.6 94.4175C209.677 94.3565 210.712 93.9775 211.574 93.3285C212.729 92.4581 213.492 91.1644 213.693 89.7318C213.895 88.2993 213.519 86.8454 212.649 85.6899ZM211.923 86.2368C212.464 86.9549 212.779 87.8173 212.83 88.7148C212.881 89.6124 212.665 90.5049 212.208 91.2794C211.752 92.0539 211.076 92.6757 210.266 93.0661C209.456 93.4565 208.549 93.598 207.659 93.4727C206.768 93.3474 205.935 92.9609 205.265 92.3622C204.594 91.7634 204.116 90.9792 203.891 90.1088C203.666 89.2384 203.704 88.3208 204.001 87.4722C204.298 86.6235 204.839 85.8818 205.557 85.3409C206.52 84.6156 207.732 84.3025 208.926 84.4705C210.119 84.6386 211.197 85.2739 211.923 86.2368Z" fill="#CCCCCC"/>
<path d="M307.253 133.219L308.487 121.513L296.78 120.279L295.546 131.985L307.253 133.219ZM307.491 122.319L306.447 132.224L296.542 131.18L297.586 121.274L307.491 122.319Z" fill="#CCCCCC"/>
<path d="M218.982 58.4066C226.163 52.9977 231.579 45.5809 234.544 37.0941C237.51 28.6073 237.893 19.4316 235.643 10.7275C233.394 2.02329 228.615 -5.81845 221.909 -11.8061C215.203 -17.7938 206.872 -21.6585 197.97 -22.9115C189.067 -24.1645 179.993 -22.7495 171.895 -18.8455C163.797 -14.9415 157.038 -8.72371 152.474 -0.978544C147.91 6.76662 145.745 15.6914 146.252 24.6671C146.76 33.6428 149.918 42.2663 155.327 49.4472C162.58 59.0765 173.361 65.4301 185.299 67.1103C197.237 68.7905 209.353 65.6597 218.982 58.4066ZM164.834 -13.4817C171.871 -18.7824 180.322 -21.8773 189.118 -22.375C197.914 -22.8726 206.66 -20.7508 214.251 -16.2777C221.841 -11.8046 227.934 -5.18115 231.76 2.75501C235.586 10.6912 236.973 19.5836 235.745 28.3079C234.517 37.0322 230.73 45.1964 224.862 51.7682C218.994 58.3399 211.309 63.0241 202.779 65.2282C194.249 67.4324 185.257 67.0576 176.94 64.1512C168.622 61.2449 161.354 55.9375 156.053 48.9002C148.945 39.4635 145.877 27.5897 147.524 15.8908C149.17 4.19196 155.397 -6.37365 164.834 -13.4817Z" fill="#3F3D56"/>
<path d="M235.269 33.5107L259.352 45.9658L258.934 46.7733L234.852 34.3182L235.269 33.5107Z" fill="#3F3D56"/>
<path d="M271.709 77.3785L272.535 77.7568L248.063 131.234L247.236 130.856L271.709 77.3785Z" fill="#3F3D56"/>
<path d="M291.716 104.345L344.725 64.4167L304.797 11.4082L251.788 51.336L291.716 104.345ZM343.452 64.2375L291.895 103.071L253.061 51.5152L304.618 12.6813L343.452 64.2375Z" fill="#3F3D56"/>
<path d="M232.804 189.697L287.634 148.397L224.452 121.562L232.804 189.697ZM285.83 148.618L233.515 188.023L225.546 123.014L285.83 148.618Z" fill="#3F3D56"/>
<path d="M187.611 358.608L447.207 163.071L447.754 163.797L188.157 359.334L187.611 358.608Z" fill="#E6E6E6"/>
<path d="M355.246 196.844C353.888 198.885 352.027 200.542 349.842 201.655C347.658 202.767 345.224 203.299 342.774 203.198C336.479 202.866 331.254 198.446 326.551 194.249L312.64 181.835L321.892 181.441C328.546 181.157 335.371 180.897 341.696 182.981C348.02 185.066 353.837 190.034 354.962 196.598" fill="#E6E6E6"/>
<path d="M368.386 216.254C364.945 210.09 361.472 203.837 356.679 198.596C352.424 193.941 347.206 190.197 341.065 188.526C337.809 187.643 334.424 187.336 331.062 187.616C330.185 187.689 330.348 189.043 331.221 188.971C337.043 188.492 342.868 189.875 347.853 192.92C353.385 196.316 357.651 201.347 361.185 206.718C363.322 209.967 365.222 213.362 367.117 216.755C367.189 216.919 367.32 217.05 367.484 217.121C367.648 217.193 367.834 217.199 368.002 217.138C368.17 217.071 368.304 216.94 368.376 216.775C368.447 216.609 368.451 216.422 368.385 216.253L368.386 216.254Z" fill="#F2F2F2"/>
<path d="M311.833 246.791C311.734 248.526 311.19 250.207 310.253 251.671C309.316 253.134 308.018 254.332 306.484 255.149C302.515 257.203 297.733 256.373 293.353 255.492L280.395 252.888L285.91 249.331C289.877 246.772 293.958 244.165 298.572 243.174C303.186 242.183 308.525 243.132 311.567 246.745" fill="#E6E6E6"/>
<path d="M326.139 253.255C322.669 251.217 319.16 249.143 315.294 247.948C311.86 246.885 308.214 246.548 304.711 247.497C302.856 248.002 301.103 248.826 299.531 249.933C299.122 250.221 299.589 250.842 299.998 250.554C302.723 248.641 305.985 247.642 309.314 247.702C313.013 247.777 316.561 249.021 319.847 250.643C321.834 251.624 323.747 252.745 325.656 253.868C325.739 253.928 325.841 253.955 325.942 253.942C326.043 253.93 326.136 253.88 326.202 253.801C326.265 253.72 326.293 253.617 326.28 253.515C326.268 253.413 326.216 253.32 326.135 253.256L326.139 253.255Z" fill="#F2F2F2"/>
<path d="M356.122 211.446C356.237 213.247 355.886 215.047 355.104 216.673C354.321 218.3 353.132 219.697 351.653 220.73C347.817 223.344 342.785 223.085 338.159 222.724L324.475 221.658L329.718 217.301C333.488 214.168 337.368 210.97 342.003 209.371C346.638 207.772 352.26 208.086 355.845 211.429" fill="#E6E6E6"/>
<path d="M372.974 217.832C364.362 214.08 354.612 210.046 345.213 213.489C342.601 214.448 340.197 215.898 338.13 217.76C337.478 218.346 338.462 219.29 339.113 218.706C342.592 215.602 347.034 213.792 351.691 213.581C356.164 213.366 360.575 214.43 364.759 215.93C367.322 216.848 369.818 217.938 372.313 219.025C373.11 219.372 373.78 218.183 372.974 217.832Z" fill="#F2F2F2"/>
<path d="M405.856 195.039C405.834 194.81 405.252 189.338 400.135 180.917C395.442 173.191 385.858 161.428 366.853 149.266C330.849 126.226 326.04 89.3763 325.996 89.0066L324.958 89.1316C324.971 89.2243 326.15 98.6544 331.815 110.819C339.335 126.938 351.294 140.58 366.29 150.146C402.233 173.148 404.794 194.923 404.816 195.14L405.856 195.039Z" fill="#3F3D56"/>
<path d="M327.201 116.556C324.205 118.813 319.945 118.213 317.688 115.217C315.431 112.22 316.03 107.961 319.027 105.703C322.024 103.446 326.283 104.046 328.54 107.042C330.798 110.039 330.198 114.298 327.201 116.556Z" fill="#002A2D"/>
<path d="M346.063 135.887C345.414 135.025 344.524 134.376 343.505 134.02C342.487 133.664 341.386 133.618 340.341 133.888C339.297 134.158 338.356 134.731 337.637 135.536C336.919 136.341 336.455 137.34 336.305 138.409C336.154 139.477 336.324 140.566 336.793 141.538C337.261 142.509 338.007 143.32 338.937 143.868C339.866 144.416 340.937 144.676 342.014 144.615C343.091 144.554 344.126 144.175 344.988 143.526C346.143 142.655 346.906 141.362 347.107 139.929C347.309 138.497 346.933 137.043 346.063 135.887ZM345.337 136.434C345.878 137.152 346.194 138.015 346.244 138.912C346.295 139.81 346.079 140.702 345.622 141.477C345.166 142.251 344.49 142.873 343.68 143.263C342.87 143.654 341.963 143.795 341.073 143.67C340.182 143.545 339.349 143.158 338.679 142.559C338.008 141.961 337.53 141.177 337.305 140.306C337.08 139.436 337.119 138.518 337.415 137.669C337.712 136.821 338.253 136.079 338.971 135.538C339.934 134.813 341.146 134.5 342.34 134.668C343.533 134.836 344.612 135.471 345.337 136.434Z" fill="#CCCCCC"/>
<path d="M349.059 112.557C348.41 111.695 347.52 111.045 346.502 110.69C345.483 110.334 344.382 110.288 343.338 110.558C342.293 110.828 341.352 111.401 340.634 112.206C339.915 113.011 339.451 114.01 339.301 115.079C339.151 116.147 339.32 117.236 339.789 118.208C340.257 119.179 341.003 119.99 341.933 120.538C342.862 121.086 343.933 121.346 345.01 121.285C346.087 121.224 347.122 120.845 347.984 120.196C349.139 119.325 349.902 118.032 350.104 116.599C350.305 115.167 349.929 113.713 349.059 112.557ZM348.333 113.104C348.874 113.822 349.19 114.684 349.24 115.582C349.291 116.48 349.075 117.372 348.618 118.147C348.162 118.921 347.486 119.543 346.676 119.933C345.866 120.324 344.959 120.465 344.069 120.34C343.178 120.215 342.345 119.828 341.675 119.229C341.004 118.631 340.526 117.846 340.301 116.976C340.076 116.106 340.115 115.188 340.411 114.339C340.708 113.491 341.249 112.749 341.967 112.208C342.93 111.483 344.142 111.17 345.336 111.338C346.53 111.506 347.608 112.141 348.333 113.104Z" fill="#CCCCCC"/>
</g>
</svg>
