<svg width="18" height="19" viewBox="0 0 18 19" fill="none" xmlns="http://www.w3.org/2000/svg">
<path d="M9.56283 3.12506C9.48829 3.124 9.41429 3.13777 9.34512 3.16557C9.27595 3.19336 9.21299 3.23463 9.15991 3.28697C9.10683 3.3393 9.06468 3.40167 9.03591 3.47044C9.00714 3.53921 8.99232 3.61301 8.99232 3.68756C8.99232 3.7621 9.00714 3.8359 9.03591 3.90467C9.06468 3.97344 9.10683 4.03581 9.15991 4.08815C9.21299 4.14048 9.27595 4.18175 9.34512 4.20954C9.41429 4.23734 9.48829 4.25111 9.56283 4.25006H13.4549L2.79013 14.9149C2.73614 14.9667 2.69304 15.0288 2.66335 15.0975C2.63366 15.1662 2.61798 15.2401 2.61722 15.3149C2.61646 15.3898 2.63063 15.464 2.65892 15.5333C2.68721 15.6026 2.72904 15.6655 2.78196 15.7184C2.83488 15.7713 2.89782 15.8132 2.96711 15.8415C3.03639 15.8698 3.11063 15.8839 3.18546 15.8832C3.2603 15.8824 3.33423 15.8667 3.40293 15.837C3.47162 15.8073 3.5337 15.7642 3.58554 15.7103L14.2503 5.04547V8.93756C14.2493 9.01209 14.263 9.0861 14.2908 9.15527C14.3186 9.22444 14.3599 9.28739 14.4122 9.34048C14.4646 9.39356 14.5269 9.43571 14.5957 9.46448C14.6645 9.49325 14.7383 9.50807 14.8128 9.50807C14.8874 9.50807 14.9612 9.49325 15.0299 9.46448C15.0987 9.43571 15.1611 9.39356 15.2134 9.34048C15.2658 9.28739 15.307 9.22444 15.3348 9.15527C15.3626 9.0861 15.3764 9.01209 15.3753 8.93756V3.68756C15.3753 3.53838 15.316 3.39531 15.2106 3.28983C15.1051 3.18434 14.962 3.12507 14.8128 3.12506H9.56283Z" fill="#016a70"/>
</svg>
