<svg width="49" height="49" viewBox="0 0 49 49" fill="none" xmlns="http://www.w3.org/2000/svg">
<path d="M24.4981 8.97754C18.1363 8.97754 12.2255 9.43081 8.85267 10.1354C8.84548 10.1373 8.83831 10.1393 8.83115 10.1413C6.29011 10.7107 3.8974 12.5308 3.3937 15.3812C3.39303 15.3851 3.39238 15.389 3.39174 15.393C3.00478 17.6902 2.60938 20.685 2.60938 25.0004C2.60938 29.3077 3.00613 32.2231 3.49541 34.6411C4.01145 37.4074 6.34893 39.2826 8.92895 39.8595C8.94129 39.863 8.95368 39.8662 8.96611 39.8693C12.4862 40.5629 18.2302 41.0233 24.5919 41.0233C30.9537 41.0233 36.7008 40.5629 40.2217 39.8693C40.2341 39.8662 40.2465 39.863 40.2589 39.8595C42.7999 39.2901 45.1926 37.47 45.6963 34.6196C45.6977 34.6125 45.699 34.6053 45.7002 34.5981C46.0813 32.254 46.575 29.2621 46.6723 24.9398C46.6724 24.9287 46.6724 24.9176 46.6723 24.9065C46.6723 20.5818 46.1773 17.5685 45.6944 15.1817C45.1824 12.4095 42.8422 10.5292 40.2589 9.95159C40.2194 9.94281 40.1796 9.93563 40.1395 9.93007C36.7045 9.44716 30.8608 8.97754 24.4981 8.97754ZM20.7916 17.4917C21.1625 17.484 21.546 17.5717 21.9065 17.7753L30.5223 22.6435C31.9754 23.4647 31.9754 25.5367 30.5223 26.3578L21.9065 31.2261C20.4654 32.0393 18.6694 31.0093 18.6694 29.368V19.6314C18.6694 18.4004 19.6788 17.5147 20.7916 17.4917Z" fill="#212838"/>
</svg>
