<svg width="40" height="40" viewBox="0 0 40 40" fill="none" xmlns="http://www.w3.org/2000/svg">
<path d="M18.334 13.333H21.6673C26.3813 13.333 28.7383 13.333 30.2028 14.7975C31.6673 16.2619 31.6673 18.619 31.6673 23.333C31.6673 28.047 31.6673 30.404 30.2028 31.8685C28.7383 33.333 26.3813 33.333 21.6673 33.333H20.0007C20.0007 33.333 19.1673 36.6663 13.334 36.6663C13.334 36.6663 15.0007 34.9852 15.0007 33.3042C12.4116 33.2262 10.8673 32.9373 9.79845 31.8685C8.33398 30.404 8.33398 28.047 8.33398 23.333C8.33398 18.619 8.33398 16.2619 9.79845 14.7975C11.2629 13.333 13.6199 13.333 18.334 13.333Z" stroke="white" stroke-width="2" stroke-linejoin="round"/>
<path d="M31.666 19.167H32.4993C34.057 19.167 34.8358 19.167 35.416 19.502C35.796 19.7213 36.1117 20.037 36.331 20.417C36.666 20.9972 36.666 21.776 36.666 23.3337C36.666 24.8913 36.666 25.6702 36.331 26.2503C36.1117 26.6303 35.796 26.946 35.416 27.1653C34.8358 27.5003 34.057 27.5003 32.4993 27.5003H31.666" stroke="white" stroke-width="2" stroke-linejoin="round"/>
<path d="M8.33398 19.167H7.50065C5.94295 19.167 5.16412 19.167 4.58398 19.502C4.20393 19.7213 3.88833 20.037 3.66892 20.417C3.33398 20.9972 3.33398 21.776 3.33398 23.3337C3.33398 24.8913 3.33398 25.6702 3.66892 26.2503C3.88833 26.6303 4.20393 26.946 4.58398 27.1653C5.16412 27.5003 5.94295 27.5003 7.50065 27.5003H8.33398" stroke="white" stroke-width="2" stroke-linejoin="round"/>
<path d="M22.5 5.83301C22.5 7.21372 21.3807 8.33301 20 8.33301C18.6193 8.33301 17.5 7.21372 17.5 5.83301C17.5 4.45229 18.6193 3.33301 20 3.33301C21.3807 3.33301 22.5 4.45229 22.5 5.83301Z" stroke="white" stroke-width="2"/>
<path d="M20 8.33301V13.333" stroke="white" stroke-width="2" stroke-linecap="round" stroke-linejoin="round"/>
<path d="M15 20V21.6667M25 20V21.6667" stroke="white" stroke-width="2" stroke-linecap="round" stroke-linejoin="round"/>
<path d="M16.666 27.5C16.666 27.5 17.7772 28.3333 19.9993 28.3333C22.2215 28.3333 23.3327 27.5 23.3327 27.5" stroke="white" stroke-width="2" stroke-linecap="round"/>
</svg>
