<svg width="41" height="40" viewBox="0 0 41 40" fill="none" xmlns="http://www.w3.org/2000/svg">
<path d="M7.03559 5.6416C6.3599 5.6416 5.81152 6.18917 5.81152 6.86566V30.5309C5.81152 33.0059 7.82551 35.0191 10.2998 35.0191H19.3432L20.0444 32.571H10.2998C9.17443 32.571 8.25965 31.6554 8.25965 30.5309V8.08973H32.7409V19.1238C33.0885 18.9761 33.4439 18.852 33.812 18.7859C34.1318 18.728 34.4563 18.6983 34.7762 18.6983H34.7858C34.9212 18.6983 35.0552 18.7076 35.189 18.7174V6.86566C35.189 6.18917 34.6406 5.6416 33.965 5.6416H7.03559ZM17.6441 11.3539C17.4819 11.3516 17.3209 11.3816 17.1704 11.4421C17.0198 11.5025 16.8828 11.5923 16.7673 11.7062C16.6518 11.8201 16.5601 11.9558 16.4975 12.1055C16.4349 12.2551 16.4026 12.4157 16.4026 12.578C16.4026 12.7402 16.4349 12.9008 16.4975 13.0504C16.5601 13.2001 16.6518 13.3358 16.7673 13.4497C16.8828 13.5636 17.0198 13.6534 17.1704 13.7139C17.3209 13.7743 17.4819 13.8043 17.6441 13.802H23.3564C23.5186 13.8043 23.6797 13.7743 23.8302 13.7139C23.9807 13.6534 24.1177 13.5636 24.2332 13.4497C24.3487 13.3358 24.4405 13.2001 24.5031 13.0504C24.5657 12.9008 24.5979 12.7402 24.5979 12.578C24.5979 12.4157 24.5657 12.2551 24.5031 12.1055C24.4405 11.9558 24.3487 11.8201 24.2332 11.7062C24.1177 11.5923 23.9807 11.5025 23.8302 11.4421C23.6797 11.3816 23.5186 11.3516 23.3564 11.3539H17.6441ZM34.7794 20.3304C34.5558 20.3312 34.3297 20.3509 34.102 20.3925C33.3806 20.5223 32.6916 20.8984 32.1097 21.4811L22.4814 31.1094C22.1901 31.4008 21.9756 31.764 21.8614 32.1582L20.58 36.6305C20.5212 36.7855 20.4946 36.9494 20.5003 37.1134C20.5109 37.4096 20.6272 37.7026 20.8541 37.9294C21.0801 38.1555 21.3715 38.2718 21.667 38.2833C21.831 38.289 21.9972 38.2631 22.1531 38.2036L26.6254 36.9221C27.0195 36.8079 27.3804 36.5943 27.6725 36.3021L37.3024 26.6738C37.8851 26.092 38.2613 25.4029 38.391 24.6815C38.4318 24.4538 38.4508 24.2277 38.4516 24.0041C38.454 23.0298 38.0784 22.1088 37.3758 21.4078C36.6748 20.706 35.7538 20.3287 34.7794 20.3304Z" fill="#67A6A9"/>
</svg>
