<svg width="40" height="40" viewBox="0 0 40 40" fill="none" xmlns="http://www.w3.org/2000/svg">
<path d="M9.06867 4.89648C7.05509 4.89648 5.39648 6.55509 5.39648 8.56867V11.0168C5.39648 13.0304 7.05509 14.689 9.06867 14.689H15.597C17.6106 14.689 19.2692 13.0304 19.2692 11.0168V8.56867C19.2692 6.55509 17.6106 4.89648 15.597 4.89648H9.06867ZM24.5735 4.89648C22.5599 4.89648 20.9013 6.55509 20.9013 8.56867V19.1772C20.9013 21.1908 22.5599 22.8494 24.5735 22.8494H31.1018C33.1154 22.8494 34.774 21.1908 34.774 19.1772V8.56867C34.774 6.55509 33.1154 4.89648 31.1018 4.89648H24.5735ZM9.06867 7.34461H15.597C16.2878 7.34461 16.8211 7.87789 16.8211 8.56867V11.0168C16.8211 11.7076 16.2878 12.2409 15.597 12.2409H9.06867C8.37789 12.2409 7.84461 11.7076 7.84461 11.0168V8.56867C7.84461 7.87789 8.37789 7.34461 9.06867 7.34461ZM24.5735 7.34461H31.1018C31.7926 7.34461 32.3259 7.87789 32.3259 8.56867V19.1772C32.3259 19.868 31.7926 20.4013 31.1018 20.4013H24.5735C23.8827 20.4013 23.3494 19.868 23.3494 19.1772V8.56867C23.3494 7.87789 23.8827 7.34461 24.5735 7.34461ZM9.06867 16.3211C7.05509 16.3211 5.39648 17.9797 5.39648 19.9933V30.6018C5.39648 32.6154 7.05509 34.274 9.06867 34.274H15.597C17.6106 34.274 19.2692 32.6154 19.2692 30.6018V19.9933C19.2692 17.9797 17.6106 16.3211 15.597 16.3211H9.06867ZM9.06867 18.7692H15.597C16.2878 18.7692 16.8211 19.3025 16.8211 19.9933V30.6018C16.8211 31.2926 16.2878 31.8259 15.597 31.8259H9.06867C8.37789 31.8259 7.84461 31.2926 7.84461 30.6018V19.9933C7.84461 19.3025 8.37789 18.7692 9.06867 18.7692ZM24.5735 24.4815C22.5599 24.4815 20.9013 26.1401 20.9013 28.1537V30.6018C20.9013 32.6154 22.5599 34.274 24.5735 34.274H31.1018C33.1154 34.274 34.774 32.6154 34.774 30.6018V28.1537C34.774 26.1401 33.1154 24.4815 31.1018 24.4815H24.5735ZM24.5735 26.9296H31.1018C31.7926 26.9296 32.3259 27.4629 32.3259 28.1537V30.6018C32.3259 31.2926 31.7926 31.8259 31.1018 31.8259H24.5735C23.8827 31.8259 23.3494 31.2926 23.3494 30.6018V28.1537C23.3494 27.4629 23.8827 26.9296 24.5735 26.9296Z" fill="#67A6A9"/>
</svg>
