<svg width="41" height="40" viewBox="0 0 41 40" fill="none" xmlns="http://www.w3.org/2000/svg">
<path d="M20.5005 4.98145C18.9704 4.98145 17.6679 5.5993 16.8315 6.54021C15.9952 7.48113 15.6043 8.68763 15.6043 9.8777C15.6043 11.0678 15.9952 12.2743 16.8315 13.2152C17.6679 14.1561 18.9704 14.7739 20.5005 14.7739C22.0306 14.7739 23.3332 14.1561 24.1695 13.2152C25.0059 12.2743 25.3968 11.0678 25.3968 9.8777C25.3968 8.68763 25.0059 7.48113 24.1695 6.54021C23.3332 5.5993 22.0306 4.98145 20.5005 4.98145ZM9.89198 6.61353C8.63391 6.61353 7.53537 7.12938 6.83501 7.91728C6.13465 8.70519 5.81177 9.70769 5.81177 10.6937C5.81177 11.6798 6.13465 12.6823 6.83501 13.4702C7.53537 14.2581 8.63391 14.7739 9.89198 14.7739C11.15 14.7739 12.2486 14.2581 12.9489 13.4702C13.6493 12.6823 13.9722 11.6798 13.9722 10.6937C13.9722 9.70769 13.6493 8.70519 12.9489 7.91728C12.2486 7.12938 11.15 6.61353 9.89198 6.61353ZM31.1091 6.61353C29.851 6.61353 28.7525 7.12938 28.0521 7.91728C27.3517 8.70519 27.0289 9.70769 27.0289 10.6937C27.0289 11.6798 27.3517 12.6823 28.0521 13.4702C28.7525 14.2581 29.851 14.7739 31.1091 14.7739C32.3671 14.7739 33.4657 14.2581 34.166 13.4702C34.8664 12.6823 35.1893 11.6798 35.1893 10.6937C35.1893 9.70769 34.8664 8.70519 34.166 7.91728C33.4657 7.12938 32.3671 6.61353 31.1091 6.61353ZM20.5005 7.42957C21.4186 7.42957 21.9521 7.72976 22.3398 8.16592C22.7275 8.60208 22.9486 9.23166 22.9486 9.8777C22.9486 10.5237 22.7275 11.1533 22.3398 11.5895C21.9521 12.0256 21.4186 12.3258 20.5005 12.3258C19.5825 12.3258 19.0489 12.0256 18.6612 11.5895C18.2735 11.1533 18.0524 10.5237 18.0524 9.8777C18.0524 9.23166 18.2735 8.60208 18.6612 8.16592C19.0489 7.72976 19.5825 7.42957 20.5005 7.42957ZM9.89198 9.06165C10.538 9.06165 10.8675 9.25984 11.1192 9.54299C11.3709 9.82614 11.5241 10.2517 11.5241 10.6937C11.5241 11.1358 11.3709 11.5613 11.1192 11.8445C10.8675 12.1276 10.538 12.3258 9.89198 12.3258C9.24595 12.3258 8.91642 12.1276 8.66473 11.8445C8.41304 11.5613 8.2599 11.1358 8.2599 10.6937C8.2599 10.2517 8.41304 9.82614 8.66473 9.54299C8.91642 9.25984 9.24595 9.06165 9.89198 9.06165ZM31.1091 9.06165C31.7551 9.06165 32.0846 9.25984 32.3363 9.54299C32.588 9.82614 32.7411 10.2517 32.7411 10.6937C32.7411 11.1358 32.588 11.5613 32.3363 11.8445C32.0846 12.1276 31.7551 12.3258 31.1091 12.3258C30.463 12.3258 30.1335 12.1276 29.8818 11.8445C29.6301 11.5613 29.477 11.1358 29.477 10.6937C29.477 10.2517 29.6301 9.82614 29.8818 9.54299C30.1335 9.25984 30.463 9.06165 31.1091 9.06165ZM7.03583 16.406C5.48535 16.406 4.17969 17.7117 4.17969 19.2622V24.5664C4.17969 28.157 7.11744 31.0948 10.708 31.0948C11.2792 31.0948 11.8502 31.0125 12.4214 30.8493C12.095 30.1149 11.8498 29.3001 11.6866 28.4841C11.3602 28.6473 11.0344 28.6467 10.708 28.6467C8.4231 28.6467 6.62781 26.8514 6.62781 24.5664V19.2622C6.62781 19.0174 6.79102 18.8542 7.03583 18.8542H11.5241C11.6057 17.9565 11.9314 17.0589 12.5027 16.406H7.03583ZM16.0123 16.406C14.447 16.406 13.1561 17.6969 13.1561 19.2622V27.0146C13.1561 31.0371 16.478 34.3589 20.5005 34.3589C24.523 34.3589 27.8449 31.0371 27.8449 27.0146V19.2622C27.8449 17.6969 26.5541 16.406 24.9888 16.406H16.0123ZM28.4155 16.406C28.9867 17.0589 29.3141 17.9565 29.3957 18.8542H33.8839C34.1287 18.8542 34.2919 19.0174 34.2919 19.2622V24.5664C34.2919 26.8514 32.4967 28.6467 30.2117 28.6467C29.8853 28.6467 29.5579 28.647 29.2315 28.5654C29.0683 29.3814 28.8248 30.1978 28.4984 30.9322C29.0696 31.0954 29.6405 31.1761 30.2117 31.1761C33.8023 31.1761 36.7401 28.2383 36.7401 24.6477V19.3435C36.8217 17.7114 35.5157 16.406 33.9652 16.406H28.4155ZM16.0123 18.8542H24.9888C25.2187 18.8542 25.3968 19.0322 25.3968 19.2622V27.0146C25.3968 29.6836 23.1696 31.9108 20.5005 31.9108C17.8315 31.9108 15.6043 29.6836 15.6043 27.0146V19.2622C15.6043 19.0322 15.7823 18.8542 16.0123 18.8542Z" fill="#67A6A9"/>
</svg>
