<svg width="41" height="41" viewBox="0 0 41 41" fill="none" xmlns="http://www.w3.org/2000/svg">
<path d="M11.1155 4.17969C9.09095 4.17969 7.44336 5.82728 7.44336 7.85187V33.1492C7.44336 35.1738 9.09095 36.8214 11.1155 36.8214H27.8444V36.7799C25.8932 36.5857 24.1454 35.6993 22.843 34.3732H11.1155C10.4407 34.3732 9.89148 33.824 9.89148 33.1492V7.85187C9.89148 7.17701 10.4407 6.62781 11.1155 6.62781H20.5V13.5642C20.5 15.5888 22.1476 17.2364 24.1722 17.2364H31.1086V20.8767C32.0021 21.1582 32.8247 21.5969 33.5567 22.1485V16.0123C33.5567 15.674 33.4196 15.3683 33.1981 15.1468L22.5895 4.5383C22.368 4.31685 22.0619 4.17969 21.7241 4.17969H11.1155ZM22.9481 8.35871L29.3777 14.7882H24.1722C23.4973 14.7882 22.9481 14.239 22.9481 13.5642V8.35871ZM28.6604 22.1326C25.0609 22.1326 22.1321 25.0614 22.1321 28.6609C22.1321 32.2605 25.0609 35.1893 28.6604 35.1893C30.0191 35.1893 31.2801 34.7709 32.3263 34.0576L36.3634 38.0948C36.6025 38.3347 36.9155 38.4534 37.2289 38.4534C37.5422 38.4534 37.8552 38.3339 38.0943 38.0948C38.5717 37.6166 38.5717 36.8421 38.0943 36.3639L34.0587 32.3267C34.7712 31.2806 35.1888 30.0196 35.1888 28.6609C35.1888 25.0614 32.26 22.1326 28.6604 22.1326ZM28.6604 24.5807C30.9103 24.5807 32.7406 26.4111 32.7406 28.6609C32.7406 30.9108 30.9103 32.7411 28.6604 32.7411C26.4106 32.7411 24.5802 30.9108 24.5802 28.6609C24.5802 26.4111 26.4106 24.5807 28.6604 24.5807Z" fill="#67A6A9"/>
</svg>
