<svg width="23" height="23" viewBox="0 0 23 23" fill="none" xmlns="http://www.w3.org/2000/svg">
<mask id="path-1-inside-1_4311_5834" fill="white">
<path d="M16.5235 6.21094C16.3866 6.21097 16.2529 6.25182 16.1395 6.32827C16.026 6.40472 15.9379 6.51328 15.8865 6.64007C15.8351 6.76686 15.8226 6.90611 15.8508 7.04C15.8789 7.1739 15.9464 7.29635 16.0445 7.39168L19.4543 10.8014H2.32229C2.23119 10.8001 2.14074 10.817 2.0562 10.8509C1.97166 10.8849 1.89471 10.9354 1.82983 10.9993C1.76495 11.0633 1.71344 11.1395 1.67827 11.2236C1.64311 11.3076 1.625 11.3978 1.625 11.4889C1.625 11.58 1.64311 11.6702 1.67827 11.7543C1.71344 11.8384 1.76495 11.9146 1.82983 11.9785C1.89471 12.0425 1.97166 12.0929 2.0562 12.1269C2.14074 12.1609 2.23119 12.1777 2.32229 12.1764H19.4543L16.0445 15.5862C15.9786 15.6495 15.9259 15.7254 15.8896 15.8094C15.8533 15.8933 15.8341 15.9837 15.8332 16.0752C15.8323 16.1666 15.8496 16.2574 15.8842 16.342C15.9188 16.4267 15.9699 16.5037 16.0346 16.5683C16.0992 16.633 16.1762 16.6841 16.2609 16.7187C16.3455 16.7533 16.4363 16.7706 16.5277 16.7697C16.6192 16.7688 16.7096 16.7496 16.7935 16.7133C16.8775 16.677 16.9534 16.6243 17.0167 16.5584L21.6 11.975C21.7289 11.8461 21.8013 11.6712 21.8013 11.4889C21.8013 11.3066 21.7289 11.1318 21.6 11.0028L17.0167 6.41951C16.9526 6.35352 16.876 6.30106 16.7912 6.26523C16.7065 6.2294 16.6155 6.21094 16.5235 6.21094Z"/>
</mask>
<path d="M16.5235 6.21094C16.3866 6.21097 16.2529 6.25182 16.1395 6.32827C16.026 6.40472 15.9379 6.51328 15.8865 6.64007C15.8351 6.76686 15.8226 6.90611 15.8508 7.04C15.8789 7.1739 15.9464 7.29635 16.0445 7.39168L19.4543 10.8014H2.32229C2.23119 10.8001 2.14074 10.817 2.0562 10.8509C1.97166 10.8849 1.89471 10.9354 1.82983 10.9993C1.76495 11.0633 1.71344 11.1395 1.67827 11.2236C1.64311 11.3076 1.625 11.3978 1.625 11.4889C1.625 11.58 1.64311 11.6702 1.67827 11.7543C1.71344 11.8384 1.76495 11.9146 1.82983 11.9785C1.89471 12.0425 1.97166 12.0929 2.0562 12.1269C2.14074 12.1609 2.23119 12.1777 2.32229 12.1764H19.4543L16.0445 15.5862C15.9786 15.6495 15.9259 15.7254 15.8896 15.8094C15.8533 15.8933 15.8341 15.9837 15.8332 16.0752C15.8323 16.1666 15.8496 16.2574 15.8842 16.342C15.9188 16.4267 15.9699 16.5037 16.0346 16.5683C16.0992 16.633 16.1762 16.6841 16.2609 16.7187C16.3455 16.7533 16.4363 16.7706 16.5277 16.7697C16.6192 16.7688 16.7096 16.7496 16.7935 16.7133C16.8775 16.677 16.9534 16.6243 17.0167 16.5584L21.6 11.975C21.7289 11.8461 21.8013 11.6712 21.8013 11.4889C21.8013 11.3066 21.7289 11.1318 21.6 11.0028L17.0167 6.41951C16.9526 6.35352 16.876 6.30106 16.7912 6.26523C16.7065 6.2294 16.6155 6.21094 16.5235 6.21094Z" fill="#4A5366"/>
<path d="M16.5235 6.21094L16.5236 3.49219H16.5228L16.5235 6.21094ZM16.0445 7.39168L17.967 5.46924L17.9531 5.45531L17.9389 5.44159L16.0445 7.39168ZM19.4543 10.8014V13.5202H26.0179L21.3767 8.87899L19.4543 10.8014ZM2.32229 10.8014L2.28385 13.5199L2.30307 13.5202H2.32229V10.8014ZM1.625 11.4889H-1.09375H1.625ZM2.32229 12.1764V9.45768H2.30307L2.28385 9.45795L2.32229 12.1764ZM19.4543 12.1764L21.3767 14.0989L26.0179 9.45768H19.4543V12.1764ZM16.0445 15.5862L17.9275 17.5473L17.9474 17.5282L17.967 17.5086L16.0445 15.5862ZM17.0167 16.5584L15.0943 14.6359L15.0747 14.6554L15.0556 14.6754L17.0167 16.5584ZM21.6 11.975L23.5225 13.8975L23.5229 13.8971L21.6 11.975ZM21.8013 11.4889H19.0826H21.8013ZM21.6 11.0028L23.5229 9.0808L23.5225 9.0804L21.6 11.0028ZM17.0167 6.41951L15.0662 8.31352L15.0801 8.32784L15.0943 8.34196L17.0167 6.41951ZM16.5228 3.49219C15.845 3.49235 15.1826 3.69475 14.6204 4.07348L17.6585 8.58307C17.3233 8.8089 16.9283 8.92959 16.5241 8.92969L16.5228 3.49219ZM14.6204 4.07348C14.0582 4.45221 13.6219 4.99006 13.3671 5.61818L18.4059 7.66196C18.254 8.0365 17.9937 8.35722 17.6585 8.58307L14.6204 4.07348ZM13.3671 5.61818C13.1123 6.24631 13.0507 6.93617 13.1902 7.59951L18.5113 6.4805C18.5945 6.87605 18.5578 7.28742 18.4059 7.66196L13.3671 5.61818ZM13.1902 7.59951C13.3297 8.26284 13.664 8.86947 14.1501 9.34178L17.9389 5.44159C18.2289 5.72322 18.4282 6.08495 18.5113 6.4805L13.1902 7.59951ZM14.1221 9.31413L17.5318 12.7239L21.3767 8.87899L17.967 5.46924L14.1221 9.31413ZM19.4543 8.08268H2.32229V13.5202H19.4543V8.08268ZM2.36074 8.08295C1.9094 8.07657 1.4613 8.15996 1.04248 8.32826L3.06992 13.3736C2.82018 13.474 2.55298 13.5237 2.28385 13.5199L2.36074 8.08295ZM1.04248 8.32826C0.623651 8.49656 0.24245 8.74642 -0.0789715 9.06333L3.73864 12.9353C3.54698 13.1243 3.31967 13.2733 3.06992 13.3736L1.04248 8.32826ZM-0.0789715 9.06333C-0.400388 9.38023 -0.655621 9.75786 -0.829831 10.1743L4.18638 12.2729C4.08249 12.5212 3.9303 12.7463 3.73864 12.9353L-0.0789715 9.06333ZM-0.829831 10.1743C-1.00404 10.5907 -1.09375 11.0376 -1.09375 11.4889H4.34375C4.34375 11.7581 4.29026 12.0246 4.18638 12.2729L-0.829831 10.1743ZM-1.09375 11.4889C-1.09375 11.9403 -1.00404 12.3872 -0.829831 12.8036L4.18638 10.705C4.29026 10.9533 4.34375 11.2198 4.34375 11.4889H-1.09375ZM-0.829831 12.8036C-0.655621 13.22 -0.400388 13.5976 -0.0789715 13.9145L3.73864 10.0426C3.9303 10.2315 4.08249 10.4567 4.18638 10.705L-0.829831 12.8036ZM-0.0789715 13.9145C0.24245 14.2314 0.623651 14.4813 1.04248 14.6496L3.06992 9.60423C3.31967 9.70459 3.54698 9.85358 3.73864 10.0426L-0.0789715 13.9145ZM1.04248 14.6496C1.4613 14.8179 1.9094 14.9013 2.36074 14.8949L2.28385 9.45795C2.55298 9.45415 2.82018 9.50387 3.06992 9.60423L1.04248 14.6496ZM2.32229 14.8952H19.4543V9.45768H2.32229V14.8952ZM17.5318 10.254L14.1221 13.6637L17.967 17.5086L21.3767 14.0989L17.5318 10.254ZM14.1616 13.625C13.8347 13.9389 13.5737 14.3148 13.394 14.7308L18.3852 16.888C18.278 17.136 18.1224 17.3602 17.9275 17.5473L14.1616 13.625ZM13.394 14.7308C13.2142 15.1468 13.1192 15.5944 13.1146 16.0475L18.5518 16.1028C18.5491 16.373 18.4924 16.6399 18.3852 16.888L13.394 14.7308ZM13.1146 16.0475C13.11 16.5006 13.1958 16.9501 13.3671 17.3697L18.4012 15.3144C18.5034 15.5646 18.5546 15.8326 18.5518 16.1028L13.1146 16.0475ZM13.3671 17.3697C13.5384 17.7892 13.7917 18.1703 14.1121 18.4908L17.957 14.6459C18.1481 14.837 18.2991 15.0642 18.4012 15.3144L13.3671 17.3697ZM14.1121 18.4908C14.4325 18.8112 14.8137 19.0645 15.2332 19.2358L17.2885 14.2017C17.5386 14.3038 17.7659 14.4548 17.957 14.6459L14.1121 18.4908ZM15.2332 19.2358C15.6527 19.407 16.1022 19.4929 16.5554 19.4883L16.5001 14.0511C16.7703 14.0483 17.0383 14.0995 17.2885 14.2017L15.2332 19.2358ZM16.5554 19.4883C17.0085 19.4837 17.4561 19.3887 17.8721 19.2089L15.7149 14.2177C15.963 14.1104 16.2299 14.0538 16.5001 14.0511L16.5554 19.4883ZM17.8721 19.2089C18.2881 19.0292 18.664 18.7682 18.9778 18.4413L15.0556 14.6754C15.2427 14.4805 15.4669 14.3249 15.7149 14.2177L17.8721 19.2089ZM18.9392 18.4808L23.5225 13.8975L19.6776 10.0526L15.0943 14.6359L18.9392 18.4808ZM23.5229 13.8971C24.1614 13.2583 24.5201 12.3921 24.5201 11.4889H19.0826C19.0826 10.9504 19.2965 10.4339 19.6772 10.053L23.5229 13.8971ZM24.5201 11.4889C24.5201 10.5858 24.1614 9.71957 23.5229 9.0808L19.6772 12.9249C19.2965 12.544 19.0826 12.0275 19.0826 11.4889H24.5201ZM23.5225 9.0804L18.9392 4.49707L15.0943 8.34196L19.6776 12.9253L23.5225 9.0804ZM18.9672 4.52551C18.6497 4.19857 18.2699 3.93866 17.8501 3.76116L15.7323 8.7693C15.482 8.66346 15.2555 8.50847 15.0662 8.31352L18.9672 4.52551ZM17.8501 3.76116C17.4304 3.58367 16.9793 3.49221 16.5236 3.49219L16.5234 8.92969C16.2516 8.92968 15.9826 8.87514 15.7323 8.7693L17.8501 3.76116Z" fill="#4A5366" mask="url(#path-1-inside-1_4311_5834)"/>
</svg>
