<svg width="19" height="20" viewBox="0 0 19 20" fill="none" xmlns="http://www.w3.org/2000/svg">
<path d="M9.4987 2.08301C5.13347 2.08301 1.58203 5.63445 1.58203 9.99967C1.58203 14.3649 5.13347 17.9163 9.4987 17.9163C13.8639 17.9163 17.4154 14.3649 17.4154 9.99967C17.4154 5.63445 13.8639 2.08301 9.4987 2.08301ZM9.4987 3.27051C13.2221 3.27051 16.2279 6.27623 16.2279 9.99967C16.2279 13.7231 13.2221 16.7288 9.4987 16.7288C5.77525 16.7288 2.76953 13.7231 2.76953 9.99967C2.76953 6.27623 5.77525 3.27051 9.4987 3.27051ZM12.0662 6.8245C11.9094 6.82821 11.7604 6.8938 11.6518 7.00696L9.4987 9.16007L7.34558 7.00696C7.29024 6.94996 7.22402 6.90465 7.15085 6.87371C7.07768 6.84277 6.99904 6.82683 6.9196 6.82682C6.80143 6.82685 6.68596 6.86213 6.58796 6.92816C6.48996 6.99418 6.41389 7.08794 6.36947 7.19744C6.32506 7.30694 6.31432 7.4272 6.33864 7.54284C6.36296 7.65847 6.42122 7.76422 6.50598 7.84656L8.6591 9.99967L6.50598 12.1528C6.449 12.2075 6.4035 12.273 6.37216 12.3455C6.34083 12.4181 6.32427 12.4961 6.32347 12.5751C6.32266 12.6541 6.33763 12.7324 6.36749 12.8056C6.39735 12.8787 6.4415 12.9452 6.49736 13.001C6.55322 13.0569 6.61966 13.101 6.69279 13.1309C6.76593 13.1607 6.84429 13.1757 6.92328 13.1749C7.00227 13.1741 7.08031 13.1575 7.15282 13.1262C7.22534 13.0949 7.29087 13.0494 7.34558 12.9924L9.4987 10.8393L11.6518 12.9924C11.7065 13.0494 11.7721 13.0949 11.8446 13.1262C11.9171 13.1575 11.9951 13.1741 12.0741 13.1749C12.1531 13.1757 12.2315 13.1607 12.3046 13.1309C12.3777 13.101 12.4442 13.0569 12.5 13.001C12.5559 12.9452 12.6 12.8787 12.6299 12.8056C12.6598 12.7324 12.6747 12.6541 12.6739 12.5751C12.6731 12.4961 12.6566 12.4181 12.6252 12.3455C12.5939 12.273 12.5484 12.2075 12.4914 12.1528L10.3383 9.99967L12.4914 7.84656C12.5778 7.76369 12.637 7.65666 12.6615 7.53951C12.686 7.42236 12.6745 7.30055 12.6285 7.19005C12.5825 7.07956 12.5042 6.98553 12.4039 6.9203C12.3036 6.85507 12.1858 6.82168 12.0662 6.8245Z" fill="#CDD4DF"/>
</svg>
