<svg width="30" height="30" viewBox="0 0 30 30" fill="none" xmlns="http://www.w3.org/2000/svg">
<path d="M15.0005 2.5C8.11696 2.5 2.50054 8.11642 2.50054 15C2.50054 17.0803 3.06617 18.9643 3.89092 20.6653L2.53594 25.4968C2.53338 25.5053 2.53094 25.5139 2.52862 25.5225C2.24757 26.6466 3.35391 27.753 4.47808 27.4719C4.48666 27.4696 4.4952 27.4672 4.50371 27.4646L9.33404 26.1108C11.0546 26.9878 12.9449 27.5 15.0005 27.5C21.8841 27.5 27.5005 21.8836 27.5005 15C27.5005 8.11642 21.8841 2.5 15.0005 2.5ZM15.0005 4.375C20.867 4.375 25.6255 9.13358 25.6255 15C25.6255 20.8664 20.867 25.625 15.0005 25.625C13.0896 25.625 11.3844 25.1685 9.83086 24.3054C9.61499 24.1856 9.36058 24.1558 9.12285 24.2224L4.47442 25.5261L5.77813 20.8777C5.84222 20.6487 5.81691 20.4039 5.70733 20.1929C4.88738 18.6115 4.37554 16.892 4.37554 15C4.37554 9.13358 9.13412 4.375 15.0005 4.375ZM10.6255 13.75C9.93804 13.75 9.37554 14.3125 9.37554 15C9.37554 15.6875 9.93804 16.25 10.6255 16.25C11.313 16.25 11.8755 15.6875 11.8755 15C11.8755 14.3125 11.313 13.75 10.6255 13.75ZM15.0005 13.75C14.313 13.75 13.7505 14.3125 13.7505 15C13.7505 15.6875 14.313 16.25 15.0005 16.25C15.688 16.25 16.2505 15.6875 16.2505 15C16.2505 14.3125 15.688 13.75 15.0005 13.75ZM19.3755 13.75C18.688 13.75 18.1255 14.3125 18.1255 15C18.1255 15.6875 18.688 16.25 19.3755 16.25C20.063 16.25 20.6255 15.6875 20.6255 15C20.6255 14.3125 20.063 13.75 19.3755 13.75Z" fill="#667085"/>
</svg>
