<svg width="34" height="34" viewBox="0 0 34 34" fill="none" xmlns="http://www.w3.org/2000/svg">
<path d="M30.5194 15.6468C30.95 16.2507 31.1654 16.5527 31.1654 16.9997C31.1654 17.4466 30.95 17.7487 30.5194 18.3526C28.5841 21.0664 23.6417 26.9163 16.9987 26.9163C10.3556 26.9163 5.41334 21.0664 3.47809 18.3526C3.04738 17.7487 2.83203 17.4466 2.83203 16.9997C2.83203 16.5527 3.04738 16.2507 3.47809 15.6468C5.41334 12.933 10.3556 7.08301 16.9987 7.08301C23.6417 7.08301 28.5841 12.933 30.5194 15.6468Z" stroke="black" stroke-width="1.5"/>
<path d="M21.25 17C21.25 14.6527 19.3473 12.75 17 12.75C14.6527 12.75 12.75 14.6527 12.75 17C12.75 19.3473 14.6527 21.25 17 21.25C19.3473 21.25 21.25 19.3473 21.25 17Z" stroke="black" stroke-width="1.5"/>
</svg>
