<svg width="69" height="69" viewBox="0 0 69 69" fill="none" xmlns="http://www.w3.org/2000/svg">
<path d="M34.7392 6.62109C19.1401 6.62109 6.44922 19.312 6.44922 34.9111C6.44922 49.0645 16.908 60.7893 30.4957 62.8474V41.9836H24.8377C24.0569 41.9836 23.4232 41.3513 23.4232 40.5691V36.3256C23.4232 35.5433 24.0569 34.9111 24.8377 34.9111H30.4957V29.7736C30.4957 23.0533 33.9287 19.3516 40.1624 19.3516C42.6887 19.3516 44.6817 19.527 44.7651 19.5341C45.495 19.5991 46.0552 20.2102 46.0552 20.9429V25.7168C46.0552 26.499 45.4215 27.1313 44.6407 27.1313H41.8117C40.2515 27.1313 38.9827 28.4001 38.9827 29.9603V34.9111H44.6407C45.0466 34.9111 45.4328 35.085 45.7015 35.3892C45.9703 35.6947 46.0948 36.0992 46.0453 36.501L45.5148 40.7445C45.4257 41.4517 44.8231 41.9836 44.1102 41.9836H38.9827V62.8474C52.5704 60.7893 63.0292 49.0645 63.0292 34.9111C63.0292 19.312 50.3383 6.62109 34.7392 6.62109Z" fill="#212838"/>
</svg>
