<svg width="486" height="362" viewBox="0 0 486 362" fill="none" xmlns="http://www.w3.org/2000/svg">
<g clip-path="url(#clip0_2714_6075)">
<path d="M447.735 87.9971C392.575 11.0266 276.052 -20.1959 161.455 13.4315C100.872 31.2093 42.4576 66.8298 13.5091 135.803C-38.2395 259.099 70.4132 298.477 141.46 311.027C175.815 317.095 208.171 327.289 237.738 341.168C290.933 366.138 385.09 388.264 456.091 284.254C507.553 208.867 484.477 139.267 447.735 87.9971Z" fill="#F2F2F2"/>
<path d="M127.934 103.225C127.78 102.002 127.467 100.804 127.005 99.6614C126.947 99.4453 126.843 99.2438 126.703 99.0699C126.562 98.896 126.386 98.7534 126.188 98.6512C125.922 98.5819 125.643 98.5788 125.376 98.6421L121.209 99.2814C120.861 99.2974 120.527 99.4275 120.259 99.6518C119.716 100.224 120.251 101.146 120.234 101.935C120.215 102.823 119.429 103.544 118.576 103.782C117.705 103.959 116.806 103.947 115.94 103.749L110.114 102.841C111.83 102.292 113.357 101.27 114.522 99.8921C115.288 98.9813 115.696 97.2809 114.588 96.8496C114.259 96.759 113.916 96.7313 113.576 96.7681C110.937 96.7887 108.86 94.5786 106.388 93.6478C104.807 93.0906 103.09 93.0492 101.484 93.5294C99.877 94.0096 98.4631 94.987 97.4439 96.3217L100.548 96.4717C100.84 96.4555 101.129 96.533 101.374 96.6928C102.054 97.2532 101.209 98.3296 101.305 99.2071C101.429 100.347 102.939 100.591 104.077 100.706C105.215 100.821 106.658 101.748 106.111 102.755C100.391 104.731 94.5713 98.8936 88.5647 99.6122C87.0445 99.794 85.609 100.393 84.1248 100.769C75.058 103.07 65.6845 96.9322 56.4222 98.232C54.3631 98.584 52.3394 99.1193 50.375 99.8313C49.1144 100.246 47.7995 100.695 46.8835 101.658C45.9676 102.62 45.619 104.266 46.4867 105.273C44.095 105.47 41.6874 105.241 39.3757 104.595C40.0008 104.944 40.5209 105.454 40.8813 106.074C41.2417 106.693 41.4291 107.399 41.4239 108.116C37.6896 108.726 34.0542 109.838 30.6154 111.421C31.2572 112.491 32.0069 113.492 32.8525 114.409L28.125 117.455C29.7222 117.858 30.548 120.042 29.6191 121.406C31.2752 120.667 32.3016 118.756 34.0725 118.369C35.2327 118.115 36.4132 118.591 37.5139 119.038C38.6145 119.485 39.8242 119.918 40.9635 119.583C42.1029 119.247 42.9433 117.766 42.2193 116.822C47.0893 115.397 52.1223 114.609 57.1936 114.476C57.5848 114.427 57.9816 114.502 58.3276 114.692C58.9878 115.151 58.8141 116.143 58.7786 116.948C58.743 117.753 59.3686 118.811 60.086 118.448C59.242 119.182 59.9635 120.563 60.7733 121.335C61.583 122.107 62.559 123.172 62.0633 124.176C61.9339 124.438 61.7144 124.648 61.5899 124.912C61.2225 125.692 61.8059 126.602 62.4941 127.12C63.1823 127.639 64.0253 128.001 64.5033 128.719C64.9814 129.436 64.7643 130.692 63.9094 130.793L61.4797 127.699C60.6496 128.562 60.0805 129.644 59.8384 130.818C62.4149 132.93 62.8025 137.229 60.6454 139.77C59.5431 141.069 57.9756 141.858 56.6074 142.871C55.2393 143.884 53.9733 145.326 53.9768 147.032C53.9827 149.978 53.7426 152.715 54.8436 155.446C56.8738 160.483 59.2177 165.387 61.8616 170.129C62.5558 171.374 63.4531 172.739 64.8596 172.953C63.0821 168.614 61.482 164.207 60.0593 159.733C60.9859 159.737 62.0568 159.81 62.6 160.563C63.0498 161.187 62.9532 162.034 63.0929 162.791C63.2707 163.524 63.5671 164.222 63.9705 164.859L72.4585 180.021C73.1621 181.278 73.9692 182.627 75.314 183.136C76.1738 183.461 77.1686 183.4 77.96 183.869C78.5803 184.236 78.9981 184.888 79.6304 185.234C81.4185 186.212 83.9049 184.336 85.5759 185.504C86.0537 185.838 86.3576 186.368 86.7979 186.75C88.3412 188.091 90.8728 187.194 92.6544 188.194C93.8026 188.838 94.3976 190.127 95.01 191.294C96.5441 194.22 99.0262 197.085 102.314 197.318C103.347 197.391 104.401 197.195 105.411 197.425C106.42 197.656 107.414 198.539 107.252 199.564C106.974 201.322 107.84 203.247 107.608 205.012C107.184 208.226 102.638 209.638 102.247 212.856C102.162 213.561 102.296 214.288 102.128 214.978C101.923 215.823 101.29 216.511 101.065 217.351C100.639 218.944 101.777 220.528 103.026 221.6C104.276 222.671 105.767 223.595 106.45 225.094C107.172 226.679 106.817 228.527 107.052 230.254C107.565 234.023 110.812 236.817 114.153 238.619C115.171 239.168 116.264 239.7 116.923 240.652C117.783 241.895 117.697 243.533 117.984 245.019C118.688 248.656 121.741 251.653 121.828 255.357C121.89 257.99 120.43 260.378 119.558 262.862C118.741 265.242 118.445 267.771 118.691 270.276C118.937 272.781 119.719 275.203 120.984 277.378C121.636 278.482 122.416 279.523 122.877 280.72C123.7 282.857 123.433 285.285 124.192 287.445C125.196 290.301 127.954 292.66 127.69 295.676C128.942 298.283 131.706 299.564 134.486 300.34L139.468 301.73C140.422 301.997 141.419 302.265 142.39 302.072C143.361 301.879 144.288 301.071 144.263 300.078C141.82 299.525 139.299 298.938 137.285 297.445C135.271 295.952 133.891 293.294 134.655 290.902C135.01 289.793 135.763 288.512 135.047 287.596C134.636 287.071 133.886 286.934 133.423 286.455C132.701 285.709 132.949 284.454 133.468 283.554C133.987 282.654 134.738 281.849 134.947 280.83C135.053 280.261 134.982 279.672 134.744 279.144C134.507 278.615 134.114 278.172 133.619 277.874C134.542 277.524 135.382 276.984 136.084 276.287C136.733 275.545 137.032 274.4 136.522 273.556C138.037 273.748 139.826 273.843 140.82 272.681C141.614 271.753 141.56 270.365 141.246 269.184C140.932 268.002 140.402 266.855 140.385 265.632C143.88 265.798 147.382 265.679 150.857 265.276C150.355 263.579 149.213 262.144 147.674 261.277C149.248 261.01 150.681 259.121 151.179 257.6C151.676 256.078 151.549 254.422 151.242 252.851C151.124 252.446 151.108 252.019 151.195 251.607C151.372 251.04 151.927 250.695 152.44 250.399L160.253 245.9C160.719 245.665 161.142 245.353 161.502 244.975C162.321 244.011 162.199 242.555 161.78 241.361C161.361 240.166 160.69 239.043 160.528 237.787C160.046 234.032 164.055 231.337 165.408 227.801C165.939 226.414 166.047 224.906 166.15 223.423C166.26 221.831 166.269 219.982 165.049 218.955C163.881 217.972 162.055 218.191 160.832 217.276C159.71 216.438 159.324 214.808 158.099 214.131C156.986 213.516 155.592 213.907 154.354 213.618C152.176 213.108 150.805 210.591 148.581 210.357C147.325 210.226 145.905 210.841 144.876 210.108C143.97 209.462 143.933 208.164 143.761 207.062C143.458 205.35 142.64 203.772 141.416 202.541C140.192 201.31 138.621 200.484 136.915 200.175C135.62 199.967 134.212 200.046 133.111 199.333C131.996 198.611 131.485 197.259 130.609 196.259C129.198 194.647 126.975 194.074 124.893 193.583L116.423 191.587C114.919 191.232 112.981 191.044 112.174 192.365C111.935 192.868 111.766 193.401 111.672 193.95C111.369 194.943 110.761 195.814 109.934 196.438C109.107 197.062 108.103 197.408 107.068 197.424C106.359 196.21 105.209 195.318 103.858 194.934C102.999 194.694 102.08 194.667 101.261 194.314C100.815 194.095 100.418 193.788 100.094 193.411C99.7709 193.033 99.5276 192.593 99.3794 192.118C99.2312 191.643 99.1812 191.143 99.2326 190.648C99.2839 190.152 99.4355 189.673 99.678 189.239C100.166 188.367 100.355 187.358 100.215 186.368C100.074 185.378 99.6131 184.462 98.902 183.761C97.4616 182.464 95.378 182.151 93.4467 182.281C92.9408 181.174 93.7866 179.925 94.698 179.121C95.6094 178.316 96.7162 177.526 96.9147 176.325C97.2269 174.435 94.8228 173 92.9975 173.564C91.1722 174.127 90.0072 175.905 89.2371 177.657C88.7952 178.663 88.4195 179.722 87.7226 180.57C87.0256 181.417 85.9031 182.024 84.8415 181.752C83.3385 181.367 82.758 179.577 82.4254 178.057C81.9791 176.019 81.5302 173.952 81.6237 171.867C81.7172 169.782 82.4181 167.641 83.9514 166.229C86.4498 163.929 90.2826 164.155 93.6545 164.522C92.8579 163.622 93.0548 162.105 93.9071 161.257C94.3571 160.857 94.8977 160.572 95.4823 160.428C96.0668 160.284 96.6775 160.285 97.2615 160.431C98.2775 160.643 99.1928 161.192 99.8601 161.989C100.818 163.161 101.091 164.742 101.815 166.072C102.539 167.402 104.168 168.536 105.501 167.822C106.652 167.206 106.835 165.605 106.548 164.329C106.262 163.052 105.653 161.81 105.757 160.506C105.955 158.017 108.528 156.518 110.799 155.493C113.069 154.468 115.67 153.089 116.029 150.619C116.042 150.135 116.133 149.656 116.299 149.202C116.55 148.801 116.9 148.471 117.315 148.243C123.942 143.852 130.68 139.406 138.254 137.007C138.648 136.882 138.694 137.02 139.096 136.923C139.658 136.597 139.285 135.696 138.747 135.333C138.208 134.97 137.487 134.691 137.351 134.055C137.25 133.587 137.525 133.128 137.596 132.655C137.772 131.492 136.385 130.419 135.308 130.883C134.699 130.075 135.903 129.136 136.877 128.868C139.8 128.061 142.8 127.569 145.828 127.401C146.177 127.346 146.535 127.407 146.846 127.575C147.355 127.928 147.29 128.738 146.929 129.243C146.569 129.747 146.009 130.063 145.56 130.49C145.069 130.969 144.719 131.574 144.548 132.239C144.377 132.904 144.391 133.604 144.59 134.261C146.17 135.067 147.888 135.897 149.638 135.613C151.389 135.329 152.942 133.357 152.119 131.782C151.353 130.315 149.052 129.984 148.656 128.377C148.193 126.495 150.85 124.821 150.251 122.978C149.989 122.17 149.187 121.695 148.571 121.112C147.844 120.397 147.349 119.479 147.152 118.477C146.955 117.475 147.064 116.437 147.466 115.499C146.463 115.676 145.433 115.609 144.461 115.304C143.489 114.999 142.604 114.465 141.881 113.746C140.545 112.394 139.479 110.262 137.582 110.322C135.841 110.378 134.341 112.414 132.713 111.793C132.313 111.64 131.891 111.329 131.503 111.511C131.375 111.594 131.269 111.705 131.19 111.835C131.112 111.965 131.064 112.112 131.051 112.263C130.637 114.246 131.349 116.506 130.271 118.22C129.098 120.085 126.385 120.343 124.962 122.025C124.19 122.938 123.891 124.168 123.182 125.131C122.472 126.093 120.966 126.705 120.115 125.866C120.533 125.004 120.648 124.024 120.439 123.088C120.23 122.152 119.711 121.314 118.966 120.712C118.176 120.195 117.323 119.779 116.43 119.474C115.431 119.051 114.481 118.52 113.596 117.891C113.153 117.623 112.792 117.236 112.555 116.774C112.368 116.196 112.393 115.57 112.627 115.009C113.058 113.768 113.82 112.668 114.83 111.829C115.839 110.99 117.058 110.444 118.354 110.249C119.488 110.094 120.808 110.148 121.558 109.282C121.955 108.824 122.163 108.131 122.74 107.945C123.108 107.87 123.491 107.918 123.831 108.079L128.062 109.573C128.535 109.787 129.054 109.873 129.57 109.823C129.826 109.789 130.059 109.658 130.223 109.459C130.387 109.259 130.469 109.004 130.454 108.746C130.319 108.041 129.237 107.703 129.336 106.992C129.391 106.762 129.514 106.554 129.69 106.395C131.217 104.765 133.085 103.494 135.159 102.673C137.234 101.851 139.464 101.5 141.69 101.644C142.224 102.523 141.379 103.565 140.676 104.316C139.973 105.067 139.408 106.409 140.258 106.987C140.607 107.165 140.994 107.252 141.385 107.241C142.427 107.382 143.439 107.69 144.384 108.153C145.847 108.791 147.281 109.49 148.687 110.248C148.563 109.318 148.444 108.339 148.796 107.469C149.147 106.6 150.146 105.918 151.018 106.257C151.859 106.583 152.29 107.699 153.186 107.802C154.381 107.938 154.852 106.168 154.353 105.071C153.854 103.974 152.866 103.055 152.784 101.852C152.728 101.04 153.036 100.033 152.389 99.542C152.159 99.3945 151.898 99.3026 151.627 99.2738L135.483 96.2948C134.524 96.1179 133.139 96.2535 133.097 97.23C133.073 97.7751 133.558 98.3143 133.343 98.8155C133.114 99.3504 132.36 99.3015 131.811 99.4907C130.959 99.7842 130.531 100.799 130.613 101.699C130.763 102.593 131.108 103.443 131.624 104.187C130.574 103.747 128.984 103.666 127.934 103.225Z" fill="#3F3D56"/>
<path d="M115.053 89.4842C114.035 89.1464 112.938 89.1306 111.911 89.4391C110.884 89.7476 109.976 90.3654 109.311 91.2087C109.045 91.5597 108.822 92.0435 109.044 92.4235C109.363 92.9683 110.176 92.7532 110.775 92.5583C111.656 92.2427 112.615 92.2197 113.51 92.4928C114.073 92.6866 114.576 93.029 115.142 93.2155C115.417 93.3309 115.718 93.369 116.013 93.3258C116.308 93.2825 116.586 93.1595 116.817 92.97C117.205 92.5733 117.229 91.9565 117.23 91.4008C117.257 91.2149 117.242 91.0253 117.186 90.8459C117.131 90.6664 117.036 90.5016 116.909 90.3636C116.683 90.2322 116.429 90.1568 116.168 90.1436C115.583 90.0351 115.054 89.7253 114.672 89.2677" fill="#3F3D56"/>
<path d="M120.875 87.8574C120.647 87.845 120.42 87.8915 120.215 87.9926C120.01 88.0936 119.835 88.2458 119.706 88.4344C119.577 88.6231 119.498 88.8418 119.478 89.0697C119.458 89.2976 119.496 89.5269 119.589 89.7356C120.289 89.9269 121.02 89.9747 121.739 89.8761C122.097 89.8203 122.431 89.6594 122.698 89.4136C122.965 89.1678 123.154 88.8482 123.241 88.4951C122.395 88.6494 121.522 88.4822 120.792 88.0261" fill="#3F3D56"/>
<path d="M140.405 85.1441C138.501 85.5501 136.651 86.1803 134.895 87.0214C135.723 87.3407 136.427 87.9182 136.903 88.6691C137.379 89.4199 137.602 90.3042 137.539 91.1917C137.465 91.5325 137.473 91.8861 137.564 92.2228C137.767 92.7149 138.353 92.8995 138.869 93.0258C139.795 93.3085 140.762 93.4323 141.73 93.392C142.214 93.3666 142.684 93.2206 143.097 92.9672C143.511 92.7138 143.855 92.361 144.098 91.9407C144.238 91.5418 144.403 91.152 144.591 90.7733C145.827 88.8857 149.498 91.168 150.825 89.3437C151.293 88.7011 151.25 87.7337 151.859 87.2245C152.175 87.0026 152.54 86.8629 152.922 86.8177C155.591 86.2861 158.286 85.9011 160.997 85.6645C162.281 85.5525 163.955 85.09 163.966 83.7974C159.128 82.8447 154.113 83.5214 149.698 85.7221C148.108 86.5209 146.005 88.2012 144.473 87.1422C143.899 86.7456 143.927 85.6779 143.138 85.2321C142.331 84.7762 141.262 84.9616 140.405 85.1441Z" fill="#3F3D56"/>
<path d="M156.224 88.111L158.495 88.5486C158.077 88.53 157.659 88.601 157.271 88.7569C156.883 88.9128 156.532 89.15 156.242 89.4526C155.952 89.7552 155.73 90.1163 155.59 90.5119C155.451 90.9074 155.397 91.3282 155.432 91.7462C157.559 92.4586 159.877 91.7654 162.117 91.8601C164.357 91.9547 166.963 93.5592 166.581 95.7745C166.465 96.4443 166.079 97.1136 166.28 97.7629C166.421 98.218 166.821 98.541 167.047 98.9601C167.518 99.8335 167.141 100.938 166.547 101.732C165.953 102.526 165.154 103.16 164.632 104.003C163.334 106.102 164.071 108.815 164.844 111.16C165.068 112.045 165.481 112.872 166.054 113.582C167.199 114.803 169.066 114.909 170.737 114.934C171.954 114.952 173.348 114.891 174.117 113.946C175.122 112.712 174.419 110.787 175.081 109.338C175.681 108.023 177.211 107.459 178.598 107.058C181.138 106.325 183.726 105.702 186.127 104.594C189.109 103.219 191.896 101.076 195.173 100.899C196.092 100.849 197.035 100.958 197.92 100.705C198.806 100.453 199.647 99.6849 199.58 98.7641C199.523 97.9773 198.859 97.3995 198.34 96.8064C197.821 96.2132 197.414 95.3012 197.891 94.6736L206.481 93.0647C205.872 91.4007 205.398 89.2091 206.797 88.126C207.302 87.7352 207.978 87.579 208.407 87.1066C209.14 86.3013 208.772 84.9142 207.926 84.2294C207.08 83.5446 205.937 83.3856 204.854 83.2954C201.087 82.9817 197.299 83.189 193.525 83.3964C186.148 83.8019 178.771 84.2074 171.394 84.6129C169.909 84.6945 168.194 84.5698 166.832 85.0778C165.679 85.508 164.859 86.2975 163.54 86.5749C161.106 87.087 158.427 86.7404 156.224 88.111Z" fill="#3F3D56"/>
<path d="M196.903 106.108C196.672 106.071 196.435 106.125 196.242 106.258C196.115 106.399 196.039 106.579 196.027 106.769C195.881 107.608 196.055 108.471 196.516 109.185C196.751 109.536 197.075 109.817 197.455 109.999C197.834 110.182 198.256 110.259 198.675 110.223C199.698 110.093 200.451 109.218 201.391 108.791C202.84 108.134 208.993 107.109 204.737 104.803C203.27 104.009 202.322 104.71 201.166 105.234C199.851 105.908 198.377 106.211 196.903 106.108Z" fill="#3F3D56"/>
<path d="M234.181 86.8093C233.684 87.0129 233.268 87.3758 232.999 87.8413C232.874 88.0777 232.846 88.3529 232.918 88.6101C232.991 88.8672 233.159 89.0865 233.388 89.2227C233.574 89.2902 233.77 89.3215 233.968 89.3149L235.989 89.3754C236.847 89.4012 237.919 89.5845 238.15 90.414C238.321 91.03 237.938 91.8215 238.4 92.2617C238.599 92.4159 238.838 92.5092 239.088 92.5306C239.753 92.702 240.449 92.7245 241.124 92.5965C242.594 92.201 241.822 91.3012 242.285 90.4999C242.993 89.274 242.871 90.0161 244.119 89.3135C245.041 88.7946 246.232 87.8533 245.463 86.5308C244.125 84.2309 236.156 85.8213 234.181 86.8093Z" fill="#3F3D56"/>
<path d="M274.068 85.6515L272.894 85.8085C270.248 86.1626 267.588 86.5199 265.039 87.3167C266.142 87.7541 267.3 88.0389 268.479 88.1632C269.129 88.1952 269.774 88.2871 270.406 88.4379C271.532 88.7739 272.666 89.6416 273.754 89.1972C274.428 88.9216 274.648 88.2176 275.206 87.8444C275.592 87.5868 277.055 87.1698 277.218 86.9098C278.54 84.8076 275.084 85.5155 274.068 85.6515Z" fill="#3F3D56"/>
<path d="M279.218 90.9995C277.651 91.8783 276.196 92.9462 274.888 94.1794C274.337 94.6991 273.773 95.3454 273.823 96.1025C273.89 97.1087 274.959 97.6924 275.885 98.0856L279.636 99.6781C280.091 99.035 279.674 98.1472 279.204 97.5151C278.734 96.8831 278.175 96.1519 278.383 95.3913C278.62 94.5234 279.675 94.2276 280.56 94.0781C282.002 93.8345 285.892 93.854 285.424 91.5239C284.874 88.7782 280.665 90.1882 279.218 90.9995Z" fill="#3F3D56"/>
<path d="M278.463 246.378C278.106 247.415 278.072 248.636 278.69 249.541C279.383 250.556 280.77 250.935 281.97 250.678C283.165 250.359 284.23 249.672 285.016 248.714C285.734 247.911 286.325 247.003 286.767 246.02C287.385 244.489 287.821 242.889 288.066 241.256L289.231 235.124C289.491 233.754 289.481 229.552 286.969 230.921C286.283 231.295 284.694 234.247 283.975 235.085C282.679 236.594 282.507 238.058 281.825 239.886C280.97 242.176 279.253 244.084 278.463 246.378Z" fill="#3F3D56"/>
<path d="M411.128 277.755C410.306 277.433 409.508 277.052 408.741 276.615C407.972 278.736 407.563 280.971 407.531 283.228L413.155 280.037C414.001 279.556 414.96 278.889 414.942 277.915C414.95 277.794 414.925 277.674 414.87 277.567C414.815 277.459 414.733 277.369 414.631 277.304C414.506 277.254 414.37 277.238 414.237 277.258C413.403 277.328 412.643 277.739 411.856 278.025C411.069 278.312 410.149 278.463 409.427 278.038" fill="#3F3D56"/>
<path d="M440.798 279.649C440.18 279.818 439.577 280.035 438.994 280.298C437.703 280.957 436.825 282.208 435.664 283.075C434.553 283.905 433.215 284.361 431.901 284.804C431.515 285.146 431.693 285.836 432.112 286.137C432.563 286.394 433.08 286.51 433.597 286.471C434.962 286.502 436.399 286.515 437.595 285.854C438.268 285.416 438.898 284.914 439.476 284.356C440.874 283.187 442.552 282.416 444.213 281.67C444.818 281.441 445.377 281.106 445.864 280.68C446.908 279.649 446.981 278.058 445.476 277.707C444.26 277.424 441.956 279.274 440.798 279.649Z" fill="#3F3D56"/>
<path d="M453.906 271.064C453.974 270.354 453.88 269.638 453.631 268.971C453.382 268.303 452.986 267.7 452.471 267.209C452.455 268.629 452.412 270.141 451.616 271.315C451.049 272.152 450.159 272.717 449.538 273.514C448.916 274.31 448.64 275.573 449.369 276.272C449.835 276.628 450.403 276.824 450.989 276.832C452.44 277.003 454.12 277.099 455.138 276.047C455.693 275.473 455.964 274.623 456.641 274.201C456.894 274.095 457.119 273.933 457.301 273.728C457.581 273.282 457.136 272.694 456.636 272.533C456.135 272.373 455.584 272.448 455.081 272.296C454.578 272.143 454.116 271.576 454.374 271.117" fill="#3F3D56"/>
<path d="M430.606 219.011C429.845 219.196 429.056 219.243 428.279 219.148C426.986 218.91 425.981 217.934 424.938 217.133C422.458 215.239 419.443 214.183 416.327 214.116C413.493 214.062 410.632 214.833 407.848 214.295C408.03 215.31 408.895 216.071 409.819 216.523C410.743 216.975 411.762 217.203 412.69 217.646C414.177 218.362 415.355 219.592 416.011 221.11C416.31 221.809 416.498 222.571 416.951 223.182C417.876 224.431 419.63 224.705 421.178 224.603C423.197 224.469 425.305 223.887 427.183 224.641C428.619 225.218 429.648 226.479 430.847 227.46C432.047 228.44 433.736 229.168 435.113 228.46C433.683 227.996 432.438 227.085 431.56 225.861C430.682 224.636 430.217 223.163 430.233 221.655C431.584 221.78 435.475 221.731 435.266 219.43C435.088 217.479 431.766 218.8 430.606 219.011Z" fill="#3F3D56"/>
<path d="M412.938 234.882C413.177 233.563 414.489 232.398 414.081 231.121C413.798 230.238 412.777 229.803 411.853 229.781C410.928 229.759 410.02 230.035 409.096 230.061C408.494 230.029 407.891 230.038 407.29 230.087C405.455 230.389 404.324 232.318 402.595 233.004C401.543 233.421 400.362 233.341 399.269 233.629C396.786 234.284 395.215 236.636 393.48 238.532C390.676 241.583 387.024 243.719 382.995 244.664C381.584 244.992 380.067 245.201 378.945 246.121C377.459 247.338 377.093 249.425 376.763 251.32C375.849 256.554 374.454 261.691 372.594 266.666L378.488 267.421C379.609 267.564 380.77 267.705 381.85 267.372C382.635 267.075 383.378 266.678 384.061 266.191C386.686 264.556 389.624 263.493 392.685 263.069C394.229 262.857 395.847 262.818 397.296 263.393C398.744 263.968 399.987 265.273 400.109 266.831C400.735 266.635 401.403 266.614 402.04 266.77C402.677 266.925 403.261 267.251 403.728 267.713C404.651 268.656 405.255 269.866 405.456 271.172C405.611 271.981 405.766 272.95 406.515 273.289C407.125 273.566 407.825 273.268 408.493 273.214C410.759 273.032 412.64 275.682 414.867 275.226C417.256 274.737 417.843 271.149 420.173 270.43C421.512 270.018 423.389 270.519 424.03 269.271C424.595 268.17 423.468 266.9 423.584 265.668C423.728 264.151 425.512 263.507 426.888 262.86C431.632 260.628 433.883 254.226 431.584 249.504C430.222 246.706 427.542 244.504 427.048 241.431C426.667 239.066 427.596 236.309 426.093 234.448C425.328 233.501 424.033 232.978 423.578 231.849C423.292 231.137 423.407 230.331 423.253 229.579C423.098 228.828 422.445 228.042 421.705 228.237C419.558 228.802 418.872 235.454 417.723 237.071C415.975 239.528 412.387 237.909 412.938 234.882Z" fill="#3F3D56"/>
<path d="M373.244 221.524C372.51 221.318 371.709 221.115 371.006 221.41C370.302 221.704 369.892 222.74 370.456 223.253C374.871 223.081 379.313 222.91 383.69 223.511C388.734 224.204 393.725 225.919 398.791 225.415C395.897 224.559 392.956 223.874 389.982 223.365L385.023 222.415C383.692 222.136 382.348 221.927 380.996 221.791C378.167 221.557 376.025 222.306 373.244 221.524Z" fill="#3F3D56"/>
<path d="M377.666 206.106C377.3 206.075 376.846 206.049 376.656 206.365C376.475 206.666 376.682 207.065 376.585 207.404C376.452 207.866 375.848 207.985 375.372 207.922C374.896 207.859 374.381 207.708 373.959 207.938C373.746 208.084 373.585 208.297 373.501 208.542C373.418 208.788 373.416 209.055 373.497 209.301C373.669 209.792 373.948 210.237 374.313 210.606C374.936 211.394 375.647 212.109 376.431 212.737C377.948 213.86 380.004 214.401 380.96 216.032C381.094 216.348 381.302 216.627 381.564 216.848C382.023 217.139 382.622 216.918 383.116 216.691L384.847 215.898C385.159 215.785 385.437 215.595 385.657 215.346C386.052 214.808 385.809 214.042 385.477 213.462C385.145 212.883 384.72 212.283 384.791 211.618C384.918 210.432 386.438 209.979 387.063 208.965C387.693 207.943 387.283 206.626 387.356 205.426C387.44 204.023 388.319 202.199 386.905 201.15C385.703 200.26 384.555 201.083 383.692 202.066C381.872 204.14 381.011 206.386 377.666 206.106Z" fill="#3F3D56"/>
<path d="M388.175 185.147C388.766 186.282 389.999 186.959 390.643 188.064C391.342 189.263 391.262 190.811 392.02 191.972C392.798 193.163 394.363 193.796 394.799 195.151C395.275 196.63 394.195 198.429 395.056 199.721C395.217 199.933 395.419 200.108 395.651 200.237C395.883 200.366 396.139 200.445 396.403 200.469C396.667 200.493 396.933 200.462 397.184 200.378C397.435 200.294 397.666 200.158 397.863 199.98C398.226 199.583 398.42 199.061 398.404 198.523C398.388 197.984 398.164 197.474 397.778 197.1C397.268 196.634 396.536 196.432 396.11 195.888C395.888 195.573 395.741 195.213 395.678 194.833C395.446 193.737 395.483 192.602 395.786 191.524C395.9 191.25 395.929 190.949 395.869 190.658C395.678 190.1 394.923 190.06 394.394 189.801C393.191 189.212 393.221 187.511 393.431 186.185C393.291 187.068 390.157 185.567 389.829 185.067C389.177 184.075 389.532 182.16 389.403 181.062C387.995 181.743 387.452 183.759 388.175 185.147Z" fill="#3F3D56"/>
<path d="M356.603 202.609C356.025 201.96 355.153 201.28 354.378 201.672C353.786 201.971 353.623 202.792 353.855 203.414C354.138 204.018 354.573 204.538 355.117 204.922C356.733 206.259 358.473 207.465 359.883 209.019C362.406 211.799 363.743 215.551 366.487 218.112C367.038 218.706 367.769 219.102 368.566 219.241C369.366 219.315 370.263 218.802 370.355 218.002C370.431 217.343 369.973 216.754 369.525 216.266C368.459 215.103 367.292 214.033 366.286 212.818C365.821 212.351 365.529 211.74 365.458 211.084C365.453 210.43 366.048 209.745 366.68 209.907C365.911 209.71 365.341 208.426 364.213 208.185C363.27 207.983 363.042 208.568 361.92 208.086C359.78 207.166 358.102 204.291 356.603 202.609Z" fill="#3F3D56"/>
<path d="M406.885 139.382C406.271 139.199 405.668 138.983 405.077 138.735C403.488 138.257 401.386 139.428 401.598 141.078C401.739 142.174 402.756 142.913 403.318 143.864C404.151 145.274 403.929 147.062 403.491 148.641C403.384 149.13 403.179 149.593 402.89 150.001C402.486 150.432 402.002 150.78 401.466 151.028C399.321 152.234 397.428 153.846 395.894 155.775C395.727 155.953 395.611 156.172 395.558 156.411C395.482 156.968 396.04 157.374 396.356 157.838C397.057 158.87 396.55 160.259 396.62 161.506C396.609 161.682 396.644 161.858 396.72 162.018C396.796 162.177 396.912 162.314 397.056 162.416C397.478 162.631 397.979 162.265 398.208 161.849C398.968 160.468 398.396 158.251 399.822 157.585C400.092 157.459 400.419 157.406 400.599 157.168C400.884 156.791 400.609 156.233 400.754 155.782C400.971 155.106 401.894 155.075 402.602 155.105C403.822 155.156 405.041 154.994 406.205 154.624C406.662 154.515 407.077 154.275 407.398 153.932C407.825 153.398 407.787 152.639 407.702 151.961C407.275 148.579 406.207 145.31 404.554 142.331C405.807 142.491 407.17 142.63 408.251 141.976C408.857 141.609 409.583 140.513 409.282 139.766C408.808 138.586 407.95 139.58 406.885 139.382Z" fill="#3F3D56"/>
<path d="M246.269 157.983C246.418 158.789 246.566 159.638 246.302 160.415C246.039 161.191 245.21 161.84 244.427 161.602C243.819 161.417 243.469 160.805 243.037 160.338C240.638 157.741 235.225 159.244 233.743 156.031C233.138 154.72 233.55 153.149 233.137 151.765C232.877 150.964 232.359 150.274 231.665 149.801C230.97 149.328 230.139 149.1 229.302 149.152C228.538 149.262 227.794 149.485 227.095 149.812C222.409 151.694 217.49 152.928 212.472 153.48C211.519 153.538 210.575 153.71 209.662 153.993C207.602 154.742 206.195 156.657 205.193 158.611C204.191 160.566 203.451 162.682 202.108 164.418C200.697 166.243 198.719 167.521 196.874 168.903C196.163 169.362 195.571 169.985 195.147 170.718C194.747 171.542 194.769 172.499 194.8 173.415L195.177 184.533C195.226 185.964 195.287 187.445 195.925 188.725C196.722 190.323 198.297 191.369 199.389 192.781C200.504 194.232 201.085 196.025 201.033 197.855C201.01 198.591 200.937 199.462 201.509 199.924C201.856 200.15 202.263 200.268 202.678 200.261L217.676 201.492C220.315 201.709 223.239 202.065 224.961 204.081C225.774 205.032 226.427 206.4 227.672 206.502C228.206 206.546 228.726 206.326 229.26 206.284C230.608 206.177 231.792 207.202 232.539 208.332C233.67 210.054 234.184 212.111 233.995 214.164C233.873 215.453 233.474 216.706 233.388 217.998C233.061 222.914 237.217 227.184 237.297 232.11C237.345 235.008 235.973 237.715 234.636 240.284C236.794 243.563 235.027 247.929 235.886 251.762C236.701 255.398 239.725 258.245 240.479 261.895C240.823 263.566 240.843 265.622 242.313 266.483C242.957 266.798 243.672 266.941 244.388 266.899C248.707 266.951 252.977 265.976 256.848 264.055C258.665 263.151 260.548 261.801 260.865 259.792C261.121 258.172 260.302 256.36 261.135 254.949C262.118 253.286 264.635 253.418 266.081 252.139C268.427 250.065 266.598 246.109 267.548 243.121C268.402 240.435 271.343 239.008 272.801 236.598C273.374 235.561 273.786 234.442 274.021 233.28C274.689 230.504 275.105 227.672 275.263 224.82C275.302 223.087 275.429 221.357 275.645 219.638C277.216 209.847 286.869 203.291 290.003 193.885C290.302 192.987 290.442 191.791 289.646 191.282C289.173 191.056 288.637 191 288.128 191.123L281.214 191.997C280.355 192.106 279.445 192.207 278.656 191.85C277.867 191.492 277.302 190.491 277.721 189.732C278.895 187.599 276.479 184.903 275.406 182.717C272.516 176.831 269.074 171.234 265.128 166.002C264.875 165.732 264.717 165.388 264.677 165.02L266.639 165.086C265.977 162.703 264.884 160.094 262.574 159.222C261.273 158.731 259.832 158.901 258.444 158.977C254.467 159.195 250.204 158.593 246.269 157.983Z" fill="#3F3D56"/>
<path d="M258.447 104.273C259.488 105.381 260.654 106.556 262.159 106.749C264.818 107.09 266.73 104.332 267.948 101.937C267.993 102.548 268.274 103.117 268.73 103.523C269.187 103.929 269.784 104.141 270.394 104.112C271.051 104.002 271.677 103.756 272.234 103.391C277.503 100.504 283.405 98.9738 289.409 98.9389C289.351 98.4828 289.464 98.0215 289.725 97.6439C289.987 97.2663 290.379 96.9993 290.825 96.8942C292.046 96.6516 293.145 97.7099 293.734 98.8093C294.323 99.9087 294.69 101.183 295.626 102.006C296.562 102.829 298.373 102.793 298.742 101.601C299.097 100.457 297.909 99.4816 296.921 98.8071C295.934 98.1326 294.893 96.8842 295.558 95.8889C300.603 94.7691 305.679 93.6451 310.841 93.4225C311.72 93.4532 312.595 93.3019 313.413 92.9781C314.201 92.5907 314.826 91.7113 314.615 90.858C313.488 91.1236 312.308 91.0467 311.226 90.6371C310.143 90.2276 309.206 89.504 308.535 88.5586C315.698 87.9658 323.316 87.4606 329.664 90.8404C330.426 92.4802 326.544 93.8445 327.582 95.3235C327.914 95.7952 328.577 95.8505 329.153 95.8612C333.564 95.9434 338 96.0239 342.362 95.3561C343.956 95.112 345.566 94.7675 347.166 94.9654C349.831 95.295 352.111 97.0783 354.733 97.6598C355.8 97.8964 356.997 97.9044 357.896 97.282C358.796 96.6595 359.183 95.2421 358.446 94.4329C360.914 92.0065 365.012 92.6079 368.269 93.7695C371.526 94.9312 374.612 96.8045 378.059 97.0635C380.531 97.2491 383.037 96.5824 385.48 97.0062C387.015 97.2725 388.443 97.9573 389.944 98.378C392.781 99.1736 395.783 99.0057 398.729 99.044C406.245 99.1455 413.68 100.627 420.664 103.415C421.573 103.711 422.405 104.205 423.103 104.86C423.753 105.557 424.084 106.642 423.647 107.49L416.43 106.433C417.11 107.775 418.869 108.004 420.298 108.467C421.726 108.93 423.208 110.512 422.349 111.747C420.801 111.253 419.399 112.805 418.617 114.233C417.835 115.661 416.882 117.371 415.26 117.458C413.807 117.536 412.05 116.295 411.103 117.403C412.411 119.058 413.532 120.853 414.443 122.757C415.378 124.711 416.045 127.174 414.78 128.932C414.581 129.246 414.28 129.48 413.927 129.595C412.894 129.858 412.224 128.591 411.483 127.823C410.55 126.856 409.139 126.582 407.875 126.128C406.611 125.674 405.28 124.781 405.181 123.439C405.12 122.604 405.56 121.828 405.883 121.056C406.428 119.755 406.666 118.345 406.579 116.937C406.508 115.804 406.191 114.626 405.38 113.834C404.569 113.043 403.168 112.791 402.297 113.516C401.89 113.855 401.565 114.396 401.037 114.416C400.104 114.452 399.388 112.821 398.638 113.378C398.726 113.971 398.603 114.576 398.291 115.088C396.052 117.04 392.613 116.214 389.726 116.904C388.354 117.298 387.04 117.874 385.818 118.615C385.362 118.811 384.973 119.138 384.702 119.556C384.341 120.258 384.738 121.157 385.374 121.624C386.047 122.038 386.804 122.297 387.589 122.382C391.108 123.051 394.679 124.085 397.457 126.352C400.235 128.618 402.057 132.365 401.178 135.847L394.238 129.197C394.502 131.989 394.652 134.789 394.687 137.596C394.732 138.144 394.657 138.696 394.467 139.212C393.972 140.307 392.632 140.676 391.457 140.918C391.13 140.98 390.82 141.111 390.547 141.302C390.274 141.493 390.045 141.74 389.874 142.026C389.703 142.312 389.594 142.631 389.555 142.962C389.516 143.294 389.547 143.629 389.646 143.948C390.064 145.312 391.105 146.376 392.058 147.436C393.011 148.496 393.949 149.701 394.073 151.123C394.198 152.544 393.129 154.147 391.709 154.048C390.632 153.973 389.834 153.007 389.375 152.028C388.915 151.049 388.642 149.958 387.952 149.126C385.865 146.608 381.175 147.687 379.304 145.002C378.827 145.544 378.497 146.2 378.344 146.906C378.191 147.613 378.22 148.347 378.429 149.039C379.3 148.493 380.491 149 381.145 149.794C381.798 150.588 382.107 151.605 382.62 152.497C383.313 153.7 384.416 154.766 384.512 156.152C384.487 156.676 384.496 157.201 384.539 157.724C384.711 158.564 385.418 159.166 385.909 159.868C387.051 161.501 386.994 163.745 386.259 165.598C385.523 167.451 384.2 168.999 382.891 170.5C380.603 173.122 378.269 175.728 375.558 177.906C374.784 178.527 373.958 179.138 373.476 180.007C372.994 180.875 372.969 182.094 373.71 182.755C373.18 182.782 372.23 183.043 371.7 183.07C371.514 180.938 371.473 178.796 371.579 176.659C369.488 175.652 367.236 178.349 367.506 180.659C367.776 182.969 369.442 184.823 370.629 186.822C371.496 188.284 372.141 189.988 371.851 191.664C371.562 193.34 370.07 194.886 368.38 194.739C365.692 194.504 364.567 190.634 361.906 190.191C361.671 190.136 361.424 190.16 361.205 190.261C360.81 190.478 360.741 191.008 360.719 191.46C360.61 193.675 360.516 195.979 361.378 198.022C362.64 201.01 365.9 203.52 365.216 206.692C361.533 204.975 359.617 200.833 358.748 196.854C357.878 192.875 357.733 188.698 356.175 184.937C354.991 186.458 352.503 185.2 351.422 183.604C350.396 182.091 349.765 180.341 348.771 178.808C347.776 177.274 346.252 175.901 344.43 175.817C342.519 175.729 340.862 177.043 339.405 178.286C338.207 179.307 336.977 180.369 336.276 181.781C335.257 183.836 335.524 186.258 335.474 188.552C335.421 191.033 334.897 193.65 333.211 195.466C331.525 197.282 328.414 197.914 326.554 196.278C325.583 195.423 325.113 194.147 324.694 192.921C322.676 187.015 320.995 180.998 319.66 174.899C319.348 176.291 318.129 178.085 316.964 177.265C316.703 177.045 316.491 176.771 316.343 176.463C314.171 172.771 310.149 170.557 306.085 169.23C302.021 167.902 297.745 167.283 293.726 165.824C291.474 165.006 289.323 163.931 287.315 162.621C286.804 163.375 286.505 164.254 286.451 165.165C286.396 166.075 286.589 166.984 287.007 167.793C287.899 169.376 289.916 170.292 291.643 169.739C292.535 169.453 293.289 168.832 294.174 168.525C295.06 168.218 296.248 168.369 296.636 169.224C297.006 170.043 296.446 171.034 296.724 171.888C297.147 173.191 299.106 173.291 299.79 174.476C300.3 175.357 299.881 176.528 299.153 177.24C298.426 177.951 297.455 178.341 296.567 178.836C293.685 180.443 291.636 183.186 289.118 185.32C286.6 187.454 283.047 189.012 280.045 187.643C280.761 184.011 276.446 181.344 275.652 177.728C275.39 176.537 275.526 175.273 275.153 174.113C274.613 172.434 273.127 171.279 271.908 170.007C270.43 168.446 269.278 166.605 268.521 164.591C267.764 162.577 267.416 160.431 267.5 158.28C267.566 156.786 267.839 155.267 267.5 153.81C267.16 152.354 265.958 150.944 264.467 151.01C261.063 151.161 256.775 151.414 254.989 148.505C254.352 147.466 254.074 145.945 254.996 145.149C255.646 144.588 256.605 144.641 257.459 144.725L265.129 145.482C266.923 145.659 268.862 145.805 270.401 144.864C271.94 143.924 272.607 141.428 271.182 140.321C270.141 139.513 268.275 139.557 267.972 138.272C267.72 137.201 268.901 135.987 268.263 135.092C267.806 134.451 266.777 134.629 266.154 135.109C265.53 135.59 265.078 136.293 264.38 136.658C263.156 137.296 261.694 136.688 260.377 136.275C259.061 135.862 257.296 135.827 256.657 137.053C255.943 138.425 257.29 140.222 256.582 141.596C255.644 143.413 252.471 142.379 251.154 143.942C249.644 145.735 252.182 148.409 251.673 150.701C251.023 151.023 250.3 151.172 249.575 151.131C248.851 151.09 248.149 150.862 247.539 150.468C246.939 150.058 246.461 149.494 246.155 148.834C245.85 148.173 245.729 147.443 245.804 146.719C245.93 145.688 246.466 144.636 246.107 143.662C245.817 142.875 245.028 142.406 244.296 142L236.842 137.87C236.15 139.157 237.025 140.753 238.119 141.72C239.213 142.687 240.584 143.415 241.302 144.687C241.757 145.569 241.859 146.591 241.587 147.545C241.316 148.5 240.691 149.314 239.841 149.822C239.734 149.896 239.613 149.946 239.486 149.968C239.358 149.99 239.227 149.985 239.102 149.952C238.983 149.881 238.879 149.788 238.797 149.677C238.715 149.566 238.656 149.44 238.623 149.305C237.308 145.931 235.333 142.604 232.177 140.841C229.02 139.078 224.485 139.44 222.415 142.41C221.923 143.115 221.593 143.919 221.165 144.665C218.889 148.627 214.011 150.503 209.453 150.38C209.007 150.405 208.564 150.301 208.175 150.079C207.439 149.569 207.472 148.487 207.585 147.596L208.063 143.817C208.159 143.058 208.299 142.219 208.898 141.745C209.742 141.078 210.96 141.499 212.035 141.484C212.85 141.445 213.633 141.157 214.279 140.657C214.924 140.158 215.401 139.471 215.644 138.69C215.862 137.902 215.86 137.069 215.64 136.282C215.421 135.494 214.991 134.782 214.397 134.222C213.904 133.757 213.242 133.174 213.503 132.549C213.607 132.375 213.747 132.227 213.914 132.114C214.081 132.002 214.271 131.927 214.47 131.895C216.401 131.333 218.442 131.186 220.342 130.522C222.241 129.858 224.083 128.5 224.532 126.535C224.67 125.932 224.733 125.203 225.273 124.904C225.543 124.789 225.834 124.73 226.128 124.729C227.158 124.582 228.095 124.054 228.756 123.248C229.417 122.443 229.753 121.419 229.699 120.377C230.609 119.739 231.884 120.209 232.765 120.887C233.645 121.565 234.423 122.461 235.494 122.754C237.491 123.299 239.421 121.526 241.49 121.518C242.36 121.514 243.261 121.823 244.08 121.527C244.91 121.227 245.405 120.399 246.042 119.787C246.679 119.175 247.797 118.801 248.385 119.461L247.884 115.74C248.893 115.996 249.945 116.032 250.968 115.846C251.992 115.661 252.964 115.258 253.82 114.664L247.347 112.471C247.121 112.414 246.913 112.303 246.741 112.146C246.271 111.638 246.738 110.846 247.121 110.268C248.036 108.887 248.19 106.61 246.685 105.922C245.657 105.453 244.477 106.016 243.491 106.568L238.766 109.209C238.616 110.11 239.714 110.62 240.395 111.227C240.807 111.594 241.098 112.077 241.231 112.614C241.364 113.15 241.332 113.714 241.139 114.231C240.947 114.749 240.602 115.196 240.152 115.513C239.701 115.831 239.165 116.005 238.614 116.012C238.925 116.417 239.142 116.888 239.247 117.389C239.352 117.889 239.343 118.407 239.222 118.904L236.043 119.134C235.686 119.206 235.316 119.133 235.012 118.932C234.672 118.629 234.718 118.099 234.639 117.649C234.449 116.566 233.391 115.806 232.31 115.611C231.23 115.416 230.125 115.666 229.056 115.912C228.601 116.076 228.103 116.065 227.656 115.88C227.401 115.713 227.206 115.467 227.103 115.18C226.634 114.039 227.072 112.699 227.825 111.724C228.579 110.749 229.61 110.036 230.536 109.224C232.75 107.276 234.377 104.746 235.233 101.919C236.983 101.184 238.794 100.185 240.544 99.4495C243.242 98.0797 246.268 97.4919 249.281 97.7521L255.207 97.8656C256.962 97.8992 258.764 97.9423 260.387 98.6131C262.009 99.2839 263.435 100.735 263.547 102.491C263.581 102.69 263.563 102.894 263.497 103.084C263.43 103.275 263.317 103.445 263.167 103.579C262.938 103.705 262.678 103.763 262.417 103.749C260.781 103.806 260.083 104.215 258.447 104.273Z" fill="#3F3D56"/>
<path d="M211.211 122.897C211.443 122.677 211.609 122.398 211.693 122.089C211.776 121.78 211.773 121.455 211.684 121.148C211.121 120.93 210.508 120.874 209.914 120.986C209.321 121.099 208.771 121.375 208.325 121.784C207.974 122.14 207.672 122.541 207.425 122.977C206.647 124.251 205.958 125.773 206.409 127.197C206.446 127.352 206.513 127.499 206.607 127.627C206.701 127.756 206.82 127.865 206.956 127.947C207.159 128.029 207.377 128.063 207.594 128.047C208.452 128.046 209.309 127.993 210.161 127.889C210.684 127.825 211.291 127.677 211.493 127.189C211.759 126.548 211.116 125.822 211.303 125.153C211.426 124.854 211.613 124.586 211.851 124.367C211.969 124.257 212.059 124.12 212.115 123.969C212.171 123.817 212.191 123.655 212.174 123.494C212.098 123.18 211.619 123.002 211.447 123.275" fill="#3F3D56"/>
<path d="M215.66 117.114C214.898 116.939 214.112 116.889 213.334 116.968C213.162 116.963 212.991 117.002 212.838 117.081C212.69 117.19 212.583 117.346 212.533 117.524C212.369 118.053 212.409 118.625 212.646 119.125C212.883 119.625 213.3 120.018 213.812 120.224C214.092 120.289 214.359 120.396 214.605 120.544C215.263 121.056 214.844 122.102 214.968 122.927C215.108 123.854 216.003 124.632 215.839 125.555C215.71 126.282 214.935 126.858 215.06 127.586C215.191 128.348 216.155 128.577 216.924 128.639C217.37 128.717 217.829 128.664 218.245 128.487C218.663 128.2 218.96 127.769 219.079 127.276C219.393 126.337 219.526 125.345 219.468 124.356C219.465 123.905 219.352 123.463 219.14 123.066C218.908 122.752 218.652 122.457 218.372 122.185C216.899 120.466 218.45 117.903 215.66 117.114Z" fill="#3F3D56"/>
<path opacity="0.8" d="M409.404 251.744C409.404 251.744 296.557 186.788 247.975 199.095C247.975 199.095 145.016 210.206 133.083 234.65C133.083 234.65 100.354 132.089 88.4219 128.67" stroke="white" stroke-width="2" stroke-miterlimit="10"/>
<path opacity="0.8" d="M133.083 234.65C152.005 184.053 322.468 127.986 322.468 127.986C298.262 134.14 247.975 199.096 247.975 199.096C247.975 199.096 141.606 121.491 88.4219 128.67C88.4219 128.67 322.638 136.362 409.404 251.744" stroke="white" stroke-width="2" stroke-miterlimit="10"/>
<path d="M88.4239 133.627C91.1541 133.627 93.3673 131.408 93.3673 128.67C93.3673 125.932 91.1541 123.713 88.4239 123.713C85.6937 123.713 83.4805 125.932 83.4805 128.67C83.4805 131.408 85.6937 133.627 88.4239 133.627Z" fill="white"/>
<path d="M133.084 239.606C135.814 239.606 138.027 237.386 138.027 234.649C138.027 231.911 135.814 229.691 133.084 229.691C130.354 229.691 128.141 231.911 128.141 234.649C128.141 237.386 130.354 239.606 133.084 239.606Z" fill="white"/>
<path d="M322.471 132.942C325.201 132.942 327.414 130.722 327.414 127.984C327.414 125.247 325.201 123.027 322.471 123.027C319.741 123.027 317.527 125.247 317.527 127.984C317.527 130.722 319.741 132.942 322.471 132.942Z" fill="white"/>
<path d="M409.404 256.699C412.135 256.699 414.348 254.48 414.348 251.742C414.348 249.005 412.135 246.785 409.404 246.785C406.674 246.785 404.461 249.005 404.461 251.742C404.461 254.48 406.674 256.699 409.404 256.699Z" fill="white"/>
<path d="M247.979 204.051C250.709 204.051 252.922 201.832 252.922 199.094C252.922 196.356 250.709 194.137 247.979 194.137C245.248 194.137 243.035 196.356 243.035 199.094C243.035 201.832 245.248 204.051 247.979 204.051Z" fill="white"/>
</g>
<defs>
<clipPath id="clip0_2714_6075">
<rect width="486" height="362" fill="white"/>
</clipPath>
</defs>
</svg>
