<svg width="94" height="94" viewBox="0 0 94 94" fill="none" xmlns="http://www.w3.org/2000/svg">
<path d="M24.4805 9.79199C16.4033 9.79199 9.79297 16.4023 9.79297 24.4795V59.7295C9.79297 67.8066 16.4033 74.417 24.4805 74.417H59.7305C67.8076 74.417 74.418 67.8066 74.418 59.7295V24.4795C74.418 16.4023 67.8076 9.79199 59.7305 9.79199H24.4805ZM24.4805 15.667H59.7305C64.6332 15.667 68.543 19.5768 68.543 24.4795V55.132L58.2617 45.1835V45.1873C56.8229 43.7933 54.932 43.0814 53.0599 43.0837H53.0561C51.1854 43.0846 49.3049 43.7999 47.8734 45.1835H47.8695L43.7616 49.1576L33.5875 39.3123C32.1511 37.9239 30.2587 37.2125 28.3895 37.2125C26.5203 37.2125 24.6317 37.9239 23.1953 39.3123L15.668 46.5949V24.4795C15.668 19.5768 19.5778 15.667 24.4805 15.667ZM78.3346 22.5479V61.6878C78.3346 70.8665 70.8675 78.3337 61.6888 78.3337H22.5489C25.2318 81.8939 29.4801 84.2087 34.2721 84.2087H61.6888C74.1066 84.2087 84.2096 74.1056 84.2096 61.6878V34.2712C84.2096 29.4811 81.8949 25.2309 78.3346 22.5479ZM53.8555 25.4587C52.557 25.4587 51.3117 25.9745 50.3936 26.8926C49.4754 27.8108 48.9596 29.056 48.9596 30.3545C48.9596 31.653 49.4754 32.8982 50.3936 33.8164C51.3117 34.7345 52.557 35.2503 53.8555 35.2503C55.1539 35.2503 56.3992 34.7345 57.3173 33.8164C58.2355 32.8982 58.7513 31.653 58.7513 30.3545C58.7513 29.056 58.2355 27.8108 57.3173 26.8926C56.3992 25.9745 55.1539 25.4587 53.8555 25.4587ZM28.3895 43.0875C28.7959 43.0875 29.1803 43.2236 29.5025 43.535L39.539 53.2425L23.7958 68.4731C19.2251 68.1228 15.668 64.3972 15.668 59.7295V54.7686L27.2803 43.535C27.6025 43.2236 27.9831 43.0875 28.3895 43.0875ZM53.0599 48.9587H53.0637C53.4699 48.958 53.8579 49.0973 54.1768 49.4062L67.9807 62.7626C66.7528 66.1433 63.5599 68.542 59.7305 68.542H32.1723L51.9545 49.4062V49.41C52.2768 49.0985 52.6601 48.9587 53.0599 48.9587Z" fill="#CDD4DF"/>
</svg>
