<svg width="55" height="54" viewBox="0 0 55 54" fill="none" xmlns="http://www.w3.org/2000/svg">
<path d="M16.9464 0.0351562C7.97708 0.0351562 0.679688 7.33255 0.679688 16.3019V37.5194C0.679688 46.4887 7.97708 53.7861 16.9464 53.7861H38.1639C47.1332 53.7861 54.4306 46.4887 54.4306 37.5194V16.3019C54.4306 7.33255 47.1332 0.0351562 38.1639 0.0351562H16.9464ZM41.7001 9.93664C43.2632 9.93664 44.5291 11.2026 44.5291 12.7656C44.5291 14.3272 43.2632 15.5946 41.7001 15.5946C40.1371 15.5946 38.8711 14.3272 38.8711 12.7656C38.8711 11.2026 40.1371 9.93664 41.7001 9.93664ZM27.5552 12.7656C35.3547 12.7656 41.7001 19.1111 41.7001 26.9106C41.7001 34.7102 35.3547 41.0556 27.5552 41.0556C19.7556 41.0556 13.4102 34.7102 13.4102 26.9106C13.4102 19.1111 19.7556 12.7656 27.5552 12.7656ZM27.5552 17.0091C26.2549 17.0091 24.9673 17.2652 23.766 17.7628C22.5647 18.2604 21.4732 18.9898 20.5537 19.9092C19.6343 20.8287 18.905 21.9202 18.4074 23.1215C17.9098 24.3228 17.6537 25.6103 17.6537 26.9106C17.6537 28.2109 17.9098 29.4985 18.4074 30.6998C18.905 31.9011 19.6343 32.9926 20.5537 33.912C21.4732 34.8315 22.5647 35.5608 23.766 36.0584C24.9673 36.556 26.2549 36.8121 27.5552 36.8121C28.8554 36.8121 30.143 36.556 31.3443 36.0584C32.5456 35.5608 33.6371 34.8315 34.5566 33.912C35.476 32.9926 36.2053 31.9011 36.7029 30.6998C37.2005 29.4985 37.4566 28.2109 37.4566 26.9106C37.4566 25.6103 37.2005 24.3228 36.7029 23.1215C36.2053 21.9202 35.476 20.8287 34.5566 19.9092C33.6371 18.9898 32.5456 18.2604 31.3443 17.7628C30.143 17.2652 28.8554 17.0091 27.5552 17.0091Z" fill="#212838"/>
</svg>
