<svg width="52" height="52" viewBox="0 0 52 52" fill="none" xmlns="http://www.w3.org/2000/svg">
<path d="M44.0641 0.449219H8.70162C4.41286 0.449219 0.921875 3.9402 0.921875 8.22896V43.5914C0.921875 47.8802 4.41286 51.3712 8.70162 51.3712H44.0641C48.3528 51.3712 51.8438 47.8802 51.8438 43.5914V8.22896C51.8438 3.9402 48.3528 0.449219 44.0641 0.449219ZM17.8959 40.0552C17.8959 40.8374 17.2636 41.4697 16.4814 41.4697H12.2379C11.4556 41.4697 10.8234 40.8374 10.8234 40.0552V21.6667C10.8234 20.8845 11.4556 20.2522 12.2379 20.2522H16.4814C17.2636 20.2522 17.8959 20.8845 17.8959 21.6667V40.0552ZM14.3596 17.4232C12.4062 17.4232 10.8234 15.8404 10.8234 13.887C10.8234 11.9335 12.4062 10.3507 14.3596 10.3507C16.313 10.3507 17.8959 11.9335 17.8959 13.887C17.8959 15.8404 16.313 17.4232 14.3596 17.4232ZM41.9423 40.0552C41.9423 40.8374 41.3101 41.4697 40.5278 41.4697H36.2843C35.5021 41.4697 34.8698 40.8374 34.8698 40.0552V29.4464C34.8698 27.4958 33.2842 25.9102 31.3336 25.9102C29.383 25.9102 27.7973 27.4958 27.7973 29.4464V40.0552C27.7973 40.8374 27.1651 41.4697 26.3828 41.4697H22.1394C21.3571 41.4697 20.7249 40.8374 20.7249 40.0552V21.6667C20.7249 20.8845 21.3571 20.2522 22.1394 20.2522H26.3828C27.1651 20.2522 27.7973 20.8845 27.7973 21.6667V22.4319C29.301 21.0811 31.2798 20.2522 33.4553 20.2522C38.1359 20.2522 41.9423 24.0586 41.9423 28.7392V40.0552Z" fill="#212838"/>
</svg>
