<svg width="18" height="18" viewBox="0 0 18 18" fill="none" xmlns="http://www.w3.org/2000/svg">
<g clip-path="url(#clip0_4729_6271)">
<path d="M9 16.5C13.1421 16.5 16.5 13.1421 16.5 9C16.5 4.85786 13.1421 1.5 9 1.5C4.85786 1.5 1.5 4.85786 1.5 9C1.5 13.1421 4.85786 16.5 9 16.5Z" stroke="#000" stroke-width="1.5"/>
<path d="M11.5898 9.2961C11.4762 9.76612 10.9393 10.0983 9.86543 10.7626C8.82728 11.4048 8.30828 11.7259 7.88993 11.5969C7.71698 11.5435 7.55947 11.4421 7.43236 11.3025C7.125 10.9648 7.125 10.3099 7.125 9C7.125 7.69012 7.125 7.03513 7.43236 6.69746C7.55947 6.55786 7.71698 6.45651 7.88993 6.40315C8.30828 6.27408 8.82728 6.59518 9.86543 7.23737C10.9393 7.9017 11.4762 8.23387 11.5898 8.7039C11.6367 8.89792 11.6367 9.10207 11.5898 9.2961Z" stroke="#000" stroke-width="1.5" stroke-linejoin="round"/>
</g>
<defs>
<clipPath id="clip0_4729_6271">
<rect width="18" height="18" fill="white"/>
</clipPath>
</defs>
</svg>
