<svg width="146" height="102" viewBox="0 0 146 102" fill="none" xmlns="http://www.w3.org/2000/svg">
<g clip-path="url(#clip0_2637_5790)">
<path d="M101.122 95.317L106.122 98.235L101.193 97.0394C101.231 97.4483 101.282 97.8504 101.351 98.2437C101.37 98.3529 101.391 98.4603 101.413 98.5677C101.582 99.4709 101.887 100.343 102.318 101.153C102.401 101.302 102.484 101.448 102.57 101.588C102.653 101.73 102.739 101.867 102.827 102H116.08C116.19 101.867 116.295 101.728 116.392 101.588C117.337 100.251 117.72 98.5938 117.457 96.9753C117.409 96.646 117.34 96.3202 117.251 95.9997C117.164 95.6723 117.058 95.35 116.935 95.0346C116.72 94.4773 116.466 93.9359 116.175 93.4144C115.568 92.3159 114.621 91.3247 113.506 90.4444C112.966 90.0208 112.403 89.6275 111.82 89.2662C111.709 89.1951 111.597 89.1258 111.484 89.0582C111.309 88.9543 111.135 88.852 110.959 88.7533C110.609 88.5523 110.256 88.3616 109.903 88.1814C109.81 88.1329 109.718 88.0861 109.627 88.0411C108.86 87.6564 108.096 87.3116 107.368 87.0083C107.277 86.9702 107.184 86.9321 107.092 86.8957C105.645 86.3007 104.164 85.7909 102.658 85.3691C102.658 85.3691 102.653 85.383 102.644 85.4125C102.622 85.4922 102.565 85.6845 102.487 85.9687C102.272 86.7571 101.893 88.2611 101.587 90.0771C101.57 90.1759 101.555 90.2764 101.537 90.3769C101.283 91.9128 101.141 93.4656 101.115 95.0225C101.113 95.1195 101.113 95.2148 101.113 95.3118L101.122 95.317Z" fill="#F2F2F2"/>
<path d="M102.289 85.1918C102.291 85.197 102.308 85.2819 102.348 85.4379C102.38 85.5678 102.425 85.7463 102.484 85.9681C102.686 86.7427 103.044 88.0405 103.555 89.6035C103.584 89.6936 103.615 89.7872 103.646 89.8807C104.001 90.9499 104.424 92.1316 104.911 93.3463C105.034 93.6513 105.156 93.951 105.282 94.2439C105.32 94.3357 105.358 94.4258 105.398 94.5142C105.932 95.7583 106.482 96.8968 107.048 97.9295L107.191 98.1877C107.848 99.3858 108.609 100.523 109.465 101.587C109.58 101.729 109.697 101.866 109.816 102H110.216C110.096 101.866 109.975 101.728 109.858 101.587C108.953 100.487 108.152 99.3032 107.466 98.0525C107.418 97.9676 107.37 97.8827 107.323 97.7961C106.715 96.6854 106.161 95.5244 105.667 94.3738C105.627 94.2855 105.589 94.1953 105.551 94.1035C104.905 92.5821 104.361 91.0867 103.924 89.7698C103.892 89.6763 103.861 89.5827 103.832 89.4909C103.194 87.5467 102.794 86.0218 102.641 85.4119C102.62 85.3218 102.603 85.2507 102.591 85.2022C102.579 85.1572 102.574 85.1312 102.572 85.126L102.432 85.1589H102.43L102.289 85.1918Z" fill="white"/>
<path d="M101.273 90.3977C101.36 90.3925 101.448 90.3856 101.534 90.3769C102.257 90.3078 102.967 90.1411 103.646 89.8813C103.739 89.8467 103.832 89.8086 103.923 89.7705C104.193 89.6551 104.456 89.5255 104.711 89.3823C105.76 88.7991 106.667 87.9881 107.365 87.0084C107.387 86.9789 107.408 86.9495 107.428 86.92C107.335 86.8819 107.244 86.8438 107.154 86.8057C107.134 86.8351 107.111 86.8663 107.089 86.8958C106.42 87.8139 105.56 88.5749 104.57 89.1259C104.33 89.2605 104.084 89.3826 103.832 89.4915C103.739 89.5313 103.646 89.5677 103.554 89.6041C102.921 89.8477 102.258 90.0067 101.584 90.0772C101.496 90.0858 101.408 90.0945 101.32 90.0997C101.304 90.1967 101.289 90.2955 101.273 90.3977Z" fill="white"/>
<path d="M100.887 94.9974C100.887 95.0962 100.888 95.1932 100.888 95.292C100.966 95.3006 101.044 95.3093 101.121 95.3162C102.594 95.4456 104.073 95.1682 105.4 94.5139C105.49 94.4689 105.58 94.4221 105.669 94.3736C105.706 94.3563 105.742 94.3355 105.776 94.3164C106.895 93.6917 107.852 92.8105 108.569 91.7444C109.286 90.6783 109.743 89.4574 109.902 88.1806C109.907 88.1512 109.911 88.1235 109.914 88.094C109.823 88.0455 109.73 87.9987 109.636 87.9502C109.633 87.9797 109.63 88.0108 109.626 88.0403C109.486 89.2907 109.051 90.4893 108.356 91.5364C107.662 92.5834 106.729 93.4487 105.635 94.06C105.609 94.0761 105.582 94.0906 105.554 94.1033C105.466 94.1535 105.376 94.2003 105.285 94.2436C103.993 94.8841 102.549 95.1533 101.114 95.0217C101.039 95.0147 100.963 95.0061 100.887 94.9974Z" fill="white"/>
<path d="M101.152 98.1757C101.173 98.2866 101.195 98.3975 101.221 98.5084C101.285 98.5292 101.349 98.55 101.413 98.5673C103.321 99.1582 105.378 99.0231 107.194 98.1878C107.285 98.1445 107.378 98.0994 107.469 98.0526C107.566 98.0041 107.662 97.9521 107.759 97.8984C108.996 97.2074 110.033 96.2042 110.767 94.988C111.501 93.7717 111.907 92.3841 111.945 90.9621C111.962 90.3938 111.92 89.8252 111.819 89.2657C111.816 89.2397 111.811 89.2155 111.805 89.1895C111.693 89.1167 111.58 89.0457 111.466 88.9746C111.473 89.0023 111.478 89.0301 111.483 89.0578C111.572 89.466 111.627 89.881 111.648 90.2985C111.729 91.7796 111.393 93.2535 110.68 94.5522C109.967 95.851 108.905 96.9222 107.616 97.6437C107.521 97.6957 107.425 97.7477 107.326 97.7962C107.235 97.843 107.144 97.888 107.05 97.9296C106.753 98.0658 106.447 98.1827 106.135 98.2796C104.575 98.768 102.903 98.7552 101.351 98.2432C101.283 98.2225 101.218 98.1999 101.152 98.1757Z" fill="white"/>
<path d="M112.029 49.873H121.684V40.1695H112.029V49.873Z" fill="#FFB8B8"/>
<path d="M127.702 98.1644L125.799 98.1642L124.895 90.79L127.702 90.7902L127.702 98.1644Z" fill="#FFB8B8"/>
<path d="M122.133 100.987C122.134 101.201 122.219 101.406 122.37 101.557C122.521 101.708 122.725 101.794 122.938 101.794H126.517L126.588 101.647L127.134 100.514L127.348 101.647L127.376 101.794H128.726L128.714 101.647L128.346 97.2212L127.702 97.1831L125.664 97.0601L125.34 97.041V98.3354L122.481 100.319C122.374 100.394 122.286 100.494 122.225 100.61C122.164 100.726 122.133 100.855 122.133 100.987Z" fill="#2F2E41"/>
<path d="M116.578 96.9502L114.749 97.4787L111.852 90.6432L114.55 89.8633L116.578 96.9502Z" fill="#FFB8B8"/>
<path d="M112 101.21C112.06 101.416 112.198 101.589 112.385 101.693C112.571 101.796 112.791 101.821 112.996 101.763L113.398 101.647L115.62 101.004L116.437 100.768L116.677 99.3664L117.262 100.531L118.558 100.155L116.936 95.8662L116.306 96.0083L116.081 96.0585L114.313 96.4571L113.996 96.5281L114.353 97.7723L112.151 100.474C112.069 100.575 112.012 100.695 111.986 100.823C111.959 100.951 111.964 101.084 112 101.21Z" fill="#2F2E41"/>
<path d="M105.478 79.1457C105.317 78.7189 105.258 78.2602 105.305 77.8062C105.352 77.3522 105.504 76.9156 105.749 76.5313L110.131 53.6844L111.855 45.0205H122.2C122.2 45.0205 128.665 52.2115 127.286 61.3953L127.672 74.3288C128.038 75.2159 128.128 76.1937 127.931 77.1334L127.777 77.8651L127.837 77.9752C128.119 78.5002 128.271 79.086 128.279 79.6826C128.287 80.2792 128.151 80.8689 127.883 81.4013L127.852 91.7353L124.749 91.562L120.648 78.8097L117.631 63.4746L112.545 75.3442L112.373 78.1166L112.456 80.5604L114.87 90.397L111.508 91.6965L105.478 79.1457Z" fill="#2F2E41"/>
<path d="M145.794 102H95.8342C95.7797 102 95.7275 101.978 95.689 101.939C95.6505 101.9 95.6289 101.848 95.6289 101.793C95.6289 101.739 95.6505 101.686 95.689 101.647C95.7275 101.609 95.7797 101.587 95.8342 101.587H145.794C145.848 101.587 145.9 101.609 145.938 101.648C145.977 101.686 145.998 101.739 145.998 101.793C145.998 101.848 145.977 101.9 145.938 101.939C145.9 101.978 145.848 101.999 145.794 102Z" fill="#CCCCCC"/>
<path d="M93.1858 17.5585C96.0326 17.5585 98.3404 15.239 98.3404 12.3779C98.3404 9.5167 96.0326 7.19727 93.1858 7.19727C90.339 7.19727 88.0312 9.5167 88.0312 12.3779C88.0312 15.239 90.339 17.5585 93.1858 17.5585Z" fill="#016A70"/>
<path d="M95.831 10.2193C95.7535 10.145 95.6504 10.1035 95.5433 10.1035C95.4361 10.1035 95.333 10.145 95.2555 10.2193C94.1618 11.096 93.1794 12.1045 92.3305 13.2221C92.1221 12.8168 91.9136 12.4116 91.7053 12.0063C91.4647 11.5385 90.7621 11.9517 91.0025 12.4191C91.3073 13.0119 91.6122 13.6047 91.917 14.1975C92.0683 14.4917 92.4552 14.4317 92.6198 14.1975C93.5244 12.917 94.6056 11.7723 95.831 10.7977C95.9067 10.7207 95.9492 10.6168 95.9492 10.5085C95.9492 10.4003 95.9067 10.2964 95.831 10.2193Z" fill="white"/>
<path d="M97.9735 16.0637C97.9256 16.156 97.8696 16.2437 97.806 16.3259L106.556 22.7835L116.507 26.0288C117.133 26.2329 117.658 26.668 117.978 27.2464C118.297 27.8247 118.386 28.5032 118.227 29.1451C118.068 29.7869 117.673 30.3444 117.122 30.7049C116.57 31.0655 115.903 31.2024 115.254 31.0879C113.154 30.7173 111.124 30.0196 109.237 29.0201L103.009 25.7207L95.475 16.7022C95.2001 16.5148 94.9849 16.2516 94.8553 15.9442C94.7257 15.6368 94.6873 15.2983 94.7446 14.9695C94.8019 14.6406 94.9526 14.3354 95.1784 14.0906C95.4043 13.8458 95.6957 13.6718 96.0176 13.5895C96.3396 13.5073 96.6783 13.5203 96.993 13.6269C97.3078 13.7336 97.5852 13.9294 97.7918 14.1908C97.9985 14.4522 98.1255 14.768 98.1578 15.1003C98.19 15.4326 98.126 15.7671 97.9735 16.0637Z" fill="#FFB8B8"/>
<path d="M105.266 26.9597L107.18 22.7324L116.729 24.6826C117.206 24.9303 117.63 25.2699 117.977 25.6822C118.323 26.0945 118.585 26.5713 118.748 27.0854C118.912 27.5996 118.972 28.141 118.927 28.6788C118.882 29.2165 118.732 29.7401 118.486 30.2196C118.239 30.6991 117.902 31.1251 117.491 31.4734C117.081 31.8216 116.607 32.0852 116.095 32.2492C115.062 32.5803 113.94 32.4853 112.977 31.9852L105.266 26.9597Z" fill="#2F2E41"/>
<path d="M115.078 5.07801H0.640996C0.47105 5.07783 0.308119 5.00989 0.18795 4.88911C0.0677803 4.76834 0.000186646 4.60459 0 4.43378V0.644232C0.000186646 0.473429 0.0677803 0.309675 0.18795 0.188899C0.308119 0.0681225 0.47105 0.000187588 0.640996 0H115.078C115.248 0.000187588 115.411 0.0681225 115.531 0.188899C115.651 0.309675 115.718 0.473429 115.719 0.644232V4.43379C115.718 4.60459 115.651 4.76834 115.531 4.88912C115.411 5.00989 115.248 5.07783 115.078 5.07801Z" fill="#E4E4E4"/>
<path d="M3.71865 3.26875C4.22126 3.26875 4.6287 2.85925 4.6287 2.3541C4.6287 1.84896 4.22126 1.43945 3.71865 1.43945C3.21604 1.43945 2.80859 1.84896 2.80859 2.3541C2.80859 2.85925 3.21604 3.26875 3.71865 3.26875Z" fill="white"/>
<path d="M7.17568 3.26875C7.67829 3.26875 8.08574 2.85925 8.08574 2.3541C8.08574 1.84896 7.67829 1.43945 7.17568 1.43945C6.67307 1.43945 6.26562 1.84896 6.26562 2.3541C6.26562 2.85925 6.67307 3.26875 7.17568 3.26875Z" fill="white"/>
<path d="M10.6288 3.26875C11.1314 3.26875 11.5389 2.85925 11.5389 2.3541C11.5389 1.84896 11.1314 1.43945 10.6288 1.43945C10.1262 1.43945 9.71875 1.84896 9.71875 2.3541C9.71875 2.85925 10.1262 3.26875 10.6288 3.26875Z" fill="white"/>
<path d="M111.694 1.72508H107.717C107.638 1.72508 107.563 1.69388 107.508 1.63834C107.453 1.5828 107.422 1.50748 107.422 1.42894C107.422 1.35041 107.453 1.27508 107.508 1.21955C107.563 1.16401 107.638 1.13281 107.717 1.13281H111.694C111.772 1.13281 111.847 1.16401 111.903 1.21955C111.958 1.27508 111.989 1.35041 111.989 1.42894C111.989 1.50748 111.958 1.5828 111.903 1.63834C111.847 1.69388 111.772 1.72508 111.694 1.72508Z" fill="white"/>
<path d="M111.694 2.83543H107.717C107.638 2.83543 107.563 2.80423 107.508 2.74869C107.453 2.69316 107.422 2.61784 107.422 2.5393C107.422 2.46076 107.453 2.38543 107.508 2.3299C107.563 2.27436 107.638 2.24316 107.717 2.24316H111.694C111.772 2.24316 111.847 2.27436 111.903 2.3299C111.958 2.38543 111.989 2.46076 111.989 2.5393C111.989 2.61784 111.958 2.69316 111.903 2.74869C111.847 2.80423 111.772 2.83543 111.694 2.83543Z" fill="white"/>
<path d="M111.694 3.94578H107.717C107.638 3.94578 107.563 3.91458 107.508 3.85905C107.453 3.80351 107.422 3.72819 107.422 3.64965C107.422 3.57111 107.453 3.49579 107.508 3.44025C107.563 3.38472 107.638 3.35352 107.717 3.35352H111.694C111.772 3.35352 111.847 3.38472 111.903 3.44025C111.958 3.49579 111.989 3.57111 111.989 3.64965C111.989 3.72819 111.958 3.80351 111.903 3.85905C111.847 3.91458 111.772 3.94578 111.694 3.94578Z" fill="white"/>
<path d="M82.2683 52.5216H33.4516C31.9431 52.5199 30.4968 51.9168 29.4301 50.8447C28.3634 49.7726 27.7634 48.319 27.7617 46.8028V20.0807C27.7634 18.5646 28.3634 17.1111 29.4301 16.039C30.4968 14.967 31.9431 14.364 33.4516 14.3623H82.2683C83.7768 14.364 85.223 14.967 86.2897 16.039C87.3564 17.1111 87.9565 18.5646 87.9582 20.0807V46.8028C87.9565 48.319 87.3565 49.7726 86.2898 50.8447C85.2231 51.9168 83.7768 52.5199 82.2683 52.5216Z" fill="#F2F2F2"/>
<path d="M69.7087 27.9509C70.1016 27.7787 69.3048 27.6785 68.4008 27.6455C67.4968 27.6126 66.4033 27.6144 65.8256 27.5207C65.2668 27.43 65.308 27.2688 65.261 27.1228C65.214 26.9768 64.9992 26.827 64.1274 26.7946C63.041 26.7541 61.2495 26.9098 60.4293 26.8163C59.664 26.7291 60.119 26.4554 59.003 26.445C58.3657 26.439 57.5448 26.5292 56.8357 26.551C56.3331 26.5729 55.8295 26.5465 55.3319 26.4722C54.9863 26.4153 54.7456 26.3431 54.3566 26.2929C53.3354 26.1609 51.3375 26.2052 49.5542 26.3744C47.771 26.5435 46.2424 26.8207 45.3803 27.0953C44.5183 27.3698 44.2801 27.6401 44.4809 27.8693C44.6091 28.0157 44.9373 28.1526 45.7332 28.2114C47.222 28.3214 49.8727 28.132 51.4111 28.2321C52.2685 28.2879 52.6489 28.4262 53.4012 28.5019C54.2094 28.5832 55.3926 28.5875 56.555 28.5856C58.9754 28.5816 61.4577 28.5566 63.9889 28.5108C65.0461 28.4916 66.1539 28.4667 67.2789 28.3755C68.4039 28.2842 69.5513 28.1082 69.7887 27.9432" fill="#E6E7E8"/>
<path d="M78.2048 24.9037C78.1861 24.8553 78.1657 24.8074 78.1445 24.7607C78.1788 24.7743 78.213 24.789 78.2468 24.805L78.2048 24.9037Z" fill="#CCCCCC"/>
<path d="M59.8441 30.7407C59.5316 30.2212 59.1612 29.6665 58.5813 29.4969C57.9096 29.3004 57.2197 29.6907 56.6345 30.0758C54.8843 31.2274 53.1989 32.4755 51.5859 33.8142L51.5877 33.8344L55.355 33.5733C56.2623 33.5104 57.2008 33.4389 58.0026 33.0075C58.3068 32.8438 58.6034 32.6251 58.9482 32.6099C59.3765 32.591 59.75 32.8916 60.0435 33.2058C61.7797 35.0639 62.2821 37.9055 64.23 39.538C63.0017 36.4936 61.5352 33.552 59.8441 30.7407Z" fill="#E6E7E8"/>
<path d="M70.5174 46.5018C70.3254 46.2581 70.247 46.2011 70.0576 45.9552C68.5155 43.9506 67.0661 41.8784 65.7093 39.7385C64.7878 38.2852 63.9119 36.8039 63.0817 35.2947C62.6865 34.5772 62.3021 33.8541 61.9285 33.1254C61.6387 32.5603 61.3553 31.9919 61.0783 31.4201C60.9991 31.2568 60.9222 31.0927 60.8456 30.9283C60.6652 30.5416 60.4881 30.153 60.298 29.7715C60.0813 29.3368 59.8176 28.881 59.4197 28.5889C59.2387 28.4505 59.0221 28.3668 58.7955 28.3475C58.4762 28.3493 58.1636 28.4393 57.8919 28.6076C55.8345 29.6947 53.9141 31.0256 52.1719 32.572C50.427 34.1121 48.8674 35.8521 47.5248 37.7565C47.4837 37.8155 47.3866 37.7592 47.4281 37.6998C47.5913 37.4678 47.7578 37.2383 47.9275 37.0113C50.0379 34.1904 52.6255 31.7646 55.572 29.8447C56.0678 29.5219 56.5728 29.2141 57.0872 28.9215C57.3464 28.774 57.6068 28.6283 57.8717 28.4916C58.1255 28.3421 58.4102 28.2534 58.7036 28.2326C59.713 28.2168 60.2356 29.3657 60.5946 30.1387C60.7074 30.382 60.8216 30.6245 60.9371 30.8663C61.3738 31.7843 61.8273 32.6939 62.2976 33.5951C62.5879 34.1515 62.8845 34.7047 63.1875 35.2546C64.1303 36.967 65.1324 38.6447 66.1939 40.2878C67.6 42.4643 68.9948 44.3869 70.5966 46.4222C70.6407 46.4785 70.5619 46.5589 70.5174 46.5018Z" fill="#E4E4E4"/>
<path d="M52.0734 32.004C52.0147 31.9383 51.9564 31.8726 51.8974 31.8069C51.432 31.2896 50.9325 30.7782 50.2933 30.4816C49.9886 30.3357 49.6559 30.2582 49.3184 30.2544C48.9701 30.2641 48.6267 30.3393 48.306 30.4763C48.1536 30.5375 48.0045 30.607 47.8577 30.681C47.69 30.7658 47.5253 30.8563 47.3613 30.9475C47.0535 31.1187 46.7496 31.2974 46.4498 31.4837C45.8532 31.8542 45.2753 32.2531 44.7161 32.6802C44.4262 32.9017 44.1423 33.1305 43.8644 33.3665C43.6059 33.5858 43.3526 33.8109 43.1046 34.042C43.0515 34.0911 42.9723 34.0115 43.0254 33.9624C43.0907 33.9012 43.1568 33.8403 43.223 33.7803C43.4097 33.6106 43.5995 33.4441 43.7923 33.2809C44.1438 32.9828 44.5044 32.6962 44.8741 32.4212C45.449 31.9931 46.0437 31.5942 46.6582 31.2242C46.9653 31.0395 47.2766 30.8626 47.5921 30.6933C47.6874 30.6423 47.7838 30.5924 47.8813 30.545C48.1025 30.4329 48.3324 30.3389 48.5686 30.2638C48.9033 30.155 49.2574 30.1201 49.6067 30.1613C49.9441 30.2107 50.269 30.3236 50.5646 30.4944C51.1921 30.8469 51.6789 31.3921 52.1526 31.9241C52.2004 31.9781 52.1215 32.0581 52.0734 32.004Z" fill="#E4E4E4"/>
<path d="M64.9312 37.366L66.435 36.8132L67.1817 36.5387C67.4229 36.4411 67.6689 36.3559 67.9188 36.2835C68.1373 36.2208 68.3692 36.2238 68.586 36.2921C68.7794 36.364 68.9563 36.4742 69.1064 36.6163C69.2598 36.7582 69.4024 36.9113 69.5333 37.0744C69.6958 37.2708 69.856 37.4692 70.0169 37.6669C70.6809 38.4831 71.3405 39.3027 71.9958 40.1259C72.6511 40.9491 73.302 41.7758 73.9485 42.606C74.5966 43.4382 75.2402 44.2739 75.8794 45.1131C75.9577 45.2159 76.0359 45.3187 76.1141 45.4216C76.1573 45.4785 76.2547 45.4224 76.2109 45.3648C75.567 44.5172 74.9186 43.673 74.2657 42.8323C73.6112 41.9897 72.9522 41.1506 72.2887 40.315C71.6252 39.4795 70.9572 38.6476 70.2847 37.8193C70.1172 37.613 69.9494 37.4069 69.7813 37.201C69.6395 37.0273 69.4993 36.8517 69.3438 36.6901C69.0583 36.3934 68.7017 36.1311 68.2748 36.124C68.0247 36.1328 67.7783 36.1873 67.5476 36.2847C67.2962 36.3761 67.0454 36.4692 66.7943 36.5615L65.28 37.1182L64.9014 37.2574C64.8342 37.2821 64.8632 37.391 64.9312 37.366Z" fill="#E4E4E4"/>
<path d="M50.0936 31.1331C49.7072 30.9418 49.277 30.8572 48.8473 30.8881C48.4176 30.9189 48.0038 31.0642 47.6484 31.3089C48.9879 31.5411 50.3128 31.8519 51.6162 32.2396C51.0749 31.9208 50.6516 31.4213 50.0936 31.1331Z" fill="#E6E7E8"/>
<path d="M47.6432 31.3076L47.4961 31.4278C47.5459 31.3857 47.5976 31.3463 47.6507 31.309L47.6432 31.3076Z" fill="#F2F2F2"/>
<path d="M69.0487 37.371C68.9171 37.176 68.7336 37.0221 68.5192 36.9268L68.3125 36.9349C69.8861 39.7297 72.0115 42.1717 74.558 44.1111C72.7216 41.8644 70.8851 39.6177 69.0487 37.371Z" fill="#E6E7E8"/>
<path d="M41.8126 24.0622C42.9603 24.0622 43.8908 23.127 43.8908 21.9735C43.8908 20.8199 42.9603 19.8848 41.8126 19.8848C40.6648 19.8848 39.7344 20.8199 39.7344 21.9735C39.7344 23.127 40.6648 24.0622 41.8126 24.0622Z" fill="#CCCCCC"/>
<path d="M48.1723 21.8644C47.6223 21.2845 46.9836 20.7555 46.2274 20.476C46.0167 20.3978 45.7983 20.3426 45.5759 20.3115C45.5742 20.3112 45.5725 20.3116 45.5707 20.3114C45.5671 20.3105 45.5634 20.3098 45.5597 20.3093C45.2487 20.2694 44.9329 20.2886 44.6289 20.3657C44.4803 20.4032 44.3352 20.454 44.1956 20.5175C44.0554 20.5862 43.9196 20.6636 43.7889 20.7491C43.5123 20.9155 43.2078 21.0297 42.8903 21.086C42.7309 21.1149 42.5695 21.1308 42.4077 21.1336C42.2699 21.1289 42.1325 21.1488 42.0016 21.1924C41.8595 21.2461 41.7318 21.3325 41.6287 21.4446C41.5257 21.5568 41.4501 21.6916 41.4081 21.8383C41.4049 21.8513 41.4059 21.8651 41.4109 21.8775C41.416 21.89 41.4248 21.9006 41.4362 21.9076C41.4722 21.9335 41.5073 21.9629 41.5451 21.986C41.5788 22.0015 41.6147 22.0114 41.6515 22.0152C41.7117 22.0279 41.7719 22.0403 41.8322 22.0523C42.0543 22.0966 42.2773 22.1357 42.5013 22.1698C42.9544 22.2387 43.41 22.2873 43.8681 22.3155C45.303 22.4026 46.7431 22.2853 48.1453 21.9671C48.1555 21.9641 48.1648 21.9585 48.1722 21.9508C48.1796 21.9432 48.1849 21.9337 48.1877 21.9234C48.1904 21.9131 48.1904 21.9022 48.1877 21.8919C48.185 21.8815 48.1797 21.8721 48.1723 21.8644Z" fill="#F0F0F0"/>
<path d="M41.911 23.2612C41.7003 23.183 41.4819 23.1278 41.2595 23.0966C41.2577 23.0964 41.2561 23.0967 41.2543 23.0966C41.2507 23.0957 41.247 23.0949 41.2433 23.0944C40.9322 23.0546 40.6165 23.0738 40.3125 23.1509C40.1639 23.1884 40.0188 23.2392 39.8791 23.3026C39.739 23.3714 39.6032 23.4487 39.4725 23.5343C39.1959 23.7007 38.8913 23.8149 38.5739 23.8712C38.4145 23.9 38.2531 23.9159 38.0912 23.9188C37.9535 23.9141 37.816 23.934 37.6852 23.9775C37.5431 24.0313 37.4154 24.1176 37.3123 24.2298C37.2093 24.3419 37.1337 24.4767 37.0917 24.6234C37.0885 24.6365 37.0895 24.6502 37.0945 24.6627C37.0996 24.6752 37.1084 24.6857 37.1198 24.6928C37.1558 24.7187 37.1909 24.7481 37.2287 24.7712C37.2624 24.7867 37.2983 24.7965 37.3351 24.8004C37.3953 24.8131 37.4555 24.8255 37.5158 24.8375C37.7379 24.8817 37.9609 24.9209 38.1848 24.955C38.638 25.0239 39.0936 25.0725 39.5517 25.1007C40.9866 25.1878 42.4266 25.0705 43.8289 24.7522C43.8391 24.7492 43.8484 24.7436 43.8558 24.736C43.8632 24.7283 43.8685 24.7189 43.8713 24.7086C43.874 24.6982 43.874 24.6874 43.8713 24.677C43.8686 24.6667 43.8633 24.6572 43.8559 24.6496C43.3059 24.0697 42.6671 23.5407 41.911 23.2612Z" fill="#F0F0F0"/>
<path d="M77.1842 43.9715L78.2911 43.127L78.8307 43.6691L77.0273 44.9095L77.1842 43.9715Z" fill="#CCCCCC"/>
<path d="M76.1537 46.2977H72.3672L72.5 45.8653C73.3231 45.5658 72.8608 44.9221 73.6437 44.5286C75.5588 43.5663 76.3002 40.6944 76.0198 39.5592L77.2748 39.5059C77.2748 39.5059 79.0079 44.4526 76.1537 46.2977Z" fill="#CCCCCC"/>
<path d="M79.3864 44.2641C79.2733 44.3641 79.1286 44.4205 78.978 44.4234C78.8274 44.4262 78.6807 44.3753 78.564 44.2796L78.5615 44.2776L78.5614 44.2744C78.56 44.2214 78.5518 44.1688 78.537 44.118C78.5362 44.1546 78.5309 44.191 78.5212 44.2262L78.518 44.2381L78.5095 44.2293C78.5021 44.2217 78.495 44.214 78.4884 44.2063C78.4491 44.1615 78.4162 44.1114 78.3906 44.0575C78.2681 43.8044 78.0907 43.5822 77.8714 43.4072C77.8323 43.3752 77.7959 43.34 77.7625 43.3019C77.6217 43.1409 77.5426 42.9347 77.5392 42.7204C77.5358 42.5061 77.6084 42.2976 77.7441 42.1321C77.8797 41.9667 78.0696 41.8553 78.2795 41.8177C78.4895 41.7801 78.7059 41.8189 78.89 41.927L78.8957 41.9303L78.8927 41.9362C78.8714 41.9807 78.8433 42.0215 78.8093 42.0572C78.856 42.0318 78.8992 42.0004 78.9378 41.9638L78.9419 41.96L78.9465 41.9632C79.007 42.0052 79.0621 42.0546 79.1107 42.1101L79.116 42.1161C79.153 42.1587 79.1986 42.193 79.2497 42.2167C79.3009 42.2404 79.3564 42.2531 79.4127 42.2538C79.5046 42.2553 79.5951 42.2768 79.6779 42.3169C79.7607 42.3569 79.8339 42.4145 79.8925 42.4857C79.951 42.5569 79.9935 42.64 80.0171 42.7293C80.0406 42.8186 80.0446 42.9119 80.0289 43.0029L80.0281 43.0072L80.024 43.0084C79.9526 43.0331 79.8769 43.0426 79.8017 43.0363C79.8645 43.0638 79.9314 43.0806 79.9997 43.0862L80.0086 43.0869L80.0058 43.0953C79.9702 43.2027 79.9069 43.2987 79.8223 43.3734L79.8198 43.3755L79.8173 43.3778C79.7542 43.4323 79.7027 43.499 79.6656 43.5738C79.6285 43.6487 79.6067 43.7302 79.6014 43.8136C79.5972 43.8993 79.5761 43.9833 79.5391 44.0607C79.5022 44.1381 79.4503 44.2072 79.3864 44.2641Z" fill="#CCCCCC"/>
<path opacity="0.15" d="M79.4993 44.0586C79.4982 44.0816 79.4958 44.1046 79.4922 44.1273C79.5542 44.0316 79.5899 43.9211 79.5956 43.8071C79.5964 43.7896 79.5983 43.7722 79.6007 43.7549C79.5405 43.8452 79.5055 43.95 79.4993 44.0586Z" fill="black"/>
<path opacity="0.15" d="M79.6992 43.281C79.7498 43.303 79.803 43.3181 79.8575 43.326C79.8785 43.3037 79.8979 43.28 79.9155 43.2549C79.8459 43.2783 79.7723 43.2872 79.6992 43.281Z" fill="black"/>
<path opacity="0.15" d="M79.9342 43.0713C79.9398 43.1266 79.9383 43.1824 79.9297 43.2372C79.9599 43.1911 79.9839 43.1412 80.0013 43.0888L80.0041 43.0803L79.9953 43.0796C79.9748 43.0779 79.9544 43.0751 79.9342 43.0713Z" fill="black"/>
<path opacity="0.15" d="M79.8737 42.4641C79.8151 42.3973 79.7434 42.3435 79.6629 42.3062C79.5825 42.2688 79.4953 42.2487 79.4067 42.2471C79.3504 42.2464 79.2948 42.2338 79.2437 42.21C79.1925 42.1863 79.1469 42.152 79.1099 42.1094L79.1046 42.1034C79.0561 42.0479 79.0009 41.9985 78.9404 41.9565L78.9358 41.9533L78.9317 41.9572C78.8931 41.9937 78.8499 42.0251 78.8032 42.0505C78.8372 42.0148 78.8653 41.974 78.8867 41.9295L78.8896 41.9237L78.884 41.9204C78.7619 41.8486 78.6247 41.8068 78.4835 41.7984C78.3423 41.7901 78.2011 41.8154 78.0715 41.8723C77.9419 41.9292 77.8276 42.0161 77.7377 42.1259C77.6479 42.2357 77.5852 42.3653 77.5547 42.5041C77.6134 42.4004 77.6921 42.3095 77.786 42.2365C77.88 42.1636 77.9875 42.1101 78.1022 42.0792C78.2168 42.0483 78.3365 42.0406 78.4542 42.0565C78.5719 42.0724 78.6852 42.1116 78.7877 42.1719L78.7933 42.1752L78.7904 42.181C78.7691 42.2255 78.7409 42.2663 78.707 42.302C78.7537 42.2766 78.7969 42.2453 78.8355 42.2087L78.8396 42.2048L78.8442 42.208C78.9047 42.2501 78.9598 42.2994 79.0084 42.3549L79.0136 42.3609C79.0507 42.4035 79.0963 42.4378 79.1474 42.4616C79.1986 42.4853 79.2541 42.4979 79.3104 42.4986C79.4577 42.5011 79.5995 42.5549 79.7117 42.6507C79.824 42.7466 79.8997 42.8786 79.9259 43.0242C79.957 43.0186 79.9878 43.0111 80.018 43.0017L80.0221 43.0005L80.0228 42.9962C80.0393 42.902 80.0345 42.8052 80.0087 42.7131C79.9829 42.621 79.9368 42.5359 79.8737 42.4641Z" fill="black"/>
<path d="M81.2168 39.8309C81.2167 40.3183 81.0447 40.7899 80.7313 41.1619C80.4178 41.5338 79.9833 41.782 79.505 41.8623L79.4949 41.864L79.4871 41.8574C79.3567 41.7481 79.2127 41.6562 79.0588 41.5842C79.1453 41.6638 79.2215 41.7541 79.2856 41.8528L79.3074 41.8858L79.2681 41.8877C79.2342 41.8894 79.2004 41.8902 79.1679 41.8902C78.9766 41.8904 78.7862 41.8638 78.6021 41.8113C77.7329 41.5707 76.821 41.5291 75.9336 41.6898C75.7734 41.7169 75.6111 41.7305 75.4486 41.7305C74.7619 41.7303 74.0977 41.4843 73.5749 41.0368C73.0522 40.5892 72.705 39.9692 72.5955 39.2878C72.4861 38.6065 72.6216 37.9082 72.9777 37.318C73.3338 36.7279 73.8873 36.2844 74.5391 36.0671L74.559 36.0604L74.5668 36.0799C74.6285 36.2263 74.6668 36.3816 74.6804 36.54C74.7187 36.3726 74.7351 36.2009 74.7292 36.0292L74.7286 36.0111L74.7461 36.0067C74.9759 35.9491 75.2118 35.92 75.4486 35.9201L75.4743 35.9202C75.6556 35.9207 75.8351 35.8828 76.0009 35.809C76.1667 35.7352 76.3152 35.6271 76.4366 35.4917C76.6358 35.2717 76.8799 35.0977 77.1524 34.9816C77.4248 34.8656 77.7191 34.8102 78.0148 34.8193C78.3106 34.8285 78.6009 34.9019 78.8658 35.0345C79.1306 35.1672 79.3637 35.3559 79.549 35.5878L79.5577 35.5985L79.552 35.6111C79.4594 35.837 79.3212 36.0412 79.1462 36.2107C79.3459 36.1166 79.5288 35.9898 79.6873 35.8355L79.7078 35.8155L79.7221 35.8403C79.9048 36.1552 80.001 36.5131 80.0008 36.8776L80.0008 36.888L80.0008 36.899C79.998 37.1682 80.0487 37.4352 80.1499 37.6845C80.2511 37.9337 80.4009 38.1601 80.5903 38.3504C80.7875 38.5428 80.9445 38.7729 81.0521 39.0272C81.1597 39.2814 81.2157 39.5547 81.2168 39.8309Z" fill="#CCCCCC"/>
<g opacity="0.15">
<path d="M78.7113 34.9648C78.6406 35.0827 78.5537 35.1898 78.4531 35.2831C78.5972 35.2152 78.7326 35.1301 78.8565 35.0298C78.8089 35.0062 78.7605 34.9846 78.7113 34.9648Z" fill="black"/>
<path d="M79.8967 37.4224C80.0082 37.5311 80.107 37.6521 80.1913 37.7831C80.0644 37.5058 79.999 37.2041 79.9997 36.8989L79.9997 36.8879L79.9997 36.8775C79.9999 36.513 79.9037 36.155 79.721 35.8402L79.7066 35.8154L79.6862 35.8354C79.5732 35.9451 79.4478 36.0411 79.3125 36.1214C79.3419 36.6124 79.5498 37.0754 79.8967 37.4224Z" fill="black"/>
<path d="M79.3097 35.9497L79.3097 35.9601L79.3097 35.9711C79.3097 35.9913 79.31 36.0115 79.3106 36.0316C79.4071 35.9012 79.4885 35.7601 79.5533 35.6112L79.559 35.5986L79.5503 35.5878C79.4423 35.4526 79.3177 35.3316 79.1797 35.2275C79.2656 35.4585 79.3097 35.7031 79.3097 35.9497Z" fill="black"/>
<path d="M80.5901 38.3506C80.4916 38.2542 80.404 38.1471 80.329 38.0312C80.4633 38.3188 80.5295 38.6337 80.5224 38.9512C80.5154 39.2688 80.4353 39.5804 80.2884 39.8616C80.1415 40.1428 79.9318 40.386 79.6757 40.5722C79.4196 40.7583 79.1241 40.8824 78.8124 40.9345L78.8023 40.9362L78.7945 40.9296C78.6641 40.8203 78.5201 40.7285 78.3662 40.6564C78.4527 40.7361 78.5289 40.8264 78.593 40.9251L78.6148 40.9581L78.5755 40.96C78.5416 40.9616 78.5078 40.9624 78.4753 40.9624C78.284 40.9626 78.0936 40.9361 77.9095 40.8836C77.0403 40.6429 76.1284 40.6014 75.241 40.7621C75.0808 40.7892 74.9185 40.8028 74.756 40.8028C74.0477 40.8033 73.364 40.5413 72.8359 40.0668C73.0702 40.5642 73.44 40.9845 73.9025 41.279C74.3649 41.5735 74.901 41.7301 75.4485 41.7307C75.611 41.7307 75.7732 41.7171 75.9335 41.69C76.8208 41.5293 77.7327 41.5708 78.6019 41.8115C78.786 41.864 78.9764 41.8905 79.1677 41.8904C79.2003 41.8904 79.234 41.8895 79.2679 41.8879L79.3072 41.886L79.2854 41.853C79.2213 41.7543 79.1451 41.664 79.0586 41.5843C79.2125 41.6564 79.3565 41.7482 79.4869 41.8576L79.4947 41.8641L79.5048 41.8625C79.8792 41.7999 80.2289 41.634 80.5148 41.3833C80.8008 41.1326 81.0119 40.8069 81.1244 40.4427C81.237 40.0784 81.2466 39.6899 81.1523 39.3205C81.0579 38.9511 80.8633 38.6153 80.5901 38.3506Z" fill="black"/>
</g>
<path d="M39.9657 42.8585L38.4656 41.7139L37.7344 42.4487L40.1781 44.1295L39.9657 42.8585Z" fill="#CCCCCC"/>
<path d="M41.3662 46.0107H46.4976L46.3176 45.4247C45.2022 45.0188 45.8287 44.1465 44.7677 43.6133C42.1724 42.3091 41.1677 38.4174 41.5478 36.8789L39.847 36.8066C39.847 36.8066 37.4983 43.5103 41.3662 46.0107Z" fill="#CCCCCC"/>
<path d="M36.6936 42.6456C36.6864 42.5326 36.6568 42.4221 36.6066 42.3207C36.5564 42.2192 36.4865 42.1289 36.4011 42.055L36.3976 42.0519L36.3943 42.049C36.2797 41.9478 36.1939 41.8177 36.1457 41.6722L36.1419 41.6608L36.1538 41.6598C36.2464 41.6523 36.3371 41.6295 36.4222 41.5922C36.3203 41.6007 36.2177 41.5878 36.1209 41.5544L36.1153 41.5528L36.1144 41.547C36.093 41.4237 36.0984 41.2972 36.1303 41.1762C36.1622 41.0552 36.2198 40.9426 36.2992 40.8461C36.3785 40.7497 36.4777 40.6716 36.59 40.6173C36.7022 40.5631 36.8248 40.5339 36.9493 40.5318C37.0256 40.5308 37.1009 40.5137 37.1702 40.4816C37.2395 40.4494 37.3013 40.403 37.3515 40.3452L37.3586 40.337C37.4244 40.2618 37.4992 40.195 37.5811 40.138L37.5874 40.1336L37.5929 40.1389C37.6452 40.1885 37.7038 40.231 37.7671 40.2653C37.721 40.217 37.6829 40.1617 37.654 40.1014L37.65 40.0935L37.6576 40.089C37.9072 39.9424 38.2005 39.8899 38.485 39.9408C38.7696 39.9917 39.0268 40.1428 39.2106 40.367C39.3944 40.5911 39.4929 40.8737 39.4883 41.1642C39.4837 41.4546 39.3764 41.7339 39.1856 41.9521C39.1404 42.0037 39.0911 42.0515 39.038 42.0949C38.7408 42.332 38.5004 42.6332 38.3345 42.9762C38.2998 43.0492 38.2552 43.1171 38.202 43.1778C38.193 43.1881 38.1833 43.1986 38.1734 43.2089L38.1618 43.2209L38.1575 43.2048C38.1443 43.157 38.1371 43.1077 38.1361 43.0581C38.116 43.127 38.1049 43.1983 38.103 43.2701L38.1029 43.2744L38.0995 43.2771C37.9758 43.3786 37.8264 43.4436 37.6681 43.4647C37.5098 43.4859 37.3487 43.4624 37.2029 43.3969C37.0571 43.3314 36.9323 43.2265 36.8423 43.0938C36.7524 42.9612 36.7009 42.806 36.6936 42.6456Z" fill="#CCCCCC"/>
<path opacity="0.15" d="M36.8249 42.977C36.8264 43.0082 36.8297 43.0393 36.8346 43.0702C36.7505 42.9405 36.7022 42.7907 36.6944 42.6361C36.6933 42.6125 36.6908 42.5889 36.6875 42.5654C36.7691 42.6878 36.8166 42.8299 36.8249 42.977Z" fill="black"/>
<path opacity="0.15" d="M36.5548 41.9241C36.4863 41.9539 36.4142 41.9744 36.3403 41.985C36.3119 41.9549 36.2856 41.9226 36.2617 41.8887C36.356 41.9204 36.4557 41.9324 36.5548 41.9241Z" fill="black"/>
<path opacity="0.15" d="M36.2393 41.6387C36.2316 41.7136 36.2337 41.7892 36.2454 41.8636C36.2045 41.801 36.1719 41.7334 36.1483 41.6624L36.1445 41.651L36.1565 41.65C36.1842 41.6476 36.2119 41.6438 36.2393 41.6387Z" fill="black"/>
<path opacity="0.15" d="M36.3205 40.8163C36.3999 40.7258 36.4972 40.6529 36.6061 40.6023C36.7151 40.5516 36.8334 40.5244 36.9534 40.5222C37.0297 40.5213 37.105 40.5042 37.1743 40.472C37.2436 40.4399 37.3054 40.3934 37.3556 40.3357L37.3627 40.3275C37.4285 40.2523 37.5033 40.1854 37.5852 40.1284L37.5915 40.1241L37.597 40.1293C37.6494 40.1789 37.7079 40.2214 37.7712 40.2558C37.7252 40.2074 37.687 40.1521 37.6581 40.0918L37.6542 40.0839L37.6618 40.0795C37.8272 39.9822 38.0131 39.9255 38.2045 39.9142C38.3958 39.9029 38.5871 39.9372 38.7627 40.0143C38.9384 40.0915 39.0934 40.2092 39.2151 40.358C39.3368 40.5069 39.4218 40.6825 39.4632 40.8706C39.3835 40.73 39.277 40.6068 39.1496 40.5079C39.0223 40.4091 38.8767 40.3366 38.7212 40.2947C38.5658 40.2528 38.4037 40.2424 38.2442 40.2639C38.0847 40.2855 37.9311 40.3386 37.7922 40.4203L37.7846 40.4248L37.7885 40.4327C37.8174 40.493 37.8556 40.5483 37.9016 40.5966C37.8384 40.5623 37.7798 40.5198 37.7275 40.4702L37.722 40.4649L37.7157 40.4693C37.6337 40.5263 37.559 40.5931 37.4932 40.6683L37.4861 40.6765C37.4359 40.7343 37.3741 40.7807 37.3048 40.8129C37.2355 40.845 37.1602 40.8621 37.0839 40.8631C36.8843 40.8665 36.6921 40.9393 36.54 41.0692C36.3879 41.1991 36.2854 41.378 36.2498 41.5754C36.2076 41.5678 36.166 41.5576 36.125 41.5449L36.1195 41.5432L36.1185 41.5375C36.0961 41.4097 36.1026 41.2786 36.1376 41.1537C36.1726 41.0289 36.2351 40.9136 36.3205 40.8163Z" fill="black"/>
<path d="M35.3529 35.2416C35.6096 34.9837 35.8125 34.6769 35.9497 34.3391C36.0869 34.0014 36.1556 33.6395 36.1517 33.2747C36.1517 33.2697 36.1517 33.2647 36.1517 33.2597L36.1517 33.2457C36.1515 32.7517 36.2818 32.2666 36.5294 31.84L36.5488 31.8064L36.5765 31.8334C36.7914 32.0425 37.0392 32.2144 37.3099 32.342C37.0726 32.1123 36.8854 31.8356 36.76 31.5294L36.7522 31.5123L36.7639 31.4978C37.0151 31.1836 37.331 30.9278 37.6899 30.748C38.0488 30.5683 38.4422 30.4688 38.843 30.4564C39.2438 30.444 39.6426 30.5191 40.0118 30.6764C40.381 30.8336 40.7119 31.0695 40.9818 31.3676C41.1464 31.551 41.3476 31.6975 41.5723 31.7976C41.797 31.8976 42.0401 31.949 42.2859 31.9482L42.3206 31.9481C42.6416 31.948 42.9613 31.9875 43.2727 32.0655L43.2964 32.0714L43.2956 32.096C43.2876 32.3286 43.3098 32.5613 43.3617 32.7882C43.3801 32.5735 43.4321 32.3631 43.5156 32.1647L43.5263 32.1383L43.5532 32.1473C44.4365 32.4419 45.1866 33.0428 45.6692 33.8426C46.1518 34.6423 46.3353 35.5886 46.187 36.512C46.0388 37.4353 45.5683 38.2755 44.8598 38.882C44.1514 39.4886 43.2513 39.8218 42.3206 39.8222C42.1004 39.8222 41.8806 39.8037 41.6634 39.767C40.4609 39.5493 39.2251 39.6056 38.0472 39.9317C37.7978 40.0028 37.5397 40.0388 37.2805 40.0386C37.2363 40.0386 37.1906 40.0374 37.1447 40.0352L37.0914 40.0326L37.1209 39.988C37.2078 39.8541 37.3111 39.7318 37.4283 39.6238C37.2197 39.7215 37.0247 39.846 36.8479 39.9941L36.8373 40.003L36.8236 40.0008C36.3163 39.9159 35.8425 39.6911 35.4549 39.3514C35.0673 39.0116 34.7813 38.5703 34.6288 38.0768C34.4763 37.5832 34.4632 37.0567 34.591 36.556C34.7189 36.0554 34.9826 35.6003 35.3529 35.2416Z" fill="#CCCCCC"/>
<g opacity="0.15">
<path d="M37.8999 30.6533C37.9956 30.813 38.1134 30.9582 38.2497 31.0846C38.0545 30.9925 37.871 30.8773 37.7031 30.7413C37.7675 30.7094 37.8331 30.6801 37.8999 30.6533Z" fill="black"/>
<path d="M36.2899 33.9843C36.1389 34.1316 36.0049 34.2956 35.8906 34.4732C36.0626 34.0974 36.1513 33.6885 36.1504 33.2749C36.1504 33.2699 36.1504 33.2649 36.1504 33.26L36.1503 33.2459C36.1501 32.752 36.2805 32.2669 36.528 31.8402L36.5475 31.8066L36.5752 31.8337C36.7283 31.9824 36.8983 32.1125 37.0816 32.2212C37.0417 32.8866 36.76 33.5141 36.2899 33.9843Z" fill="black"/>
<path d="M37.0917 31.9884L37.0917 32.0025L37.0918 32.0175C37.0918 32.0449 37.0913 32.0722 37.0905 32.0995C36.9598 31.9227 36.8494 31.7315 36.7616 31.5296L36.7539 31.5126L36.7656 31.498C36.9121 31.3148 37.0808 31.1508 37.2679 31.0098C37.1514 31.3228 37.0917 31.6543 37.0917 31.9884Z" fill="black"/>
<path d="M35.3529 35.2413C35.4864 35.1107 35.6051 34.9656 35.7067 34.8086C35.5248 35.1982 35.435 35.625 35.4446 36.0553C35.4541 36.4856 35.5627 36.9079 35.7618 37.289C35.9609 37.6701 36.245 37.9997 36.5921 38.252C36.9391 38.5042 37.3395 38.6723 37.762 38.743L37.7757 38.7453L37.7863 38.7364C37.963 38.5883 38.1581 38.4638 38.3667 38.3661C38.2495 38.4741 38.1462 38.5964 38.0593 38.7302L38.0297 38.7749L38.083 38.7775C38.129 38.7797 38.1747 38.7808 38.2188 38.7808C38.4781 38.7811 38.7361 38.7451 38.9855 38.674C40.1635 38.3478 41.3993 38.2915 42.6018 38.5093C42.8189 38.546 43.0388 38.5644 43.259 38.5644C44.2189 38.5652 45.1454 38.2101 45.861 37.5671C45.5436 38.2411 45.0424 38.8107 44.4157 39.2098C43.789 39.6089 43.0625 39.8212 42.3206 39.8219C42.1004 39.8219 41.8806 39.8035 41.6634 39.7668C40.4609 39.549 39.2251 39.6053 38.0472 39.9315C37.7978 40.0026 37.5397 40.0385 37.2804 40.0383C37.2363 40.0383 37.1906 40.0372 37.1447 40.0349L37.0914 40.0323L37.1209 39.9877C37.2078 39.8539 37.3111 39.7316 37.4283 39.6236C37.2197 39.7213 37.0247 39.8457 36.8479 39.9939L36.8373 40.0027L36.8236 40.0005C36.3163 39.9157 35.8424 39.6908 35.4549 39.3511C35.0673 39.0114 34.7813 38.5701 34.6288 38.0765C34.4763 37.5829 34.4632 37.0564 34.591 36.5558C34.7189 36.0551 34.9826 35.6001 35.3529 35.2413Z" fill="black"/>
</g>
<path d="M53.2623 27.6654C53.3749 27.6654 53.4661 27.5737 53.4661 27.4606C53.4661 27.3475 53.3749 27.2559 53.2623 27.2559C53.1498 27.2559 53.0586 27.3475 53.0586 27.4606C53.0586 27.5737 53.1498 27.6654 53.2623 27.6654Z" fill="white"/>
<path d="M68.5012 32.4987C68.5687 32.4987 68.6234 32.4437 68.6234 32.3758C68.6234 32.3079 68.5687 32.2529 68.5012 32.2529C68.4336 32.2529 68.3789 32.3079 68.3789 32.3758C68.3789 32.4437 68.4336 32.4987 68.5012 32.4987Z" fill="white"/>
<path d="M70.8644 26.9694C70.932 26.9694 70.9867 26.9144 70.9867 26.8465C70.9867 26.7786 70.932 26.7236 70.8644 26.7236C70.7969 26.7236 70.7422 26.7786 70.7422 26.8465C70.7422 26.9144 70.7969 26.9694 70.8644 26.9694Z" fill="white"/>
<path d="M48.9816 23.2838C49.0491 23.2838 49.1039 23.2288 49.1039 23.161C49.1039 23.0931 49.0491 23.0381 48.9816 23.0381C48.9141 23.0381 48.8594 23.0931 48.8594 23.161C48.8594 23.2288 48.9141 23.2838 48.9816 23.2838Z" fill="#CCCCCC"/>
<path d="M47.759 28.2389C47.8265 28.2389 47.8812 28.1839 47.8812 28.116C47.8812 28.0482 47.8265 27.9932 47.759 27.9932C47.6914 27.9932 47.6367 28.0482 47.6367 28.116C47.6367 28.1839 47.6914 28.2389 47.759 28.2389Z" fill="white"/>
<path d="M41.8097 26.9694C41.8773 26.9694 41.932 26.9144 41.932 26.8465C41.932 26.7786 41.8773 26.7236 41.8097 26.7236C41.7422 26.7236 41.6875 26.7786 41.6875 26.8465C41.6875 26.9144 41.7422 26.9694 41.8097 26.9694Z" fill="#CCCCCC"/>
<path d="M62.8762 27.9938C62.9437 27.9938 62.9984 27.9388 62.9984 27.8709C62.9984 27.8031 62.9437 27.748 62.8762 27.748C62.8086 27.748 62.7539 27.8031 62.7539 27.8709C62.7539 27.9388 62.8086 27.9938 62.8762 27.9938Z" fill="white"/>
<path d="M75.3879 24.0211C75.4554 24.0211 75.5101 23.9661 75.5101 23.8983C75.5101 23.8304 75.4554 23.7754 75.3879 23.7754C75.3204 23.7754 75.2656 23.8304 75.2656 23.8983C75.2656 23.9661 75.3204 24.0211 75.3879 24.0211Z" fill="#CCCCCC"/>
<path d="M70.529 42.9444C70.4464 42.8026 70.4039 42.6409 70.4063 42.4766C70.4088 42.3124 70.4559 42.1519 70.5427 42.0127C70.6367 42.356 70.8485 42.6549 71.1406 42.8563C71.2536 42.9336 71.3872 43.0078 71.4259 43.1395C71.4462 43.2235 71.4337 43.3121 71.3909 43.387C71.3482 43.4611 71.2962 43.5293 71.2362 43.59L71.2308 43.6106C70.9414 43.4561 70.699 43.2259 70.529 42.9444Z" fill="#E6E7E8"/>
<path d="M57.5329 36.2686C57.4503 36.1269 57.4078 35.9651 57.4103 35.8008C57.4127 35.6366 57.4598 35.4761 57.5466 35.3369C57.6406 35.6802 57.8524 35.9791 58.1446 36.1806C58.2575 36.2578 58.3911 36.332 58.4298 36.4637C58.4501 36.5477 58.4376 36.6363 58.3948 36.7113C58.3521 36.7853 58.3001 36.8535 58.2401 36.9142L58.2347 36.9348C57.9453 36.7803 57.7029 36.5501 57.5329 36.2686Z" fill="#E6E7E8"/>
<path d="M45.1423 41.0196C45.0596 40.8778 45.0172 40.7161 45.0196 40.5518C45.022 40.3876 45.0692 40.2271 45.1559 40.0879C45.25 40.4312 45.4618 40.7301 45.7539 40.9315C45.8669 41.0088 46.0005 41.083 46.0391 41.2147C46.0595 41.2987 46.0469 41.3873 46.0042 41.4622C45.9614 41.5363 45.9095 41.6044 45.8495 41.6652L45.844 41.6858C45.5547 41.5313 45.3122 41.3011 45.1423 41.0196Z" fill="#E6E7E8"/>
<path d="M69.3154 22.6689H68.8672V46.7914H69.3154V22.6689Z" fill="#CCCCCC"/>
<path d="M70.5785 22.1775C70.5785 21.3632 69.9217 20.7031 69.1115 20.7031C68.3013 20.7031 67.6445 21.3632 67.6445 22.1775V22.1775C67.6445 22.9918 68.3013 23.6519 69.1115 23.6519C69.9217 23.6519 70.5785 22.9918 70.5785 22.1775Z" fill="#CCCCCC"/>
<path d="M63.2651 43.9419L62.1152 43.432V42.9937L62.525 42.9914C62.5886 42.991 62.6505 42.9707 62.702 42.9332C62.7534 42.8956 62.7919 42.8429 62.812 42.7822L63.0999 41.9143C63.1152 41.8683 63.1193 41.8193 63.112 41.7714C63.1048 41.7235 63.0863 41.678 63.0581 41.6387C63.0299 41.5994 62.9928 41.5673 62.9499 41.5452C62.9069 41.5232 62.8594 41.5116 62.8112 41.5116H62.1152V41.1038H62.9889C63.0578 41.1038 63.1246 41.0803 63.1785 41.0372C63.2324 40.9941 63.2701 40.9339 63.2855 40.8664L63.4838 39.9997C63.494 39.9548 63.4941 39.9083 63.484 39.8634C63.4738 39.8186 63.4538 39.7766 63.4253 39.7406C63.3968 39.7046 63.3605 39.6756 63.3193 39.6556C63.2781 39.6356 63.2329 39.6252 63.1872 39.6252H62.1152V39.5233C62.1152 39.4692 62.0939 39.4173 62.0558 39.3791C62.0177 39.3408 61.9661 39.3193 61.9123 39.3193C61.8585 39.3193 61.8069 39.3408 61.7688 39.3791C61.7308 39.4173 61.7094 39.4692 61.7094 39.5233V39.6252H54.523V39.5233C54.523 39.4692 54.5016 39.4173 54.4636 39.3791C54.4255 39.3408 54.3739 39.3193 54.3201 39.3193C54.2663 39.3193 54.2147 39.3408 54.1766 39.3791C54.1386 39.4173 54.1172 39.4692 54.1172 39.5233V39.6252H53.2651C53.2193 39.6252 53.1741 39.6356 53.1329 39.6556C53.0917 39.6756 53.0555 39.7046 53.027 39.7406C52.9985 39.7766 52.9784 39.8186 52.9683 39.8634C52.9581 39.9083 52.9582 39.9548 52.9685 39.9997L53.1667 40.8664C53.1821 40.9339 53.2199 40.9941 53.2737 41.0372C53.3276 41.0803 53.3945 41.1038 53.4633 41.1038H54.1172V41.5116H53.6411C53.5931 41.5116 53.5458 41.523 53.503 41.5449C53.4603 41.5668 53.4233 41.5985 53.395 41.6374C53.3668 41.6764 53.3481 41.7215 53.3405 41.7691C53.3329 41.8167 53.3366 41.8655 53.3514 41.9114L53.6452 42.8278C53.665 42.8897 53.704 42.9436 53.7564 42.9818C53.8088 43.0199 53.8719 43.0402 53.9366 43.0399L54.1172 43.0389V43.432L53.1872 43.9419C53.1065 43.9419 53.029 43.9741 52.972 44.0315C52.9149 44.0888 52.8828 44.1666 52.8828 44.2478C52.8828 44.3289 52.9149 44.4067 52.972 44.4641C53.029 44.5214 53.1065 44.5537 53.1872 44.5537H54.1172V46.7969C54.1171 46.8238 54.1223 46.8504 54.1325 46.8752C54.1426 46.9 54.1576 46.9225 54.1764 46.9415C54.1953 46.9605 54.2176 46.9756 54.2423 46.9859C54.267 46.9962 54.2934 47.0015 54.3201 47.0015C54.3468 47.0015 54.3732 46.9962 54.3979 46.9859C54.4225 46.9756 54.4449 46.9605 54.4638 46.9415C54.4826 46.9225 54.4976 46.9 54.5077 46.8752C54.5179 46.8504 54.5231 46.8238 54.523 46.7969V44.5537H61.7094V46.7969C61.7094 46.851 61.7308 46.9029 61.7688 46.9412C61.8069 46.9794 61.8585 47.0009 61.9123 47.0009C61.9661 47.0009 62.0177 46.9794 62.0558 46.9412C62.0939 46.9029 62.1152 46.851 62.1152 46.7969V44.5537H63.2651C63.3458 44.5537 63.4232 44.5214 63.4803 44.4641C63.5374 44.4067 63.5694 44.3289 63.5694 44.2478C63.5694 44.2076 63.5616 44.1678 63.5463 44.1307C63.531 44.0936 63.5085 44.0599 63.4803 44.0315C63.452 44.003 63.4185 43.9805 63.3815 43.9651C63.3446 43.9498 63.305 43.9419 63.2651 43.9419ZM54.523 41.1038H61.7094V41.5116H54.523V41.1038ZM54.523 43.432V43.0366L61.7094 42.996V43.432H54.523Z" fill="#CCCCCC"/>
<path d="M79.8109 60.0644H35.9082C35.771 60.0646 35.6352 60.0376 35.5084 59.985C35.3816 59.9324 35.2664 59.8551 35.1694 59.7577C35.0724 59.6603 34.9954 59.5446 34.9428 59.4173C34.8903 59.29 34.8633 59.1535 34.8633 59.0156C34.8633 58.8778 34.8903 58.7413 34.9428 58.6139C34.9954 58.4866 35.0724 58.3709 35.1694 58.2735C35.2664 58.1761 35.3816 58.0989 35.5084 58.0462C35.6352 57.9936 35.771 57.9666 35.9082 57.9668H79.8109C79.948 57.9666 80.0839 57.9936 80.2106 58.0462C80.3374 58.0989 80.4526 58.1761 80.5496 58.2735C80.6467 58.3709 80.7237 58.4866 80.7762 58.6139C80.8287 58.7413 80.8558 58.8778 80.8558 59.0156C80.8558 59.1535 80.8287 59.29 80.7762 59.4173C80.7237 59.5446 80.6467 59.6603 80.5496 59.7577C80.4526 59.8551 80.3374 59.9324 80.2106 59.985C80.0839 60.0376 79.948 60.0646 79.8109 60.0644Z" fill="#E6E6E6"/>
<path d="M65.0782 64.7989H50.6374C50.3606 64.7989 50.0951 64.6884 49.8994 64.4917C49.7037 64.295 49.5938 64.0282 49.5938 63.75C49.5938 63.4719 49.7037 63.2051 49.8994 63.0084C50.0951 62.8117 50.3606 62.7012 50.6374 62.7012H65.0782C65.355 62.7012 65.6204 62.8117 65.8161 63.0084C66.0118 63.2051 66.1218 63.4719 66.1218 63.75C66.1218 64.0282 66.0118 64.295 65.8161 64.4917C65.6204 64.6884 65.355 64.7989 65.0782 64.7989Z" fill="#E6E6E6"/>
<path d="M65.0808 74.4024H50.6399C50.3634 74.4021 50.0983 74.2914 49.9028 74.0947C49.7074 73.8981 49.5977 73.6315 49.5977 73.3536C49.5977 73.0756 49.7074 72.809 49.9028 72.6124C50.0983 72.4157 50.3634 72.305 50.6399 72.3047H65.0808C65.3575 72.3047 65.623 72.4152 65.8187 72.6119C66.0144 72.8086 66.1244 73.0754 66.1244 73.3536C66.1244 73.6317 66.0144 73.8985 65.8187 74.0952C65.623 74.2919 65.3575 74.4024 65.0808 74.4024Z" fill="#E6E6E6"/>
<path d="M65.0795 79.3213H50.6386C50.5015 79.3214 50.3656 79.2944 50.2389 79.2418C50.1121 79.1892 49.9969 79.112 49.8999 79.0146C49.8028 78.9172 49.7258 78.8015 49.6733 78.6741C49.6208 78.5468 49.5938 78.4103 49.5938 78.2724C49.5938 78.1346 49.6208 77.9981 49.6733 77.8708C49.7258 77.7434 49.8028 77.6278 49.8999 77.5303C49.9969 77.4329 50.1121 77.3557 50.2389 77.3031C50.3656 77.2505 50.5015 77.2235 50.6386 77.2236H65.0795C65.2166 77.2235 65.3525 77.2505 65.4792 77.3031C65.606 77.3557 65.7212 77.4329 65.8182 77.5303C65.9153 77.6278 65.9923 77.7434 66.0448 77.8708C66.0973 77.9981 66.1244 78.1346 66.1244 78.2724C66.1244 78.4103 66.0973 78.5468 66.0448 78.6741C65.9923 78.8015 65.9153 78.9172 65.8182 79.0146C65.7212 79.112 65.606 79.1892 65.4792 79.2418C65.3525 79.2944 65.2166 79.3214 65.0795 79.3213Z" fill="#E6E6E6"/>
<path d="M73.1782 69.5332H42.5396C42.2629 69.5332 41.9974 69.4227 41.8017 69.226C41.606 69.0293 41.4961 68.7625 41.4961 68.4844C41.4961 68.2062 41.606 67.9394 41.8017 67.7427C41.9974 67.546 42.2629 67.4355 42.5396 67.4355H73.1782C73.455 67.4355 73.7204 67.546 73.9161 67.7427C74.1118 67.9394 74.2218 68.2062 74.2218 68.4844C74.2218 68.7625 74.1118 69.0293 73.9161 69.226C73.7204 69.4227 73.455 69.5332 73.1782 69.5332Z" fill="#E6E6E6"/>
<path d="M118.789 22.3563C121.273 20.9917 122.186 17.8618 120.828 15.3654C119.47 12.869 116.356 11.9516 113.872 13.3162C111.389 14.6809 110.476 17.8108 111.833 20.3072C113.191 22.8035 116.305 23.721 118.789 22.3563Z" fill="#FFB8B8"/>
<path d="M115.82 24.4009L117.763 21.8903L120.535 21.7695L120.812 24.1308L122.186 24.7673C123.557 30.0042 123.769 35.4796 122.806 40.8077C122.622 40.9819 122.488 41.2023 122.416 41.4462C122.345 41.69 122.34 41.9485 122.402 42.195L122.491 42.5518L122.483 42.5649C122.19 43.0284 122.091 43.5889 122.207 44.1252L124.718 48.6097C119.385 50.794 115.476 46.7205 111.855 41.3822L109.613 33.5846L115.82 24.4009Z" fill="#016A70"/>
<path d="M115.477 11.5781H118.788C120.959 11.5781 122.719 13.5677 122.719 16.0219C124.356 17.6748 123.865 19.7456 122.565 21.9748C120.22 22.268 117.926 22.8847 115.748 23.8074L115.439 22.481L114.83 24.2278C114.287 24.4918 113.75 24.7805 113.217 25.0938C113.839 22.1566 114.095 19.2261 113.668 16.9497H112.547V15.7163L112.166 16.9497H110.133C110.133 16.2443 110.271 15.5458 110.54 14.8941C110.808 14.2424 111.202 13.6502 111.698 13.1514C112.195 12.6526 112.784 12.257 113.432 11.987C114.081 11.7171 114.776 11.5781 115.477 11.5781Z" fill="#2F2E41"/>
<path d="M109.977 38.8364L109.453 33.5757L116.401 23.2383L116.687 23.4322L109.809 33.666L110.32 38.8019L109.977 38.8364Z" fill="#2F2E41"/>
<path d="M110.15 39.3395C110.436 39.3395 110.667 39.1067 110.667 38.8196C110.667 38.5325 110.436 38.2998 110.15 38.2998C109.864 38.2998 109.633 38.5325 109.633 38.8196C109.633 39.1067 109.864 39.3395 110.15 39.3395Z" fill="#2F2E41"/>
<path d="M119.89 13.6076C121.223 13.6076 122.304 12.5215 122.304 11.1818C122.304 9.84197 121.223 8.75586 119.89 8.75586C118.557 8.75586 117.477 9.84197 117.477 11.1818C117.477 12.5215 118.557 13.6076 119.89 13.6076Z" fill="#2F2E41"/>
<path d="M114.662 51.4505C114.765 51.451 114.868 51.4608 114.97 51.4798L116.664 40.7029L114.967 30.328C114.86 29.6754 115.004 29.0063 115.369 28.4558C115.733 27.9053 116.292 27.5142 116.932 27.3616C117.573 27.2089 118.247 27.306 118.819 27.6332C119.391 27.9604 119.818 28.4934 120.014 29.1248C120.65 31.1706 120.965 33.3036 120.947 35.4469L120.888 42.5223L116.372 53.3887C116.333 53.7202 116.199 54.0331 115.987 54.2899C115.774 54.5467 115.493 54.7363 115.176 54.836C114.859 54.9357 114.52 54.9413 114.2 54.8519C113.88 54.7626 113.592 54.5822 113.372 54.3324C113.151 54.0827 113.007 53.7743 112.957 53.4442C112.907 53.1142 112.953 52.7767 113.089 52.4722C113.225 52.1677 113.446 51.9093 113.725 51.7281C114.004 51.5468 114.329 51.4504 114.662 51.4505Z" fill="#FFB8B8"/>
<path d="M120.949 39.9389L116.334 40.1693L113.676 30.7469C113.675 30.207 113.781 29.6724 113.986 29.1735C114.192 28.6746 114.493 28.2212 114.872 27.8393C115.252 27.4575 115.703 27.1545 116.199 26.9478C116.696 26.7412 117.227 26.6348 117.765 26.6348C118.302 26.6348 118.834 26.7412 119.33 26.9478C119.826 27.1545 120.277 27.4575 120.657 27.8393C121.036 28.2212 121.338 28.6746 121.543 29.1735C121.748 29.6724 121.854 30.207 121.853 30.7469L120.949 39.9389Z" fill="#2F2E41"/>
</g>
<defs>
<clipPath id="clip0_2637_5790">
<rect width="146" height="102" fill="white"/>
</clipPath>
</defs>
</svg>
