<svg width="30" height="30" viewBox="0 0 30 30" fill="none" xmlns="http://www.w3.org/2000/svg">
<path d="M10.919 3.7416C10.6755 3.7487 10.4444 3.85026 10.2745 4.0248L4.02448 10.2748C3.84873 10.4506 3.75 10.689 3.75 10.9376C3.75 11.1862 3.84873 11.4247 4.02448 11.6005L10.2745 17.8505C10.3609 17.9405 10.4643 18.0123 10.5788 18.0618C10.6933 18.1113 10.8165 18.1374 10.9413 18.1387C11.066 18.1399 11.1897 18.1163 11.3052 18.0692C11.4207 18.022 11.5256 17.9523 11.6138 17.8641C11.702 17.7759 11.7717 17.671 11.8188 17.5555C11.866 17.44 11.8896 17.3163 11.8883 17.1916C11.8871 17.0669 11.8609 16.9436 11.8114 16.8292C11.762 16.7147 11.6901 16.6112 11.6002 16.5248L6.9505 11.8751H18.1248C21.5875 11.8751 24.3748 14.6625 24.3748 18.1251C24.3748 21.5878 21.5875 24.3751 18.1248 24.3751H13.4373C13.3131 24.3734 13.1897 24.3963 13.0745 24.4427C12.9592 24.489 12.8543 24.5578 12.7658 24.645C12.6773 24.7322 12.6071 24.8362 12.5591 24.9508C12.5112 25.0654 12.4865 25.1884 12.4865 25.3126C12.4865 25.4369 12.5112 25.5599 12.5591 25.6745C12.6071 25.7891 12.6773 25.8931 12.7658 25.9803C12.8543 26.0675 12.9592 26.1363 13.0745 26.1826C13.1897 26.2289 13.3131 26.2519 13.4373 26.2501H18.1248C22.6009 26.2501 26.2498 22.6012 26.2498 18.1251C26.2498 13.6491 22.6009 10.0001 18.1248 10.0001H6.9505L11.6002 5.35049C11.7354 5.21876 11.8277 5.04928 11.8651 4.86421C11.9024 4.67915 11.883 4.48712 11.8094 4.31327C11.7358 4.13941 11.6114 3.99183 11.4526 3.88983C11.2937 3.78783 11.1077 3.73616 10.919 3.7416Z" fill="#667085"/>
</svg>
