<svg width="415" height="225" viewBox="0 0 415 225" fill="none" xmlns="http://www.w3.org/2000/svg">
<g clip-path="url(#clip0_2838_6992)">
<rect x="0.332031" width="414.667" height="225" rx="10" fill="#F71C19" fill-opacity="0.06"/>
<g opacity="0.2" clip-path="url(#clip1_2838_6992)">
<path d="M403.611 248.458H230.846C230.091 248.457 229.368 248.156 228.834 247.621C228.301 247.086 228.001 246.36 228 245.603V193.81C228.001 193.053 228.301 192.327 228.834 191.792C229.368 191.257 230.091 190.956 230.846 190.955H403.611C404.366 190.956 405.089 191.257 405.623 191.792C406.156 192.327 406.456 193.053 406.457 193.81V245.603C406.456 246.36 406.156 247.086 405.623 247.621C405.089 248.156 404.366 248.457 403.611 248.458ZM230.846 191.771C230.307 191.771 229.79 191.986 229.409 192.369C229.028 192.751 228.814 193.269 228.813 193.81V245.603C228.814 246.144 229.028 246.662 229.409 247.044C229.79 247.427 230.307 247.642 230.846 247.642H403.611C404.15 247.642 404.667 247.427 405.048 247.044C405.429 246.662 405.643 246.144 405.644 245.603V193.81C405.643 193.269 405.429 192.751 405.048 192.369C404.667 191.986 404.15 191.771 403.611 191.771H230.846Z" fill="#3F3D56"/>
<path d="M250.357 203.189C249.656 203.189 248.984 203.469 248.489 203.966C247.993 204.463 247.715 205.137 247.715 205.84C247.715 206.543 247.993 207.218 248.489 207.715C248.984 208.212 249.656 208.491 250.357 208.491H384.098C384.799 208.491 385.471 208.212 385.967 207.715C386.462 207.218 386.74 206.543 386.74 205.84C386.74 205.137 386.462 204.463 385.967 203.966C385.471 203.469 384.799 203.189 384.098 203.189H250.357Z" fill="#CCCCCC"/>
<path d="M250.357 217.056C249.656 217.056 248.984 217.335 248.489 217.832C247.993 218.329 247.715 219.003 247.715 219.707C247.715 220.41 247.993 221.084 248.489 221.581C248.984 222.078 249.656 222.357 250.357 222.357H384.098C384.799 222.357 385.471 222.078 385.967 221.581C386.462 221.084 386.74 220.41 386.74 219.707C386.74 219.003 386.462 218.329 385.967 217.832C385.471 217.335 384.799 217.056 384.098 217.056H250.357Z" fill="#CCCCCC"/>
<path d="M250.357 203.189C249.656 203.189 248.984 203.469 248.489 203.966C247.993 204.463 247.715 205.137 247.715 205.84C247.715 206.543 247.993 207.218 248.489 207.715C248.984 208.212 249.656 208.491 250.357 208.491H384.098C384.799 208.491 385.471 208.212 385.967 207.715C386.462 207.218 386.74 206.543 386.74 205.84C386.74 205.137 386.462 204.463 385.967 203.966C385.471 203.469 384.799 203.189 384.098 203.189H250.357Z" fill="#CCCCCC"/>
<path d="M250.357 217.056C249.656 217.056 248.984 217.335 248.489 217.832C247.993 218.329 247.715 219.003 247.715 219.707C247.715 220.41 247.993 221.084 248.489 221.581C248.984 222.078 249.656 222.357 250.357 222.357H384.098C384.799 222.357 385.471 222.078 385.967 221.581C386.462 221.084 386.74 220.41 386.74 219.707C386.74 219.003 386.462 218.329 385.967 217.832C385.471 217.335 384.799 217.056 384.098 217.056H250.357Z" fill="#CCCCCC"/>
<path d="M403.611 146.503H230.846C230.091 146.502 229.368 146.201 228.834 145.666C228.301 145.131 228.001 144.405 228 143.648V91.8547C228.001 91.0979 228.301 90.3723 228.834 89.8371C229.368 89.3019 230.091 89.0008 230.846 89H403.611C404.366 89.0008 405.089 89.3019 405.623 89.8371C406.156 90.3723 406.456 91.0979 406.457 91.8547V143.648C406.456 144.405 406.156 145.131 405.623 145.666C405.089 146.201 404.366 146.502 403.611 146.503ZM230.846 89.8156C230.307 89.8163 229.79 90.0313 229.409 90.4136C229.028 90.7958 228.814 91.3141 228.813 91.8547V143.648C228.814 144.189 229.028 144.707 229.409 145.089C229.79 145.471 230.307 145.687 230.846 145.687H403.611C404.15 145.687 404.667 145.472 405.048 145.089C405.429 144.707 405.643 144.189 405.644 143.648V91.8547C405.643 91.3141 405.429 90.7958 405.048 90.4136C404.667 90.0313 404.15 89.8163 403.611 89.8156H230.846Z" fill="#3F3D56"/>
<path d="M306.448 168.311C306.109 168.31 305.779 168.2 305.507 167.998L303.24 166.346C303.052 166.208 302.825 166.134 302.592 166.134C302.359 166.134 302.132 166.208 301.944 166.346L299.678 167.998C299.404 168.198 299.075 168.305 298.737 168.305C298.399 168.305 298.07 168.198 297.796 167.999C297.523 167.799 297.319 167.518 297.215 167.196C297.111 166.873 297.111 166.526 297.215 166.204L298.081 163.53C298.153 163.308 298.153 163.069 298.081 162.847C298.01 162.624 297.869 162.431 297.68 162.294L295.414 160.642C295.14 160.442 294.937 160.161 294.832 159.839C294.728 159.516 294.728 159.169 294.832 158.847C294.937 158.524 295.14 158.243 295.414 158.044C295.687 157.845 296.016 157.737 296.354 157.737H299.156C299.389 157.738 299.616 157.664 299.804 157.527C299.993 157.389 300.133 157.196 300.204 156.973L301.07 154.3C301.175 153.977 301.378 153.696 301.652 153.497C301.925 153.298 302.254 153.19 302.592 153.19C302.93 153.19 303.259 153.298 303.533 153.497C303.806 153.696 304.01 153.977 304.114 154.3L304.98 156.973C305.052 157.196 305.192 157.389 305.38 157.527C305.568 157.664 305.795 157.738 306.028 157.737H308.83C309.168 157.737 309.497 157.845 309.771 158.044C310.044 158.243 310.248 158.524 310.352 158.847C310.457 159.169 310.457 159.516 310.352 159.839C310.248 160.161 310.044 160.442 309.771 160.642L307.504 162.294C307.315 162.431 307.175 162.624 307.103 162.847C307.031 163.069 307.031 163.308 307.104 163.53L307.97 166.204C308.078 166.526 308.08 166.874 307.975 167.198C307.87 167.521 307.664 167.802 307.388 167.998C307.116 168.2 306.786 168.31 306.448 168.311Z" fill="#F71C19"/>
<path d="M329.416 168.311C329.078 168.31 328.748 168.2 328.476 167.998L326.209 166.346C326.021 166.208 325.794 166.134 325.561 166.134C325.328 166.134 325.101 166.208 324.913 166.346L322.646 167.998C322.373 168.198 322.044 168.305 321.706 168.305C321.368 168.305 321.038 168.198 320.765 167.999C320.492 167.799 320.288 167.518 320.184 167.196C320.079 166.873 320.079 166.526 320.184 166.204L321.049 163.53C321.122 163.308 321.122 163.069 321.05 162.847C320.978 162.624 320.838 162.431 320.649 162.294L318.382 160.642C318.109 160.442 317.905 160.161 317.801 159.839C317.697 159.516 317.697 159.169 317.801 158.847C317.905 158.524 318.109 158.243 318.382 158.044C318.656 157.845 318.985 157.737 319.323 157.737H322.125C322.358 157.738 322.585 157.664 322.773 157.527C322.961 157.389 323.101 157.196 323.173 156.973L324.039 154.3C324.143 153.977 324.347 153.696 324.62 153.497C324.894 153.298 325.223 153.19 325.561 153.19C325.899 153.19 326.228 153.298 326.502 153.497C326.775 153.696 326.978 153.977 327.083 154.3L327.949 156.973C328.02 157.196 328.16 157.389 328.349 157.527C328.537 157.664 328.764 157.738 328.997 157.737H331.799C332.137 157.737 332.466 157.845 332.739 158.044C333.013 158.243 333.216 158.524 333.321 158.847C333.425 159.169 333.425 159.516 333.321 159.839C333.216 160.161 333.013 160.442 332.74 160.642L330.473 162.294C330.284 162.431 330.144 162.624 330.072 162.847C330 163.069 330 163.308 330.072 163.53L330.938 166.204C331.046 166.526 331.048 166.874 330.944 167.198C330.839 167.521 330.633 167.802 330.357 167.998C330.084 168.2 329.755 168.31 329.416 168.311Z" fill="#F71C19"/>
<path d="M352.389 168.311C352.05 168.31 351.721 168.2 351.448 167.998L349.181 166.346C348.993 166.209 348.766 166.135 348.534 166.135C348.301 166.135 348.074 166.209 347.886 166.346L345.619 167.998C345.345 168.198 345.016 168.305 344.678 168.305C344.34 168.305 344.011 168.198 343.738 167.999C343.464 167.799 343.261 167.518 343.156 167.196C343.052 166.873 343.052 166.526 343.156 166.204L344.022 163.53C344.094 163.308 344.095 163.069 344.023 162.847C343.951 162.624 343.81 162.431 343.622 162.294L341.355 160.642C341.081 160.442 340.878 160.161 340.774 159.839C340.669 159.516 340.669 159.169 340.774 158.847C340.878 158.524 341.082 158.243 341.355 158.044C341.628 157.845 341.958 157.737 342.296 157.737H345.097C345.33 157.738 345.557 157.664 345.746 157.527C345.934 157.389 346.074 157.196 346.146 156.973L347.012 154.3C347.116 153.977 347.319 153.696 347.593 153.497C347.866 153.298 348.196 153.19 348.534 153.19C348.872 153.19 349.201 153.298 349.474 153.497C349.748 153.696 349.951 153.977 350.055 154.3L350.921 156.973C350.993 157.196 351.133 157.389 351.321 157.527C351.51 157.664 351.737 157.738 351.97 157.737H354.772C355.11 157.737 355.439 157.845 355.712 158.044C355.986 158.243 356.189 158.524 356.293 158.847C356.398 159.169 356.398 159.516 356.293 159.839C356.189 160.161 355.986 160.442 355.712 160.642L353.445 162.294C353.257 162.431 353.116 162.624 353.044 162.847C352.972 163.069 352.973 163.308 353.045 163.53L353.911 166.204C354.019 166.526 354.021 166.874 353.916 167.198C353.812 167.521 353.606 167.802 353.33 167.998C353.057 168.2 352.728 168.31 352.389 168.311Z" fill="#F71C19"/>
<path d="M390.621 168.469C390.249 168.468 389.887 168.348 389.588 168.126C389.284 167.91 389.058 167.602 388.943 167.246C388.828 166.891 388.83 166.508 388.949 166.154L389.815 163.481C389.877 163.291 389.877 163.086 389.816 162.895C389.754 162.705 389.634 162.539 389.472 162.421L387.205 160.769C386.905 160.55 386.681 160.242 386.566 159.887C386.452 159.533 386.452 159.152 386.567 158.797C386.681 158.443 386.905 158.135 387.205 157.916C387.505 157.697 387.867 157.579 388.238 157.579H391.04C391.24 157.579 391.434 157.516 391.596 157.398C391.757 157.281 391.877 157.115 391.939 156.924L392.805 154.251C392.919 153.897 393.143 153.588 393.443 153.369C393.744 153.15 394.105 153.032 394.476 153.032C394.848 153.032 395.209 153.15 395.51 153.369C395.81 153.588 396.033 153.897 396.148 154.251L397.014 156.924C397.075 157.115 397.195 157.281 397.357 157.398C397.518 157.516 397.713 157.579 397.912 157.579H400.714C401.086 157.579 401.447 157.697 401.748 157.916C402.048 158.135 402.271 158.443 402.386 158.798C402.501 159.152 402.501 159.533 402.386 159.887C402.271 160.242 402.048 160.55 401.748 160.769L399.481 162.421C399.319 162.539 399.199 162.705 399.137 162.895C399.075 163.086 399.075 163.291 399.138 163.481L400.003 166.154C400.118 166.509 400.118 166.89 400.003 167.244C399.889 167.598 399.665 167.907 399.365 168.126C399.064 168.345 398.703 168.463 398.332 168.463C397.96 168.463 397.599 168.345 397.298 168.126L395.032 166.474C394.87 166.356 394.676 166.292 394.476 166.292C394.277 166.292 394.082 166.356 393.921 166.474L391.654 168.126C391.355 168.348 390.993 168.468 390.621 168.469ZM394.476 165.476C394.848 165.476 395.209 165.594 395.509 165.814L397.776 167.466C397.938 167.584 398.132 167.647 398.332 167.647C398.531 167.647 398.726 167.584 398.887 167.466C399.048 167.349 399.169 167.183 399.23 166.992C399.292 166.802 399.292 166.597 399.23 166.407L398.364 163.733C398.249 163.379 398.249 162.997 398.363 162.643C398.478 162.289 398.702 161.98 399.003 161.762L401.27 160.109C401.431 159.992 401.551 159.826 401.613 159.635C401.674 159.445 401.674 159.24 401.613 159.05C401.551 158.859 401.431 158.693 401.27 158.576C401.108 158.458 400.914 158.395 400.714 158.395H397.912C397.541 158.395 397.179 158.278 396.879 158.059C396.578 157.84 396.355 157.531 396.241 157.176L395.375 154.503C395.313 154.312 395.193 154.147 395.032 154.029C394.87 153.911 394.676 153.848 394.476 153.848C394.277 153.848 394.082 153.911 393.921 154.029C393.76 154.147 393.639 154.312 393.578 154.503L392.712 157.176C392.598 157.531 392.374 157.84 392.074 158.059C391.774 158.278 391.412 158.395 391.04 158.395H388.238C388.039 158.395 387.844 158.458 387.683 158.576C387.522 158.693 387.401 158.859 387.34 159.05C387.278 159.24 387.278 159.445 387.34 159.635C387.401 159.826 387.522 159.992 387.683 160.109L389.95 161.762C390.251 161.98 390.475 162.289 390.589 162.643C390.704 162.997 390.704 163.379 390.588 163.733L389.722 166.407C389.661 166.597 389.661 166.802 389.722 166.992C389.784 167.183 389.904 167.349 390.066 167.466C390.227 167.584 390.421 167.647 390.621 167.647C390.82 167.647 391.015 167.584 391.176 167.466L393.443 165.814C393.743 165.595 394.105 165.476 394.476 165.476Z" fill="#3F3D56"/>
<path d="M367.449 168.404C367.077 168.402 366.715 168.282 366.416 168.061C366.113 167.845 365.886 167.536 365.771 167.181C365.656 166.826 365.658 166.443 365.777 166.089L366.643 163.416C366.705 163.225 366.705 163.02 366.644 162.83C366.582 162.639 366.462 162.473 366.3 162.356L364.033 160.704C363.733 160.485 363.509 160.176 363.395 159.822C363.28 159.468 363.28 159.086 363.395 158.732C363.509 158.378 363.733 158.069 364.033 157.85C364.334 157.631 364.695 157.514 365.066 157.514H367.868C368.068 157.514 368.263 157.451 368.424 157.333C368.585 157.215 368.706 157.049 368.767 156.859L369.633 154.185C369.748 153.831 369.971 153.522 370.271 153.304C370.572 153.085 370.933 152.967 371.305 152.967C371.676 152.967 372.037 153.085 372.338 153.304C372.638 153.522 372.862 153.831 372.976 154.185L373.842 156.859C373.903 157.049 374.023 157.215 374.185 157.333C374.346 157.451 374.541 157.514 374.741 157.514H377.543C377.914 157.514 378.275 157.631 378.576 157.85C378.876 158.069 379.1 158.378 379.214 158.732C379.329 159.086 379.329 159.468 379.214 159.822C379.1 160.176 378.876 160.485 378.576 160.704L376.309 162.356C376.147 162.473 376.027 162.639 375.965 162.83C375.903 163.02 375.904 163.225 375.966 163.416L376.832 166.089C376.946 166.443 376.946 166.825 376.832 167.179C376.717 167.533 376.493 167.842 376.193 168.061C375.893 168.279 375.531 168.397 375.16 168.397C374.789 168.397 374.427 168.279 374.127 168.061L371.86 166.408C371.698 166.29 371.504 166.227 371.304 166.227C371.105 166.227 370.91 166.29 370.749 166.408L368.482 168.061C368.183 168.282 367.821 168.402 367.449 168.404ZM371.304 165.411C371.676 165.411 372.037 165.529 372.338 165.748L374.604 167.401C374.766 167.518 374.96 167.582 375.16 167.582C375.359 167.582 375.554 167.518 375.715 167.401C375.876 167.283 375.997 167.117 376.058 166.927C376.12 166.737 376.12 166.531 376.058 166.341L375.192 163.668C375.077 163.314 375.077 162.932 375.191 162.578C375.306 162.223 375.53 161.915 375.831 161.696L378.098 160.044C378.259 159.926 378.379 159.76 378.441 159.57C378.503 159.38 378.503 159.174 378.441 158.984C378.379 158.794 378.259 158.628 378.098 158.51C377.936 158.393 377.742 158.329 377.542 158.329H374.74C374.369 158.33 374.007 158.212 373.707 157.993C373.406 157.774 373.183 157.465 373.069 157.111L372.203 154.437C372.141 154.247 372.021 154.081 371.86 153.963C371.698 153.846 371.504 153.782 371.304 153.782C371.105 153.782 370.91 153.846 370.749 153.963C370.588 154.081 370.468 154.247 370.406 154.437L369.54 157.111C369.426 157.465 369.203 157.774 368.902 157.993C368.602 158.212 368.24 158.33 367.868 158.329H365.066C364.867 158.329 364.673 158.393 364.511 158.51C364.35 158.628 364.23 158.794 364.168 158.984C364.106 159.174 364.106 159.379 364.168 159.57C364.23 159.76 364.35 159.926 364.511 160.044L366.778 161.696C367.079 161.915 367.303 162.223 367.418 162.578C367.532 162.932 367.532 163.314 367.417 163.668L366.551 166.341C366.489 166.531 366.489 166.736 366.551 166.927C366.612 167.117 366.732 167.283 366.894 167.401C367.055 167.518 367.25 167.582 367.449 167.582C367.649 167.582 367.843 167.518 368.004 167.401L370.271 165.748C370.571 165.529 370.933 165.411 371.304 165.411Z" fill="#3F3D56"/>
<path d="M250.357 101.234C249.656 101.234 248.984 101.514 248.489 102.011C247.993 102.508 247.715 103.182 247.715 103.885C247.715 104.588 247.993 105.263 248.489 105.76C248.984 106.257 249.656 106.536 250.357 106.536H384.098C384.799 106.536 385.471 106.257 385.967 105.76C386.462 105.263 386.74 104.588 386.74 103.885C386.74 103.182 386.462 102.508 385.967 102.011C385.471 101.514 384.799 101.234 384.098 101.234H250.357Z" fill="#CCCCCC"/>
<path d="M250.357 115.101C249.656 115.101 248.984 115.38 248.489 115.877C247.993 116.374 247.715 117.048 247.715 117.751C247.715 118.454 247.993 119.129 248.489 119.626C248.984 120.123 249.656 120.402 250.357 120.402H384.098C384.799 120.402 385.471 120.123 385.967 119.626C386.462 119.129 386.74 118.454 386.74 117.751C386.74 117.048 386.462 116.374 385.967 115.877C385.471 115.38 384.799 115.101 384.098 115.101H250.357Z" fill="#CCCCCC"/>
<path d="M250.357 128.967C249.656 128.967 248.984 129.246 248.489 129.743C247.993 130.24 247.715 130.915 247.715 131.618C247.715 132.321 247.993 132.995 248.489 133.492C248.984 133.989 249.656 134.268 250.357 134.268H384.098C384.799 134.268 385.471 133.989 385.967 133.492C386.462 132.995 386.74 132.321 386.74 131.618C386.74 130.915 386.462 130.24 385.967 129.743C385.471 129.246 384.799 128.967 384.098 128.967H250.357Z" fill="#CCCCCC"/>
<path d="M250.357 101.234C249.656 101.234 248.984 101.514 248.489 102.011C247.993 102.508 247.715 103.182 247.715 103.885C247.715 104.588 247.993 105.263 248.489 105.76C248.984 106.257 249.656 106.536 250.357 106.536H384.098C384.799 106.536 385.471 106.257 385.967 105.76C386.462 105.263 386.74 104.588 386.74 103.885C386.74 103.182 386.462 102.508 385.967 102.011C385.471 101.514 384.799 101.234 384.098 101.234H250.357Z" fill="#CCCCCC"/>
<path d="M250.357 115.101C249.656 115.101 248.984 115.38 248.489 115.877C247.993 116.374 247.715 117.048 247.715 117.751C247.715 118.454 247.993 119.129 248.489 119.626C248.984 120.123 249.656 120.402 250.357 120.402H384.098C384.799 120.402 385.471 120.123 385.967 119.626C386.462 119.129 386.74 118.454 386.74 117.751C386.74 117.048 386.462 116.374 385.967 115.877C385.471 115.38 384.799 115.101 384.098 115.101H250.357Z" fill="#CCCCCC"/>
<path d="M250.357 128.967C249.656 128.967 248.984 129.246 248.489 129.743C247.993 130.24 247.715 130.915 247.715 131.618C247.715 132.321 247.993 132.995 248.489 133.492C248.984 133.989 249.656 134.268 250.357 134.268H384.098C384.799 134.268 385.471 133.989 385.967 133.492C386.462 132.995 386.74 132.321 386.74 131.618C386.74 130.915 386.462 130.24 385.967 129.743C385.471 129.246 384.799 128.967 384.098 128.967H250.357Z" fill="#CCCCCC"/>
</g>
</g>
<defs>
<clipPath id="clip0_2838_6992">
<rect x="0.332031" width="414.667" height="225" rx="10" fill="white"/>
</clipPath>
<clipPath id="clip1_2838_6992">
<rect width="326" height="219" fill="white" transform="translate(228 89)"/>
</clipPath>
</defs>
</svg>
