<svg width="69" height="69" viewBox="0 0 69 69" fill="none" xmlns="http://www.w3.org/2000/svg">
<path d="M7.32812 34.9122C7.32812 22.2423 7.32813 15.9073 11.2642 11.9712C15.2003 8.03516 21.5352 8.03516 34.2052 8.03516C46.8753 8.03516 53.2101 8.03516 57.1463 11.9712C61.0822 15.9073 61.0822 22.2423 61.0822 34.9122C61.0822 47.5821 61.0822 53.9172 57.1463 57.8534C53.2101 61.7893 46.8753 61.7893 34.2052 61.7893C21.5352 61.7893 15.2003 61.7893 11.2642 57.8534C7.32813 53.9172 7.32812 47.5821 7.32812 34.9122Z" fill="#212838" stroke="#212838" stroke-width="1.5" stroke-linecap="round" stroke-linejoin="round"/>
<path d="M20.0586 49.0592L31.9229 37.1951L20.0586 49.0592ZM48.3502 20.7676L36.4861 32.6317L48.3502 20.7676ZM36.4861 32.6317L27.9174 20.7676H20.0586L31.9229 37.1951M36.4861 32.6317L48.3502 49.0592H40.4913L31.9229 37.1951" fill="white"/>
<path d="M20.0586 49.0592L31.9229 37.1951M31.9229 37.1951L20.0586 20.7676H27.9174L36.4861 32.6317M31.9229 37.1951L40.4913 49.0592H48.3502L36.4861 32.6317M48.3502 20.7676L36.4861 32.6317" stroke="white" stroke-width="1.5" stroke-linecap="round" stroke-linejoin="round"/>
</svg>
