<svg width="416" height="225" viewBox="0 0 416 225" fill="none" xmlns="http://www.w3.org/2000/svg">
<g clip-path="url(#clip0_2838_6970)">
<rect x="0.667969" width="414.667" height="225" rx="10" fill="#7A5AF8" fill-opacity="0.08"/>
<g opacity="0.2">
<path d="M448.626 239.647H201.035C199.345 239.645 197.725 238.969 196.529 237.769C195.334 236.568 194.662 234.941 194.66 233.243V79.8848C194.662 78.641 195.154 77.4486 196.03 76.5691C196.905 75.6895 198.092 75.1948 199.33 75.1934H450.249C451.509 75.1948 452.717 75.6981 453.607 76.5928C454.498 77.4875 454.999 78.7006 455 79.9659V233.243C454.998 234.941 454.326 236.568 453.131 237.769C451.936 238.969 450.316 239.645 448.626 239.647Z" fill="#F2F2F2"/>
<path d="M440.621 231.562H209.873C206.49 231.562 203.738 228.973 203.738 225.792V92.2453C203.738 89.8856 205.777 87.9658 208.284 87.9658H442.134C444.682 87.9658 446.755 89.9173 446.755 92.3158V225.792C446.755 228.973 444.003 231.562 440.621 231.562Z" fill="white"/>
<path d="M454.911 80.6831H194.57V77.4229C194.573 75.7195 195.248 74.0867 196.447 72.8825C197.647 71.6784 199.273 71.0014 200.968 71H448.513C450.209 71.0014 451.835 71.6784 453.034 72.8825C454.234 74.0867 454.909 75.7195 454.911 77.4229V80.6831Z" fill="#7A5AF8"/>
<path d="M206.198 77.5132C207.112 77.5132 207.853 76.769 207.853 75.8509C207.853 74.9328 207.112 74.1885 206.198 74.1885C205.284 74.1885 204.543 74.9328 204.543 75.8509C204.543 76.769 205.284 77.5132 206.198 77.5132Z" fill="white"/>
<path d="M212.479 77.5132C213.393 77.5132 214.134 76.769 214.134 75.8509C214.134 74.9328 213.393 74.1885 212.479 74.1885C211.565 74.1885 210.824 74.9328 210.824 75.8509C210.824 76.769 211.565 77.5132 212.479 77.5132Z" fill="white"/>
<path d="M218.76 77.5132C219.674 77.5132 220.415 76.769 220.415 75.8509C220.415 74.9328 219.674 74.1885 218.76 74.1885C217.846 74.1885 217.105 74.9328 217.105 75.8509C217.105 76.769 217.846 77.5132 218.76 77.5132Z" fill="white"/>
<path d="M390.323 123.93H280.996C276.619 123.93 273.07 127.494 273.07 131.891V131.891C273.07 136.288 276.619 139.852 280.996 139.852H390.323C394.701 139.852 398.249 136.288 398.249 131.891C398.249 127.494 394.701 123.93 390.323 123.93Z" fill="#E6E6E6"/>
<path d="M390.323 150.276H280.996C276.619 150.276 273.07 153.841 273.07 158.238V158.238C273.07 162.635 276.619 166.199 280.996 166.199H390.323C394.701 166.199 398.249 162.635 398.249 158.238C398.249 153.841 394.701 150.276 390.323 150.276Z" fill="#E6E6E6"/>
<path d="M390.323 176.624H280.996C276.619 176.624 273.07 180.188 273.07 184.585V184.585C273.07 188.982 276.619 192.547 280.996 192.547H390.323C394.701 192.547 398.249 188.982 398.249 184.585C398.249 180.188 394.701 176.624 390.323 176.624Z" fill="#E6E6E6"/>
<path d="M259.164 166.388C263.645 166.388 267.278 162.739 267.278 158.238C267.278 153.737 263.645 150.088 259.164 150.088C254.683 150.088 251.051 153.737 251.051 158.238C251.051 162.739 254.683 166.388 259.164 166.388Z" fill="#E6E6E6"/>
<path d="M262.061 157.676L259.598 155.015C259.542 154.955 259.475 154.907 259.401 154.875C259.326 154.842 259.246 154.825 259.165 154.825C259.083 154.825 259.003 154.842 258.928 154.875C258.854 154.907 258.787 154.955 258.731 155.015L256.268 157.676C256.233 157.714 256.206 157.758 256.188 157.805C256.171 157.853 256.162 157.904 256.164 157.955C256.166 158.006 256.178 158.056 256.199 158.102C256.22 158.149 256.25 158.191 256.287 158.225C256.325 158.26 256.368 158.287 256.416 158.305C256.463 158.323 256.514 158.331 256.565 158.329C256.616 158.327 256.665 158.315 256.712 158.294C256.758 158.273 256.799 158.243 256.834 158.205L258.778 156.105V161.262C258.778 161.365 258.818 161.464 258.891 161.537C258.963 161.609 259.061 161.65 259.164 161.65C259.266 161.65 259.365 161.609 259.437 161.537C259.51 161.464 259.55 161.365 259.55 161.262V156.103L261.495 158.205C261.565 158.28 261.661 158.325 261.764 158.328C261.866 158.332 261.965 158.295 262.04 158.225C262.115 158.155 262.16 158.058 262.164 157.955C262.167 157.852 262.131 157.752 262.061 157.676Z" fill="white"/>
<path d="M259.164 192.736C263.645 192.736 267.278 189.087 267.278 184.586C267.278 180.084 263.645 176.436 259.164 176.436C254.683 176.436 251.051 180.084 251.051 184.586C251.051 189.087 254.683 192.736 259.164 192.736Z" fill="#E6E6E6"/>
<path d="M262.062 184.024L259.598 181.362C259.543 181.303 259.476 181.255 259.401 181.222C259.327 181.19 259.246 181.173 259.165 181.173C259.084 181.173 259.003 181.19 258.929 181.222C258.854 181.255 258.787 181.303 258.732 181.362L256.268 184.024C256.233 184.061 256.206 184.105 256.189 184.153C256.171 184.201 256.163 184.252 256.164 184.303C256.166 184.354 256.178 184.404 256.199 184.45C256.22 184.497 256.25 184.539 256.287 184.573C256.325 184.608 256.368 184.635 256.416 184.653C256.464 184.671 256.514 184.679 256.565 184.677C256.616 184.675 256.666 184.663 256.712 184.642C256.758 184.621 256.8 184.59 256.834 184.553L258.778 182.453V187.61C258.778 187.713 258.819 187.811 258.891 187.884C258.964 187.957 259.062 187.998 259.164 187.998C259.267 187.998 259.365 187.957 259.438 187.884C259.51 187.811 259.551 187.713 259.551 187.61V182.451L261.495 184.553C261.565 184.628 261.662 184.672 261.764 184.676C261.866 184.68 261.966 184.642 262.041 184.572C262.116 184.502 262.16 184.405 262.164 184.302C262.168 184.2 262.131 184.1 262.062 184.024Z" fill="white"/>
<path d="M259.164 140.04C263.645 140.04 267.278 136.391 267.278 131.89C267.278 127.389 263.645 123.74 259.164 123.74C254.683 123.74 251.051 127.389 251.051 131.89C251.051 136.391 254.683 140.04 259.164 140.04Z" fill="#7A5AF8"/>
<path d="M262.062 131.33L259.598 128.668C259.543 128.608 259.476 128.561 259.401 128.528C259.327 128.495 259.246 128.479 259.165 128.479C259.084 128.479 259.003 128.495 258.929 128.528C258.854 128.561 258.787 128.608 258.732 128.668L256.268 131.33C256.233 131.367 256.206 131.411 256.189 131.459C256.171 131.507 256.163 131.557 256.164 131.608C256.166 131.659 256.178 131.71 256.199 131.756C256.22 131.803 256.25 131.844 256.287 131.879C256.325 131.914 256.368 131.941 256.416 131.959C256.464 131.977 256.514 131.985 256.565 131.983C256.616 131.981 256.666 131.969 256.712 131.948C256.758 131.926 256.8 131.896 256.834 131.859L258.778 129.758V134.915C258.778 135.018 258.819 135.117 258.891 135.19C258.964 135.263 259.062 135.304 259.164 135.304C259.267 135.304 259.365 135.263 259.438 135.19C259.51 135.117 259.551 135.018 259.551 134.915V129.757L261.495 131.859C261.565 131.934 261.662 131.978 261.764 131.982C261.866 131.985 261.966 131.948 262.041 131.878C262.116 131.808 262.16 131.711 262.164 131.608C262.168 131.505 262.131 131.405 262.062 131.33Z" fill="white"/>
</g>
</g>
<defs>
<clipPath id="clip0_2838_6970">
<rect x="0.667969" width="414.667" height="225" rx="10" fill="white"/>
</clipPath>
</defs>
</svg>
