<svg width="415" height="225" viewBox="0 0 415 225" fill="none" xmlns="http://www.w3.org/2000/svg">
<g clip-path="url(#clip0_2838_6931)">
<rect width="414.667" height="225" rx="10" fill="#016A70" fill-opacity="0.08"/>
<g opacity="0.2" clip-path="url(#clip1_2838_6931)">
<path d="M402.346 129.597C402.483 130.544 402.983 131.401 403.74 131.985C404.498 132.568 405.453 132.833 406.402 132.722C406.594 132.696 406.784 132.655 406.97 132.598L414.615 142.878L421.187 140.827L409.195 127.878C408.899 127.125 408.363 126.491 407.67 126.075C406.977 125.66 406.166 125.485 405.363 125.58C404.907 125.638 404.467 125.786 404.068 126.014C403.669 126.243 403.319 126.548 403.037 126.912C402.756 127.276 402.549 127.692 402.428 128.137C402.307 128.581 402.275 129.045 402.333 129.502C402.337 129.533 402.341 129.565 402.346 129.597Z" fill="#A0616A"/>
<path d="M456.333 175.513C456.333 175.513 427.786 162.166 420.565 153.641L407.625 137.545L414.187 132.167L426.35 146.202C426.239 149.151 440.615 152.175 448.344 156.473L456.333 175.513Z" fill="#E6E6E6"/>
<path d="M395.346 202.086H239.488C238.505 202.075 237.526 201.95 236.57 201.715C233.719 201.029 231.182 199.399 229.37 197.089C227.558 194.779 226.577 191.924 226.586 188.986V135.913C226.591 132.442 227.971 129.114 230.423 126.66C232.874 124.207 236.197 122.828 239.662 122.825H395.346C397.445 122.82 399.513 123.327 401.372 124.303C402.112 124.687 402.812 125.145 403.461 125.669C405.013 126.885 406.266 128.44 407.125 130.216C407.985 131.991 408.429 133.94 408.422 135.913V188.986C408.418 192.459 407.04 195.789 404.588 198.245C402.137 200.701 398.813 202.082 395.346 202.086Z" fill="#F2F2F2"/>
<path d="M384.902 200.925C391.979 183.695 399.434 166.634 407.267 149.744V178.381C401.835 186.503 395.813 194.126 388.829 200.925H384.902Z" fill="#016A70"/>
<path d="M402.738 126.573C388.736 151.74 374.085 176.524 358.785 200.925H356.121C371.676 176.141 386.582 150.943 400.839 125.331C401.512 125.681 402.148 126.096 402.738 126.573Z" fill="#016A70"/>
<path d="M299.983 154.049C290.832 170.257 280.734 185.91 269.742 200.925H253.863C264.264 188.232 274.672 175.538 285.088 162.844C288.076 159.189 291.319 155.36 295.801 153.875L299.983 154.049Z" fill="#016A70"/>
<path d="M278.882 151.45C277.225 153.179 275.639 154.977 274.145 156.845C270.855 160.813 267.612 164.817 264.358 168.808C262.331 171.291 260.304 173.774 258.301 176.257C257.664 175.848 257.06 175.39 256.494 174.888C253.293 172.105 251.308 168.177 250.964 163.946C250.619 159.715 251.943 155.516 254.651 152.251C257.359 148.985 261.237 146.913 265.452 146.477C269.667 146.041 273.885 147.276 277.202 149.918C277.8 150.385 278.361 150.897 278.882 151.45Z" fill="white"/>
<path d="M368.441 162.728L338.004 151.577L322.89 146.043C317.967 144.244 313.057 142.19 307.972 140.891C303.551 139.625 298.855 139.685 294.468 141.065C290.555 142.515 286.975 144.741 283.94 147.609C282.596 148.851 281.295 150.131 280.037 151.45C278.38 153.178 276.794 154.977 275.3 156.845C272.01 160.813 268.767 164.816 265.513 168.808C263.486 171.291 261.459 173.774 259.456 176.257C252.761 184.46 246.105 192.683 239.488 200.925C238.598 200.915 237.712 200.802 236.848 200.589C243.751 192.002 250.684 183.435 257.649 174.888C258.448 173.89 259.27 172.88 260.081 171.883C263.474 167.717 266.872 163.556 270.273 159.398C272.902 156.184 275.508 152.946 278.357 149.918C278.612 149.64 278.867 149.373 279.133 149.094C284.913 143.107 292.128 137.816 300.768 137.677C305.853 137.596 310.764 139.208 315.489 140.914C320.573 142.759 325.646 144.639 330.731 146.507L361.377 157.738L369.044 160.546C370.399 161.034 369.82 163.238 368.441 162.728Z" fill="#016A70"/>
<path d="M207.806 141.853V109.991C207.808 108.997 208.203 108.044 208.906 107.341C209.608 106.638 210.56 106.243 211.552 106.242H252.766V105.435H211.552C210.346 105.435 209.189 105.916 208.336 106.77C207.482 107.624 207.002 108.783 207 109.991V141.853L207.806 141.853Z" fill="#3F3D56"/>
<path d="M210.667 218.563C209.85 218.366 209.123 217.899 208.604 217.237C208.085 216.576 207.804 215.758 207.806 214.916V183.058H207V214.916C206.997 215.939 207.338 216.933 207.969 217.737C208.6 218.541 209.483 219.109 210.476 219.347C210.809 219.429 211.15 219.473 211.492 219.476H252.766V218.669H211.497C211.217 218.665 210.939 218.63 210.667 218.563Z" fill="#3F3D56"/>
<path d="M395.303 183.058V214.916C395.302 215.911 394.907 216.865 394.205 217.568C393.502 218.272 392.55 218.667 391.557 218.669H350.344V219.476H391.557C392.764 219.475 393.921 218.994 394.775 218.139C395.628 217.284 396.108 216.125 396.109 214.916V183.058H395.303Z" fill="#3F3D56"/>
<path d="M394.494 106.666C394.706 106.776 394.906 106.907 395.091 107.057C395.536 107.405 395.895 107.85 396.142 108.359C396.388 108.868 396.516 109.426 396.514 109.991V141.853H397.32V109.991C397.323 109.304 397.168 108.626 396.869 108.008C396.57 107.389 396.133 106.848 395.593 106.425C395.367 106.242 395.123 106.083 394.866 105.949C394.219 105.609 393.499 105.433 392.768 105.435H351.555V106.243H392.768C393.369 106.241 393.962 106.386 394.494 106.666Z" fill="#3F3D56"/>
<path d="M393.961 211.496C394.418 210.507 395.242 209.737 396.258 209.348C397.273 208.959 398.4 208.983 399.399 209.413C399.6 209.504 399.794 209.611 399.978 209.734L411.656 201.022L418.153 205.404L400.868 215.605C400.301 216.329 399.51 216.845 398.619 217.072C397.728 217.299 396.788 217.225 395.944 216.86C395.465 216.647 395.034 216.343 394.673 215.963C394.312 215.584 394.03 215.137 393.841 214.648C393.653 214.159 393.563 213.638 393.575 213.114C393.588 212.591 393.704 212.074 393.916 211.595C393.93 211.562 393.946 211.529 393.961 211.496Z" fill="#A0616A"/>
<path d="M430.243 165.553C430.243 165.553 415.105 193.167 409.243 201.289L404.793 204.771L405.196 216.152L415.14 210.655C415.14 210.655 435.207 195.427 434.631 189.087C434.056 182.747 430.243 165.553 430.243 165.553Z" fill="#E6E6E6"/>
<path d="M302.159 104.444C308.345 104.444 313.36 99.4197 313.36 93.222C313.36 87.0242 308.345 82 302.159 82C295.972 82 290.957 87.0242 290.957 93.222C290.957 99.4197 295.972 104.444 302.159 104.444Z" fill="#016A70"/>
<path d="M300.631 99.062C300.438 99.062 300.247 99.0169 300.074 98.9302C299.901 98.8435 299.751 98.7177 299.635 98.5626L296.579 94.4805C296.48 94.3494 296.408 94.2001 296.368 94.0412C296.327 93.8823 296.317 93.7168 296.34 93.5543C296.364 93.3919 296.418 93.2355 296.502 93.0943C296.585 92.953 296.696 92.8296 296.827 92.7312C296.958 92.6327 297.107 92.5611 297.265 92.5204C297.424 92.4798 297.589 92.4709 297.751 92.4943C297.914 92.5176 298.07 92.5728 298.21 92.6566C298.351 92.7404 298.474 92.8512 298.572 92.9827L300.572 95.6531L305.707 87.9367C305.797 87.8001 305.914 87.6828 306.05 87.5915C306.186 87.5001 306.338 87.4365 306.499 87.4042C306.66 87.372 306.825 87.3718 306.985 87.4036C307.146 87.4354 307.299 87.4986 307.435 87.5895C307.571 87.6805 307.688 87.7975 307.779 87.9338C307.87 88.0701 307.934 88.2231 307.966 88.3839C307.998 88.5448 307.998 88.7104 307.966 88.8713C307.934 89.0322 307.871 89.1852 307.78 89.3216L301.668 98.5062C301.558 98.6723 301.409 98.8094 301.235 98.906C301.06 99.0027 300.865 99.0561 300.666 99.0617C300.654 99.0618 300.643 99.062 300.631 99.062Z" fill="white"/>
</g>
</g>
<defs>
<clipPath id="clip0_2838_6931">
<rect width="414.667" height="225" rx="10" fill="white"/>
</clipPath>
<clipPath id="clip1_2838_6931">
<rect width="279" height="253" fill="white" transform="translate(207 82)"/>
</clipPath>
</defs>
</svg>
