<svg width="58" height="58" viewBox="0 0 58 58" fill="none" xmlns="http://www.w3.org/2000/svg">
<path d="M28.9133 0.621094C28.8143 0.621094 28.7002 0.620763 28.6012 0.634908C25.3478 1.00268 21.9262 7.08535 20.1722 16.1806H37.6545C35.9005 7.08535 32.4789 1.00268 29.2255 0.634908C29.1265 0.620763 29.0124 0.621094 28.9133 0.621094ZM20.8518 1.79524C13.3267 4.016 7.11681 9.29197 3.65128 16.1806H15.8569C16.847 10.5226 18.532 5.40221 20.8518 1.79524ZM36.9749 1.79524C39.2947 5.40221 40.9797 10.5226 41.9698 16.1806H54.1754C50.7099 9.29197 44.5 4.016 36.9749 1.79524ZM15.6718 20.4627C15.2612 20.4839 14.8708 20.6475 14.5678 20.9253C14.2648 21.2031 14.068 21.5778 14.0114 21.985L12.8483 29.2813L10.7321 24.3913C10.5947 24.0754 10.3681 23.8064 10.08 23.6175C9.79188 23.4286 9.45487 23.328 9.11036 23.328C8.76586 23.328 8.42885 23.4286 8.14075 23.6175C7.85265 23.8064 7.62601 24.0754 7.48866 24.3913L5.37244 29.2813L4.20935 21.985C4.14948 21.5721 3.94555 21.1937 3.63361 20.9166C3.32168 20.6396 2.92183 20.4818 2.50477 20.471C2.24331 20.4644 1.98363 20.5158 1.74444 20.6216C1.50525 20.7274 1.29251 20.8849 1.12154 21.0828C0.950567 21.2808 0.825631 21.5141 0.755731 21.7662C0.68583 22.0182 0.672706 22.2826 0.717305 22.5403L2.83905 35.8371C2.89994 36.2146 3.0815 36.5621 3.35653 36.8276C3.63156 37.0932 3.98524 37.2625 4.36457 37.3101C4.7439 37.3577 5.12844 37.2811 5.46057 37.0917C5.79269 36.9024 6.05451 36.6105 6.20677 36.2598L9.11036 29.5437L12.014 36.2598C12.1662 36.6105 12.428 36.9024 12.7602 37.0917C13.0923 37.2811 13.4768 37.3577 13.8562 37.3101C14.2355 37.2625 14.5892 37.0932 14.8642 36.8276C15.1392 36.5621 15.3208 36.2146 15.3817 35.8371L17.5034 22.5403C17.5503 22.2782 17.5375 22.0088 17.4657 21.7524C17.394 21.496 17.2653 21.259 17.0892 21.0593C16.9131 20.8595 16.6942 20.7022 16.4487 20.5989C16.2033 20.4956 15.9377 20.449 15.6718 20.4627ZM35.4747 20.4627C35.0642 20.4839 34.6738 20.6475 34.3708 20.9253C34.0678 21.2031 33.871 21.5778 33.8144 21.985L32.6513 29.2813L30.535 24.3913C30.3977 24.0754 30.1711 23.8064 29.883 23.6175C29.5949 23.4286 29.2578 23.328 28.9133 23.328C28.5688 23.328 28.2318 23.4286 27.9437 23.6175C27.6556 23.8064 27.429 24.0754 27.2916 24.3913L25.1754 29.2813L24.0123 21.985C23.9525 21.5721 23.7485 21.1937 23.4366 20.9166C23.1247 20.6396 22.7248 20.4818 22.3077 20.471C22.0463 20.4644 21.7866 20.5158 21.5474 20.6216C21.3082 20.7274 21.0955 20.8849 20.9245 21.0828C20.7535 21.2808 20.6286 21.5141 20.5587 21.7662C20.4888 22.0182 20.4757 22.2826 20.5203 22.5403L22.642 35.8371C22.7029 36.2146 22.8845 36.5621 23.1595 36.8276C23.4345 37.0932 23.7882 37.2625 24.1675 37.3101C24.5469 37.3577 24.9314 37.2811 25.2635 37.0917C25.5957 36.9024 25.8575 36.6105 26.0098 36.2598L28.9133 29.5437L31.8169 36.2598C31.9692 36.6105 32.231 36.9024 32.5631 37.0917C32.8953 37.2811 33.2798 37.3577 33.6591 37.3101C34.0385 37.2625 34.3922 37.0932 34.6672 36.8276C34.9422 36.5621 35.1238 36.2146 35.1847 35.8371L37.3064 22.5403C37.3533 22.2782 37.3404 22.0088 37.2687 21.7524C37.197 21.496 37.0683 21.259 36.8922 21.0593C36.7161 20.8595 36.4971 20.7022 36.2517 20.5989C36.0063 20.4956 35.7407 20.449 35.4747 20.4627ZM55.2777 20.4627C54.8672 20.4839 54.4768 20.6475 54.1738 20.9253C53.8708 21.2031 53.674 21.5778 53.6173 21.985L52.4542 29.2813L50.338 24.3913C50.2007 24.0754 49.974 23.8064 49.6859 23.6175C49.3978 23.4286 49.0608 23.328 48.7163 23.328C48.3718 23.328 48.0348 23.4286 47.7467 23.6175C47.4586 23.8064 47.232 24.0754 47.0946 24.3913L44.9784 29.2813L43.8153 21.985C43.7554 21.5721 43.5515 21.1937 43.2396 20.9166C42.9276 20.6396 42.5278 20.4818 42.1107 20.471C41.8493 20.4644 41.5896 20.5158 41.3504 20.6216C41.1112 20.7274 40.8985 20.8849 40.7275 21.0828C40.5565 21.2808 40.4316 21.5141 40.3617 21.7662C40.2918 22.0182 40.2787 22.2826 40.3233 22.5403L42.445 35.8371C42.5059 36.2146 42.6875 36.5621 42.9625 36.8276C43.2375 37.0932 43.5912 37.2625 43.9705 37.3101C44.3499 37.3577 44.7344 37.2811 45.0665 37.0917C45.3986 36.9024 45.6605 36.6105 45.8127 36.2598L48.7163 29.5437L51.6199 36.2598C51.7722 36.6105 52.034 36.9024 52.3661 37.0917C52.6982 37.2811 53.0828 37.3577 53.4621 37.3101C53.8414 37.2625 54.1951 37.0932 54.4702 36.8276C54.7452 36.5621 54.9268 36.2146 54.9876 35.8371L57.1094 22.5403C57.1563 22.2782 57.1434 22.0088 57.0717 21.7524C57 21.496 56.8713 21.259 56.6951 21.0593C56.5191 20.8595 56.3001 20.7022 56.0547 20.5989C55.8092 20.4956 55.5436 20.449 55.2777 20.4627ZM3.65128 41.6415C7.11681 48.5302 13.3267 53.8061 20.8518 56.0269C18.532 52.4199 16.847 47.2995 15.8569 41.6415H3.65128ZM20.1722 41.6415C21.9262 50.7368 25.3478 56.8195 28.6012 57.1872C28.7002 57.2014 28.8143 57.201 28.9133 57.201C29.0124 57.201 29.1265 57.2014 29.2255 57.1872C32.4789 56.8195 35.9005 50.7368 37.6545 41.6415H20.1722ZM41.9698 41.6415C40.9797 47.2995 39.2947 52.4199 36.9749 56.0269C44.5 53.8061 50.7099 48.5302 54.1754 41.6415H41.9698Z" fill="#212838"/>
</svg>
