<svg width="12" height="9" viewBox="0 0 12 9" fill="none" xmlns="http://www.w3.org/2000/svg">
<path d="M10.7402 0.745335C10.6103 0.749205 10.4871 0.803495 10.3965 0.896702L4.25001 7.04319L1.60353 4.3967C1.55745 4.34872 1.50227 4.3104 1.44121 4.28401C1.38014 4.25762 1.31442 4.24368 1.2479 4.243C1.18138 4.24232 1.1154 4.25493 1.05381 4.28007C0.99222 4.30522 0.936268 4.3424 0.889229 4.38944C0.842189 4.43647 0.805009 4.49243 0.779864 4.55402C0.754719 4.6156 0.742116 4.68159 0.742793 4.74811C0.74347 4.81463 0.757413 4.88035 0.783805 4.94141C0.810197 5.00248 0.848509 5.05766 0.896495 5.10373L3.8965 8.10373C3.99027 8.19747 4.11743 8.25012 4.25001 8.25012C4.3826 8.25012 4.50975 8.19747 4.60353 8.10373L11.1035 1.60373C11.1758 1.5335 11.2251 1.44308 11.2451 1.34432C11.2651 1.24556 11.2548 1.14307 11.2155 1.05028C11.1762 0.957484 11.1098 0.878719 11.025 0.824305C10.9402 0.76989 10.841 0.742364 10.7402 0.745335Z" fill="#3D4350"/>
</svg>
