<svg width="18" height="18" viewBox="0 0 18 18" fill="none" xmlns="http://www.w3.org/2000/svg">
<path d="M9.17977 1.50006C9.0334 1.5022 8.89362 1.56131 8.79013 1.66485L7.29013 3.16485C7.23614 3.21668 7.19304 3.27876 7.16335 3.34746C7.13366 3.41616 7.11798 3.49009 7.11722 3.56492C7.11646 3.63976 7.13063 3.71399 7.15892 3.78328C7.18721 3.85257 7.22904 3.91551 7.28196 3.96843C7.33488 4.02135 7.39782 4.06318 7.46711 4.09146C7.53639 4.11975 7.61063 4.13393 7.68546 4.13317C7.7603 4.13241 7.83423 4.11672 7.90293 4.08703C7.97162 4.05734 8.0337 4.01424 8.08554 3.96026L8.62533 3.42047V5.43756C8.62428 5.51209 8.63805 5.5861 8.66584 5.65527C8.69364 5.72444 8.7349 5.78739 8.78724 5.84048C8.83958 5.89356 8.90194 5.93571 8.97071 5.96448C9.03948 5.99325 9.11329 6.00807 9.18783 6.00807C9.26238 6.00807 9.33618 5.99325 9.40495 5.96448C9.47372 5.93571 9.53608 5.89356 9.58842 5.84048C9.64076 5.78739 9.68202 5.72444 9.70982 5.65527C9.73761 5.5861 9.75139 5.51209 9.75033 5.43756V3.42047L10.2901 3.96026C10.342 4.01424 10.404 4.05734 10.4727 4.08703C10.5414 4.11672 10.6154 4.13241 10.6902 4.13317C10.765 4.13393 10.8393 4.11975 10.9086 4.09146C10.9778 4.06318 11.0408 4.02135 11.0937 3.96843C11.1466 3.91551 11.1885 3.85257 11.2167 3.78328C11.245 3.71399 11.2592 3.63976 11.2584 3.56492C11.2577 3.49009 11.242 3.41616 11.2123 3.34746C11.1826 3.27876 11.1395 3.21668 11.0855 3.16485L9.58554 1.66485C9.53236 1.61165 9.46905 1.56965 9.39935 1.54135C9.32966 1.51304 9.25499 1.499 9.17977 1.50006ZM14.0548 3.75006C13.9084 3.7522 13.7686 3.81131 13.6651 3.91485L12.1651 5.41485C12.1111 5.46668 12.068 5.52876 12.0384 5.59746C12.0087 5.66616 11.993 5.74009 11.9922 5.81492C11.9915 5.88976 12.0056 5.96399 12.0339 6.03328C12.0622 6.10257 12.104 6.16551 12.157 6.21843C12.2099 6.27135 12.2728 6.31318 12.3421 6.34146C12.4114 6.36975 12.4856 6.38393 12.5605 6.38317C12.6353 6.38241 12.7092 6.36672 12.7779 6.33703C12.8466 6.30734 12.9087 6.26424 12.9605 6.21026L13.5003 5.67047V7.68756C13.4993 7.76209 13.513 7.8361 13.5408 7.90527C13.5686 7.97444 13.6099 8.03739 13.6622 8.09048C13.7146 8.14356 13.7769 8.18571 13.8457 8.21448C13.9145 8.24325 13.9883 8.25807 14.0628 8.25807C14.1374 8.25807 14.2112 8.24325 14.2799 8.21448C14.3487 8.18571 14.4111 8.14356 14.4634 8.09048C14.5158 8.03739 14.557 7.97444 14.5848 7.90527C14.6126 7.8361 14.6264 7.76209 14.6253 7.68756V5.67047L15.1651 6.21026C15.217 6.26424 15.279 6.30734 15.3477 6.33703C15.4164 6.36672 15.4904 6.38241 15.5652 6.38317C15.64 6.38393 15.7143 6.36975 15.7836 6.34146C15.8528 6.31318 15.9158 6.27135 15.9687 6.21843C16.0216 6.16551 16.0635 6.10257 16.0917 6.03328C16.12 5.96399 16.1342 5.88976 16.1334 5.81492C16.1327 5.74009 16.117 5.66616 16.0873 5.59746C16.0576 5.52876 16.0145 5.46668 15.9605 5.41485L14.4605 3.91485C14.4074 3.86165 14.344 3.81965 14.2744 3.79135C14.2047 3.76304 14.13 3.749 14.0548 3.75006ZM4.30478 6.00006C4.1584 6.0022 4.01862 6.06131 3.91513 6.16485L2.41513 7.66485C2.36114 7.71668 2.31804 7.77876 2.28835 7.84746C2.25866 7.91616 2.24298 7.99009 2.24222 8.06492C2.24146 8.13976 2.25563 8.21399 2.28392 8.28328C2.31221 8.35257 2.35404 8.41551 2.40696 8.46843C2.45988 8.52135 2.52282 8.56318 2.59211 8.59146C2.66139 8.61975 2.73563 8.63393 2.81046 8.63317C2.8853 8.63241 2.95923 8.61672 3.02793 8.58703C3.09662 8.55734 3.1587 8.51424 3.21054 8.46026L3.75033 7.92047V9.93756C3.74928 10.0121 3.76305 10.0861 3.79084 10.1553C3.81864 10.2244 3.8599 10.2874 3.91224 10.3405C3.96458 10.3936 4.02695 10.4357 4.09571 10.4645C4.16448 10.4933 4.23829 10.5081 4.31283 10.5081C4.38738 10.5081 4.46118 10.4933 4.52995 10.4645C4.59872 10.4357 4.66108 10.3936 4.71342 10.3405C4.76576 10.2874 4.80702 10.2244 4.83482 10.1553C4.86262 10.0861 4.87639 10.0121 4.87533 9.93756V7.92047L5.41513 8.46026C5.46696 8.51424 5.52904 8.55734 5.59774 8.58703C5.66643 8.61672 5.74037 8.63241 5.8152 8.63317C5.89003 8.63393 5.96427 8.61975 6.03356 8.59146C6.10284 8.56318 6.16579 8.52135 6.21871 8.46843C6.27163 8.41551 6.31345 8.35257 6.34174 8.28328C6.37003 8.21399 6.38421 8.13976 6.38345 8.06492C6.38269 7.99009 6.367 7.91616 6.33731 7.84746C6.30762 7.77876 6.26452 7.71668 6.21054 7.66485L4.71054 6.16485C4.65736 6.11165 4.59405 6.06965 4.52435 6.04135C4.45466 6.01304 4.37999 5.999 4.30478 6.00006ZM9.18783 6.75006C8.26252 6.75006 7.50033 7.51224 7.50033 8.43756V14.8126C7.50033 15.7379 8.26252 16.5001 9.18783 16.5001C10.1131 16.5001 10.8753 15.7379 10.8753 14.8126V8.43756C10.8753 7.51224 10.1131 6.75006 9.18783 6.75006ZM14.0628 9.00006C13.1375 9.00006 12.3753 9.76224 12.3753 10.6876V14.8126C12.3753 15.7379 13.1375 16.5001 14.0628 16.5001C14.9881 16.5001 15.7503 15.7379 15.7503 14.8126V10.6876C15.7503 9.76224 14.9881 9.00006 14.0628 9.00006ZM4.31283 11.2501C3.38752 11.2501 2.62533 12.0122 2.62533 12.9376V14.8126C2.62533 15.7379 3.38752 16.5001 4.31283 16.5001C5.23814 16.5001 6.00033 15.7379 6.00033 14.8126V12.9376C6.00033 12.0122 5.23814 11.2501 4.31283 11.2501Z" fill="#212838"/>
</svg>
