<svg width="91" height="83" viewBox="0 0 91 83" fill="none" xmlns="http://www.w3.org/2000/svg">
<g opacity="0.15">
<path d="M85.6829 92.0525H87.9391C93.2312 92.0525 97.4407 89.6411 101.22 86.2697C110.822 77.7042 88.2511 69.0393 80.5459 69.0393M71.3406 23.3296C72.3859 23.1223 73.4712 23.0131 74.5846 23.0131C82.9609 23.0131 89.7511 29.1951 89.7511 36.821C89.7511 44.4468 82.9609 50.6289 74.5846 50.6289C73.4712 50.6289 72.3859 50.5198 71.3406 50.3122" stroke="white" stroke-width="6.90393" stroke-linecap="round"/>
<path d="M20.6258 74.1538C15.1994 77.0617 0.971789 82.9996 9.63734 90.4296C13.8704 94.0592 18.585 96.6551 24.5123 96.6551H58.335C64.2623 96.6551 68.9768 94.0592 73.2098 90.4296C81.8756 82.9996 67.648 77.0617 62.2215 74.1538C49.4966 67.3345 33.3506 67.3345 20.6258 74.1538Z" stroke="white" stroke-width="6.90393"/>
<path d="M59.8341 34.5197C59.8341 44.6875 51.5913 52.9302 41.4236 52.9302C31.2558 52.9302 23.0131 44.6875 23.0131 34.5197C23.0131 24.3518 31.2558 16.1092 41.4236 16.1092C51.5913 16.1092 59.8341 24.3518 59.8341 34.5197Z" stroke="white" stroke-width="6.90393"/>
</g>
</svg>
