<svg width="25" height="24" viewBox="0 0 25 24" fill="none" xmlns="http://www.w3.org/2000/svg">
<path d="M20.3334 10C20.3334 6.22876 20.3334 4.34315 19.1618 3.17157C17.9903 2 16.1046 2 12.3334 2H10.3334C6.56213 2 4.67652 2 3.50494 3.17157C2.33337 4.34315 2.33337 6.22876 2.33337 10V12C2.33337 15.7712 2.33337 17.6569 3.50494 18.8284C4.56804 19.8915 6.21907 19.99 9.33337 19.9991H9.83337" stroke="white" stroke-width="1.5" stroke-linecap="round" stroke-linejoin="round"/>
<path d="M14.8619 21.0596C13.2146 21.1735 11.5824 13.4909 12.7031 12.37C13.8239 11.2491 21.507 12.8801 21.3932 14.5274C21.3148 15.6063 19.4887 16.033 19.542 16.9918C19.5577 17.2726 19.9124 17.5286 20.6219 18.0404C21.1149 18.3961 21.6175 18.7415 22.1021 19.1086C22.2955 19.2551 22.3719 19.5015 22.3151 19.7337C22.0423 20.8491 21.1874 21.7078 20.0675 21.9817C19.8352 22.0385 19.5889 21.9621 19.4424 21.7686C19.0754 21.284 18.7301 20.7813 18.3744 20.2882C17.8626 19.5786 17.6067 19.2239 17.3259 19.2082C16.3673 19.1549 15.9406 20.9812 14.8619 21.0596Z" stroke="white" stroke-width="1.5"/>
<path d="M2.33337 7H20.3334" stroke="white" stroke-width="1.5" stroke-linejoin="round"/>
</svg>
