<svg width="84" height="66" viewBox="0 0 84 66" fill="none" xmlns="http://www.w3.org/2000/svg">
<g opacity="0.15">
<path d="M69.9207 35.0079C69.9207 21.8236 69.9207 15.2314 65.8247 11.1355C61.7291 7.03967 55.1366 7.03967 41.9524 7.03967H34.9603C21.7759 7.03967 15.1838 7.03967 11.0879 11.1355C6.99207 15.2314 6.99207 21.8236 6.99207 35.0079V42C6.99207 55.1842 6.99207 61.7767 11.0879 65.8723C14.8045 69.5889 20.5766 69.9333 31.4643 69.9651H33.2123" stroke="white" stroke-width="5.24405" stroke-linecap="round" stroke-linejoin="round"/>
<path d="M50.7921 73.6727C45.0331 74.0709 39.3269 47.2122 43.2449 43.2935C47.1633 39.3748 74.0236 45.0769 73.6258 50.8359C73.3517 54.6077 66.9676 56.0995 67.1539 59.4515C67.2088 60.4332 68.4489 61.3282 70.9293 63.1174C72.6528 64.361 74.4099 65.5685 76.1041 66.8519C76.7802 67.3641 77.0473 68.2255 76.8488 69.0373C75.8951 72.9367 72.9063 75.9388 68.9911 76.8963C68.179 77.0949 67.3179 76.8278 66.8057 76.1513C65.5227 74.4572 64.3155 72.6997 63.072 70.9758C61.2827 68.495 60.3881 67.255 59.4064 67.2001C56.0551 67.0138 54.5633 73.3986 50.7921 73.6727Z" stroke="white" stroke-width="5.24405"/>
<path d="M6.99207 24.5198H69.9207" stroke="white" stroke-width="5.24405" stroke-linejoin="round"/>
</g>
</svg>
