<svg width="32" height="32" viewBox="0 0 32 32" fill="none" xmlns="http://www.w3.org/2000/svg">
<path d="M12.3337 4C11.0549 4 10.0003 5.05455 10.0003 6.33333V8H5.00033C3.72154 8 2.66699 9.05454 2.66699 10.3333V26.3333C2.66699 27.6121 3.72154 28.6667 5.00033 28.6667H27.0003C28.2791 28.6667 29.3337 27.6121 29.3337 26.3333V10.3333C29.3337 9.05454 28.2791 8 27.0003 8H22.0003V6.33333C22.0003 5.05455 20.9458 4 19.667 4H12.3337ZM12.3337 6H19.667C19.8549 6 20.0003 6.14545 20.0003 6.33333V8H12.0003V6.33333C12.0003 6.14545 12.1458 6 12.3337 6ZM5.00033 10H27.0003C27.1882 10 27.3337 10.1455 27.3337 10.3333V19.3333H18.0003V19C18.0003 18.4667 17.5337 18 17.0003 18H15.0003C14.467 18 14.0003 18.4667 14.0003 19V19.3333H4.66699V10.3333C4.66699 10.1455 4.81245 10 5.00033 10ZM4.66699 21.3333H14.0003V21.6667C14.0003 22.2 14.467 22.6667 15.0003 22.6667H17.0003C17.5337 22.6667 18.0003 22.2 18.0003 21.6667V21.3333H27.3337V26.3333C27.3337 26.5212 27.1882 26.6667 27.0003 26.6667H5.00033C4.81245 26.6667 4.66699 26.5212 4.66699 26.3333V21.3333Z" fill="#016A70"/>
</svg>
