<svg width="32" height="32" viewBox="0 0 32 32" fill="none" xmlns="http://www.w3.org/2000/svg">
<path d="M15.9994 2.66699C14.9708 2.66699 13.9107 2.81037 12.9747 3.02637C12.7716 3.07329 12.5883 3.18247 12.4503 3.33865C12.3124 3.49482 12.2266 3.69019 12.2051 3.89746L12.0085 5.7959C11.9147 6.44386 11.5299 7.04427 11.0293 7.33626C10.5277 7.62888 9.76296 7.67756 9.21814 7.42611C9.21382 7.4239 9.20948 7.42174 9.20512 7.4196L7.40564 6.62012C7.21687 6.5362 7.00674 6.5128 6.80413 6.55314C6.60152 6.59347 6.41637 6.69556 6.27413 6.84538C4.90187 8.28986 3.81852 10.0924 3.23767 12.1253C3.18076 12.3246 3.18715 12.5366 3.25596 12.7321C3.32477 12.9275 3.45261 13.0968 3.62179 13.2165L5.22074 14.3493C5.22848 14.355 5.23629 14.3607 5.24418 14.3662C5.72416 14.6862 5.99939 15.2863 5.99939 15.9339C5.99939 16.5327 5.6606 17.1961 5.21423 17.5225L3.62179 18.6514C3.45286 18.771 3.3252 18.94 3.2564 19.1352C3.1876 19.3304 3.18106 19.5421 3.23767 19.7412C3.82025 21.7802 4.9132 23.5173 6.25851 25.0042C6.39974 25.1604 6.58666 25.268 6.79264 25.3118C6.99862 25.3555 7.21314 25.3331 7.40564 25.2477L9.20512 24.4469C9.20947 24.4452 9.21381 24.4435 9.21814 24.4417C9.78068 24.1821 10.439 24.2139 11.058 24.5472C11.6204 24.85 11.9592 25.4064 12.002 26.0055C12.0027 26.016 12.0036 26.0264 12.0046 26.0368L12.2051 27.9704C12.2268 28.1804 12.3145 28.3782 12.4556 28.5354C12.5966 28.6926 12.7838 28.8011 12.9903 28.8454C13.9681 29.0549 14.9708 29.2008 15.9994 29.2008C17.028 29.2008 18.0881 29.0575 19.0241 28.8415C19.2262 28.7949 19.4088 28.6867 19.5467 28.5318C19.6845 28.3769 19.7709 28.183 19.7937 27.9769L19.989 26.2087V26.2074C20.0821 25.5583 20.4681 24.9568 20.9694 24.6644C21.4711 24.3718 22.2358 24.3231 22.7806 24.5745C22.785 24.5767 22.7893 24.5789 22.7937 24.5811L24.5931 25.3805C24.7819 25.4645 24.992 25.4878 25.1947 25.4475C25.3973 25.4072 25.5824 25.3051 25.7246 25.1553C27.0969 23.7108 28.1803 21.9083 28.7611 19.8753C28.818 19.6761 28.8116 19.4641 28.7428 19.2686C28.674 19.0731 28.5462 18.9038 28.377 18.7842L26.778 17.6514C26.7703 17.6456 26.7625 17.64 26.7546 17.6344C26.2746 17.3145 25.9994 16.7144 25.9994 16.0667C25.9994 15.468 26.3382 14.8045 26.7845 14.4782L28.377 13.3493C28.5459 13.2297 28.6736 13.0607 28.7424 12.8655C28.8112 12.6703 28.8177 12.4585 28.7611 12.2594C28.1785 10.2204 27.0856 8.48333 25.7403 6.99642C25.599 6.84024 25.4121 6.73262 25.2061 6.6889C25.0002 6.64518 24.7856 6.66759 24.5931 6.75293L22.7937 7.55371C22.7893 7.55542 22.785 7.55715 22.7806 7.55892C22.2181 7.81856 21.5597 7.78673 20.9408 7.45345C20.3784 7.15062 20.0396 6.59428 19.9968 5.99512C19.996 5.98686 19.9952 5.97861 19.9942 5.97038L19.795 3.90397C19.7745 3.69257 19.6872 3.49318 19.5458 3.33469C19.4044 3.1762 19.2162 3.06684 19.0085 3.02246C18.0307 2.81292 17.028 2.66699 15.9994 2.66699ZM15.9994 4.66699C16.6083 4.66699 17.2452 4.78568 17.8809 4.89355L18.002 6.13835V6.13965C18.0929 7.40668 18.821 8.58358 19.9916 9.21387C21.106 9.81392 22.4471 9.91569 23.6179 9.37533L24.6791 8.90397C25.4921 9.89694 26.1323 10.9835 26.5671 12.1813L25.6218 12.8506C25.6183 12.8532 25.6148 12.8558 25.6114 12.8584C24.5924 13.5994 23.9994 14.8001 23.9994 16.0667C23.9994 17.2858 24.5252 18.5518 25.6452 19.2985L26.5684 19.9548C26.1303 21.1717 25.4871 22.274 24.683 23.2321L23.6062 22.7529L23.6179 22.7594C22.4294 22.2109 21.06 22.2958 19.9616 22.9365C18.8633 23.5772 18.1837 24.709 18.0098 25.9261C18.0084 25.9361 18.0071 25.9461 18.0059 25.9561L17.8926 26.9743C17.2637 27.0828 16.6155 27.2008 15.9994 27.2008C15.3888 27.2008 14.7502 27.0827 14.1127 26.9743L13.9968 25.8623C13.9062 24.5948 13.1781 23.4173 12.0072 22.7868C10.8928 22.1867 9.5517 22.085 8.3809 22.6253L7.3197 23.0967C6.5067 22.1037 5.86649 21.0171 5.43168 19.8193L6.37699 19.1501C6.38048 19.1475 6.38396 19.1449 6.38741 19.1423C7.40635 18.4012 7.99939 17.2006 7.99939 15.9339C7.99939 14.7149 7.47358 13.4488 6.35356 12.7021L5.43038 12.0459C5.86852 10.829 6.51166 9.72664 7.3158 8.76855L8.39262 9.24772L8.3809 9.24121C9.56941 9.78976 10.9388 9.70484 12.0372 9.06413C13.1355 8.42341 13.8151 7.29166 13.989 6.07454C13.9909 6.06199 13.9927 6.0494 13.9942 6.03678L14.1127 4.89225C14.7398 4.7844 15.3854 4.66699 15.9994 4.66699ZM15.9994 10.667C13.0657 10.667 10.6661 13.0667 10.6661 16.0003C10.6661 18.934 13.0657 21.3337 15.9994 21.3337C18.9331 21.3337 21.3327 18.934 21.3327 16.0003C21.3327 13.0667 18.9331 10.667 15.9994 10.667ZM15.9994 12.667C17.8522 12.667 19.3327 14.1475 19.3327 16.0003C19.3327 17.8531 17.8522 19.3337 15.9994 19.3337C14.1466 19.3337 12.6661 17.8531 12.6661 16.0003C12.6661 14.1475 14.1466 12.667 15.9994 12.667Z" fill="#016A70"/>
</svg>
