<svg width="32" height="32" viewBox="0 0 32 32" fill="none" xmlns="http://www.w3.org/2000/svg">
<path d="M15.9993 2.66699C8.64739 2.66699 2.66602 8.64837 2.66602 16.0003C2.66602 23.3523 8.64739 29.3337 15.9993 29.3337C23.3513 29.3337 29.3327 23.3523 29.3327 16.0003C29.3327 8.64837 23.3513 2.66699 15.9993 2.66699ZM15.9993 4.66699C22.2704 4.66699 27.3327 9.72925 27.3327 16.0003C27.3327 22.2714 22.2704 27.3337 15.9993 27.3337C9.72827 27.3337 4.66602 22.2714 4.66602 16.0003C4.66602 9.72925 9.72827 4.66699 15.9993 4.66699ZM15.9993 8.00033C14.7493 8.00033 13.6852 8.50508 13.002 9.27376C12.3187 10.0424 11.9993 11.0281 11.9993 12.0003C11.9993 12.9725 12.3187 13.9582 13.002 14.7269C13.6852 15.4956 14.7493 16.0003 15.9993 16.0003C17.2493 16.0003 18.3135 15.4956 18.9967 14.7269C19.68 13.9582 19.9993 12.9725 19.9993 12.0003C19.9993 11.0281 19.68 10.0424 18.9967 9.27376C18.3135 8.50508 17.2493 8.00033 15.9993 8.00033ZM15.9993 10.0003C16.7493 10.0003 17.1852 10.2456 17.502 10.6019C17.8187 10.9582 17.9993 11.4725 17.9993 12.0003C17.9993 12.5281 17.8187 13.0424 17.502 13.3988C17.1852 13.7551 16.7493 14.0003 15.9993 14.0003C15.2493 14.0003 14.8135 13.7551 14.4967 13.3988C14.18 13.0424 13.9993 12.5281 13.9993 12.0003C13.9993 11.4725 14.18 10.9582 14.4967 10.6019C14.8135 10.2456 15.2493 10.0003 15.9993 10.0003ZM11.5332 17.3337C10.3332 17.3337 9.33268 18.3342 9.33268 19.5342V20.2673C9.33268 21.587 10.1577 22.7443 11.3483 23.5146C12.5389 24.285 14.136 24.7334 15.9993 24.7334C17.8627 24.7334 19.4598 24.285 20.6504 23.5146C21.841 22.7443 22.666 21.587 22.666 20.2673V19.5342C22.666 18.3342 21.6655 17.3337 20.4655 17.3337H11.5332ZM11.5332 19.3337H20.4655C20.5988 19.3337 20.666 19.4008 20.666 19.5342V20.2673C20.666 20.7475 20.3572 21.3233 19.5645 21.8363C18.7717 22.3492 17.536 22.7334 15.9993 22.7334C14.4627 22.7334 13.227 22.3492 12.4342 21.8363C11.6415 21.3233 11.3327 20.7475 11.3327 20.2673V19.5342C11.3327 19.4008 11.3999 19.3337 11.5332 19.3337Z" fill="#016A70"/>
</svg>
