<svg width="63" height="49" viewBox="0 0 63 49" fill="none" xmlns="http://www.w3.org/2000/svg">
<path opacity="0.7" d="M18.7495 48.9993C18.4469 48.9914 18.1485 48.9276 17.8692 48.8111C17.8692 48.8111 13.1748 46.8973 8.74805 41.6959C4.32131 36.4945 4.20505e-06 27.8775 4.20505e-06 14.6959C-0.000217269 14.5764 0.00831011 14.457 0.025518 14.3388C-0.0360221 12.4799 0.276645 10.6277 0.944948 8.89211C1.61325 7.15649 2.62356 5.5729 3.91585 4.23538C5.20815 2.89786 6.75608 1.83371 8.46769 1.10614C10.1793 0.378563 12.0197 0.00239944 13.8795 0C17.5606 0 21.0909 1.4623 23.6938 4.06522C26.2967 6.66813 27.759 10.1984 27.759 13.8795C27.759 17.5606 26.2967 21.0909 23.6938 23.6938C21.0909 26.2967 17.5606 27.759 13.8795 27.759C11.088 27.7582 8.36163 26.9158 6.05634 25.3416C7.4749 31.3887 9.99676 35.6023 12.4794 38.5195C16.2171 42.9112 19.6871 44.2633 19.6871 44.2633C20.2263 44.47 20.6751 44.8607 20.9543 45.3662C21.2335 45.8717 21.3251 46.4597 21.213 47.0262C21.1008 47.5927 20.7921 48.1013 20.3414 48.4624C19.8906 48.8234 19.3268 49.0135 18.7495 48.9993ZM53.04 48.9993C52.7375 48.9914 52.439 48.9276 52.1598 48.8111C52.1598 48.8111 47.4653 46.8973 43.0386 41.6959C38.6119 36.4945 34.2905 27.8775 34.2905 14.6959C34.2903 14.5764 34.2989 14.457 34.3161 14.3388C34.2545 12.4799 34.5672 10.6277 35.2355 8.89211C35.9038 7.15649 36.9141 5.5729 38.2064 4.23538C39.4987 2.89786 41.0466 1.83371 42.7582 1.10614C44.4698 0.378563 46.3102 0.00239944 48.1701 0C51.8511 0 55.3814 1.4623 57.9843 4.06522C60.5873 6.66813 62.0496 10.1984 62.0496 13.8795C62.0496 17.5606 60.5873 21.0909 57.9843 23.6938C55.3814 26.2967 51.8511 27.759 48.1701 27.759C45.3786 27.7582 42.6522 26.9158 40.3469 25.3416C41.7654 31.3887 44.2873 35.6023 46.77 38.5195C50.5077 42.9112 53.9776 44.2633 53.9776 44.2633C54.5169 44.47 54.9657 44.8607 55.2449 45.3662C55.5241 45.8717 55.6157 46.4597 55.5035 47.0262C55.3914 47.5927 55.0826 48.1013 54.6319 48.4624C54.1811 48.8234 53.6173 49.0135 53.04 48.9993Z" fill="#016A70" fill-opacity="0.3"/>
</svg>
