<?xml version="1.0" encoding="UTF-8"?>
<svg id="Layer_1" data-name="Layer 1" xmlns="http://www.w3.org/2000/svg" viewBox="0 0 16 16">
  <defs>
    <style>
      .cls-1 {
        fill: #27a2a2;
      }
    </style>
  </defs>
  <path class="cls-1" d="m16,8.67c-.14.61-.22,1.24-.42,1.83-1.14,3.46-4.54,5.75-8.09,5.47C3.74,15.68.76,12.99.12,9.34-.65,4.94,2.41.73,6.85.09c4.47-.65,8.6,2.53,9.1,7.02,0,.07.03.13.05.2v1.37Zm-9.2.63c-.71-.71-1.43-1.44-2.16-2.16-.42-.42-.98-.44-1.36-.07-.37.38-.34.94.07,1.36.92.92,1.83,1.84,2.76,2.75.48.48.99.47,1.47-.01,1.69-1.7,3.37-3.41,5.06-5.11.43-.44.46-.97.09-1.36-.38-.39-.94-.36-1.38.08-.81.81-1.61,1.64-2.43,2.45-.69.7-1.4,1.38-2.12,2.08Z"/>
</svg>