<svg width="28" height="28" viewBox="0 0 28 28" fill="none" xmlns="http://www.w3.org/2000/svg">
<rect width="28" height="28" rx="14" fill="white" fill-opacity="0.29"/>
<g clip-path="url(#clip0_3379_7437)">
<path d="M14 9.54492C12.946 9.54492 12.0909 10.4 12.0909 11.454C12.0909 12.508 12.946 13.3631 14 13.3631C15.4318 13.3631 17.8182 11.454 17.8182 11.454C17.8182 11.454 15.4318 9.54492 14 9.54492ZM18.0369 9.54492C17.6069 9.54492 17.2141 9.74876 16.9432 10.062C17.6019 10.4796 18.1041 10.8674 18.2159 10.9569L18.8324 11.454L18.2159 11.9512C18.1289 12.0208 17.8157 12.2718 17.3807 12.5676C17.5771 12.6696 17.8033 12.7267 18.0369 12.7267C19.1506 12.7267 21 11.1358 21 11.1358C21 11.1358 19.1506 9.54492 18.0369 9.54492ZM8.27274 10.8176V12.7267H6.36365V13.9995H8.27274V15.9086H9.54547V13.9995H11.4546V12.7267H9.54547V10.8176H8.27274ZM18.1364 13.9995C17.3732 13.9995 16.7916 14.1983 16.3466 14.5165C17.8107 15.2175 18.3949 16.4181 18.3949 16.5449H21V15.7892C21 15.7246 20.299 13.9995 18.1364 13.9995ZM14 14.6358C11.0717 14.6358 10.1818 16.7438 10.1818 16.7438V17.8176H17.8182V16.7438C17.8182 16.7438 16.9283 14.6358 14 14.6358Z" fill="#E3E7EF"/>
</g>
<defs>
<clipPath id="clip0_3379_7437">
<rect width="15.2727" height="15.2727" fill="white" transform="translate(6.36365 6.36328)"/>
</clipPath>
</defs>
</svg>
