<svg width="46" height="45" viewBox="0 0 46 45" fill="none" xmlns="http://www.w3.org/2000/svg">
<path d="M4.10022 3.5997V8.9997C4.09853 9.11896 4.12057 9.23737 4.16504 9.34804C4.20951 9.45871 4.27554 9.55944 4.35928 9.64437C4.44302 9.7293 4.5428 9.79675 4.65283 9.84278C4.76286 9.88881 4.88095 9.91252 5.00022 9.91252C5.11949 9.91252 5.23758 9.88881 5.34761 9.84278C5.45764 9.79675 5.55742 9.7293 5.64116 9.64437C5.7249 9.55944 5.79093 9.45871 5.8354 9.34804C5.87987 9.23737 5.90191 9.11896 5.90022 8.9997V5.3997H9.50022C9.61948 5.40139 9.73789 5.37935 9.84856 5.33488C9.95923 5.29041 10.06 5.22438 10.1449 5.14064C10.2298 5.0569 10.2973 4.95712 10.3433 4.84709C10.3893 4.73706 10.413 4.61897 10.413 4.4997C10.413 4.38043 10.3893 4.26234 10.3433 4.15231C10.2973 4.04228 10.2298 3.9425 10.1449 3.85876C10.06 3.77502 9.95923 3.70899 9.84856 3.66452C9.73789 3.62005 9.61948 3.59801 9.50022 3.5997H4.10022ZM36.5002 3.5997C36.381 3.59801 36.2626 3.62005 36.1519 3.66452C36.0412 3.70899 35.9405 3.77502 35.8556 3.85876C35.7706 3.9425 35.7032 4.04228 35.6571 4.15231C35.6111 4.26234 35.5874 4.38043 35.5874 4.4997C35.5874 4.61897 35.6111 4.73706 35.6571 4.84709C35.7032 4.95712 35.7706 5.0569 35.8556 5.14064C35.9405 5.22438 36.0412 5.29041 36.1519 5.33488C36.2626 5.37935 36.381 5.40139 36.5002 5.3997H40.1002V8.9997C40.0985 9.11896 40.1206 9.23737 40.165 9.34804C40.2095 9.45871 40.2755 9.55944 40.3593 9.64437C40.443 9.7293 40.5428 9.79675 40.6528 9.84278C40.7629 9.88881 40.8809 9.91252 41.0002 9.91252C41.1195 9.91252 41.2376 9.88881 41.3476 9.84278C41.4576 9.79675 41.5574 9.7293 41.6412 9.64437C41.7249 9.55944 41.7909 9.45871 41.8354 9.34804C41.8799 9.23737 41.9019 9.11896 41.9002 8.9997V3.5997H36.5002ZM23.0002 9.8997C16.0519 9.8997 10.4002 15.5513 10.4002 22.4997C10.4002 23.7486 10.5828 24.9586 10.9223 26.0997H5.00022C4.88096 26.098 4.76255 26.12 4.65188 26.1645C4.54121 26.209 4.44048 26.275 4.35555 26.3588C4.27062 26.4425 4.20317 26.5423 4.15714 26.6523C4.11111 26.7623 4.0874 26.8804 4.0874 26.9997C4.0874 27.119 4.11111 27.2371 4.15714 27.3471C4.20317 27.4571 4.27062 27.5569 4.35555 27.6406C4.44048 27.7244 4.54121 27.7904 4.65188 27.8349C4.76255 27.8794 4.88096 27.9014 5.00022 27.8997H41.0002C41.1195 27.9014 41.2379 27.8794 41.3486 27.8349C41.4592 27.7904 41.56 27.7244 41.6449 27.6406C41.7298 27.5569 41.7973 27.4571 41.8433 27.3471C41.8893 27.2371 41.913 27.119 41.913 26.9997C41.913 26.8804 41.8893 26.7623 41.8433 26.6523C41.7973 26.5423 41.7298 26.4425 41.6449 26.3588C41.56 26.275 41.4592 26.209 41.3486 26.1645C41.2379 26.12 41.1195 26.098 41.0002 26.0997H35.0782C35.4177 24.9581 35.6002 23.7492 35.6002 22.4997C35.6002 15.5513 29.9486 9.8997 23.0002 9.8997ZM23.0002 11.6997C28.9759 11.6997 33.8002 16.524 33.8002 22.4997C33.8002 23.7655 33.5728 24.9727 33.1744 26.0997H27.0168C27.8743 25.1438 28.4002 23.885 28.4002 22.4997C28.4002 21.8355 28.2744 21.203 28.0557 20.6153C27.6489 21.2804 26.923 21.728 26.0869 21.728C24.8089 21.728 23.7719 20.6927 23.7719 19.4147C23.7719 18.5786 24.2213 17.8519 24.8864 17.446C24.2978 17.2264 23.6644 17.0997 23.0002 17.0997C20.0176 17.0997 17.6002 19.5171 17.6002 22.4997C17.6002 23.885 18.1262 25.1438 18.9836 26.0997H12.8278C12.4292 24.9733 12.2002 23.7658 12.2002 22.4997C12.2002 16.524 17.0246 11.6997 23.0002 11.6997ZM31.4377 29.6804C31.3148 29.6835 31.1938 29.7118 31.0823 29.7635C30.9707 29.8152 30.8709 29.8892 30.7891 29.9809C28.8234 32.0281 26.0663 33.2997 23.0002 33.2997C19.9325 33.2997 17.1744 32.0263 15.2078 29.9774C15.1258 29.8893 15.0269 29.8185 14.917 29.7693C14.8071 29.7201 14.6884 29.6934 14.568 29.6909C14.3888 29.6871 14.2125 29.7368 14.0618 29.8338C13.9111 29.9308 13.7927 30.0705 13.7219 30.2352C13.6511 30.3999 13.6311 30.5819 13.6644 30.758C13.6977 30.9341 13.7828 31.0963 13.9088 31.2237C16.201 33.6118 19.4331 35.0997 23.0002 35.0997C26.5653 35.0997 29.795 33.6135 32.0864 31.2272C32.2167 31.1012 32.3059 30.9388 32.3424 30.7613C32.3788 30.5837 32.3609 30.3993 32.2908 30.2321C32.2207 30.0649 32.1017 29.9228 31.9495 29.8244C31.7973 29.7259 31.6189 29.6757 31.4377 29.6804ZM4.98616 35.0874C4.74777 35.0911 4.5206 35.1893 4.3545 35.3603C4.18841 35.5314 4.09696 35.7613 4.10022 35.9997V41.3997H9.50022C9.61948 41.4014 9.73789 41.3794 9.84856 41.3349C9.95923 41.2904 10.06 41.2244 10.1449 41.1406C10.2298 41.0569 10.2973 40.9571 10.3433 40.8471C10.3893 40.7371 10.413 40.619 10.413 40.4997C10.413 40.3804 10.3893 40.2623 10.3433 40.1523C10.2973 40.0423 10.2298 39.9425 10.1449 39.8588C10.06 39.775 9.95923 39.709 9.84856 39.6645C9.73789 39.62 9.61948 39.598 9.50022 39.5997H5.90022V35.9997C5.90187 35.8793 5.87934 35.7598 5.83397 35.6482C5.78859 35.5367 5.72129 35.4354 5.63606 35.3503C5.55083 35.2652 5.44939 35.1981 5.33776 35.153C5.22613 35.1078 5.10657 35.0855 4.98616 35.0874ZM40.9862 35.0874C40.7478 35.0911 40.5206 35.1893 40.3545 35.3603C40.1884 35.5314 40.097 35.7613 40.1002 35.9997V39.5997H36.5002C36.381 39.598 36.2626 39.62 36.1519 39.6645C36.0412 39.709 35.9405 39.775 35.8556 39.8588C35.7706 39.9425 35.7032 40.0423 35.6571 40.1523C35.6111 40.2623 35.5874 40.3804 35.5874 40.4997C35.5874 40.619 35.6111 40.7371 35.6571 40.8471C35.7032 40.9571 35.7706 41.0569 35.8556 41.1406C35.9405 41.2244 36.0412 41.2904 36.1519 41.3349C36.2626 41.3794 36.381 41.4014 36.5002 41.3997H41.9002V35.9997C41.9019 35.8793 41.8793 35.7598 41.834 35.6482C41.7886 35.5367 41.7213 35.4354 41.6361 35.3503C41.5508 35.2652 41.4494 35.1981 41.3378 35.153C41.2261 35.1078 41.1066 35.0855 40.9862 35.0874Z" fill="#5B5B5B"/>
</svg>
