<svg width="45" height="45" viewBox="0 0 45 45" fill="none" xmlns="http://www.w3.org/2000/svg">
<g clip-path="url(#clip0_3756_7163)">
<path d="M34.2001 4.50002C32.9052 4.50002 30.9702 4.57968 29.2448 5.49143C27.5193 6.40318 26.1001 8.28865 26.1001 11.2905C26.1001 15.1554 28.502 16.9744 29.1833 17.4199C29.2661 17.5188 29.3693 17.5987 29.4858 17.6542C29.6022 17.7097 29.7293 17.7395 29.8583 17.7416C30.279 18.4582 30.8465 19.1325 31.3014 19.5399V19.6014C31.3104 20.1054 31.3113 20.5569 31.2663 21.1149C31.1853 21.2679 31.0406 21.4017 30.8426 21.5367C30.9866 22.1127 31.0503 22.743 31.0413 23.4V23.4897C31.9413 23.0667 32.6702 22.5275 32.9942 21.6545C33.0212 21.5825 33.0397 21.5017 33.0487 21.4207C33.1117 20.7007 33.1104 20.1598 33.1014 19.5838V19.1074C33.1014 18.7744 32.9484 18.4855 32.6514 18.3235C32.2644 18.0715 31.1484 16.7129 31.0764 16.0559C31.074 16.0341 31.0609 16.0173 31.0571 15.9961C31.75 13.9654 32.9831 12.0634 34.2211 10.4871C35.0995 11.5634 36.6138 13.6315 37.343 15.8766C37.3248 15.9344 37.3124 15.9939 37.3061 16.0541C37.2865 16.2372 36.9709 16.8976 36.5749 17.4129C36.3768 17.6706 36.1682 17.9074 35.9983 18.0791C35.8284 18.2509 35.6205 18.38 35.7557 18.3094C35.6099 18.3856 35.4878 18.5002 35.4025 18.6409C35.3173 18.7816 35.2723 18.943 35.2723 19.1074C35.2723 19.864 35.2424 20.5058 35.3251 21.4172C35.3369 21.5475 35.377 21.6737 35.4425 21.7869C35.5081 21.9002 35.5976 21.9978 35.7047 22.0729C36.1073 22.7039 36.6887 23.1668 37.336 23.4721C38.1343 23.8487 39.0192 24.1141 39.862 24.4196C40.7048 24.725 41.4958 25.0676 42.0803 25.5059C42.6649 25.9441 43.0501 26.4366 43.2229 27.1987C43.2456 27.3173 43.292 27.4302 43.3592 27.5306C43.4265 27.6309 43.5133 27.7167 43.6144 27.7829C43.7155 27.849 43.8289 27.894 43.9479 27.9154C44.0668 27.9368 44.1888 27.934 44.3066 27.9072C44.4244 27.8804 44.5356 27.8301 44.6336 27.7594C44.7316 27.6887 44.8143 27.599 44.8769 27.4957C44.9395 27.3923 44.9806 27.2775 44.9978 27.1579C45.0151 27.0383 45.0081 26.9164 44.9772 26.7996C44.7045 25.5969 43.9939 24.6917 43.1596 24.0662C42.3254 23.4408 41.3747 23.0527 40.4754 22.7268C39.5762 22.4009 38.7212 22.1354 38.1042 21.8444C37.5001 21.5594 37.2128 21.2895 37.111 21.0393C37.073 20.5035 37.0768 20.0245 37.0811 19.5065C37.1373 19.4506 37.2126 19.4126 37.278 19.3465C37.5065 19.1154 37.7566 18.8293 38.0022 18.5098C38.1942 18.2599 38.3814 17.9921 38.5524 17.7117C38.6722 17.7075 38.7899 17.6794 38.8987 17.6291C38.9099 17.6241 38.9211 17.6188 38.9321 17.6133C39 17.5787 39.0632 17.5355 39.1202 17.485C39.6198 17.1775 42.3001 15.36 42.3001 11.2905C42.3001 8.28771 40.8754 6.40274 39.1483 5.49143C37.4467 4.59357 35.5496 4.50427 34.2633 4.50178C34.2423 4.50045 34.2212 4.49987 34.2001 4.50002ZM10.8211 5.40354C8.45055 5.40354 6.5654 6.10406 5.219 7.49006C2.5523 10.2252 2.7004 15.2998 2.7229 17.8207C2.7265 18.2167 2.74048 18.5778 2.74048 18.9018C2.74048 20.4325 3.66984 21.6608 4.99048 22.558C4.3195 22.7913 3.61267 23.0525 2.92154 23.4035C1.64685 24.051 0.408538 25.1024 0.0229021 26.8014C-0.00862652 26.9185 -0.0161721 27.0407 0.000718193 27.1608C0.0176085 27.2809 0.0585865 27.3963 0.121192 27.5001C0.183798 27.604 0.266741 27.6941 0.365042 27.7651C0.463343 27.8361 0.574976 27.8865 0.693239 27.9133C0.811502 27.9401 0.933957 27.9427 1.05325 27.921C1.17255 27.8992 1.28623 27.8536 1.38746 27.7869C1.4887 27.7202 1.57541 27.6336 1.64238 27.5326C1.70935 27.4315 1.75521 27.3179 1.7772 27.1987C2.02156 26.1221 2.70785 25.5312 3.73716 25.0084C4.76647 24.4856 6.07529 24.1409 7.23872 23.6602C7.2452 23.6573 7.25165 23.6544 7.25806 23.6514C8.45652 24.0664 9.71839 24.3 10.8211 24.3C12.3466 24.3 14.439 23.8142 15.7764 22.6442C15.8304 21.9512 15.9742 21.303 16.1983 20.7C16.3873 20.187 16.6299 19.7012 16.926 19.2692L16.9225 19.2656C16.9848 19.1767 17.0466 19.0873 17.1088 19.0072C17.1103 19.0053 17.1127 19.0039 17.1141 19.002C17.1146 19.0043 17.1135 19.0067 17.1141 19.009C17.1411 18.973 17.1678 18.9378 17.2038 18.9018C17.652 18.3168 18.2185 17.8124 18.8737 17.4164C18.7036 13.0163 17.7691 9.55113 16.2616 7.78713C14.206 5.28513 10.9201 5.39454 10.8211 5.40354ZM34.2001 6.30002C34.579 6.30002 35.0118 6.32347 35.4586 6.36155C33.7003 8.06037 30.7604 11.3131 29.3889 15.3158C28.711 14.6359 27.9001 13.3991 27.9001 11.2905C27.9001 8.80316 28.8337 7.74347 30.085 7.08225C31.3363 6.42103 33.0019 6.30002 34.2001 6.30002ZM37.6471 6.79924C37.8755 6.88155 38.0985 6.97169 38.3081 7.08225C39.562 7.74392 40.5 8.80409 40.5 11.2905C40.5 13.3613 39.7184 14.5891 39.0481 15.2772C38.1422 12.4508 36.3166 10.1139 35.4042 9.06682C36.4256 7.92048 37.2223 7.17626 37.6471 6.79924ZM10.9143 7.74495C12.1313 7.74495 13.017 8.1707 13.6635 8.92444C14.3101 9.67818 14.7165 10.8118 14.7165 12.2731C14.7165 12.5378 14.5721 13.8477 14.4792 14.2348C14.3886 14.6116 13.9451 15.8172 13.2768 16.7836C12.6085 17.7501 11.7849 18.4307 10.9161 18.4307C10.0454 18.4307 9.22234 17.7483 8.55357 16.7819C8.11661 16.1504 7.78913 15.4365 7.57974 14.8992C7.49373 14.5457 7.42011 14.1837 7.36529 13.8164C7.22871 12.9015 7.1973 12.0177 7.19654 11.192C7.34562 10.245 7.68862 9.47999 8.16509 8.92444C8.81166 8.17055 9.6974 7.74495 10.9143 7.74495ZM5.40357 10.4256C5.39776 10.6219 5.39756 10.8311 5.39653 11.0426C5.3409 11.4393 5.31216 11.8495 5.31216 12.2731C5.31216 13.4306 5.46824 14.1115 5.59868 14.6549C5.65603 14.8934 5.76104 15.2057 5.88872 15.5426C6.16185 16.6011 6.56859 17.6308 7.2229 18.5098C8.17664 19.791 9.70719 20.7 11.7001 20.7H13.5001H15.0663C14.3751 21.924 12.3115 22.5 10.8211 22.5C7.99244 22.5 4.53521 20.8368 4.53521 18.9018C4.53521 18.5688 4.52663 18.1908 4.51763 17.7768C4.46837 15.6453 4.40865 12.6688 5.40357 10.4256ZM16.4831 12.7565C16.8534 14.3587 17.1052 16.3893 17.1053 18.9H13.8411C14.1878 18.558 14.4962 18.1837 14.7569 17.8067C15.59 16.6019 16.0595 15.3635 16.2299 14.6549C16.363 14.1006 16.4464 13.3652 16.4831 12.7565ZM23.3649 17.9983C23.3596 17.9988 23.3543 17.9994 23.3491 18C21.5027 18.0335 20.032 18.5651 19.0319 19.524C18.0317 20.483 17.5635 21.8164 17.529 23.2242C17.5067 24.1558 17.6985 24.9964 17.9262 25.9313C17.6709 26.3005 17.487 26.7541 17.5606 27.3656V27.3674C17.6453 28.0645 17.8368 28.5948 18.1495 28.9916C18.2762 29.1525 18.4606 29.1554 18.6188 29.2588C18.8024 29.9635 19.1679 30.5772 19.5751 31.1098C19.8194 31.4295 20.0679 31.7152 20.2958 31.9465C20.3607 32.0125 20.4368 32.0506 20.4926 32.1065C20.4968 32.6319 20.4993 33.1145 20.4592 33.6621C20.3492 33.9061 20.0839 34.1678 19.4977 34.4444C18.8807 34.7354 18.024 35.0026 17.1247 35.3285C16.2253 35.6544 15.2748 36.0426 14.4405 36.668C13.6062 37.2934 12.8956 38.1987 12.6229 39.4014C12.5914 39.5185 12.5838 39.6407 12.6007 39.7608C12.6176 39.8809 12.6586 39.9963 12.7212 40.1002C12.7838 40.204 12.8667 40.2941 12.965 40.3651C13.0633 40.4361 13.175 40.4865 13.2932 40.5133C13.4115 40.5401 13.534 40.5427 13.6533 40.521C13.7726 40.4992 13.8862 40.4536 13.9875 40.3869C14.0887 40.3202 14.1754 40.2337 14.2424 40.1326C14.3094 40.0315 14.3552 39.9179 14.3772 39.7987C14.55 39.0367 14.9352 38.5459 15.5198 38.1076C16.1044 37.6694 16.8953 37.3268 17.7381 37.0213C18.581 36.7159 19.4675 36.4487 20.2659 36.0721C21.0642 35.6955 21.8528 35.171 22.1959 34.2528C22.2239 34.1775 22.2416 34.0989 22.2487 34.019C22.3313 33.1075 22.3014 32.4656 22.3014 31.7074C22.3013 31.5428 22.256 31.3813 22.1704 31.2406C22.0849 31.0999 21.9624 30.9853 21.8163 30.9094C21.9546 30.9813 21.7478 30.854 21.579 30.6826C21.4101 30.5112 21.2011 30.2741 21.0042 30.0164C20.6102 29.5011 20.2981 28.8414 20.2782 28.6559C20.2577 28.4659 20.1774 28.2874 20.0488 28.1462C19.9202 28.0049 19.7499 27.9082 19.5627 27.8701C19.5218 27.8172 19.4037 27.6182 19.3465 27.1512V27.1494C19.3304 27.0034 19.3644 26.9269 19.3852 26.8963C19.5339 26.7906 19.647 26.6423 19.7095 26.4709C19.7719 26.2995 19.7808 26.1131 19.735 25.9365C19.4461 24.8339 19.3082 24.1348 19.329 23.2682C19.3548 22.2154 19.6689 21.4072 20.2782 20.8231C20.8857 20.2406 21.8508 19.8298 23.3702 19.8C24.3839 19.8021 24.9345 20.1221 25.0225 20.2764C25.0908 20.3958 25.1856 20.498 25.2996 20.5751C25.4135 20.6522 25.5436 20.7022 25.6799 20.7211C26.4284 20.8247 26.7767 21.1147 27.0458 21.5614C27.3148 22.008 27.4494 22.6664 27.4413 23.3596C27.4279 24.4846 27.2467 25.335 27.0651 25.8768C27.0037 26.0605 27.0033 26.2591 27.0637 26.4431C27.1242 26.627 27.2424 26.7866 27.4008 26.8981C27.4218 26.9298 27.4537 27.0042 27.436 27.1494C27.3794 27.6192 27.2622 27.8176 27.2215 27.8701C27.0346 27.9081 26.8646 28.0046 26.736 28.1455C26.6074 28.2864 26.5269 28.4645 26.5061 28.6541C26.4865 28.8372 26.1709 29.4976 25.7749 30.0129C25.5768 30.2706 25.3682 30.5074 25.1983 30.6791C25.0284 30.8509 24.8205 30.98 24.9557 30.9094C24.8099 30.9855 24.6878 31.1002 24.6025 31.2409C24.5173 31.3816 24.4723 31.543 24.4723 31.7074C24.4723 32.464 24.4424 33.1058 24.5251 34.0172C24.5369 34.1475 24.577 34.2737 24.6425 34.3869C24.7081 34.5002 24.7976 34.5978 24.9047 34.6729C25.3073 35.3039 25.8887 35.7668 26.536 36.0721C27.3343 36.4487 28.2192 36.7141 29.062 37.0196C29.9047 37.325 30.6958 37.6676 31.2803 38.1059C31.8649 38.5441 32.2501 39.0366 32.4229 39.7987C32.4456 39.9173 32.492 40.0302 32.5592 40.1306C32.6265 40.2309 32.7133 40.3167 32.8144 40.3829C32.9155 40.449 33.0289 40.494 33.1479 40.5154C33.2668 40.5368 33.3888 40.534 33.5066 40.5072C33.6244 40.4804 33.7356 40.4301 33.8336 40.3594C33.9316 40.2887 34.0143 40.199 34.0769 40.0957C34.1395 39.9923 34.1806 39.8775 34.1978 39.7579C34.2151 39.6383 34.2081 39.5164 34.1772 39.3996C33.9045 38.1969 33.1938 37.2917 32.3596 36.6662C31.5254 36.0408 30.5747 35.6527 29.6754 35.3268C28.7762 35.0009 27.9212 34.7354 27.3042 34.4444C26.7001 34.1594 26.4128 33.8895 26.311 33.6393C26.273 33.1035 26.2768 32.6245 26.2811 32.1065C26.3373 32.0506 26.4126 32.0126 26.478 31.9465C26.7065 31.7154 26.9566 31.4293 27.2022 31.1098C27.6115 30.5772 27.9775 29.9634 28.162 29.2571C28.3206 29.1536 28.5062 29.1527 28.6331 28.9916C28.9461 28.5942 29.1396 28.0632 29.2237 27.3656H29.2219C29.2967 26.7508 29.1117 26.2949 28.8528 25.9242C29.0422 25.2317 29.2284 24.4622 29.2413 23.3807C29.252 22.4602 29.1006 21.4833 28.5874 20.6315C28.1078 19.8355 27.2371 19.2339 26.137 19.016C25.4558 18.3213 24.4789 17.9983 23.3649 17.9983Z" fill="#2F2E41"/>
</g>
<defs>
<clipPath id="clip0_3756_7163">
<rect width="45" height="45" fill="white"/>
</clipPath>
</defs>
</svg>
