<svg width="46" height="45" viewBox="0 0 46 45" fill="none" xmlns="http://www.w3.org/2000/svg">
<path d="M12.3125 5.0625C10.7659 5.0625 9.5 6.3284 9.5 7.875V37.125C9.5 38.6716 10.7659 39.9375 12.3125 39.9375H34.8125C36.3591 39.9375 37.625 38.6716 37.625 37.125V14.625C37.625 14.4758 37.5657 14.3328 37.4602 14.2273L28.4602 5.22729C28.3547 5.12181 28.2117 5.06253 28.0625 5.0625H12.3125ZM12.3125 6.1875H27.5V12.375C27.5 13.9216 28.7659 15.1875 30.3125 15.1875H36.5V37.125C36.5 38.0635 35.751 38.8125 34.8125 38.8125H12.3125C11.374 38.8125 10.625 38.0635 10.625 37.125V7.875C10.625 6.93648 11.374 6.1875 12.3125 6.1875ZM28.625 6.98291L35.7046 14.0625H30.3125C29.374 14.0625 28.625 13.3135 28.625 12.375V6.98291ZM12.3125 8.4375C12.1633 8.4375 12.0202 8.49676 11.9148 8.60225C11.8093 8.70774 11.75 8.85082 11.75 9C11.75 9.14918 11.8093 9.29226 11.9148 9.39775C12.0202 9.50324 12.1633 9.5625 12.3125 9.5625C12.4617 9.5625 12.6048 9.50324 12.7102 9.39775C12.8157 9.29226 12.875 9.14918 12.875 9C12.875 8.85082 12.8157 8.70774 12.7102 8.60225C12.6048 8.49676 12.4617 8.4375 12.3125 8.4375ZM14.5625 8.4375C14.4133 8.4375 14.2702 8.49676 14.1648 8.60225C14.0593 8.70774 14 8.85082 14 9C14 9.14918 14.0593 9.29226 14.1648 9.39775C14.2702 9.50324 14.4133 9.5625 14.5625 9.5625C14.7117 9.5625 14.8548 9.50324 14.9602 9.39775C15.0657 9.29226 15.125 9.14918 15.125 9C15.125 8.85082 15.0657 8.70774 14.9602 8.60225C14.8548 8.49676 14.7117 8.4375 14.5625 8.4375ZM16.8125 8.4375C16.6633 8.4375 16.5202 8.49676 16.4148 8.60225C16.3093 8.70774 16.25 8.85082 16.25 9C16.25 9.14918 16.3093 9.29226 16.4148 9.39775C16.5202 9.50324 16.6633 9.5625 16.8125 9.5625C16.9617 9.5625 17.1048 9.50324 17.2102 9.39775C17.3157 9.29226 17.375 9.14918 17.375 9C17.375 8.85082 17.3157 8.70774 17.2102 8.60225C17.1048 8.49676 16.9617 8.4375 16.8125 8.4375ZM19.0625 8.4375C18.9133 8.4375 18.7702 8.49676 18.6648 8.60225C18.5593 8.70774 18.5 8.85082 18.5 9C18.5 9.14918 18.5593 9.29226 18.6648 9.39775C18.7702 9.50324 18.9133 9.5625 19.0625 9.5625C19.2117 9.5625 19.3548 9.50324 19.4602 9.39775C19.5657 9.29226 19.625 9.14918 19.625 9C19.625 8.85082 19.5657 8.70774 19.4602 8.60225C19.3548 8.49676 19.2117 8.4375 19.0625 8.4375ZM21.3125 8.4375C21.1633 8.4375 21.0202 8.49676 20.9148 8.60225C20.8093 8.70774 20.75 8.85082 20.75 9C20.75 9.14918 20.8093 9.29226 20.9148 9.39775C21.0202 9.50324 21.1633 9.5625 21.3125 9.5625C21.4617 9.5625 21.6048 9.50324 21.7102 9.39775C21.8157 9.29226 21.875 9.14918 21.875 9C21.875 8.85082 21.8157 8.70774 21.7102 8.60225C21.6048 8.49676 21.4617 8.4375 21.3125 8.4375ZM23.5625 8.4375C23.4133 8.4375 23.2702 8.49676 23.1648 8.60225C23.0593 8.70774 23 8.85082 23 9C23 9.14918 23.0593 9.29226 23.1648 9.39775C23.2702 9.50324 23.4133 9.5625 23.5625 9.5625C23.7117 9.5625 23.8548 9.50324 23.9602 9.39775C24.0657 9.29226 24.125 9.14918 24.125 9C24.125 8.85082 24.0657 8.70774 23.9602 8.60225C23.8548 8.49676 23.7117 8.4375 23.5625 8.4375ZM25.8125 8.4375C25.6633 8.4375 25.5202 8.49676 25.4148 8.60225C25.3093 8.70774 25.25 8.85082 25.25 9C25.25 9.14918 25.3093 9.29226 25.4148 9.39775C25.5202 9.50324 25.6633 9.5625 25.8125 9.5625C25.9617 9.5625 26.1048 9.50324 26.2102 9.39775C26.3157 9.29226 26.375 9.14918 26.375 9C26.375 8.85082 26.3157 8.70774 26.2102 8.60225C26.1048 8.49676 25.9617 8.4375 25.8125 8.4375ZM16.8125 18.5625C16.5141 18.5625 16.228 18.681 16.017 18.892C15.806 19.103 15.6875 19.3891 15.6875 19.6875C15.6875 19.9859 15.806 20.272 16.017 20.483C16.228 20.694 16.5141 20.8125 16.8125 20.8125C17.1109 20.8125 17.397 20.694 17.608 20.483C17.819 20.272 17.9375 19.9859 17.9375 19.6875C17.9375 19.3891 17.819 19.103 17.608 18.892C17.397 18.681 17.1109 18.5625 16.8125 18.5625ZM19.625 19.125V20.25H31.4375V19.125H19.625ZM16.8125 23.0625C16.5141 23.0625 16.228 23.181 16.017 23.392C15.806 23.603 15.6875 23.8891 15.6875 24.1875C15.6875 24.4859 15.806 24.772 16.017 24.983C16.228 25.194 16.5141 25.3125 16.8125 25.3125C17.1109 25.3125 17.397 25.194 17.608 24.983C17.819 24.772 17.9375 24.4859 17.9375 24.1875C17.9375 23.8891 17.819 23.603 17.608 23.392C17.397 23.181 17.1109 23.0625 16.8125 23.0625ZM19.625 23.625V24.75H31.4375V23.625H19.625ZM16.8125 27.5625C16.5141 27.5625 16.228 27.681 16.017 27.892C15.806 28.103 15.6875 28.3891 15.6875 28.6875C15.6875 28.9859 15.806 29.272 16.017 29.483C16.228 29.694 16.5141 29.8125 16.8125 29.8125C17.1109 29.8125 17.397 29.694 17.608 29.483C17.819 29.272 17.9375 28.9859 17.9375 28.6875C17.9375 28.3891 17.819 28.103 17.608 27.892C17.397 27.681 17.1109 27.5625 16.8125 27.5625ZM19.625 28.125V29.25H31.4375V28.125H19.625ZM12.3125 35.4375C12.1633 35.4375 12.0202 35.4968 11.9148 35.6023C11.8093 35.7077 11.75 35.8508 11.75 36C11.75 36.1492 11.8093 36.2923 11.9148 36.3977C12.0202 36.5032 12.1633 36.5625 12.3125 36.5625C12.4617 36.5625 12.6048 36.5032 12.7102 36.3977C12.8157 36.2923 12.875 36.1492 12.875 36C12.875 35.8508 12.8157 35.7077 12.7102 35.6023C12.6048 35.4968 12.4617 35.4375 12.3125 35.4375ZM14.5625 35.4375C14.4133 35.4375 14.2702 35.4968 14.1648 35.6023C14.0593 35.7077 14 35.8508 14 36C14 36.1492 14.0593 36.2923 14.1648 36.3977C14.2702 36.5032 14.4133 36.5625 14.5625 36.5625C14.7117 36.5625 14.8548 36.5032 14.9602 36.3977C15.0657 36.2923 15.125 36.1492 15.125 36C15.125 35.8508 15.0657 35.7077 14.9602 35.6023C14.8548 35.4968 14.7117 35.4375 14.5625 35.4375ZM16.8125 35.4375C16.6633 35.4375 16.5202 35.4968 16.4148 35.6023C16.3093 35.7077 16.25 35.8508 16.25 36C16.25 36.1492 16.3093 36.2923 16.4148 36.3977C16.5202 36.5032 16.6633 36.5625 16.8125 36.5625C16.9617 36.5625 17.1048 36.5032 17.2102 36.3977C17.3157 36.2923 17.375 36.1492 17.375 36C17.375 35.8508 17.3157 35.7077 17.2102 35.6023C17.1048 35.4968 16.9617 35.4375 16.8125 35.4375ZM19.0625 35.4375C18.9133 35.4375 18.7702 35.4968 18.6648 35.6023C18.5593 35.7077 18.5 35.8508 18.5 36C18.5 36.1492 18.5593 36.2923 18.6648 36.3977C18.7702 36.5032 18.9133 36.5625 19.0625 36.5625C19.2117 36.5625 19.3548 36.5032 19.4602 36.3977C19.5657 36.2923 19.625 36.1492 19.625 36C19.625 35.8508 19.5657 35.7077 19.4602 35.6023C19.3548 35.4968 19.2117 35.4375 19.0625 35.4375ZM21.3125 35.4375C21.1633 35.4375 21.0202 35.4968 20.9148 35.6023C20.8093 35.7077 20.75 35.8508 20.75 36C20.75 36.1492 20.8093 36.2923 20.9148 36.3977C21.0202 36.5032 21.1633 36.5625 21.3125 36.5625C21.4617 36.5625 21.6048 36.5032 21.7102 36.3977C21.8157 36.2923 21.875 36.1492 21.875 36C21.875 35.8508 21.8157 35.7077 21.7102 35.6023C21.6048 35.4968 21.4617 35.4375 21.3125 35.4375ZM23.5625 35.4375C23.4133 35.4375 23.2702 35.4968 23.1648 35.6023C23.0593 35.7077 23 35.8508 23 36C23 36.1492 23.0593 36.2923 23.1648 36.3977C23.2702 36.5032 23.4133 36.5625 23.5625 36.5625C23.7117 36.5625 23.8548 36.5032 23.9602 36.3977C24.0657 36.2923 24.125 36.1492 24.125 36C24.125 35.8508 24.0657 35.7077 23.9602 35.6023C23.8548 35.4968 23.7117 35.4375 23.5625 35.4375ZM25.8125 35.4375C25.6633 35.4375 25.5202 35.4968 25.4148 35.6023C25.3093 35.7077 25.25 35.8508 25.25 36C25.25 36.1492 25.3093 36.2923 25.4148 36.3977C25.5202 36.5032 25.6633 36.5625 25.8125 36.5625C25.9617 36.5625 26.1048 36.5032 26.2102 36.3977C26.3157 36.2923 26.375 36.1492 26.375 36C26.375 35.8508 26.3157 35.7077 26.2102 35.6023C26.1048 35.4968 25.9617 35.4375 25.8125 35.4375ZM28.0625 35.4375C27.9133 35.4375 27.7702 35.4968 27.6648 35.6023C27.5593 35.7077 27.5 35.8508 27.5 36C27.5 36.1492 27.5593 36.2923 27.6648 36.3977C27.7702 36.5032 27.9133 36.5625 28.0625 36.5625C28.2117 36.5625 28.3548 36.5032 28.4602 36.3977C28.5657 36.2923 28.625 36.1492 28.625 36C28.625 35.8508 28.5657 35.7077 28.4602 35.6023C28.3548 35.4968 28.2117 35.4375 28.0625 35.4375ZM30.3125 35.4375C30.1633 35.4375 30.0202 35.4968 29.9148 35.6023C29.8093 35.7077 29.75 35.8508 29.75 36C29.75 36.1492 29.8093 36.2923 29.9148 36.3977C30.0202 36.5032 30.1633 36.5625 30.3125 36.5625C30.4617 36.5625 30.6048 36.5032 30.7102 36.3977C30.8157 36.2923 30.875 36.1492 30.875 36C30.875 35.8508 30.8157 35.7077 30.7102 35.6023C30.6048 35.4968 30.4617 35.4375 30.3125 35.4375ZM32.5625 35.4375C32.4133 35.4375 32.2702 35.4968 32.1648 35.6023C32.0593 35.7077 32 35.8508 32 36C32 36.1492 32.0593 36.2923 32.1648 36.3977C32.2702 36.5032 32.4133 36.5625 32.5625 36.5625C32.7117 36.5625 32.8548 36.5032 32.9602 36.3977C33.0657 36.2923 33.125 36.1492 33.125 36C33.125 35.8508 33.0657 35.7077 32.9602 35.6023C32.8548 35.4968 32.7117 35.4375 32.5625 35.4375ZM34.8125 35.4375C34.6633 35.4375 34.5202 35.4968 34.4148 35.6023C34.3093 35.7077 34.25 35.8508 34.25 36C34.25 36.1492 34.3093 36.2923 34.4148 36.3977C34.5202 36.5032 34.6633 36.5625 34.8125 36.5625C34.9617 36.5625 35.1048 36.5032 35.2102 36.3977C35.3157 36.2923 35.375 36.1492 35.375 36C35.375 35.8508 35.3157 35.7077 35.2102 35.6023C35.1048 35.4968 34.9617 35.4375 34.8125 35.4375Z" fill="#5B5B5B"/>
</svg>
