<svg width="70" height="71" viewBox="0 0 70 71" fill="none" xmlns="http://www.w3.org/2000/svg">
<path d="M49.7946 27.153C48.529 27.0697 47.4391 27.944 47.3614 29.1053C47.3516 29.2495 47.3579 29.3916 47.3789 29.5295C47.1346 29.2537 46.7734 29.0668 46.3583 29.0395C45.5988 28.9898 44.9429 29.491 44.8477 30.1735C44.7098 30.1357 44.5656 30.1105 44.4165 30.1007C43.3091 30.0279 42.3557 30.793 42.2871 31.8094" fill="#FDFCEF"/>
<path d="M42.2871 31.9829C42.2829 31.9829 42.2794 31.9829 42.2752 31.9822C42.1786 31.9759 42.1058 31.8926 42.1128 31.796C42.187 30.6858 43.2181 29.8458 44.4284 29.9242C44.5236 29.9305 44.6188 29.9424 44.714 29.9613C44.9058 29.2837 45.5841 28.8077 46.3702 28.8644C46.6684 28.8833 46.947 28.9764 47.1843 29.1318C47.185 29.1185 47.1857 29.1059 47.1871 29.0926C47.2704 27.8361 48.4513 26.8855 49.8058 26.9779C49.9024 26.9842 49.9752 27.0675 49.9682 27.1641C49.9626 27.2565 49.8856 27.3272 49.7939 27.3272C49.7904 27.3272 49.7862 27.3272 49.782 27.3265C48.613 27.2474 47.6064 28.0524 47.535 29.1164C47.5266 29.2473 47.5322 29.3768 47.5511 29.5028C47.563 29.5791 47.5224 29.6554 47.4524 29.6883C47.3817 29.7205 47.2977 29.7037 47.2466 29.6456C47.0219 29.3908 46.702 29.2375 46.3457 29.2137C45.6926 29.178 45.1025 29.6022 45.0199 30.1965C45.0122 30.2462 44.9842 30.291 44.9429 30.319C44.9002 30.347 44.8477 30.3547 44.8008 30.3414C44.6692 30.3057 44.5362 30.2833 44.4039 30.2735C43.3798 30.214 42.5223 30.9014 42.4607 31.8198C42.4551 31.9122 42.3781 31.9829 42.2871 31.9829Z" fill="#2F2E41"/>
<path d="M61.3963 28.3199C60.207 27.7592 58.8315 28.1561 58.324 29.2068C58.261 29.337 58.2141 29.4721 58.1833 29.6086" fill="#FDFCEF"/>
<path d="M51.7251 12.8924H50.8452C50.652 12.8924 50.4952 12.7356 50.4952 12.5424C50.4952 12.3492 50.652 12.1924 50.8452 12.1924H51.7251C51.9183 12.1924 52.0751 12.3492 52.0751 12.5424C52.0751 12.7356 51.9183 12.8924 51.7251 12.8924ZM47.1877 14.1972H45.9564C45.7632 14.1972 45.6064 14.0404 45.6064 13.8472C45.6064 13.654 45.7632 13.4972 45.9564 13.4972H47.1877C47.3809 13.4972 47.5377 13.654 47.5377 13.8472C47.5377 14.0404 47.3809 14.1972 47.1877 14.1972Z" fill="#E3EEED"/>
<path d="M51.7413 20.4018L53.485 20.3751C53.5844 16.8171 49.2969 17.0341 49.2969 17.0341L28.18 17.0312C26.5602 17.0312 25.2211 18.7995 25.2211 20.2464V38.5023L21.0225 38.4904C21.019 38.6423 21.0246 47.225 21.0379 47.3615C21.3123 50.1846 24.9936 49.8689 24.9936 49.8689L49.5671 49.8865C50.8915 50.0097 51.742 48.4291 51.742 47.5513C51.742 46.6735 51.7413 20.4018 51.7413 20.4018Z" fill="#EDF7F5"/>
<path d="M24.8662 48.6881C24.5953 48.6881 24.3762 48.469 24.3762 48.1981C24.3762 47.9272 24.5953 47.7081 24.8662 47.7081C24.9551 47.7081 24.9789 47.6829 24.9936 47.6675C25.0818 47.5716 25.1756 47.3007 25.1196 46.5475L25.1525 20.2457C25.1525 18.5685 26.6911 16.5406 28.6021 16.5406L49.719 16.5434C49.7904 16.5385 52.0668 16.4405 53.4248 17.7684C54.1003 18.4285 54.4272 19.3098 54.3971 20.3885C54.3894 20.6538 54.1731 20.8645 53.9078 20.8652L37.8512 20.8918H37.8505C37.5803 20.8918 37.3612 20.6734 37.3605 20.4025C37.3605 20.1316 37.5789 19.9125 37.8498 19.9118L53.3996 19.8859C53.3373 19.3084 53.121 18.8429 52.743 18.4719C51.6951 17.4436 49.7631 17.5227 49.7435 17.5234L28.6028 17.5213C27.2966 17.5213 26.1339 19.0452 26.1339 20.2471L26.0996 46.5125C26.1472 47.1369 26.1402 47.874 25.7125 48.3346C25.4962 48.5663 25.2036 48.6881 24.8662 48.6881Z" fill="#2F2E41"/>
<path d="M50.1361 50.3663C50.0724 50.3663 50.0087 50.3628 49.9457 50.3572L25.4541 50.3418C24.0667 50.4608 21.2716 50.0072 21.0175 47.399C20.9986 47.203 20.9986 38.5629 21 38.4922C21.0063 38.2255 21.224 38.0127 21.49 38.0127H21.4914L25.2224 38.0246C25.4933 38.0253 25.7117 38.2451 25.711 38.516C25.7103 38.7862 25.4912 39.0046 25.221 39.0046H25.2196L21.9793 38.9941C21.9793 40.7924 21.9828 47.0336 21.994 47.3227C22.2166 49.6005 25.2854 49.373 25.4135 49.3625L49.9912 49.3779C50.3559 49.4094 50.6646 49.2946 50.9481 49.0363C51.4003 48.6226 51.6712 47.9499 51.6712 47.5383V20.4021C51.6712 20.1312 51.8903 19.9121 52.1612 19.9121C52.4321 19.9121 52.6512 20.1312 52.6512 20.4021V47.5397C52.6512 48.2873 52.2221 49.2015 51.6075 49.7615C51.1721 50.1591 50.666 50.3663 50.1361 50.3663ZM35.7448 20.8921H33.6399C33.369 20.8921 33.1499 20.673 33.1499 20.4021C33.1499 20.1312 33.369 19.9121 33.6399 19.9121H35.7448C36.0157 19.9121 36.2348 20.1312 36.2348 20.4021C36.2348 20.673 36.0157 20.8921 35.7448 20.8921ZM35.5341 26.7686H27.9573C27.8124 26.7686 27.6948 26.651 27.6948 26.5061C27.6948 26.3612 27.8124 26.2436 27.9573 26.2436H35.5341C35.679 26.2436 35.7966 26.3612 35.7966 26.5061C35.7966 26.651 35.679 26.7686 35.5341 26.7686Z" fill="#2F2E41"/>
<path d="M50.6892 26.7682H36.7977C36.6528 26.7682 36.5352 26.6506 36.5352 26.5057C36.5352 26.3608 36.6528 26.2432 36.7977 26.2432H50.6892C50.8341 26.2432 50.9517 26.3608 50.9517 26.5057C50.9517 26.6506 50.8341 26.7682 50.6892 26.7682ZM50.6892 30.978H37.6391C37.4942 30.978 37.3766 30.8604 37.3766 30.7155C37.3766 30.5706 37.4942 30.453 37.6391 30.453H50.6892C50.8341 30.453 50.9517 30.5706 50.9517 30.7155C50.9517 30.8604 50.8341 30.978 50.6892 30.978ZM50.6892 33.9243H37.6391C37.4942 33.9243 37.3766 33.8067 37.3766 33.6618C37.3766 33.5169 37.4942 33.3993 37.6391 33.3993H50.6892C50.8341 33.3993 50.9517 33.5169 50.9517 33.6618C50.9517 33.8067 50.8341 33.9243 50.6892 33.9243Z" fill="#2F2E41"/>
<path d="M35.1134 31.1358V36.6077H27.9573V29.873H33.8506" fill="#E3EEED"/>
<path d="M35.1134 36.8715H27.9573C27.8124 36.8715 27.6948 36.7539 27.6948 36.609V29.8736C27.6948 29.7287 27.8124 29.6111 27.9573 29.6111H33.8506C33.9955 29.6111 34.1131 29.7287 34.1131 29.8736C34.1131 30.0185 33.9955 30.1361 33.8506 30.1361H28.2198V36.3465H34.8509V31.1364C34.8509 30.9915 34.9685 30.8739 35.1134 30.8739C35.2583 30.8739 35.3759 30.9915 35.3759 31.1364V36.609C35.3759 36.7539 35.2583 36.8715 35.1134 36.8715ZM43.1116 36.8715H37.639C37.4941 36.8715 37.3765 36.7539 37.3765 36.609C37.3765 36.4641 37.4941 36.3465 37.639 36.3465H43.1116C43.2565 36.3465 43.3741 36.4641 43.3741 36.609C43.3741 36.7539 43.2565 36.8715 43.1116 36.8715ZM44.7958 24.2428H38.9025C38.7576 24.2428 38.64 24.1252 38.64 23.9803C38.64 23.8354 38.7576 23.7178 38.9025 23.7178H44.7958C44.9407 23.7178 45.0583 23.8354 45.0583 23.9803C45.0583 24.1252 44.9407 24.2428 44.7958 24.2428ZM50.6891 24.2428H46.0586C45.9137 24.2428 45.7961 24.1252 45.7961 23.9803C45.7961 23.8354 45.9137 23.7178 46.0586 23.7178H50.6891C50.834 23.7178 50.9516 23.8354 50.9516 23.9803C50.9516 24.1252 50.834 24.2428 50.6891 24.2428ZM37.639 24.2428H27.9573C27.8124 24.2428 27.6948 24.1252 27.6948 23.9803C27.6948 23.8354 27.8124 23.7178 27.9573 23.7178H37.639C37.7839 23.7178 37.9015 23.8354 37.9015 23.9803C37.9015 24.1252 37.7839 24.2428 37.639 24.2428ZM41.0067 46.1318H27.9573C27.8124 46.1318 27.6948 46.0142 27.6948 45.8693C27.6948 45.7244 27.8124 45.6068 27.9573 45.6068H41.0074C41.1523 45.6068 41.2699 45.7244 41.2699 45.8693C41.2699 46.0142 41.1523 46.1318 41.0067 46.1318ZM41.0067 43.1855H27.9573C27.8124 43.1855 27.6948 43.0679 27.6948 42.923C27.6948 42.7781 27.8124 42.6605 27.9573 42.6605H41.0074C41.1523 42.6605 41.2699 42.7781 41.2699 42.923C41.2699 43.0679 41.1523 43.1855 41.0067 43.1855Z" fill="#2F2E41"/>
<path d="M43.1116 45.8696V39.9756H50.2677V46.711H44.7951" fill="#5B5B5B"/>
<path d="M50.2677 46.9734H44.7958C44.6509 46.9734 44.5333 46.8558 44.5333 46.7109C44.5333 46.566 44.6509 46.4484 44.7958 46.4484H50.0052V40.238H43.3741V45.8688C43.3741 46.0137 43.2565 46.1313 43.1116 46.1313C42.9667 46.1313 42.8491 46.0137 42.8491 45.8688V39.9755C42.8491 39.8306 42.9667 39.713 43.1116 39.713H50.2677C50.4126 39.713 50.5302 39.8306 50.5302 39.9755V46.7109C50.5302 46.8558 50.4126 46.9734 50.2677 46.9734ZM41.0067 40.238H27.9573C27.8124 40.238 27.6948 40.1204 27.6948 39.9755C27.6948 39.8306 27.8124 39.713 27.9573 39.713H41.0074C41.1523 39.713 41.2699 39.8306 41.2699 39.9755C41.2699 40.1204 41.1523 40.238 41.0067 40.238ZM30.4962 32.0102C30.4696 32.0102 30.4437 31.9983 30.4262 31.9752C30.3968 31.9367 30.4045 31.8821 30.443 31.8527L33.1387 29.8024C33.1772 29.7744 33.2325 29.7807 33.2612 29.8192C33.2906 29.8577 33.2829 29.9123 33.2444 29.9417L30.5487 31.992C30.5333 32.0039 30.5144 32.0102 30.4962 32.0102Z" fill="#2F2E41"/>
<path d="M30.4962 32.0102C30.4696 32.0102 30.4437 31.9983 30.4262 31.9752C30.3968 31.9367 30.4045 31.8821 30.443 31.8527L33.1387 29.8024C33.1772 29.7744 33.2325 29.7807 33.2612 29.8192C33.2906 29.8577 33.2829 29.9123 33.2444 29.9417L30.5487 31.992C30.5333 32.0039 30.5144 32.0102 30.4962 32.0102ZM32.1692 33.1029C32.1426 33.1029 32.1167 33.091 32.0992 33.0679C32.0698 33.0294 32.0775 32.9748 32.116 32.9454L34.8124 30.8951C34.8516 30.8671 34.9062 30.8734 34.9349 30.9119C34.9643 30.9504 34.9566 31.005 34.9181 31.0344L32.2217 33.0847C32.2056 33.0966 32.1874 33.1029 32.1692 33.1029ZM31.535 32.4421C31.5084 32.4421 31.4825 32.4302 31.465 32.4071C31.4356 32.3686 31.4433 32.314 31.4818 32.2846L34.1782 30.2343C34.2174 30.2063 34.272 30.2126 34.3007 30.2511C34.3301 30.2896 34.3224 30.3442 34.2839 30.3736L31.5875 32.4239C31.5721 32.4365 31.5539 32.4421 31.535 32.4421ZM32.4177 34.0199C32.3911 34.0199 32.3652 34.008 32.3477 33.9849C32.3183 33.9464 32.326 33.8918 32.3645 33.8624L35.0602 31.8121C35.0994 31.7841 35.154 31.7904 35.1827 31.8289C35.2121 31.8674 35.2044 31.922 35.1659 31.9514L32.4702 34.0017C32.4548 34.0143 32.4359 34.0199 32.4177 34.0199ZM32.312 35.3135C32.2854 35.3135 32.2595 35.3016 32.242 35.2785C32.2126 35.24 32.2203 35.1854 32.2588 35.156L34.9545 33.1057C34.993 33.0777 35.0483 33.084 35.077 33.1225C35.1064 33.161 35.0987 33.2156 35.0602 33.245L32.3645 35.2953C32.3484 35.3072 32.3302 35.3135 32.312 35.3135ZM28.9275 32.0102C28.9009 32.0102 28.875 31.9983 28.8575 31.9752C28.8281 31.9367 28.8358 31.8821 28.8743 31.8527L31.5707 29.8024C31.6092 29.7744 31.6645 29.7807 31.6932 29.8192C31.7226 29.8577 31.7149 29.9123 31.6764 29.9417L28.98 31.9927C28.9639 32.0039 28.9457 32.0102 28.9275 32.0102ZM32.3484 36.5091C32.3218 36.5091 32.2959 36.4972 32.2784 36.4748C32.249 36.4356 32.2567 36.381 32.2945 36.3516L34.9902 34.3006C35.0315 34.2726 35.0854 34.2796 35.1134 34.3167C35.1428 34.3559 35.1351 34.4105 35.0973 34.4399L32.4016 36.4909C32.3855 36.5028 32.3673 36.5091 32.3484 36.5091ZM44.1966 43.1913C44.17 43.1913 44.1441 43.1794 44.1266 43.1563C44.0972 43.1178 44.1049 43.0632 44.1434 43.0338L48.1341 39.9993C48.1733 39.9713 48.2279 39.9776 48.2566 40.0161C48.286 40.0546 48.2783 40.1092 48.2398 40.1386L44.2491 43.1731C44.2337 43.185 44.2148 43.1913 44.1966 43.1913ZM47.1646 43.2991C47.1387 43.2991 47.1135 43.2879 47.096 43.2662C47.0659 43.2284 47.0722 43.1731 47.11 43.143L50.1074 40.7525C50.1459 40.7217 50.2012 40.7287 50.2306 40.7665C50.2607 40.8043 50.2544 40.8596 50.2166 40.8897L47.2192 43.2802C47.2031 43.2928 47.1842 43.2991 47.1646 43.2991ZM45.4895 43.4314C45.4629 43.4314 45.437 43.4195 45.4195 43.3964C45.3901 43.3579 45.3978 43.3033 45.4363 43.2739L49.6531 40.0665C49.6923 40.0385 49.7469 40.0441 49.7756 40.0833C49.805 40.1218 49.7973 40.1764 49.7588 40.2058L45.542 43.4132C45.5266 43.4251 45.5077 43.4314 45.4895 43.4314ZM47.4138 44.2168C47.3879 44.2168 47.3627 44.2049 47.3452 44.1832C47.3151 44.1454 47.3214 44.0908 47.3599 44.0607L50.2138 41.8004C50.2509 41.7696 50.3069 41.7773 50.3363 41.8151C50.3664 41.8529 50.3601 41.9075 50.3216 41.9376L47.4677 44.1979C47.4523 44.2105 47.4327 44.2168 47.4138 44.2168ZM47.3067 45.5097C47.2801 45.5097 47.2542 45.4978 47.2367 45.4747C47.2073 45.4362 47.215 45.3816 47.2535 45.3522L50.2138 43.1003C50.253 43.0723 50.3076 43.0779 50.3363 43.1171C50.3657 43.1556 50.358 43.2102 50.3195 43.2396L47.3592 45.4915C47.3438 45.5041 47.3256 45.5097 47.3067 45.5097ZM43.2635 42.7083C43.2369 42.7083 43.211 42.6964 43.1935 42.6733C43.1641 42.6348 43.1718 42.5802 43.2103 42.5508L46.5654 39.9986C46.6046 39.9706 46.6592 39.9769 46.6879 40.0154C46.7173 40.0539 46.7096 40.1085 46.6711 40.1379L43.316 42.6901C43.3006 42.7027 43.2817 42.7083 43.2635 42.7083ZM47.3438 46.7046C47.3172 46.7046 47.2913 46.6927 47.2738 46.6696C47.2444 46.6311 47.2521 46.5765 47.2906 46.5471L49.987 44.4968C50.0262 44.4688 50.0808 44.4751 50.1095 44.5136C50.1389 44.5521 50.1312 44.6067 50.0927 44.6361L47.3963 46.6864C47.3809 46.699 47.3627 46.7046 47.3438 46.7046ZM43.015 41.6744C42.9884 41.6744 42.9625 41.6625 42.945 41.6394C42.9156 41.6009 42.9233 41.5463 42.9611 41.5169L45.1479 39.8537C45.1871 39.8257 45.2417 39.8327 45.2704 39.8698C45.2998 39.909 45.2921 39.9636 45.2543 39.993L43.0675 41.6562C43.0514 41.6681 43.0332 41.6744 43.015 41.6744Z" fill="#2F2E41"/>
<path d="M53.7208 52.9039L44.0937 53.3918C43.4805 53.4226 42.9527 52.9466 42.9219 52.3327L42.2709 39.5066C42.2373 38.8493 42.7483 38.2837 43.4056 38.2508L54.3732 37.6943C56.0084 37.611 57.4147 38.8815 57.4973 40.5167L57.8914 48.2853C58.0146 50.7031 56.1372 52.7807 53.7208 52.9039Z" fill="#E3EEED"/>
<path d="M44.0355 53.7434C43.6722 53.7434 43.3271 53.6104 43.0548 53.364C42.7636 53.1008 42.5921 52.741 42.5732 52.3511L41.9222 39.5257C41.8788 38.6738 42.5368 37.9451 43.3887 37.9024L54.3563 37.3459C56.1567 37.2346 57.7548 38.6682 57.8479 40.5008L58.2413 48.2694C58.3057 49.5322 57.8717 50.7467 57.0184 51.691C56.1658 52.6353 55.001 53.1904 53.7382 53.2541L44.1111 53.742C44.0859 53.7427 44.0607 53.7434 44.0355 53.7434ZM54.525 38.0403C54.4809 38.0403 54.4361 38.0417 54.3913 38.0438L43.4237 38.6003C43.199 38.6122 42.9918 38.7109 42.8392 38.8796C42.6866 39.0476 42.6096 39.2646 42.6208 39.4893L43.2718 52.3147C43.2823 52.5184 43.3719 52.7067 43.5245 52.8446C43.6764 52.9818 43.8612 53.0532 44.0761 53.042L53.7032 52.5541C54.7791 52.4995 55.7717 52.0256 56.4997 51.2206C57.227 50.4156 57.5973 49.3789 57.5427 48.3037L57.1493 40.5351C57.0772 39.1337 55.9131 38.0403 54.525 38.0403Z" fill="#2F2E41"/>
<path d="M43.7618 46.2355C43.6785 46.2355 43.6085 46.1704 43.6043 46.0864L43.3243 40.5655C43.2872 39.8452 43.8444 39.2285 44.5647 39.1921L53.9335 38.7168C54.0161 38.7147 54.0945 38.7791 54.0987 38.8659C54.1036 38.9527 54.0364 39.0269 53.9496 39.0311L44.5808 39.5064C44.3169 39.5204 44.0726 39.6366 43.8948 39.834C43.717 40.0314 43.6253 40.2855 43.6386 40.5487L43.9186 46.0696C43.9235 46.1564 43.8563 46.2306 43.7695 46.2348C43.7674 46.2355 43.7646 46.2355 43.7618 46.2355Z" fill="#2F2E41"/>
<path d="M43.8919 48.6444L43.8401 47.6182L43.8919 48.6444Z" fill="#5B5B5B"/>
<path d="M43.8919 48.8015C43.8086 48.8015 43.7386 48.7364 43.7344 48.6524L43.6826 47.6262C43.6777 47.5394 43.7449 47.4652 43.8317 47.461C43.9171 47.4582 43.992 47.5233 43.9969 47.6101L44.0487 48.6363C44.0536 48.7231 43.9864 48.7973 43.8996 48.8015C43.8968 48.8015 43.894 48.8015 43.8919 48.8015ZM45.2191 52.3337C44.881 52.3337 44.5583 52.2063 44.3028 51.9718C44.0319 51.7226 43.873 51.3817 43.8541 51.0135L43.7596 49.1648C43.7547 49.078 43.8219 49.0038 43.9087 48.9996C44.0025 48.9968 44.0697 49.0619 44.0739 49.1487L44.1684 50.9974C44.1831 51.283 44.3063 51.5469 44.5163 51.7408C44.7242 51.9326 44.9937 52.0285 45.2709 52.018L54.4388 51.5532C55.7058 51.4881 56.6823 50.3835 56.6165 49.0899L56.3792 44.4097C56.3743 44.3229 56.4415 44.2487 56.5283 44.2445C56.6207 44.2389 56.6893 44.3068 56.6935 44.3936L56.9308 49.0738C57.005 50.541 55.8948 51.794 54.4549 51.8675L45.287 52.3323C45.2646 52.333 45.2422 52.3337 45.2191 52.3337Z" fill="#2F2E41"/>
<path d="M56.4072 41.8359L56.459 42.8621L56.4072 41.8359Z" fill="#5B5B5B"/>
<path d="M56.4598 43.0193C56.3765 43.0193 56.3065 42.9542 56.3023 42.8702L56.2498 41.844C56.2449 41.7572 56.3121 41.683 56.3989 41.6788C56.4927 41.676 56.5599 41.7411 56.5641 41.8279L56.6166 42.8541C56.6215 42.9409 56.5543 43.0151 56.4675 43.0193C56.4647 43.0193 56.4626 43.0193 56.4598 43.0193Z" fill="#2F2E41"/>
<path d="M56.3547 40.8096L56.3813 41.3227L56.3547 40.8096Z" fill="#5B5B5B"/>
<path d="M56.3807 41.48C56.2974 41.48 56.2274 41.4149 56.2232 41.3309L56.1973 40.8185C56.1924 40.7317 56.2596 40.6575 56.3464 40.6533C56.4276 40.654 56.5074 40.7156 56.5116 40.8024L56.5375 41.3148C56.5424 41.4016 56.4752 41.4758 56.3884 41.48C56.3863 41.48 56.3835 41.48 56.3807 41.48Z" fill="#2F2E41"/>
<path d="M58.9566 46.8515L53.589 47.1238C52.6013 47.1742 51.7522 46.407 51.7018 45.4193C51.6514 44.4316 52.4186 43.5825 53.4063 43.5321L58.8915 43.2535C59.1211 43.2416 59.3164 43.4187 59.3283 43.6476L59.4627 46.2908C59.4774 46.5848 59.2499 46.8368 58.9566 46.8515Z" fill="#5B5B5B"/>
<path d="M53.4953 47.3886C52.9864 47.3886 52.5006 47.201 52.1177 46.8552C51.7082 46.4856 51.4674 45.9802 51.4394 45.4328C51.382 44.2981 52.2584 43.3272 53.3924 43.2698L58.8783 42.9912C59.2717 42.9912 59.5713 43.2621 59.5909 43.6352L59.7246 46.2784C59.7351 46.4898 59.6623 46.6935 59.5195 46.8517C59.3767 47.0099 59.1821 47.1023 58.97 47.1128C58.97 47.1135 58.97 47.1135 58.9693 47.1135L53.6017 47.3858C53.5667 47.3872 53.531 47.3886 53.4953 47.3886ZM58.9133 43.5155C58.9105 43.5155 58.9077 43.5155 58.9049 43.5162L53.4197 43.7941C52.5748 43.8375 51.921 44.5606 51.9644 45.4062C51.9847 45.8136 52.1646 46.1902 52.4705 46.466C52.7764 46.7425 53.1796 46.8699 53.5758 46.8615L58.9441 46.5885L58.9434 46.5892C59.0932 46.5808 59.2087 46.4541 59.201 46.305L59.0666 43.6611C59.0645 43.6198 59.047 43.5827 59.0169 43.5554C58.9875 43.5295 58.9511 43.5155 58.9133 43.5155Z" fill="#2F2E41"/>
<path d="M53.9855 44.7863C53.8494 44.7933 53.7217 44.854 53.6304 44.9551C53.5391 45.0563 53.4917 45.1895 53.4986 45.3256C53.5056 45.4617 53.5663 45.5895 53.6674 45.6808C53.7686 45.7721 53.9018 45.8195 54.0379 45.8126C54.174 45.8056 54.3018 45.7449 54.3931 45.6438C54.4844 45.5426 54.5318 45.4093 54.5249 45.2732C54.5179 45.1372 54.4572 45.0094 54.3561 44.9181C54.2549 44.8268 54.1216 44.7794 53.9855 44.7863Z" fill="#FDFCEE"/>
<path d="M54.0106 46.0081C53.6375 46.0081 53.3253 45.7141 53.3057 45.3368C53.2959 45.1485 53.3603 44.9679 53.487 44.8279C53.6137 44.6879 53.7873 44.606 53.9756 44.5962C54.3501 44.5822 54.6959 44.8762 54.7169 45.2647C54.7365 45.6539 54.4362 45.9864 54.047 46.0067C54.0351 46.0074 54.0225 46.0081 54.0106 46.0081ZM54.0113 44.9812C54.0057 44.9812 54.0001 44.9812 53.9952 44.9812C53.9098 44.9861 53.8307 45.0232 53.7733 45.0869C53.7159 45.1506 53.6865 45.2325 53.6907 45.3179C53.6956 45.4033 53.7327 45.4824 53.7964 45.5398C53.8601 45.5972 53.9448 45.6203 54.0281 45.6224C54.1135 45.6175 54.1926 45.5804 54.25 45.5167C54.3074 45.453 54.3368 45.3711 54.3326 45.285C54.3228 45.1142 54.1807 44.9812 54.0113 44.9812Z" fill="#2F2E41"/>
<path d="M52.7133 36.2472L52.4907 35.4492L43.033 38.1414L53.9789 36.0645L54.5543 37.5569L43.1086 38.2723" fill="#5B5B5B"/>
<path d="M43.1079 38.5003C42.998 38.5003 42.9042 38.4212 42.8846 38.3141C42.8489 38.284 42.823 38.2427 42.8118 38.1944C42.7838 38.0754 42.8545 37.9564 42.9714 37.9228L52.4291 35.2306C52.4858 35.2138 52.5481 35.2208 52.6027 35.2509C52.6552 35.2803 52.6944 35.3293 52.7105 35.3874L52.8925 36.0391L53.9369 35.841C54.0482 35.8207 54.1518 35.8809 54.1917 35.9824L54.7671 37.4748C54.793 37.5427 54.7846 37.6183 54.7461 37.6799C54.7069 37.7408 54.6418 37.78 54.569 37.7835L43.1226 38.4982C43.1177 38.5003 43.1128 38.5003 43.1079 38.5003ZM53.8347 36.324L45.581 37.8899L54.2302 37.3495L53.8347 36.324ZM52.3325 35.7318L47.9652 36.9743L52.4424 36.1252L52.3325 35.7318Z" fill="#2F2E41"/>
<path d="M53.5032 49.5176C53.0636 49.5176 52.6283 49.6042 52.2222 49.7724C51.816 49.9406 51.447 50.1872 51.1362 50.498C50.8254 50.8088 50.5788 51.1779 50.4106 51.584C50.2423 51.9901 50.1558 52.4254 50.1558 52.865C50.1558 53.3046 50.2423 53.7398 50.4106 54.146C50.5788 54.5521 50.8254 54.9211 51.1362 55.2319C51.447 55.5428 51.816 55.7893 52.2222 55.9576C52.6283 56.1258 53.0636 56.2124 53.5032 56.2124C53.9427 56.2124 54.378 56.1258 54.7842 55.9576C55.1903 55.7893 55.5593 55.5428 55.8701 55.2319C56.181 54.9211 56.4275 54.5521 56.5958 54.146C56.764 53.7398 56.8506 53.3046 56.8506 52.865C56.8506 52.4254 56.764 51.9901 56.5958 51.584C56.4275 51.1779 56.181 50.8088 55.8701 50.498C55.5593 50.1872 55.1903 49.9406 54.7842 49.7724C54.378 49.6042 53.9427 49.5176 53.5032 49.5176Z" fill="#5B5B5B"/>
<path d="M53.5031 56.5614C51.4647 56.5614 49.8064 54.9031 49.8064 52.8647C49.8064 50.8263 51.4647 49.168 53.5031 49.168C55.5422 49.168 57.2005 50.8263 57.2005 52.8647C57.2005 54.9031 55.5422 56.5614 53.5031 56.5614ZM53.5031 49.868C51.8511 49.868 50.5064 51.2127 50.5064 52.8647C50.5064 54.5167 51.8511 55.8614 53.5031 55.8614C55.1558 55.8614 56.5005 54.5167 56.5005 52.8647C56.5005 51.2127 55.1558 49.868 53.5031 49.868Z" fill="#2F2E41"/>
<path d="M53.5031 50.6768C52.9228 50.6768 52.3662 50.9073 51.9559 51.3177C51.5455 51.728 51.3149 52.2846 51.3149 52.865C51.3149 53.4453 51.5455 54.0019 51.9559 54.4123C52.3662 54.8226 52.9228 55.0532 53.5031 55.0532C54.0835 55.0532 54.6401 54.8226 55.0504 54.4123C55.4608 54.0019 55.6913 53.4453 55.6913 52.865C55.6913 52.2846 55.4608 51.728 55.0504 51.3177C54.6401 50.9073 54.0835 50.6768 53.5031 50.6768Z" fill="#E3EEED"/>
<path d="M53.5031 55.2291C52.2004 55.2291 51.1399 54.1686 51.1399 52.8652C51.1399 51.5625 52.2004 50.502 53.5031 50.502C54.8065 50.502 55.867 51.5625 55.867 52.8652C55.867 54.1693 54.8065 55.2291 53.5031 55.2291ZM53.5031 50.852C52.3929 50.852 51.4899 51.755 51.4899 52.8652C51.4899 53.9754 52.3929 54.8791 53.5031 54.8791C54.6133 54.8791 55.517 53.9754 55.517 52.8652C55.517 51.755 54.6133 50.852 53.5031 50.852Z" fill="#2F2E41"/>
<path d="M59.0835 46.707C58.6439 46.707 58.2086 46.7936 57.8025 46.9618C57.3964 47.1301 57.0273 47.3766 56.7165 47.6875C56.4057 47.9983 56.1591 48.3673 55.9909 48.7734C55.8227 49.1796 55.7361 49.6148 55.7361 50.0544C55.7361 50.494 55.8227 50.9293 55.9909 51.3354C56.1591 51.7416 56.4057 52.1106 56.7165 52.4214C57.0273 52.7322 57.3964 52.9788 57.8025 53.147C58.2086 53.3152 58.6439 53.4018 59.0835 53.4018C59.5231 53.4018 59.9584 53.3152 60.3645 53.147C60.7706 52.9788 61.1396 52.7322 61.4505 52.4214C61.7613 52.1106 62.0079 51.7416 62.1761 51.3354C62.3443 50.9293 62.4309 50.494 62.4309 50.0544C62.4309 49.6148 62.3443 49.1796 62.1761 48.7734C62.0079 48.3673 61.7613 47.9983 61.4505 47.6875C61.1396 47.3766 60.7706 47.1301 60.3645 46.9618C59.9584 46.7936 59.5231 46.707 59.0835 46.707Z" fill="#5B5B5B"/>
<path d="M59.0834 53.7515C57.045 53.7515 55.3867 52.0932 55.3867 50.0541C55.3867 48.0157 57.045 46.3574 59.0834 46.3574C61.1225 46.3574 62.7808 48.0157 62.7808 50.0541C62.7808 52.0932 61.1225 53.7515 59.0834 53.7515ZM59.0834 47.0567C57.4314 47.0567 56.0867 48.4014 56.0867 50.0534C56.0867 51.7061 57.4314 53.0508 59.0834 53.0508C60.7361 53.0508 62.0808 51.7061 62.0808 50.0534C62.0808 48.4014 60.7361 47.0567 59.0834 47.0567Z" fill="#2F2E41"/>
<path d="M59.0835 47.8652C58.5031 47.8652 57.9465 48.0958 57.5362 48.5061C57.1258 48.9165 56.8953 49.4731 56.8953 50.0534C56.8953 50.6338 57.1258 51.1904 57.5362 51.6007C57.9465 52.0111 58.5031 52.2416 59.0835 52.2416C59.6638 52.2416 60.2204 52.0111 60.6308 51.6007C61.0411 51.1904 61.2717 50.6338 61.2717 50.0534C61.2717 49.4731 61.0411 48.9165 60.6308 48.5061C60.2204 48.0958 59.6638 47.8652 59.0835 47.8652Z" fill="#E3EEED"/>
<path d="M59.0834 52.4175C57.7807 52.4175 56.7202 51.357 56.7202 50.0536C56.7202 48.7509 57.7807 47.6904 59.0834 47.6904C60.3868 47.6904 61.4473 48.7509 61.4473 50.0536C61.4473 51.357 60.3868 52.4175 59.0834 52.4175ZM59.0834 48.0404C57.9732 48.0404 57.0702 48.9434 57.0702 50.0536C57.0702 51.1638 57.9732 52.0675 59.0834 52.0675C60.1936 52.0675 61.0973 51.1638 61.0973 50.0536C61.0973 48.9434 60.1936 48.0404 59.0834 48.0404Z" fill="#2F2E41"/>
<path d="M58.7466 50.2783C58.7809 50.6465 58.9447 50.8306 59.2394 50.8306C59.3633 50.8306 59.4627 50.7963 59.5369 50.727C59.6111 50.6577 59.6538 50.5583 59.665 50.4295C59.672 50.3469 59.7063 50.3056 59.7672 50.3056C59.8407 50.3056 59.8778 50.3469 59.8778 50.4295C59.8778 50.5947 59.8183 50.7333 59.6986 50.8446C59.5789 50.9559 59.4158 51.0119 59.2093 51.0119C58.7977 51.0119 58.5639 50.7676 58.5065 50.279L58.3742 50.2818C58.3168 50.2818 58.2881 50.2559 58.2881 50.2041C58.2881 50.1481 58.3154 50.1208 58.3686 50.1208H58.4953V50.0739C58.4953 50.02 58.496 49.9808 58.4981 49.9556L58.3742 49.9584C58.3168 49.9584 58.2881 49.9325 58.2881 49.88C58.2881 49.8226 58.3154 49.7939 58.3686 49.7939H58.3742L58.5142 49.7995C58.5877 49.3305 58.8229 49.0967 59.2198 49.0967C59.4081 49.0967 59.5558 49.1667 59.6615 49.3067C59.658 49.2997 59.6559 49.2794 59.6559 49.2472L59.6531 49.215C59.6531 49.208 59.6524 49.2024 59.6503 49.1989V49.1933C59.6503 49.1324 59.679 49.1016 59.7364 49.1016C59.7973 49.1016 59.8281 49.1394 59.8281 49.215C59.8281 49.2472 59.8246 49.2948 59.8169 49.3578C59.8099 49.4187 59.8064 49.4656 59.8064 49.4978C59.8064 49.53 59.8099 49.5776 59.8169 49.6406C59.8204 49.6819 59.8225 49.7099 59.8225 49.7239C59.8225 49.8044 59.7903 49.845 59.7252 49.845C59.6587 49.845 59.6251 49.8016 59.6251 49.7155C59.6251 49.5846 59.588 49.4789 59.5145 49.3991C59.441 49.3193 59.3423 49.2794 59.2184 49.2794C58.9398 49.2794 58.7823 49.4537 58.7445 49.8023L59.1295 49.7995C59.1925 49.7995 59.224 49.8254 59.224 49.8772C59.224 49.9332 59.1946 49.9605 59.1351 49.9605H59.1267L58.7333 49.9549V50.1194L59.1295 50.1222C59.1925 50.1222 59.224 50.1481 59.224 50.2006C59.224 50.258 59.1946 50.2867 59.1351 50.2867H59.1267L58.7466 50.2783Z" fill="#2F2E41"/>
<path d="M53.1663 53.0904C53.2006 53.4586 53.3644 53.6427 53.6591 53.6427C53.783 53.6427 53.8824 53.6084 53.9566 53.5391C54.0308 53.4698 54.0735 53.3704 54.0847 53.2416C54.0917 53.159 54.126 53.1177 54.1869 53.1177C54.2604 53.1177 54.2975 53.159 54.2975 53.2416C54.2975 53.4068 54.238 53.5454 54.1183 53.6567C53.9986 53.768 53.8355 53.824 53.629 53.824C53.2174 53.824 52.9836 53.5797 52.9262 53.0911L52.7939 53.0939C52.7365 53.0939 52.7078 53.068 52.7078 53.0162C52.7078 52.9602 52.7351 52.9329 52.7883 52.9329H52.915V52.8874C52.915 52.8335 52.9157 52.7943 52.9178 52.7691L52.7939 52.7719C52.7365 52.7719 52.7078 52.746 52.7078 52.6935C52.7078 52.6361 52.7351 52.6074 52.7883 52.6074H52.7939L52.9339 52.613C53.0074 52.144 53.2426 51.9102 53.6395 51.9102C53.8278 51.9102 53.9755 51.9802 54.0812 52.1202C54.0777 52.1132 54.0756 52.0929 54.0756 52.0607L54.0728 52.0285C54.0728 52.0215 54.0721 52.0159 54.07 52.0124V52.0068C54.07 51.9459 54.0987 51.9151 54.1561 51.9151C54.217 51.9151 54.2478 51.9529 54.2478 52.0285C54.2478 52.0607 54.2443 52.1083 54.2366 52.1713C54.2296 52.2322 54.2261 52.2791 54.2261 52.3113C54.2261 52.3435 54.2296 52.3911 54.2366 52.4541C54.2401 52.4954 54.2422 52.5234 54.2422 52.5374C54.2422 52.6179 54.21 52.6585 54.1449 52.6585C54.0784 52.6585 54.0455 52.6151 54.0455 52.529C54.0455 52.3981 54.0084 52.2924 53.9349 52.2126C53.8614 52.1328 53.7627 52.0929 53.6388 52.0929C53.3602 52.0929 53.2027 52.2672 53.1649 52.6158L53.5499 52.613C53.6129 52.613 53.6444 52.6389 53.6444 52.6907C53.6444 52.7467 53.615 52.774 53.5555 52.774H53.5471L53.1537 52.7684V52.9329L53.5499 52.9357C53.6129 52.9357 53.6444 52.9616 53.6444 53.0141C53.6444 53.0715 53.615 53.1002 53.5555 53.1002H53.5471L53.1663 53.0904Z" fill="#2F2E41"/>
</svg>
