<svg width="46" height="45" viewBox="0 0 46 45" fill="none" xmlns="http://www.w3.org/2000/svg">
<path d="M23.7031 2.10938C21.7646 2.10938 20.1875 3.68648 20.1875 5.625C20.1875 7.3226 21.3975 8.74237 23 9.06921V11.2857C19.5327 11.4676 16.4116 12.9649 14.1368 15.3026L9.87134 11.57C10.1632 11.0578 10.3438 10.4742 10.3438 9.84375C10.3438 7.90523 8.76664 6.32812 6.82812 6.32812C4.88961 6.32812 3.3125 7.90523 3.3125 9.84375C3.3125 11.7823 4.88961 13.3594 6.82812 13.3594C7.62683 13.3594 8.35477 13.0806 8.94574 12.6302L13.2139 16.3641C11.4228 18.6377 10.3438 21.4969 10.3438 24.6094C10.3438 27.9174 11.5586 30.9419 13.5573 33.2776L9.56097 36.5144C8.98641 36.1054 8.28868 35.8594 7.53125 35.8594C5.59273 35.8594 4.01562 37.4365 4.01562 39.375C4.01562 41.3135 5.59273 42.8906 7.53125 42.8906C9.46977 42.8906 11.0469 41.3135 11.0469 39.375C11.0469 38.7033 10.8476 38.0815 10.5195 37.5471L14.5323 34.2979C16.9276 36.5665 20.1513 37.9688 23.7031 37.9688C27.0181 37.9688 30.0474 36.7477 32.3851 34.7415L34.8872 37.3686C34.4885 37.9387 34.25 38.6281 34.25 39.375C34.25 41.3135 35.8271 42.8906 37.7656 42.8906C39.7041 42.8906 41.2812 41.3135 41.2812 39.375C41.2812 37.4365 39.7041 35.8594 37.7656 35.8594C37.0821 35.8594 36.4493 36.0643 35.9089 36.4032L33.4013 33.7706C35.6643 31.3762 37.0625 28.1563 37.0625 24.6094C37.0625 21.1786 35.7513 18.0567 33.6183 15.6885L37.2355 12.0699C37.7916 12.4387 38.4561 12.6562 39.1719 12.6562C41.1104 12.6562 42.6875 11.0791 42.6875 9.14062C42.6875 7.20211 41.1104 5.625 39.1719 5.625C37.2334 5.625 35.6562 7.20211 35.6562 9.14062C35.6562 9.85572 35.8731 10.5199 36.2413 11.0756L32.624 14.6942C30.4197 12.7088 27.5592 11.4511 24.4062 11.2857V9.06921C26.0087 8.74237 27.2188 7.3226 27.2188 5.625C27.2188 3.68648 25.6416 2.10938 23.7031 2.10938ZM23.7031 3.51562C24.8661 3.51562 25.8125 4.46203 25.8125 5.625C25.8125 6.78797 24.8661 7.73438 23.7031 7.73438C22.5402 7.73438 21.5938 6.78797 21.5938 5.625C21.5938 4.46203 22.5402 3.51562 23.7031 3.51562ZM39.1719 7.03125C40.3348 7.03125 41.2812 7.97766 41.2812 9.14062C41.2812 10.3036 40.3348 11.25 39.1719 11.25C38.0089 11.25 37.0625 10.3036 37.0625 9.14062C37.0625 7.97766 38.0089 7.03125 39.1719 7.03125ZM6.82812 7.73438C7.99109 7.73438 8.9375 8.68078 8.9375 9.84375C8.9375 11.0067 7.99109 11.9531 6.82812 11.9531C5.66516 11.9531 4.71875 11.0067 4.71875 9.84375C4.71875 8.68078 5.66516 7.73438 6.82812 7.73438ZM23.7031 12.6562C30.2942 12.6562 35.6562 18.0183 35.6562 24.6094C35.6562 31.2005 30.2942 36.5625 23.7031 36.5625C17.112 36.5625 11.75 31.2005 11.75 24.6094C11.75 18.0183 17.112 12.6562 23.7031 12.6562ZM23.7031 14.7656C20.8027 14.7656 18.7812 17.73 18.7812 20.3906C18.7812 21.6537 19.0737 22.9703 19.5942 24.1191L17.7169 25.41C16.3831 26.1068 15.2656 27.9795 15.2656 29.5312V30.2344C15.2656 30.9966 15.9097 31.6406 16.6719 31.6406H30.7344C31.4966 31.6406 32.1406 30.9966 32.1406 30.2344V29.5312C32.1406 27.983 31.0238 26.1117 29.6907 25.4128L27.8161 24.1095C28.334 22.9629 28.625 21.6502 28.625 20.3906C28.625 17.73 26.6035 14.7656 23.7031 14.7656ZM23.7031 16.1719C25.7752 16.1719 27.2188 18.3952 27.2188 20.3906C27.2188 22.9922 25.6831 26.0156 23.7031 26.0156C21.7231 26.0156 20.1875 22.9922 20.1875 20.3906C20.1875 18.3952 21.631 16.1719 23.7031 16.1719ZM27.1199 25.3386L28.9271 26.5938L29.0123 26.6446C29.8975 27.0883 30.7344 28.4913 30.7344 29.5312V30.2344H16.6719V29.5312C16.6719 28.4899 17.5081 27.0869 18.3926 26.6446L20.2905 25.3455C21.1492 26.5804 22.325 27.4219 23.7031 27.4219C25.0837 27.4219 26.2608 26.5771 27.1199 25.3386ZM7.53125 37.2656C8.69422 37.2656 9.64062 38.212 9.64062 39.375C9.64062 40.538 8.69422 41.4844 7.53125 41.4844C6.36828 41.4844 5.42188 40.538 5.42188 39.375C5.42188 38.212 6.36828 37.2656 7.53125 37.2656ZM37.7656 37.2656C38.9286 37.2656 39.875 38.212 39.875 39.375C39.875 40.538 38.9286 41.4844 37.7656 41.4844C36.6027 41.4844 35.6562 40.538 35.6562 39.375C35.6562 38.212 36.6027 37.2656 37.7656 37.2656Z" fill="#5B5B5B"/>
</svg>
