<svg width="45" height="45" viewBox="0 0 45 45" fill="none" xmlns="http://www.w3.org/2000/svg">
<path d="M20.925 5.84961C13.3503 5.84961 7.19995 12 7.19995 19.5746C7.19995 20.2877 7.25718 20.9864 7.36167 21.6682C7.36933 21.7163 7.38476 21.7629 7.40737 21.8062C7.7229 23.7351 8.4191 25.5377 9.45259 27.1077C9.45288 27.1077 9.45317 27.1077 9.45347 27.1077C10.8919 29.2913 11.7 31.82 11.7 34.4237V39.1496C11.6991 39.2092 11.7101 39.2684 11.7324 39.3238C11.7546 39.3791 11.7876 39.4295 11.8295 39.4719C11.8713 39.5144 11.9212 39.5481 11.9763 39.5711C12.0313 39.5942 12.0903 39.606 12.15 39.606C12.2096 39.606 12.2686 39.5942 12.3236 39.5711C12.3787 39.5481 12.4286 39.5144 12.4704 39.4719C12.5123 39.4295 12.5453 39.3791 12.5675 39.3238C12.5898 39.2684 12.6008 39.2092 12.6 39.1496V34.4237C12.6 31.6337 11.7338 28.9338 10.2049 26.6129C9.21664 25.1115 8.54354 23.3877 8.25991 21.5319C8.25684 21.512 8.25244 21.4924 8.24673 21.473C8.1542 20.8518 8.09995 20.2197 8.09995 19.5746C8.09995 12.4864 13.8368 6.74961 20.925 6.74961C27.4105 6.74961 32.7609 11.5571 33.6251 17.8001C33.6625 18.0694 33.7449 18.337 33.8818 18.585C33.8841 18.5891 33.8864 18.5932 33.8888 18.5973L36.8173 23.5253C37.0009 23.8343 36.8798 24.2159 36.551 24.362L33.5671 25.6883C33.4876 25.7237 33.42 25.7813 33.3726 25.8543C33.3252 25.9274 33.2999 26.0126 33.2999 26.0996V29.6996C33.2999 31.9418 31.4921 33.7496 29.25 33.7496H26.7908H26.775H26.55H22.725C22.6951 33.7492 22.6655 33.7547 22.6379 33.7658C22.6102 33.7769 22.585 33.7934 22.5638 33.8144C22.5426 33.8353 22.5257 33.8603 22.5142 33.8878C22.5027 33.9153 22.4967 33.9448 22.4967 33.9746C22.4967 34.0044 22.5027 34.0339 22.5142 34.0615C22.5257 34.089 22.5426 34.1139 22.5638 34.1348C22.585 34.1558 22.6102 34.1723 22.6379 34.1834C22.6655 34.1945 22.6951 34.2 22.725 34.1996H26.1V39.1496C26.0991 39.2092 26.1101 39.2684 26.1324 39.3238C26.1546 39.3791 26.1876 39.4295 26.2295 39.4719C26.2713 39.5144 26.3212 39.5481 26.3763 39.5711C26.4313 39.5942 26.4903 39.606 26.55 39.606C26.6096 39.606 26.6686 39.5942 26.7236 39.5711C26.7787 39.5481 26.8286 39.5144 26.8704 39.4719C26.9123 39.4295 26.9453 39.3791 26.9675 39.3238C26.9898 39.2684 27.0008 39.2092 27 39.1496V34.6496H29.25C31.9785 34.6496 34.2 32.4281 34.2 29.6996V26.3923L36.9166 25.1847C37.7237 24.8259 38.0417 23.8249 37.5908 23.0656L34.6702 18.1499V18.149C34.5921 18.0075 34.541 17.8475 34.5172 17.6762C33.5923 10.9951 27.8557 5.84961 20.925 5.84961ZM19.8017 11.8288C19.7775 11.8292 19.7534 11.8316 19.7296 11.8358C18.6734 12.0345 17.6976 12.4545 16.8451 13.0364C16.7935 13.0716 16.7499 13.117 16.7169 13.17C16.6838 13.2229 16.6622 13.2821 16.6532 13.3438C16.6443 13.4056 16.6483 13.4685 16.665 13.5286C16.6817 13.5887 16.7107 13.6447 16.7501 13.693C17.042 14.0492 17.0284 14.562 16.6957 14.8944C16.3627 15.2273 15.8496 15.2414 15.4933 14.9489C15.445 14.9093 15.389 14.8801 15.3289 14.8633C15.2687 14.8464 15.2057 14.8423 15.1439 14.8512C15.082 14.86 15.0227 14.8816 14.9697 14.9146C14.9167 14.9477 14.8711 14.9914 14.8359 15.043C14.2531 15.8955 13.8332 16.8715 13.6344 17.9284C13.6228 17.9899 13.6241 18.0531 13.6382 18.114C13.6524 18.175 13.6791 18.2323 13.7166 18.2823C13.7542 18.3323 13.8018 18.374 13.8563 18.4046C13.9108 18.4352 13.9712 18.4542 14.0334 18.4602C14.4947 18.5041 14.85 18.877 14.85 19.3496C14.85 19.8212 14.4964 20.1946 14.037 20.2391C13.9748 20.2451 13.9145 20.264 13.8601 20.2945C13.8056 20.3251 13.7581 20.3667 13.7205 20.4166C13.683 20.4665 13.6563 20.5237 13.6421 20.5846C13.6278 20.6454 13.6264 20.7085 13.6379 20.7699C13.8372 21.8234 14.249 22.8038 14.8333 23.658C14.8685 23.7095 14.9142 23.7532 14.9672 23.7861C15.0203 23.819 15.0796 23.8406 15.1414 23.8493C15.2033 23.8581 15.2663 23.8539 15.3264 23.837C15.3865 23.8201 15.4425 23.7909 15.4907 23.7512C15.8476 23.4572 16.3617 23.4705 16.6948 23.8039C17.0277 24.1368 17.0412 24.6499 16.7493 25.0063C16.7098 25.0546 16.6808 25.1105 16.6641 25.1706C16.6474 25.2307 16.6434 25.2937 16.6524 25.3554C16.6613 25.4171 16.683 25.4763 16.716 25.5293C16.749 25.5822 16.7927 25.6276 16.8442 25.6628C17.6972 26.2447 18.6735 26.6638 19.7296 26.8625C19.791 26.874 19.8542 26.8726 19.915 26.8584C19.9758 26.8442 20.033 26.8174 20.0829 26.7799C20.1329 26.7424 20.1745 26.6949 20.205 26.6404C20.2356 26.5859 20.2545 26.5257 20.2605 26.4635C20.305 26.0034 20.678 25.6496 21.15 25.6496C21.6215 25.6496 21.9949 26.0031 22.0394 26.4626C22.0454 26.5248 22.0643 26.585 22.0949 26.6395C22.1254 26.694 22.167 26.7415 22.217 26.779C22.2669 26.8166 22.3241 26.8433 22.3849 26.8575C22.4457 26.8717 22.5089 26.8731 22.5703 26.8616C23.6238 26.6624 24.6042 26.2506 25.4583 25.6663C25.51 25.631 25.5538 25.5854 25.5868 25.5322C25.6198 25.4791 25.6414 25.4197 25.6502 25.3577C25.6589 25.2958 25.6547 25.2327 25.6377 25.1725C25.6207 25.1122 25.5914 25.0562 25.5515 25.008C25.2578 24.6517 25.2709 24.1378 25.6042 23.8048C25.9372 23.4719 26.4502 23.4583 26.8066 23.7503C26.8549 23.7898 26.9109 23.8188 26.971 23.8354C27.0311 23.8521 27.094 23.8561 27.1557 23.8472C27.2175 23.8383 27.2767 23.8166 27.3296 23.7836C27.3825 23.7506 27.428 23.7069 27.4631 23.6554C28.045 22.8023 28.4642 21.826 28.6628 20.7699C28.6743 20.7085 28.6729 20.6454 28.6587 20.5846C28.6445 20.5237 28.6178 20.4665 28.5802 20.4166C28.5427 20.3667 28.4952 20.3251 28.4407 20.2945C28.3862 20.264 28.326 20.2451 28.2638 20.2391C27.8038 20.1946 27.45 19.8216 27.45 19.3496C27.45 18.878 27.8035 18.5046 28.2629 18.4602C28.3251 18.4541 28.3854 18.4353 28.4398 18.4047C28.4943 18.3741 28.5418 18.3325 28.5794 18.2826C28.6169 18.2327 28.6436 18.1755 28.6579 18.1146C28.6721 18.0538 28.6735 17.9907 28.662 17.9293C28.4627 16.8758 28.0509 15.8954 27.4667 15.0412C27.4314 14.9897 27.3857 14.9461 27.3327 14.9131C27.2796 14.8802 27.2203 14.8586 27.1585 14.8499C27.0966 14.8411 27.0336 14.8453 26.9735 14.8622C26.9134 14.8791 26.8574 14.9083 26.8092 14.948C26.4523 15.242 25.9382 15.2287 25.6051 14.8953C25.2722 14.5624 25.2587 14.0494 25.5506 13.693C25.5901 13.6447 25.6191 13.5887 25.6358 13.5286C25.6525 13.4685 25.6565 13.4056 25.6475 13.3438C25.6386 13.2821 25.617 13.2229 25.5839 13.17C25.5509 13.117 25.5072 13.0716 25.4557 13.0364C24.6027 12.4545 23.6264 12.0354 22.5703 11.8367C22.5089 11.8252 22.4457 11.8266 22.3849 11.8408C22.3241 11.8551 22.2669 11.8818 22.217 11.9193C22.167 11.9568 22.1254 12.0044 22.0949 12.0588C22.0643 12.1133 22.0454 12.1736 22.0394 12.2357C21.9949 12.6958 21.6219 13.0496 21.15 13.0496C20.678 13.0496 20.3056 12.6962 20.2614 12.2357C20.2505 12.1223 20.197 12.0173 20.1117 11.9417C20.0264 11.8662 19.9156 11.8259 19.8017 11.8288ZM19.5134 12.836C19.7851 13.4832 20.4067 13.9496 21.15 13.9496C21.8933 13.9496 22.5146 13.483 22.7865 12.836C23.4336 12.9993 24.0399 13.2534 24.5988 13.5893C24.3344 14.2385 24.4437 15.0065 24.9688 15.5316C25.4942 16.0575 26.263 16.1656 26.9129 15.8999C27.2476 16.458 27.5006 17.0654 27.6635 17.714C27.0165 17.9857 26.55 18.6064 26.55 19.3496C26.55 20.0929 27.0166 20.7142 27.6635 20.9861C27.5003 21.6332 27.2462 22.2395 26.9103 22.7984C26.2611 22.5341 25.493 22.6433 24.9679 23.1685C24.4417 23.6942 24.3333 24.4634 24.5997 25.1135C24.0417 25.4481 23.4341 25.7003 22.7856 25.8632C22.5138 25.2162 21.8932 24.7496 21.15 24.7496C20.4066 24.7496 19.7854 25.2163 19.5134 25.8632C18.8663 25.6999 18.26 25.4458 17.7011 25.11C17.9655 24.4607 17.8562 23.6927 17.3311 23.1676C16.8057 22.6417 16.0369 22.5336 15.387 22.7993C15.0523 22.2412 14.7993 21.6339 14.6364 20.9853C15.2834 20.7135 15.75 20.0928 15.75 19.3496C15.75 18.6052 15.2822 17.9836 14.6337 17.7122C14.7972 17.0651 15.0522 16.4594 15.3887 15.9008C16.0382 16.1656 16.8069 16.0559 17.332 15.5308C17.8572 15.006 17.9663 14.2385 17.702 13.5893C18.2605 13.2534 18.8666 12.9994 19.5134 12.836ZM20.91 15.761C20.7507 15.7714 20.5902 15.7893 20.4301 15.8217C20.4012 15.8276 20.3736 15.8391 20.3491 15.8556C20.3246 15.8722 20.3036 15.8933 20.2873 15.918C20.2709 15.9426 20.2596 15.9703 20.254 15.9993C20.2483 16.0283 20.2485 16.0581 20.2543 16.0871C20.2602 16.1161 20.2718 16.1436 20.2883 16.1681C20.3048 16.1926 20.326 16.2136 20.3507 16.23C20.3753 16.2463 20.4029 16.2576 20.4319 16.2633C20.461 16.2689 20.4908 16.2688 20.5198 16.2629C20.6531 16.2359 20.7941 16.2196 20.9399 16.2102C20.9994 16.2062 21.0549 16.1787 21.0942 16.1338C21.1335 16.0889 21.1533 16.0302 21.1493 15.9707C21.1454 15.9111 21.118 15.8556 21.0731 15.8163C21.0282 15.777 20.9695 15.7571 20.91 15.761ZM21.825 15.8173C21.7691 15.8172 21.7152 15.8379 21.6738 15.8753C21.6323 15.9127 21.6063 15.9642 21.6007 16.0198C21.5951 16.0753 21.6104 16.131 21.6435 16.1759C21.6767 16.2209 21.7254 16.2519 21.7801 16.2629C21.9128 16.2898 22.025 16.3613 22.151 16.4044L21.7863 17.6639C21.5904 17.5955 21.3797 17.5496 21.15 17.5496C20.5875 17.5496 20.1083 17.7767 19.8008 18.1227C19.7504 18.1794 19.7107 18.2421 19.669 18.3037L18.3665 17.9267C18.6619 17.3512 19.1088 16.8668 19.6804 16.5644C19.726 16.5411 19.7624 16.503 19.7834 16.4563C19.8045 16.4096 19.8089 16.3572 19.7961 16.3076C19.7833 16.258 19.754 16.2143 19.713 16.1836C19.672 16.153 19.6217 16.1372 19.5706 16.139C19.5351 16.1402 19.5005 16.1499 19.4695 16.1671C18.7675 16.5384 18.2322 17.1505 17.9015 17.8757C17.8658 17.8995 17.8377 17.933 17.8204 17.9722C17.8031 18.0114 17.7974 18.0548 17.804 18.0972C17.6558 18.4909 17.55 18.9045 17.55 19.3496C17.55 19.4604 17.6165 19.5481 17.6264 19.6563C17.6046 19.6834 17.5893 19.7151 17.5818 19.749C17.5743 19.7829 17.5747 19.818 17.5831 19.8518C17.5914 19.8855 17.6074 19.9168 17.6299 19.9433C17.6524 19.9697 17.6807 19.9907 17.7125 20.0044C17.7812 20.3549 17.8055 20.7241 17.9674 21.0301C17.9807 21.0572 17.9993 21.0814 18.0221 21.1012C18.0448 21.1209 18.0714 21.1359 18.1001 21.1453C18.1288 21.1546 18.1591 21.158 18.1892 21.1554C18.2192 21.1528 18.2485 21.1441 18.2751 21.13C18.3018 21.1158 18.3253 21.0965 18.3443 21.073C18.3633 21.0496 18.3775 21.0226 18.3858 20.9936C18.3942 20.9646 18.3966 20.9342 18.393 20.9042C18.3894 20.8742 18.3797 20.8453 18.3647 20.8191C18.2263 20.5576 18.2083 20.242 18.1476 19.9437L19.3746 19.6405C19.4249 19.9791 19.5616 20.3074 19.8008 20.5766C20.0758 20.8859 20.4922 21.0902 20.9786 21.132L21.3073 22.4618C21.2513 22.4648 21.2067 22.4996 21.15 22.4996C20.4392 22.4996 19.7877 22.2621 19.2603 21.865C19.2367 21.8468 19.2098 21.8334 19.181 21.8256C19.1522 21.8178 19.1222 21.8159 19.0926 21.8198C19.0631 21.8238 19.0346 21.8336 19.0088 21.8486C18.9831 21.8637 18.9606 21.8837 18.9427 21.9075C18.9247 21.9313 18.9117 21.9585 18.9044 21.9874C18.897 22.0163 18.8955 22.0463 18.8998 22.0758C18.9042 22.1053 18.9144 22.1337 18.9298 22.1592C18.9452 22.1847 18.9655 22.2069 18.9896 22.2245C19.5908 22.6771 20.3388 22.9496 21.15 22.9496C21.2611 22.9496 21.3499 22.8848 21.4584 22.8749C21.4852 22.896 21.5163 22.9107 21.5495 22.918C21.5828 22.9252 21.6172 22.9249 21.6503 22.9169C21.6834 22.909 21.7142 22.8936 21.7405 22.872C21.7668 22.8505 21.7879 22.8232 21.8021 22.7923C22.3028 22.695 22.7514 22.525 23.1547 22.243C23.1895 22.2519 23.2259 22.2524 23.2609 22.2444C23.2959 22.2365 23.3285 22.2202 23.3559 22.1971C23.3834 22.1739 23.4049 22.1446 23.4186 22.1114C23.4324 22.0783 23.4381 22.0423 23.4351 22.0065C23.631 21.8374 23.8691 21.7169 24.0249 21.51C24.0431 21.4864 24.0565 21.4594 24.0643 21.4306C24.072 21.4019 24.074 21.3718 24.0701 21.3423C24.0661 21.3127 24.0563 21.2842 24.0413 21.2585C24.0262 21.2328 24.0062 21.2103 23.9824 21.1923C23.9586 21.1744 23.9314 21.1614 23.9025 21.154C23.8736 21.1467 23.8436 21.1451 23.8141 21.1495C23.7846 21.1539 23.7562 21.164 23.7307 21.1795C23.7052 21.1949 23.683 21.2152 23.6654 21.2393C23.5341 21.4136 23.3331 21.5139 23.1697 21.6576L22.3022 20.7541C22.3718 20.6981 22.4411 20.6418 22.4991 20.5766C22.8065 20.2307 22.95 19.7871 22.95 19.3496C22.95 19.0923 22.8943 18.8351 22.7909 18.5946L23.7603 17.663C24.0427 18.1001 24.253 18.5888 24.2894 19.1396C24.2934 19.1991 24.3209 19.2546 24.3658 19.2939C24.4107 19.3331 24.4694 19.353 24.5289 19.349C24.5884 19.345 24.6439 19.3176 24.6833 19.2727C24.7226 19.2279 24.7424 19.1692 24.7385 19.1097C24.6934 18.4266 24.4244 17.8188 24.0512 17.2921C24.0521 17.2482 24.04 17.2049 24.0166 17.1678C23.9932 17.1306 23.9594 17.1011 23.9194 17.0829C23.5745 16.6606 23.1323 16.343 22.6309 16.1126C22.605 16.0685 22.5649 16.0346 22.5171 16.0164C22.4693 15.9982 22.4168 15.9968 22.3681 16.0124C22.2004 15.9508 22.0483 15.8579 21.8698 15.8217C21.855 15.8187 21.84 15.8172 21.825 15.8173ZM22.5729 16.5652C22.9285 16.7475 23.2551 16.9757 23.516 17.2736L22.5536 18.1982C22.5341 18.1737 22.5201 18.1463 22.4991 18.1227C22.4125 18.0252 22.3095 17.9404 22.1976 17.8643L22.5729 16.5652ZM18.1828 18.3424L19.4572 18.7115C19.4042 18.8631 19.3777 19.0206 19.364 19.1791L18.0386 19.5069C18.0356 19.4508 18 19.4065 18 19.3496C18 18.994 18.0743 18.6608 18.1828 18.3424ZM21.15 18.4496C21.4875 18.4496 21.6833 18.56 21.8258 18.7203C21.9684 18.8807 22.05 19.1121 22.05 19.3496C22.05 19.5871 21.9684 19.8186 21.8258 19.9789C21.6833 20.1392 21.4875 20.2496 21.15 20.2496C20.8125 20.2496 20.6166 20.1392 20.4741 19.9789C20.3315 19.8186 20.25 19.5871 20.25 19.3496C20.25 19.1121 20.3315 18.8807 20.4741 18.7203C20.6166 18.56 20.8125 18.4496 21.15 18.4496ZM21.9102 20.9958L22.8251 21.9477C22.5002 22.1596 22.1385 22.2766 21.745 22.3563L21.44 21.1197C21.6066 21.0952 21.7659 21.058 21.9102 20.9958ZM20.925 33.7496C20.8951 33.7492 20.8655 33.7547 20.8379 33.7658C20.8102 33.7769 20.785 33.7934 20.7638 33.8144C20.7425 33.8353 20.7257 33.8603 20.7142 33.8878C20.7027 33.9153 20.6967 33.9448 20.6967 33.9746C20.6967 34.0044 20.7027 34.0339 20.7142 34.0615C20.7257 34.089 20.7425 34.1139 20.7638 34.1348C20.785 34.1558 20.8102 34.1723 20.8379 34.1834C20.8655 34.1945 20.8951 34.2 20.925 34.1996H21.825C21.8548 34.2 21.8844 34.1945 21.912 34.1834C21.9397 34.1723 21.9649 34.1558 21.9861 34.1348C22.0074 34.1139 22.0242 34.089 22.0357 34.0615C22.0472 34.0339 22.0532 34.0044 22.0532 33.9746C22.0532 33.9448 22.0472 33.9153 22.0357 33.8878C22.0242 33.8603 22.0074 33.8353 21.9861 33.8144C21.9649 33.7934 21.9397 33.7769 21.912 33.7658C21.8844 33.7547 21.8548 33.7492 21.825 33.7496H20.925Z" fill="#5B5B5B"/>
</svg>
