<svg width="18" height="16" viewBox="0 0 18 16" fill="none" xmlns="http://www.w3.org/2000/svg">
<path d="M10.25 0.5C7.66536 0.5 5.54486 1.01874 4.02686 1.79883C2.50886 2.57891 1.5 3.63684 1.5 4.875C1.5 5.95139 1.88279 6.7253 2.20801 7.29443C2.53323 7.86357 2.75 8.20833 2.75 8.625C2.75 8.90317 2.69082 8.99267 2.54004 9.14502C2.38926 9.29737 2.11473 9.46701 1.7832 9.68457C1.45168 9.90213 1.06003 10.1789 0.75293 10.6172C0.445826 11.0555 0.25 11.6458 0.25 12.375C0.25 14.0862 1.63727 15.5 3.375 15.5C4.24015 15.5 4.89102 15.1515 5.32324 14.8335L9.17822 13.5469L9.27832 13.4492L16.981 5.95898L16.9834 5.95654C17.469 5.47097 17.7744 4.88714 17.7744 4.26465C17.7744 3.64216 17.469 3.05833 16.9834 2.57275C16.4978 2.08718 15.914 1.7793 15.2915 1.7793C14.669 1.7793 14.0852 2.08718 13.5996 2.57275L13.6045 2.56543L5.79932 10.1582L4.57373 13.835C4.305 14.0371 3.92169 14.25 3.375 14.25C2.30023 14.25 1.5 13.4263 1.5 12.375C1.5 11.8542 1.61667 11.5656 1.77832 11.335C1.93997 11.1043 2.17332 10.9221 2.4668 10.7295C2.76027 10.5369 3.11074 10.3452 3.42871 10.0239C3.74668 9.70265 4 9.2062 4 8.625C4 7.79167 3.59177 7.19893 3.29199 6.67432C2.99221 6.1497 2.75 5.67361 2.75 4.875C2.75 4.39441 3.30364 3.57734 4.59814 2.91211C5.89264 2.24688 7.83464 1.75 10.25 1.75V0.5ZM13.4678 4.44531L15.0815 6.05908L8.51172 12.4507L6.08252 13.2612L6.88818 10.8418L13.4678 4.44531Z" fill="#212838"/>
</svg>
