<svg width="45" height="46" viewBox="0 0 45 46" fill="none" xmlns="http://www.w3.org/2000/svg">
<path d="M41.25 4.25L31.311 5.75146L34.2041 8.64453L28.4583 14.3904L25.4407 11.5632L17.7979 19.3965L15.0146 16.6133L6.19263 25.2559L8.81836 27.9329L14.9854 21.8867L17.8271 24.7285L25.5579 16.811L28.5425 19.6089L36.8555 11.2959L39.7485 14.189L41.25 4.25ZM35.625 19.25V39.875H39.375V19.25H35.625ZM28.125 23V39.875H31.875V23H28.125ZM20.625 26.75V39.875H24.375V26.75H20.625ZM13.125 30.5V39.875H16.875V30.5H13.125ZM5.625 34.25V39.875H9.375V34.25H5.625Z" fill="#5B5B5B"/>
</svg>
