<svg width="40" height="40" viewBox="0 0 40 40" fill="none" xmlns="http://www.w3.org/2000/svg">
<rect width="40" height="40" rx="4" fill="#F2F4F8"/>
<path d="M9.91996 9.91992C9.39052 9.91992 8.95996 10.3505 8.95996 10.8799V24.7999C8.95996 25.3294 9.39052 25.7599 9.91996 25.7599H13.759C14.0936 25.6178 14.4204 25.4921 14.72 25.3774C14.9326 25.2963 15.1939 25.1962 15.4531 25.0887C14.6548 24.8972 13.9133 24.528 13.2725 23.6909C12.8817 23.1797 12.8781 22.4706 13.2631 21.9546C13.2703 21.945 13.2761 21.93 13.2828 21.9199H9.91996V10.8799H30.08L30.0809 22.3999H30.08V21.9199H26.824C27.2119 22.4407 27.207 23.1664 26.7846 23.6843C26.116 24.5041 25.3922 24.8889 24.6031 25.0924C24.8623 25.2009 25.1178 25.3001 25.3175 25.3774C25.6127 25.4921 25.9355 25.6188 26.2653 25.7609H30.08C30.6094 25.7609 31.04 25.3303 31.04 24.8009V10.8799C31.04 10.3505 30.6094 9.91992 30.08 9.91992H9.91996ZM20.4293 12.3199C15.4527 12.3199 15.0577 16.3447 14.7687 19.2827C14.6372 20.62 14.5133 21.8832 14.0318 22.5293C13.9037 22.7011 13.9046 22.9378 14.0346 23.1077C14.819 24.133 15.7701 24.2255 17.0862 24.3546C17.2038 24.3661 17.3256 24.3791 17.4528 24.3921C17.4475 24.5951 17.4395 24.7598 17.4275 24.8712C17.1582 25.4731 16.0932 25.8801 15.0631 26.2737C13.4133 26.9044 11.36 27.6887 11.36 29.7762C11.36 30.0416 11.575 30.2562 11.84 30.2562H28.16C28.4254 30.2562 28.64 30.0416 28.64 29.7762C28.64 27.6954 26.6055 26.9068 24.9706 26.2727C23.8992 25.8571 22.8856 25.463 22.5846 24.8515C22.5837 24.6696 22.5801 24.5215 22.5762 24.4005L22.6746 24.3912C24.1583 24.2673 25.1383 24.1851 26.0412 23.0777C26.1972 22.8862 26.1827 22.6074 26.0075 22.4337C25.5025 21.933 25.4706 20.6894 25.4384 19.3737C25.375 16.8148 25.2892 13.3324 21.1568 13.174L20.8578 12.5834C20.7762 12.4216 20.6103 12.3199 20.4293 12.3199ZM27.68 23.3599H28.64V24.3199H27.68V23.3599Z" fill="#363F52"/>
</svg>
