<svg width="40" height="40" viewBox="0 0 40 40" fill="none" xmlns="http://www.w3.org/2000/svg">
<rect width="40" height="40" rx="4" fill="#F4F3FF"/>
<path d="M19.9849 10.5001C19.7248 10.504 19.4765 10.6091 19.2926 10.7931L16.7926 13.2931C16.6966 13.3852 16.62 13.4956 16.5672 13.6177C16.5144 13.7398 16.4865 13.8713 16.4852 14.0043C16.4838 14.1374 16.509 14.2693 16.5593 14.3925C16.6096 14.5157 16.6839 14.6276 16.778 14.7217C16.8721 14.8158 16.984 14.8901 17.1072 14.9404C17.2304 14.9907 17.3623 15.0159 17.4954 15.0145C17.6284 15.0132 17.7599 14.9853 17.882 14.9325C18.0041 14.8797 18.1145 14.8031 18.2066 14.7071L18.9996 13.9142V28.5001C18.9977 28.6326 19.0222 28.7642 19.0716 28.8871C19.121 29.0101 19.1944 29.122 19.2874 29.2164C19.3805 29.3108 19.4914 29.3857 19.6136 29.4369C19.7359 29.488 19.8671 29.5143 19.9996 29.5143C20.1321 29.5143 20.2633 29.488 20.3856 29.4369C20.5078 29.3857 20.6187 29.3108 20.7118 29.2164C20.8048 29.122 20.8782 29.0101 20.9276 28.8871C20.977 28.7642 21.0015 28.6326 20.9996 28.5001V13.9142L21.7926 14.7071C21.8847 14.8031 21.9951 14.8797 22.1172 14.9325C22.2393 14.9853 22.3708 15.0132 22.5038 15.0145C22.6369 15.0159 22.7688 14.9907 22.892 14.9404C23.0152 14.8901 23.1271 14.8158 23.2212 14.7217C23.3152 14.6276 23.3896 14.5157 23.4399 14.3925C23.4902 14.2693 23.5154 14.1374 23.514 14.0043C23.5127 13.8713 23.4848 13.7398 23.432 13.6177C23.3792 13.4956 23.3026 13.3852 23.2066 13.2931L20.7066 10.7931C20.612 10.6985 20.4994 10.6238 20.3755 10.5734C20.2515 10.5231 20.1187 10.4982 19.9849 10.5001ZM14.2349 15.5001C13.9748 15.504 13.7265 15.6091 13.5426 15.7931L11.0426 18.2931C10.9466 18.3852 10.87 18.4956 10.8172 18.6177C10.7644 18.7398 10.7365 18.8713 10.7352 19.0043C10.7338 19.1374 10.759 19.2693 10.8093 19.3925C10.8596 19.5157 10.934 19.6276 11.028 19.7217C11.1221 19.8157 11.234 19.8901 11.3572 19.9404C11.4804 19.9907 11.6123 20.0159 11.7454 20.0145C11.8784 20.0132 12.0099 19.9853 12.132 19.9325C12.2541 19.8797 12.3645 19.8031 12.4566 19.7071L13.2496 18.9142V25.2501C13.2496 26.5047 12.2542 27.5001 10.9996 27.5001C10.8671 27.4982 10.7355 27.5227 10.6126 27.5721C10.4896 27.6215 10.3777 27.6949 10.2833 27.7879C10.1889 27.881 10.114 27.9919 10.0628 28.1141C10.0117 28.2364 9.98535 28.3676 9.98535 28.5001C9.98535 28.6326 10.0117 28.7638 10.0628 28.8861C10.114 29.0083 10.1889 29.1192 10.2833 29.2123C10.3777 29.3053 10.4896 29.3787 10.6126 29.4281C10.7355 29.4775 10.8671 29.502 10.9996 29.5001C13.335 29.5001 15.2496 27.5855 15.2496 25.2501V18.9142L16.0426 19.7071C16.1347 19.8031 16.2451 19.8797 16.3672 19.9325C16.4893 19.9853 16.6208 20.0132 16.7538 20.0145C16.8869 20.0159 17.0188 19.9907 17.142 19.9404C17.2652 19.8901 17.3771 19.8158 17.4712 19.7217C17.5652 19.6276 17.6396 19.5157 17.6899 19.3925C17.7402 19.2693 17.7654 19.1374 17.764 19.0043C17.7627 18.8713 17.7348 18.7398 17.682 18.6177C17.6292 18.4956 17.5526 18.3852 17.4566 18.2931L14.9566 15.7931C14.862 15.6985 14.7494 15.6238 14.6255 15.5734C14.5015 15.5231 14.3687 15.4982 14.2349 15.5001ZM25.7349 15.5001C25.4748 15.504 25.2265 15.6091 25.0426 15.7931L22.5426 18.2931C22.4466 18.3852 22.37 18.4956 22.3172 18.6177C22.2644 18.7398 22.2365 18.8713 22.2352 19.0043C22.2338 19.1374 22.259 19.2693 22.3093 19.3925C22.3596 19.5157 22.4339 19.6276 22.528 19.7217C22.6221 19.8158 22.734 19.8901 22.8572 19.9404C22.9804 19.9907 23.1123 20.0159 23.2454 20.0145C23.3784 20.0132 23.5099 19.9853 23.632 19.9325C23.7541 19.8797 23.8645 19.8031 23.9566 19.7071L24.7496 18.9142V25.2501C24.7496 27.5855 26.6642 29.5001 28.9996 29.5001C29.1321 29.502 29.2637 29.4775 29.3866 29.4281C29.5096 29.3787 29.6215 29.3053 29.7159 29.2123C29.8103 29.1192 29.8852 29.0083 29.9363 28.8861C29.9875 28.7638 30.0138 28.6326 30.0138 28.5001C30.0138 28.3676 29.9875 28.2364 29.9363 28.1141C29.8852 27.9919 29.8103 27.881 29.7159 27.7879C29.6215 27.6949 29.5096 27.6215 29.3866 27.5721C29.2637 27.5227 29.1321 27.4982 28.9996 27.5001C27.745 27.5001 26.7496 26.5047 26.7496 25.2501V18.9142L27.5426 19.7071C27.6347 19.8031 27.7451 19.8797 27.8672 19.9325C27.9893 19.9853 28.1208 20.0132 28.2538 20.0145C28.3869 20.0159 28.5188 19.9907 28.642 19.9404C28.7652 19.8901 28.8771 19.8158 28.9712 19.7217C29.0652 19.6276 29.1396 19.5157 29.1899 19.3925C29.2402 19.2693 29.2654 19.1374 29.264 19.0043C29.2627 18.8713 29.2348 18.7398 29.182 18.6177C29.1292 18.4956 29.0526 18.3852 28.9566 18.2931L26.4566 15.7931C26.362 15.6985 26.2494 15.6238 26.1255 15.5734C26.0015 15.5231 25.8687 15.4982 25.7349 15.5001Z" fill="#7A5AF8"/>
</svg>
