<svg width="40" height="40" viewBox="0 0 40 40" fill="none" xmlns="http://www.w3.org/2000/svg">
<rect width="40" height="40" rx="4" fill="#F79009"/>
<path d="M16.2075 23.9532L16.44 25.0002H23.56L23.7925 23.9532C23.95 23.2447 24.2865 22.5772 24.813 22.0777C26.1975 20.7652 27 18.9322 27 17.0002C27 13.1412 23.8585 10.0127 20 10.0112C16.1415 10.0127 13 13.1412 13 17.0002C13 18.9322 13.8025 20.7652 15.1865 22.0777C15.7135 22.5772 16.05 23.2447 16.2075 23.9532ZM16.7735 26.5002L17.2465 28.6297C17.4245 29.4307 18.135 30.0002 18.955 30.0002H21.045C21.865 30.0002 22.5755 29.4307 22.7535 28.6297L23.2265 26.5002H16.7735Z" fill="white"/>
</svg>
