<svg width="40" height="40" viewBox="0 0 40 40" fill="none" xmlns="http://www.w3.org/2000/svg">
<rect width="40" height="40" rx="4" fill="#2E90FA"/>
<path d="M26.2562 11.0001C24.9965 11.0092 23.7564 11.5029 22.8236 12.4357L13.1175 22.1427C12.5456 22.7146 12.3809 23.5307 12.6038 24.2531C12.1285 24.3559 11.6767 24.5894 11.3089 24.9572C10.8775 25.3886 10.7211 25.9079 10.5716 26.4552C10.4221 27.0025 10.3265 27.5783 10.263 28.0509C10.1338 29.0136 10.9855 29.8656 11.9486 29.7365H11.9495C12.4221 29.673 12.9969 29.5773 13.5443 29.4279C14.0916 29.2784 14.6119 29.1225 15.0433 28.6906C15.4108 28.323 15.6446 27.8715 15.7474 27.3966C16.4699 27.6197 17.2861 27.455 17.8578 26.8829L27.5648 17.1769C29.0568 15.6849 29.4263 13.4052 28.4828 11.5177C27.7749 11.1639 27.012 10.9947 26.2562 11.0001ZM24.5003 14.5001C25.0528 14.5001 25.5003 14.9476 25.5003 15.5001C25.5003 16.0526 25.0528 16.5001 24.5003 16.5001C23.9478 16.5001 23.5003 16.0526 23.5003 15.5001C23.5003 14.9476 23.9478 14.5001 24.5003 14.5001ZM22.0003 17.0001C22.5528 17.0001 23.0003 17.4476 23.0003 18.0001C23.0003 18.5526 22.5528 19.0001 22.0003 19.0001C21.4478 19.0001 21.0003 18.5526 21.0003 18.0001C21.0003 17.4476 21.4478 17.0001 22.0003 17.0001ZM13.2308 17.5001C12.0008 17.5001 11.0003 18.5006 11.0003 19.7306C11.0003 20.4781 11.372 21.1725 11.9935 21.587L12.1722 21.7052C12.2467 21.6117 12.325 21.5212 12.4105 21.4357L16.346 17.5001H13.2308ZM22.5003 23.6544L18.5648 27.59C18.4793 27.6755 18.3888 27.7538 18.2953 27.8283L18.4134 28.007C18.8279 28.6285 19.5224 29.0001 20.2699 29.0001C21.4999 29.0001 22.5003 27.9997 22.5003 26.7697V23.6544ZM13.1253 25.6847C13.3965 25.6753 13.6709 25.7682 13.8968 25.9552L14.0453 26.1036C14.4204 26.5565 14.407 27.2057 13.9828 27.63L13.9818 27.631C13.9512 27.6616 13.5924 27.8607 13.1497 27.9816C12.7074 28.1023 12.1826 28.1921 11.7503 28.2501C11.8084 27.8178 11.898 27.2934 12.0189 26.8507C12.1398 26.408 12.3389 26.0483 12.3695 26.0177C12.5825 25.8047 12.8521 25.6941 13.1253 25.6847Z" fill="white"/>
</svg>
