<svg width="40" height="40" viewBox="0 0 40 40" fill="none" xmlns="http://www.w3.org/2000/svg">
<rect width="40" height="40" rx="4" fill="#F2F4F8"/>
<path d="M20.0717 10.3999C16.1053 10.3999 13.856 12.6222 13.792 15.839V15.9999H17.2936V15.839C17.3704 14.4182 18.3533 13.5015 19.8389 13.5015C21.3117 13.5015 22.2936 14.353 22.2936 15.5546C22.2936 16.7562 21.7896 17.3766 20.1232 18.3718C18.34 19.4182 17.6287 20.5811 17.7967 22.6483L17.817 23.1999H21.2467V22.6749C21.2467 21.4349 21.7252 20.8006 23.4436 19.8062C25.2652 18.7334 26.2076 17.3774 26.2076 15.439C26.2076 12.4542 23.7669 10.3999 20.0717 10.3999ZM19.6061 25.5999C18.2917 25.5999 17.4717 26.363 17.4717 27.6062C17.4717 28.8382 18.2925 29.5999 19.6061 29.5999C20.9197 29.5999 21.7295 28.8382 21.7295 27.6062C21.7295 26.363 20.9205 25.5999 19.6061 25.5999Z" fill="#363F52"/>
</svg>
