<svg width="40" height="40" viewBox="0 0 40 40" fill="none" xmlns="http://www.w3.org/2000/svg">
<rect width="40" height="40" rx="4" fill="#F2F4F8"/>
<path d="M11.1875 31.25C11.1875 26.375 15.125 23.5625 20 23.5625C24.875 23.5625 28.8125 26.375 28.8125 31.25H11.1875Z" fill="#363F52"/>
<path d="M25.625 8.75V13.625C25.625 16.7375 23.1125 20.1875 20 20.1875C16.8875 20.1875 14.375 16.7375 14.375 13.625V8.75H25.625Z" fill="#F2F4F8"/>
<path d="M15.5752 24.4624L19.6064 28.4937C19.8314 28.7187 20.1877 28.7187 20.3939 28.4937L24.4252 24.4624L20.0002 23.3374L15.5752 24.4624Z" fill="#F2F4F8"/>
<path d="M28.8125 31.8125H11.1875C10.8687 31.8125 10.625 31.5688 10.625 31.25C10.625 26.3938 14.4875 23 20 23C25.5125 23 29.375 26.3938 29.375 31.25C29.375 31.5688 29.1313 31.8125 28.8125 31.8125ZM11.7688 30.6875H28.2313C27.9688 27.3313 25.4 24.125 20 24.125C14.6 24.125 12.0313 27.3313 11.7688 30.6875Z" fill="#363F52"/>
<path d="M30.3125 8.1875H9.6875C9.36875 8.1875 9.125 8.43125 9.125 8.75V14.375C9.125 14.6938 9.36875 14.9375 9.6875 14.9375C10.0063 14.9375 10.25 14.6938 10.25 14.375V9.3125H13.8125V12.5C13.8125 12.8188 14.0562 13.0625 14.375 13.0625H25.0625V13.625C25.0625 16.3438 22.8125 19.625 20 19.625C17.9 19.625 16.2125 17.825 15.4438 16.025C15.3313 15.7437 14.9937 15.6125 14.7125 15.725C14.4312 15.8375 14.3 16.175 14.4125 16.4562C15.5188 19.0625 17.7125 20.75 20 20.75C23.4875 20.75 26.1875 16.925 26.1875 13.625V9.3125H30.3125C30.6313 9.3125 30.875 9.06875 30.875 8.75C30.875 8.43125 30.6313 8.1875 30.3125 8.1875Z" fill="#363F52"/>
</svg>
