<svg width="20" height="20" viewBox="0 0 20 20" fill="none" xmlns="http://www.w3.org/2000/svg">
<path d="M18.1121 3.7444C17.9498 3.74913 17.7957 3.81684 17.6824 3.9332L6.87428 14.7413L2.31618 10.1832C2.25859 10.1232 2.18961 10.0753 2.11328 10.0423C2.03695 10.0094 1.9548 9.99192 1.87165 9.99108C1.7885 9.99023 1.70602 10.006 1.62903 10.0374C1.55205 10.0688 1.48211 10.1153 1.42331 10.1741C1.36451 10.2329 1.31804 10.3029 1.28661 10.3798C1.25518 10.4568 1.23942 10.5393 1.24027 10.6225C1.24111 10.7056 1.25854 10.7878 1.29153 10.8641C1.32452 10.9404 1.37241 11.0094 1.43239 11.067L6.43239 16.067C6.5496 16.1842 6.70855 16.25 6.87428 16.25C7.04002 16.25 7.19896 16.1842 7.31618 16.067L18.5662 4.81699C18.6563 4.72918 18.7179 4.61619 18.7428 4.49281C18.7677 4.36943 18.7547 4.24141 18.7057 4.12551C18.6566 4.00961 18.5737 3.91122 18.4678 3.84322C18.3619 3.77522 18.2379 3.74078 18.1121 3.7444Z" fill="#212838"/>
</svg>
