<svg width="14" height="14" viewBox="0 0 14 14" fill="none" xmlns="http://www.w3.org/2000/svg">
<path d="M1.89686 6.56254C1.83888 6.56172 1.78132 6.57243 1.72752 6.59405C1.67373 6.61567 1.62476 6.64777 1.58347 6.68847C1.54219 6.72918 1.5094 6.77769 1.48703 6.83117C1.46465 6.88466 1.45312 6.94206 1.45312 7.00004C1.45312 7.05802 1.46465 7.11543 1.48703 7.16891C1.5094 7.2224 1.54219 7.27091 1.58347 7.31161C1.62476 7.35232 1.67373 7.38442 1.72752 7.40603C1.78132 7.42765 1.83888 7.43836 1.89686 7.43754H12.1052C12.1632 7.43836 12.2207 7.42765 12.2745 7.40603C12.3283 7.38442 12.3773 7.35232 12.4186 7.31161C12.4599 7.27091 12.4926 7.2224 12.515 7.16891C12.5374 7.11543 12.5489 7.05802 12.5489 7.00004C12.5489 6.94206 12.5374 6.88466 12.515 6.83117C12.4926 6.77769 12.4599 6.72918 12.4186 6.68847C12.3773 6.64777 12.3283 6.61567 12.2745 6.59405C12.2207 6.57243 12.1632 6.56172 12.1052 6.56254H1.89686Z" fill="#040615"/>
</svg>
