<svg width="17" height="17" viewBox="0 0 17 17" fill="none" xmlns="http://www.w3.org/2000/svg">
<path d="M3.03125 0.625C1.7101 0.625 0.625 1.7101 0.625 3.03125V13.9688C0.625 15.2899 1.7101 16.375 3.03125 16.375H13.9688C15.2899 16.375 16.375 15.2899 16.375 13.9688V3.03125C16.375 1.7101 15.2899 0.625 13.9688 0.625H3.03125ZM3.03125 1.9375H13.9688C14.5805 1.9375 15.0625 2.41953 15.0625 3.03125V13.9688C15.0625 14.5805 14.5805 15.0625 13.9688 15.0625H3.03125C2.41953 15.0625 1.9375 14.5805 1.9375 13.9688V3.03125C1.9375 2.41953 2.41953 1.9375 3.03125 1.9375ZM13.0809 4.99402C12.9105 4.99899 12.7487 5.07008 12.6298 5.19226L6.96875 10.8533L4.80774 8.69226C4.74727 8.62928 4.67484 8.579 4.59469 8.54436C4.51455 8.50972 4.42829 8.49142 4.34099 8.49053C4.25368 8.48965 4.16707 8.50619 4.08624 8.53919C4.0054 8.57219 3.93197 8.62099 3.87023 8.68273C3.80849 8.74447 3.75969 8.81791 3.72669 8.89874C3.69369 8.97957 3.67715 9.06618 3.67803 9.15349C3.67892 9.24079 3.69722 9.32705 3.73186 9.40719C3.7665 9.48734 3.81678 9.55977 3.87976 9.62024L6.50476 12.2452C6.62784 12.3683 6.79473 12.4374 6.96875 12.4374C7.14277 12.4374 7.30966 12.3683 7.43274 12.2452L13.5577 6.12024C13.6524 6.02803 13.717 5.90939 13.7432 5.77985C13.7693 5.6503 13.7557 5.51588 13.7042 5.39419C13.6527 5.27249 13.5656 5.16918 13.4544 5.09778C13.3432 5.02638 13.213 4.99021 13.0809 4.99402Z" fill="#4A5366"/>
</svg>
