<svg width="399" height="479" viewBox="0 0 399 479" fill="none" xmlns="http://www.w3.org/2000/svg">
<g opacity="0.2" clip-path="url(#clip0_961_2484)">
<path d="M84.358 116.433L122.773 134.102" stroke="#263238" stroke-width="0.842113" stroke-miterlimit="10"/>
<path d="M144.503 74.4988L150.169 83.2683" stroke="#263238" stroke-width="0.842113" stroke-miterlimit="10"/>
<path d="M111.604 23.5115L141.278 69.4967" stroke="#263238" stroke-width="0.842113" stroke-miterlimit="10"/>
<path d="M186.302 30.9617L190.836 54.8579" stroke="#263238" stroke-width="0.842113" stroke-miterlimit="10"/>
<path d="M88.9955 207.324L46.965 211.577" stroke="#263238" stroke-width="0.842113" stroke-miterlimit="10"/>
<path d="M108.068 205.4L96.7568 206.536" stroke="#263238" stroke-width="0.842113" stroke-miterlimit="10"/>
<path d="M79.959 283.094L72.6948 288.129" stroke="#263238" stroke-width="0.842113" stroke-miterlimit="10"/>
<path d="M106.494 264.722L85.4005 279.325" stroke="#263238" stroke-width="0.842113" stroke-miterlimit="10"/>
<path d="M233.862 192.456C262.236 133.155 262.92 74.403 235.391 61.2307C207.861 48.0584 162.541 85.4533 134.167 144.755C105.793 204.056 105.109 262.808 132.639 275.98C160.169 289.152 205.488 251.757 233.862 192.456Z" fill="white" stroke="#263238" stroke-width="0.842114" stroke-miterlimit="10"/>
<path d="M223.583 187.528C249.41 133.55 251.016 80.5434 227.169 69.1335C203.323 57.7237 163.055 92.2315 137.228 146.209C111.401 200.186 109.796 253.193 133.642 264.603C157.489 276.013 197.757 241.505 223.583 187.528Z" fill="#BFBFBF" stroke="#263238" stroke-width="0.842114" stroke-miterlimit="10"/>
<path d="M227.155 69.1289C219.297 65.3686 209.647 66.5996 199.325 71.8697C205.572 75.6035 213.044 84.1949 218.417 103.566C229.415 143.239 220.744 193.803 197.924 215.892C176.381 236.742 173.961 245.662 122.812 253.898C125.512 258.775 129.114 262.431 133.638 264.598C157.483 276.006 197.752 241.501 223.574 187.518C249.397 133.535 251.001 80.5362 227.155 69.1289Z" fill="#263238" stroke="#263238" stroke-width="0.842113" stroke-miterlimit="10"/>
<path d="M412.954 227.48C406.786 222.308 337.664 185.003 335.102 183.823C332.539 182.642 324.912 181.463 324.912 181.463C324.912 181.463 325.042 181.529 325.266 181.659L336.656 188.041C336.656 188.041 354.448 205.962 339.966 237.383C325.484 268.803 308.814 276.288 289.04 270.283C289.04 270.283 286.759 269.391 282.799 268.03C282.641 268.977 282.771 270.998 285.961 272.749C290.301 275.142 350.316 299.296 350.316 299.296C350.316 299.296 372.293 309.815 378.562 308.034C384.823 306.251 405.018 300.399 416.916 277.109C428.814 253.819 419.132 232.646 412.967 227.466L412.954 227.48Z" fill="white" stroke="#263238" stroke-width="0.842113" stroke-miterlimit="10"/>
<path d="M400.927 220.014C398.235 218.45 395.228 216.738 392.015 214.918C393.484 216.134 395.672 218.221 396.646 219.153C397.13 219.618 397.471 219.943 397.582 220.038C403.544 225.076 413.024 246.593 401.099 269.972C393.022 285.81 379.96 296.441 362.307 301.582C361.602 301.727 357.316 301.517 354.687 301.302C356.534 302.114 358.82 303.078 361.259 304.027C362.034 304.026 362.654 303.987 362.956 303.894C381.294 298.557 394.852 287.514 403.247 271.069C414.552 248.91 407.795 228.05 400.933 220.024L400.927 220.014Z" fill="#263238"/>
<path d="M427.728 250.951C425.558 246.615 422.834 243.659 420.854 241.9C423.459 251.23 423.693 263.824 416.906 277.115C408.518 293.536 396.012 301.281 387.164 305.047C388.272 305.8 390.063 306.709 392.35 306.748C396.281 306.824 410.331 305.371 421.01 289.722C429.784 276.872 431.601 258.67 427.73 250.943L427.728 250.951Z" fill="white" stroke="#263238" stroke-width="0.842113" stroke-miterlimit="10"/>
<path d="M336.648 188.038L324.904 181.46C281.634 158.791 261.838 129.398 255.231 117.602C253.618 139.802 246.48 166.072 233.857 192.452C221.077 219.171 204.852 241.436 188.365 256.639C229.37 246.903 289.019 270.293 289.019 270.293C308.801 276.301 325.471 268.817 339.945 237.394C354.419 205.971 336.635 188.051 336.635 188.051L336.648 188.038Z" fill="#E0E0E0" stroke="#263238" stroke-width="0.842113" stroke-miterlimit="10"/>
<path d="M248.283 237.383C222.309 224.902 225.841 218.338 236.215 198.043C242.873 185.03 245.514 169.748 246.559 160.46C243.236 170.919 239.015 181.666 233.862 192.436C224.675 211.641 213.705 228.531 202.137 242.165C209.495 238.639 214.646 239.272 214.646 239.272L306.653 271.637C311.806 270.651 316.734 268.275 321.448 264.266C299.37 257.071 265.093 245.449 248.278 237.373L248.283 237.383Z" fill="#263238" stroke="#263238" stroke-width="0.842113" stroke-miterlimit="10"/>
<path d="M283.358 271.036C283.358 271.036 290.608 287.036 287.632 291.119C284.657 295.202 267.625 300.444 267.763 302.037C267.901 303.629 271.014 306.809 267.452 311.717C263.882 316.622 259.266 319.075 250.686 328.207C242.112 337.35 239.252 344.973 234.058 346.29C228.865 347.607 220.303 348.678 219.637 352.957C218.971 357.236 229.818 374.891 232.778 378.429C235.727 381.973 242.57 387.959 246.493 383.224C250.424 378.491 250.296 374.506 252.981 372.466C255.663 370.433 281.001 352.866 288.175 344.387C295.356 335.911 304.024 321.364 309.439 321.453C314.852 321.55 322.452 326.358 330.257 320.794C338.062 315.229 357.468 298.199 357.468 298.199L308.848 277.759C308.848 277.759 296.458 278.592 283.358 271.036Z" fill="white" stroke="#263238" stroke-width="0.842113" stroke-miterlimit="10"/>
<path d="M326.505 320.967C320.728 321.974 314.888 318.725 312.585 311.803C310.284 304.873 296.396 278.133 296.396 278.133L295.87 276.167C292.071 275.172 287.75 273.577 283.348 271.042C283.348 271.042 287.993 281.304 288.312 287.487C291.584 291.5 295.747 297.67 299.069 306.154C302.921 315.989 303.689 321.076 304.565 324.057C306.347 322.435 307.998 321.443 309.418 321.464C314.831 321.561 322.431 326.369 330.236 320.805C330.304 320.755 330.382 320.7 330.45 320.65L326.495 320.973L326.505 320.967Z" fill="#263238" stroke="#263238" stroke-width="0.842113" stroke-miterlimit="10"/>
<path d="M287.881 276.832C287.881 276.832 289.975 284.121 288.677 285.054C287.379 285.986 269.965 293.455 270.578 295.914C271.188 298.382 271.232 299.707 273.49 300.962C275.748 302.216 276.559 302.817 276.559 302.817C276.559 302.817 288.566 295.693 291.378 291.974C294.189 288.254 294.295 286.121 292.685 282.977C291.076 279.834 287.881 276.832 287.881 276.832Z" fill="#E0E0E0" stroke="#263238" stroke-width="0.842113" stroke-miterlimit="10"/>
<path d="M288.11 285.382L288.263 285.632C288.263 285.632 290.763 284.309 291.171 283.668C291.351 283.397 291.663 282.577 291.975 281.73C290.29 279.092 287.89 276.834 287.89 276.834C287.89 276.834 289.983 284.124 288.685 285.056C288.586 285.123 288.384 285.237 288.121 285.377L288.11 285.382Z" fill="#263238"/>
<path d="M271.419 295.555C271.419 295.555 274.565 296.412 275.17 297.399C275.775 298.385 276.219 301.77 276.219 301.77" stroke="#263238" stroke-width="0.842113" stroke-miterlimit="10"/>
<path d="M277.263 296.947C277.263 296.947 287.864 291.34 290.159 289.682C292.454 288.024 292.747 286.634 292.747 286.634" fill="white"/>
<path d="M277.263 296.947C277.263 296.947 287.864 291.34 290.159 289.682C292.454 288.024 292.747 286.634 292.747 286.634" stroke="#263238" stroke-width="0.842113" stroke-miterlimit="10"/>
<path d="M234.455 355.385C239.932 354.322 245.865 347.075 255.991 336.373C263.596 328.325 271.532 320.318 275.001 316.835C276.095 315.734 276.449 314.09 275.888 312.641L273.63 306.781L269.967 303.899L267.761 302.044C267.899 303.637 271.012 306.817 267.45 311.724C263.88 316.629 259.263 319.083 250.684 328.215C242.11 337.357 239.25 344.981 234.056 346.298C228.862 347.615 220.301 348.686 219.635 352.965C218.969 357.243 229.816 374.898 232.775 378.437C233.083 378.813 233.444 379.214 233.838 379.625C231.656 374.898 225.274 360.757 225.798 358.179C226.43 355.078 228.984 356.459 234.471 355.39L234.455 355.385Z" fill="#263238" stroke="#263238" stroke-width="0.842113" stroke-miterlimit="10"/>
<path d="M324.657 290.68L321.48 294.067L323.664 298.099L328.579 300.167L331.503 296.455L330.114 294.199L331.065 293.019L324.657 290.68Z" fill="#263238" stroke="#263238" stroke-width="0.842113" stroke-miterlimit="10"/>
<path d="M223.572 187.526C227.803 178.676 231.38 169.863 234.306 161.247C227.934 158.989 221.577 156.684 215.152 154.568C210.159 152.927 204.574 151.552 199.903 154.817C194.514 158.585 190.706 164.729 188.007 170.587C185.029 177.039 180.208 190.438 186.041 196.704C187.532 198.306 205.193 209.433 209.712 212.594C214.634 204.853 219.298 196.46 223.569 187.534L223.572 187.526Z" fill="#E5E5E5" stroke="#263238" stroke-width="0.842113" stroke-miterlimit="10"/>
<path d="M204.083 177.54C199.44 187.621 192.222 194.202 187.97 192.24C183.718 190.279 184.034 180.522 188.677 170.441C193.319 160.36 200.537 153.779 204.79 155.74C209.042 157.702 208.725 167.459 204.083 177.54Z" fill="white" stroke="#263238" stroke-width="0.842113" stroke-miterlimit="10"/>
<path d="M186.047 193.025C186.047 193.025 183.166 198.819 184.601 201.151C186.036 203.484 207.914 214.615 207.914 214.615L209.715 212.586L186.043 196.696L187.97 192.24C187.97 192.24 186.989 190.522 186.047 193.025Z" fill="#E5E5E5" stroke="#263238" stroke-width="0.842113" stroke-miterlimit="10"/>
<path d="M203.591 180.383C203.591 180.383 206.913 183.17 208.126 183.726C209.338 184.281 222.122 190.596 222.122 190.596L223.572 187.526C223.572 187.526 209.531 180.888 207.403 179.841C206.432 179.359 205.052 178.4 204.696 178.212C204.696 178.212 203.925 179.437 203.589 180.391L203.591 180.383Z" fill="#E5E5E5" stroke="#263238" stroke-width="0.842113" stroke-miterlimit="10"/>
<path d="M204.444 155.546C204.444 155.546 207.167 150.126 209.606 149.12C212.043 148.122 214.029 148.421 214.62 148.62C215.211 148.818 235.35 157.489 235.35 157.489L234.316 161.241L215.163 154.563C215.163 154.563 210.212 152.581 208.469 153.07C206.725 153.558 205.884 156.048 205.884 156.048L204.446 155.538L204.444 155.546Z" fill="#E5E5E5" stroke="#263238" stroke-width="0.842113" stroke-miterlimit="10"/>
<path d="M189.057 167.959C189.057 167.959 188.223 167.633 187.979 167.77C187.735 167.906 187.034 169.418 187.146 169.716C187.257 170.015 188.015 170.59 188.015 170.59L189.057 167.959Z" fill="#E5E5E5" stroke="#263238" stroke-width="0.842113" stroke-miterlimit="10"/>
<path d="M176.281 179.699C176.281 179.699 154.188 178.568 151.75 180.349C149.311 182.131 148.555 187.28 150.59 189.179C152.622 191.087 173.65 191.725 175.546 189.699C177.443 187.672 177.124 181.375 176.281 179.699Z" fill="white"/>
<path d="M146.978 182.993C146.978 182.993 148.499 189.508 146.311 190.759C144.123 192.009 132.788 194.865 133.134 189.211C133.481 183.558 143.831 182.832 146.986 182.996L146.978 182.993Z" fill="white"/>
<path d="M216.112 228.061C216.112 228.061 208.581 239.063 210.643 241.103C212.705 243.143 265.06 256.35 297.933 270.951C297.933 270.951 303.93 270.98 307.999 269.856C307.999 269.856 260.754 253.271 242.802 247.181C224.851 241.091 218.48 239.52 217.795 235.656C217.119 231.794 220.011 224.93 216.115 228.053L216.112 228.061Z" fill="white"/>
</g>
<defs>
<clipPath id="clip0_961_2484">
<rect width="403.852" height="376.812" fill="white" transform="translate(110.854 0.316895) rotate(17.0099)"/>
</clipPath>
</defs>
</svg>
