<svg width="547" height="566" viewBox="0 0 547 566" fill="none" xmlns="http://www.w3.org/2000/svg">
<g opacity="0.1" clip-path="url(#clip0_1034_482)">
<path d="M-50.4845 161.917C-50.4845 161.917 -42.6404 129.241 3.0944 122.712C48.8292 116.182 55.3734 155.388 64.5174 160.617C73.6613 165.847 78.8908 151.473 93.2641 152.773C107.638 154.073 115.482 165.847 122.011 171.076C128.54 176.305 140.314 160.617 149.458 163.232C158.602 165.847 166.446 178.92 166.446 178.92H-98.849C-98.849 178.92 -89.7049 164.547 -76.6315 159.317C-63.558 154.088 -58.3286 161.932 -50.4994 161.932L-50.4845 161.917Z" stroke="#263238" stroke-width="1.49411" stroke-linecap="round" stroke-linejoin="round"/>
<path d="M389.95 260.021C389.95 260.021 395.568 236.608 428.364 231.916C461.145 227.24 465.836 255.329 472.395 259.079C478.955 262.829 482.705 252.52 492.999 253.461C503.309 254.403 508.926 262.829 513.603 266.58C518.28 270.33 526.721 259.079 533.28 260.962C539.84 262.844 545.458 272.198 545.458 272.198H355.287C355.287 272.198 361.846 261.888 371.214 258.153C380.582 254.403 384.332 260.021 389.95 260.021Z" stroke="#263238" stroke-width="1.49411" stroke-linecap="round" stroke-linejoin="round"/>
<path d="M304.442 62.1252C304.442 62.1252 307.998 47.2887 328.781 44.3154C349.549 41.3421 352.523 59.152 356.676 61.5276C360.83 63.9032 363.206 57.374 369.735 57.9716C376.264 58.5692 379.82 63.9032 382.793 66.2789C385.767 68.6545 391.101 61.5276 395.254 62.7229C399.408 63.9182 402.964 69.8498 402.964 69.8498H282.464C282.464 69.8498 286.617 63.3205 292.549 60.9449C298.481 58.5692 300.856 62.1252 304.427 62.1252H304.442Z" stroke="#263238" stroke-width="1.49411" stroke-linecap="round" stroke-linejoin="round"/>
<path d="M133.77 92.7097C114.807 92.7097 99.4349 77.3375 99.4349 58.375C99.4349 39.4125 114.807 24.0403 133.77 24.0403C152.732 24.0403 168.104 39.4125 168.104 58.375C168.104 77.3375 152.732 92.7097 133.77 92.7097Z" stroke="#263238" stroke-width="1.49411" stroke-linecap="round" stroke-linejoin="round"/>
<path d="M133.77 0.747055V14.717" stroke="#263238" stroke-width="1.49411" stroke-linecap="round" stroke-linejoin="round"/>
<path d="M133.77 104.349V118.319" stroke="#263238" stroke-width="1.49411" stroke-linecap="round" stroke-linejoin="round"/>
<path d="M92.2033 17.9592L102.079 27.8503" stroke="#263238" stroke-width="1.49411" stroke-linecap="round" stroke-linejoin="round"/>
<path d="M165.46 91.2305L175.336 101.107" stroke="#263238" stroke-width="1.49411" stroke-linecap="round" stroke-linejoin="round"/>
<path d="M74.9763 59.5404H88.9463" stroke="#263238" stroke-width="1.49411" stroke-linecap="round" stroke-linejoin="round"/>
<path d="M178.593 59.5404H192.563" stroke="#263238" stroke-width="1.49411" stroke-linecap="round" stroke-linejoin="round"/>
<path d="M92.2033 101.107L102.079 91.2305" stroke="#263238" stroke-width="1.49411" stroke-linecap="round" stroke-linejoin="round"/>
<path d="M165.46 27.8503L175.336 17.9592" stroke="#263238" stroke-width="1.49411" stroke-linecap="round" stroke-linejoin="round"/>
<path d="M50.9658 249.442C50.9658 249.442 44.063 247.724 42.0011 248.411C39.9392 249.099 43.3757 251.549 43.3757 251.549C43.3757 251.549 41.6574 252.55 40.6265 254.97C39.5956 257.391 44.063 256.345 44.063 256.345C44.063 256.345 42.7033 258.078 44.063 259.453C45.4226 260.827 51.6531 253.939 51.6531 253.939C51.6531 253.939 56.1354 256.704 60.2741 256.36C64.4128 256.016 66.8332 254.985 69.5824 250.847C72.3316 246.708 74.4084 244.646 74.4084 244.646L77.1725 243.615L73.0338 241.195C73.0338 241.195 69.5824 238.087 66.131 238.431C62.6796 238.774 61.305 239.805 61.305 239.805C61.305 239.805 59.2431 234.292 56.1354 232.215C53.0276 230.138 43.3757 227.389 40.2679 225.656C37.1602 223.938 37.8474 226.687 38.8933 228.42C39.9392 230.153 43.032 231.528 44.4066 232.215C45.7812 232.902 37.1602 233.246 38.5497 234.979C39.9392 236.712 45.1088 237.4 45.1088 237.4C45.1088 237.4 40.2828 239.118 41.3138 240.507C42.3447 241.882 46.4834 241.882 46.4834 241.882C46.4834 241.882 45.1088 245.333 47.1707 245.333H49.2476C49.2476 245.333 48.2166 250.159 50.9658 249.472V249.442Z" fill="#ECECEC" stroke="#263238" stroke-width="1.49411" stroke-linecap="round" stroke-linejoin="round"/>
<path d="M61.3199 239.79C61.3199 239.79 64.084 234.277 62.6945 230.826C61.3199 227.374 48.5601 218.409 48.9038 221.861C49.2474 225.312 52.6988 227.374 52.6988 227.374C52.6988 227.374 47.5292 225.656 47.5292 227.031V228.405C47.5292 228.405 53.3861 229.78 56.1502 232.2C58.9143 234.621 61.3199 239.79 61.3199 239.79Z" fill="#263238" stroke="#263238" stroke-width="1.49411" stroke-linecap="round" stroke-linejoin="round"/>
<path d="M69.3881 243.496C68.8188 243.496 68.3572 243.034 68.3572 242.465C68.3572 241.895 68.8188 241.434 69.3881 241.434C69.9575 241.434 70.4191 241.895 70.4191 242.465C70.4191 243.034 69.9575 243.496 69.3881 243.496Z" fill="#263238"/>
<path d="M55.5378 253.013C56.1653 255.105 59.4523 255.971 62.8888 254.955C66.3252 253.939 68.6112 251.414 67.9837 249.323C67.3562 247.231 64.0692 246.364 60.6327 247.38C57.1962 248.396 54.9102 250.921 55.5378 253.013Z" fill="white" stroke="#263238" stroke-width="0.747057" stroke-linecap="round" stroke-linejoin="round"/>
<path d="M394.014 161.05C394.014 161.05 400.917 159.332 402.979 160.02C405.041 160.707 401.604 163.157 401.604 163.157C401.604 163.157 403.323 164.158 404.353 166.579C405.384 168.999 400.917 167.953 400.917 167.953C400.917 167.953 402.277 169.686 400.917 171.061C399.542 172.436 393.327 165.548 393.327 165.548C393.327 165.548 388.845 168.312 384.706 167.968C380.567 167.625 378.147 166.594 375.398 162.455C372.648 158.316 370.572 156.254 370.572 156.254L367.807 155.223L371.946 152.803C371.946 152.803 375.398 149.695 378.849 150.039C382.3 150.382 383.675 151.413 383.675 151.413C383.675 151.413 385.737 145.9 388.845 143.823C391.952 141.747 401.604 138.997 404.712 137.264C407.82 135.546 407.133 138.295 406.087 140.028C405.056 141.747 401.948 143.136 400.573 143.823C399.199 144.511 407.82 144.854 406.43 146.587C405.056 148.306 399.871 149.008 399.871 149.008C399.871 149.008 404.697 150.726 403.666 152.116C402.635 153.505 398.497 153.49 398.497 153.49C398.497 153.49 399.871 156.942 397.809 156.942H395.747C395.747 156.942 396.778 161.768 394.029 161.08L394.014 161.05Z" fill="#ECECEC" stroke="#263238" stroke-width="1.49411" stroke-linecap="round" stroke-linejoin="round"/>
<path d="M383.66 151.384C383.66 151.384 380.896 145.87 382.286 142.419C383.66 138.967 396.42 130.003 396.076 133.454C395.733 136.906 392.281 138.967 392.281 138.967C392.281 138.967 397.451 137.249 397.451 138.624V139.998C397.451 139.998 391.594 141.373 388.83 143.793C386.066 146.214 383.66 151.384 383.66 151.384Z" fill="#263238" stroke="#263238" stroke-width="1.49411" stroke-linecap="round" stroke-linejoin="round"/>
<path d="M376.623 154.073C376.623 154.641 376.16 155.104 375.592 155.104C375.024 155.104 374.561 154.641 374.561 154.073C374.561 153.505 375.024 153.042 375.592 153.042C376.16 153.042 376.623 153.505 376.623 154.073Z" fill="#263238"/>
<path d="M389.442 164.621C388.815 166.713 385.528 167.58 382.091 166.564C378.655 165.548 376.369 163.023 376.996 160.931C377.624 158.839 380.911 157.973 384.347 158.989C387.784 160.005 390.07 162.53 389.442 164.621Z" fill="white" stroke="#263238" stroke-width="0.747057" stroke-linecap="round" stroke-linejoin="round"/>
<path d="M412.526 417.903C412.526 417.903 426.168 396.224 450.88 383.404C475.593 370.585 486.126 357.93 473.307 358.692C457.753 359.603 422.507 371.959 406.49 415.438C399.572 434.204 412.541 417.903 412.541 417.903" fill="#ECECEC"/>
<path d="M412.526 417.903C412.526 417.903 426.168 396.224 450.88 383.404C475.593 370.585 486.126 357.93 473.307 358.692C457.753 359.603 422.507 371.959 406.49 415.438C399.572 434.204 412.541 417.903 412.541 417.903" stroke="#263238" stroke-width="1.49411" stroke-linecap="round" stroke-linejoin="round"/>
<path d="M413.348 412.226C413.348 412.226 425.704 387.513 449.042 375.605" stroke="#263238" stroke-width="1.49411" stroke-linecap="round" stroke-linejoin="round"/>
<path d="M397.66 432.889C397.66 432.889 405.459 411.09 400.753 386.363C396.061 361.635 399.169 347.083 405.788 356.63C413.826 368.194 424.733 400.138 402.77 435.818C393.297 451.207 397.645 432.904 397.645 432.904" fill="#ECECEC"/>
<path d="M397.66 432.889C397.66 432.889 405.459 411.09 400.753 386.363C396.061 361.635 399.169 347.083 405.788 356.63C413.826 368.194 424.733 400.138 402.77 435.818C393.297 451.207 397.645 432.904 397.645 432.904" stroke="#263238" stroke-width="1.49411" stroke-linecap="round" stroke-linejoin="round"/>
<path d="M401.231 429.139C401.231 429.139 411.899 406.548 407.312 383.315" stroke="#263238" stroke-width="1.49411" stroke-linecap="round" stroke-linejoin="round"/>
<path d="M411.51 406.996C411.51 406.996 419.31 385.197 414.603 360.47C409.912 335.742 413.019 321.19 419.638 330.737C427.677 342.301 438.584 374.245 416.62 409.925C407.148 425.314 411.495 407.011 411.495 407.011" fill="#ECECEC"/>
<path d="M411.51 406.996C411.51 406.996 419.31 385.197 414.603 360.47C409.912 335.742 413.019 321.19 419.638 330.737C427.677 342.301 438.584 374.245 416.62 409.925C407.148 425.314 411.495 407.011 411.495 407.011" stroke="#263238" stroke-width="1.49411" stroke-linecap="round" stroke-linejoin="round"/>
<path d="M413.348 412.226C413.348 412.226 425.749 380.655 421.162 357.422" stroke="#263238" stroke-width="1.49411" stroke-linecap="round" stroke-linejoin="round"/>
<path d="M101.273 390.89C101.273 390.89 87.6314 369.21 62.9188 356.391C38.2061 343.571 27.6726 330.916 40.4921 331.678C56.0608 332.59 91.292 344.946 107.309 388.425C114.227 407.191 101.258 390.89 101.258 390.89" fill="#ECECEC"/>
<path d="M101.273 390.89C101.273 390.89 87.6314 369.21 62.9188 356.391C38.2061 343.571 27.6726 330.916 40.4921 331.678C56.0608 332.59 91.292 344.946 107.309 388.425C114.227 407.191 101.258 390.89 101.258 390.89" stroke="#263238" stroke-width="1.49411" stroke-linecap="round" stroke-linejoin="round"/>
<path d="M100.451 385.227C100.451 385.227 88.0947 360.515 64.7567 348.607" stroke="#263238" stroke-width="1.49411" stroke-linecap="round" stroke-linejoin="round"/>
<path d="M116.139 405.876C116.139 405.876 108.34 384.077 113.046 359.349C117.738 334.622 114.63 320.069 108.011 329.616C99.9729 341.181 89.0659 373.125 111.029 408.804C120.502 424.194 116.154 405.891 116.154 405.891" fill="#ECECEC"/>
<path d="M116.139 405.876C116.139 405.876 108.34 384.077 113.046 359.349C117.738 334.622 114.63 320.069 108.011 329.616C99.9729 341.181 89.0659 373.125 111.029 408.804C120.502 424.194 116.154 405.891 116.154 405.891" stroke="#263238" stroke-width="1.49411" stroke-linecap="round" stroke-linejoin="round"/>
<path d="M112.568 402.141C112.568 402.141 101.9 379.55 106.487 356.316" stroke="#263238" stroke-width="1.49411" stroke-linecap="round" stroke-linejoin="round"/>
<path d="M102.289 379.983C102.289 379.983 94.4895 358.184 99.196 333.456C103.887 308.729 100.78 294.176 94.1608 303.723C86.1225 315.288 75.2154 347.232 97.1789 382.911C106.652 398.301 102.304 379.998 102.304 379.998" fill="#ECECEC"/>
<path d="M102.289 379.983C102.289 379.983 94.4895 358.184 99.196 333.456C103.887 308.729 100.78 294.176 94.1608 303.723C86.1225 315.288 75.2154 347.232 97.1789 382.911C106.652 398.301 102.304 379.998 102.304 379.998" stroke="#263238" stroke-width="1.49411" stroke-linecap="round" stroke-linejoin="round"/>
<path d="M100.451 385.227C100.451 385.227 88.0498 353.657 92.6367 330.423" stroke="#263238" stroke-width="1.49411" stroke-linecap="round" stroke-linejoin="round"/>
<path d="M95.057 313.57H237.087L316.544 187.227H174.514L95.057 313.57Z" fill="#263238" stroke="#263238" stroke-width="1.49411" stroke-linecap="round" stroke-linejoin="round"/>
<path d="M256.839 309.237H402.411V437.82H256.839V309.237Z" fill="#C7C7C7" stroke="#263238" stroke-width="1.49411" stroke-linecap="round" stroke-linejoin="round"/>
<path d="M111.268 437.82H256.84V309.237L182.851 191.56L111.268 309.237V437.82Z" fill="white" stroke="#263238" stroke-width="1.49411" stroke-linecap="round" stroke-linejoin="round"/>
<path d="M225.314 332.276H239.866V375.949H225.314V332.276Z" fill="#C7C7C7" stroke="#263238" stroke-width="1.49411" stroke-linecap="round" stroke-linejoin="round"/>
<path d="M210.746 332.276H225.299V375.949H210.746V332.276Z" fill="#263238" stroke="#263238" stroke-width="1.49411" stroke-linecap="round" stroke-linejoin="round"/>
<path d="M196.194 332.276H210.746V375.949H196.194V332.276Z" fill="#C7C7C7" stroke="#263238" stroke-width="1.49411" stroke-linecap="round" stroke-linejoin="round"/>
<path d="M292.026 332.276H304.158V375.949H292.026V332.276Z" fill="#919191" stroke="#263238" stroke-width="1.49411" stroke-linecap="round" stroke-linejoin="round"/>
<path d="M279.894 332.276H292.026V375.949H279.894V332.276Z" fill="#263238" stroke="#263238" stroke-width="1.49411" stroke-linecap="round" stroke-linejoin="round"/>
<path d="M267.762 332.276H279.894V375.949H267.762V332.276Z" fill="#919191" stroke="#263238" stroke-width="1.49411" stroke-linecap="round" stroke-linejoin="round"/>
<path d="M381.792 332.276H393.925V375.949H381.792V332.276Z" fill="#919191" stroke="#263238" stroke-width="1.49411" stroke-linecap="round" stroke-linejoin="round"/>
<path d="M369.66 332.276H381.792V375.949H369.66V332.276Z" fill="#263238" stroke="#263238" stroke-width="1.49411" stroke-linecap="round" stroke-linejoin="round"/>
<path d="M357.528 332.276H369.66V375.949H357.528V332.276Z" fill="#919191" stroke="#263238" stroke-width="1.49411" stroke-linecap="round" stroke-linejoin="round"/>
<path d="M151.31 332.276H165.863V375.949H151.31V332.276Z" fill="#C7C7C7" stroke="#263238" stroke-width="1.49411" stroke-linecap="round" stroke-linejoin="round"/>
<path d="M136.758 332.276H151.31V375.949H136.758V332.276Z" fill="#263238" stroke="#263238" stroke-width="1.49411" stroke-linecap="round" stroke-linejoin="round"/>
<path d="M122.19 332.276H136.743V375.949H122.19V332.276Z" fill="#C7C7C7" stroke="#263238" stroke-width="1.49411" stroke-linecap="round" stroke-linejoin="round"/>
<path d="M185.272 260.708H194.983V287.393H185.272V260.708Z" fill="#C7C7C7" stroke="#263238" stroke-width="1.49411" stroke-linecap="round" stroke-linejoin="round"/>
<path d="M175.56 260.708H185.271V287.393H175.56V260.708Z" fill="#263238" stroke="#263238" stroke-width="1.49411" stroke-linecap="round" stroke-linejoin="round"/>
<path d="M165.863 260.708H175.575V287.393H165.863V260.708Z" fill="#C7C7C7" stroke="#263238" stroke-width="1.49411" stroke-linecap="round" stroke-linejoin="round"/>
<path d="M410.524 313.57H254.21L174.738 187.227H331.052L410.524 313.57Z" fill="#ECECEC" stroke="#263238" stroke-width="1.49411" stroke-linecap="round" stroke-linejoin="round"/>
<path d="M288.485 244.288H350.207V285.137H288.485V244.288Z" fill="#C7C7C7" stroke="#263238" stroke-width="1.49411" stroke-linecap="round" stroke-linejoin="round"/>
<path d="M288.47 244.288L245.813 215.003L288.47 285.137V244.288Z" fill="white" stroke="#263238" stroke-width="1.49411" stroke-linecap="round" stroke-linejoin="round"/>
<path d="M355.152 245.677H290.487L245.813 215.003H310.463L355.152 245.677Z" fill="#ECECEC" stroke="#263238" stroke-width="1.49411" stroke-linecap="round" stroke-linejoin="round"/>
<path d="M325.375 252.968H335.086V279.653H325.375V252.968Z" fill="#919191" stroke="#263238" stroke-width="1.49411" stroke-linecap="round" stroke-linejoin="round"/>
<path d="M315.678 252.968H325.39V279.653H315.678V252.968Z" fill="#263238" stroke="#263238" stroke-width="1.49411" stroke-linecap="round" stroke-linejoin="round"/>
<path d="M305.966 252.968H315.678V279.653H305.966V252.968Z" fill="#919191" stroke="#263238" stroke-width="1.49411" stroke-linecap="round" stroke-linejoin="round"/>
<path d="M212.375 168.058H217.798V207.697L212.375 198.941V168.058Z" fill="white" stroke="#263238" stroke-width="1.49411" stroke-linecap="round" stroke-linejoin="round"/>
<path d="M217.544 168.058H233.591V207.697H217.544V168.058Z" fill="#C7C7C7" stroke="#263238" stroke-width="1.49411" stroke-linecap="round" stroke-linejoin="round"/>
<path d="M310.941 339.627H348.309V437.82H310.941V339.627Z" fill="#263238" stroke="#263238" stroke-width="1.49411" stroke-linecap="round" stroke-linejoin="round"/>
<path d="M312.914 388.589C312.914 386.766 314.393 385.287 316.216 385.287C318.038 385.287 319.518 386.766 319.518 388.589C319.518 390.412 318.038 391.891 316.216 391.891C314.393 391.891 312.914 390.412 312.914 388.589Z" fill="white" stroke="#263238" stroke-width="1.49411" stroke-linecap="round" stroke-linejoin="round"/>
<path d="M410.121 417.276C410.121 417.276 441.407 400.153 470.632 396.971C499.857 393.788 516.756 407.4 516.621 413.317C516.472 419.233 496.197 419.667 492.342 420.653C488.502 421.639 465 415.154 430.306 423.387C395.628 431.634 391.19 433.323 391.19 433.323L410.121 417.261V417.276Z" fill="white" stroke="#263238" stroke-width="1.49411" stroke-linecap="round" stroke-linejoin="round"/>
<path d="M423.209 416.887C423.209 416.887 455.856 402.514 485.245 401.872C514.634 401.214 530.307 416.23 529.65 422.117C528.993 427.989 508.747 426.689 504.833 427.346C500.918 428.004 478.058 419.517 442.797 424.732C407.536 429.961 402.964 431.261 402.964 431.261L423.209 416.902V416.887Z" fill="white" stroke="#263238" stroke-width="1.49411" stroke-linecap="round" stroke-linejoin="round"/>
<path d="M5.84369 404.8L51.1751 392.518C51.1751 392.518 83.2836 367.014 122.011 369.853C160.738 372.692 195.686 387.797 207.026 396.299C218.366 404.8 232.531 413.302 235.369 415.184C238.208 417.067 276.936 406.683 297.704 415.184C318.487 423.686 334.549 440.689 334.549 440.689C334.549 440.689 422.388 414.243 444.112 410.463C465.836 406.683 491.341 408.58 509.285 421.803C527.229 435.026 523.449 443.527 514.007 445.41C504.564 447.293 502.666 437.85 450.716 452.029C398.766 466.193 335.475 503.038 309.97 517.202C284.466 531.366 241.958 551.208 213.63 542.707C185.287 534.205 107.847 504.921 89.8876 504.921C71.9283 504.921 14.3303 508.701 14.3303 508.701L5.82874 404.8H5.84369Z" fill="white" stroke="#263238" stroke-width="1.49411" stroke-linecap="round" stroke-linejoin="round"/>
<path d="M30.5113 467.284L69.4629 504.697L14.345 508.701L30.5113 467.284Z" fill="#263238" stroke="#263238" stroke-width="1.49411" stroke-linecap="round" stroke-linejoin="round"/>
<path d="M334.549 440.689C334.549 440.689 343.319 452.223 339.629 467.164C337.343 476.398 326.57 474.351 306.982 470.436C287.394 466.522 305.682 463.907 259.963 463.25C214.258 462.592 165.281 461.293 162.666 461.293" stroke="#263238" stroke-width="1.49411" stroke-linecap="round" stroke-linejoin="round"/>
<path d="M334.877 472.737C334.877 472.737 334.011 466.776 327.646 463.085C327.646 463.085 316.783 457.453 309.955 457.453C303.127 457.453 297.494 464.684 299.497 467.105" stroke="#263238" stroke-width="1.49411" stroke-linecap="round" stroke-linejoin="round"/>
<path d="M276.174 461.472V453.434" stroke="#263238" stroke-width="1.49411" stroke-linecap="round" stroke-linejoin="round"/>
<path d="M272.155 445.799C272.155 445.799 270.944 450.221 271.751 457.064" stroke="#263238" stroke-width="1.49411" stroke-linecap="round" stroke-linejoin="round"/>
<path d="M27.0302 386.019H-33.8848V552.269H27.0302C30.7356 552.269 33.7388 549.266 33.7388 545.561V392.713C33.7388 389.007 30.7356 386.004 27.0302 386.004V386.019Z" fill="#ECECEC" stroke="#263238" stroke-width="1.49411" stroke-linecap="round" stroke-linejoin="round"/>
<path d="M24.3558 401.244H-25.9211" stroke="#263238" stroke-width="1.49411" stroke-linecap="round" stroke-linejoin="round"/>
<path d="M-25.234 420.981H25.8796" stroke="#263238" stroke-width="1.49411" stroke-linecap="round" stroke-linejoin="round"/>
<path d="M27.6726 456.84H-7.30459" stroke="#263238" stroke-width="1.49411" stroke-linecap="round" stroke-linejoin="round"/>
</g>
<defs>
<clipPath id="clip0_1034_482">
<rect width="689.205" height="566" fill="white" transform="matrix(-1 0 0 1 546.205 0)"/>
</clipPath>
</defs>
</svg>
