<svg width="510" height="449" viewBox="0 0 510 449" fill="none" xmlns="http://www.w3.org/2000/svg">
<g opacity="0.1" clip-path="url(#clip0_961_1252)">
<path d="M425.411 61.7451C431.351 37.6352 410.404 11.7434 378.625 3.91412C346.845 -3.91514 316.268 9.28294 310.328 33.3929C304.388 57.5028 325.335 83.3946 357.115 91.2239C388.894 99.0531 419.471 85.855 425.411 61.7451Z" fill="white" stroke="#263238" stroke-width="1.63076" stroke-linecap="round" stroke-linejoin="round"/>
<path d="M334.351 67.0192C334.351 67.0192 322.593 70.2318 317.244 63.8065C311.896 57.3976 319.919 38.6765 328.741 30.115C337.564 21.5535 362.433 17.819 375.267 19.1562C388.101 20.4935 403.349 30.115 405.485 40.2746C407.621 50.4343 403.349 60.333 403.072 63.5293C402.811 66.7419 395.325 66.7419 394.249 65.1275C393.173 63.5293 377.142 39.9974 373.93 38.9211C370.717 37.8448 368.581 39.9974 365.107 41.8565C361.634 43.7318 335.167 54.9515 335.167 54.9515L334.368 66.9865L334.351 67.0192Z" fill="#263238" stroke="#263238" stroke-width="1.63076" stroke-linecap="round" stroke-linejoin="round"/>
<path d="M373.293 335.36L368.009 301.033L355.86 342.748C352.925 347.77 349.451 354.245 347.87 359.284C344.853 368.84 360.051 398.944 361.062 395.764C362.073 392.584 367.797 351.717 367.797 351.717C367.797 351.717 368.857 344.705 368.401 339.193L373.309 335.344L373.293 335.36Z" fill="white" stroke="#263238" stroke-width="1.63076" stroke-linecap="round" stroke-linejoin="round"/>
<path d="M366.248 359.66C366.248 359.66 355.257 363.394 355.257 386.747C355.257 393.107 364.324 459.952 364.324 471.139V517.518H425.054L432.555 473.487L438.181 516.588H499.09C499.09 516.588 505.173 448.651 505.646 440.22C506.119 431.789 510.326 413.508 508.924 388.215C507.522 362.921 501.895 353.072 501.895 353.072L367.618 350.723L366.265 359.66H366.248Z" fill="#263238" stroke="#263238" stroke-width="1.63076" stroke-linecap="round" stroke-linejoin="round"/>
<path d="M377.517 124.585C377.517 124.585 348.897 148.965 342.701 155.651C336.275 162.582 338.95 200.758 347.169 227.062C355.388 253.366 364.113 294.054 364.52 302.273C364.928 310.492 366.249 359.66 366.249 359.66C366.249 359.66 417.324 379.799 448.553 374.875C479.799 369.95 501.994 356.789 501.994 356.789C501.994 356.789 497.069 272.512 497.069 254.019C497.069 235.526 492.959 174.274 488.85 152.895C484.74 131.516 470.357 118.779 459.659 117.54C448.977 116.301 408.991 114.507 408.991 114.507L377.517 124.585Z" fill="white" stroke="#263238" stroke-width="1.63076" stroke-linecap="round" stroke-linejoin="round"/>
<path d="M363.052 118.812C363.052 118.812 375.968 155.064 378.12 155.423C380.273 155.782 386.013 150.041 386.013 150.041L408.974 114.523L399.842 81.7449C399.842 81.7449 394.624 99.0962 384.578 110.218C374.533 121.34 363.052 118.828 363.052 118.828V118.812Z" fill="white" stroke="#263238" stroke-width="1.63076" stroke-linecap="round" stroke-linejoin="round"/>
<path d="M388.019 111.734L371.075 137.957L363.052 118.812L388.019 111.734Z" fill="#263238" stroke="#263238" stroke-width="1.63076" stroke-linecap="round" stroke-linejoin="round"/>
<path d="M373.114 29.0547C373.114 29.0547 358.404 40.8125 346.647 45.1014C334.889 49.3903 329.002 50.9885 329.002 50.9885C329.002 50.9885 332.753 74.7813 333.813 81.4674C334.873 88.1536 337.286 99.3895 342.097 104.2C346.908 109.011 358.682 120.508 364.014 123.443C369.363 126.379 378.447 123.981 381.121 122.644C383.795 121.307 399.304 97.7751 400.103 94.5625C400.902 91.3499 399.842 81.7284 399.842 81.7284C399.842 81.7284 406.789 77.9776 407.866 74.2431C408.942 70.4924 406.528 56.5983 404.392 54.7229C402.256 52.8475 398.782 54.9838 398.244 57.1364C397.706 59.2727 396.108 62.4853 396.108 62.4853C396.108 62.4853 395.847 56.8755 393.694 53.402C391.558 49.9285 391.558 48.5912 386.47 44.5796C381.382 40.5679 373.098 29.071 373.098 29.071L373.114 29.0547Z" fill="white" stroke="#263238" stroke-width="1.63076" stroke-linecap="round" stroke-linejoin="round"/>
<path d="M355.209 81.7281L356.008 88.9524C356.008 88.9524 364.83 88.6915 368.842 84.4026" stroke="#263238" stroke-width="1.63076" stroke-linecap="round" stroke-linejoin="round"/>
<path d="M351.196 96.4217C351.196 96.4217 357.605 98.558 367.504 95.6226C377.403 92.6872 379.8 85.7239 379.8 85.7239" stroke="#263238" stroke-width="1.63076" stroke-linecap="round" stroke-linejoin="round"/>
<path d="M349.321 63.8059C349.321 63.8059 337.824 60.0551 334.35 67.0185" stroke="#263238" stroke-width="1.63076" stroke-linecap="round" stroke-linejoin="round"/>
<path d="M361.094 59.5332C361.094 59.5332 368.841 51.7871 376.864 54.7225" stroke="#263238" stroke-width="1.63076" stroke-linecap="round" stroke-linejoin="round"/>
<path d="M348.131 74.0802C348.897 76.1676 348.669 78.1571 347.625 78.5322C346.582 78.9073 345.13 77.5374 344.364 75.4501C343.597 73.3627 343.826 71.3732 344.869 70.9981C345.913 70.623 347.364 71.9929 348.131 74.0802Z" fill="#263238"/>
<path d="M373.016 66.4479C373.782 68.5353 373.554 70.5248 372.51 70.8999C371.467 71.275 370.015 69.9051 369.249 67.8177C368.482 65.7304 368.711 63.7408 369.754 63.3658C370.798 62.9907 372.249 64.3605 373.016 66.4479Z" fill="#263238"/>
<path d="M433.762 162.745L457.197 246.598C457.197 246.598 455.957 250.708 456.789 253.17C457.604 255.633 458.028 257.688 458.028 257.688C458.028 257.688 451.456 290.58 445.7 310.72C439.943 330.86 419.395 374.842 420.211 379.783C421.026 384.708 416.101 421.71 418.564 423.357C421.026 425.004 426.783 427.466 428.43 427.466C430.077 427.466 437.481 428.282 439.943 428.282C442.406 428.282 451.456 427.874 453.103 424.58C454.75 421.286 454.343 419.231 451.864 420.063C449.401 420.878 445.292 421.302 445.292 421.302L443.645 418.008C443.645 418.008 445.7 403.625 443.645 392.927C441.59 382.245 440.775 378.544 440.775 378.544C440.775 378.544 492.16 295.097 494.215 279.475C496.27 263.852 499.564 246.582 499.564 238.771C499.564 230.959 491.345 160.673 488.882 152.862C486.42 145.051 485.18 137.239 478.608 130.667C472.036 124.095 467.503 124.095 464.225 124.095" fill="white"/>
<path d="M433.762 162.745L457.197 246.598C457.197 246.598 455.957 250.708 456.789 253.17C457.604 255.633 458.028 257.688 458.028 257.688C458.028 257.688 451.456 290.58 445.7 310.72C439.943 330.86 419.395 374.842 420.211 379.783C421.026 384.708 416.101 421.71 418.564 423.357C421.026 425.004 426.783 427.466 428.43 427.466C430.077 427.466 437.481 428.282 439.943 428.282C442.406 428.282 451.456 427.874 453.103 424.58C454.75 421.286 454.343 419.231 451.864 420.063C449.401 420.878 445.292 421.302 445.292 421.302L443.645 418.008C443.645 418.008 445.7 403.625 443.645 392.927C441.59 382.245 440.775 378.544 440.775 378.544C440.775 378.544 492.16 295.097 494.215 279.475C496.27 263.852 499.564 246.582 499.564 238.771C499.564 230.959 491.345 160.673 488.882 152.862C486.42 145.051 485.18 137.239 478.608 130.667C472.036 124.095 467.503 124.095 464.225 124.095" stroke="#263238" stroke-width="1.63076" stroke-linecap="round" stroke-linejoin="round"/>
<path d="M461.322 255.469C461.322 255.469 473.39 250.446 483.713 254.963" stroke="#263238" stroke-width="1.63076" stroke-linecap="round" stroke-linejoin="round"/>
<path d="M469.117 246.403C469.117 246.403 482.946 243.142 491.752 253.448" stroke="#263238" stroke-width="1.63076" stroke-linecap="round" stroke-linejoin="round"/>
<path d="M449.564 295.896C448.276 301.147 446.955 306.252 445.683 310.736C439.927 330.876 419.379 374.858 420.194 379.799C421.01 384.724 416.085 421.726 418.547 423.373C421.01 425.02 426.766 427.483 428.413 427.483C430.06 427.483 437.464 428.298 439.927 428.298C442.389 428.298 451.44 427.89 453.087 424.596C454.734 421.302 454.326 419.247 451.847 420.079C449.385 420.894 445.275 421.318 445.275 421.318L443.628 418.024C443.628 418.024 445.683 403.641 443.628 392.943C441.574 382.245 440.758 378.56 440.758 378.56C440.758 378.56 465.448 338.459 481.283 308.649C471.042 298 458.126 295.88 449.581 295.88L449.564 295.896Z" fill="white" stroke="#263238" stroke-width="1.63076" stroke-linecap="round" stroke-linejoin="round"/>
<path d="M435.247 420.683C435.247 420.683 439.324 424.124 440.727 425.233C442.129 426.342 442.602 427.435 445.277 427.745" fill="white"/>
<path d="M435.247 420.683C435.247 420.683 439.324 424.124 440.727 425.233C442.129 426.342 442.602 427.435 445.277 427.745" stroke="#263238" stroke-width="1.63076" stroke-linecap="round" stroke-linejoin="round"/>
<path d="M427.256 422.722C427.256 422.722 433.371 427.271 437.138 428.201L427.256 422.722Z" fill="white"/>
<path d="M427.256 422.722C427.256 422.722 433.371 427.271 437.138 428.201" stroke="#263238" stroke-width="1.63076" stroke-linecap="round" stroke-linejoin="round"/>
<path d="M420.505 421.792C420.505 421.792 423.326 425.559 426.457 426.961L420.505 421.792Z" fill="white"/>
<path d="M420.505 421.792C420.505 421.792 423.326 425.559 426.457 426.961" stroke="#263238" stroke-width="1.63076" stroke-linecap="round" stroke-linejoin="round"/>
<path d="M366.085 349.516C366.085 349.516 367.569 360.557 368.172 362.35C368.776 364.144 367.879 367.422 368.466 374.288C369.069 381.153 370.847 388.312 366.378 387.122C361.91 385.931 359.806 374.288 360.116 371.303C360.41 368.319 355.045 359.366 355.045 359.366" fill="white"/>
<path d="M366.085 349.516C366.085 349.516 367.569 360.557 368.172 362.35C368.776 364.144 367.879 367.422 368.466 374.288C369.069 381.153 370.847 388.312 366.378 387.122C361.91 385.931 359.806 374.288 360.116 371.303C360.41 368.319 355.045 359.366 355.045 359.366" stroke="#263238" stroke-width="1.63076" stroke-linecap="round" stroke-linejoin="round"/>
<path d="M279.199 288.982C275.025 280.991 244.024 171.094 244.024 171.094C238.186 187.092 234.451 265.972 234.451 265.972L237.843 307.801L237.24 315.645C245.345 310.1 265.191 299.125 278.384 313.737C278.596 312.97 278.743 312.318 278.824 311.813C280.537 301.278 283.374 297.005 279.199 288.998V288.982Z" fill="white" stroke="#263238" stroke-width="1.63076" stroke-linecap="round" stroke-linejoin="round"/>
<path d="M269.203 299.565C271.306 299.924 273.345 300.495 275.269 301.343" stroke="#263238" stroke-width="1.63076" stroke-linecap="round" stroke-linejoin="round"/>
<path d="M240.126 303.446C240.126 303.446 250.547 299.353 261.62 299.076" stroke="#263238" stroke-width="1.63076" stroke-linecap="round" stroke-linejoin="round"/>
<path d="M273.231 295.162C273.231 295.162 264.082 289.618 256.76 291.803" stroke="#263238" stroke-width="1.63076" stroke-linecap="round" stroke-linejoin="round"/>
<path d="M88.0568 516.41L89.9974 432.622L95.9497 386.651L234.532 381.921L246.893 414.879L254.509 517.503H184.353L171.112 449.533L167.312 456.072L165.861 516.052L88.0568 516.41Z" fill="#263238" stroke="#263238" stroke-width="1.63076" stroke-linecap="round" stroke-linejoin="round"/>
<path d="M131.711 155.473C131.711 155.473 71.3406 171.471 67.6713 173.281C63.9858 175.091 72.107 229.983 77.7984 249.976C83.4898 269.969 97.3349 343.386 97.3349 343.386L96.4054 396.451C96.4054 396.451 155.618 397.902 179.313 395C203.008 392.097 228.97 385.541 228.97 385.541C228.97 385.541 237.385 338.657 234.498 307.754C231.612 276.851 240.01 200.156 240.141 195.068C240.271 189.98 243.99 171.079 243.99 171.079C243.99 171.079 198.883 157.267 187.288 155.815C175.693 154.364 148.443 153.63 131.679 155.457L131.711 155.473Z" fill="white" stroke="#263238" stroke-width="1.63076" stroke-linecap="round" stroke-linejoin="round"/>
<path d="M120.346 169.008C120.346 169.008 127.864 189.735 145.623 202.112" stroke="#263238" stroke-width="1.63076" stroke-linecap="round" stroke-linejoin="round"/>
<path d="M182.608 165.339C182.608 165.339 179.412 173.362 174.177 182.054" stroke="#263238" stroke-width="1.63076" stroke-linecap="round" stroke-linejoin="round"/>
<path d="M173.069 186.392L169.954 190.746" stroke="#263238" stroke-width="1.63076" stroke-linecap="round" stroke-linejoin="round"/>
<path d="M151.347 390.548C165.371 389.717 191.089 387.466 207.788 381.644" stroke="#263238" stroke-width="1.63076" stroke-linecap="round" stroke-linejoin="round"/>
<path d="M141.366 391.003C141.366 391.003 142.964 390.971 145.704 390.84" stroke="#263238" stroke-width="1.63076" stroke-linecap="round" stroke-linejoin="round"/>
<path d="M199.128 375.413C180.717 377.81 152.798 379.979 131.043 375.283" stroke="#263238" stroke-width="1.63076" stroke-linecap="round" stroke-linejoin="round"/>
<path d="M218.714 372.282C218.714 372.282 214.066 373.245 206.597 374.37" stroke="#263238" stroke-width="1.63076" stroke-linecap="round" stroke-linejoin="round"/>
<path d="M217.18 346.729C206.042 353.171 184.761 364.129 163.659 367.603" stroke="#263238" stroke-width="1.63076" stroke-linecap="round" stroke-linejoin="round"/>
<path d="M225.138 341.852C225.138 341.852 223.638 342.863 220.964 344.494" stroke="#263238" stroke-width="1.63076" stroke-linecap="round" stroke-linejoin="round"/>
<path d="M123.167 134.582L125.695 163.773C125.695 163.773 134.615 184.924 155.375 183.554C175.727 182.217 178.728 156.32 178.728 156.32L174.618 125.515C174.618 125.515 156.745 140.436 146.732 139.132C136.719 137.827 123.167 134.598 123.167 134.598V134.582Z" fill="white" stroke="#263238" stroke-width="1.63076" stroke-linecap="round" stroke-linejoin="round"/>
<path d="M102.489 100.026C102.489 100.026 98.7871 95.3132 95.9985 99.5695C93.2098 103.826 96.5203 115.274 101.608 117.753C106.713 120.215 108.05 120.215 108.05 120.215C108.05 120.215 113.839 131.663 116.889 135.022C119.954 138.382 142.231 154.314 147.596 155.211C152.961 156.108 160.626 154.543 163.626 151.395C166.627 148.248 176.118 126.705 177.586 121.552C179.053 116.383 179.314 115.274 179.379 112.126C179.461 108.979 179.298 106.288 179.298 106.288C179.298 106.288 184.647 98.428 185.25 92.1495C185.854 85.8711 184.402 81.1582 181.043 80.2613C177.7 79.3643 173.949 86.0994 173.949 86.0994L162.664 51.5435C162.664 51.5435 158.848 42.1177 155.521 40.9925C152.178 39.8673 128.108 42.7863 117.9 47.0589C107.691 51.3152 97.7108 55.8161 96.928 60.529C96.1452 65.2419 102.473 100.026 102.473 100.026H102.489Z" fill="white" stroke="#263238" stroke-width="1.63076" stroke-linecap="round" stroke-linejoin="round"/>
<path d="M120.949 51.6579C120.949 51.6579 101.69 55.4902 100.565 58.6212C99.4393 61.7523 97.9064 67.6883 99.8796 72.2218C101.869 76.7553 104.087 100.108 104.087 100.108C104.087 100.108 107.039 107.43 104.984 106.386C102.913 105.343 101.38 96.6343 100.711 95.5743C100.043 94.5306 91.3834 77.799 88.7415 71.5206C86.0997 65.2421 91.8237 59.3225 93.2587 57.92C94.6938 56.5338 96.1289 54.4302 96.1289 54.4302C96.1289 54.4302 94.6286 44.3194 99.2762 39.7859C103.924 35.2524 137.55 28.289 140.355 27.2453C143.176 26.2016 146.095 20.282 148.574 18.8795C151.053 17.4934 158.277 20.9669 162.599 29.6915C166.92 38.3998 166.513 40.8459 165.078 42.5908L163.642 44.3357C163.642 44.3357 168.502 45.037 170.443 51.6579C172.367 58.2788 175.009 64.5572 174.878 69.7757C174.748 75.0104 173.982 85.0559 173.949 86.0996C173.916 87.1433 172.726 86.1485 171.764 82.675C170.802 79.1852 162.012 53.7452 160.674 50.9566C159.354 48.168 157.674 45.3794 157.005 44.3357C156.337 43.292 127.733 44.3357 120.933 51.6579H120.949Z" fill="#263238" stroke="#263238" stroke-width="1.63076" stroke-linecap="round" stroke-linejoin="round"/>
<path d="M147.612 155.228C152.978 156.125 160.642 154.559 163.643 151.412C166.643 148.264 176.134 126.722 177.602 121.569C179.07 116.399 179.331 115.29 179.396 112.143C179.478 108.996 179.314 106.305 179.314 106.305L174.585 85.1212C174.422 85.3821 174.275 85.5941 174.178 85.7572C174.716 92.2966 175.694 104.935 175.498 106.745C175.221 109.208 172.449 111.898 169.758 112.355C167.051 112.812 154.315 110.789 148.689 111.23C143.063 111.686 141.22 113.692 136.898 115.943C132.577 118.193 123.705 123.575 121.439 124.243C119.172 124.912 114.948 123.346 113.22 121.096C111.475 118.845 104.104 100.092 104.104 100.092C104.104 101.298 102.864 103.598 102.864 103.598L108.066 120.199C108.066 120.199 113.856 131.647 116.905 135.006C119.971 138.366 142.247 154.298 147.612 155.195V155.228Z" fill="#263238" stroke="#263238" stroke-width="1.63076" stroke-linecap="round" stroke-linejoin="round"/>
<path d="M144.954 79.6096C144.954 79.6096 141.252 83.8659 141.904 85.2194C142.54 86.573 150.922 111.246 150.629 113.937C150.335 116.628 146.715 117.981 143.829 117.085C140.926 116.188 139.116 108.115 139.116 108.115" fill="white"/>
<path d="M144.954 79.6096C144.954 79.6096 141.252 83.8659 141.904 85.2194C142.54 86.573 150.922 111.246 150.629 113.937C150.335 116.628 146.715 117.981 143.829 117.085C140.926 116.188 139.116 108.115 139.116 108.115" stroke="#263238" stroke-width="1.63076" stroke-linecap="round" stroke-linejoin="round"/>
<path d="M148.818 77.3582C148.818 77.3582 156.809 71.7483 163.903 75.5643" stroke="#263238" stroke-width="4.89229" stroke-linecap="round" stroke-linejoin="round"/>
<path d="M127.831 82.3C127.831 82.3 115.551 79.6092 110.17 89.035" stroke="#263238" stroke-width="4.89229" stroke-linecap="round" stroke-linejoin="round"/>
<path d="M126.591 93.7647C127.031 95.6237 126.461 97.3686 125.319 97.6785C124.178 97.972 122.889 96.7163 122.433 94.8573C121.992 92.9982 122.563 91.2533 123.705 90.9434C124.846 90.6499 126.134 91.9056 126.591 93.7647Z" fill="#263238" stroke="#263238" stroke-width="1.63076" stroke-linecap="round" stroke-linejoin="round"/>
<path d="M156.076 86.0185C156.516 87.8775 155.945 89.6225 154.804 89.9323C153.662 90.2258 152.374 88.9702 151.917 87.1111C151.477 85.252 152.048 83.5071 153.189 83.1973C154.331 82.8874 155.619 84.1594 156.076 86.0185Z" fill="#263238" stroke="#263238" stroke-width="1.63076" stroke-linecap="round" stroke-linejoin="round"/>
<path d="M135.251 127.847C135.251 127.847 150.89 130.766 160.12 120.444" stroke="#858585" stroke-width="1.63076" stroke-linecap="round" stroke-linejoin="round"/>
<path d="M278.808 311.797C278.776 312.025 278.711 312.302 278.645 312.58C278.711 312.286 278.76 312.025 278.808 311.797Z" stroke="#263238" stroke-width="1.63076" stroke-linecap="round" stroke-linejoin="round"/>
<path d="M278.368 313.721C265.176 299.109 245.329 310.084 237.224 315.629L233.017 354.278L231.027 361.551C231.027 361.551 216.106 377.549 214.198 380.811C212.306 384.089 209.338 386.633 207.104 388.443C204.886 390.253 200.124 391.721 199.7 393.889C199.276 396.075 206.533 397.167 208.735 396.075C210.936 394.982 216.53 389.16 216.53 389.16L213.024 398.619L241.432 410.98C241.432 410.98 243.095 402.614 243.943 397.526C244.791 392.438 246.177 380.436 246.585 378.267C246.993 376.147 275.515 325.87 278.58 312.726C278.515 313.02 278.434 313.346 278.336 313.705L278.368 313.721Z" fill="white" stroke="#263238" stroke-width="1.63076" stroke-linecap="round" stroke-linejoin="round"/>
<path d="M67.6721 173.28C67.6721 173.28 60.2358 180.178 58.6214 187.093C57.0069 194.007 32.3498 280.454 26.5769 293.533C20.804 306.612 19.8255 317.163 22.9729 322.251C26.1203 327.339 82.9524 367.749 82.9524 367.749C82.9524 367.749 89.0025 388.101 90.6985 393.189C92.3945 398.277 95.444 407.001 95.444 407.001L118.242 396.467C118.242 396.467 122.482 401.196 125.352 403.381C128.206 405.566 131.81 406.659 132.593 404.474C133.376 402.288 129.168 396.108 129.168 396.108C129.168 396.108 127.097 391.754 126.82 388.117C126.543 384.48 121.259 377.941 119.155 374.663C117.052 371.385 99.5372 359.399 99.5372 359.399L63.8072 303.366L77.8481 249.991C77.8481 249.991 65.1771 188.202 67.721 173.297L67.6721 173.28Z" fill="white" stroke="#263238" stroke-width="1.63076" stroke-linecap="round" stroke-linejoin="round"/>
<path d="M63.7584 303.35L79.9355 258.064C79.9355 258.064 65.1119 188.185 67.6559 173.28C67.6559 173.28 60.2196 180.178 58.6051 187.093C56.9907 194.007 32.3335 280.454 26.5606 293.533C20.7877 306.612 19.8093 317.163 22.9566 322.251C23.8536 323.702 28.7622 330.095 38.4652 335.411C41.7757 329.083 50.3698 314.374 69.0257 313.102L63.7584 303.35Z" fill="white" stroke="#263238" stroke-width="1.63076" stroke-linecap="round" stroke-linejoin="round"/>
<path d="M36.9316 300.806C36.9316 300.806 47.8741 299.355 57.9522 303.35" stroke="#263238" stroke-width="1.63076" stroke-linecap="round" stroke-linejoin="round"/>
<path d="M51.5439 297.528C51.5439 297.528 60.5621 300.072 63.7584 303.35" stroke="#263238" stroke-width="1.63076" stroke-linecap="round" stroke-linejoin="round"/>
<path d="M244.773 360.279C244.773 360.279 224.209 417.796 231.873 448.83C239.538 479.863 246.518 517.501 246.518 517.501H352.142C352.142 517.501 363.998 479.162 362.595 456.152C361.193 433.142 358.404 407.343 358.404 407.343L352.827 341.102H247.545L244.756 360.279H244.773Z" fill="#263238" stroke="#263238" stroke-width="1.63076" stroke-linecap="round" stroke-linejoin="round"/>
<path d="M294.626 417.11C294.626 417.11 312.059 454.063 319.723 482.993C327.388 511.923 327.045 517.158 327.045 517.158" stroke="#858585" stroke-width="1.63076" stroke-linecap="round" stroke-linejoin="round"/>
<path d="M314.146 448.129C314.146 448.129 332.622 432.099 338.199 412.921" stroke="#858585" stroke-width="1.63076" stroke-linecap="round" stroke-linejoin="round"/>
<path d="M306.122 185.984L256.629 202.373C256.629 202.373 274.404 230.618 280.34 271.045C286.276 311.471 283.83 352.616 283.83 352.616C283.83 352.616 296.729 360.28 321.125 357.492C345.522 354.703 352.844 341.102 352.844 341.102C352.844 341.102 351.099 273.475 342.032 246.632C332.965 219.79 306.122 185.968 306.122 185.968V185.984Z" fill="white" stroke="#263238" stroke-width="1.63076" stroke-linecap="round" stroke-linejoin="round"/>
<path d="M232.461 65.8772C232.461 65.8772 220.524 64.9313 215.485 78.4504C210.462 91.9694 196.323 139.098 199.144 149.47C201.966 159.842 208.26 163.299 210.772 174.617C213.283 185.934 207.624 192.848 207.624 192.848C207.624 192.848 212.027 199.127 222.709 199.453C233.39 199.763 249.421 191.283 260.102 188.772C270.784 186.26 294.348 184.059 309.123 181.857C323.898 179.656 327.029 168.664 327.029 168.664C327.029 168.664 316.967 169.61 316.347 163.315C315.711 157.037 323.882 133.456 320.424 117.116C316.967 100.776 293.403 84.4353 283.031 76.2651C272.659 68.095 262.924 61.4904 251.916 61.1806C240.908 60.8707 234.32 61.8166 232.428 65.8935L232.461 65.8772Z" fill="#263238" stroke="#263238" stroke-width="1.63076" stroke-linecap="round" stroke-linejoin="round"/>
<path d="M227.128 124.944C227.128 124.944 217.703 141.285 218.958 155.733C220.214 170.182 231.205 171.128 233.407 169.252" stroke="#858585" stroke-width="1.63076" stroke-linecap="round" stroke-linejoin="round"/>
<path d="M287.466 101.07C287.466 101.07 310.084 122.123 313.541 144.432" stroke="#858585" stroke-width="1.63076" stroke-linecap="round" stroke-linejoin="round"/>
<path d="M253.726 161.001L264.309 189.996C264.309 189.996 286.488 215.811 296.093 212.158C305.698 208.521 296.419 182.69 296.093 179.053C295.767 175.417 292.782 157.527 292.782 157.527C292.782 157.527 286.161 168.127 281.856 168.127C277.551 168.127 253.742 161.001 253.742 161.001H253.726Z" fill="white" stroke="#263238" stroke-width="1.63076" stroke-linecap="round" stroke-linejoin="round"/>
<path d="M245.441 84.8116C245.441 84.8116 228.155 116.4 228.155 120.721C228.155 125.043 241.462 151.657 245.114 156.973C248.767 162.289 274.044 173.933 279.703 174.259C285.362 174.585 291.004 168.274 292.341 163.284C293.679 158.294 299.305 144.644 298.93 137.061C298.783 134.224 288.542 102.342 285.541 100.679C282.541 99.0156 245.441 84.8116 245.441 84.8116Z" fill="white" stroke="#263238" stroke-width="1.63076" stroke-linecap="round" stroke-linejoin="round"/>
<path d="M256.742 128.973C256.742 128.973 250.398 126.347 246.697 132.039" stroke="#263238" stroke-width="1.63076" stroke-linecap="round" stroke-linejoin="round"/>
<path d="M273.572 122.857C273.572 122.857 274.877 116.089 282.753 118.046" stroke="#263238" stroke-width="1.63076" stroke-linecap="round" stroke-linejoin="round"/>
<path d="M252.812 120.019C252.812 120.019 242.766 119.367 239.701 126.363" stroke="#263238" stroke-width="1.63076" stroke-linecap="round" stroke-linejoin="round"/>
<path d="M266.364 113.676C266.364 113.676 271.827 106.239 279.475 108.865" stroke="#263238" stroke-width="1.63076" stroke-linecap="round" stroke-linejoin="round"/>
<path d="M275.545 137.273C275.545 137.273 272.267 142.084 267.456 140.763" stroke="#263238" stroke-width="1.63076" stroke-linecap="round" stroke-linejoin="round"/>
<path d="M284.938 140.338C284.938 140.338 278.594 149.732 261.112 151.052C261.112 151.052 272.691 159.353 279.475 157.168C286.242 154.983 284.938 140.338 284.938 140.338Z" fill="white" stroke="#263238" stroke-width="1.63076" stroke-linecap="round" stroke-linejoin="round"/>
<path d="M234.449 137.502C234.449 137.502 228.774 134.876 227.894 141.872C227.013 148.868 241.657 151.265 241.657 151.265L234.449 137.502Z" fill="white" stroke="#263238" stroke-width="1.63076" stroke-linecap="round" stroke-linejoin="round"/>
<path d="M291.021 112.306C291.021 112.306 291.086 109.453 293.858 110.17C296.647 110.888 301.311 119.253 300.822 124.244C300.332 129.25 297.022 129.364 297.022 129.364L291.005 112.306H291.021Z" fill="white" stroke="#263238" stroke-width="1.63076" stroke-linecap="round" stroke-linejoin="round"/>
<path d="M246.746 189.653C246.746 189.653 208.015 215.485 206.352 220.116C204.688 224.747 232.835 362.156 232.835 362.156C232.835 362.156 195.425 446.254 204.688 460.817C213.951 475.379 256.008 489.29 257.998 491.932C259.987 494.574 276.866 422.07 284.155 394.591C291.445 367.113 303.366 317.456 304.018 293.941C304.687 270.441 295.081 239.31 291.771 229.053C288.46 218.795 282.508 200.906 282.508 200.906L246.746 189.653Z" fill="#A3A3A3" stroke="#263238" stroke-width="1.63076" stroke-linecap="round" stroke-linejoin="round"/>
<path d="M256.579 173.28C256.579 173.28 283.829 199.585 282.508 200.906C281.187 202.227 265.63 225.4 265.63 225.4L241.788 190.632L256.579 173.264V173.28Z" fill="#A3A3A3" stroke="#263238" stroke-width="1.63076" stroke-linecap="round" stroke-linejoin="round"/>
<path d="M300.708 199.585C300.708 199.585 324.549 228.726 334.481 249.584C344.412 270.441 349.043 307.525 349.043 322.088V349.566C349.043 349.566 359.301 419.085 362.611 430.68C365.922 442.275 371.222 463.785 371.222 463.785C371.222 463.785 375.201 462.464 374.858 447.885C374.532 433.322 369.232 374.06 364.601 350.544C359.97 327.045 358.045 288.07 355.061 281.106L352.077 274.159L387.448 263.886C387.448 263.886 365.384 243.909 358.225 213.316C354.963 199.405 347.723 191.953 343.417 188.968C339.112 185.984 307.655 182.674 302.371 183.016C297.071 183.342 300.708 199.568 300.708 199.568V199.585Z" fill="#A3A3A3" stroke="#263238" stroke-width="1.63076" stroke-linecap="round" stroke-linejoin="round"/>
<path d="M300.708 199.584C300.708 199.584 301.703 195.279 303.692 195.947C305.682 196.616 322.56 206.205 324.223 205.21C325.887 204.215 307.003 181.368 303.366 178.058C299.729 174.747 296.076 172.758 296.076 172.758V179.053L300.708 199.584Z" fill="#A3A3A3" stroke="#263238" stroke-width="1.63076" stroke-linecap="round" stroke-linejoin="round"/>
<path d="M332.834 199.91C332.834 199.91 344.428 237.32 345.749 253.546L332.834 199.91Z" fill="white"/>
<path d="M332.834 199.91C332.834 199.91 344.428 237.32 345.749 253.546" stroke="#263238" stroke-width="1.63076" stroke-linecap="round" stroke-linejoin="round"/>
<path d="M339.438 274.779C339.438 274.779 346.173 247.823 347.788 246.208C349.402 244.594 362.611 238.935 363.688 238.658C364.764 238.381 373.391 244.594 374.744 245.931C376.098 247.285 382.017 251.052 380.941 253.204C379.865 255.357 376.359 253.742 374.467 253.742C372.575 253.742 363.688 259.401 363.15 260.217C362.611 261.032 359.643 267.767 358.567 269.659C357.491 271.55 339.422 274.779 339.422 274.779H339.438Z" fill="white" stroke="#263238" stroke-width="1.63076" stroke-linecap="round" stroke-linejoin="round"/>
<path d="M377.207 248.117C377.207 248.117 373.652 246.698 372.592 247.236C371.532 247.774 358.943 253.629 358.225 254.509C357.508 255.39 356.627 256.809 356.627 256.809" stroke="#263238" stroke-width="1.63076" stroke-linecap="round" stroke-linejoin="round"/>
<path d="M353.268 252.731C353.268 252.731 355.388 249.894 357.524 248.654C359.66 247.415 367.097 244.578 367.994 244.219C368.874 243.86 372.25 244.219 372.25 244.219" stroke="#263238" stroke-width="1.63076" stroke-linecap="round" stroke-linejoin="round"/>
<path d="M366.754 241.022C366.754 241.022 352.566 246.159 351.686 247.415L350.805 248.654" stroke="#263238" stroke-width="1.63076" stroke-linecap="round" stroke-linejoin="round"/>
<path d="M353.023 270.425C353.023 270.425 366.591 260.819 372.559 258.178C378.528 255.536 390.775 260.493 393.091 263.478C395.406 266.462 398.391 280.698 398.065 291.282C397.738 301.882 397.396 306.513 390.123 308.829C382.833 311.145 372.902 312.466 371.907 312.808C370.912 313.134 369.918 292.945 363.623 282.019C357.328 271.093 353.023 270.425 353.023 270.425Z" fill="#A3A3A3" stroke="#263238" stroke-width="1.63076" stroke-linecap="round" stroke-linejoin="round"/>
<path d="M335.802 277.062C335.802 277.062 339.113 314.798 341.754 319.445C344.396 324.077 351.017 323.082 357.981 321.435C364.944 319.788 375.201 317.456 375.528 315.14C375.854 312.824 375.528 290.646 371.891 281.367C368.254 272.104 361.96 265.467 356.986 266.804C352.012 268.125 335.802 271.436 335.802 277.062Z" fill="#A3A3A3" stroke="#263238" stroke-width="1.63076" stroke-linecap="round" stroke-linejoin="round"/>
<path d="M305.192 339.21L345.635 304.426L328.659 293.108L296.305 307.394C296.305 307.394 304.931 330.306 305.209 339.21H305.192Z" fill="white" stroke="#263238" stroke-width="1.63076" stroke-linecap="round" stroke-linejoin="round"/>
<path d="M285.509 358.356C285.509 358.356 289.814 358.356 295.75 353.496C301.686 348.637 307.068 345.408 305.453 331.661C303.839 317.913 297.104 296.876 293.858 294.186C290.63 291.495 269.87 294.724 269.332 296.077C268.794 297.431 285.77 321.957 287.123 336.243C288.477 350.528 285.509 358.356 285.509 358.356Z" fill="#A3A3A3" stroke="#263238" stroke-width="1.63076" stroke-linecap="round" stroke-linejoin="round"/>
<path d="M214.343 220.866C214.343 220.866 211.31 215.045 206.352 220.116C201.395 225.188 198.704 239.473 202.21 256.727C205.716 273.98 215.419 346.223 219.186 355.127C222.953 364.031 226.46 372.381 233.211 372.658C239.946 372.935 262.059 369.967 277.16 364.031C292.261 358.095 291.446 340.304 286.325 324.942C281.204 309.58 271.762 296.909 266.103 293.126C260.445 289.358 257.477 284.499 251.541 273.442C245.605 262.386 232.135 234.353 228.351 230.309" fill="#A3A3A3"/>
<path d="M214.343 220.866C214.343 220.866 211.31 215.045 206.352 220.116C201.395 225.188 198.704 239.473 202.21 256.727C205.716 273.98 215.419 346.223 219.186 355.127C222.953 364.031 226.46 372.381 233.211 372.658C239.946 372.935 262.059 369.967 277.16 364.031C292.261 358.095 291.446 340.304 286.325 324.942C281.204 309.58 271.762 296.909 266.103 293.126C260.445 289.358 257.477 284.499 251.541 273.442C245.605 262.386 232.135 234.353 228.351 230.309" stroke="#263238" stroke-width="1.63076" stroke-linecap="round" stroke-linejoin="round"/>
<path d="M240.68 321.549C239.326 322.788 237.924 323.914 236.489 324.843" stroke="#263238" stroke-width="1.63076" stroke-linecap="round" stroke-linejoin="round"/>
<path d="M257.28 298.296C257.28 298.296 251.85 309.417 244.153 318.012" stroke="#263238" stroke-width="1.63076" stroke-linecap="round" stroke-linejoin="round"/>
<path d="M343.205 281.253C343.205 281.253 303.578 285.02 293.337 284.759C283.095 284.481 268.533 279.1 268.533 279.1C268.533 279.1 251.002 271.827 247.235 269.935C243.468 268.043 234.564 268.043 232.134 269.12C229.704 270.196 224.323 274.517 225.122 277.208C225.937 279.899 229.166 278.024 230.781 276.67C232.395 275.317 235.086 274.24 235.086 274.24L243.712 276.132L245.327 278.285C245.327 278.285 233.471 280.437 231.841 281.253C230.226 282.068 225.644 292.309 224.828 294.462C224.013 296.614 224.828 296.353 226.443 296.353H228.057C228.057 296.353 227.242 300.675 228.873 301.213C230.503 301.751 232.64 300.675 232.64 300.675C232.64 300.675 234.531 302.567 235.33 302.567C236.129 302.567 244.495 297.984 245.849 297.169C247.202 296.353 258.797 298.783 261.749 298.783C264.7 298.783 276.034 298.506 276.034 298.506C276.034 298.506 330.485 314.145 337.775 315.221C345.048 316.298 349.908 316.037 352.599 307.948C355.289 299.86 349.37 282.345 343.156 281.253H343.205Z" fill="white" stroke="#263238" stroke-width="1.63076" stroke-linecap="round" stroke-linejoin="round"/>
<path d="M232.672 300.66C232.672 300.66 239.945 292.571 241.837 291.495C243.729 290.418 247.496 289.065 247.496 289.065" stroke="#263238" stroke-width="1.63076" stroke-linecap="round" stroke-linejoin="round"/>
<path d="M228.09 296.354L235.64 287.45L243.729 284.221" stroke="#263238" stroke-width="1.63076" stroke-linecap="round" stroke-linejoin="round"/>
<path d="M-43.4001 77.5541C-43.4001 77.5541 -45.8136 88.9531 -48.2598 91.5786C-50.7059 94.1879 -54.5708 97.2863 -53.2825 102.978C-51.9942 108.685 -44.4764 112.24 -44.509 113.203C-44.5253 114.148 -58.1422 116.774 -57.7671 121.047C-57.3921 125.319 -53.7228 130.554 -53.7228 130.554C-53.7228 130.554 -63.7846 133.881 -64.6326 139.588C-65.4806 145.296 -62.056 150.987 -62.105 153.14C-62.1539 155.276 -68.2203 160.038 -66.4102 163.838C-64.6 167.637 -60.3111 167.165 -60.0991 167.882C-59.8708 168.6 -62.5616 171.682 -62.6105 173.59C-62.6594 175.498 -61.2733 177.161 -61.2733 177.161H19.0418L-3.73992 58.36L-33.958 70.0036L-43.4164 77.603L-43.4001 77.5541Z" fill="white" stroke="#263238" stroke-width="1.63076" stroke-linecap="round" stroke-linejoin="round"/>
<path d="M65.4039 347.168C65.4039 347.168 81.9725 384.872 84.1414 394.118C86.3103 403.364 87.354 444.557 83.8968 460.604C77.6184 489.811 59.6147 517.502 59.6147 517.502H-31.6102L-50.4292 429.652L-22.9508 344.07L65.4039 347.152V347.168Z" fill="white" stroke="#263238" stroke-width="1.63076" stroke-linecap="round" stroke-linejoin="round"/>
<path d="M50.287 419.82L42.6061 439.699L46.259 517.078" stroke="#263238" stroke-width="1.63076" stroke-linecap="round" stroke-linejoin="round"/>
<path d="M63.9531 322.153C63.9531 322.153 80.0651 335.868 82.0057 341.005C83.93 346.142 85.1694 380.078 86.05 385.9C86.9306 391.721 83.0331 397.217 83.0331 397.217L69.139 362.596C69.139 362.596 67.8017 347.169 67.4756 346.142C67.1657 345.114 64.6217 336.895 64.6217 336.895L63.9531 322.153Z" fill="white" stroke="#263238" stroke-width="1.63076" stroke-linecap="round" stroke-linejoin="round"/>
<path d="M77.2437 353.676C77.2437 353.676 77.4394 359.84 78.0102 364.309C78.5809 368.761 80.44 376.996 76.624 379.051" fill="white"/>
<path d="M77.2437 353.676C77.2437 353.676 77.4394 359.84 78.0102 364.309C78.5809 368.761 80.44 376.996 76.624 379.051" stroke="#263238" stroke-width="1.63076" stroke-linecap="round" stroke-linejoin="round"/>
<path d="M5.47354 176.149L27.391 176.834L43.0626 177.356L61.2783 192.604C61.2783 192.604 76.5748 268.695 77.8305 273.49C79.0862 278.284 64.8497 314.275 63.7407 317.7C62.6318 321.124 65.4204 347.168 65.4204 347.168C65.4204 347.168 58.4081 353.674 35.7079 356.756C13.0077 359.839 -13.1498 350.25 -13.1498 350.25C-13.1498 350.25 4.05478 305.012 7.724 280.681C7.724 280.681 10.9203 233.732 9.87661 220.359C8.83292 206.987 5.47354 176.149 5.47354 176.149Z" fill="white" stroke="#263238" stroke-width="1.63076" stroke-linecap="round" stroke-linejoin="round"/>
<path d="M60.1367 288.753L24.6676 306.757" stroke="#263238" stroke-width="1.63076" stroke-linecap="round" stroke-linejoin="round"/>
<path d="M58.0818 294.934L41.6274 303.153" stroke="#263238" stroke-width="1.63076" stroke-linecap="round" stroke-linejoin="round"/>
<path d="M-0.5271 150.955C-0.5271 150.955 12.6495 196.6 14.3618 204.672C16.0741 212.745 32.9525 222.252 43.2915 217.034C53.6306 211.799 50.3201 201.819 48.5589 195.654C46.814 189.474 43.0632 177.357 43.0632 177.357L47.0586 140.29C47.0586 140.29 34.5343 156.924 29.9682 158.832C25.4021 160.74 -0.5271 150.971 -0.5271 150.971V150.955Z" fill="white" stroke="#263238" stroke-width="1.63076" stroke-linecap="round" stroke-linejoin="round"/>
<path d="M24.1298 162.957L41.3995 179.623L45.6558 143.861L24.1298 162.957Z" fill="#263238" stroke="#263238" stroke-width="1.63076" stroke-linecap="round" stroke-linejoin="round"/>
<path d="M42.0195 177.813L41.1063 194.17" stroke="#263238" stroke-width="1.63076" stroke-linecap="round" stroke-linejoin="round"/>
<path d="M43.1775 173.574C43.1775 173.574 67.59 243.322 70.2971 259.075C73.0042 274.828 73.6075 278.269 73.8032 283.748C74.0152 289.228 69.6122 301.23 69.6122 301.23C69.6122 301.23 86.9146 279.981 87.0287 261.472C87.1429 242.963 74.5697 187.06 68.6989 183.668C45.379 170.198 43.1775 173.558 43.1775 173.558V173.574Z" fill="#263238" stroke="#263238" stroke-width="1.63076" stroke-linecap="round" stroke-linejoin="round"/>
<path d="M65.8282 207.999C65.8282 207.999 76.5424 239.261 74.8301 262.727" stroke="#A3A3A3" stroke-width="1.63076" stroke-linecap="round" stroke-linejoin="round"/>
<path d="M-16.9983 96.3242L-5.92538 80.6362L45.3295 132.674C45.3295 132.674 42.2148 163.088 42.1985 164.034C42.1822 164.979 45.3784 170.214 45.3784 170.214C45.3784 170.214 46.7809 171.405 47.9224 173.068C49.064 174.731 47.8898 174.731 47.58 177.112C47.2864 179.493 48.9172 180.684 50.0751 181.858C51.2329 183.048 54.0541 184.239 55.7012 185.185C57.3483 186.13 55.8643 188.267 54.6249 190.419C53.3855 192.556 51.6243 196.6 53.6627 200.872C55.7012 205.145 56.908 204.444 60.3815 207.771C63.8713 211.097 58.7996 214.18 58.7996 214.18C58.7996 214.18 61.4252 213.462 63.5941 212.761C65.7467 212.043 66.7578 209.679 65.8445 208.015C64.9313 206.352 63.1701 200.889 63.9039 199.943C64.6378 198.997 71.3728 195.67 73.346 193.045C75.303 190.436 73.183 189.963 74.8627 189C76.5423 188.055 79.9343 185.918 80.7171 182.592C81.5162 179.265 77.5697 175.221 78.7928 174.03C80.0159 172.84 84.582 165.517 84.6309 163.381C84.6799 161.245 81.9728 157.625 81.9728 157.625C81.9728 157.625 83.734 156.206 84.8592 149.308C85.9845 142.41 80.5703 140.273 80.179 136.474C79.8039 132.674 85.3811 127.439 85.4789 114.132C85.5605 100.825 63.5615 96.7808 62.8928 95.1174C62.2242 93.454 62.9907 90.8448 62.6156 87.2735C62.2242 83.7021 53.5812 77.5378 53.5812 77.5378C53.5812 77.5378 54.6249 73.9664 55.3913 71.6018C56.1578 69.2209 55.0326 67.0846 50.8415 63.2849C46.6504 59.4852 26.4127 41.661 17.9164 39.753C9.4038 37.845 -4.83276 47.1241 -6.52876 48.0699C-8.20845 49.0157 -21.6786 45.689 -25.8044 49.0157C-29.9302 52.3425 -31.2511 58.0502 -32.2622 60.4148C-33.2733 62.7794 -36.8284 62.7957 -39.0299 65.1603C-41.2314 67.5412 -44.8191 88.203 -44.8191 88.203" fill="white"/>
<path d="M-16.9983 96.3242L-5.92538 80.6362L45.3295 132.674C45.3295 132.674 42.2148 163.088 42.1985 164.034C42.1822 164.979 45.3784 170.214 45.3784 170.214C45.3784 170.214 46.7809 171.405 47.9224 173.068C49.064 174.731 47.8898 174.731 47.58 177.112C47.2864 179.493 48.9172 180.684 50.0751 181.858C51.2329 183.048 54.0541 184.239 55.7012 185.185C57.3483 186.13 55.8643 188.267 54.6249 190.419C53.3855 192.556 51.6243 196.6 53.6627 200.872C55.7012 205.145 56.908 204.444 60.3815 207.771C63.8713 211.097 58.7996 214.179 58.7996 214.179C58.7996 214.179 61.4252 213.462 63.5941 212.761C65.7467 212.043 66.7578 209.679 65.8445 208.015C64.9313 206.352 63.1701 200.889 63.9039 199.943C64.6378 198.997 71.3728 195.67 73.346 193.045C75.303 190.436 73.183 189.963 74.8627 189C76.5423 188.055 79.9343 185.918 80.7171 182.592C81.5162 179.265 77.5697 175.221 78.7928 174.03C80.0159 172.84 84.582 165.517 84.6309 163.381C84.6799 161.245 81.9728 157.625 81.9728 157.625C81.9728 157.625 83.734 156.206 84.8592 149.308C85.9845 142.41 80.5703 140.273 80.179 136.474C79.8039 132.674 85.3811 127.439 85.4789 114.132C85.5605 100.825 63.5615 96.7808 62.8928 95.1174C62.2242 93.454 62.9907 90.8448 62.6156 87.2735C62.2242 83.7021 53.5812 77.5378 53.5812 77.5378C53.5812 77.5378 54.6249 73.9664 55.3913 71.6018C56.1578 69.2209 55.0326 67.0846 50.8415 63.2849C46.6504 59.4852 26.4127 41.661 17.9164 39.753C9.40381 37.845 -4.83276 47.1241 -6.52876 48.0699C-8.20845 49.0157 -21.6786 45.689 -25.8044 49.0157C-29.9302 52.3425 -31.2511 58.0502 -32.2622 60.4148C-33.2733 62.7794 -36.8284 62.7957 -39.0299 65.1603C-41.2314 67.5412 -44.8191 88.203 -44.8191 88.203" stroke="#263238" stroke-width="1.63076" stroke-linecap="round" stroke-linejoin="round"/>
<path d="M4.08781 168.437C4.08781 168.437 28.8917 255.666 30.0007 266.967C31.1096 278.268 -7.71891 352.305 -15.6281 367.732C-23.5373 383.159 -40.7908 430.109 -43.5794 446.221C-46.368 462.333 -48.5532 481.527 -48.5532 481.527C-48.5532 481.527 -69.215 471.595 -82.7177 463.018C-96.2205 454.44 -98.5035 449.645 -97.4272 447.933C-96.3509 446.221 -90.7085 424.972 -90.7085 424.972C-90.7085 424.972 -102.385 411.942 -101.667 410.572C-100.95 409.202 -74.4008 318.043 -74.4008 318.043C-74.4008 318.043 -67.4212 171.356 -64.6652 171.356C-61.9092 171.356 4.10413 168.437 4.10413 168.437H4.08781Z" fill="#263238" stroke="#263238" stroke-width="1.63076" stroke-linecap="round" stroke-linejoin="round"/>
<path d="M1.59204 210.086L29.9999 266.967" stroke="#A3A3A3" stroke-width="1.63076" stroke-linecap="round" stroke-linejoin="round"/>
<path d="M-15.0089 342.032C-15.0089 342.032 12.3553 372.185 15.4211 373.571C18.4706 374.941 24.4882 381.447 26.1189 384.546C27.7497 387.628 30.0491 391.737 32.4137 393.45C34.7783 395.162 35.0718 397.217 30.9297 398.244C26.7875 399.272 23.0205 399.614 20.7374 394.82C18.4543 390.025 14.7851 385.573 14.7851 385.573L-8.60004 403.055C-8.60004 403.055 -13.6391 384.546 -14.2262 380.779C-14.8133 377.012 -16.0363 370.847 -16.0363 370.847L-31.7732 355.763L-14.9926 342.048L-15.0089 342.032Z" fill="white" stroke="#263238" stroke-width="1.63076" stroke-linecap="round" stroke-linejoin="round"/>
<path d="M-53.3645 147.4C-53.3645 147.4 -55.6312 162.599 -54.3429 167.834C-52.9731 173.362 -41.835 172.384 -44.118 179.722C-44.8519 182.087 -47.7383 184.614 -46.8251 187.305C-45.8956 190.061 -42.2753 190.224 -40.2694 191.773C-36.5676 194.643 -37.8885 197.726 -36.6328 201.803C-35.7196 204.738 -32.5885 205.765 -31.7405 208.097C-30.7295 210.853 -32.6701 212.582 -29.6042 215.582C-24.2716 220.817 -20.2437 221.763 -19.5261 221.29C-18.8086 220.817 -20.1947 219.627 -16.8354 217.963C-13.476 216.3 -6.98555 213.218 -8.09447 210.592C-9.20339 208.016 -10.3123 205.439 -10.3286 205.39C-8.76309 208.994 -3.88711 205.358 -2.56619 203.45C0.467033 199.112 -4.18063 194.448 -3.62617 189.751C-3.02279 184.565 2.81534 181.891 3.46765 176.656C4.10365 171.536 -1.21265 167.997 -0.0548058 163.3C0.467037 161.164 0.760574 158.783 0.760574 158.783C0.760574 158.783 -0.788651 154.037 -3.12064 152.374C-5.45263 150.711 -6.25171 144.057 -6.4311 141.676" fill="white"/>
<path d="M-53.3645 147.4C-53.3645 147.4 -55.6312 162.599 -54.3429 167.834C-52.9731 173.362 -41.835 172.384 -44.118 179.722C-44.8519 182.087 -47.7383 184.614 -46.8251 187.305C-45.8956 190.061 -42.2753 190.224 -40.2694 191.773C-36.5676 194.643 -37.8885 197.726 -36.6328 201.803C-35.7196 204.738 -32.5885 205.765 -31.7405 208.097C-30.7295 210.853 -32.6701 212.582 -29.6042 215.582C-24.2716 220.817 -20.2437 221.763 -19.5261 221.29C-18.8086 220.817 -20.1947 219.627 -16.8354 217.963C-13.476 216.3 -6.98555 213.218 -8.09447 210.592C-9.20339 208.016 -10.3123 205.439 -10.3286 205.39C-8.76309 208.994 -3.88711 205.358 -2.56619 203.45C0.467032 199.112 -4.18063 194.448 -3.62617 189.751C-3.02279 184.565 2.81534 181.891 3.46765 176.656C4.10365 171.536 -1.21265 167.997 -0.0548075 163.3C0.467037 161.164 0.760574 158.783 0.760574 158.783C0.760574 158.783 -0.78865 154.037 -3.12064 152.374C-5.45263 150.711 -6.25171 144.057 -6.4311 141.676" stroke="#263238" stroke-width="1.63076" stroke-linecap="round" stroke-linejoin="round"/>
<path d="M-10.6055 72.059C-10.6055 72.059 -29.8159 99.9939 -28.3482 105.897C-26.8805 111.801 -12.22 149.683 -7.21351 153.434C-2.20707 157.201 17.9981 166.056 24.7005 166.333C31.403 166.594 36.3116 163.92 39.1002 159.354C41.8888 154.788 52.554 136.262 52.6518 132.234C52.7497 128.206 44.1556 89.5408 42.5574 89.0026C40.9593 88.4644 -10.6055 72.0753 -10.6055 72.0753V72.059Z" fill="white" stroke="black" stroke-width="1.63076" stroke-linecap="round" stroke-linejoin="round"/>
<path d="M18.7485 101.739C18.7485 101.739 18.194 109.192 18.879 111.622C19.5639 114.052 25.875 122.809 26.0217 124.293C26.1685 125.777 23.706 127.277 20.3303 128.582" stroke="#263238" stroke-width="1.63076" stroke-linecap="round" stroke-linejoin="round"/>
<path d="M45.6882 98.6574C45.6882 98.6574 49.4879 96.782 51.2491 101.609C53.0103 106.436 50.2869 118.797 50.2869 118.797L45.6719 98.6574H45.6882Z" fill="white" stroke="#263238" stroke-width="1.63076" stroke-linecap="round" stroke-linejoin="round"/>
<path d="M9.25684 138.349C9.25684 138.349 21.667 137.404 24.7002 135.903C27.7334 134.403 33.0334 128.288 33.0334 128.288C33.0334 128.288 33.0334 141.725 26.4777 144.041C21.879 145.655 9.25684 138.349 9.25684 138.349Z" fill="white" stroke="#263238" stroke-width="1.63076" stroke-linecap="round" stroke-linejoin="round"/>
<path d="M-11.0631 109.013C-11.0631 109.013 -10.1499 101.935 2.1787 100.631L-11.0631 109.013Z" fill="white"/>
<path d="M-11.0631 109.013C-11.0631 109.013 -10.1499 101.935 2.1787 100.631" stroke="#263238" stroke-width="1.63076" stroke-linecap="round" stroke-linejoin="round"/>
<path d="M18.5691 95.6401C18.5691 95.6401 26.1358 89.0682 34.3386 97.0752L18.5691 95.6401Z" fill="white"/>
<path d="M18.5691 95.6401C18.5691 95.6401 26.1358 89.0682 34.3386 97.0752" stroke="#263238" stroke-width="1.63076" stroke-linecap="round" stroke-linejoin="round"/>
<path d="M4.23352 112.616C4.88583 114.801 4.18459 116.97 2.66798 117.443C1.15137 117.932 -0.593538 116.546 -1.24584 114.361C-1.89815 112.176 -1.19692 110.007 0.319688 109.534C1.8363 109.045 3.58122 110.431 4.23352 112.616Z" fill="#263238"/>
<path d="M29.5924 105.587C30.2447 107.773 29.5435 109.942 28.0269 110.414C26.5103 110.904 24.7653 109.518 24.113 107.332C23.4607 105.147 24.162 102.978 25.6786 102.505C27.1952 102.016 28.9401 103.402 29.5924 105.587Z" fill="#263238"/>
</g>
<defs>
<clipPath id="clip0_961_1252">
<rect width="620" height="517.474" fill="white" transform="translate(-110 0.842896)"/>
</clipPath>
</defs>
</svg>
