<svg width="583" height="518" viewBox="0 0 583 518" fill="none" xmlns="http://www.w3.org/2000/svg">
<g opacity="0.1" clip-path="url(#clip0_1013_582)">
<path d="M387.205 60.9022C393.145 36.7923 372.198 10.9005 340.419 3.07119C308.64 -4.75807 278.062 8.44001 272.122 32.5499C266.183 56.6598 287.13 82.5517 318.909 90.3809C350.688 98.2102 381.265 85.0121 387.205 60.9022Z" fill="white" stroke="#263238" stroke-width="1.63076" stroke-linecap="round" stroke-linejoin="round"/>
<path d="M296.146 66.1763C296.146 66.1763 284.388 69.3889 279.039 62.9637C273.69 56.5548 281.713 37.8336 290.536 29.2721C299.358 20.7106 324.227 16.9761 337.061 18.3133C349.896 19.6506 365.143 29.2721 367.279 39.4317C369.416 49.5914 365.143 59.4901 364.866 62.6864C364.605 65.899 357.12 65.899 356.043 64.2846C354.967 62.6864 338.937 39.1545 335.724 38.0782C332.512 37.0019 330.375 39.1545 326.902 41.0136C323.428 42.8889 296.961 54.1086 296.961 54.1086L296.162 66.1436L296.146 66.1763Z" fill="#263238" stroke="#263238" stroke-width="1.63076" stroke-linecap="round" stroke-linejoin="round"/>
<path d="M335.087 334.517L329.804 300.19L317.654 341.905C314.719 346.928 311.245 353.402 309.664 358.441C306.647 367.997 321.845 398.101 322.856 394.921C323.868 391.741 329.592 350.874 329.592 350.874C329.592 350.874 330.652 343.862 330.195 338.35L335.104 334.501L335.087 334.517Z" fill="white" stroke="#263238" stroke-width="1.63076" stroke-linecap="round" stroke-linejoin="round"/>
<path d="M328.043 358.817C328.043 358.817 317.051 362.551 317.051 385.904C317.051 392.264 326.118 459.109 326.118 470.296V516.675H386.848L394.35 472.644L399.976 515.745H460.885C460.885 515.745 466.967 447.808 467.44 439.377C467.913 430.946 472.121 412.665 470.718 387.372C469.316 362.078 463.69 352.229 463.69 352.229L329.412 349.88L328.059 358.817H328.043Z" fill="#263238" stroke="#263238" stroke-width="1.63076" stroke-linecap="round" stroke-linejoin="round"/>
<path d="M339.312 123.742C339.312 123.742 310.692 148.122 304.495 154.808C298.07 161.739 300.744 199.915 308.963 226.219C317.182 252.523 325.907 293.211 326.315 301.43C326.722 309.649 328.043 358.817 328.043 358.817C328.043 358.817 379.119 378.957 410.348 374.032C441.593 369.107 463.788 355.946 463.788 355.946C463.788 355.946 458.863 271.669 458.863 253.176C458.863 234.683 454.753 173.431 450.644 152.052C446.534 130.673 432.151 117.937 421.453 116.697C410.772 115.458 370.785 113.664 370.785 113.664L339.312 123.742Z" fill="white" stroke="#263238" stroke-width="1.63076" stroke-linecap="round" stroke-linejoin="round"/>
<path d="M324.846 117.969C324.846 117.969 337.762 154.221 339.914 154.58C342.067 154.939 347.807 149.198 347.807 149.198L370.769 113.68L361.636 80.902C361.636 80.902 356.418 98.2533 346.372 109.375C336.327 120.497 324.846 117.986 324.846 117.986V117.969Z" fill="white" stroke="#263238" stroke-width="1.63076" stroke-linecap="round" stroke-linejoin="round"/>
<path d="M349.813 110.891L332.87 137.114L324.846 117.969L349.813 110.891Z" fill="#263238" stroke="#263238" stroke-width="1.63076" stroke-linecap="round" stroke-linejoin="round"/>
<path d="M334.908 28.2118C334.908 28.2118 320.199 39.9696 308.441 44.2585C296.683 48.5474 290.796 50.1456 290.796 50.1456C290.796 50.1456 294.547 73.9384 295.607 80.6245C296.667 87.3107 299.08 98.5466 303.891 103.357C308.702 108.168 320.476 119.665 325.809 122.6C331.158 125.536 340.241 123.139 342.915 121.801C345.59 120.464 361.098 96.9322 361.897 93.7196C362.696 90.507 361.637 80.8855 361.637 80.8855C361.637 80.8855 368.584 77.1347 369.66 73.4002C370.736 69.6495 368.323 55.7554 366.186 53.88C364.05 52.0046 360.577 54.1409 360.038 56.2935C359.5 58.4298 357.902 61.6424 357.902 61.6424C357.902 61.6424 357.641 56.0326 355.489 52.5591C353.352 49.0856 353.352 47.7483 348.264 43.7367C343.176 39.725 334.892 28.2281 334.892 28.2281L334.908 28.2118Z" fill="white" stroke="#263238" stroke-width="1.63076" stroke-linecap="round" stroke-linejoin="round"/>
<path d="M317.003 80.8852L317.802 88.1095C317.802 88.1095 326.625 87.8486 330.636 83.5597" stroke="#263238" stroke-width="1.63076" stroke-linecap="round" stroke-linejoin="round"/>
<path d="M312.991 95.5788C312.991 95.5788 319.4 97.7151 329.298 94.7797C339.197 91.8444 341.594 84.881 341.594 84.881" stroke="#263238" stroke-width="1.63076" stroke-linecap="round" stroke-linejoin="round"/>
<path d="M311.115 62.963C311.115 62.963 299.618 59.2122 296.145 66.1756" stroke="#263238" stroke-width="1.63076" stroke-linecap="round" stroke-linejoin="round"/>
<path d="M322.889 58.6903C322.889 58.6903 330.635 50.9442 338.658 53.8795" stroke="#263238" stroke-width="1.63076" stroke-linecap="round" stroke-linejoin="round"/>
<path d="M309.925 73.2373C310.692 75.3247 310.463 77.3142 309.42 77.6893C308.376 78.0644 306.925 76.6946 306.158 74.6072C305.392 72.5198 305.62 70.5303 306.664 70.1552C307.707 69.7801 309.159 71.15 309.925 73.2373Z" fill="#263238"/>
<path d="M334.81 65.605C335.577 67.6924 335.348 69.6819 334.305 70.057C333.261 70.4321 331.81 69.0622 331.043 66.9749C330.277 64.8875 330.505 62.8979 331.549 62.5229C332.592 62.1478 334.044 63.5176 334.81 65.605Z" fill="#263238"/>
<path d="M395.557 161.902L418.991 245.756C418.991 245.756 417.751 249.865 418.583 252.328C419.399 254.79 419.823 256.845 419.823 256.845C419.823 256.845 413.251 289.737 407.494 309.877C401.737 330.017 381.19 373.999 382.005 378.94C382.821 383.865 377.896 420.867 380.358 422.514C382.82 424.161 388.577 426.624 390.224 426.624C391.871 426.624 399.275 427.439 401.737 427.439C404.2 427.439 413.251 427.031 414.898 423.737C416.545 420.443 416.137 418.388 413.658 419.22C411.196 420.035 407.086 420.459 407.086 420.459L405.439 417.165C405.439 417.165 407.494 402.782 405.439 392.084C403.384 381.402 402.569 377.701 402.569 377.701C402.569 377.701 453.954 294.254 456.009 278.632C458.064 263.009 461.358 245.739 461.358 237.928C461.358 230.117 453.139 159.831 450.677 152.019C448.214 144.208 446.975 136.397 440.403 129.825C433.831 123.253 429.297 123.253 426.019 123.253" fill="white"/>
<path d="M395.557 161.902L418.991 245.756C418.991 245.756 417.751 249.865 418.583 252.328C419.399 254.79 419.823 256.845 419.823 256.845C419.823 256.845 413.251 289.737 407.494 309.877C401.737 330.017 381.19 373.999 382.005 378.94C382.821 383.865 377.896 420.867 380.358 422.514C382.82 424.161 388.577 426.624 390.224 426.624C391.871 426.624 399.275 427.439 401.737 427.439C404.2 427.439 413.251 427.031 414.898 423.737C416.545 420.443 416.137 418.388 413.658 419.22C411.196 420.035 407.086 420.459 407.086 420.459L405.439 417.165C405.439 417.165 407.494 402.782 405.439 392.084C403.384 381.402 402.569 377.701 402.569 377.701C402.569 377.701 453.954 294.254 456.009 278.632C458.064 263.009 461.358 245.739 461.358 237.928C461.358 230.117 453.139 159.831 450.677 152.019C448.214 144.208 446.975 136.397 440.403 129.825C433.831 123.253 429.297 123.253 426.019 123.253" stroke="#263238" stroke-width="1.63076" stroke-linecap="round" stroke-linejoin="round"/>
<path d="M423.116 254.626C423.116 254.626 435.184 249.603 445.507 254.121" stroke="#263238" stroke-width="1.63076" stroke-linecap="round" stroke-linejoin="round"/>
<path d="M430.911 245.56C430.911 245.56 444.74 242.299 453.546 252.605" stroke="#263238" stroke-width="1.63076" stroke-linecap="round" stroke-linejoin="round"/>
<path d="M411.359 295.054C410.071 300.305 408.75 305.409 407.478 309.894C401.721 330.033 381.173 374.015 381.989 378.956C382.804 383.881 377.879 420.883 380.342 422.53C382.804 424.177 388.561 426.64 390.208 426.64C391.855 426.64 399.259 427.455 401.721 427.455C404.183 427.455 413.234 427.048 414.881 423.753C416.528 420.459 416.121 418.405 413.642 419.236C411.179 420.052 407.07 420.476 407.07 420.476L405.423 417.181C405.423 417.181 407.478 402.798 405.423 392.1C403.368 381.403 402.553 377.717 402.553 377.717C402.553 377.717 427.242 337.617 443.077 307.806C432.836 297.157 419.92 295.037 411.375 295.037L411.359 295.054Z" fill="white" stroke="#263238" stroke-width="1.63076" stroke-linecap="round" stroke-linejoin="round"/>
<path d="M397.042 419.841C397.042 419.841 401.119 423.282 402.521 424.391C403.924 425.5 404.396 426.592 407.071 426.902" fill="white"/>
<path d="M397.042 419.841C397.042 419.841 401.119 423.282 402.521 424.391C403.924 425.5 404.396 426.592 407.071 426.902" stroke="#263238" stroke-width="1.63076" stroke-linecap="round" stroke-linejoin="round"/>
<path d="M389.05 421.879C389.05 421.879 395.166 426.429 398.933 427.358L389.05 421.879Z" fill="white"/>
<path d="M389.05 421.879C389.05 421.879 395.166 426.429 398.933 427.358" stroke="#263238" stroke-width="1.63076" stroke-linecap="round" stroke-linejoin="round"/>
<path d="M382.3 420.949C382.3 420.949 385.121 424.716 388.252 426.119L382.3 420.949Z" fill="white"/>
<path d="M382.3 420.949C382.3 420.949 385.121 424.716 388.252 426.119" stroke="#263238" stroke-width="1.63076" stroke-linecap="round" stroke-linejoin="round"/>
<path d="M327.879 348.673C327.879 348.673 329.363 359.714 329.966 361.508C330.57 363.301 329.673 366.579 330.26 373.445C330.863 380.31 332.641 387.469 328.173 386.279C323.704 385.088 321.601 373.445 321.911 370.46C322.204 367.476 316.839 358.523 316.839 358.523" fill="white"/>
<path d="M327.879 348.673C327.879 348.673 329.363 359.714 329.966 361.508C330.57 363.301 329.673 366.579 330.26 373.445C330.863 380.31 332.641 387.469 328.173 386.279C323.704 385.088 321.601 373.445 321.911 370.46C322.204 367.476 316.839 358.523 316.839 358.523" stroke="#263238" stroke-width="1.63076" stroke-linecap="round" stroke-linejoin="round"/>
<path d="M356.008 323.398C351.833 315.407 320.833 205.51 320.833 205.51C314.994 221.508 311.26 300.388 311.26 300.388L314.652 342.217L314.049 350.061C322.153 344.516 342 333.541 355.193 348.153C355.405 347.386 355.552 346.734 355.633 346.229C357.345 335.694 360.183 331.421 356.008 323.414V323.398Z" fill="white" stroke="#263238" stroke-width="1.63076" stroke-linecap="round" stroke-linejoin="round"/>
<path d="M346.011 333.981C348.115 334.34 350.154 334.911 352.078 335.759" stroke="#263238" stroke-width="1.63076" stroke-linecap="round" stroke-linejoin="round"/>
<path d="M316.935 337.862C316.935 337.862 327.356 333.769 338.429 333.492" stroke="#263238" stroke-width="1.63076" stroke-linecap="round" stroke-linejoin="round"/>
<path d="M350.04 329.578C350.04 329.578 340.891 324.034 333.569 326.219" stroke="#263238" stroke-width="1.63076" stroke-linecap="round" stroke-linejoin="round"/>
<path d="M164.865 550.826L166.806 467.038L172.758 421.066L311.341 416.337L323.702 449.295L331.318 551.919H261.162L247.92 483.949L244.121 490.488L242.669 550.468L164.865 550.826Z" fill="#263238" stroke="#263238" stroke-width="1.63076" stroke-linecap="round" stroke-linejoin="round"/>
<path d="M208.52 189.889C208.52 189.889 148.149 205.887 144.48 207.697C140.795 209.507 148.916 264.399 154.607 284.392C160.299 304.385 174.144 377.802 174.144 377.802L173.214 430.867C173.214 430.867 232.427 432.318 256.122 429.416C279.817 426.513 305.779 419.957 305.779 419.957C305.779 419.957 314.194 373.073 311.307 342.17C308.421 311.267 316.819 234.572 316.95 229.484C317.08 224.396 320.798 205.495 320.798 205.495C320.798 205.495 275.691 191.683 264.097 190.231C252.502 188.78 225.252 188.046 208.488 189.873L208.52 189.889Z" fill="white" stroke="#263238" stroke-width="1.63076" stroke-linecap="round" stroke-linejoin="round"/>
<path d="M197.155 203.423C197.155 203.423 204.673 224.15 222.432 236.528" stroke="#263238" stroke-width="1.63076" stroke-linecap="round" stroke-linejoin="round"/>
<path d="M259.417 199.755C259.417 199.755 256.221 207.778 250.986 216.47" stroke="#263238" stroke-width="1.63076" stroke-linecap="round" stroke-linejoin="round"/>
<path d="M249.877 220.808L246.763 225.162" stroke="#263238" stroke-width="1.63076" stroke-linecap="round" stroke-linejoin="round"/>
<path d="M228.156 424.964C242.18 424.133 267.897 421.882 284.596 416.06" stroke="#263238" stroke-width="1.63076" stroke-linecap="round" stroke-linejoin="round"/>
<path d="M218.175 425.419C218.175 425.419 219.773 425.387 222.512 425.256" stroke="#263238" stroke-width="1.63076" stroke-linecap="round" stroke-linejoin="round"/>
<path d="M275.937 409.829C257.525 412.226 229.607 414.395 207.852 409.699" stroke="#263238" stroke-width="1.63076" stroke-linecap="round" stroke-linejoin="round"/>
<path d="M295.522 406.698C295.522 406.698 290.875 407.661 283.406 408.786" stroke="#263238" stroke-width="1.63076" stroke-linecap="round" stroke-linejoin="round"/>
<path d="M293.989 381.145C282.851 387.587 261.57 398.545 240.468 402.019" stroke="#263238" stroke-width="1.63076" stroke-linecap="round" stroke-linejoin="round"/>
<path d="M301.947 376.268C301.947 376.268 300.447 377.279 297.772 378.91" stroke="#263238" stroke-width="1.63076" stroke-linecap="round" stroke-linejoin="round"/>
<path d="M199.976 168.998L202.504 198.189C202.504 198.189 211.424 219.34 232.184 217.97C252.536 216.632 255.536 190.736 255.536 190.736L251.427 159.931C251.427 159.931 233.554 174.852 223.541 173.548C213.528 172.243 199.976 169.014 199.976 169.014V168.998Z" fill="white" stroke="#263238" stroke-width="1.63076" stroke-linecap="round" stroke-linejoin="round"/>
<path d="M179.298 134.442C179.298 134.442 175.596 129.729 172.807 133.985C170.019 138.242 173.329 149.69 178.417 152.168C183.522 154.631 184.859 154.631 184.859 154.631C184.859 154.631 190.648 166.079 193.698 169.438C196.763 172.798 219.04 188.73 224.405 189.627C229.77 190.524 237.435 188.958 240.435 185.811C243.436 182.664 252.927 161.121 254.395 155.968C255.862 150.799 256.123 149.69 256.188 146.542C256.27 143.395 256.107 140.704 256.107 140.704C256.107 140.704 261.456 132.844 262.059 126.565C262.662 120.287 261.211 115.574 257.852 114.677C254.509 113.78 250.758 120.515 250.758 120.515L239.473 85.9594C239.473 85.9594 235.657 76.5336 232.33 75.4084C228.987 74.2831 204.917 77.2022 194.709 81.4748C184.5 85.7311 174.52 90.232 173.737 94.9449C172.954 99.6578 179.282 134.442 179.282 134.442H179.298Z" fill="white" stroke="#263238" stroke-width="1.63076" stroke-linecap="round" stroke-linejoin="round"/>
<path d="M197.758 86.0738C197.758 86.0738 178.499 89.9061 177.373 93.0371C176.248 96.1682 174.715 102.104 176.689 106.638C178.678 111.171 180.896 134.524 180.896 134.524C180.896 134.524 183.848 141.846 181.793 140.802C179.722 139.759 178.189 131.05 177.52 129.99C176.852 128.947 168.192 112.215 165.55 105.936C162.909 99.6581 168.633 93.7384 170.068 92.3359C171.503 90.9498 172.938 88.8461 172.938 88.8461C172.938 88.8461 171.438 78.7353 176.085 74.2018C180.733 69.6683 214.359 62.7049 217.164 61.6613C219.985 60.6176 222.904 54.6979 225.383 53.2954C227.862 51.9093 235.086 55.3828 239.408 64.1074C243.729 72.8157 243.322 75.2618 241.887 77.0067L240.451 78.7517C240.451 78.7517 245.311 79.4529 247.252 86.0738C249.176 92.6947 251.818 98.9731 251.687 104.192C251.557 109.426 250.79 119.472 250.758 120.516C250.725 121.559 249.535 120.564 248.573 117.091C247.61 113.601 238.821 88.1612 237.483 85.3726C236.163 82.584 234.483 79.7953 233.814 78.7517C233.146 77.708 204.542 78.7517 197.742 86.0738H197.758Z" fill="#263238" stroke="#263238" stroke-width="1.63076" stroke-linecap="round" stroke-linejoin="round"/>
<path d="M221.763 114.026C221.763 114.026 218.061 118.282 218.713 119.635C219.349 120.989 227.731 145.662 227.438 148.353C227.144 151.044 223.524 152.397 220.637 151.501C217.735 150.604 215.925 142.531 215.925 142.531" fill="white"/>
<path d="M221.763 114.026C221.763 114.026 218.061 118.282 218.713 119.635C219.349 120.989 227.731 145.662 227.438 148.353C227.144 151.044 223.524 152.397 220.637 151.501C217.735 150.604 215.925 142.531 215.925 142.531" stroke="#263238" stroke-width="1.63076" stroke-linecap="round" stroke-linejoin="round"/>
<path d="M225.627 111.774C225.627 111.774 233.618 106.164 240.712 109.98" stroke="#263238" stroke-width="4.89229" stroke-linecap="round" stroke-linejoin="round"/>
<path d="M204.64 116.716C204.64 116.716 192.36 114.025 186.979 123.451" stroke="#263238" stroke-width="4.89229" stroke-linecap="round" stroke-linejoin="round"/>
<path d="M203.4 128.181C203.84 130.04 203.27 131.785 202.128 132.094C200.987 132.388 199.698 131.132 199.242 129.273C198.801 127.414 199.372 125.669 200.514 125.359C201.655 125.066 202.944 126.322 203.4 128.181Z" fill="#263238" stroke="#263238" stroke-width="1.63076" stroke-linecap="round" stroke-linejoin="round"/>
<path d="M232.885 120.434C233.325 122.293 232.754 124.038 231.613 124.348C230.471 124.642 229.183 123.386 228.726 121.527C228.286 119.668 228.857 117.923 229.998 117.613C231.14 117.303 232.428 118.575 232.885 120.434Z" fill="#263238" stroke="#263238" stroke-width="1.63076" stroke-linecap="round" stroke-linejoin="round"/>
<path d="M212.06 162.263C212.06 162.263 227.699 165.182 236.929 154.86" stroke="#858585" stroke-width="1.63076" stroke-linecap="round" stroke-linejoin="round"/>
<path d="M355.617 346.213C355.585 346.441 355.519 346.718 355.454 346.996C355.519 346.702 355.568 346.441 355.617 346.213Z" stroke="#263238" stroke-width="1.63076" stroke-linecap="round" stroke-linejoin="round"/>
<path d="M355.177 348.137C341.984 333.525 322.138 344.5 314.033 350.045L309.826 388.694L307.836 395.967C307.836 395.967 292.915 411.965 291.007 415.227C289.115 418.504 286.147 421.048 283.913 422.859C281.695 424.669 276.933 426.136 276.509 428.305C276.085 430.491 283.342 431.583 285.544 430.491C287.745 429.398 293.339 423.576 293.339 423.576L289.833 433.035L318.241 445.396C318.241 445.396 319.904 437.03 320.752 431.942C321.6 426.854 322.986 414.852 323.394 412.683C323.801 410.563 352.323 360.286 355.389 347.142C355.324 347.436 355.243 347.762 355.145 348.121L355.177 348.137Z" fill="white" stroke="#263238" stroke-width="1.63076" stroke-linecap="round" stroke-linejoin="round"/>
<path d="M144.481 207.696C144.481 207.696 137.045 214.594 135.43 221.509C133.816 228.423 109.158 314.87 103.386 327.949C97.6127 341.027 96.6342 351.578 99.7816 356.666C102.929 361.754 159.761 402.165 159.761 402.165C159.761 402.165 165.811 422.517 167.507 427.605C169.203 432.693 172.253 441.417 172.253 441.417L195.051 430.883C195.051 430.883 199.291 435.612 202.161 437.797C205.015 439.982 208.619 441.075 209.402 438.89C210.184 436.704 205.977 430.524 205.977 430.524C205.977 430.524 203.906 426.17 203.629 422.533C203.351 418.896 198.068 412.357 195.964 409.079C193.86 405.801 176.346 393.815 176.346 393.815L140.616 337.782L154.657 284.407C154.657 284.407 141.986 222.618 144.53 207.712L144.481 207.696Z" fill="white" stroke="#263238" stroke-width="1.63076" stroke-linecap="round" stroke-linejoin="round"/>
<path d="M140.567 337.766L156.744 292.48C156.744 292.48 141.921 222.601 144.465 207.696C144.465 207.696 137.028 214.594 135.414 221.509C133.8 228.423 109.142 314.87 103.369 327.949C97.5966 341.027 96.6181 351.579 99.7655 356.667C100.662 358.118 105.571 364.51 115.274 369.827C118.584 363.499 127.179 348.79 145.835 347.518L140.567 337.766Z" fill="white" stroke="#263238" stroke-width="1.63076" stroke-linecap="round" stroke-linejoin="round"/>
<path d="M113.74 335.222C113.74 335.222 124.683 333.771 134.761 337.766" stroke="#263238" stroke-width="1.63076" stroke-linecap="round" stroke-linejoin="round"/>
<path d="M128.353 331.944C128.353 331.944 137.371 334.488 140.567 337.766" stroke="#263238" stroke-width="1.63076" stroke-linecap="round" stroke-linejoin="round"/>
<path d="M344.168 270.398C348.343 262.407 379.344 152.51 379.344 152.51C385.182 168.508 388.916 247.388 388.916 247.388L385.524 289.217L386.128 297.061C378.023 291.516 358.176 280.541 344.983 295.153C344.771 294.386 344.625 293.734 344.543 293.229C342.831 282.694 339.993 278.421 344.168 270.414V270.398Z" fill="white" stroke="#263238" stroke-width="1.63076" stroke-linecap="round" stroke-linejoin="round"/>
<path d="M354.165 280.981C352.061 281.34 350.023 281.911 348.098 282.759" stroke="#263238" stroke-width="1.63076" stroke-linecap="round" stroke-linejoin="round"/>
<path d="M383.241 284.862C383.241 284.862 372.821 280.769 361.748 280.492" stroke="#263238" stroke-width="1.63076" stroke-linecap="round" stroke-linejoin="round"/>
<path d="M350.137 276.578C350.137 276.578 359.285 271.034 366.607 273.219" stroke="#263238" stroke-width="1.63076" stroke-linecap="round" stroke-linejoin="round"/>
<path d="M535.311 497.826L533.37 414.038L527.418 368.066L388.836 363.337L376.474 396.295L368.859 498.919H439.014L452.256 430.949L456.056 437.488L457.507 497.468L535.311 497.826Z" fill="#263238" stroke="#263238" stroke-width="1.63076" stroke-linecap="round" stroke-linejoin="round"/>
<path d="M491.656 136.889C491.656 136.889 552.027 152.887 555.696 154.697C559.382 156.507 551.26 211.399 545.569 231.392C539.878 251.385 526.032 324.802 526.032 324.802L526.962 377.867C526.962 377.867 467.749 379.318 444.054 376.416C420.359 373.513 394.397 366.957 394.397 366.957C394.397 366.957 385.983 320.073 388.869 289.17C391.755 258.267 383.357 181.572 383.227 176.484C383.096 171.396 379.378 152.495 379.378 152.495C379.378 152.495 424.485 138.683 436.08 137.231C447.674 135.78 474.924 135.046 491.689 136.873L491.656 136.889Z" fill="white" stroke="#263238" stroke-width="1.63076" stroke-linecap="round" stroke-linejoin="round"/>
<path d="M503.021 150.423C503.021 150.423 495.504 171.15 477.745 183.528" stroke="#263238" stroke-width="1.63076" stroke-linecap="round" stroke-linejoin="round"/>
<path d="M440.759 146.755C440.759 146.755 443.955 154.778 449.19 163.47" stroke="#263238" stroke-width="1.63076" stroke-linecap="round" stroke-linejoin="round"/>
<path d="M450.299 167.808L453.414 172.162" stroke="#263238" stroke-width="1.63076" stroke-linecap="round" stroke-linejoin="round"/>
<path d="M472.021 371.964C457.996 371.133 432.279 368.882 415.58 363.06" stroke="#263238" stroke-width="1.63076" stroke-linecap="round" stroke-linejoin="round"/>
<path d="M482.002 372.419C482.002 372.419 480.404 372.387 477.664 372.256" stroke="#263238" stroke-width="1.63076" stroke-linecap="round" stroke-linejoin="round"/>
<path d="M424.24 356.829C442.651 359.226 470.57 361.395 492.324 356.699" stroke="#263238" stroke-width="1.63076" stroke-linecap="round" stroke-linejoin="round"/>
<path d="M404.654 353.698C404.654 353.698 409.302 354.661 416.771 355.786" stroke="#263238" stroke-width="1.63076" stroke-linecap="round" stroke-linejoin="round"/>
<path d="M406.187 328.145C417.325 334.587 438.607 345.545 459.709 349.019" stroke="#263238" stroke-width="1.63076" stroke-linecap="round" stroke-linejoin="round"/>
<path d="M398.229 323.268C398.229 323.268 399.729 324.279 402.404 325.91" stroke="#263238" stroke-width="1.63076" stroke-linecap="round" stroke-linejoin="round"/>
<path d="M500.2 115.998L497.672 145.189C497.672 145.189 488.752 166.34 467.992 164.97C447.64 163.632 444.64 137.736 444.64 137.736L448.749 106.931C448.749 106.931 466.623 121.852 476.635 120.548C486.648 119.243 500.2 116.014 500.2 116.014V115.998Z" fill="white" stroke="#263238" stroke-width="1.63076" stroke-linecap="round" stroke-linejoin="round"/>
<path d="M520.878 81.442C520.878 81.442 524.58 76.7291 527.369 80.9854C530.157 85.2417 526.847 96.6896 521.759 99.1684C516.655 101.631 515.318 101.631 515.318 101.631C515.318 101.631 509.528 113.079 506.479 116.438C503.413 119.798 481.137 135.73 475.771 136.627C470.406 137.524 462.742 135.958 459.741 132.811C456.74 129.664 447.249 108.121 445.782 102.968C444.314 97.7986 444.053 96.6896 443.988 93.5423C443.906 90.3949 444.069 87.7041 444.069 87.7041C444.069 87.7041 438.721 79.8439 438.117 73.5654C437.514 67.287 438.965 62.5741 442.325 61.6771C445.668 60.7802 449.418 67.5153 449.418 67.5153L460.703 32.9594C460.703 32.9594 464.519 23.5336 467.846 22.4084C471.189 21.2831 495.259 24.2022 505.468 28.4748C515.676 32.7311 525.657 37.232 526.439 41.9449C527.222 46.6578 520.895 81.442 520.895 81.442H520.878Z" fill="white" stroke="#263238" stroke-width="1.63076" stroke-linecap="round" stroke-linejoin="round"/>
<path d="M502.418 33.0738C502.418 33.0738 521.678 36.9061 522.803 40.0371C523.928 43.1682 525.461 49.1042 523.488 53.6377C521.498 58.1712 519.28 81.5238 519.28 81.5238C519.28 81.5238 516.329 88.8459 518.383 87.8022C520.454 86.7585 521.987 78.0502 522.656 76.9902C523.325 75.9466 531.984 59.2149 534.626 52.9365C537.268 46.6581 531.544 40.7384 530.109 39.3359C528.674 37.9498 527.238 35.8461 527.238 35.8461C527.238 35.8461 528.739 25.7353 524.091 21.2018C519.443 16.6683 485.817 9.70494 483.012 8.66126C480.191 7.61757 477.272 1.6979 474.793 0.295438C472.314 -1.09071 465.09 2.38282 460.769 11.1074C456.447 19.8157 456.855 22.2618 458.29 24.0067L459.725 25.7517C459.725 25.7517 454.865 26.4529 452.925 33.0738C451 39.6947 448.358 45.9731 448.489 51.1916C448.619 56.4263 449.386 66.4718 449.418 67.5155C449.451 68.5592 450.641 67.5644 451.604 64.0909C452.566 60.6011 461.356 35.1612 462.693 32.3726C464.014 29.584 465.693 26.7953 466.362 25.7517C467.031 24.708 495.634 25.7517 502.435 33.0738H502.418Z" fill="#263238" stroke="#263238" stroke-width="1.63076" stroke-linecap="round" stroke-linejoin="round"/>
<path d="M475.755 136.644C470.39 137.541 462.725 135.975 459.725 132.828C456.724 129.68 447.233 108.138 445.765 102.985C444.298 97.8152 444.037 96.7063 443.971 93.5589C443.89 90.4115 444.053 87.7208 444.053 87.7208L448.782 66.5371C448.945 66.7981 449.092 67.0101 449.19 67.1731C448.652 73.7125 447.673 86.3509 447.869 88.1611C448.146 90.6235 450.918 93.3143 453.609 93.7709C456.316 94.2275 469.053 92.2054 474.679 92.6457C480.305 93.1023 482.148 95.1081 486.469 97.3586C490.791 99.609 499.662 104.991 501.929 105.659C504.196 106.328 508.419 104.762 510.148 102.512C511.893 100.261 519.264 81.5075 519.264 81.5075C519.264 82.7143 520.503 85.0137 520.503 85.0137L515.301 101.615C515.301 101.615 509.512 113.063 506.462 116.422C503.396 119.782 481.12 135.714 475.755 136.611V136.644Z" fill="#263238" stroke="#263238" stroke-width="1.63076" stroke-linecap="round" stroke-linejoin="round"/>
<path d="M478.414 61.0256C478.414 61.0256 482.115 65.2819 481.463 66.6354C480.827 67.9889 472.445 92.6624 472.738 95.3531C473.032 98.0439 476.652 99.3974 479.539 98.5005C482.442 97.6036 484.252 89.5313 484.252 89.5313" fill="white"/>
<path d="M478.414 61.0256C478.414 61.0256 482.115 65.2819 481.463 66.6354C480.827 67.9889 472.445 92.6624 472.738 95.3531C473.032 98.0439 476.652 99.3974 479.539 98.5005C482.442 97.6036 484.252 89.5313 484.252 89.5313" stroke="#263238" stroke-width="1.63076" stroke-linecap="round" stroke-linejoin="round"/>
<path d="M474.549 58.7741C474.549 58.7741 466.558 53.1643 459.464 56.9802" stroke="#263238" stroke-width="4.89229" stroke-linecap="round" stroke-linejoin="round"/>
<path d="M495.536 63.716C495.536 63.716 507.816 61.0252 513.198 70.451" stroke="#263238" stroke-width="4.89229" stroke-linecap="round" stroke-linejoin="round"/>
<path d="M496.776 75.1806C496.336 77.0396 496.907 78.7846 498.048 79.0944C499.19 79.388 500.478 78.1323 500.935 76.2732C501.375 74.4141 500.804 72.6692 499.663 72.3594C498.521 72.0658 497.233 73.3215 496.776 75.1806Z" fill="#263238" stroke="#263238" stroke-width="1.63076" stroke-linecap="round" stroke-linejoin="round"/>
<path d="M467.291 67.4344C466.851 69.2935 467.422 71.0384 468.563 71.3483C469.705 71.6418 470.993 70.3861 471.45 68.527C471.89 66.668 471.319 64.923 470.178 64.6132C469.036 64.3034 467.748 65.5753 467.291 67.4344Z" fill="#263238" stroke="#263238" stroke-width="1.63076" stroke-linecap="round" stroke-linejoin="round"/>
<path d="M488.116 109.263C488.116 109.263 472.477 112.182 463.247 101.86" stroke="#858585" stroke-width="1.63076" stroke-linecap="round" stroke-linejoin="round"/>
<path d="M344.559 293.213C344.592 293.441 344.657 293.718 344.722 293.996C344.657 293.702 344.608 293.441 344.559 293.213Z" stroke="#263238" stroke-width="1.63076" stroke-linecap="round" stroke-linejoin="round"/>
<path d="M344.999 295.137C358.192 280.525 378.038 291.5 386.143 297.045L390.35 335.694L392.34 342.967C392.34 342.967 407.262 358.965 409.169 362.227C411.061 365.504 414.029 368.048 416.263 369.859C418.481 371.669 423.243 373.136 423.667 375.305C424.091 377.491 416.834 378.583 414.633 377.491C412.431 376.398 406.838 370.576 406.838 370.576L410.344 380.035L381.936 392.396C381.936 392.396 380.272 384.03 379.424 378.942C378.576 373.854 377.19 361.852 376.783 359.683C376.375 357.563 347.853 307.286 344.787 294.142C344.852 294.436 344.934 294.762 345.032 295.121L344.999 295.137Z" fill="white" stroke="#263238" stroke-width="1.63076" stroke-linecap="round" stroke-linejoin="round"/>
<path d="M555.695 154.696C555.695 154.696 563.132 161.594 564.746 168.509C566.361 175.423 591.018 261.87 596.791 274.949C602.564 288.027 603.542 298.578 600.395 303.666C597.247 308.754 540.415 349.165 540.415 349.165C540.415 349.165 534.365 369.517 532.669 374.605C530.973 379.693 527.924 388.417 527.924 388.417L505.125 377.883C505.125 377.883 500.885 382.612 498.015 384.797C495.161 386.982 491.558 388.075 490.775 385.89C489.992 383.704 494.199 377.524 494.199 377.524C494.199 377.524 496.27 373.17 496.548 369.533C496.825 365.896 502.109 359.357 504.212 356.079C506.316 352.801 523.83 340.815 523.83 340.815L559.56 284.782L545.519 231.407C545.519 231.407 558.191 169.618 555.647 154.712L555.695 154.696Z" fill="white" stroke="#263238" stroke-width="1.63076" stroke-linecap="round" stroke-linejoin="round"/>
<path d="M559.609 284.766L543.432 239.48C543.432 239.48 558.256 169.601 555.712 154.696C555.712 154.696 563.148 161.594 564.762 168.509C566.377 175.423 591.034 261.87 596.807 274.949C602.58 288.027 603.558 298.579 600.411 303.667C599.514 305.118 594.605 311.51 584.902 316.827C581.592 310.499 572.998 295.79 554.342 294.518L559.609 284.766Z" fill="white" stroke="#263238" stroke-width="1.63076" stroke-linecap="round" stroke-linejoin="round"/>
<path d="M586.436 282.222C586.436 282.222 575.493 280.771 565.415 284.766" stroke="#263238" stroke-width="1.63076" stroke-linecap="round" stroke-linejoin="round"/>
<path d="M571.823 278.944C571.823 278.944 562.805 281.488 559.609 284.766" stroke="#263238" stroke-width="1.63076" stroke-linecap="round" stroke-linejoin="round"/>
</g>
<defs>
<clipPath id="clip0_1013_582">
<rect width="620" height="517.474" fill="white" transform="translate(-37)"/>
</clipPath>
</defs>
</svg>
