<svg width="160" height="256" viewBox="0 0 160 256" fill="none" xmlns="http://www.w3.org/2000/svg">
<path d="M38.9155 162.606C38.9155 162.606 36.5223 157.173 36.0687 155.982C34.8551 152.727 26.9952 130.917 28.878 127.616C37.5771 112.35 44.3255 101.485 61.4857 101.485L91.8024 101.281C91.8024 101.281 120.531 95.4282 140.765 160.757L38.9041 162.606H38.9155Z" fill="#DEDEDE"/>
<path d="M-25.0411 168.084L14.6439 159.532L61.3042 134.989L61.4857 101.496C54.4878 99.5681 41.0817 104.422 16.969 116.706L-18.8598 135.204C-31.1317 141.544 -34.1713 157.729 -25.0411 168.084Z" fill="#DEDEDE"/>
<path d="M64.2983 232.914C63.7199 231.031 64.1168 229.818 66.8616 230.737C72.9181 232.767 78.3281 232.109 79.6551 230.929C80.9821 229.75 79.7572 227.504 77.7951 227.697C76.2072 227.856 73.4625 227.311 71.421 226.812C69.731 226.404 68.1205 225.735 66.6687 224.805C65.4098 224 64.3096 223.24 63.3456 222.548C63.3456 222.548 57.7654 218.51 56.0074 215.266L36.8511 223.478L39.9361 233.073C39.9361 233.073 40.9341 238.721 46.4122 240.502C51.8903 242.283 60.6009 241.613 60.6009 241.613C62.2001 240.57 68.3587 249.485 70.2301 252.626C72.0675 255.734 74.3245 256.165 75.039 254.237C75.5267 252.921 70.06 243.156 68.1432 240.082C67.0997 238.404 65.0015 235.149 64.3096 232.88" fill="white"/>
<path d="M51.312 241.658C51.3007 241.726 50.8356 241.704 50.1891 241.386C49.5427 241.069 48.7374 240.399 48.193 239.424C47.6486 238.449 47.5011 237.417 47.5692 236.691C47.6372 235.965 47.8641 235.568 47.9321 235.591C48.1023 235.613 47.6939 237.349 48.726 239.129C49.7014 240.933 51.3914 241.5 51.3233 241.658H51.312Z" fill="#B1B1B1"/>
<path d="M57.3797 241.886C57.357 241.954 56.9261 241.908 56.3136 241.58C55.7012 241.262 54.9526 240.593 54.4422 239.663C53.9318 238.721 53.7957 237.735 53.8524 237.043C53.9091 236.351 54.1133 235.965 54.1814 235.988C54.3515 236.011 54.0112 237.667 54.964 239.379C55.8713 241.115 57.4478 241.727 57.3684 241.886H57.3797Z" fill="#B1B1B1"/>
<path d="M-26.1638 166.78C-26.1638 166.78 34.6397 236.669 34.5716 235.512C34.5036 234.355 61.826 213.928 61.826 213.928L2.20206 142.917L-26.1752 166.78H-26.1638Z" fill="#DEDEDE"/>
<path d="M10.7199 153.045C10.7199 153.045 10.8787 153.169 11.1509 153.453C11.4571 153.793 11.8314 154.213 12.2851 154.712C13.3058 155.891 14.6895 157.491 16.3681 159.43C19.7933 163.434 24.5002 168.98 29.6721 175.138C34.8439 181.297 39.4941 186.9 42.8513 190.972C44.4732 192.968 45.8002 194.601 46.7869 195.815C47.2065 196.348 47.5581 196.79 47.8303 197.153C48.0685 197.459 48.1819 197.629 48.1592 197.641C48.1479 197.652 48.0005 197.516 47.7283 197.232C47.422 196.892 47.0478 196.472 46.5941 195.973C45.5733 194.794 44.1896 193.195 42.511 191.255C39.0858 187.251 34.3789 181.705 29.1957 175.535C24.0238 169.377 19.3737 163.774 16.0165 159.702C14.3946 157.706 13.0676 156.073 12.0809 154.859C11.6613 154.326 11.3097 153.884 11.0375 153.521C10.7993 153.215 10.6858 153.045 10.7085 153.033L10.7199 153.045Z" fill="#8A8A8A"/>
<path d="M118.286 161.098C118.161 161.064 118.955 159.43 119.012 156.618C119.034 155.222 118.841 153.544 118.229 151.82C117.617 150.085 116.539 148.349 115.042 146.818C113.567 145.264 111.98 143.926 110.709 142.52C109.416 141.125 108.486 139.639 107.987 138.278C107.477 136.917 107.398 135.715 107.488 134.909C107.59 134.104 107.783 133.696 107.806 133.707C107.942 133.707 107.273 135.51 108.384 138.13C108.917 139.412 109.847 140.818 111.118 142.157C112.388 143.506 113.976 144.833 115.484 146.421C117.015 147.986 118.161 149.835 118.762 151.661C119.374 153.476 119.533 155.222 119.454 156.663C119.374 158.103 119.08 159.237 118.819 159.997C118.558 160.757 118.331 161.143 118.297 161.132L118.286 161.098Z" fill="#8A8A8A"/>
<path d="M36.2732 107.326C36.2732 107.326 36.5681 107.167 37.1579 106.906C37.7477 106.657 38.6323 106.316 39.7892 105.942C40.9574 105.59 42.4092 105.227 44.1444 105.057C45.8684 104.91 47.8986 104.933 50.0082 105.602C52.1177 106.237 54.25 107.553 56.008 109.458C57.7773 111.375 58.9909 113.983 59.6147 116.807C60.2271 119.632 60.5447 122.694 60.1931 125.847C59.8302 128.977 58.7981 132.21 56.836 134.954C54.8625 137.71 52.2085 139.741 49.5658 141.408C46.9005 143.086 44.2238 144.459 41.6833 145.797C36.6135 148.462 32.0427 150.856 28.1752 152.886C24.3643 154.859 21.2566 156.47 19.045 157.615C18.0015 158.137 17.1736 158.557 16.5498 158.874C15.9714 159.158 15.6765 159.294 15.6651 159.271C15.6538 159.249 15.9373 159.078 16.4931 158.761C17.0942 158.421 17.9108 157.967 18.9316 157.4C21.1205 156.209 24.1942 154.542 27.971 152.5C31.8159 150.447 36.364 148.009 41.4111 145.298C43.9403 143.948 46.6283 142.565 49.2483 140.897C51.8682 139.253 54.4428 137.257 56.3483 134.603C58.2424 131.949 59.2517 128.818 59.6147 125.767C59.9663 122.705 59.6601 119.688 59.0816 116.921C58.4805 114.153 57.335 111.647 55.645 109.787C53.9665 107.927 51.9249 106.634 49.8834 105.999C47.8532 105.33 45.8684 105.261 44.1785 105.386C42.4772 105.522 41.0254 105.851 39.8572 106.157C38.7004 106.486 37.8044 106.793 37.2032 107.008C36.6021 107.224 36.2846 107.337 36.2732 107.314V107.326Z" fill="#8A8A8A"/>
<path d="M17.4003 159.453C17.2075 159.51 16.6971 155.45 14.009 151.355C11.3664 147.216 7.87312 145.095 7.99788 144.947C8.0319 144.89 8.93925 145.333 10.2322 146.331C11.5252 147.329 13.1471 148.94 14.5081 151.026C15.8691 153.125 16.6744 155.268 17.0487 156.856C17.4343 158.444 17.457 159.453 17.3889 159.465L17.4003 159.453Z" fill="#8A8A8A"/>
<path d="M106.785 151.865C106.785 151.865 106.354 152.046 105.492 152.216C104.63 152.386 103.326 152.545 101.659 152.386C100.003 152.228 97.9613 151.706 95.8971 150.492C93.8442 149.29 91.814 147.283 90.5777 144.515C89.3528 141.782 88.8311 138.3 89.8405 134.863C90.3623 133.151 91.383 131.472 93.0503 130.417C93.8669 129.896 94.933 129.612 95.9424 129.828C96.9745 130.009 97.8592 130.701 98.4716 131.506C100.774 134.886 101.16 139.468 99.8213 143.608C99.1295 145.672 97.9953 147.646 96.3848 149.233C94.7856 150.833 92.71 151.989 90.4757 152.579C86.007 153.77 81.0393 152.693 77.8409 149.642C74.6538 146.579 73.4062 142.065 74.0527 138.118C74.3476 136.134 75.1869 134.285 76.3664 132.776C76.9789 132.039 77.7275 131.393 78.6348 131.041C79.5308 130.667 80.5629 130.701 81.4249 131.075C83.1375 131.835 84.1923 133.525 84.3851 135.192C84.5779 136.882 84.0902 138.47 83.4664 139.831C82.1394 142.542 80.3814 144.651 78.6348 146.273C76.8882 147.884 75.1529 149.018 73.6784 149.778C72.1927 150.549 70.979 151.003 70.1398 151.252C69.7201 151.388 69.3912 151.456 69.1757 151.524C68.9602 151.581 68.8468 151.604 68.8468 151.593C68.8468 151.593 68.9489 151.536 69.1644 151.468C69.3799 151.388 69.6974 151.298 70.1057 151.15C70.9223 150.855 72.1246 150.379 73.5763 149.585C75.0281 148.791 76.7067 147.646 78.408 146.035C80.0979 144.424 81.8105 142.315 83.0808 139.661C83.6819 138.334 84.1243 136.825 83.9201 135.26C83.7386 133.74 82.7405 132.198 81.2321 131.54C80.4835 131.223 79.6102 131.2 78.8276 131.529C78.045 131.835 77.3532 132.425 76.7861 133.117C75.6859 134.534 74.892 136.304 74.6084 138.198C73.996 141.975 75.2322 146.307 78.2605 149.199C81.2888 152.092 86.0524 153.124 90.3396 151.989C92.4832 151.422 94.4566 150.334 95.9764 148.802C97.5076 147.283 98.6077 145.389 99.2769 143.415C99.9234 141.419 100.162 139.332 99.9461 137.324C99.844 136.326 99.6399 135.34 99.3223 134.41C99.0274 133.468 98.6077 132.584 98.0407 131.835C97.4736 131.086 96.7137 130.508 95.8403 130.349C94.9784 130.168 94.071 130.395 93.3338 130.86C91.8253 131.801 90.8159 133.4 90.3282 134.999C89.3301 138.3 89.8065 141.668 90.9747 144.334C92.1543 147.022 94.0937 148.995 96.0785 150.197C98.0747 151.411 100.059 151.955 101.693 152.148C104.993 152.511 106.785 151.751 106.797 151.865H106.785Z" fill="#FAFAFA"/>
<path d="M111.367 83.8145C110.085 82.2494 109.144 80.3893 108.656 78.4272C108.497 77.7807 108.384 77.0888 108.588 76.4537C108.792 75.8186 109.393 75.2628 110.051 75.3309C110.732 75.3989 111.197 76.034 111.56 76.6125C112.626 78.3024 113.658 80.0377 114.361 81.9205C114.554 82.4422 114.724 82.9752 114.69 83.531C114.656 84.0867 114.395 84.6538 113.896 84.9034C113.363 85.1869 112.683 85.0281 112.195 84.6765C111.707 84.3249 111.356 83.8032 111.027 83.3042" fill="#B1B1B1"/>
<path d="M114.282 82.5437C113.284 80.4454 112.286 78.3585 111.288 76.2603C110.993 75.6365 110.686 74.99 110.664 74.3095C110.641 73.6177 110.981 72.8691 111.628 72.6309C112.195 72.4268 112.841 72.6536 113.284 73.0619C113.726 73.4589 114.01 74.0146 114.293 74.5477C114.77 75.4664 115.235 76.3851 115.711 77.3038C116.097 78.0523 116.482 78.8122 116.641 79.6402C116.8 80.4681 116.698 81.3868 116.176 82.0446C115.654 82.7025 114.645 83.0087 113.919 82.5777" fill="#B1B1B1"/>
<path d="M100.955 101.983C100.955 101.983 96.7813 96.5733 96.407 93.7152C96.0328 90.8571 99.5261 85.7986 107.023 84.6644C111.049 84.052 113.408 82.9291 114.724 82.0218C115.677 81.364 116.04 80.1617 115.597 79.0956C114.611 76.7025 112.841 72.2678 112.977 71.678C113.329 70.1469 114.327 70.1809 116.913 73.9691C119.51 77.7572 122.493 81.6135 121.915 83.3601C121.336 85.1068 112.195 90.5168 112.195 90.5168L114.69 94.5432L100.932 101.983H100.955Z" fill="white"/>
<path d="M125.748 157.593L96.9741 101.224L115.495 90.8459L154.42 152.557C154.42 152.557 156.473 156.504 159.343 161.12H126.712" fill="#DEDEDE"/>
<path d="M115.201 90.835C115.201 90.835 115.099 90.9258 114.883 91.0619C114.623 91.2207 114.305 91.4135 113.908 91.6516C112.989 92.1847 111.742 92.9106 110.177 93.8179C106.887 95.6893 102.294 98.3093 96.7931 101.44L96.8953 101.099C99.6967 106.804 103.326 113.405 107.001 120.585C112.456 131.189 117.174 140.909 120.498 147.986C122.165 151.525 123.469 154.406 124.365 156.391C124.785 157.355 125.125 158.115 125.375 158.693C125.601 159.226 125.703 159.51 125.692 159.51C125.669 159.51 125.522 159.249 125.272 158.739C124.989 158.171 124.626 157.423 124.161 156.482C123.174 154.451 121.802 151.627 120.123 148.157C116.709 141.125 111.934 131.45 106.479 120.846C102.816 113.677 99.209 107.065 96.4529 101.326L96.3395 101.099L96.555 100.986C102.101 97.935 106.729 95.3718 110.04 93.5457C111.628 92.6838 112.91 92.0032 113.84 91.5042C114.248 91.2887 114.577 91.1186 114.849 90.9825C115.076 90.8691 115.201 90.8123 115.212 90.8237L115.201 90.835Z" fill="#8A8A8A"/>
<path d="M38.9157 162.606C38.7796 162.685 37.1691 159.918 35.8307 156.232C34.4924 152.534 33.9593 149.393 34.1181 149.359C34.2882 149.325 35.0708 152.376 36.4091 156.028C37.7248 159.68 39.0745 162.527 38.9157 162.606Z" fill="#8A8A8A"/>
<path d="M102.283 79.4949C106.808 81.2755 112.423 79.7444 115.417 75.8995C118.411 72.066 118.536 66.2476 115.7 62.278C122.199 60.6334 126.248 53.1365 124.933 46.5695C123.617 40.0026 117.742 34.8648 111.198 33.4471C108.691 32.9027 106.037 32.8459 103.599 33.6399C101.16 34.4338 98.9712 36.1578 97.9277 38.5055" fill="#8A8A8A"/>
<path d="M101.376 64.8061C101.398 64.8741 100.525 65.0329 99.1526 65.7474C97.8143 66.4506 95.9315 67.9024 94.8087 70.4203C94.2642 71.6679 93.9013 73.165 93.992 74.7642C94.0828 76.352 94.5365 78.0646 95.5345 79.5618C96.0109 80.3217 96.6347 81.0135 97.3492 81.626C98.0524 82.2384 98.8804 82.7602 99.7764 83.1344C101.557 83.9284 103.667 84.1212 105.685 83.6789C107.693 83.2025 109.508 82.1137 110.767 80.6166C111.413 79.8907 111.923 79.0627 112.298 78.2007C112.683 77.3501 112.933 76.4541 113.035 75.5581C113.284 73.7774 112.944 72.0421 112.343 70.5677C111.731 69.0819 110.755 67.9024 109.723 67.0177C107.614 65.237 105.3 64.7493 103.78 64.6926C102.238 64.6359 101.387 64.8854 101.376 64.8061C101.376 64.7834 101.58 64.7267 101.988 64.6359C102.385 64.5338 102.997 64.4544 103.791 64.4544C105.345 64.4318 107.761 64.8628 109.995 66.6888C111.096 67.5961 112.139 68.8211 112.808 70.3749C113.466 71.9174 113.84 73.7434 113.591 75.6375C113.489 76.5789 113.228 77.5316 112.831 78.4389C112.445 79.3576 111.901 80.2309 111.22 81.0135C109.882 82.6014 107.965 83.7696 105.822 84.28C103.678 84.7563 101.432 84.5408 99.5496 83.6902C98.5968 83.2819 97.7235 82.7375 96.9863 82.0796C96.2264 81.4332 95.5799 80.696 95.0809 79.8793C94.0374 78.2915 93.5724 76.4768 93.5044 74.7982C93.4363 73.1083 93.8446 71.5544 94.4344 70.2615C95.6593 67.6528 97.6555 66.2124 99.0618 65.5546C99.7764 65.2144 100.366 65.0215 100.763 64.9421C101.171 64.8514 101.376 64.806 101.387 64.8287L101.376 64.8061Z" fill="white"/>
<path d="M106.286 46.9317C110.982 46.6709 115.303 43.1095 116.46 38.5501C117.617 33.9907 115.53 28.7962 111.526 26.3236C113.454 20.8909 111.56 14.3353 107.024 10.774C102.487 7.21267 95.6591 6.94046 90.8502 10.1048C87.1754 3.66267 79.3042 -0.114154 71.9774 1.0654C64.6506 2.24495 58.3559 8.2788 56.8701 15.5489C50.2805 12.8269 42.0917 14.5735 37.1807 19.7681C32.281 24.9513 30.988 33.2308 34.073 39.6616C26.905 40.2854 20.9392 47.3627 21.5516 54.5421C22.1641 61.7215 29.23 67.6873 36.4094 67.0862C34.9463 71.8497 36.7837 77.4412 40.7874 80.4128C44.791 83.3844 50.6774 83.5091 54.8058 80.719C57.4372 84.9722 62.6431 87.5014 67.6108 86.923C72.5785 86.3446 77.0812 82.7152 78.6804 77.9743" fill="#8A8A8A"/>
<path d="M92.6425 100.136C92.8807 94.6122 93.1756 89.6105 93.1756 89.6105C93.1756 89.6105 105.515 88.0566 106.049 75.4559C106.582 62.8551 105.323 33.8427 105.323 33.8427L82.605 22.9319L58.1633 42.6213L61.9969 100.487C62.5526 108.824 69.6753 115.186 78.0229 114.801C85.9622 114.438 92.3023 108.064 92.6425 100.124V100.136Z" fill="white"/>
<path d="M104.722 55.4258C104.529 55.6413 103.349 54.6432 101.659 54.5865C99.9695 54.4958 98.7105 55.3804 98.5291 55.1536C98.4383 55.0515 98.6425 54.6659 99.1869 54.2689C99.72 53.872 100.639 53.4977 101.693 53.5431C102.748 53.5884 103.633 54.0421 104.132 54.4844C104.642 54.9381 104.812 55.3351 104.722 55.4258Z" fill="#8A8A8A"/>
<path d="M85.9962 55.4258C85.792 55.6413 84.6238 54.6432 82.9339 54.5865C81.244 54.4958 79.985 55.3804 79.8036 55.1536C79.7128 55.0515 79.917 54.6659 80.4727 54.2689C81.0058 53.872 81.9245 53.4977 82.9793 53.5431C84.0341 53.5884 84.9187 54.0421 85.4178 54.4844C85.9281 54.9381 86.0983 55.3351 86.0076 55.4258H85.9962Z" fill="#8A8A8A"/>
<path d="M92.3362 68.1282C92.3362 68.0261 93.3797 67.8673 95.0923 67.7085C95.5233 67.6745 95.9316 67.6064 96.011 67.2889C96.1131 66.9599 95.9429 66.4496 95.7388 65.9052C95.3532 64.771 94.9449 63.5801 94.5139 62.3325C92.8126 57.2513 91.599 53.0662 91.7919 52.9982C91.9847 52.9301 93.5158 57.0018 95.2057 62.083C95.614 63.3419 95.9997 64.5328 96.3739 65.6783C96.5327 66.2114 96.8049 66.8125 96.5668 67.5044C96.442 67.8446 96.1244 68.0828 95.8409 68.1508C95.5573 68.2302 95.3191 68.2302 95.1037 68.2302C93.391 68.2643 92.3249 68.2302 92.3136 68.1168L92.3362 68.1282Z" fill="#8A8A8A"/>
<path d="M93.1754 89.6104C93.1754 89.6104 84.9185 89.8486 76.8318 84.2571C76.8318 84.2571 80.6767 93.4326 92.9599 92.6954L93.1754 89.5991V89.6104Z" fill="#B1B1B1"/>
<path d="M75.6409 23.6353C71.6146 29.2041 71.7053 37.4156 75.8678 42.8937C77.7051 45.3095 80.4725 47.2603 83.5008 47.1582C86.529 47.0448 89.4553 44.1753 88.8088 41.2151C87.6292 44.9239 90.7823 49.3132 94.6612 49.3812C98.5401 49.4493 101.852 45.1734 100.808 41.4306C101.115 42.7803 101.444 44.1526 102.215 45.2982C102.986 46.4437 104.324 47.3057 105.697 47.1242C107.591 46.8747 108.702 44.8331 109.133 42.9731C110.438 37.3929 108.373 31.2683 104.279 27.2646C100.185 23.261 94.2528 21.3556 88.5366 21.7412C82.8203 22.1268 77.3649 24.7014 73.0777 28.5009" fill="#8A8A8A"/>
<path d="M77.2401 28.0811C78.7146 31.6764 79.8147 35.4986 79.7807 39.3889C79.7467 43.2791 78.4537 47.2601 75.6977 50.0048C72.9416 52.7495 68.5977 54.0085 64.9796 52.5794C65.8416 55.9819 65.5354 59.8382 63.4144 62.6396C61.2935 65.441 57.1538 66.7794 54.0688 65.0894C51.29 63.5696 50.0765 60.1898 49.7022 57.0367C48.7722 49.415 51.4715 41.4304 56.8362 35.9296C62.2009 30.4288 70.1061 27.5253 77.7505 28.2625" fill="#8A8A8A"/>
<path d="M61.6568 58.1038C59.9782 57.0716 57.6871 57.9223 56.3488 59.374C54.2506 61.6651 53.8876 65.3625 55.4982 68.0165C57.1087 70.6705 60.5566 72.0655 63.5622 71.2603" fill="white"/>
<path d="M61.2711 67.4947C61.2711 67.5627 60.7154 67.6421 59.842 67.4039C59.0141 67.1771 57.7438 66.5079 57.2561 65.0902C57.0179 64.4097 57.0633 63.6611 57.3242 63.0827C57.585 62.5043 57.9933 62.096 58.3676 61.8464C59.1389 61.3361 59.74 61.3474 59.74 61.4155C59.7627 61.5062 59.2409 61.6536 58.6285 62.1867C58.016 62.6857 57.4035 63.7519 57.8232 64.9087C58.2088 66.0543 59.2409 66.7007 59.9895 67.0183C60.7494 67.3472 61.2825 67.4266 61.2711 67.5174V67.4947Z" fill="#B1B1B1"/>
<path d="M87.0282 50.1645C86.8694 50.6522 85.032 50.4707 82.8317 50.5728C80.6427 50.6409 78.8167 50.9584 78.6239 50.4821C78.4197 50.0398 80.2117 48.8489 82.7636 48.7581C85.3155 48.6561 87.1983 49.7108 87.0282 50.1645Z" fill="#8A8A8A"/>
<path d="M104.687 49.8123C104.495 49.9824 104.12 49.869 103.678 49.7556C103.224 49.6421 102.805 49.5854 102.135 49.6535C101.478 49.7215 100.752 49.835 100.196 49.8236C99.6403 49.8236 99.2547 49.6989 99.1866 49.4607C99.1186 49.2225 99.3681 48.9049 99.8331 48.5987C100.309 48.2925 101.001 47.9522 101.977 47.8501C102.952 47.714 104.018 48.1791 104.415 48.7008C104.846 49.2225 104.869 49.6535 104.687 49.8009V49.8123Z" fill="#8A8A8A"/>
<path d="M89.41 71.3623C90.3627 70.7952 91.5536 70.5343 92.5971 70.9086C93.6405 71.2942 94.4231 72.4284 94.1736 73.5059C94.0375 74.0957 93.6292 74.5947 93.1528 74.9576C92.4156 75.5134 91.4402 75.7969 90.5215 75.6041C89.6141 75.4113 88.7975 74.7195 88.5707 73.8235C88.3325 72.9275 88.7635 71.8727 89.5915 71.4644" fill="#B1B1B1"/>
<path d="M95.591 72.7008C95.625 72.7688 95.1941 73.0524 94.3774 73.2338C93.5722 73.4153 92.3699 73.4153 91.179 72.9163C89.9882 72.4172 89.1489 71.5666 88.7065 70.8634C88.2642 70.1602 88.1621 69.6498 88.2302 69.6271C88.3096 69.5931 88.5477 70.0241 89.0468 70.6139C89.5458 71.1923 90.3397 71.9182 91.4059 72.3605C92.472 72.8028 93.5495 72.8709 94.3094 72.8028C95.0806 72.7461 95.5457 72.61 95.5797 72.6894L95.591 72.7008Z" fill="#8A8A8A"/>
<path d="M70.0151 78.7117C69.947 78.7117 69.9924 77.8384 69.5954 76.3413C69.2098 74.8782 68.2117 72.7232 66.0001 71.0673C64.9113 70.2621 63.5275 69.5702 61.951 69.298C60.3745 69.0372 58.6052 69.0939 56.9266 69.7403C56.076 70.0352 55.2594 70.4889 54.5108 71.0447C53.7509 71.6004 53.0704 72.2809 52.5033 73.0748C51.3351 74.64 50.6773 76.6475 50.6546 78.7117C50.6773 80.7759 51.3351 82.7834 52.5033 84.3486C53.0704 85.1425 53.7622 85.8231 54.5108 86.3788C55.2594 86.9459 56.076 87.3882 56.9266 87.6831C58.6052 88.3296 60.3745 88.3863 61.951 88.1254C63.5275 87.8532 64.9113 87.1727 66.0001 86.3561C68.2117 84.7002 69.1985 82.5453 69.5954 81.0822C69.9924 79.585 69.947 78.7004 70.0151 78.7117C70.0378 78.7117 70.0491 78.9272 70.0491 79.3469C70.0491 79.7552 70.0037 80.379 69.8223 81.1502C69.4933 82.67 68.5293 84.927 66.2609 86.7077C65.1381 87.5697 63.709 88.3183 62.0418 88.6245C60.3972 88.9194 58.5258 88.8853 56.7338 88.2162C55.8378 87.9099 54.9645 87.4449 54.1706 86.8552C53.3653 86.2767 52.6281 85.5508 52.0269 84.7116C50.7793 83.0556 50.0648 80.9234 50.0535 78.7231C50.0762 76.5228 50.7793 74.3905 52.0269 72.7346C52.6281 71.8953 53.3653 71.1694 54.1706 70.591C54.9645 70.0012 55.8378 69.5362 56.7338 69.23C58.5258 68.5608 60.3859 68.5268 62.0418 68.8217C63.6977 69.1279 65.1381 69.8764 66.2609 70.7384C68.5293 72.5191 69.4933 74.7761 69.8223 76.2959C69.9924 77.0672 70.0491 77.6796 70.0491 78.0993C70.0491 78.5189 70.0491 78.7344 70.0151 78.7344V78.7117Z" fill="white"/>
<path d="M104.676 22.3315C104.676 22.3315 104.789 22.3315 104.993 22.4109C105.186 22.4903 105.481 22.6264 105.787 22.9213C106.389 23.4657 107.069 24.668 106.797 26.2331C106.547 27.8096 104.959 29.3181 102.873 29.7151C100.752 30.1574 98.3698 29.3635 96.2262 28.1272L93.8898 26.7775L96.4644 27.6168C97.3491 27.9004 97.9842 28.7283 98.1997 29.6017C98.4379 30.4863 98.3358 31.4731 97.8368 32.3123C97.3264 33.1516 96.4644 33.696 95.5344 33.9456C94.6044 34.1951 93.595 34.1497 92.6649 33.8775C90.3625 33.163 88.8654 31.2916 87.7312 29.613L86.0867 27.2085L88.1736 29.2387C89.3645 30.3956 89.6253 32.1195 89.2964 33.5259C88.9788 34.9663 87.9807 36.1686 86.7785 36.7243C84.3514 37.8812 81.7541 37.1553 80.325 35.9417C78.8279 34.7168 78.1928 33.2651 77.8865 32.301C77.7277 31.8133 77.6597 31.4163 77.6143 31.1555C77.5803 30.8946 77.5689 30.7472 77.5916 30.7472C77.637 30.7472 77.7164 31.2916 78.0793 32.233C78.4423 33.1516 79.1228 34.5353 80.5632 35.6468C81.9355 36.7583 84.374 37.3595 86.5517 36.282C87.6291 35.7603 88.4798 34.7055 88.7633 33.4125C89.0469 32.1422 88.786 30.6338 87.7766 29.6697L88.2189 29.2954C89.3418 30.94 90.7935 32.6866 92.8464 33.3104C94.5023 33.8208 96.5098 33.3898 97.3491 32.0175C98.1771 30.6791 97.678 28.6036 96.3056 28.1499L96.5325 27.6395C98.6194 28.8644 100.865 29.6243 102.816 29.2501C104.755 28.9211 106.23 27.5715 106.502 26.1651C106.797 24.7473 106.218 23.6018 105.697 23.0574C105.152 22.479 104.687 22.3996 104.721 22.3429L104.676 22.3315Z" fill="#DEDEDE"/>
<path d="M74.4616 42.5869C74.4616 42.5869 74.4162 42.6663 74.3141 42.8024C74.2121 42.9385 74.0306 43.1313 73.7811 43.3695C73.282 43.8232 72.4654 44.447 71.2518 44.878C70.0496 45.2976 68.405 45.5131 66.6697 44.9573C64.9571 44.4129 63.1651 43.1086 62.167 41.0671L62.6434 40.9991C62.2351 43.6304 60.0801 46.2843 56.9611 47.0102C53.8762 47.7134 50.156 46.0802 48.7043 42.8478C47.4227 39.9443 48.2619 36.519 50.2921 34.5569L50.6891 34.9879C49.3054 36.1448 47.5588 36.7005 45.9142 36.7118C44.2696 36.7459 42.6931 36.2809 41.4342 35.4869C40.1752 34.693 39.2339 33.5475 38.7575 32.3339C38.2585 31.1317 38.1224 29.9067 38.2018 28.8293C38.3605 26.6516 39.3019 25.0865 40.0618 24.2132C40.8557 23.3398 41.4455 23.0676 41.4455 23.0676C41.4795 23.113 40.9351 23.4533 40.2093 24.3379C39.5061 25.2226 38.6554 26.7537 38.5647 28.8406C38.5193 29.8727 38.6781 31.0296 39.1658 32.1524C39.6422 33.2753 40.5268 34.3187 41.7064 35.0446C42.8973 35.7705 44.3717 36.1788 45.9142 36.1448C47.4453 36.1221 49.0559 35.589 50.3148 34.5229L50.7118 34.9539C48.8631 36.7459 48.0918 39.9329 49.2714 42.5756C50.5757 45.5244 54.0349 47.0669 56.8477 46.4205C59.7058 45.7853 61.7587 43.3241 62.1557 40.897L62.2918 40.1031L62.632 40.8289C63.528 42.7457 65.1953 44.0046 66.8059 44.549C68.4391 45.1161 70.0042 44.946 71.1724 44.5831C72.3633 44.2201 73.18 43.653 73.7017 43.2334C74.2234 42.8137 74.4502 42.5415 74.4843 42.5642L74.4616 42.5869Z" fill="#DEDEDE"/>
<path d="M51.9591 62.7652C51.9591 62.7652 51.6642 63.0487 50.9837 63.3436C50.3032 63.6385 49.2257 63.9447 47.842 63.8313C46.4923 63.7292 44.7911 63.1395 43.5094 61.7217C42.2505 60.338 41.4112 58.1717 41.8082 55.9034L42.3299 56.1302C41.2751 57.5139 39.8347 58.7842 38.0653 59.6121C36.7497 60.2246 35.3206 60.5422 33.9369 60.4968C32.5532 60.4514 31.2376 60.0772 30.1374 59.4534C27.8804 58.2511 26.6101 55.9941 26.5194 54.0887C26.3719 52.1606 27.0638 50.6634 27.6876 49.8355C28.0165 49.4158 28.3114 49.1323 28.5382 48.9735C28.765 48.8147 28.8785 48.7353 28.9011 48.7467C28.9465 48.792 28.4588 49.1323 27.8917 49.9716C27.3473 50.8109 26.7689 52.2513 26.9617 54.0546C27.0978 55.8353 28.2887 57.8655 30.4209 58.977C32.4965 60.1339 35.3433 60.2813 37.8385 59.0791C39.4944 58.3078 40.8781 57.1056 41.8875 55.8013L42.6248 54.8486L42.4093 56.0281C42.035 58.081 42.7722 60.0998 43.9177 61.4042C45.0746 62.7425 46.6284 63.3323 47.91 63.4797C49.2144 63.6385 50.2578 63.4003 50.9383 63.1735C51.6188 62.9353 51.9704 62.7311 51.9931 62.7765L51.9591 62.7652Z" fill="#DEDEDE"/>
<path d="M116.188 38.198C116.245 38.1753 116.528 38.9692 116.437 40.2962C116.358 41.6005 115.791 43.4606 114.373 44.9464C112.944 46.4321 111.118 47.0786 109.814 47.2261C108.498 47.3735 107.693 47.1353 107.704 47.0673C107.704 46.9652 108.509 47.0559 109.746 46.8064C110.959 46.5683 112.627 45.8991 113.942 44.5381C115.247 43.1657 115.836 41.4758 116.029 40.2509C116.222 39.0146 116.097 38.2207 116.199 38.2093L116.188 38.198Z" fill="#DEDEDE"/>
<path d="M123.129 50.0733C123.129 50.0733 123.311 50.3569 123.413 50.9353C123.503 51.5137 123.549 52.3984 123.175 53.4192C122.823 54.4059 121.938 55.6195 120.43 55.9484C119.704 56.1072 118.899 56.0618 118.139 55.7556C117.379 55.4607 116.664 54.8482 116.335 53.9976L116.903 53.8048C116.993 54.1564 117.061 54.5307 117.039 54.9163C116.982 56.8104 115.712 58.3982 114.192 58.954C113.432 59.2375 112.615 59.2375 111.935 59.0447C111.243 58.8519 110.676 58.5003 110.234 58.1033C109.326 57.3094 108.963 56.368 108.861 55.7216C108.759 55.0751 108.861 54.7121 108.895 54.7121C108.952 54.7121 108.929 55.0751 109.099 55.6649C109.258 56.2546 109.666 57.0939 110.517 57.7631C111.334 58.4436 112.695 58.9313 113.999 58.4096C115.281 57.9105 116.404 56.4815 116.438 54.8823C116.449 54.5534 116.392 54.2358 116.324 53.9409L116.891 53.7481C117.436 55.1204 119.103 55.6422 120.328 55.3813C121.598 55.1545 122.426 54.1337 122.8 53.2377C123.186 52.319 123.22 51.4797 123.197 50.924C123.163 50.3569 123.095 50.0506 123.141 50.0393L123.129 50.0733Z" fill="#DEDEDE"/>
<path d="M88.5479 66.9153C88.6273 66.9153 88.6726 67.1762 88.5706 67.5618C88.4685 67.9474 88.1963 68.4464 87.7313 68.8321C87.2663 69.2177 86.7219 69.3992 86.3249 69.4219C85.9279 69.4445 85.6897 69.3538 85.7011 69.2744C85.7011 69.1043 86.5744 69.0249 87.3456 68.3557C88.1396 67.7206 88.3778 66.8813 88.5479 66.9153Z" fill="#8A8A8A"/>
</svg>
