<svg width="20" height="21" viewBox="0 0 20 21" fill="none" xmlns="http://www.w3.org/2000/svg">
<path d="M2.93182 9.08556C2.60844 8.19053 2.44675 7.74303 2.5157 7.45627C2.59111 7.14262 2.81416 6.8981 3.09927 6.81653C3.35994 6.74195 3.76544 6.92217 4.57644 7.28262C5.29377 7.60145 5.65244 7.76085 5.98943 7.75199C6.36047 7.74222 6.7174 7.59343 7.00133 7.33015C7.25921 7.09104 7.43217 6.71 7.77811 5.94793L8.5405 4.26844C9.17733 2.86552 9.49575 2.16406 10 2.16406C10.5042 2.16406 10.8227 2.86552 11.4595 4.26844L12.2219 5.94793C12.5678 6.71 12.7408 7.09104 12.9987 7.33015C13.2826 7.59343 13.6395 7.74222 14.0106 7.75199C14.3476 7.76085 14.7062 7.60145 15.4236 7.28262C16.2346 6.92217 16.6401 6.74195 16.9007 6.81653C17.1858 6.8981 17.4089 7.14262 17.4843 7.45627C17.5532 7.74303 17.3916 8.19053 17.0682 9.08548L15.6782 12.9326C15.0835 14.5782 14.7862 15.4011 14.164 15.8659C13.5418 16.3307 12.7378 16.3307 11.1298 16.3307H8.87017C7.26216 16.3307 6.45814 16.3307 5.83596 15.8659C5.21378 15.4011 4.91647 14.5782 4.32185 12.9326L2.93182 9.08556Z" fill="white" stroke="white" stroke-width="0.5"/>
</svg>
