<svg width="101" height="101" viewBox="0 0 101 101" fill="none" xmlns="http://www.w3.org/2000/svg">
<path opacity="0.2" d="M50.4992 92.5922C73.7444 92.5922 92.5883 73.7483 92.5883 50.5031C92.5883 27.258 73.7444 8.41406 50.4992 8.41406C27.2541 8.41406 8.41016 27.258 8.41016 50.5031C8.41016 73.7483 27.2541 92.5922 50.4992 92.5922Z" fill="#016A70"/>
<path opacity="0.2" d="M75.7505 75.7524C89.696 61.807 89.696 39.1969 75.7505 25.2515C61.805 11.306 39.195 11.306 25.2495 25.2515C11.3041 39.1969 11.3041 61.807 25.2495 75.7524C39.195 89.6979 61.805 89.6979 75.7505 75.7524Z" fill="#016A70"/>
<path opacity="0.2" d="M72.2787 72.2807C84.3067 60.2526 84.3067 40.7513 72.2787 28.7232C60.2506 16.6951 40.7492 16.6951 28.7211 28.7232C16.6931 40.7513 16.6931 60.2526 28.7211 72.2807C40.7492 84.3088 60.2506 84.3088 72.2787 72.2807Z" fill="#016A70"/>
<path opacity="0.2" d="M69.5602 69.5624C80.087 59.0356 80.087 41.9683 69.5602 31.4415C59.0334 20.9147 41.9661 20.9147 31.4393 31.4415C20.9126 41.9683 20.9126 59.0356 31.4393 69.5624C41.9661 80.0892 59.0334 80.0892 69.5602 69.5624Z" fill="#016A70"/>
<path d="M62.3153 86.7784C60.353 86.5268 59.7319 85.049 60.9313 83.4749C62.1306 81.9008 64.6792 80.8299 66.6495 81.0789C68.6199 81.3279 69.2302 82.8083 68.0336 84.3824C66.8369 85.9566 64.2776 87.0274 62.3153 86.7784Z" fill="#263238"/>
<path d="M68.6282 83.0905L67.9723 83.3582C67.6328 83.0818 67.2174 82.9147 66.781 82.879C65.1747 82.6756 63.1053 83.5483 62.1309 84.828C61.8509 85.1646 61.6792 85.578 61.6383 86.0139L60.9824 86.2816L62.2353 87.1597C62.5427 87.3537 62.8909 87.4737 63.2526 87.5104C64.8588 87.7139 66.9309 86.8411 67.9054 85.5615C68.1325 85.2775 68.291 84.945 68.3685 84.5897L68.6282 83.0905Z" fill="#016A70"/>
<path opacity="0.4" d="M68.6282 83.0905L67.9723 83.3582C67.6328 83.0818 67.2174 82.9147 66.781 82.879C65.1747 82.6756 63.1053 83.5483 62.1309 84.828C61.8509 85.1646 61.6792 85.578 61.6383 86.0139L60.9824 86.2816L62.2353 87.1597C62.5427 87.3537 62.8909 87.4737 63.2526 87.5104C64.8588 87.7139 66.9309 86.8411 67.9054 85.5615C68.1325 85.2775 68.291 84.945 68.3685 84.5897L68.6282 83.0905Z" fill="black"/>
<path d="M65.1568 85.5389C68.4633 84.1639 70.5003 81.5021 69.7067 79.5936C68.913 77.6851 65.5892 77.2526 62.2828 78.6275C58.9763 80.0025 56.9393 82.6643 57.7329 84.5729C58.5266 86.4814 61.8504 86.9139 65.1568 85.5389Z" fill="#016A70"/>
<path d="M64.8436 84.7835C68.273 83.3574 70.3857 80.5967 69.5625 78.6172C68.7393 76.6377 65.292 76.189 61.8627 77.6151C58.4333 79.0412 56.3206 81.802 57.1438 83.7815C57.967 85.761 61.4143 86.2096 64.8436 84.7835Z" fill="#016A70"/>
<path opacity="0.2" d="M64.8436 84.7835C68.273 83.3574 70.3857 80.5967 69.5625 78.6172C68.7393 76.6377 65.292 76.189 61.8627 77.6151C58.4333 79.0412 56.3206 81.802 57.1438 83.7815C57.967 85.761 61.4143 86.2096 64.8436 84.7835Z" fill="black"/>
<path d="M64.4861 83.926C68.0028 82.4636 70.1693 79.6325 69.3251 77.6024C68.4809 75.5724 64.9457 75.1123 61.4291 76.5747C57.9124 78.0371 55.7459 80.8683 56.5901 82.8983C57.4342 84.9283 60.9694 85.3885 64.4861 83.926Z" fill="#016A70"/>
<path d="M64.132 83.0676C67.7347 81.5695 69.9539 78.6684 69.0887 76.5878C68.2235 74.5073 64.6015 74.0352 60.9988 75.5334C57.3961 77.0316 55.177 79.9327 56.0421 82.0132C56.9073 84.0938 60.5293 84.5658 64.132 83.0676Z" fill="#016A70"/>
<path opacity="0.2" d="M64.132 83.0676C67.7347 81.5695 69.9539 78.6684 69.0887 76.5878C68.2235 74.5073 64.6015 74.0352 60.9988 75.5334C57.3961 77.0316 55.177 79.9327 56.0421 82.0132C56.9073 84.0938 60.5293 84.5658 64.132 83.0676Z" fill="black"/>
<path d="M63.7743 82.213C67.4644 80.6785 69.7379 77.7081 68.8522 75.5784C67.9666 73.4488 64.2573 72.9663 60.5672 74.5008C56.8771 76.0353 54.6037 79.0057 55.4893 81.1354C56.3749 83.2651 60.0843 83.7475 63.7743 82.213Z" fill="#016A70"/>
<path d="M63.4173 81.3566C67.1933 79.7863 69.5195 76.746 68.6128 74.5658C67.7062 72.3856 63.9101 71.8912 60.1341 73.4614C56.358 75.0317 54.0318 78.0721 54.9385 80.2523C55.8451 82.4324 59.6412 82.9269 63.4173 81.3566Z" fill="#37474F"/>
<path d="M41.5337 28.7244C38.7065 29.8985 36.1383 31.6181 33.9758 33.785C31.8132 35.9519 30.0988 38.5236 28.9304 41.3532C27.762 44.1827 27.1624 47.2148 27.166 50.2761C27.1696 53.3375 27.7763 56.3681 28.9514 59.1949C36.0564 76.2774 51.3318 73.2523 54.1963 80.1377C54.6514 81.2353 55.832 82.0304 57.631 82.2794C61.2263 82.7479 65.9299 80.7909 68.1305 77.9131C69.2334 76.4728 69.5012 75.0727 69.0461 73.9778C66.1816 67.0896 79.0985 58.3918 71.9908 41.3174C69.6215 35.6089 65.0817 31.0753 59.37 28.7137C53.6584 26.3522 47.2425 26.356 41.5337 28.7244Z" fill="#016A70"/>
<g style="mix-blend-mode:screen" opacity="0.9">
<path d="M41.5337 28.7244C38.7065 29.8985 36.1383 31.6181 33.9758 33.785C31.8132 35.9519 30.0988 38.5236 28.9304 41.3532C27.762 44.1827 27.1624 47.2148 27.166 50.2761C27.1696 53.3375 27.7763 56.3681 28.9514 59.1949C36.0564 76.2774 51.3318 73.2523 54.1963 80.1377C54.6514 81.2353 55.832 82.0304 57.631 82.2794C61.2263 82.7479 65.9299 80.7909 68.1305 77.9131C69.2334 76.4728 69.5012 75.0727 69.0461 73.9778C66.1816 67.0896 79.0985 58.3918 71.9908 41.3174C69.6215 35.6089 65.0817 31.0753 59.37 28.7137C53.6584 26.3522 47.2425 26.356 41.5337 28.7244Z" fill="white"/>
</g>
<path d="M56.0964 32.8561C55.875 33.0847 55.6842 33.3412 55.5289 33.619C54.9506 34.6444 55.0979 35.9776 55.7029 36.9868C56.8728 38.9411 59.416 39.3962 61.2498 40.542C63.262 41.7867 65.0376 43.3783 66.4942 45.2429C66.9279 45.7998 67.5838 46.7448 68.1406 47.1758C68.4958 47.4561 68.9426 47.5941 69.3939 47.5629C69.8453 47.5318 70.2689 47.3336 70.5821 47.0071C71.2326 46.204 71.23 44.9886 71.0078 44.1186C69.6692 38.9598 67.1688 35.7313 63.1559 33.006C60.9767 31.5202 58.1658 30.7358 56.0964 32.8561Z" fill="white"/>
<path opacity="0.6" d="M60.533 57.9137C67.0243 51.4224 67.0243 40.8979 60.533 34.4066C54.0417 27.9153 43.5173 27.9153 37.026 34.4066C30.5347 40.8979 30.5347 51.4224 37.026 57.9137C43.5173 64.405 54.0417 64.405 60.533 57.9137Z" fill="white"/>
<path d="M68.9761 50.7505C69.008 51.1115 69.1161 51.4616 69.2933 51.7777C69.4705 52.0938 69.7128 52.3687 70.0041 52.5843C70.3257 52.8093 70.7231 52.8983 71.11 52.8322C71.4969 52.766 71.8422 52.55 72.0708 52.2309C72.3 51.9005 72.4429 51.5179 72.4864 51.1181C72.5299 50.7183 72.4726 50.314 72.3198 49.942C71.9798 49.1576 71.1177 48.5285 70.2075 48.8042C69.3589 49.0639 68.9225 50.0116 68.9761 50.7505Z" fill="white"/>
<path opacity="0.15" d="M56.4266 76.6661C54.8203 74.1389 53.4604 72.9851 49.3859 72.6505C45.3113 72.3159 38.4098 72.1151 33.0557 66.1211C40.771 75.5391 51.822 74.3799 54.2046 80.1303C54.6597 81.2279 55.8403 82.023 57.6393 82.2719C58.415 82.3637 59.1991 82.3592 59.9737 82.2585C58.9591 80.6523 57.4198 78.2376 56.4266 76.6661Z" fill="#016A70"/>
<path opacity="0.15" d="M65.0326 73.0801C64.3767 70.1567 64.5133 68.3818 67.1556 65.263C69.7978 62.1442 74.5202 57.114 74.041 49.0801C75.2805 61.1939 66.663 68.2105 69.0563 73.9769C69.5114 75.0719 69.2437 76.472 68.1407 77.9122C67.6594 78.5273 67.1037 79.0804 66.4863 79.5586C66.0633 77.6954 65.4422 74.9086 65.0326 73.0801Z" fill="#016A70"/>
<path d="M47.0988 45.4833C47.7912 43.6255 46.8464 41.5581 44.9885 40.8657C43.1307 40.1733 41.0633 41.1181 40.3709 42.9759C39.6785 44.8338 40.6233 46.9011 42.4811 47.5936C44.339 48.286 46.4064 47.3412 47.0988 45.4833Z" fill="#016A70"/>
<path opacity="0.2" d="M44.2667 46.5524C42.4382 47.0155 40.757 45.8617 40.1466 44.143C40.1285 44.6712 40.2274 45.1968 40.436 45.6824C40.6447 46.1679 40.9581 46.6014 41.3538 46.9517C41.7494 47.302 42.2176 47.5606 42.7249 47.709C43.2321 47.8573 43.7658 47.8917 44.2879 47.8098C44.81 47.7279 45.3076 47.5316 45.745 47.235C46.1824 46.9384 46.5489 46.5489 46.8182 46.0942C47.0876 45.6395 47.2531 45.1309 47.3031 44.6048C47.353 44.0787 47.2861 43.548 47.107 43.0508C47.3614 44.0065 46.2129 46.0571 44.2667 46.5524Z" fill="black"/>
<path d="M46.0122 49.0771C46.4986 49.5945 46.8206 50.2445 46.9376 50.9449C47.0545 51.6453 46.9611 52.3647 46.6692 53.012C46.3772 53.6594 45.8999 54.2056 45.2974 54.5816C44.695 54.9576 43.9947 55.1465 43.2849 55.1244C42.5751 55.1023 41.8878 54.8702 41.31 54.4574C40.7321 54.0447 40.2897 53.4698 40.0386 52.8056C39.7875 52.1414 39.739 51.4176 39.8993 50.7258C40.0596 50.034 40.4214 49.4053 40.9391 48.9192C41.6332 48.2683 42.5572 47.9194 43.5083 47.949C44.4594 47.9786 45.3599 48.3843 46.0122 49.0771Z" fill="#016A70"/>
<path opacity="0.45" d="M46.0122 49.0771C46.4986 49.5945 46.8206 50.2445 46.9376 50.9449C47.0545 51.6453 46.9611 52.3647 46.6692 53.012C46.3772 53.6594 45.8999 54.2056 45.2974 54.5816C44.695 54.9576 43.9947 55.1465 43.2849 55.1244C42.5751 55.1023 41.8878 54.8702 41.31 54.4574C40.7321 54.0447 40.2897 53.4698 40.0386 52.8056C39.7875 52.1414 39.739 51.4176 39.8993 50.7258C40.0596 50.034 40.4214 49.4053 40.9391 48.9192C41.6332 48.2683 42.5572 47.9194 43.5083 47.949C44.4594 47.9786 45.3599 48.3843 46.0122 49.0771Z" fill="white"/>
<path opacity="0.2" d="M43.9298 53.8544C42.1014 54.3202 40.4202 53.1664 39.8098 51.445C39.7913 51.9733 39.8898 52.4991 40.0983 52.9848C40.3067 53.4706 40.6199 53.9043 41.0154 54.2549C41.411 54.6055 41.8791 54.8644 42.3864 55.013C42.8937 55.1616 43.4275 55.1962 43.9497 55.1145C44.4719 55.0327 44.9696 54.8366 45.4072 54.5401C45.8448 54.2436 46.2114 53.854 46.4809 53.3993C46.7504 52.9446 46.9161 52.436 46.9661 51.9098C47.0161 51.3836 46.9492 50.8528 46.7702 50.3555C47.0245 51.3085 45.8734 53.3592 43.9298 53.8544Z" fill="#016A70"/>
<path d="M51.4716 52.665C51.9561 53.183 52.2763 53.833 52.3918 54.5328C52.5073 55.2327 52.4129 55.951 52.1205 56.5973C51.828 57.2435 51.3507 57.7886 50.7488 58.1638C50.1469 58.5391 49.4473 58.7276 48.7383 58.7055C48.0293 58.6835 47.3428 58.452 46.7653 58.0401C46.1878 57.6283 45.7452 57.0546 45.4935 56.3915C45.2417 55.7283 45.1921 55.0055 45.3508 54.3142C45.5094 53.6228 45.8694 52.994 46.3851 52.507C46.7289 52.1824 47.1335 51.9289 47.5756 51.7611C48.0176 51.5932 48.4885 51.5144 48.9612 51.5291C49.4338 51.5437 49.8989 51.6517 50.3297 51.8466C50.7605 52.0415 51.1486 52.3197 51.4716 52.665Z" fill="#016A70"/>
<path opacity="0.15" d="M51.4716 52.665C51.9561 53.183 52.2763 53.833 52.3918 54.5328C52.5073 55.2327 52.4129 55.951 52.1205 56.5973C51.828 57.2435 51.3507 57.7886 50.7488 58.1638C50.1469 58.5391 49.4473 58.7276 48.7383 58.7055C48.0293 58.6835 47.3428 58.452 46.7653 58.0401C46.1878 57.6283 45.7452 57.0546 45.4935 56.3915C45.2417 55.7283 45.1921 55.0055 45.3508 54.3142C45.5094 53.6228 45.8694 52.994 46.3851 52.507C46.7289 52.1824 47.1335 51.9289 47.5756 51.7611C48.0176 51.5932 48.4885 51.5144 48.9612 51.5291C49.4338 51.5437 49.8989 51.6517 50.3297 51.8466C50.7605 52.0415 51.1486 52.3197 51.4716 52.665Z" fill="white"/>
<path opacity="0.4" d="M49.3888 57.4443C47.5577 57.9101 45.8792 56.7536 45.2688 55.0349C45.2503 55.5631 45.3488 56.0889 45.5573 56.5747C45.7657 57.0604 46.0789 57.4941 46.4744 57.8447C46.87 58.1953 47.3381 58.4542 47.8454 58.6028C48.3526 58.7514 48.8865 58.7861 49.4087 58.7043C49.9309 58.6226 50.4286 58.4264 50.8662 58.1299C51.3038 57.8334 51.6704 57.4439 51.9399 56.9892C52.2094 56.5345 52.3751 56.0258 52.4251 55.4996C52.4751 54.9734 52.4082 54.4427 52.2292 53.9453C52.4835 54.8984 51.3404 56.949 49.3888 57.4443Z" fill="#016A70"/>
<path d="M57.5249 49.759C58.0113 50.2764 58.3333 50.9264 58.4503 51.6268C58.5672 52.3272 58.4738 53.0466 58.1818 53.6939C57.8899 54.3413 57.4125 54.8875 56.8101 55.2635C56.2077 55.6395 55.5074 55.8283 54.7976 55.8063C54.0878 55.7842 53.4005 55.5521 52.8227 55.1393C52.2448 54.7266 51.8024 54.1517 51.5513 53.4875C51.3002 52.8232 51.2517 52.0995 51.412 51.4077C51.5723 50.7159 51.9341 50.0872 52.4518 49.6011C52.7952 49.2781 53.1988 49.026 53.6397 48.8592C54.0805 48.6923 54.5499 48.614 55.0211 48.6287C55.4922 48.6434 55.9558 48.7507 56.3854 48.9447C56.8151 49.1386 57.2022 49.4153 57.5249 49.759Z" fill="#016A70"/>
<path opacity="0.2" d="M55.4415 54.5365C53.613 55.0023 51.9318 53.8458 51.3214 52.1137C51.3033 52.6419 51.4022 53.1676 51.6108 53.6531C51.8195 54.1386 52.1329 54.5721 52.5286 54.9224C52.9243 55.2727 53.3924 55.5313 53.8997 55.6797C54.4069 55.828 54.9407 55.8624 55.4628 55.7805C55.9848 55.6986 56.4824 55.5023 56.9198 55.2057C57.3572 54.9091 57.7237 54.5196 57.993 54.0649C58.2624 53.6102 58.4279 53.1016 58.4779 52.5755C58.5278 52.0494 58.4609 51.5187 58.2819 51.0215C58.5389 51.9906 57.3877 54.0412 55.4415 54.5365Z" fill="black"/>
<path d="M57.6694 43.3829C58.1558 43.9003 58.4778 44.5503 58.5948 45.2507C58.7117 45.9511 58.6183 46.6705 58.3264 47.3178C58.0344 47.9652 57.5571 48.5114 56.9547 48.8874C56.3523 49.2634 55.6519 49.4522 54.9421 49.4301C54.2323 49.408 53.5451 49.1759 52.9672 48.7632C52.3894 48.3505 51.9469 47.7756 51.6958 47.1114C51.4447 46.4471 51.3962 45.7234 51.5565 45.0316C51.7168 44.3398 52.0787 43.7111 52.5963 43.225C53.2901 42.5734 54.2142 42.2241 55.1655 42.2537C56.1169 42.2833 57.0175 42.6895 57.6694 43.3829Z" fill="#016A70"/>
<path opacity="0.45" d="M57.6694 43.3829C58.1558 43.9003 58.4778 44.5503 58.5948 45.2507C58.7117 45.9511 58.6183 46.6705 58.3264 47.3178C58.0344 47.9652 57.5571 48.5114 56.9547 48.8874C56.3523 49.2634 55.6519 49.4522 54.9421 49.4301C54.2323 49.408 53.5451 49.1759 52.9672 48.7632C52.3894 48.3505 51.9469 47.7756 51.6958 47.1114C51.4447 46.4471 51.3962 45.7234 51.5565 45.0316C51.7168 44.3398 52.0787 43.7111 52.5963 43.225C53.2901 42.5734 54.2142 42.2241 55.1655 42.2537C56.1169 42.2833 57.0175 42.6895 57.6694 43.3829Z" fill="white"/>
<path opacity="0.2" d="M55.5861 48.1627C53.7576 48.6285 52.0764 47.472 51.4661 45.74C51.4476 46.2682 51.5461 46.794 51.7545 47.2798C51.9629 47.7655 52.2761 48.1992 52.6717 48.5498C53.0672 48.9004 53.5354 49.1593 54.0427 49.3079C54.5499 49.4565 55.0837 49.4911 55.6059 49.4094C56.1282 49.3276 56.6259 49.1315 57.0634 48.835C57.501 48.5385 57.8677 48.149 58.1372 47.6942C58.4067 47.2395 58.5723 46.7309 58.6223 46.2047C58.6724 45.6785 58.6055 45.1477 58.4265 44.6504C58.6808 45.6168 57.5296 47.6675 55.5861 48.1627Z" fill="#016A70"/>
<path d="M56.3515 46.5C56.7369 46.9107 56.9918 47.4265 57.0841 47.9821C57.1764 48.5376 57.1019 49.1081 56.8701 49.6214C56.6383 50.1347 56.2595 50.5677 55.7816 50.8657C55.3037 51.1638 54.7482 51.3135 54.1853 51.2959C53.6224 51.2783 53.0773 51.0943 52.6189 50.767C52.1606 50.4397 51.8096 49.9839 51.6102 49.4571C51.4108 48.9304 51.3721 48.3564 51.4989 47.8076C51.6257 47.2589 51.9123 46.7601 52.3225 46.3742C52.8736 45.8568 53.6075 45.5794 54.3631 45.603C55.1186 45.6265 55.8338 45.9492 56.3515 46.5Z" fill="#016A70"/>
<path opacity="0.3" d="M56.3515 46.5C56.7369 46.9107 56.9918 47.4265 57.0841 47.9821C57.1764 48.5376 57.1019 49.1081 56.8701 49.6214C56.6383 50.1347 56.2595 50.5677 55.7816 50.8657C55.3037 51.1638 54.7482 51.3135 54.1853 51.2959C53.6224 51.2783 53.0773 51.0943 52.6189 50.767C52.1606 50.4397 51.8096 49.9839 51.6102 49.4571C51.4108 48.9304 51.3721 48.3564 51.4989 47.8076C51.6257 47.2589 51.9123 46.7601 52.3225 46.3742C52.8736 45.8568 53.6075 45.5794 54.3631 45.603C55.1186 45.6265 55.8338 45.9492 56.3515 46.5Z" fill="white"/>
<path opacity="0.5" d="M54.6993 50.2934C53.2457 50.6629 51.9125 49.7446 51.4252 48.3686C51.412 48.7876 51.4914 49.2043 51.6576 49.5892C51.8238 49.974 52.0729 50.3174 52.387 50.595C52.7012 50.8726 53.0726 51.0775 53.475 51.1951C53.8774 51.3127 54.3007 51.3401 54.7149 51.2755C55.1291 51.2108 55.5239 51.0555 55.8712 50.8208C56.2186 50.5861 56.5099 50.2777 56.7244 49.9176C56.9389 49.5574 57.0714 49.1544 57.1124 48.7372C57.1533 48.32 57.1018 47.8989 56.9614 47.5039C57.1569 48.2722 56.244 49.8999 54.6993 50.2934Z" fill="#016A70"/>
<path d="M54.3676 42.8468C54.3742 40.4664 52.4499 38.5313 50.0695 38.5247C47.6891 38.518 45.754 40.4423 45.7474 42.8227C45.7407 45.2031 47.665 47.1382 50.0454 47.1448C52.4258 47.1515 54.3609 45.2272 54.3676 42.8468Z" fill="#016A70"/>
<path opacity="0.15" d="M54.3676 42.8468C54.3742 40.4664 52.4499 38.5313 50.0695 38.5247C47.6891 38.518 45.754 40.4423 45.7474 42.8227C45.7407 45.2031 47.665 47.1382 50.0454 47.1448C52.4258 47.1515 54.3609 45.2272 54.3676 42.8468Z" fill="white"/>
<path opacity="0.4" d="M50.6999 45.6227C48.5047 46.1822 46.4862 44.7954 45.7527 42.7153C45.7348 43.3473 45.8563 43.9755 46.1085 44.5552C46.3607 45.1349 46.7374 45.6521 47.2119 46.0699C47.6864 46.4877 48.247 46.7959 48.854 46.9727C49.461 47.1494 50.0995 47.1904 50.7241 47.0927C51.3487 46.995 51.9442 46.761 52.4682 46.4073C52.9922 46.0536 53.432 45.5889 53.7562 45.0461C54.0804 44.5034 54.2812 43.8959 54.3443 43.2669C54.4074 42.6378 54.3313 42.0026 54.1213 41.4062C54.4157 42.5654 53.0344 45.0283 50.6999 45.6227Z" fill="#016A70"/>
<path d="M49.2085 53.5753C51.5889 53.5753 53.5186 51.6456 53.5186 49.2652C53.5186 46.8848 51.5889 44.9551 49.2085 44.9551C46.8281 44.9551 44.8984 46.8848 44.8984 49.2652C44.8984 51.6456 46.8281 53.5753 49.2085 53.5753Z" fill="#016A70"/>
<path opacity="0.2" d="M49.8513 52.0484C47.6534 52.6079 45.6375 51.2212 44.9013 49.1411C44.8824 49.7741 45.0031 50.4034 45.2549 50.9844C45.5068 51.5654 45.8835 52.0837 46.3584 52.5026C46.8333 52.9215 47.3946 53.2305 48.0025 53.4079C48.6103 53.5852 49.2498 53.6264 49.8754 53.5286C50.501 53.4308 51.0974 53.1963 51.6221 52.8418C52.1468 52.4874 52.587 52.0217 52.9113 51.4778C53.2357 50.934 53.4362 50.3254 53.4986 49.6952C53.561 49.0651 53.4839 48.429 53.2726 47.832C53.5671 48.9912 52.1857 51.4541 49.8513 52.0484Z" fill="black"/>
<path d="M47.5536 48.1497C47.6025 46.5758 46.3663 45.2603 44.7925 45.2114C43.2186 45.1625 41.9031 46.3987 41.8542 47.9726C41.8053 49.5464 43.0415 50.8619 44.6153 50.9108C46.1892 50.9597 47.5047 49.7235 47.5536 48.1497Z" fill="#016A70"/>
<path opacity="0.3" d="M47.5536 48.1497C47.6025 46.5758 46.3663 45.2603 44.7925 45.2114C43.2186 45.1625 41.9031 46.3987 41.8542 47.9726C41.8053 49.5464 43.0415 50.8619 44.6153 50.9108C46.1892 50.9597 47.5047 49.7235 47.5536 48.1497Z" fill="white"/>
<path opacity="0.5" d="M45.129 49.9048C43.6753 50.2742 42.3421 49.3693 41.8576 47.9826C41.8458 48.4006 41.9262 48.816 42.0931 49.1993C42.2599 49.5827 42.5091 49.9247 42.823 50.2009C43.1369 50.4771 43.5077 50.6809 43.9092 50.7977C44.3106 50.9145 44.7329 50.9415 45.146 50.8767C45.559 50.812 45.9528 50.6571 46.2992 50.423C46.6457 50.189 46.9364 49.8815 47.1507 49.5225C47.365 49.1635 47.4976 48.7617 47.5392 48.3457C47.5807 47.9296 47.5302 47.5095 47.3911 47.1152C47.5919 47.8836 46.6736 49.5112 45.129 49.9048Z" fill="#016A70"/>
<path d="M77.9317 72.1278C77.7175 72.1278 77.5007 72.1278 77.2812 72.1145C77.2499 72.1134 77.2191 72.1062 77.1906 72.0933C77.1621 72.0803 77.1364 72.0619 77.115 72.039C77.0937 72.0161 77.077 71.9893 77.066 71.96C77.055 71.9306 77.0499 71.8995 77.0509 71.8682C77.052 71.8369 77.0592 71.8061 77.0721 71.7776C77.0851 71.7491 77.1035 71.7234 77.1264 71.702C77.1493 71.6807 77.1761 71.664 77.2054 71.653C77.2347 71.642 77.2659 71.6369 77.2972 71.6379C78.0826 71.6684 78.8692 71.6397 79.6504 71.5523C79.6815 71.5484 79.7131 71.5507 79.7433 71.559C79.7735 71.5674 79.8018 71.5816 79.8265 71.6008C79.8513 71.6201 79.872 71.6441 79.8874 71.6713C79.9029 71.6986 79.9129 71.7286 79.9167 71.7597C79.9206 71.7909 79.9183 71.8224 79.91 71.8527C79.9016 71.8829 79.8874 71.9112 79.8682 71.9359C79.8489 71.9606 79.825 71.9813 79.7977 71.9968C79.7704 72.0123 79.7404 72.0223 79.7093 72.0261C79.1193 72.0958 78.5257 72.1297 77.9317 72.1278ZM74.8986 71.9164H74.8664C74.1142 71.8173 73.3137 71.6861 72.4892 71.5255C72.4314 71.5088 72.382 71.4711 72.3507 71.4198C72.3193 71.3685 72.3082 71.3074 72.3196 71.2484C72.331 71.1894 72.3641 71.1367 72.4123 71.1008C72.4605 71.0649 72.5204 71.0484 72.5802 71.0543C73.3833 71.215 74.1865 71.3461 74.928 71.4398C74.9877 71.4487 75.0419 71.4796 75.0798 71.5265C75.1178 71.5733 75.1369 71.6327 75.1332 71.6929C75.1295 71.7532 75.1033 71.8098 75.0599 71.8517C75.0164 71.8935 74.9589 71.9176 74.8986 71.919V71.9164ZM81.9848 71.4345C81.9387 71.4346 81.8937 71.4212 81.8551 71.396C81.8166 71.3708 81.7863 71.3349 81.768 71.2926C81.755 71.264 81.7479 71.233 81.7469 71.2016C81.746 71.1702 81.7512 71.1389 81.7624 71.1096C81.7736 71.0802 81.7905 71.0534 81.8122 71.0306C81.8338 71.0078 81.8597 70.9894 81.8884 70.9767C82.1126 70.8785 82.3284 70.7621 82.5336 70.6287C82.7261 70.5105 82.9055 70.3723 83.069 70.2164C83.2759 70.0236 83.456 69.8039 83.6044 69.5632C83.6181 69.5306 83.6387 69.5013 83.665 69.4776C83.6912 69.4538 83.7223 69.4361 83.7561 69.4258C83.79 69.4154 83.8257 69.4126 83.8607 69.4176C83.8957 69.4226 83.9292 69.4352 83.9588 69.4546C83.9884 69.474 84.0133 69.4997 84.0319 69.5298C84.0504 69.5599 84.0621 69.5938 84.0661 69.6289C84.0701 69.6641 84.0663 69.6997 84.055 69.7332C84.0437 69.7667 84.0251 69.7973 84.0006 69.8229C83.8292 70.0987 83.6222 70.3507 83.3849 70.5725C83.2022 70.7495 83.0012 70.9066 82.7852 71.0409C82.5609 71.1867 82.3254 71.3147 82.0812 71.4238C82.0514 71.4311 82.0206 71.4329 81.9901 71.4291L81.9848 71.4345ZM70.2056 71.0035C70.1861 71.0061 70.1663 71.0061 70.1467 71.0035C69.3945 70.8161 68.6128 70.6046 67.8257 70.3744C67.7652 70.3557 67.7144 70.3143 67.6839 70.2589C67.6534 70.2034 67.6457 70.1382 67.6624 70.0772C67.671 70.0469 67.6856 70.0185 67.7052 69.9938C67.7249 69.9692 67.7492 69.9486 67.7769 69.9335C67.8045 69.9183 67.8349 69.9087 67.8663 69.9054C67.8976 69.902 67.9293 69.9049 67.9596 69.9139C68.7413 70.1414 69.5149 70.3529 70.2618 70.5403C70.2925 70.5476 70.3215 70.5608 70.347 70.5793C70.3725 70.5978 70.3941 70.6211 70.4106 70.648C70.427 70.6749 70.4379 70.7048 70.4427 70.7359C70.4475 70.7671 70.4461 70.7989 70.4385 70.8295C70.4238 70.8803 70.3928 70.9249 70.3502 70.9564C70.3076 70.9878 70.2559 71.0044 70.203 71.0035H70.2056ZM65.6064 69.6649C65.5816 69.6688 65.5563 69.6688 65.5314 69.6649C64.7899 69.4213 64.0269 69.1563 63.2613 68.8779C63.202 68.8561 63.1536 68.8119 63.1266 68.7548C63.0996 68.6978 63.096 68.6323 63.1167 68.5727C63.1272 68.5428 63.1435 68.5153 63.1647 68.4918C63.186 68.4683 63.2116 68.4492 63.2403 68.4358C63.269 68.4223 63.3 68.4147 63.3317 68.4134C63.3633 68.4121 63.3949 68.4171 63.4246 68.4281C64.1849 68.6958 64.9452 68.9635 65.6814 69.2098C65.7415 69.23 65.7912 69.2731 65.8198 69.3297C65.8484 69.3864 65.8535 69.452 65.834 69.5123C65.8161 69.5583 65.7843 69.5974 65.743 69.6243C65.7017 69.6512 65.653 69.6645 65.6037 69.6623L65.6064 69.6649ZM61.1009 68.0373C61.0713 68.0375 61.042 68.0311 61.0152 68.0185C60.2844 67.7348 59.5348 67.4296 58.7906 67.1164C58.7616 67.1042 58.7352 67.0865 58.7131 67.0642C58.6909 67.0419 58.6734 67.0154 58.6614 66.9864C58.6495 66.9573 58.6434 66.9261 58.6435 66.8947C58.6436 66.8632 58.6499 66.8321 58.6621 66.8031C58.6742 66.7741 58.6919 66.7478 58.7142 66.7256C58.7365 66.7035 58.763 66.6859 58.7921 66.674C58.8211 66.6621 58.8523 66.656 58.8837 66.6561C58.9152 66.6562 58.9463 66.6625 58.9753 66.6746C59.7168 66.9878 60.4637 67.2877 61.1892 67.5741C61.2483 67.5974 61.2958 67.6431 61.3214 67.7013C61.347 67.7595 61.3485 67.8254 61.3258 67.8847C61.3071 67.9295 61.2754 67.9677 61.2349 67.9944C61.1944 68.0211 61.1468 68.0351 61.0982 68.0346L61.1009 68.0373ZM84.3085 67.7107C84.2468 67.7108 84.1875 67.6872 84.1427 67.6449C84.0979 67.6026 84.071 67.5447 84.0676 67.4831C84.0086 66.7121 83.8232 65.9559 83.5188 65.2451C83.507 65.2159 83.5012 65.1847 83.5016 65.1533C83.502 65.1218 83.5086 65.0908 83.521 65.0619C83.5335 65.0331 83.5515 65.007 83.5741 64.9851C83.5967 64.9632 83.6234 64.946 83.6526 64.9345C83.6816 64.9224 83.7127 64.9161 83.7441 64.9161C83.7755 64.9162 83.8066 64.9225 83.8355 64.9347C83.8644 64.9469 83.8906 64.9648 83.9126 64.9873C83.9345 65.0098 83.9517 65.0365 83.9632 65.0657C84.2887 65.8257 84.4859 66.6345 84.5468 67.459C84.5486 67.4905 84.5441 67.5221 84.5336 67.5519C84.5231 67.5816 84.5068 67.609 84.4856 67.6324C84.4644 67.6558 84.4388 67.6748 84.4103 67.6882C84.3817 67.7017 84.3507 67.7093 84.3192 67.7107H84.3085ZM56.6944 66.182C56.6605 66.1821 56.6269 66.1758 56.5954 66.1633C55.8779 65.8421 55.1444 65.5074 54.4135 65.1648C54.356 65.1378 54.3116 65.0891 54.29 65.0293C54.2684 64.9696 54.2714 64.9037 54.2984 64.8462C54.3254 64.7887 54.3741 64.7442 54.4339 64.7226C54.4936 64.7011 54.5595 64.7041 54.617 64.7311C55.3452 65.0711 56.076 65.4057 56.7908 65.7243C56.8418 65.7458 56.8837 65.7843 56.9093 65.8333C56.935 65.8824 56.9428 65.9388 56.9314 65.9929C56.92 66.047 56.8901 66.0955 56.8469 66.13C56.8036 66.1646 56.7497 66.1829 56.6944 66.182ZM52.3575 64.1475C52.3205 64.1475 52.2839 64.1393 52.2504 64.1234C51.8096 63.9056 51.3634 63.6843 50.9119 63.4595C50.6442 63.3229 50.3765 63.1917 50.1088 63.0392C50.0527 63.0093 50.0107 62.9585 49.9922 62.8977C49.9736 62.837 49.9799 62.7713 50.0097 62.7152C50.0396 62.6591 50.0904 62.6172 50.1512 62.5986C50.2119 62.58 50.2776 62.5864 50.3337 62.6162C50.6014 62.7581 50.8691 62.8839 51.1368 63.0311C51.5812 63.256 52.0229 63.4773 52.4619 63.695C52.4903 63.7085 52.5157 63.7274 52.5366 63.7508C52.5576 63.7742 52.5736 63.8015 52.5839 63.8312C52.5941 63.8609 52.5983 63.8923 52.5962 63.9236C52.5941 63.955 52.5858 63.9856 52.5717 64.0136C52.5512 64.0559 52.5186 64.0911 52.4782 64.1149C52.4377 64.1388 52.391 64.1501 52.3441 64.1475H52.3575ZM82.6567 63.2667C82.6159 63.2661 82.5759 63.2553 82.5403 63.2351C82.5047 63.215 82.4748 63.1863 82.4533 63.1516C82.0705 62.5278 81.618 61.8719 81.1147 61.2C81.0957 61.1751 81.0817 61.1466 81.0737 61.1163C81.0657 61.0859 81.0637 61.0543 81.068 61.0232C81.0722 60.9921 81.0825 60.9622 81.0984 60.9351C81.1142 60.908 81.1352 60.8843 81.1603 60.8654C81.211 60.8267 81.2751 60.8098 81.3383 60.8184C81.4016 60.8269 81.4588 60.8602 81.4976 60.9109C82.0169 61.5935 82.48 62.2494 82.8709 62.8999C82.9036 62.9543 82.9135 63.0194 82.8984 63.0811C82.8834 63.1427 82.8447 63.196 82.7906 63.2292C82.7469 63.2575 82.6952 63.2706 82.6433 63.2667H82.6567ZM48.1063 61.9416C48.066 61.9422 48.0263 61.9321 47.9912 61.9121C47.2773 61.5248 46.5759 61.142 45.887 60.7636C45.8596 60.7483 45.8355 60.7278 45.816 60.7032C45.7965 60.6786 45.7821 60.6503 45.7735 60.6201C45.7649 60.5899 45.7624 60.5583 45.766 60.5271C45.7696 60.496 45.7794 60.4658 45.7947 60.4384C45.81 60.411 45.8305 60.3868 45.8551 60.3673C45.8798 60.3478 45.908 60.3334 45.9382 60.3248C45.9684 60.3162 46 60.3137 46.0312 60.3173C46.0623 60.321 46.0925 60.3307 46.1199 60.346C46.7981 60.7208 47.4977 61.1027 48.2188 61.4918C48.2467 61.5064 48.2714 61.5265 48.2915 61.5507C48.3116 61.575 48.3267 61.603 48.3359 61.6331C48.3451 61.6632 48.3482 61.6949 48.3451 61.7262C48.342 61.7576 48.3328 61.788 48.3178 61.8157C48.2961 61.8558 48.2634 61.889 48.2236 61.9112C48.1838 61.9335 48.1385 61.944 48.0929 61.9416H48.1063ZM43.9221 59.6098C43.8798 59.6096 43.8383 59.5986 43.8016 59.5777C43.1136 59.1734 42.4202 58.7585 41.7429 58.3436C41.6889 58.3105 41.6503 58.2574 41.6355 58.1959C41.6207 58.1344 41.6309 58.0696 41.6639 58.0156C41.6969 57.9617 41.75 57.923 41.8115 57.9082C41.8731 57.8934 41.9379 57.9036 41.9919 57.9366C42.6665 58.3489 43.3572 58.7612 44.0425 59.1627C44.0975 59.1951 44.1374 59.248 44.1534 59.3097C44.1695 59.3714 44.1604 59.437 44.1282 59.492C44.106 59.53 44.0738 59.5611 44.035 59.5819C43.9963 59.6027 43.9526 59.6124 43.9087 59.6098H43.9221ZM79.7789 59.4438C79.7449 59.4431 79.7114 59.4354 79.6805 59.4211C79.6496 59.4068 79.6221 59.3863 79.5995 59.3608C79.2702 58.9861 78.9195 58.5979 78.5528 58.2097C78.3681 58.0116 78.178 57.8108 77.9826 57.61C77.9385 57.5646 77.9144 57.5035 77.9154 57.4403C77.9164 57.377 77.9425 57.3167 77.9879 57.2727C78.0334 57.2287 78.0944 57.2045 78.1577 57.2055C78.2209 57.2065 78.2812 57.2326 78.3252 57.2781C78.5233 57.4789 78.7134 57.6796 78.9035 57.8804C79.2702 58.274 79.6263 58.6648 79.9609 59.045C79.9901 59.0802 80.0088 59.123 80.0148 59.1683C80.0208 59.2137 80.0139 59.2598 79.9949 59.3014C79.9759 59.3431 79.9455 59.3785 79.9073 59.4037C79.8691 59.4289 79.8246 59.4428 79.7789 59.4438ZM39.8288 57.1121C39.7833 57.1117 39.7388 57.0987 39.7003 57.0746C39.0283 56.649 38.3618 56.2072 37.6871 55.7682C37.6609 55.7506 37.6385 55.7281 37.621 55.7018C37.6035 55.6755 37.5914 55.6461 37.5853 55.6151C37.5792 55.5842 37.5793 55.5523 37.5855 55.5214C37.5917 55.4905 37.604 55.4611 37.6215 55.4349C37.6391 55.4087 37.6617 55.3862 37.6879 55.3688C37.7142 55.3513 37.7437 55.3392 37.7746 55.3331C37.8056 55.327 37.8374 55.3271 37.8683 55.3333C37.8993 55.3395 37.9286 55.3517 37.9548 55.3693C38.6188 55.8084 39.2934 56.2447 39.9626 56.6704C40.0055 56.6988 40.0381 56.7401 40.0558 56.7883C40.0734 56.8366 40.0752 56.8892 40.0609 56.9385C40.0465 56.9878 40.0168 57.0313 39.976 57.0625C39.9352 57.0937 39.8855 57.1111 39.8342 57.1121H39.8288ZM76.4432 56.0011C76.4129 56.0014 76.3829 55.9956 76.3548 55.9841C76.3268 55.9726 76.3013 55.9556 76.2799 55.9342C75.7204 55.3988 75.1288 54.8633 74.5184 54.3279C74.4775 54.2841 74.4544 54.2265 74.4536 54.1665C74.4529 54.1065 74.4745 54.0484 74.5144 54.0035C74.5542 53.9587 74.6094 53.9303 74.669 53.9239C74.7287 53.9176 74.7886 53.9337 74.837 53.9692C75.45 54.5046 76.047 55.0588 76.6092 55.5942C76.6314 55.6163 76.649 55.6426 76.661 55.6716C76.673 55.7005 76.6792 55.7315 76.6792 55.7628C76.6792 55.7942 76.673 55.8252 76.661 55.8541C76.649 55.8831 76.6314 55.9094 76.6092 55.9315C76.5867 55.9547 76.5596 55.9728 76.5296 55.9848C76.4996 55.9968 76.4675 56.0024 76.4352 56.0011H76.4432ZM35.8346 54.4645C35.7857 54.4651 35.7379 54.45 35.6981 54.4216C35.0368 53.9665 34.3783 53.5007 33.7358 53.0376C33.7065 53.0207 33.6811 52.9979 33.6613 52.9706C33.6414 52.9434 33.6275 52.9122 33.6204 52.8792C33.6134 52.8462 33.6133 52.8121 33.6203 52.779C33.6272 52.746 33.6411 52.7148 33.6609 52.6875C33.6807 52.6602 33.706 52.6373 33.7352 52.6204C33.7644 52.6034 33.7968 52.5928 33.8304 52.5892C33.8639 52.5856 33.8979 52.5891 33.93 52.5995C33.9621 52.6099 33.9917 52.6269 34.0169 52.6494C34.654 53.1099 35.3126 53.573 35.9684 54.0281C36.0209 54.0644 36.0569 54.12 36.0684 54.1827C36.0799 54.2454 36.0661 54.3102 36.03 54.3627C36.0074 54.3955 35.977 54.422 35.9414 54.4398C35.9058 54.4576 35.8663 54.4661 35.8266 54.4645H35.8346ZM31.9475 51.6616C31.8941 51.6643 31.8414 51.6492 31.7976 51.6187C31.1524 51.1315 30.5152 50.6362 29.8968 50.149C29.869 50.1305 29.8452 50.1064 29.8272 50.0783C29.8091 50.0501 29.7971 50.0185 29.792 49.9855C29.7868 49.9524 29.7886 49.9187 29.7972 49.8863C29.8058 49.854 29.821 49.8238 29.8419 49.7977C29.8628 49.7716 29.8889 49.7501 29.9185 49.7346C29.9482 49.7192 29.9807 49.71 30.0141 49.7078C30.0475 49.7056 30.0809 49.7104 30.1124 49.7218C30.1438 49.7332 30.1725 49.7511 30.1967 49.7742C30.8097 50.2588 31.4442 50.7514 32.0867 51.2359C32.1277 51.2657 32.1582 51.3078 32.1736 51.3561C32.1891 51.4044 32.1887 51.4564 32.1726 51.5045C32.1564 51.5525 32.1254 51.5942 32.084 51.6234C32.0425 51.6527 31.9928 51.6679 31.9421 51.6669L31.9475 51.6616ZM28.1862 48.6739C28.1294 48.6741 28.0744 48.6542 28.0309 48.6177C27.4071 48.0823 26.7941 47.5683 26.2105 47.0516C26.1626 47.0094 26.1334 46.9498 26.1294 46.8861C26.1254 46.8223 26.1468 46.7596 26.1891 46.7116C26.2099 46.6882 26.2352 46.6691 26.2635 46.6555C26.2918 46.6418 26.3225 46.6339 26.3538 46.6322C26.3852 46.6304 26.4166 46.6349 26.4462 46.6453C26.4758 46.6557 26.503 46.6719 26.5264 46.6929C27.1073 47.2069 27.7177 47.7316 28.3388 48.251C28.377 48.2821 28.4047 48.3244 28.4179 48.372C28.4311 48.4196 28.4292 48.4701 28.4124 48.5165C28.3957 48.563 28.3649 48.6031 28.3244 48.6313C28.2838 48.6595 28.2355 48.6744 28.1862 48.6739ZM24.6016 45.5043C24.5399 45.5031 24.4808 45.4792 24.4356 45.4373C23.8386 44.8698 23.263 44.3023 22.7249 43.7481C22.68 43.703 22.6547 43.6418 22.6547 43.5781C22.6547 43.5144 22.68 43.4533 22.7249 43.4081C22.7704 43.3638 22.8314 43.339 22.8949 43.339C22.9584 43.339 23.0194 43.3638 23.0649 43.4081C23.6003 43.9569 24.1705 44.5218 24.7649 45.084C24.8092 45.1295 24.834 45.1905 24.834 45.254C24.834 45.3175 24.8092 45.3785 24.7649 45.424C24.7227 45.4706 24.6642 45.4993 24.6016 45.5043ZM21.2686 42.0616C21.2346 42.062 21.201 42.0551 21.17 42.0412C21.139 42.0274 21.1115 42.0069 21.0892 41.9812C20.5324 41.3468 20.0184 40.7203 19.5553 40.1073C19.5372 40.0576 19.5361 40.0033 19.5519 39.9529C19.5678 39.9024 19.5998 39.8586 19.643 39.8282C19.6863 39.7977 19.7383 39.7824 19.7912 39.7844C19.844 39.7865 19.8947 39.8059 19.9354 39.8396C20.3905 40.4339 20.8992 41.0523 21.448 41.6787C21.4784 41.7131 21.4983 41.7557 21.5052 41.8011C21.512 41.8466 21.5056 41.8931 21.4866 41.9349C21.4677 41.9768 21.437 42.0123 21.3983 42.0372C21.3596 42.062 21.3146 42.0751 21.2686 42.0749V42.0616ZM18.3827 38.2333C18.342 38.2338 18.3018 38.2237 18.2661 38.2039C18.2305 38.1842 18.2005 38.1556 18.1792 38.1209C17.7469 37.4336 17.3717 36.7119 17.0575 35.9632C17.0334 35.9046 17.0335 35.8388 17.0579 35.7803C17.0822 35.7218 17.1288 35.6754 17.1874 35.6513C17.246 35.6271 17.3117 35.6273 17.3702 35.6516C17.4287 35.676 17.4751 35.7225 17.4993 35.7811C17.8046 36.5054 18.1681 37.2037 18.5862 37.8692C18.6028 37.8959 18.614 37.9256 18.6191 37.9567C18.6242 37.9877 18.6231 38.0194 18.6159 38.05C18.6087 38.0807 18.5955 38.1095 18.5771 38.135C18.5586 38.1605 18.5353 38.1821 18.5085 38.1985C18.4706 38.2215 18.427 38.2335 18.3827 38.2333ZM16.6961 33.8028C16.6348 33.8028 16.5757 33.7792 16.5313 33.7368C16.4869 33.6944 16.4606 33.6365 16.4579 33.5752V33.5458C16.4579 33.4467 16.4579 33.3476 16.4579 33.254C16.4424 32.5094 16.6393 31.7758 17.0254 31.1391C17.0609 31.0851 17.1164 31.0475 17.1797 31.0344C17.2429 31.0213 17.3088 31.034 17.3627 31.0695C17.4167 31.105 17.4543 31.1604 17.4674 31.2237C17.4804 31.287 17.4678 31.3528 17.4323 31.4068C17.0926 31.9658 16.9207 32.6107 16.9371 33.2647C16.9371 33.3503 16.9371 33.4387 16.9371 33.5324V33.5698C16.9385 33.6014 16.9337 33.6328 16.9228 33.6625C16.912 33.6921 16.8954 33.7193 16.874 33.7424C16.8526 33.7656 16.8268 33.7843 16.7981 33.7974C16.7694 33.8105 16.7384 33.8178 16.7068 33.8188L16.6961 33.8028ZM35.4357 31.8217C35.4109 31.8256 35.3856 31.8256 35.3607 31.8217C34.5871 31.554 33.8214 31.3265 33.0826 31.1096C33.0525 31.1008 33.0245 31.0862 33.0001 31.0666C32.9756 31.047 32.9553 31.0227 32.9403 30.9952C32.9253 30.9678 32.9158 30.9376 32.9124 30.9065C32.909 30.8753 32.9118 30.8439 32.9206 30.8138C32.9294 30.7837 32.944 30.7557 32.9636 30.7313C32.9832 30.7069 33.0075 30.6866 33.035 30.6715C33.0624 30.6565 33.0926 30.647 33.1237 30.6436C33.1549 30.6403 33.1863 30.643 33.2164 30.6518C33.9606 30.8687 34.7343 31.1096 35.5107 31.3666C35.5406 31.3763 35.5684 31.3918 35.5923 31.4123C35.6163 31.4328 35.6359 31.4579 35.6501 31.486C35.6643 31.5141 35.6728 31.5448 35.675 31.5762C35.6773 31.6077 35.6733 31.6392 35.6633 31.6691C35.6481 31.7162 35.6184 31.7574 35.5785 31.7867C35.5387 31.816 35.4906 31.832 35.4411 31.8324L35.4357 31.8217ZM30.8392 30.4832H30.7803C29.9771 30.2824 29.2008 30.1057 28.4539 29.9478C28.3944 29.9354 28.3419 29.9009 28.3071 29.8511C28.2722 29.8013 28.2577 29.7402 28.2665 29.6801C28.2794 29.6209 28.3141 29.5688 28.3637 29.534C28.4133 29.4993 28.4742 29.4845 28.5342 29.4927C29.2864 29.6399 30.0762 29.8193 30.882 30.0281C30.9401 30.0405 30.9914 30.0742 31.026 30.1225C31.0605 30.1708 31.0758 30.2303 31.0687 30.2893C31.0617 30.3483 31.0329 30.4025 30.9879 30.4413C30.943 30.4802 30.8852 30.5008 30.8258 30.4992L30.8392 30.4832ZM19.06 30.0254C19.0137 30.025 18.9685 30.0115 18.9296 29.9864C18.8907 29.9613 18.8598 29.9256 18.8405 29.8835C18.8152 29.8252 18.814 29.7594 18.8371 29.7002C18.8601 29.6411 18.9056 29.5934 18.9636 29.5676C19.7244 29.2527 20.527 29.0506 21.3462 28.9679C21.3778 28.9635 21.41 28.9654 21.4408 28.9738C21.4716 28.9821 21.5004 28.9966 21.5254 29.0163C21.5504 29.0361 21.5712 29.0608 21.5864 29.0888C21.6016 29.1168 21.611 29.1477 21.6139 29.1794C21.618 29.2108 21.6159 29.2426 21.6076 29.2731C21.5993 29.3036 21.585 29.3321 21.5656 29.357C21.5461 29.3819 21.5219 29.4027 21.4944 29.4182C21.4669 29.4337 21.4365 29.4435 21.4051 29.4471C20.633 29.5241 19.8763 29.7135 19.1591 30.0093C19.1256 30.0253 19.089 30.0336 19.052 30.0334L19.06 30.0254ZM26.1516 29.5676H26.1195C25.2869 29.4579 24.4918 29.3909 23.7583 29.3642C23.7247 29.3664 23.691 29.3616 23.6594 29.35C23.6278 29.3384 23.5989 29.3203 23.5747 29.2969C23.5505 29.2735 23.5315 29.2453 23.5189 29.2141C23.5063 29.1828 23.5003 29.1493 23.5015 29.1157C23.5026 29.082 23.5108 29.049 23.5254 29.0187C23.5401 28.9884 23.561 28.9615 23.5867 28.9398C23.6124 28.918 23.6424 28.9019 23.6747 28.8925C23.707 28.883 23.741 28.8805 23.7743 28.885C24.5239 28.9117 25.3324 28.9813 26.1837 29.0911C26.2468 29.0991 26.3042 29.1318 26.3433 29.1819C26.3824 29.2321 26.4001 29.2957 26.3925 29.3588C26.3871 29.4201 26.3581 29.4769 26.3117 29.5173C26.2653 29.5578 26.205 29.5787 26.1436 29.5756L26.1516 29.5676Z" fill="white"/>
<path d="M40.38 87.6821C39.9593 87.6833 39.5416 87.6108 39.1459 87.4679C39.0863 87.4462 39.0377 87.4018 39.0108 87.3443C38.984 87.2868 38.981 87.221 39.0027 87.1614C39.0243 87.1017 39.0688 87.0531 39.1263 87.0263C39.1838 86.9994 39.2496 86.9965 39.3092 87.0182C39.6526 87.142 40.015 87.2045 40.38 87.2029C40.7618 87.1998 41.1412 87.143 41.5071 87.0342L41.5794 87.2618L41.6302 87.4973C41.224 87.6162 40.8033 87.6784 40.38 87.6821ZM43.7077 86.4238C43.6693 86.4241 43.6314 86.415 43.5973 86.3972C43.5633 86.3795 43.534 86.3537 43.5122 86.3221C43.4756 86.2702 43.4609 86.2059 43.4714 86.1432C43.482 86.0805 43.5168 86.0246 43.5684 85.9875C44.0893 85.6161 44.5832 85.2081 45.0462 84.7667C45.1506 84.6703 45.255 84.5686 45.3621 84.4642C45.4075 84.4198 45.4687 84.3953 45.5322 84.3961C45.5958 84.3968 45.6564 84.4228 45.7007 84.4682C45.7451 84.5137 45.7696 84.5749 45.7689 84.6384C45.7681 84.7019 45.7422 84.7625 45.6967 84.8069L45.3755 85.1174C44.8951 85.5738 44.3834 85.996 43.8442 86.381C43.8041 86.4085 43.7563 86.4225 43.7077 86.4212V86.4238ZM37.379 86.0196C37.3415 86.0202 37.3044 86.0118 37.2708 85.995C37.2373 85.9783 37.2083 85.9536 37.1863 85.9232C36.7155 85.2534 36.3432 84.5196 36.0806 83.7441C36.0591 83.6841 36.0622 83.618 36.0893 83.5603C36.1164 83.5026 36.1653 83.458 36.2252 83.4362C36.2549 83.4257 36.2864 83.4211 36.3179 83.4228C36.3493 83.4245 36.3802 83.4324 36.4085 83.4461C36.4369 83.4598 36.4623 83.479 36.4832 83.5026C36.5041 83.5262 36.5202 83.5536 36.5304 83.5835C36.7786 84.3184 37.1302 85.0143 37.5745 85.6502C37.5932 85.6754 37.6068 85.7041 37.6144 85.7347C37.622 85.7652 37.6235 85.797 37.6188 85.8281C37.6141 85.8592 37.6032 85.8891 37.5869 85.916C37.5705 85.9429 37.549 85.9663 37.5236 85.9848C37.4804 86.0117 37.4297 86.0239 37.379 86.0196ZM47.1397 83.1069C47.0944 83.1061 47.0503 83.0926 47.0124 83.0679C46.9745 83.0431 46.9444 83.0082 46.9254 82.9672C46.9064 82.9261 46.8993 82.8805 46.905 82.8357C46.9107 82.7908 46.929 82.7484 46.9576 82.7134C47.4342 82.1405 47.9214 81.506 48.4086 80.8394C48.4476 80.7975 48.5003 80.771 48.5572 80.7648C48.6141 80.7585 48.6713 80.773 48.7185 80.8055C48.7656 80.838 48.7994 80.8863 48.8138 80.9417C48.8282 80.9971 48.8221 81.0558 48.7968 81.1072C48.3042 81.7925 47.8089 82.4457 47.3244 83.0186C47.3021 83.0461 47.274 83.0683 47.242 83.0836C47.2101 83.0989 47.1751 83.1069 47.1397 83.1069ZM35.6925 81.581C35.6366 81.5808 35.5826 81.5611 35.5397 81.5255C35.4967 81.4899 35.4674 81.4404 35.4569 81.3856C35.315 80.6494 35.1892 79.8463 35.1196 78.9923C35.1166 78.961 35.1198 78.9294 35.129 78.8994C35.1382 78.8693 35.1533 78.8414 35.1733 78.8171C35.1933 78.7929 35.2179 78.7728 35.2456 78.7581C35.2734 78.7434 35.3038 78.7342 35.3351 78.7312C35.3664 78.7283 35.3979 78.7315 35.428 78.7407C35.458 78.7499 35.486 78.7649 35.5102 78.785C35.5345 78.805 35.5545 78.8295 35.5693 78.8573C35.584 78.8851 35.5931 78.9155 35.5961 78.9467C35.6764 79.7847 35.7888 80.5744 35.9281 81.2946C35.9361 81.3549 35.9209 81.4161 35.8857 81.4658C35.8504 81.5155 35.7976 81.5499 35.738 81.5623L35.6925 81.581ZM49.9506 79.2305C49.9041 79.2314 49.8584 79.2184 49.8194 79.193C49.7664 79.1581 49.7294 79.1036 49.7163 79.0414C49.7033 78.9792 49.7153 78.9144 49.7498 78.8611C50.1648 78.2186 50.5851 77.5359 51 76.8319C51.0158 76.8047 51.0368 76.781 51.0617 76.762C51.0867 76.743 51.1152 76.7291 51.1455 76.7212C51.1759 76.7132 51.2075 76.7113 51.2386 76.7156C51.2696 76.7199 51.2996 76.7303 51.3266 76.7462C51.3816 76.7786 51.4215 76.8314 51.4375 76.8931C51.4536 76.9549 51.4445 77.0204 51.4123 77.0755C50.9947 77.7849 50.569 78.4729 50.1514 79.1208C50.13 79.1546 50.1004 79.1824 50.0652 79.2017C50.0301 79.2209 49.9906 79.2308 49.9506 79.2305ZM35.2079 76.8212C35.1456 76.8212 35.0858 76.7968 35.0413 76.7533C34.9968 76.7097 34.9711 76.6505 34.9697 76.5882C34.9697 76.1251 34.9482 75.6432 34.9482 75.1507C34.9482 74.8321 34.9482 74.5108 34.9482 74.1842C34.9503 74.121 34.9769 74.0611 35.0224 74.0171C35.0678 73.9732 35.1286 73.9486 35.1919 73.9486C35.2234 73.949 35.2545 73.9556 35.2835 73.968C35.3124 73.9805 35.3386 73.9986 35.3605 74.0213C35.3824 74.0439 35.3996 74.0707 35.4111 74.1001C35.4226 74.1294 35.4282 74.1607 35.4274 74.1923C35.4274 74.5162 35.4274 74.8348 35.4274 75.1507C35.4274 75.6379 35.4274 76.1171 35.4489 76.5749C35.4499 76.6064 35.4447 76.6378 35.4336 76.6673C35.4224 76.6968 35.4055 76.7237 35.3838 76.7467C35.3622 76.7696 35.3362 76.7879 35.3074 76.8007C35.2785 76.8135 35.2475 76.8205 35.216 76.8212H35.2079ZM52.3841 75.1078C52.3446 75.1086 52.3057 75.0984 52.2716 75.0784C52.2437 75.0638 52.219 75.0437 52.199 75.0194C52.1789 74.9951 52.164 74.967 52.155 74.9368C52.146 74.9066 52.1432 74.8749 52.1466 74.8436C52.1501 74.8122 52.1599 74.7819 52.1753 74.7544C52.5447 74.0718 52.9195 73.3624 53.2836 72.6395C53.3153 72.5883 53.3652 72.5508 53.4233 72.5345C53.4813 72.5182 53.5434 72.5242 53.5972 72.5515C53.651 72.5787 53.6927 72.6252 53.7139 72.6816C53.7351 72.7381 53.7344 72.8004 53.7119 72.8564C53.3425 73.5819 52.9677 74.2967 52.5956 74.982C52.5751 75.0202 52.5446 75.0522 52.5073 75.0743C52.4701 75.0965 52.4274 75.1081 52.3841 75.1078ZM35.2909 72.0345H35.2775C35.2141 72.0304 35.1548 72.0013 35.1127 71.9537C35.0706 71.9061 35.049 71.8437 35.0527 71.7802C35.0982 71.0065 35.1597 70.2007 35.2347 69.3869C35.2414 69.3226 35.2734 69.2637 35.3236 69.223C35.3738 69.1824 35.4381 69.1633 35.5024 69.1701C35.5344 69.173 35.5654 69.1824 35.5937 69.1975C35.622 69.2127 35.6469 69.2333 35.6671 69.2583C35.6873 69.2832 35.7024 69.312 35.7113 69.3428C35.7202 69.3736 35.7229 69.4059 35.7192 69.4378C35.6443 70.2409 35.5827 71.044 35.5372 71.8177C35.5318 71.8785 35.5032 71.9349 35.4573 71.9753C35.4115 72.0156 35.3519 72.0368 35.2909 72.0345ZM54.5659 70.8379C54.5297 70.8376 54.4941 70.8294 54.4615 70.8138C54.4047 70.786 54.3611 70.7371 54.3401 70.6775C54.319 70.6179 54.3223 70.5524 54.3491 70.4952C54.6837 69.7885 55.021 69.0576 55.3476 68.3241C55.3604 68.2954 55.3788 68.2696 55.4016 68.248C55.4244 68.2265 55.4513 68.2096 55.4806 68.1984C55.5099 68.1872 55.5412 68.1819 55.5726 68.1828C55.6039 68.1837 55.6348 68.1908 55.6635 68.2036C55.6921 68.2165 55.718 68.2348 55.7396 68.2576C55.7611 68.2804 55.778 68.3073 55.7892 68.3366C55.8003 68.366 55.8056 68.3972 55.8048 68.4286C55.8039 68.46 55.7968 68.4909 55.784 68.5195C55.4574 69.2557 55.1174 69.9892 54.7827 70.7013C54.7619 70.7441 54.729 70.7798 54.6881 70.8041C54.6471 70.8283 54.6 70.8401 54.5525 70.8379H54.5659ZM56.5175 66.4635C56.4853 66.4638 56.4534 66.4574 56.4238 66.4448C56.3655 66.42 56.3193 66.3732 56.2953 66.3146C56.2712 66.2559 56.2712 66.1902 56.2953 66.1316C56.6005 65.4061 56.9057 64.6618 57.2001 63.9203C57.2234 63.8612 57.2692 63.8137 57.3273 63.7881C57.3855 63.7625 57.4514 63.761 57.5107 63.7838C57.5695 63.8081 57.6164 63.8546 57.6415 63.9131C57.6665 63.9716 57.6676 64.0376 57.6445 64.097C57.3501 64.8412 57.0449 65.5881 56.737 66.3163C56.7189 66.3624 56.6866 66.4016 56.6447 66.428C56.6028 66.4545 56.5535 66.467 56.5041 66.4635H56.5175ZM58.2817 62.0115C58.2542 62.0154 58.2262 62.0154 58.1987 62.0115C58.1391 61.9887 58.0908 61.9434 58.0642 61.8853C58.0377 61.8272 58.035 61.761 58.0568 61.701C58.3245 60.9594 58.611 60.2045 58.8733 59.4549C58.8983 59.4 58.943 59.3565 58.9985 59.3329C59.054 59.3094 59.1164 59.3075 59.1732 59.3277C59.2301 59.3479 59.2773 59.3886 59.3055 59.4419C59.3337 59.4952 59.341 59.5572 59.3257 59.6155C59.058 60.3651 58.7903 61.1254 58.5066 61.8697C58.4866 61.9152 58.4529 61.9534 58.4102 61.9788C58.3675 62.0043 58.3179 62.0157 58.2683 62.0115H58.2817ZM59.8879 57.4953C59.8499 57.4961 59.8122 57.4877 59.7781 57.4708C59.744 57.4539 59.7146 57.429 59.6922 57.3982C59.6698 57.3675 59.6553 57.3317 59.6497 57.2941C59.6442 57.2564 59.6478 57.218 59.6604 57.1821C59.9093 56.4325 60.1583 55.6669 60.3939 54.9066C60.4034 54.8763 60.4187 54.8482 60.439 54.8239C60.4593 54.7995 60.4843 54.7795 60.5124 54.7648C60.5405 54.7501 60.5712 54.7411 60.6028 54.7384C60.6344 54.7356 60.6662 54.7391 60.6964 54.7486C60.7263 54.7581 60.7541 54.7733 60.7781 54.7935C60.8021 54.8137 60.8219 54.8384 60.8363 54.8663C60.8508 54.8941 60.8595 54.9246 60.8622 54.9558C60.8648 54.9871 60.8612 55.0186 60.8517 55.0484C60.6134 55.8141 60.3645 56.5824 60.1155 57.332C60.1011 57.3869 60.0676 57.4349 60.0209 57.4673C59.9743 57.4997 59.9177 57.5144 59.8612 57.5087L59.8879 57.4953ZM61.3175 52.9255C61.2954 52.9294 61.2727 52.9294 61.2506 52.9255C61.1897 52.9075 61.1384 52.8662 61.1078 52.8105C61.0772 52.7549 61.0698 52.6894 61.0873 52.6284C61.3121 51.8627 61.5317 51.089 61.7405 50.3314C61.7485 50.3009 61.7626 50.2723 61.7818 50.2472C61.801 50.2222 61.825 50.2012 61.8524 50.1855C61.8798 50.1698 61.9101 50.1597 61.9414 50.1558C61.9727 50.1519 62.0045 50.1543 62.035 50.1628C62.0957 50.1803 62.1472 50.2209 62.1782 50.276C62.2093 50.3311 62.2174 50.3962 62.2009 50.4573C61.9921 51.2202 61.7726 51.9939 61.5477 52.7622C61.5302 52.8149 61.4951 52.8599 61.4483 52.8896C61.4015 52.9194 61.3458 52.9321 61.2907 52.9255H61.3175ZM62.5811 48.3102H62.5222C62.4918 48.3027 62.4632 48.2893 62.4381 48.2706C62.413 48.252 62.3918 48.2285 62.3759 48.2016C62.3599 48.1747 62.3495 48.1449 62.3452 48.1139C62.3409 48.0829 62.3428 48.0513 62.3508 48.0211C62.4312 47.7052 62.5088 47.392 62.5864 47.0761C62.7015 46.6156 62.8113 46.1552 62.9211 45.7001C62.9283 45.6695 62.9414 45.6406 62.9598 45.6151C62.9782 45.5896 63.0014 45.568 63.0281 45.5515C63.0548 45.5349 63.0845 45.5238 63.1155 45.5188C63.1466 45.5137 63.1783 45.5148 63.2089 45.5221C63.2394 45.5293 63.2683 45.5424 63.2938 45.5608C63.3193 45.5791 63.3409 45.6024 63.3575 45.6291C63.374 45.6558 63.3851 45.6855 63.3901 45.7165C63.3952 45.7475 63.3941 45.7793 63.3869 45.8098C63.2771 46.2676 63.1674 46.7281 63.0522 47.1912C62.9746 47.5071 62.8943 47.823 62.814 48.1389C62.7979 48.1935 62.763 48.2407 62.7155 48.2721C62.668 48.3035 62.6109 48.317 62.5543 48.3102H62.5811ZM63.6814 43.6521H63.6305C63.5685 43.638 63.5146 43.6 63.4805 43.5464C63.4464 43.4927 63.4349 43.4278 63.4484 43.3657C63.6171 42.5786 63.7804 41.7915 63.9303 41.0259C63.9363 40.9951 63.9483 40.9659 63.9656 40.9397C63.9829 40.9136 64.0051 40.8911 64.0311 40.8736C64.0571 40.8561 64.0863 40.8438 64.117 40.8376C64.1477 40.8313 64.1793 40.8312 64.2101 40.8372C64.2408 40.8431 64.2701 40.8551 64.2963 40.8724C64.3224 40.8897 64.3449 40.912 64.3624 40.938C64.3799 40.9639 64.3922 40.9931 64.3984 41.0238C64.4047 41.0545 64.4048 41.0862 64.3988 41.1169C64.2489 41.8879 64.0856 42.6777 63.9169 43.4674C63.9035 43.525 63.8694 43.5757 63.821 43.6098C63.7726 43.6438 63.7134 43.6589 63.6546 43.6521H63.6814ZM64.5969 38.9512H64.5568C64.4961 38.94 64.4421 38.906 64.4057 38.8562C64.3693 38.8064 64.3535 38.7446 64.3613 38.6834C64.4979 37.8964 64.629 37.1013 64.7415 36.3276C64.7508 36.2655 64.784 36.2095 64.834 36.1715C64.884 36.1335 64.9468 36.1165 65.0092 36.1242C65.0705 36.1347 65.1255 36.1683 65.1628 36.2181C65.2002 36.2679 65.217 36.33 65.21 36.3919C65.0949 37.1709 64.9664 37.9687 64.8298 38.7611C64.8176 38.8192 64.7843 38.8707 64.7364 38.9058C64.6884 38.9409 64.6292 38.9571 64.5701 38.9512H64.5969ZM65.2742 34.2181H65.2448C65.1817 34.2101 65.1243 34.1774 65.0852 34.1273C65.0461 34.0771 65.0284 34.0135 65.036 33.9504C65.135 33.1472 65.2207 32.3441 65.3037 31.5758C65.3124 31.5145 65.3444 31.4588 65.3931 31.4205C65.4417 31.3821 65.5033 31.364 65.565 31.3698C65.6267 31.3757 65.6837 31.4051 65.7243 31.4519C65.7649 31.4988 65.7858 31.5594 65.7829 31.6213C65.7106 32.3977 65.6222 33.2008 65.5152 34.0093C65.5079 34.0677 65.4792 34.1214 65.4348 34.1599C65.3903 34.1985 65.3331 34.2192 65.2742 34.2181ZM65.7133 29.4502H65.6972C65.6659 29.4485 65.6352 29.4406 65.607 29.427C65.5787 29.4135 65.5534 29.3944 65.5325 29.371C65.5116 29.3477 65.4956 29.3204 65.4852 29.2908C65.4749 29.2612 65.4705 29.2299 65.4723 29.1986C65.5205 28.3794 65.5526 27.5923 65.566 26.8159C65.566 26.7843 65.5724 26.753 65.5847 26.7239C65.597 26.6948 65.6151 26.6684 65.6378 26.6465C65.6606 26.6245 65.6875 26.6073 65.717 26.5959C65.7465 26.5846 65.778 26.5793 65.8096 26.5804C65.8412 26.5807 65.8723 26.5873 65.9012 26.5998C65.9302 26.6122 65.9564 26.6303 65.9783 26.653C66.0002 26.6756 66.0174 26.7024 66.0289 26.7318C66.0404 26.7611 66.0459 26.7925 66.0452 26.824C66.0318 27.595 65.9997 28.4035 65.9515 29.2334C65.9455 29.2923 65.9178 29.3469 65.8738 29.3865C65.8297 29.4261 65.7725 29.4478 65.7133 29.4475V29.4502ZM48.6201 26.3742C48.58 26.3732 48.5407 26.3631 48.505 26.3448C48.4496 26.3142 48.4085 26.2631 48.3905 26.2025C48.3724 26.142 48.379 26.0767 48.4086 26.0209C48.8021 25.298 49.2117 24.5966 49.5946 23.9301C49.6104 23.903 49.6314 23.8793 49.6563 23.8603C49.6813 23.8414 49.7098 23.8275 49.7401 23.8196C49.7704 23.8116 49.802 23.8097 49.8331 23.814C49.8642 23.8182 49.8941 23.8286 49.9212 23.8444C49.9482 23.8602 49.9719 23.8812 49.9909 23.9062C50.0098 23.9312 50.0237 23.9596 50.0316 23.9899C50.0396 24.0203 50.0415 24.0519 50.0372 24.0829C50.033 24.114 50.0226 24.1439 50.0068 24.171C49.616 24.8349 49.2198 25.5336 48.8289 26.2484C48.8085 26.2859 48.7783 26.3172 48.7416 26.3389C48.7048 26.3606 48.6628 26.3719 48.6201 26.3716V26.3742ZM65.7962 24.6636C65.734 24.6636 65.6742 24.6392 65.6296 24.5957C65.5851 24.5522 65.5594 24.4929 65.558 24.4307C65.5312 23.6008 65.483 22.8003 65.4107 22.0588C65.4076 22.0275 65.4106 21.9959 65.4197 21.9658C65.4287 21.9356 65.4436 21.9076 65.4635 21.8832C65.4834 21.8589 65.5079 21.8387 65.5356 21.8238C65.5633 21.8089 65.5936 21.7996 65.6249 21.7964C65.6562 21.7933 65.6878 21.7963 65.7179 21.8053C65.748 21.8144 65.7761 21.8293 65.8004 21.8492C65.8248 21.8691 65.845 21.8935 65.8599 21.9212C65.8748 21.9489 65.8841 21.9793 65.8873 22.0106C65.9596 22.7655 66.0104 23.574 66.0372 24.42C66.0379 24.4832 66.0141 24.5443 65.9706 24.5903C65.9271 24.6362 65.8675 24.6635 65.8043 24.6663L65.7962 24.6636ZM51.0589 22.2542C51.0134 22.2538 50.969 22.2408 50.9304 22.2167C50.9037 22.1999 50.8806 22.1778 50.8624 22.1519C50.8443 22.126 50.8314 22.0968 50.8247 22.0659C50.818 22.035 50.8175 22.0031 50.8232 21.972C50.829 21.9409 50.8408 21.9112 50.8581 21.8848C51.3106 21.186 51.7657 20.5168 52.2127 19.8957C52.2503 19.8447 52.3062 19.8102 52.3687 19.7997C52.4311 19.7892 52.4952 19.8035 52.5474 19.8395C52.5986 19.877 52.6329 19.9331 52.6429 19.9958C52.6529 20.0584 52.6379 20.1225 52.6009 20.1741C52.1592 20.7898 51.7068 21.4511 51.2624 22.1444C51.2393 22.1775 51.2085 22.2044 51.1725 22.2226C51.1365 22.2409 51.0966 22.2499 51.0562 22.2488L51.0589 22.2542ZM65.3144 19.9091C65.2589 19.909 65.2052 19.8897 65.1623 19.8546C65.1194 19.8195 65.0899 19.7707 65.0788 19.7163C64.9358 18.9431 64.7353 18.1816 64.4791 17.4381C64.4685 17.4086 64.4638 17.3773 64.4653 17.3459C64.4669 17.3146 64.4746 17.2839 64.488 17.2555C64.5014 17.2271 64.5203 17.2017 64.5436 17.1807C64.5669 17.1597 64.5941 17.1434 64.6237 17.1329C64.6837 17.1114 64.7498 17.1145 64.8075 17.1416C64.8652 17.1687 64.9098 17.2176 64.9316 17.2775C65.1949 18.0439 65.4016 18.8286 65.55 19.6253C65.558 19.6857 65.5428 19.7469 65.5076 19.7965C65.4723 19.8462 65.4195 19.8807 65.3599 19.893L65.3144 19.9091ZM53.8699 18.3778C53.8143 18.3785 53.7602 18.3595 53.7173 18.3242C53.6686 18.2836 53.6379 18.2253 53.6319 18.1622C53.6259 18.099 53.645 18.0361 53.6851 17.9869C54.2339 17.3257 54.7827 16.7234 55.3155 16.1986C55.362 16.1546 55.4241 16.1309 55.4881 16.1326C55.5521 16.1344 55.6128 16.1615 55.6568 16.208C55.7008 16.2545 55.7246 16.3166 55.7228 16.3806C55.7211 16.4446 55.6939 16.5053 55.6474 16.5493C55.1281 17.0607 54.5766 17.6523 54.0412 18.3002C54.0185 18.3233 53.9914 18.3416 53.9615 18.354C53.9316 18.3664 53.8995 18.3727 53.8672 18.3724L53.8699 18.3778ZM63.6278 15.4624C63.5901 15.4624 63.553 15.4533 63.5195 15.4361C63.486 15.4189 63.4571 15.394 63.4351 15.3634C63.2742 15.1435 63.0951 14.9375 62.8996 14.7477C62.5553 14.412 62.1451 14.1513 61.695 13.982C61.6654 13.9713 61.6383 13.9549 61.6151 13.9337C61.5919 13.9124 61.5732 13.8869 61.5599 13.8584C61.5466 13.83 61.539 13.7992 61.5376 13.7678C61.5362 13.7364 61.541 13.705 61.5517 13.6755C61.5625 13.646 61.5789 13.6188 61.6001 13.5957C61.6213 13.5725 61.6469 13.5537 61.6753 13.5404C61.7038 13.5271 61.7346 13.5195 61.766 13.5181C61.7974 13.5167 61.8287 13.5215 61.8583 13.5323C62.3732 13.7244 62.842 14.0227 63.2343 14.4077C63.4501 14.6159 63.6464 14.8435 63.8206 15.0877C63.8397 15.1128 63.8536 15.1415 63.8614 15.1721C63.8692 15.2027 63.8708 15.2345 63.866 15.2657C63.8613 15.297 63.8503 15.3269 63.8338 15.3538C63.8172 15.3807 63.7954 15.404 63.7697 15.4223C63.7275 15.4497 63.6781 15.4637 63.6278 15.4624ZM57.3045 15.0582C57.2536 15.0588 57.2038 15.0431 57.1624 15.0133C57.121 14.9836 57.0903 14.9413 57.0747 14.8928C57.0592 14.8443 57.0596 14.792 57.0759 14.7437C57.0922 14.6955 57.1235 14.6537 57.1653 14.6245C57.8343 14.1357 58.5798 13.7612 59.3713 13.5162C59.432 13.4977 59.4975 13.5042 59.5535 13.534C59.6095 13.5639 59.6513 13.6148 59.6698 13.6755C59.6882 13.7362 59.6818 13.8018 59.6519 13.8577C59.6221 13.9137 59.5712 13.9555 59.5105 13.974C58.7736 14.2051 58.0799 14.556 57.4571 15.0127C57.4129 15.0447 57.3591 15.0608 57.3045 15.0582Z" fill="white"/>
<path d="M27.7336 64.9637C26.8983 64.9637 26.0952 64.9476 25.3242 64.9155C25.2649 64.9071 25.2108 64.8769 25.1725 64.8308C25.1342 64.7847 25.1145 64.726 25.1172 64.6662C25.1199 64.6063 25.1448 64.5496 25.187 64.5071C25.2292 64.4646 25.2858 64.4394 25.3456 64.4363C26.1059 64.4684 26.9037 64.4872 27.7202 64.4872C27.7839 64.4872 27.8451 64.5121 27.8906 64.5566C27.9361 64.6012 27.9624 64.6618 27.9638 64.7254C27.9645 64.7875 27.9408 64.8473 27.8977 64.8919C27.8546 64.9365 27.7956 64.9623 27.7336 64.9637ZM30.1269 64.9209C30.0677 64.9146 30.013 64.8867 29.9732 64.8424C29.9333 64.7982 29.9113 64.7408 29.9113 64.6813C29.9113 64.6218 29.9333 64.5643 29.9732 64.5201C30.013 64.4759 30.0677 64.4479 30.1269 64.4417C30.9006 64.4149 31.701 64.3721 32.5122 64.3185C32.5447 64.3148 32.5776 64.3178 32.6089 64.3272C32.6402 64.3367 32.6693 64.3524 32.6944 64.3734C32.7194 64.3945 32.7399 64.4204 32.7546 64.4496C32.7693 64.4788 32.7779 64.5107 32.7799 64.5434C32.7821 64.5747 32.778 64.6061 32.768 64.6359C32.7581 64.6656 32.7423 64.6931 32.7216 64.7167C32.701 64.7404 32.6759 64.7597 32.6477 64.7736C32.6196 64.7875 32.589 64.7957 32.5577 64.7977C31.7412 64.8513 30.9354 64.8941 30.1483 64.9209H30.1269ZM22.963 64.7522H22.9389C22.0983 64.6719 21.2925 64.5648 20.5483 64.4363C20.4858 64.4257 20.4301 64.3906 20.3935 64.3389C20.3568 64.2872 20.3422 64.2231 20.3529 64.1606C20.3635 64.0981 20.3986 64.0424 20.4503 64.0058C20.502 63.9691 20.5661 63.9545 20.6286 63.9651C21.3621 64.091 22.1572 64.1954 22.9845 64.2757C23.0164 64.2787 23.0474 64.288 23.0757 64.3032C23.104 64.3183 23.129 64.339 23.1492 64.3639C23.1694 64.3889 23.1844 64.4176 23.1934 64.4484C23.2023 64.4792 23.205 64.5115 23.2013 64.5434C23.193 64.6009 23.1644 64.6535 23.1207 64.6918C23.0771 64.7301 23.0211 64.7515 22.963 64.7522ZM34.9216 64.6076C34.8616 64.6051 34.8047 64.5802 34.7621 64.5379C34.7195 64.4957 34.6942 64.439 34.6912 64.379C34.6881 64.3191 34.7076 64.2601 34.7458 64.2138C34.7839 64.1674 34.838 64.137 34.8975 64.1284C35.6818 64.0562 36.4796 63.9705 37.2747 63.8768C37.3062 63.8731 37.3381 63.8756 37.3686 63.8842C37.3991 63.8928 37.4276 63.9074 37.4524 63.927C37.4773 63.9466 37.4981 63.971 37.5135 63.9987C37.5289 64.0264 37.5388 64.0568 37.5424 64.0883C37.5465 64.1196 37.5444 64.1514 37.5361 64.1819C37.5278 64.2124 37.5135 64.2409 37.4941 64.2659C37.4746 64.2908 37.4504 64.3116 37.4229 64.327C37.3953 64.3425 37.365 64.3524 37.3336 64.356C36.5305 64.4497 35.7274 64.5354 34.9456 64.6076H34.9216ZM39.6787 64.0481C39.6474 64.0504 39.616 64.0465 39.5862 64.0367C39.5564 64.0268 39.5289 64.0112 39.5052 63.9907C39.4814 63.9701 39.4619 63.9452 39.4479 63.9171C39.4338 63.8891 39.4254 63.8586 39.4231 63.8273C39.4208 63.796 39.4247 63.7646 39.4345 63.7348C39.4444 63.705 39.46 63.6774 39.4805 63.6537C39.5011 63.63 39.526 63.6105 39.5541 63.5964C39.5821 63.5823 39.6126 63.5739 39.6439 63.5716C40.4176 63.4619 41.2127 63.3441 42.0078 63.2156C42.0703 63.2053 42.1343 63.2202 42.1857 63.2571C42.2372 63.294 42.2719 63.3498 42.2822 63.4123C42.2925 63.4748 42.2775 63.5388 42.2406 63.5903C42.2037 63.6417 42.1479 63.6764 42.0854 63.6867C41.2823 63.8152 40.4792 63.9357 39.7108 64.0455L39.6787 64.0481ZM18.2621 63.9143H18.1978C17.4142 63.6966 16.6518 63.409 15.9196 63.0549C15.8915 63.041 15.8664 63.0218 15.8457 62.9982C15.8251 62.9746 15.8092 62.9471 15.7992 62.9174C15.7891 62.8877 15.785 62.8563 15.787 62.825C15.7891 62.7937 15.7973 62.7631 15.8112 62.735C15.8251 62.7069 15.8444 62.6818 15.868 62.6611C15.8916 62.6404 15.919 62.6246 15.9487 62.6146C15.9784 62.6045 16.0098 62.6004 16.0411 62.6024C16.0724 62.6045 16.103 62.6127 16.1311 62.6266C16.8379 62.9667 17.5734 63.2436 18.329 63.4538C18.3854 63.4688 18.4344 63.5039 18.4666 63.5526C18.4988 63.6012 18.5121 63.66 18.5038 63.7178C18.4955 63.7756 18.4664 63.8283 18.4218 63.866C18.3773 63.9037 18.3204 63.9237 18.2621 63.9223V63.9143ZM44.4172 63.2852C44.3563 63.2872 44.297 63.266 44.2513 63.2257C44.2057 63.1854 44.1772 63.1291 44.1717 63.0685C44.1662 63.0079 44.1842 62.9474 44.2219 62.8996C44.2595 62.8518 44.3141 62.8202 44.3743 62.8113C45.0864 62.6801 45.8173 62.5436 46.5454 62.3964L46.7221 62.3616C46.7843 62.3488 46.8489 62.3612 46.9019 62.3961C46.9548 62.431 46.9918 62.4855 47.0046 62.5476C47.0173 62.6098 47.0049 62.6744 46.97 62.7274C46.9351 62.7803 46.8806 62.8173 46.8185 62.8301L46.6418 62.8675C45.9083 63.0121 45.1748 63.1513 44.46 63.2825L44.4172 63.2852ZM49.1181 62.3616C49.0564 62.3659 48.9954 62.346 48.948 62.3062C48.9006 62.2663 48.8707 62.2096 48.8644 62.148C48.8581 62.0864 48.8761 62.0248 48.9144 61.9762C48.9528 61.9277 49.0086 61.8959 49.0699 61.8877C49.8731 61.7244 50.6521 61.5531 51.4017 61.3737C51.4638 61.3593 51.5291 61.37 51.5833 61.4037C51.6375 61.4373 51.6761 61.491 51.6908 61.5531C51.6979 61.5837 51.6989 61.6154 51.6938 61.6464C51.6886 61.6773 51.6774 61.707 51.6607 61.7336C51.644 61.7602 51.6222 61.7833 51.5966 61.8015C51.571 61.8197 51.5421 61.8326 51.5114 61.8395C50.7592 62.0189 49.9694 62.1929 49.1663 62.3562L49.1181 62.3616ZM14.0751 61.6762C14.0415 61.6762 14.0083 61.6693 13.9774 61.656C13.9466 61.6426 13.9188 61.6231 13.8958 61.5986L13.8663 61.5638C13.2963 60.94 12.9539 60.1419 12.8945 59.299C12.896 59.2387 12.92 59.1811 12.9619 59.1377C13.0038 59.0942 13.0604 59.0681 13.1206 59.0644C13.1808 59.0607 13.2402 59.0797 13.2871 59.1177C13.334 59.1557 13.3649 59.2099 13.3737 59.2695C13.4242 60.0095 13.7254 60.7102 14.2277 61.2559L14.2518 61.2827C14.2939 61.3298 14.3158 61.3916 14.3128 61.4546C14.3098 61.5177 14.2821 61.5771 14.2357 61.62C14.1911 61.6581 14.1338 61.6782 14.0751 61.6762ZM53.7495 61.2559C53.6923 61.2544 53.6376 61.2326 53.5951 61.1944C53.5525 61.1563 53.525 61.1043 53.5172 61.0476C53.5095 60.991 53.5222 60.9335 53.5529 60.8854C53.5837 60.8372 53.6306 60.8016 53.6852 60.7848C53.9529 60.7152 54.2046 60.6402 54.4589 60.5653C54.9782 60.4287 55.4869 60.2975 55.9955 60.153C56.0566 60.1363 56.1218 60.1445 56.1768 60.1759C56.2317 60.2073 56.272 60.2592 56.2887 60.3203C56.3054 60.3814 56.2971 60.4465 56.2657 60.5015C56.2343 60.5565 56.1824 60.5968 56.1214 60.6134C55.6127 60.7553 55.1014 60.8811 54.5874 61.0284L53.811 61.2479C53.791 61.2534 53.7703 61.2561 53.7495 61.2559ZM58.3621 59.9656C58.3047 59.9646 58.2496 59.9433 58.2066 59.9053C58.1636 59.8674 58.1356 59.8153 58.1275 59.7586C58.1195 59.7018 58.1319 59.644 58.1626 59.5956C58.1934 59.5472 58.2403 59.5113 58.2951 59.4944C59.0608 59.2695 59.8291 59.034 60.5814 58.7957C60.6402 58.7826 60.7018 58.792 60.7541 58.8221C60.8063 58.8522 60.8454 58.9008 60.8635 58.9583C60.8817 59.0158 60.8776 59.078 60.8521 59.1327C60.8267 59.1873 60.7816 59.2304 60.7259 59.2535C59.971 59.4917 59.2 59.7273 58.429 59.9549C58.409 59.9608 58.3882 59.9635 58.3674 59.9629L58.3621 59.9656ZM62.9292 58.5226C62.8793 58.5224 62.8308 58.5065 62.7905 58.4772C62.7501 58.4479 62.72 58.4067 62.7043 58.3593C62.6924 58.329 62.6869 58.2966 62.6879 58.264C62.6889 58.2314 62.6966 58.1994 62.7103 58.1699C62.7241 58.1404 62.7437 58.1139 62.768 58.0922C62.7923 58.0705 62.8207 58.0539 62.8515 58.0434C63.6065 57.7891 64.3668 57.5268 65.1083 57.2591C65.138 57.248 65.1696 57.243 65.2012 57.2443C65.2329 57.2457 65.2639 57.2533 65.2926 57.2667C65.3213 57.2802 65.3469 57.2992 65.3682 57.3227C65.3894 57.3462 65.4057 57.3737 65.4162 57.4036C65.4369 57.4633 65.4333 57.5287 65.4063 57.5858C65.3793 57.6429 65.3309 57.687 65.2716 57.7088C64.5247 57.9765 63.7617 58.2442 63.0041 58.4985C62.9821 58.5091 62.9587 58.5163 62.9345 58.52L62.9292 58.5226ZM13.6709 57.2243C13.6335 57.2243 13.5968 57.2151 13.5638 57.1975C13.5355 57.1836 13.5104 57.1642 13.4897 57.1404C13.4691 57.1166 13.4535 57.0889 13.4437 57.0589C13.434 57.029 13.4304 56.9974 13.4331 56.966C13.4358 56.9346 13.4447 56.9041 13.4594 56.8762C13.8414 56.1522 14.3147 55.4802 14.8675 54.8765C14.8882 54.8528 14.9134 54.8335 14.9416 54.8196C14.9697 54.8057 15.0004 54.7976 15.0317 54.7956C15.0631 54.7936 15.0945 54.7978 15.1242 54.808C15.1539 54.8182 15.1813 54.8342 15.2049 54.855C15.2524 54.8977 15.2811 54.9574 15.2846 55.0212C15.2881 55.0849 15.2662 55.1474 15.2236 55.195C14.6987 55.7684 14.2489 56.4062 13.8851 57.0931C13.8652 57.1308 13.8356 57.1626 13.7994 57.1852C13.7631 57.2078 13.7216 57.2203 13.6789 57.2216L13.6709 57.2243ZM67.4347 56.9003C67.3797 56.8987 67.3269 56.8782 67.2851 56.8424C67.2433 56.8065 67.215 56.7575 67.205 56.7033C67.195 56.6492 67.2038 56.5933 67.23 56.5448C67.2562 56.4964 67.2982 56.4584 67.349 56.4372C68.0986 56.1481 68.8482 55.8536 69.571 55.5564C69.6 55.5445 69.6311 55.5384 69.6625 55.5384C69.6938 55.5385 69.7249 55.5447 69.7538 55.5568C69.7828 55.5688 69.8091 55.5865 69.8312 55.6087C69.8534 55.6309 69.8709 55.6573 69.8829 55.6863C69.8948 55.7153 69.901 55.7463 69.9009 55.7777C69.9009 55.8091 69.8946 55.8401 69.8826 55.8691C69.8705 55.8981 69.8529 55.9244 69.8306 55.9465C69.8084 55.9686 69.7821 55.9862 69.7531 55.9981C69.0249 56.298 68.2753 56.5951 67.5204 56.8843C67.4954 56.8931 67.4692 56.8976 67.4427 56.8976L67.4347 56.9003ZM71.8679 55.0799C71.8217 55.0796 71.7764 55.066 71.7375 55.0409C71.6987 55.0158 71.6678 54.9801 71.6484 54.938C71.6356 54.9092 71.6286 54.8782 71.6278 54.8466C71.627 54.8151 71.6325 54.7837 71.644 54.7543C71.6554 54.725 71.6726 54.6981 71.6945 54.6754C71.7164 54.6528 71.7426 54.6346 71.7716 54.6221C72.5104 54.2955 73.244 53.9609 73.9454 53.6289C73.9738 53.6156 74.0047 53.608 74.0361 53.6065C74.0675 53.6051 74.0989 53.6098 74.1285 53.6205C74.1581 53.6312 74.1853 53.6476 74.2085 53.6688C74.2317 53.69 74.2506 53.7156 74.2639 53.744C74.2773 53.7725 74.2849 53.8034 74.2864 53.8348C74.2878 53.8662 74.283 53.8976 74.2724 53.9272C74.2617 53.9568 74.2453 53.9839 74.2241 54.0072C74.2029 54.0304 74.1773 54.0493 74.1488 54.0626C73.4448 54.3973 72.7085 54.7319 71.9643 55.0585C71.9362 55.07 71.9063 55.0764 71.876 55.0772L71.8679 55.0799ZM16.7736 53.6075C16.7247 53.607 16.6771 53.5916 16.6372 53.5634C16.5973 53.5352 16.5668 53.4955 16.55 53.4496C16.5331 53.4037 16.5307 53.3538 16.5429 53.3064C16.5551 53.2591 16.5814 53.2166 16.6184 53.1845C17.1859 52.6973 17.8284 52.1994 18.5244 51.7014C18.5495 51.6782 18.5793 51.6606 18.6117 51.6498C18.6442 51.6391 18.6786 51.6354 18.7126 51.6392C18.7465 51.6429 18.7793 51.6539 18.8087 51.6714C18.8381 51.689 18.8633 51.7126 18.8827 51.7407C18.9021 51.7689 18.9153 51.8009 18.9212 51.8346C18.9271 51.8682 18.9258 51.9028 18.9172 51.9359C18.9086 51.969 18.893 51.9998 18.8714 52.0264C18.8498 52.0529 18.8228 52.0745 18.7921 52.0896C18.1068 52.5795 17.4777 53.0694 16.9182 53.5486C16.8776 53.5832 16.8269 53.6039 16.7736 53.6075ZM76.2048 53.0212C76.1611 53.0215 76.1182 53.0097 76.0808 52.987C76.0435 52.9643 76.0132 52.9317 75.9933 52.8927C75.9641 52.8362 75.9584 52.7705 75.9774 52.7098C75.9965 52.6491 76.0388 52.5984 76.0951 52.5688C76.8232 52.1967 77.53 51.8166 78.1992 51.4391C78.2546 51.4082 78.32 51.4006 78.381 51.4179C78.442 51.4352 78.4936 51.4761 78.5245 51.5314C78.5554 51.5868 78.563 51.6522 78.5457 51.7132C78.5284 51.7742 78.4875 51.8258 78.4322 51.8567C77.7602 52.2369 77.0481 52.6197 76.3146 52.9971C76.2793 53.0132 76.2409 53.0214 76.2021 53.0212H76.2048ZM20.6554 50.8153C20.6033 50.8157 20.5524 50.799 20.5107 50.7678C20.469 50.7365 20.4387 50.6925 20.4244 50.6423C20.4101 50.5922 20.4127 50.5388 20.4317 50.4902C20.4507 50.4417 20.4851 50.4007 20.5296 50.3736C21.1801 49.9667 21.8681 49.5517 22.5989 49.1475C22.6263 49.1318 22.6565 49.1218 22.6878 49.1179C22.7191 49.114 22.7509 49.1163 22.7813 49.1248C22.8117 49.1332 22.84 49.1477 22.8648 49.1672C22.8896 49.1867 22.9102 49.211 22.9256 49.2385C22.9565 49.294 22.9643 49.3594 22.9472 49.4205C22.9302 49.4817 22.8897 49.5337 22.8345 49.5651C22.1171 49.9667 21.4291 50.3682 20.7839 50.7805C20.745 50.8034 20.7006 50.8155 20.6554 50.8153ZM80.373 50.6761C80.3207 50.6771 80.2694 50.6609 80.2273 50.6298C80.1851 50.5988 80.1543 50.5547 80.1397 50.5045C80.125 50.4542 80.1274 50.4005 80.1463 50.3517C80.1653 50.3028 80.1998 50.2616 80.2445 50.2344C80.9459 49.7927 81.6125 49.3483 82.2229 48.9092C82.2485 48.8907 82.2775 48.8775 82.3082 48.8703C82.339 48.8631 82.3708 48.8621 82.402 48.8674C82.4331 48.8726 82.4629 48.8839 82.4896 48.9008C82.5163 48.9176 82.5394 48.9396 82.5575 48.9655C82.576 48.9908 82.5891 49.0196 82.5963 49.0502C82.6035 49.0807 82.6044 49.1123 82.5992 49.1433C82.594 49.1742 82.5826 49.2037 82.5658 49.2302C82.549 49.2567 82.5271 49.2795 82.5013 49.2974C81.8829 49.7418 81.211 50.1942 80.4989 50.636C80.4604 50.6572 80.4169 50.6674 80.373 50.6654V50.6761ZM24.837 48.4515C24.7826 48.4527 24.7295 48.4353 24.6864 48.4022C24.6433 48.3691 24.6128 48.3223 24.6 48.2694C24.5871 48.2166 24.5928 48.161 24.6159 48.1118C24.6391 48.0626 24.6784 48.0228 24.7272 47.999C25.4179 47.643 26.1434 47.2869 26.8689 46.9282C26.9265 46.9013 26.9924 46.898 27.0524 46.919C27.1124 46.94 27.1619 46.9837 27.1901 47.0406C27.2037 47.0691 27.2114 47.0999 27.213 47.1314C27.2145 47.1629 27.2098 47.1943 27.1991 47.2239C27.1884 47.2536 27.1719 47.2808 27.1506 47.304C27.1293 47.3272 27.1036 47.346 27.075 47.3592C26.3388 47.7099 25.6187 48.0633 24.9334 48.4167C24.9038 48.4344 24.8711 48.4462 24.837 48.4515ZM84.2682 47.8598C84.2338 47.8599 84.1998 47.8522 84.1688 47.8373C84.1377 47.8225 84.1104 47.8009 84.0888 47.7742C84.0681 47.7505 84.0524 47.7229 84.0424 47.6931C84.0324 47.6633 84.0284 47.6318 84.0307 47.6005C84.0329 47.5691 84.0413 47.5385 84.0554 47.5104C84.0695 47.4824 84.0891 47.4573 84.1129 47.4368C84.3539 47.2334 84.5814 47.0273 84.7956 46.8265C85.165 46.4785 85.505 46.1304 85.8048 45.7904C85.8247 45.7634 85.8499 45.7408 85.879 45.7241C85.9081 45.7073 85.9403 45.6969 85.9736 45.6933C86.007 45.6898 86.0407 45.6932 86.0727 45.7034C86.1046 45.7137 86.1341 45.7305 86.1591 45.7527C86.1842 45.775 86.2044 45.8023 86.2183 45.8328C86.2322 45.8633 86.2396 45.8964 86.2401 45.9299C86.2405 45.9634 86.2339 45.9967 86.2207 46.0275C86.2075 46.0584 86.1881 46.0861 86.1636 46.109C85.853 46.457 85.505 46.8158 85.1248 47.1798C84.9053 47.386 84.6698 47.5975 84.4261 47.8063C84.3778 47.8497 84.3144 47.8727 84.2494 47.8705L84.2682 47.8598ZM87.3495 44.2297C87.3125 44.2297 87.2759 44.2215 87.2424 44.2056C87.1859 44.1769 87.143 44.1271 87.1229 44.067C87.1029 44.0068 87.1073 43.9412 87.1353 43.8844C87.2444 43.6631 87.3392 43.4351 87.4191 43.2017C87.5685 42.7867 87.6472 42.3497 87.652 41.9087C87.652 41.8391 87.652 41.7695 87.652 41.6999C87.6529 41.6394 87.6765 41.5814 87.7182 41.5375C87.7598 41.4936 87.8165 41.467 87.8768 41.463C87.9372 41.4589 87.9969 41.4777 88.044 41.5157C88.0911 41.5536 88.1223 41.6079 88.1312 41.6677C88.1312 41.748 88.1312 41.8284 88.1312 41.9087C88.1229 42.4029 88.0325 42.8924 87.8635 43.357C87.7778 43.61 87.675 43.8569 87.5556 44.0958C87.5353 44.1377 87.5032 44.1726 87.4632 44.1964C87.4233 44.2202 87.3772 44.2318 87.3308 44.2297H87.3495ZM86.9613 39.8393C86.9275 39.8391 86.8941 39.8319 86.8632 39.818C86.8323 39.8042 86.8046 39.7841 86.782 39.759C86.2592 39.1945 85.6331 38.7356 84.9375 38.4071C84.8807 38.3786 84.8375 38.3289 84.8174 38.2686C84.7973 38.2084 84.802 38.1426 84.8304 38.0858C84.8588 38.029 84.9086 37.9858 84.9688 37.9657C85.0291 37.9456 85.0948 37.9503 85.1516 37.9787C85.9028 38.3354 86.5789 38.8324 87.1434 39.4431C87.1844 39.4912 87.2049 39.5536 87.2004 39.6167C87.1959 39.6798 87.1668 39.7386 87.1193 39.7804C87.0757 39.8188 87.0194 39.8398 86.9613 39.8393ZM82.8092 37.5825C82.7869 37.5851 82.7645 37.5851 82.7422 37.5825C81.9823 37.3668 81.211 37.1934 80.4319 37.0632C80.3721 37.049 80.3199 37.0126 80.2861 36.9613C80.2523 36.91 80.2393 36.8476 80.2499 36.7871C80.2605 36.7265 80.2939 36.6723 80.3431 36.6356C80.3924 36.5988 80.4539 36.5823 80.5149 36.5893C81.311 36.7255 82.0992 36.9042 82.8761 37.1247C82.9309 37.1416 82.9779 37.1775 83.0086 37.2259C83.0393 37.2743 83.0518 37.3321 83.0437 37.3889C83.0357 37.4456 83.0076 37.4977 82.9646 37.5356C82.9216 37.5736 82.8665 37.5949 82.8092 37.5959V37.5825ZM78.1109 36.7312H78.0868C77.3345 36.6562 76.5341 36.6 75.7122 36.5652C75.6807 36.5642 75.6497 36.5569 75.621 36.5438C75.5923 36.5307 75.5665 36.512 75.5451 36.4888C75.5237 36.4657 75.5071 36.4385 75.4962 36.4089C75.4854 36.3792 75.4806 36.3478 75.482 36.3163C75.4861 36.2533 75.5142 36.1943 75.5606 36.1515C75.6069 36.1086 75.6679 36.0852 75.731 36.086C76.5635 36.1235 77.372 36.1797 78.1403 36.2547C78.2035 36.2579 78.2629 36.286 78.3053 36.333C78.3477 36.3799 78.3698 36.4418 78.3666 36.505C78.3634 36.5682 78.3352 36.6275 78.2883 36.6699C78.2413 36.7124 78.1794 36.7344 78.1162 36.7312H78.1109ZM70.9336 36.5572C70.8745 36.5509 70.8197 36.523 70.7799 36.4787C70.7401 36.4345 70.7181 36.3771 70.7181 36.3176C70.7181 36.2581 70.7401 36.2007 70.7799 36.1564C70.8197 36.1122 70.8745 36.0843 70.9336 36.078C71.7368 36.0485 72.5399 36.0352 73.3002 36.0352H73.3377C73.3968 36.0414 73.4516 36.0694 73.4914 36.1136C73.5312 36.1578 73.5532 36.2152 73.5532 36.2748C73.5532 36.3343 73.5312 36.3917 73.4914 36.4359C73.4516 36.4801 73.3968 36.5081 73.3377 36.5144H73.2922C72.5345 36.5144 71.7448 36.5144 70.9444 36.5572H70.9336Z" fill="white"/>
<path d="M15.7618 51.3287C16.2938 51.2165 16.8472 51.2646 17.3519 51.4669C17.8566 51.6692 18.29 52.0167 18.5973 52.4653C18.9045 52.9139 19.0719 53.4435 19.0781 53.9872C19.0844 54.5309 18.9293 55.0643 18.6325 55.5199C18.3356 55.9754 17.9103 56.3327 17.4104 56.5466C16.9105 56.7605 16.3584 56.8214 15.8239 56.7215C15.2894 56.6216 14.7965 56.3655 14.4076 55.9855C14.0187 55.6055 13.7512 55.1187 13.6389 54.5867C13.489 53.8732 13.6284 53.1294 14.0264 52.5185C14.4244 51.9077 15.0485 51.4798 15.7618 51.3287Z" fill="#016A70"/>
<path opacity="0.2" d="M15.7618 51.3287C16.2938 51.2165 16.8472 51.2646 17.3519 51.4669C17.8566 51.6692 18.29 52.0167 18.5973 52.4653C18.9045 52.9139 19.0719 53.4435 19.0781 53.9872C19.0844 54.5309 18.9293 55.0643 18.6325 55.5199C18.3356 55.9754 17.9103 56.3327 17.4104 56.5466C16.9105 56.7605 16.3584 56.8214 15.8239 56.7215C15.2894 56.6216 14.7965 56.3655 14.4076 55.9855C14.0187 55.6055 13.7512 55.1187 13.6389 54.5867C13.489 53.8732 13.6284 53.1294 14.0264 52.5185C14.4244 51.9077 15.0485 51.4798 15.7618 51.3287Z" fill="white"/>
<path opacity="0.15" d="M18.0582 54.5915C17.6352 55.9755 16.211 56.6154 14.8457 56.3262C15.1844 56.5455 15.5673 56.6876 15.9671 56.7423C16.3669 56.797 16.7738 56.7631 17.159 56.6429C17.5442 56.5226 17.8983 56.3191 18.196 56.0467C18.4937 55.7743 18.7278 55.4397 18.8816 55.0666C19.0355 54.6936 19.1053 54.2912 19.0862 53.8881C19.0671 53.4851 18.9595 53.0911 18.771 52.7343C18.5826 52.3775 18.3179 52.0666 17.9957 51.8235C17.6736 51.5805 17.3019 51.4114 16.9071 51.3281C17.6245 51.553 18.5079 53.1218 18.0582 54.5915Z" fill="white"/>
<path d="M68.355 26.1306C68.936 24.7277 68.2699 23.1195 66.867 22.5384C65.4642 21.9573 63.8559 22.6235 63.2748 24.0263C62.6937 25.4292 63.3599 27.0375 64.7627 27.6185C66.1656 28.1996 67.7739 27.5334 68.355 26.1306Z" fill="#016A70"/>
<path opacity="0.5" d="M68.355 26.1306C68.936 24.7277 68.2699 23.1195 66.867 22.5384C65.4642 21.9573 63.8559 22.6235 63.2748 24.0263C62.6937 25.4292 63.3599 27.0375 64.7627 27.6185C66.1656 28.1996 67.7739 27.5334 68.355 26.1306Z" fill="white"/>
<path opacity="0.35" d="M64.8967 26.651C63.6304 25.9523 63.2905 24.4263 63.866 23.1387C63.5812 23.4248 63.363 23.7702 63.2267 24.1503C63.0905 24.5303 63.0396 24.9357 63.0777 25.3376C63.1158 25.7396 63.242 26.1282 63.4472 26.4758C63.6525 26.8235 63.9318 27.1217 64.2653 27.3492C64.5988 27.5768 64.9783 27.728 65.3769 27.7923C65.7755 27.8566 66.1833 27.8324 66.5715 27.7213C66.9596 27.6101 67.3185 27.4149 67.6227 27.1494C67.9269 26.884 68.1688 26.5547 68.3314 26.1852C67.9593 26.8545 66.2406 27.3952 64.8967 26.651Z" fill="white"/>
<path d="M82.8735 63.6659C82.4724 64.0331 81.9714 64.2731 81.4339 64.3556C80.8965 64.4381 80.3466 64.3593 79.8539 64.1293C79.3612 63.8993 78.9477 63.5283 78.6658 63.0633C78.384 62.5983 78.2463 62.0601 78.2702 61.5169C78.2942 60.9736 78.4787 60.4497 78.8005 60.0113C79.1222 59.573 79.5667 59.2398 80.0777 59.0541C80.5888 58.8683 81.1435 58.8383 81.6716 58.9678C82.1997 59.0972 82.6776 59.3804 83.0448 59.7815C83.2886 60.0478 83.4776 60.3595 83.6009 60.6988C83.7242 61.0382 83.7795 61.3985 83.7636 61.7592C83.7477 62.1199 83.6609 62.4739 83.5082 62.8011C83.3554 63.1282 83.1398 63.4221 82.8735 63.6659Z" fill="#016A70"/>
<path opacity="0.5" d="M82.8735 63.6659C82.4724 64.0331 81.9714 64.2731 81.4339 64.3556C80.8965 64.4381 80.3466 64.3593 79.8539 64.1293C79.3612 63.8993 78.9477 63.5283 78.6658 63.0633C78.384 62.5983 78.2463 62.0601 78.2702 61.5169C78.2942 60.9736 78.4787 60.4497 78.8005 60.0113C79.1222 59.573 79.5667 59.2398 80.0777 59.0541C80.5888 58.8683 81.1435 58.8383 81.6716 58.9678C82.1997 59.0972 82.6776 59.3804 83.0448 59.7815C83.2886 60.0478 83.4776 60.3595 83.6009 60.6988C83.7242 61.0382 83.7795 61.3985 83.7636 61.7592C83.7477 62.1199 83.6609 62.4739 83.5082 62.8011C83.3554 63.1282 83.1398 63.4221 82.8735 63.6659Z" fill="white"/>
<path opacity="0.35" d="M79.2353 62.0191C78.8953 60.6136 79.7975 59.342 81.1306 58.8869C80.7279 58.8711 80.3266 58.944 79.9552 59.1005C79.5838 59.257 79.2514 59.4932 78.9814 59.7925C78.7114 60.0917 78.5105 60.4467 78.393 60.8322C78.2754 61.2177 78.2441 61.6244 78.3011 62.0233C78.3582 62.4223 78.5023 62.8039 78.7231 63.141C78.944 63.4781 79.2363 63.7625 79.5794 63.9741C79.9224 64.1857 80.3077 64.3193 80.7081 64.3654C81.1085 64.4116 81.5141 64.3691 81.8963 64.241C81.1547 64.4151 79.594 63.5129 79.2353 62.0191Z" fill="white"/>
</svg>
