<svg width="19" height="19" viewBox="0 0 19 19" fill="none" xmlns="http://www.w3.org/2000/svg">
<rect y="0.242188" width="18.7578" height="18.7578" rx="9.37891" fill="url(#paint0_linear_9883_14580)"/>
<mask id="mask0_9883_14580" style="mask-type:luminance" maskUnits="userSpaceOnUse" x="5" y="5" width="4" height="5">
<path d="M5.48438 5.75781H8.88664V9.15524H5.48438V5.75781Z" fill="white"/>
</mask>
<g mask="url(#mask0_9883_14580)">
<path d="M8.8445 5.75781L7.25815 9.06946L5.6875 5.75781H8.8445Z" fill="white"/>
</g>
<path d="M8.34903 15.69L12.33 7.67969H10.7678L7.5625 14.1085L8.34903 15.69Z" fill="white"/>
<path d="M15.1607 7.16898C15.0725 6.95875 14.9553 6.76786 14.8103 6.59267C14.6654 6.41748 14.4986 6.26767 14.3089 6.14202C14.1205 6.01757 13.9175 5.92213 13.7 5.85568C13.4825 5.79043 13.2602 5.75781 13.0331 5.75781H9.51848L7.2495 10.3405L4.97569 5.75781H3.40625L7.2495 13.5035L7.25071 13.5059L10.3908 7.16414H13.0331C13.1503 7.16777 13.2627 7.19314 13.3702 7.24147C13.4777 7.28859 13.572 7.35504 13.6529 7.4384C13.7351 7.52298 13.7979 7.61963 13.8414 7.72837C13.8861 7.83711 13.9078 7.95068 13.9078 8.06787C13.9078 8.18506 13.8861 8.29743 13.8414 8.40616C13.7979 8.5149 13.7351 8.61156 13.6529 8.69613C13.572 8.7807 13.4777 8.84594 13.3702 8.89427C13.2627 8.94139 13.1503 8.96676 13.0331 8.9716H12.2756L11.5772 10.3767H13.0331C13.1285 10.3767 13.2228 10.3707 13.317 10.3586C13.4113 10.3477 13.5043 10.3296 13.5961 10.3066C13.6879 10.2837 13.7786 10.2547 13.8668 10.2209C13.9562 10.1858 14.0419 10.146 14.1253 10.1013C14.2087 10.0566 14.2896 10.007 14.3669 9.95144C14.4443 9.89707 14.518 9.83787 14.588 9.77383C14.6581 9.7098 14.7246 9.64214 14.7862 9.56965C14.8478 9.49716 14.9058 9.42225 14.9577 9.34251C15.0097 9.26398 15.058 9.18182 15.1003 9.09725C15.1426 9.01147 15.1788 8.92448 15.2103 8.83507C15.2429 8.74566 15.2683 8.65505 15.2888 8.56202C15.3093 8.46899 15.3238 8.37596 15.3323 8.28051C15.3407 8.18627 15.3444 8.09203 15.342 7.99659C15.3383 7.90235 15.3299 7.80811 15.3154 7.71387C15.3009 7.61963 15.2803 7.52781 15.255 7.43599C15.2296 7.34537 15.1982 7.25597 15.1607 7.16777V7.16898Z" fill="white"/>
<defs>
<linearGradient id="paint0_linear_9883_14580" x1="9.37891" y1="0.242187" x2="9.37891" y2="19" gradientUnits="userSpaceOnUse">
<stop stop-color="#1A9CA4"/>
<stop offset="1" stop-color="#016A70"/>
</linearGradient>
</defs>
</svg>
