<svg width="284" height="284" viewBox="0 0 284 284" fill="none" xmlns="http://www.w3.org/2000/svg">
<path opacity="0.2" d="M223.968 166.629L145.641 211.813C144.511 212.388 143.26 212.688 141.992 212.688C140.723 212.688 139.473 212.388 138.342 211.813L60.0322 166.634C59.0211 166.066 58.5156 165.3 58.5156 164.527C58.5291 164.221 58.6075 163.922 58.7456 163.649C58.8836 163.375 59.0783 163.135 59.3165 162.942C59.5328 162.741 59.7732 162.568 60.0322 162.425L138.359 117.252C139.49 116.678 140.741 116.379 142.009 116.379C143.277 116.379 144.527 116.678 145.658 117.252L223.968 162.414C225.979 163.584 225.979 165.476 223.968 166.629Z" fill="black"/>
<path d="M142 191.007V206.23C140.735 206.258 139.484 205.963 138.365 205.372L60.0322 160.176C59.0211 159.608 58.5156 158.83 58.5156 158.069V144.903C58.5283 144.596 58.6063 144.296 58.7444 144.021C58.8825 143.747 59.0776 143.505 59.3165 143.312L70.6481 149.856L142 191.007Z" fill="#016A70"/>
<path opacity="0.5" d="M142 191.007V206.23C140.735 206.258 139.484 205.963 138.365 205.372L60.0322 160.176C59.0211 159.608 58.5156 158.83 58.5156 158.069V144.903C58.5283 144.596 58.6063 144.296 58.7444 144.021C58.8825 143.747 59.0776 143.505 59.3165 143.312L70.6481 149.856L142 191.007Z" fill="white"/>
<path d="M142 191.007V206.23C143.267 206.258 144.52 205.963 145.641 205.372L223.968 160.176C224.979 159.608 225.485 158.83 225.485 158.069V144.897C225.472 144.59 225.394 144.29 225.256 144.015C225.118 143.741 224.923 143.5 224.684 143.307L213.352 149.85L142 191.007Z" fill="#016A70"/>
<path opacity="0.65" d="M142 191.007V206.23C143.267 206.258 144.52 205.963 145.641 205.372L223.968 160.176C224.979 159.608 225.485 158.83 225.485 158.069V144.897C225.472 144.59 225.394 144.29 225.256 144.015C225.118 143.741 224.923 143.5 224.684 143.307L213.352 149.85L142 191.007Z" fill="white"/>
<path d="M223.968 146.998L145.641 192.188C144.509 192.759 143.259 193.057 141.992 193.057C140.724 193.057 139.474 192.759 138.342 192.188L60.0322 147.003C59.0211 146.435 58.5156 145.674 58.5156 144.902C58.5283 144.595 58.6063 144.295 58.7444 144.02C58.8825 143.746 59.0776 143.504 59.3165 143.311C59.5328 143.11 59.7732 142.937 60.0322 142.795L138.359 97.6216C139.49 97.0473 140.741 96.748 142.009 96.748C143.277 96.748 144.527 97.0473 145.658 97.6216L223.968 142.789C225.979 143.953 225.979 145.85 223.968 146.998Z" fill="#016A70"/>
<path opacity="0.8" d="M223.968 146.998L145.641 192.188C144.509 192.759 143.259 193.057 141.992 193.057C140.724 193.057 139.474 192.759 138.342 192.188L60.0322 147.003C59.0211 146.435 58.5156 145.674 58.5156 144.902C58.5283 144.595 58.6063 144.295 58.7444 144.02C58.8825 143.746 59.0776 143.504 59.3165 143.311C59.5328 143.11 59.7732 142.937 60.0322 142.795L138.359 97.6216C139.49 97.0473 140.741 96.748 142.009 96.748C143.277 96.748 144.527 97.0473 145.658 97.6216L223.968 142.789C225.979 143.953 225.979 145.85 223.968 146.998Z" fill="white"/>
<path d="M142 97.6509C143.115 97.6299 144.216 97.8897 145.204 98.4063L223.508 143.568C224.184 143.96 224.565 144.443 224.565 144.903C224.565 145.363 224.178 145.834 223.514 146.221L145.187 191.416C144.193 191.909 143.098 192.166 141.989 192.166C140.879 192.166 139.785 191.909 138.791 191.416L60.4809 146.221C59.805 145.84 59.4187 145.357 59.4187 144.903C59.4351 144.721 59.4889 144.545 59.5769 144.386C59.6649 144.227 59.7852 144.087 59.9299 143.977C60.102 143.821 60.2928 143.688 60.4979 143.579L138.831 98.4063C139.813 97.8859 140.912 97.6258 142.023 97.6509M142.023 96.7478C140.752 96.7207 139.496 97.022 138.376 97.6225L60.0322 142.796C59.7722 142.936 59.5316 143.11 59.3165 143.312C59.0776 143.505 58.8825 143.747 58.7444 144.021C58.6063 144.295 58.5283 144.596 58.5156 144.903C58.5156 145.675 59.0211 146.431 60.0322 147.004L138.342 192.189C139.474 192.76 140.724 193.058 141.992 193.058C143.259 193.058 144.509 192.76 145.641 192.189L223.968 146.999C225.979 145.863 225.979 143.954 223.968 142.79L145.658 97.6225C144.535 97.0239 143.278 96.7228 142.006 96.7478H142.023Z" fill="white"/>
<path d="M139.575 106.785L75.9588 143.489C74.6127 144.267 74.6127 145.522 75.9588 146.3L139.575 182.999C140.328 183.382 141.161 183.582 142.006 183.582C142.851 183.582 143.684 183.382 144.437 182.999L208.081 146.295C209.427 145.517 209.427 144.261 208.081 143.483L144.437 106.785C143.684 106.401 142.851 106.201 142.006 106.201C141.161 106.201 140.328 106.401 139.575 106.785Z" fill="#455A64"/>
<path d="M208.064 143.494L144.437 106.784C143.688 106.392 142.851 106.196 142.006 106.216V108.687L207.644 146.544L208.064 146.3C209.41 145.528 209.41 144.272 208.064 143.494Z" fill="#37474F"/>
<path d="M142 106.216C141.155 106.196 140.318 106.392 139.569 106.784L75.953 143.488C74.6068 144.267 74.6068 145.522 75.953 146.3L76.3733 146.544L142 108.687V106.216Z" fill="#263238"/>
<g opacity="0.5">
<path opacity="0.3" d="M146.397 173.718C145.045 174.507 143.488 174.874 141.927 174.769V183.601C142.991 183.597 144.032 183.287 144.926 182.709L207.321 146.698C208.485 146.056 209.025 145.488 209.025 144.71V137.57L146.397 173.718Z" fill="#016A70"/>
<path opacity="0.276923" d="M146.397 165.818C145.048 166.612 143.489 166.979 141.927 166.868V175.701C142.991 175.697 144.032 175.387 144.926 174.809L207.321 138.798C208.485 138.156 209.025 137.594 209.025 136.816V129.676L146.397 165.818Z" fill="#016A70"/>
<path opacity="0.253846" d="M146.397 157.904C145.045 158.694 143.488 159.06 141.927 158.955V167.787C142.991 167.783 144.032 167.474 144.926 166.895L207.321 130.901C208.485 130.259 209.025 129.691 209.025 128.913V121.773L146.397 157.904Z" fill="#016A70"/>
<path opacity="0.230769" d="M146.397 150.021C145.048 150.815 143.489 151.182 141.927 151.072V159.904C142.99 159.899 144.031 159.592 144.926 159.018L207.321 123.001C208.485 122.359 209.025 121.797 209.025 121.019V113.879L146.397 150.021Z" fill="#016A70"/>
<path opacity="0.207692" d="M146.397 142.126C145.045 142.916 143.488 143.282 141.927 143.177V152.009C142.991 152.005 144.032 151.696 144.926 151.117L207.321 115.106C208.485 114.464 209.025 113.902 209.025 113.118V105.979L146.397 142.126Z" fill="#016A70"/>
<path opacity="0.184615" d="M146.397 134.23C145.046 135.02 143.488 135.384 141.927 135.275V144.107C142.99 144.102 144.031 143.795 144.926 143.221L207.321 107.204C208.485 106.568 209.025 106 209.025 105.222V98.082L146.397 134.23Z" fill="#016A70"/>
<path opacity="0.161538" d="M146.397 126.329C145.047 127.121 143.489 127.488 141.927 127.38V136.212C142.991 136.208 144.032 135.899 144.926 135.321L207.321 99.3094C208.485 98.6676 209.025 98.1052 209.025 97.3271V90.1816L146.397 126.329Z" fill="#016A70"/>
<path opacity="0.138462" d="M146.397 118.435C145.046 119.225 143.488 119.589 141.927 119.48V128.312C142.99 128.308 144.031 128 144.926 127.426L207.321 91.4092C208.485 90.773 209.025 90.205 209.025 89.4269V82.2871L146.397 118.435Z" fill="#016A70"/>
<path opacity="0.115385" d="M146.397 110.533C145.047 111.328 143.489 111.694 141.927 111.584V120.416C142.991 120.412 144.032 120.103 144.926 119.524L207.321 83.4962C208.485 82.8544 209.025 82.292 209.025 81.5139V74.4082L146.397 110.533Z" fill="#016A70"/>
<path opacity="0.092308" d="M146.397 102.638C145.046 103.428 143.488 103.792 141.927 103.683V112.515C142.99 112.511 144.03 112.203 144.926 111.629L207.321 75.6123C208.485 74.9762 209.025 74.4082 209.025 73.63V66.4902L146.397 102.638Z" fill="#016A70"/>
<path opacity="0.069231" d="M146.397 94.7375C145.047 95.5322 143.489 95.8986 141.927 95.7883V104.621C142.991 104.617 144.032 104.307 144.926 103.729L207.321 67.7178C208.485 67.0759 209.025 66.5136 209.025 65.7355V58.5957L146.397 94.7375Z" fill="#016A70"/>
<path opacity="0.046154" d="M146.397 86.8428C145.045 87.6325 143.488 87.9985 141.927 87.8936V96.7317C142.991 96.7251 144.031 96.4158 144.926 95.84L207.321 59.8231C208.485 59.1812 209.025 58.6132 209.025 57.8351V50.6953L146.397 86.8428Z" fill="#016A70"/>
<path opacity="0.023077" d="M146.397 78.952C145.048 79.7466 143.489 80.1131 141.927 80.0028V88.8352C142.991 88.8311 144.032 88.5216 144.926 87.9435L207.321 51.9209C208.485 51.2791 209.025 50.7167 209.025 49.9386V42.7988L146.397 78.952Z" fill="#016A70"/>
</g>
<g opacity="0.7">
<path opacity="0.5" d="M137.457 173.718C138.81 174.508 140.369 174.874 141.932 174.769C141.904 174.769 141.932 174.769 141.932 174.769V183.601C140.868 183.598 139.827 183.288 138.933 182.709L76.5556 146.698C75.3912 146.056 74.8516 145.488 74.8516 144.71V137.57L137.457 173.718Z" fill="#016A70"/>
<path opacity="0.461538" d="M137.457 165.818C138.808 166.613 140.368 166.979 141.932 166.868V175.701C140.868 175.698 139.827 175.388 138.933 174.809L76.5556 138.798C75.3912 138.156 74.8516 137.594 74.8516 136.816V129.676L137.457 165.818Z" fill="#016A70"/>
<path opacity="0.423077" d="M137.457 157.904C138.81 158.694 140.369 159.06 141.932 158.955C141.904 158.955 141.932 158.955 141.932 158.955V167.787C140.868 167.784 139.827 167.474 138.933 166.895L76.5556 130.884C75.3912 130.242 74.8516 129.674 74.8516 128.896V121.773L137.457 157.904Z" fill="#016A70"/>
<path opacity="0.384615" d="M137.456 150.021C138.807 150.816 140.368 151.183 141.932 151.072V159.904C140.869 159.9 139.828 159.593 138.933 159.018L76.5497 123.001C75.3853 122.359 74.8457 121.797 74.8457 121.019V113.879L137.456 150.021Z" fill="#016A70"/>
<path opacity="0.346154" d="M137.457 142.126C138.81 142.916 140.369 143.282 141.932 143.177C141.904 143.177 141.932 143.177 141.932 143.177V152.009C140.868 152.006 139.827 151.697 138.933 151.117L76.5556 115.106C75.3912 114.464 74.8516 113.902 74.8516 113.118V105.979L137.457 142.126Z" fill="#016A70"/>
<path opacity="0.307692" d="M137.456 134.23C138.809 135.021 140.369 135.385 141.932 135.275V144.107C140.869 144.103 139.828 143.796 138.933 143.221L76.5497 107.204C75.3853 106.568 74.8457 106 74.8457 105.222V98.082L137.456 134.23Z" fill="#016A70"/>
<path opacity="0.269231" d="M137.457 126.329C138.809 127.122 140.369 127.488 141.932 127.38C141.904 127.38 141.932 127.38 141.932 127.38V136.212C140.868 136.209 139.827 135.9 138.933 135.321L76.5556 99.3094C75.3912 98.6676 74.8516 98.1052 74.8516 97.3271V90.1816L137.457 126.329Z" fill="#016A70"/>
<path opacity="0.230769" d="M137.456 118.435C138.809 119.226 140.369 119.59 141.932 119.48V128.312C140.869 128.308 139.828 128.001 138.933 127.426L76.5497 91.4092C75.3853 90.773 74.8457 90.205 74.8457 89.4269V82.2871L137.456 118.435Z" fill="#016A70"/>
<path opacity="0.192308" d="M137.456 110.533C138.807 111.328 140.368 111.695 141.932 111.584C141.904 111.584 141.932 111.584 141.932 111.584V120.416C140.868 120.413 139.826 120.103 138.933 119.524L76.5497 83.4962C75.3853 82.8544 74.8457 82.292 74.8457 81.5139V74.4082L137.456 110.533Z" fill="#016A70"/>
<path opacity="0.153846" d="M137.456 102.638C138.809 103.429 140.369 103.793 141.932 103.683C141.904 103.683 141.932 103.683 141.932 103.683V112.515C140.869 112.512 139.828 112.204 138.933 111.629L76.5497 75.6123C75.3853 74.9762 74.8457 74.4082 74.8457 73.63V66.4902L137.456 102.638Z" fill="#016A70"/>
<path opacity="0.115385" d="M137.457 94.7375C138.808 95.5329 140.368 95.8994 141.932 95.7883C141.904 95.7883 141.932 95.7883 141.932 95.7883V104.621C140.868 104.618 139.827 104.308 138.933 103.729L76.5556 67.7178C75.3912 67.0759 74.8516 66.5136 74.8516 65.7355V58.5957L137.457 94.7375Z" fill="#016A70"/>
<path opacity="0.076923" d="M137.457 86.8428C138.81 87.6329 140.369 87.999 141.932 87.8936V96.7317C140.868 96.7257 139.828 96.4164 138.933 95.84L76.5556 59.8288C75.3912 59.1869 74.8516 58.6189 74.8516 57.8408V50.6953L137.457 86.8428Z" fill="#016A70"/>
<path opacity="0.038462" d="M137.456 78.952C138.807 79.7474 140.368 80.1139 141.932 80.0028V88.8352C140.868 88.8321 139.826 88.5225 138.933 87.9435L76.5497 51.9209C75.3853 51.2791 74.8457 50.7167 74.8457 49.9386V42.7988L137.456 78.952Z" fill="#016A70"/>
</g>
<path d="M187.332 111.458C187.332 111.458 189.229 113.349 187.9 116.848C186.633 120.256 182.487 120.824 182.487 120.824C182.487 120.824 183.055 126.396 174.012 127.072C174.052 126.683 174.052 126.291 174.012 125.902C174.012 125.902 178.164 125.737 178.227 119.291C178.289 112.844 173.455 111.85 173.455 111.85C173.969 111.102 174.305 110.246 174.435 109.347C174.565 108.449 174.486 107.533 174.205 106.67C173.024 103.137 170.524 103.512 170.524 103.512C170.524 103.512 172.336 102.183 171.541 98.8881C170.803 95.8266 168.502 95.429 168.502 95.429C168.502 95.429 170.206 92.3845 167.099 88.2722C163.992 84.1599 160.8 84.796 160.8 84.796C160.69 82.7675 159.915 80.8316 158.596 79.2864C156.387 76.7134 152.916 77.0769 152.916 77.0769C152.953 75.7778 152.707 74.4863 152.195 73.2917C151.683 72.0972 150.917 71.0281 149.951 70.1587C146.646 67.0347 143.329 67.1767 143.329 67.1767C143.376 66.2827 143.197 65.3913 142.806 64.5857C142.416 63.7801 141.828 63.0866 141.096 62.5702C140.26 61.9176 139.267 61.4951 138.217 61.3447C137.167 61.1942 136.096 61.321 135.11 61.7125C135.11 61.7125 134.542 57.6684 131.043 56.8959C126.47 55.8962 124.227 58.5999 124.227 58.5999C124.227 58.5999 122.704 56.5948 119.223 56.0268C120.495 54.356 122.052 52.9234 123.823 51.7952C127.941 49.2733 134.178 50.8808 134.178 50.8808C135.752 49.7419 137.684 49.2094 139.62 49.3812C140.549 49.4542 141.451 49.7362 142.256 50.2064C143.062 50.6765 143.751 51.3225 144.271 52.0963C144.271 52.0963 146.18 50.6876 150.803 50.9603C155.427 51.2329 156.535 54.8795 156.535 54.8795C158.816 54.8152 161.063 55.4473 162.976 56.6914C166.384 58.81 166.384 63.337 166.384 63.337C166.384 63.337 170.513 62.201 174.131 65.9555C177.749 69.71 176.153 73.2032 176.153 73.2032C177.505 73.3247 178.806 73.781 179.937 74.5308C181.069 75.2807 181.995 76.3006 182.634 77.4984C183.273 78.6962 183.603 80.0341 183.595 81.3915C183.587 82.7489 183.241 84.0829 182.589 85.2732C183.118 85.4414 183.601 85.7285 184.002 86.1125C184.402 86.4965 184.71 86.9671 184.901 87.4883C185.605 89.3003 184.901 90.4079 184.901 90.4079C184.901 90.4079 188.416 91.9074 189.331 95.6335C190.245 99.3595 188.416 101.569 188.416 101.569C189.334 102.093 190.091 102.858 190.605 103.781C191.12 104.704 191.373 105.75 191.336 106.806C191.353 110.657 187.332 111.458 187.332 111.458Z" fill="#016A70"/>
<path opacity="0.05" d="M187.332 111.458C187.332 111.458 189.229 113.349 187.9 116.848C186.633 120.256 182.487 120.824 182.487 120.824C182.487 120.824 183.055 126.396 174.012 127.072C174.052 126.683 174.052 126.291 174.012 125.902C174.012 125.902 178.164 125.737 178.227 119.291C178.289 112.844 173.455 111.85 173.455 111.85C173.969 111.102 174.305 110.246 174.435 109.347C174.565 108.449 174.486 107.533 174.205 106.67C173.024 103.137 170.524 103.512 170.524 103.512C170.524 103.512 172.336 102.183 171.541 98.8881C170.803 95.8266 168.502 95.429 168.502 95.429C168.502 95.429 170.206 92.3845 167.099 88.2722C163.992 84.1599 160.8 84.796 160.8 84.796C160.69 82.7675 159.915 80.8316 158.596 79.2864C156.387 76.7134 152.916 77.0769 152.916 77.0769C152.953 75.7778 152.707 74.4863 152.195 73.2917C151.683 72.0972 150.917 71.0281 149.951 70.1587C146.646 67.0347 143.329 67.1767 143.329 67.1767C143.376 66.2827 143.197 65.3913 142.806 64.5857C142.416 63.7801 141.828 63.0866 141.096 62.5702C140.26 61.9176 139.267 61.4951 138.217 61.3447C137.167 61.1942 136.096 61.321 135.11 61.7125C135.11 61.7125 134.542 57.6684 131.043 56.8959C126.47 55.8962 124.227 58.5999 124.227 58.5999C123.793 58.0921 123.281 57.6569 122.71 57.3105C122.614 57.248 122.528 57.1969 122.42 57.1401C121.436 56.5628 120.351 56.1773 119.223 56.0041C120.497 54.3415 122.054 52.9167 123.823 51.7952C127.941 49.2733 134.178 50.8808 134.178 50.8808C135.752 49.7419 137.684 49.2094 139.62 49.3812C140.549 49.4542 141.451 49.7362 142.256 50.2064C143.062 50.6765 143.751 51.3225 144.271 52.0963C144.271 52.0963 146.18 50.6876 150.803 50.9603C155.427 51.2329 156.535 54.8795 156.535 54.8795C158.816 54.8152 161.063 55.4473 162.976 56.6914C166.384 58.81 166.384 63.337 166.384 63.337C166.384 63.337 170.513 62.201 174.131 65.9555C177.749 69.71 176.153 73.2032 176.153 73.2032C177.505 73.3247 178.806 73.781 179.937 74.5308C181.069 75.2807 181.995 76.3006 182.634 77.4984C183.273 78.6962 183.603 80.0341 183.595 81.3915C183.587 82.7489 183.241 84.0829 182.589 85.2732C183.118 85.4414 183.601 85.7285 184.002 86.1125C184.402 86.4965 184.71 86.9671 184.901 87.4883C185.605 89.3003 184.901 90.4079 184.901 90.4079C184.901 90.4079 188.416 91.9074 189.331 95.6335C190.245 99.3595 188.416 101.569 188.416 101.569C189.334 102.093 190.091 102.858 190.605 103.781C191.12 104.704 191.373 105.75 191.336 106.806C191.353 110.657 187.332 111.458 187.332 111.458Z" fill="black"/>
<path opacity="0.2" d="M174.984 111.276C175.668 109.712 175.749 107.949 175.211 106.329C174.535 104.312 173.399 103.273 172.337 102.784C172.882 101.469 172.966 100.007 172.575 98.638C172.422 97.8423 172.099 97.0891 171.627 96.4302C171.156 95.7713 170.547 95.2223 169.843 94.8211C170.19 93.3897 170.303 90.7485 167.94 87.6245C165.577 84.5005 163.158 83.836 161.755 83.711C161.448 81.8244 160.633 80.0571 159.398 78.599C158.705 77.8308 157.867 77.2078 156.932 76.7661C155.997 76.3244 154.984 76.0729 153.95 76.026C153.73 73.4858 152.572 71.1187 150.702 69.386C148.979 67.693 146.775 66.5757 144.391 66.1882C144.286 65.3002 143.997 64.4439 143.543 63.6741C143.088 62.9043 142.477 62.2381 141.75 61.718C140.929 61.0843 139.98 60.6358 138.969 60.4034C137.958 60.171 136.909 60.1603 135.894 60.3719C135.4 58.8894 134.19 56.4981 131.282 55.862C127.771 55.0895 125.431 56.2652 124.267 57.1343C123.038 56.1087 121.574 55.4024 120.007 55.0781C119.463 55.6891 118.957 56.3321 118.49 57.0036C121.819 57.3615 123.284 59.1507 123.364 59.2756C123.461 59.4023 123.586 59.5058 123.728 59.5785C123.871 59.6512 124.027 59.6913 124.187 59.696C124.347 59.6997 124.505 59.6686 124.651 59.6048C124.797 59.5411 124.928 59.4462 125.034 59.3268C125.113 59.2359 126.993 57.1343 130.822 57.9806C133.537 58.5486 134.048 61.7635 134.065 61.8941C134.09 62.0592 134.154 62.2161 134.25 62.3527C134.346 62.4892 134.472 62.6017 134.619 62.6814C134.766 62.7611 134.929 62.8059 135.096 62.8122C135.263 62.8185 135.429 62.7861 135.581 62.7177C136.391 62.407 137.268 62.3127 138.126 62.4442C138.984 62.5757 139.792 62.9284 140.472 63.4675C141.052 63.8713 141.522 64.4139 141.838 65.0459C142.155 65.678 142.308 66.3792 142.284 67.0856C142.267 67.2384 142.284 67.3929 142.332 67.5389C142.38 67.6848 142.458 67.8188 142.562 67.932C142.661 68.0528 142.787 68.148 142.931 68.2093C143.074 68.2706 143.23 68.2963 143.386 68.2841C143.494 68.2841 146.328 68.233 149.23 70.9708C150.071 71.7333 150.738 72.6675 151.186 73.7102C151.633 74.7529 151.852 75.8797 151.826 77.0143C151.811 77.1719 151.831 77.3308 151.884 77.4799C151.937 77.6291 152.022 77.7648 152.133 77.8776C152.246 77.9898 152.383 78.0759 152.533 78.1298C152.683 78.1838 152.843 78.2043 153.002 78.19C153.03 78.19 155.973 77.9288 157.767 80.019C158.913 81.3738 159.593 83.0599 159.71 84.83C159.712 84.9866 159.748 85.1408 159.816 85.2821C159.884 85.4233 159.981 85.5481 160.102 85.6479C160.222 85.7474 160.363 85.8202 160.514 85.8613C160.664 85.9024 160.822 85.911 160.977 85.8864C161.085 85.8864 163.606 85.4945 166.231 88.9536C168.855 92.4128 167.605 94.8608 167.554 94.9517C167.474 95.1003 167.43 95.2654 167.425 95.434C167.42 95.6026 167.455 95.77 167.526 95.923C167.599 96.0772 167.706 96.2123 167.84 96.3178C167.974 96.4232 168.131 96.4962 168.298 96.5308C168.366 96.5308 169.94 96.8886 170.485 99.1776C171.087 101.671 169.917 102.654 169.877 102.682C169.688 102.822 169.55 103.02 169.487 103.247C169.423 103.473 169.436 103.714 169.525 103.932C169.613 104.154 169.772 104.342 169.978 104.465C170.183 104.588 170.423 104.64 170.661 104.613C170.826 104.613 172.365 104.523 173.183 107.039C173.415 107.736 173.484 108.478 173.386 109.206C173.287 109.935 173.024 110.631 172.615 111.242C172.506 111.386 172.435 111.555 172.408 111.734C172.381 111.912 172.4 112.095 172.462 112.264C172.525 112.433 172.629 112.584 172.765 112.703C172.901 112.822 173.064 112.905 173.24 112.946C173.404 112.98 177.216 113.889 177.17 119.319C177.114 124.59 174.092 124.857 173.978 124.868C173.828 124.876 173.681 124.915 173.547 124.983C173.413 125.051 173.295 125.145 173.199 125.261C173.104 125.377 173.033 125.512 172.992 125.656C172.951 125.801 172.941 125.952 172.961 126.101C172.985 126.379 172.985 126.658 172.961 126.936C173.3 127.065 173.661 127.125 174.024 127.112C174.404 127.112 174.751 127.032 175.103 126.987C175.103 126.919 175.103 126.839 175.103 126.777C176.619 126.254 179.226 124.59 179.283 119.342C179.346 114.65 176.949 112.253 174.984 111.276Z" fill="black"/>
<path d="M174.001 125.907C174.001 125.907 178.153 125.742 178.221 119.295C178.289 112.849 173.444 111.86 173.444 111.86C173.957 111.11 174.291 110.251 174.42 109.351C174.549 108.451 174.47 107.533 174.188 106.669C173.018 103.142 170.513 103.516 170.513 103.516C170.513 103.516 172.325 102.187 171.53 98.8929C170.792 95.8257 168.491 95.4395 168.491 95.4395C168.491 95.4395 170.195 92.3836 167.083 88.2713C163.97 84.159 160.784 84.7952 160.784 84.7952C160.673 82.7678 159.9 80.8326 158.585 79.2856C156.382 76.7182 152.905 77.0874 152.905 77.0874C152.945 75.7899 152.704 74.4992 152.199 73.3034C151.694 72.1075 150.937 71.0346 149.98 70.1578C146.675 67.0338 143.363 67.1758 143.363 67.1758C143.409 66.2816 143.227 65.3903 142.836 64.585C142.445 63.7796 141.856 63.0862 141.125 62.5693C140.29 61.9167 139.298 61.4942 138.249 61.3437C137.2 61.1932 136.129 61.3201 135.144 61.7116C135.144 61.7116 134.576 57.6675 131.066 56.895C126.522 55.8896 124.25 58.599 124.25 58.599C124.25 58.599 121.16 54.5094 113.719 56.327C107.471 57.8436 107.028 62.5125 107.028 62.5125C107.028 62.5125 100.621 61.314 97.6845 65.716C94.7479 70.118 95.6624 75.8094 95.6624 75.8094C95.6624 75.8094 91.9931 78.3824 92.1749 82.2335C92.218 84.3847 92.8549 86.4821 94.0152 88.294C94.0152 88.294 90.3403 94.542 92.9133 99.654C93.6146 101.13 94.6117 102.447 95.8428 103.521C97.0739 104.596 98.5128 105.406 100.07 105.902C100.07 105.902 100.07 111.406 102.637 114.161C105.205 116.916 109.794 116.728 109.794 116.728C110.633 119.202 112.415 121.243 114.753 122.408C118.604 124.243 122.642 122.772 122.642 122.772C123.844 124.228 125.436 125.312 127.232 125.896C130.168 126.81 133.838 125.896 133.838 125.896C134.005 126.857 134.465 127.743 135.156 128.432C135.846 129.122 136.733 129.581 137.694 129.747C141.182 130.479 143.017 128.281 143.017 128.281C143.017 128.281 144.119 130.667 146.686 130.849C147.425 130.91 148.168 130.81 148.865 130.557C149.562 130.305 150.197 129.904 150.724 129.383C150.724 129.383 152.195 133.967 158.25 134.154C164.305 134.342 165.793 131.723 165.793 131.723C165.793 131.723 168.713 133.791 171.649 131.587C172.495 130.921 173.155 130.049 173.567 129.054C173.978 128.059 174.128 126.976 174.001 125.907Z" fill="#016A70"/>
<path opacity="0.2" d="M174.001 125.907C174.001 125.907 178.153 125.742 178.221 119.295C178.289 112.849 173.444 111.86 173.444 111.86C173.957 111.11 174.291 110.251 174.42 109.351C174.549 108.451 174.47 107.533 174.188 106.669C173.018 103.142 170.513 103.516 170.513 103.516C170.513 103.516 172.325 102.187 171.53 98.8929C170.792 95.8257 168.491 95.4395 168.491 95.4395C168.491 95.4395 170.195 92.3836 167.083 88.2713C163.97 84.159 160.784 84.7952 160.784 84.7952C160.673 82.7678 159.9 80.8326 158.585 79.2856C156.382 76.7182 152.905 77.0874 152.905 77.0874C152.945 75.7899 152.704 74.4992 152.199 73.3034C151.694 72.1075 150.937 71.0346 149.98 70.1578C146.675 67.0338 143.363 67.1758 143.363 67.1758C143.409 66.2816 143.227 65.3903 142.836 64.585C142.445 63.7796 141.856 63.0862 141.125 62.5693C140.29 61.9167 139.298 61.4942 138.249 61.3437C137.2 61.1932 136.129 61.3201 135.144 61.7116C135.144 61.7116 134.576 57.6675 131.066 56.895C126.522 55.8896 124.25 58.599 124.25 58.599C124.25 58.599 121.16 54.5094 113.719 56.327C107.471 57.8436 107.028 62.5125 107.028 62.5125C107.028 62.5125 100.621 61.314 97.6845 65.716C94.7479 70.118 95.6624 75.8094 95.6624 75.8094C95.6624 75.8094 91.9931 78.3824 92.1749 82.2335C92.218 84.3847 92.8549 86.4821 94.0152 88.294C94.0152 88.294 90.3403 94.542 92.9133 99.654C93.6146 101.13 94.6117 102.447 95.8428 103.521C97.0739 104.596 98.5128 105.406 100.07 105.902C100.07 105.902 100.07 111.406 102.637 114.161C105.205 116.916 109.794 116.728 109.794 116.728C110.633 119.202 112.415 121.243 114.753 122.408C118.604 124.243 122.642 122.772 122.642 122.772C123.844 124.228 125.436 125.312 127.232 125.896C130.168 126.81 133.838 125.896 133.838 125.896C134.005 126.857 134.465 127.743 135.156 128.432C135.846 129.122 136.733 129.581 137.694 129.747C141.182 130.479 143.017 128.281 143.017 128.281C143.017 128.281 144.119 130.667 146.686 130.849C147.425 130.91 148.168 130.81 148.865 130.557C149.562 130.305 150.197 129.904 150.724 129.383C150.724 129.383 152.195 133.967 158.25 134.154C164.305 134.342 165.793 131.723 165.793 131.723C165.793 131.723 168.713 133.791 171.649 131.587C172.495 130.921 173.155 130.049 173.567 129.054C173.978 128.059 174.128 126.976 174.001 125.907Z" fill="white"/>
<g opacity="0.05">
<path d="M125.618 73.5151C124.991 72.2976 124.229 71.1544 123.346 70.1071C122.693 69.363 121.642 68.2611 120.569 68.4031C120.251 68.4372 120.455 68.9711 120.682 68.9711C121.676 69.1472 122.386 69.9935 122.92 70.7717C123.502 71.6152 124.026 72.4977 124.488 73.4129C125.784 75.8038 126.528 78.4553 126.663 81.1717C126.754 83.4437 126.198 85.7669 124.022 86.8915C121.472 88.2093 118.177 87.3743 115.775 86.1474C114.764 85.6787 113.886 84.9661 113.218 84.0738C112.551 83.1816 112.116 82.1375 111.952 81.0354C111.912 80.7514 111.469 80.5129 111.481 80.9275C111.458 82.1539 111.763 83.3641 112.367 84.4321C113.027 85.425 113.922 86.2389 114.974 86.8006C117.439 88.2433 120.427 89.0726 123.261 88.3399C129.901 86.6473 127.998 77.9285 125.618 73.5151Z" fill="black"/>
<path d="M118.422 77.0358C118.318 76.1105 118.006 75.2209 117.507 74.4344C117.025 73.6376 116.413 72.9272 115.695 72.3328C114.991 71.6842 114.154 71.1976 113.242 70.9071C112.85 70.8049 112.878 71.3558 113.117 71.5092C113.855 71.9124 114.556 72.38 115.213 72.9065C115.827 73.4627 116.347 74.1149 116.752 74.8377C117.126 75.5278 117.354 76.2877 117.422 77.0699C117.454 77.4885 117.441 77.9094 117.382 78.3252C117.326 78.7228 117.223 79.0977 117.161 79.4953C117.133 79.677 117.365 80.0633 117.57 79.8588C117.902 79.4744 118.15 79.0244 118.297 78.538C118.443 78.0516 118.486 77.5398 118.422 77.0358Z" fill="black"/>
<path d="M121.66 63.6773C119.642 63.1341 117.546 62.942 115.463 63.1093C113.495 63.2594 111.601 63.9233 109.97 65.0348C107.079 66.949 104.909 69.7946 104.364 73.2651C104.063 75.1793 103.898 77.5762 105.591 78.9451C105.795 79.1042 106.159 79.0133 106.051 78.7009C105.584 77.6269 105.359 76.4634 105.392 75.2929C105.447 74.2959 105.599 73.3066 105.847 72.3393C106.412 70.3748 107.528 68.613 109.061 67.2614C110.645 65.6988 112.647 64.6293 114.827 64.1828C115.974 64.0209 117.137 63.9923 118.291 64.0976C119.439 64.2572 120.599 64.3124 121.756 64.2623C122.069 64.2453 121.859 63.7341 121.66 63.6773Z" fill="black"/>
<path d="M108.754 85.0738C107.016 82.2849 103.722 80.0584 100.376 80.1265C97.7522 80.1776 93.708 81.6431 94.0829 84.9204C94.2024 85.735 94.4917 86.5155 94.932 87.2111C95.3723 87.9068 95.9538 88.5023 96.6389 88.9589C96.9497 89.1596 97.3074 89.2762 97.6768 89.2971C98.0462 89.318 98.4147 89.2426 98.7462 89.0782C99.53 88.6295 99.6096 87.6412 99.8197 86.863C99.8538 86.738 99.7118 86.4597 99.5698 86.6131C98.9223 87.306 98.2918 89.01 97.0933 88.1637C96.1409 87.4203 95.4779 86.3676 95.2189 85.1874C94.7475 82.6598 97.667 81.4386 99.6777 81.1546C102.478 80.7513 105.051 82.2281 106.874 84.2559C108.056 85.5736 109.612 88.3057 107.692 89.6689C107.38 89.8935 107.027 90.0543 106.653 90.142C106.278 90.2298 105.89 90.2427 105.511 90.1801C104.625 90.0097 104.54 89.3281 104.375 88.5556C104.29 88.1751 103.603 88.016 103.472 88.4364C103.337 88.8991 103.371 89.3947 103.568 89.8348C103.764 90.2748 104.111 90.6307 104.545 90.839C105.446 91.2609 106.477 91.3099 107.414 90.9753C107.886 90.8425 108.323 90.6071 108.695 90.2861C109.066 89.9651 109.361 89.5663 109.561 89.118C110.061 87.8059 109.453 86.1984 108.754 85.0738Z" fill="black"/>
<path d="M134.565 116.831C133.099 113.991 130.361 112.066 127.544 110.759C127.073 110.543 126.601 110.339 126.124 110.152C126.679 109.652 127.162 109.078 127.561 108.448C128.388 107.203 129.018 105.839 129.43 104.403C129.649 103.714 129.715 102.985 129.623 102.268C129.531 101.551 129.283 100.862 128.896 100.251C128.493 99.6386 127.945 99.1351 127.3 98.7859C126.658 98.4451 125.568 98.0702 124.858 98.3939C124.574 98.5246 124.892 98.9619 125.079 98.9903C125.812 99.1664 126.454 99.1721 127.095 99.6322C127.64 100.033 128.047 100.592 128.26 101.234C128.585 102.314 128.537 103.473 128.124 104.523C127.732 105.689 127.191 106.8 126.516 107.828C126.194 108.327 125.813 108.785 125.38 109.192C125.173 109.367 124.946 109.518 124.704 109.64C122.285 108.794 119.785 108.164 117.32 107.368C113.77 106.232 110.504 104.489 108.016 101.688C106.46 100.061 105.384 98.0337 104.909 95.8323C104.75 94.9117 104.693 93.9764 104.739 93.0434C104.773 92.2823 104.836 91.2769 105.398 90.6975C105.665 90.4192 105.154 89.8569 104.83 90.0614C103.654 90.8225 103.694 92.7139 103.694 93.9579C103.675 95.9236 104.16 97.8614 105.103 99.5867C107.024 102.917 109.923 105.576 113.407 107.204C119.303 110.044 126.806 110.083 131.583 115.036C132.866 116.29 133.749 117.894 134.122 119.649C134.315 120.604 134.315 121.589 134.122 122.545C133.923 123.448 133.349 124.096 133.059 124.937C132.98 125.158 133.298 125.556 133.537 125.436C134.928 124.772 135.417 122.886 135.519 121.46C135.623 119.86 135.293 118.26 134.565 116.831Z" fill="black"/>
<path d="M127.147 117.165C125.534 116.001 123.563 115.711 121.671 115.279C119.78 114.848 117.883 114.461 116.025 113.899C115.099 113.622 114.191 113.29 113.305 112.905C112.032 112.337 110.925 111.525 109.675 110.963C109.624 110.933 109.565 110.921 109.507 110.928C109.449 110.934 109.394 110.96 109.352 111C109.309 111.04 109.28 111.093 109.27 111.151C109.26 111.208 109.268 111.268 109.294 111.32C109.669 112.121 110.629 112.712 111.362 113.161C112.095 113.607 112.867 113.987 113.668 114.297C115.361 114.936 117.101 115.447 118.871 115.825C120.995 116.313 123.301 116.557 125.346 117.313C125.975 117.547 126.567 117.872 127.101 118.278C127.749 118.755 128.697 119.5 128.765 120.357C128.765 120.636 129.265 120.891 129.333 120.499C129.504 119.068 128.22 117.943 127.147 117.165Z" fill="black"/>
<path d="M101.37 101.455C100.799 100.396 100.061 99.4374 99.1836 98.6148C98.0476 97.3709 97.2126 96.0645 97.2183 94.298C97.2521 93.3688 97.3719 92.4447 97.5761 91.5376C97.7522 90.6004 98.0533 89.5212 97.6841 88.6067C97.6216 88.4476 97.3944 88.317 97.2865 88.5044C97.1024 88.9436 96.9911 89.4098 96.957 89.8847C96.8832 90.3164 96.8037 90.7367 96.7185 91.1627C96.5284 91.9995 96.3918 92.8475 96.3095 93.7016C96.1904 95.247 96.6499 96.7816 97.5989 98.0071C98.3202 98.95 99.212 99.7395 99.922 100.694C100.26 101.117 100.505 101.607 100.643 102.131C100.848 103.017 100.547 103.835 100.348 104.698C100.348 104.829 100.456 105.221 100.643 105.05C101.13 104.606 101.463 104.018 101.594 103.371C101.725 102.725 101.646 102.054 101.37 101.455Z" fill="black"/>
<path d="M167.372 96.1729C166.512 96.4525 165.688 96.8339 164.919 97.3089C164.028 97.742 163.065 98.0059 162.079 98.087C160.318 98.2233 158.608 97.6497 156.853 97.661C156.085 97.6537 155.324 97.8106 154.622 98.1211C153.92 98.4316 153.292 98.8887 152.78 99.4616C152.386 99.8807 152.046 100.348 151.769 100.853C151.417 100.461 151.048 100.075 150.662 99.7172C149.213 98.3649 147.505 97.3214 145.641 96.65C143.552 95.981 141.399 95.5336 139.217 95.3152C137.251 95.0539 135.349 94.804 133.537 93.9009C132.048 93.1511 130.316 92.1003 129.867 90.3736C129.788 90.0839 129.299 89.993 129.356 90.3736C129.481 91.8617 130.594 92.9864 131.713 93.8611C132.948 94.822 134.373 95.5093 135.894 95.8775C139.87 96.8147 144.107 96.7068 147.634 99.0185C149.157 99.9771 150.465 101.24 151.476 102.727C152.488 104.215 153.181 105.895 153.513 107.663C154.041 110.657 154.274 114.394 151.911 116.689C150.235 118.248 148.355 119.572 146.322 120.625C145.851 120.881 145.334 121.193 144.834 121.506C145.108 120.614 145.289 119.697 145.374 118.768C145.595 116.873 145.432 114.953 144.897 113.122C144.341 111.395 143.425 109.806 142.21 108.459C140.779 106.857 138.995 105.8 137.28 104.539C136.253 103.817 135.346 102.937 134.593 101.932C133.741 100.796 133.031 99.49 132.276 98.2688C132.128 98.0302 131.958 98.3426 132.037 98.5187C132.9 100.439 133.741 102.37 135.189 103.937C136.638 105.505 138.49 106.522 140.046 107.913C141.376 109.104 142.439 110.562 143.167 112.191C143.895 113.821 144.272 115.586 144.272 117.371C144.303 118.52 144.169 119.667 143.874 120.779C143.67 121.534 143.357 122.255 143.13 122.999C142.732 123.467 142.466 124.031 142.358 124.635C142.312 124.919 142.801 125.357 143.034 125.067C143.618 124.287 144.288 123.577 145.033 122.948C145.748 122.421 146.509 121.957 147.305 121.562C149.141 120.598 150.857 119.42 152.417 118.052C153.686 117.006 154.586 115.581 154.984 113.985C155.331 112.371 155.399 110.709 155.183 109.072C155.06 107.42 154.677 105.799 154.047 104.267C153.696 103.513 153.274 102.794 152.786 102.12C152.873 101.802 152.991 101.494 153.138 101.2C153.483 100.641 153.919 100.144 154.428 99.7285C155.615 98.7402 157.182 98.8368 158.625 99.0299C160.284 99.2571 161.931 99.4843 163.578 99.0299C164.391 98.8116 165.173 98.493 165.907 98.0813C166.607 97.7517 167.238 97.2909 167.764 96.7238C167.906 96.5193 167.628 96.1161 167.372 96.1729Z" fill="black"/>
<path d="M162.169 89.9532C161.198 87.6528 158.67 86.6815 156.489 85.9034C154.023 85.1192 151.662 84.0377 149.457 82.6828C148.427 82.0205 147.505 81.2023 146.725 80.2575C145.588 78.7286 144.9 76.9131 144.737 75.0148C144.697 74.7081 143.993 74.39 143.914 74.816C143.033 79.5475 146.935 82.9498 150.73 84.8923C152.769 85.9375 154.933 86.5963 157.063 87.3915C158.795 88.0561 161.493 89.3909 161.113 91.697C160.931 92.833 159.897 93.1681 158.926 93.401C157.62 93.6773 156.284 93.7879 154.95 93.7304C152.191 93.5902 149.456 93.1484 146.793 92.4127C141.845 91.1546 137.594 87.9949 134.962 83.62C133.477 81.0869 132.616 78.2364 132.451 75.3045C132.368 73.8465 132.444 72.3837 132.679 70.9423C132.934 69.2383 133.247 67.3866 134.241 65.9268C134.303 65.8303 134.241 65.5406 134.082 65.6655C133.232 66.5868 132.665 67.7319 132.446 68.9656C132.113 70.2429 131.864 71.5408 131.702 72.8507C131.342 75.7689 131.693 78.7309 132.724 81.4843C134.706 86.3908 138.528 90.3274 143.374 92.4524C145.895 93.4434 148.527 94.1225 151.212 94.4745C154.052 94.9289 157.051 95.1277 159.846 94.3552C160.341 94.2602 160.809 94.0585 161.218 93.7642C161.627 93.47 161.967 93.0902 162.215 92.6512C162.399 92.2241 162.491 91.7626 162.483 91.2973C162.475 90.8321 162.368 90.3738 162.169 89.9532Z" fill="black"/>
<path d="M152.792 89.6001C151.78 89.2536 150.679 89.1457 149.656 88.8105C148.612 88.49 147.592 88.0933 146.606 87.6234C144.827 86.7271 143.262 85.4582 142.017 83.903C140.61 82.2204 139.63 80.2233 139.16 78.081C138.745 75.809 139.37 73.6279 139.495 71.3786C139.495 71.1912 139.177 70.7311 139.04 71.0662C137.988 73.5023 137.657 76.1893 138.086 78.8081C138.609 81.0191 139.661 83.0699 141.153 84.7834C142.514 86.4773 144.269 87.8113 146.265 88.6685C147.369 89.1096 148.509 89.4536 149.673 89.6966C150.627 89.9011 151.945 90.3044 152.905 90.0261C153.058 89.9749 152.968 89.6512 152.792 89.6001Z" fill="black"/>
<path d="M169.877 108.259C167.713 106.237 163.805 105.635 163.118 102.29C163.073 102.085 162.681 101.864 162.647 102.187C162.402 104.976 165.714 106.731 167.724 107.953C168.958 108.642 169.921 109.729 170.457 111.037C171.115 112.656 170.883 114.172 170.326 115.768C170.263 115.961 170.485 116.268 170.684 116.132C173.387 114.263 171.786 110.043 169.877 108.259Z" fill="black"/>
<path d="M174.83 120.414C173.666 121.453 172.513 122.249 170.911 122.317C169.548 122.354 168.199 122.029 167.003 121.374C166.358 121.083 165.796 120.634 165.369 120.07C164.943 119.505 164.665 118.842 164.561 118.142C164.45 117.294 164.5 116.433 164.708 115.603C164.953 114.796 165.126 113.969 165.225 113.132L165.339 113.217C166.013 113.848 166.552 114.61 166.924 115.455C166.992 115.575 167.276 115.751 167.378 115.558C167.867 114.643 167.157 113.66 166.509 113.024C165.806 112.362 165.024 111.79 164.18 111.32C163.23 110.784 162.318 110.184 161.448 109.525C161.012 109.177 160.602 108.798 160.221 108.389C159.653 107.793 159.239 107.111 158.716 106.498C158.619 106.384 158.495 106.498 158.5 106.623C158.563 107.708 159.5 108.776 160.233 109.503C161.082 110.313 162.022 111.024 163.033 111.621C163.482 111.894 163.925 112.189 164.362 112.468C164.315 112.499 164.275 112.539 164.243 112.586C164.212 112.632 164.191 112.685 164.18 112.74C164.015 113.581 163.697 114.387 163.482 115.211C163.272 115.992 163.186 116.801 163.226 117.608C163.228 118.917 163.739 120.174 164.652 121.113C165.626 121.985 166.78 122.632 168.033 123.008C169.286 123.383 170.606 123.476 171.899 123.282C172.581 123.173 173.237 122.936 173.831 122.584C174.19 122.397 174.504 122.135 174.752 121.815C175 121.496 175.176 121.126 175.268 120.732C175.319 120.539 175.035 120.209 174.83 120.414Z" fill="black"/>
<path d="M166.242 129.405C166.189 129.012 166.076 128.629 165.906 128.269C165.562 127.499 165.13 126.77 164.617 126.1C164.073 125.423 163.389 124.873 162.612 124.487C162.225 124.282 161.82 124.113 161.402 123.981L161.158 123.902C161.301 123.538 161.387 123.155 161.414 122.766C161.464 121.537 161.311 120.309 160.959 119.13C160.635 117.966 160.113 116.762 158.948 116.228C158.483 116.012 158.46 116.682 158.784 116.887C159.284 117.199 159.539 118.159 159.71 118.682C159.928 119.36 160.08 120.058 160.164 120.766C160.289 121.8 160.385 122.919 159.914 123.85C159.89 123.866 159.869 123.888 159.856 123.914C159.842 123.94 159.834 123.969 159.835 123.998C159.776 124.104 159.712 124.206 159.641 124.305C158.71 125.498 157.159 126.009 155.847 126.668C154.535 127.327 153.087 128.088 152.888 129.644C152.854 129.888 153.234 130.24 153.456 129.985C154.34 128.899 155.464 128.032 156.739 127.452C157.934 126.981 159.055 126.34 160.067 125.549C160.325 125.313 160.554 125.048 160.749 124.759H160.84L161.323 124.907C161.644 125.015 161.957 125.146 162.26 125.299C162.844 125.595 163.362 126.007 163.782 126.509C164.104 126.918 164.398 127.349 164.663 127.798C164.857 128.111 165.031 128.435 165.185 128.769C165.333 129.066 165.462 129.371 165.571 129.684C165.617 129.87 165.685 130.049 165.776 130.218C165.821 130.28 165.912 130.388 166.003 130.343C166.327 130.189 166.27 129.706 166.242 129.405Z" fill="black"/>
<path d="M156.768 117.984C156.768 117.802 156.495 117.592 156.438 117.881C156.284 118.891 155.833 119.832 155.143 120.585C154.453 121.268 153.691 121.876 152.871 122.397C152.066 122.917 151.323 123.527 150.656 124.215C150.312 124.573 150.031 124.988 149.827 125.442C149.629 125.915 149.593 126.44 149.724 126.935C149.724 127.038 149.912 127.322 150.048 127.168C150.428 126.664 150.77 126.133 151.071 125.578C151.327 125.176 151.633 124.808 151.979 124.482C152.65 123.895 153.36 123.354 154.104 122.863C154.913 122.343 155.618 121.677 156.183 120.898C156.718 120.027 156.926 118.994 156.768 117.984Z" fill="black"/>
<path d="M127.601 94.7129C126.819 94.3388 125.98 94.097 125.119 93.9972C122.625 93.6802 120.095 93.8149 117.649 94.3948C115.666 94.7824 113.735 95.4 111.896 96.2351C110.934 96.6734 110.026 97.2183 109.186 97.8596C108.618 98.297 107.482 99.1092 107.806 99.9328C107.857 100.063 108.011 100.245 108.17 100.2C108.993 99.9612 109.629 99.0638 110.317 98.5753C111.041 98.054 111.818 97.6086 112.634 97.2462C114.249 96.5201 115.936 95.9661 117.667 95.5933C119.785 95.0684 121.966 94.8352 124.147 94.9003C124.899 94.9303 125.647 95.0177 126.385 95.1616C127.11 95.3251 127.788 95.6471 128.373 96.1045C128.39 96.1182 128.41 96.1281 128.431 96.1336C128.452 96.139 128.474 96.1399 128.496 96.1361C128.517 96.1323 128.538 96.124 128.556 96.1117C128.574 96.0994 128.589 96.0834 128.601 96.0647C128.862 95.4229 128.061 94.9571 127.601 94.7129Z" fill="black"/>
<path d="M115.684 89.5431C115.353 89.7164 115.058 89.9517 114.815 90.2361C114.497 90.5428 114.173 90.8041 113.838 91.1108C113.154 91.6748 112.402 92.1518 111.6 92.5308C110.84 92.885 110.035 93.1371 109.209 93.2806C108.821 93.3421 108.431 93.3838 108.039 93.4055C107.658 93.3783 107.275 93.4089 106.903 93.4964C106.619 93.5986 106.778 93.9849 106.965 94.0985C107.704 94.5472 108.885 94.3711 109.692 94.2348C110.601 94.0725 111.481 93.7778 112.304 93.3601C113.109 92.9557 113.86 92.454 114.542 91.8662C114.889 91.5665 115.212 91.2398 115.508 90.8893C115.801 90.6271 115.983 90.2638 116.019 89.8726C116.048 89.7022 115.871 89.4636 115.684 89.5431Z" fill="black"/>
</g>
<g opacity="0.05">
<path d="M157.501 56.5087C157.404 56.4008 157.291 56.5087 157.273 56.611C157.166 57.179 157.273 57.747 157.2 58.315C157.106 59.0775 156.879 59.8177 156.529 60.5018C155.859 61.8252 154.723 63.1714 153.258 63.6258C149.651 64.7618 146.561 62.3932 144.062 60.0928C143.917 59.6337 143.748 59.1824 143.556 58.741C143.037 57.6021 142.346 56.5503 141.506 55.6227C140.742 54.728 139.9 53.903 138.99 53.1575C138.521 52.7598 138.006 52.4203 137.456 52.1465C137.015 51.8769 136.5 51.7555 135.985 51.8C135.695 51.8625 135.837 52.2999 136.064 52.368C136.984 52.6716 137.813 53.1986 138.478 53.9016C139.233 54.6138 139.943 55.3726 140.603 56.1736C141.366 57.031 141.988 58.0052 142.443 59.0591C142.697 59.6917 142.887 60.3482 143.011 61.0187C143.068 61.3197 143.119 61.6207 143.181 61.9161C143.286 62.2886 143.43 62.6486 143.613 62.9896C143.676 63.1316 143.891 63.2907 143.994 63.0975C144.209 62.6741 144.314 62.2034 144.3 61.7287C145.165 62.7155 146.219 63.5174 147.402 64.0859C149.274 65.0218 151.42 65.2575 153.451 64.7504C155.046 64.2689 156.391 63.1877 157.205 61.7343C158.108 60.2064 158.779 57.9912 157.501 56.5087Z" fill="black"/>
<path d="M165.373 68.6191C164.101 67.6592 162.471 66.7731 160.829 66.8185C160.505 66.8185 160.733 67.4206 160.988 67.4376C162.124 67.5342 163.391 68.284 164.311 68.9542C165.078 69.5222 166.271 70.4764 166.242 71.5443C166.214 73.0381 163.652 73.2824 162.607 73.2483C160.586 73.114 158.65 72.3869 157.041 71.158C156.195 70.5861 155.431 69.9021 154.769 69.1246C154.008 68.2044 153.684 67.0968 153.144 66.046C153.059 65.887 152.741 65.7393 152.712 66.046C152.683 67.3425 153.082 68.6124 153.848 69.6585C154.501 70.603 155.309 71.429 156.24 72.1009C158.083 73.5256 160.32 74.3468 162.647 74.4524C164.232 74.4865 167.083 73.9299 167.452 72.0214C167.702 70.6071 166.367 69.3745 165.373 68.6191Z" fill="black"/>
<path d="M181.419 84.42C180.743 84.2269 179.914 84.4881 179.232 84.5904C178.42 84.7153 177.608 84.8516 176.79 84.9368C175.178 85.1315 173.545 85.0606 171.956 84.7267C170.647 84.4366 169.396 83.9257 168.259 83.2158C166.971 82.331 165.822 81.259 164.851 80.035C164.674 79.8362 164.425 79.9214 164.436 80.1884C164.55 80.9171 164.858 81.6017 165.328 82.1707C165.755 82.7656 166.27 83.2922 166.856 83.7327C168.102 84.6452 169.511 85.3104 171.008 85.6923C172.703 86.1418 174.464 86.2879 176.211 86.124C177.183 86.0314 178.15 85.8873 179.107 85.6923C179.602 85.6014 180.084 85.4821 180.573 85.3742C180.902 85.3004 181.448 85.2777 181.646 84.9596C181.673 84.9102 181.689 84.8554 181.691 84.7992C181.694 84.743 181.684 84.687 181.662 84.6352C181.641 84.5833 181.607 84.5371 181.565 84.4999C181.523 84.4626 181.473 84.4353 181.419 84.42Z" fill="black"/>
<path d="M176.381 76.1672C176.034 76.1672 176.313 76.7352 176.512 76.7693C177.415 77.0192 177.687 78.9447 177.29 79.7058C176.693 80.8418 174.847 80.8873 173.751 80.8986C171.978 80.9115 170.233 80.4591 168.69 79.5865C167.23 78.7516 166.06 77.5417 164.657 76.6329C164.419 76.4853 164.362 76.8431 164.481 76.9908C165.799 78.5528 167.168 80.1318 169.025 81.0236C170.975 81.9295 173.148 82.2397 175.273 81.9153C176.676 81.7052 178.38 81.0861 178.522 79.4445C178.676 78.1438 177.932 76.1104 176.381 76.1672Z" fill="black"/>
<path d="M183.225 89.828C183.156 89.7901 183.084 89.7578 183.009 89.7315C182.899 89.6971 182.787 89.6686 182.674 89.6463C182.461 89.6012 182.244 89.5727 182.026 89.5611C181.551 89.5402 181.075 89.5707 180.606 89.6519C179.553 89.8268 178.526 90.136 177.551 90.5721C176.717 90.9143 175.978 91.4497 175.392 92.1341C174.774 93.0359 174.442 94.1025 174.438 95.1956C174.374 95.9348 174.526 96.6766 174.875 97.3313C175.165 97.8334 175.577 98.2533 176.074 98.5515C176.571 98.8497 177.136 99.0162 177.715 99.0353C177.813 99.0372 177.91 99.0117 177.994 98.9615C178.046 98.9075 178.08 98.8381 178.09 98.7635C178.101 98.6889 178.087 98.6129 178.05 98.5468C177.971 98.421 177.867 98.3127 177.744 98.2287C177.215 97.8573 176.745 97.4072 176.352 96.8939C176.097 96.4954 175.924 96.0501 175.844 95.584C175.763 95.1178 175.776 94.6403 175.881 94.1792C175.987 93.7181 176.184 93.2827 176.459 92.8984C176.735 92.5141 177.085 92.1886 177.488 91.941C178.38 91.446 179.336 91.0753 180.328 90.8391C181.388 90.4961 182.529 90.4961 183.588 90.8391C183.619 90.8416 183.65 90.8376 183.678 90.8271C183.707 90.8166 183.733 90.7999 183.755 90.7783C183.777 90.7566 183.793 90.7305 183.804 90.7018C183.814 90.673 183.818 90.6424 183.816 90.6119C183.867 90.4131 183.378 89.9019 183.225 89.828Z" fill="black"/>
<path d="M185.878 102.835C184.742 100.393 181.993 98.8933 179.42 98.4616C178.017 98.223 175.569 98.1208 174.654 99.4499C174.595 99.5202 174.561 99.6081 174.558 99.6998C174.566 99.7671 174.595 99.8302 174.641 99.8801C174.686 99.9301 174.747 99.9644 174.813 99.9781C174.946 100.009 175.084 100.009 175.216 99.9781C176.352 99.768 177.358 99.4101 178.545 99.501C179.658 99.5936 180.739 99.9197 181.718 100.458C182.696 100.996 183.551 101.735 184.225 102.625C185.179 104.039 185.429 106.379 184.35 107.811C183.424 109.032 181.737 109.038 180.374 108.669C179.593 108.509 178.874 108.131 178.301 107.578C177.818 107.01 178.153 106.391 178.568 105.874C178.784 105.613 178.392 105.033 178.079 105.238C177.148 105.84 176.375 106.828 177.011 107.941C177.525 108.68 178.271 109.226 179.13 109.492C180.982 110.208 183.248 110.378 184.89 109.049C186.645 107.64 186.77 104.755 185.878 102.835Z" fill="black"/>
<path d="M183.305 114.734C182.895 113.856 182.295 113.08 181.55 112.462C181.202 112.146 180.792 111.906 180.346 111.758C179.9 111.611 179.427 111.558 178.96 111.604C178.647 111.661 178.84 112.172 179.09 112.172C180.698 112.291 181.771 113.842 182.317 115.205C182.592 115.885 182.757 116.604 182.805 117.335C182.825 117.686 182.813 118.037 182.771 118.386C182.771 118.511 182.726 118.636 182.709 118.761C182.649 119 182.628 119.248 182.646 119.494C182.691 119.692 182.851 119.908 183.078 119.823C183.458 119.67 183.731 119.079 183.85 118.721C183.983 118.274 184.035 117.806 184.004 117.341C183.951 116.433 183.713 115.546 183.305 114.734Z" fill="black"/>
</g>
<g opacity="0.2">
<path d="M129.072 71.169C128.675 71.1008 128.283 71.3507 128.061 72.0721C127.55 73.6966 128.061 76.3889 128.226 78.0475C128.436 80.4307 128.835 82.7934 129.419 85.1134C129.896 86.9935 130.521 88.8962 131.77 90.3787C133.008 91.7274 134.556 92.7531 136.28 93.3664C140.887 95.2124 146.073 95.4907 150.48 97.8025C151.048 98.0865 151.713 98.3705 152.184 98.0013C152.346 97.8367 152.446 97.6215 152.468 97.392C152.489 97.1624 152.431 96.9323 152.304 96.7403C152.034 96.3635 151.664 96.0702 151.236 95.894C149.481 95.0363 147.527 94.7126 145.641 94.19C142.444 93.3958 139.458 91.9172 136.888 89.8562C134.327 87.7801 132.47 84.9629 131.572 81.7906C131.043 79.7742 131.004 77.6783 130.703 75.6221C130.549 74.5372 130.623 73.316 130.186 72.2936C130.101 72.0321 129.956 71.794 129.763 71.5987C129.57 71.4034 129.333 71.2562 129.072 71.169Z" fill="white"/>
<path d="M119.427 79.2693C119.313 80.1765 118.897 81.0192 118.248 81.6627C117.598 82.3062 116.751 82.7134 115.843 82.8193C115.496 82.7888 115.15 82.8879 114.872 83.0976C114.434 83.5747 115.014 84.2961 115.548 84.6596C117.32 85.8694 119.45 86.9998 121.517 86.4374C123.681 85.8694 125.005 83.5122 125.101 81.2686C125.187 79.3886 123.965 69.511 120.126 72.5158C118.325 73.9301 119.649 77.3778 119.427 79.2693Z" fill="white"/>
<path d="M115.372 79.1334C116.821 74.0895 107.42 68.4493 107.085 74.9813C106.983 75.8399 107.124 76.7101 107.494 77.4918C108.925 80.0308 111.351 76.0832 113.35 78.5483C113.567 78.8859 113.818 79.2 114.1 79.4855C114.246 79.6244 114.437 79.7047 114.639 79.711C114.84 79.7173 115.036 79.6491 115.19 79.5196C115.279 79.4059 115.341 79.274 115.372 79.1334Z" fill="white"/>
<path d="M137.723 101.392C138.039 101.799 138.423 102.147 138.859 102.421C142.795 105.261 146.135 109.407 146.538 114.241C146.623 115.28 146.72 116.569 147.674 116.967C147.964 117.054 148.269 117.076 148.568 117.033C148.867 116.99 149.153 116.882 149.407 116.717C151.247 115.706 152.286 113.576 152.411 111.48C152.449 109.37 151.955 107.283 150.974 105.414C149.765 102.807 147.68 100.535 144.84 99.768C143.647 99.4613 135.803 98.5127 137.723 101.392Z" fill="white"/>
<path d="M113.197 100.437C114.378 100.608 115.548 101.403 116.786 101.534C118.314 101.698 120.103 101.534 121.387 100.63C121.798 100.259 122.23 99.9116 122.682 99.591C123.178 99.3604 123.736 99.2956 124.272 99.406C124.808 99.5165 125.294 99.7964 125.658 100.204C126.375 101.048 126.732 102.139 126.652 103.243C126.66 103.921 126.51 104.592 126.214 105.202C125.919 105.812 125.485 106.345 124.948 106.759C123.472 107.77 121.478 107.395 119.768 106.884C117.053 106.072 114.361 104.981 112.22 103.13C111.847 102.846 111.547 102.478 111.345 102.056C111.247 101.843 111.214 101.605 111.249 101.373C111.284 101.141 111.387 100.924 111.544 100.75C111.832 100.524 112.189 100.404 112.555 100.409C112.769 100.397 112.984 100.407 113.197 100.437Z" fill="white"/>
<path d="M137.756 85.7661C140.108 88.3789 143.34 90.0431 146.623 91.2984C149.747 92.4969 154.654 94.2407 157.983 92.8377C159.005 92.406 159.863 91.3666 159.715 90.2703C159.568 89.1741 158.625 88.4868 157.693 87.9983C154.393 86.2205 150.587 85.5105 147.242 83.8292C146.6 83.5055 145.725 83.2158 145.237 83.744C144.748 84.2723 145.061 85.0618 145.561 85.5105C146.363 86.2282 147.259 86.8339 148.225 87.3111C149.48 87.8791 151.973 88.0835 152.956 89.0151C153.939 89.9466 153.092 90.6168 151.911 90.4407C148.599 89.9409 145.288 89.0207 142.493 87.1747C140.165 85.6924 138.373 83.5025 137.381 80.9267C137.027 79.9858 136.751 79.0168 136.558 78.0299C136.456 77.4619 136.671 75.8659 136.155 75.4626C134.524 74.1789 134.695 79.2114 134.803 79.8475C135.212 82.0586 136.236 84.1097 137.756 85.7661Z" fill="white"/>
<path d="M132.019 60.5588C131.538 59.9219 130.903 59.4167 130.174 59.0901C129.446 58.7634 128.646 58.6259 127.85 58.6901C126.253 58.8361 124.737 59.4596 123.499 60.4793C122.384 59.5583 121.086 58.8834 119.691 58.4987C118.296 58.114 116.836 58.0283 115.405 58.247C113.27 58.5538 111.055 59.5137 109.725 61.3199C109.481 61.6607 109.294 62.189 109.623 62.4559C109.77 62.552 109.942 62.6015 110.117 62.5979C112.338 62.7002 114.565 61.6891 116.877 61.7346C119.291 61.7191 121.665 62.3549 123.749 63.5749C125.078 64.3985 126.243 65.5231 127.725 66.0684C128.456 66.3435 129.254 66.3779 130.006 66.1666C130.757 65.9553 131.421 65.5094 131.9 64.894C132.38 64.2786 132.65 63.5259 132.672 62.746C132.693 61.966 132.465 61.1997 132.019 60.5588Z" fill="white"/>
<path d="M99.7405 66.603C98.2667 68.4288 97.4415 70.6925 97.3946 73.0384C97.3549 75.5831 98.434 77.6847 101.268 77.7017C101.541 77.717 101.814 77.6664 102.064 77.554C102.836 77.1451 102.779 76.0488 102.7 75.1798C102.473 72.5804 103.069 69.9755 104.404 67.7333C104.779 67.1028 105.233 66.3928 105.023 65.6885C104.913 65.4072 104.728 65.1617 104.487 64.9792C104.247 64.7968 103.96 64.6845 103.66 64.6548C102.058 64.4162 100.706 65.4102 99.7405 66.603Z" fill="white"/>
<path d="M141.909 120.887C142.138 118.91 142.012 116.908 141.539 114.974C140.883 112.114 139.217 109.587 136.848 107.857C135.638 106.994 133.235 105.585 131.781 106.608C130.327 107.63 130.736 109.607 131.611 110.799C132.485 111.992 133.809 112.816 134.78 113.952C135.967 115.436 136.679 117.243 136.825 119.138C137.001 120.808 136.433 122.233 136.49 123.812C136.486 124.086 136.547 124.356 136.668 124.602C136.788 124.848 136.964 125.062 137.183 125.227C137.483 125.409 137.831 125.498 138.182 125.482C138.776 125.43 139.348 125.23 139.844 124.899C140.34 124.569 140.746 124.119 141.022 123.591C141.488 122.754 141.789 121.837 141.909 120.887Z" fill="white"/>
<path d="M114.514 111.94L122.517 114.598C124.047 115.04 125.521 115.66 126.908 116.444C128.302 117.242 129.371 118.505 129.929 120.011C130.168 120.744 130.344 121.658 131.065 121.914C131.408 121.988 131.765 121.928 132.064 121.745C132.362 121.562 132.578 121.27 132.667 120.931C132.814 120.243 132.72 119.525 132.4 118.898C131.009 115.558 127.794 113.309 124.448 111.912C121.103 110.514 117.53 109.77 114.19 108.373C110.849 106.971 107.808 104.941 105.233 102.392C104.034 101.205 102.722 100.989 102.847 103.039C103.199 108.487 110.282 110.537 114.514 111.94Z" fill="white"/>
<path d="M161.414 103.41C160.556 102.308 159.426 103.143 159.38 104.682C159.335 106.221 160.488 107.647 161.777 108.561C163.067 109.476 164.566 110.101 165.753 111.134C166.362 111.634 166.908 112.206 167.378 112.838C167.946 113.679 168.269 116.371 169.82 114.86C170.928 113.787 170.348 111.293 169.604 110.237C168.684 108.936 167.253 108.118 165.867 107.334C164.396 106.499 162.459 105.42 161.669 103.875C161.595 103.714 161.51 103.558 161.414 103.41Z" fill="white"/>
<path d="M166.424 123.135C165.589 122.835 164.824 122.367 164.176 121.76C163.529 121.154 163.012 120.421 162.658 119.607C162.556 119.352 162.363 119.039 162.09 119.102C161.817 119.164 161.846 119.505 161.886 119.749C162.033 120.687 162.05 121.715 162.527 122.544C163.069 123.411 163.755 124.179 164.555 124.816C165.208 125.322 165.742 125.966 166.117 126.702C166.458 127.474 166.407 128.355 166.907 129.076C167.172 129.448 167.539 129.736 167.963 129.905C168.722 130.187 169.561 130.163 170.302 129.839C171.044 129.515 171.631 128.915 171.939 128.167C173.314 124.521 169.054 124.123 166.424 123.135Z" fill="white"/>
<path d="M100.57 82.1031C99.9902 82.0802 99.4113 82.1709 98.8661 82.37C98.594 82.4698 98.3492 82.6323 98.1518 82.8446C97.9544 83.0568 97.8099 83.3126 97.7301 83.5912C97.6859 84.0061 97.7714 84.4244 97.9748 84.7886C98.1783 85.1528 98.4897 85.4449 98.8661 85.6247C99.6309 85.9641 100.434 86.2101 101.257 86.3574C102.563 86.7072 103.773 87.3436 104.802 88.2204C105.25 88.601 105.813 89.0611 106.358 88.8282C106.557 88.7038 106.718 88.5275 106.824 88.3183C106.93 88.1092 106.977 87.875 106.96 87.6411C107.013 86.7781 106.816 85.9182 106.392 85.1646C105.182 83.0062 102.91 82.0917 100.57 82.1031Z" fill="white"/>
</g>
<path d="M142.682 55.7365C143.943 57.4405 145.005 59.3035 146.595 60.6894C148.185 62.0754 150.526 62.8762 152.434 61.9731C153.045 61.6621 153.573 61.2114 153.977 60.6578C154.381 60.1041 154.648 59.463 154.757 58.7866C155.058 56.9804 154.189 54.4414 152.656 53.4077C151.641 52.7602 150.455 52.4354 149.252 52.476C148.05 52.5165 146.887 52.9206 145.919 53.6349C145.792 53.7567 145.636 53.8429 145.465 53.8848C145.259 53.8811 145.06 53.8114 144.897 53.686C143.886 53.0612 141.614 50.9653 140.353 51.414C138.592 51.9934 142.21 55.0946 142.682 55.7365Z" fill="#016A70"/>
<path d="M158.381 63.9508C158.34 64.0234 158.314 64.1038 158.305 64.1868C158.296 64.2699 158.305 64.3539 158.33 64.4336C158.377 64.5011 158.439 64.5574 158.511 64.5986C158.582 64.6398 158.662 64.6649 158.745 64.6721C159.835 64.9334 160.948 65.0754 162.033 65.3708C164.095 65.9394 165.969 67.0449 167.463 68.5743C168.495 69.5136 169.158 70.7907 169.332 72.1754C169.412 73.5556 168.531 75.0495 167.174 75.288C166.958 75.981 167.617 76.6172 168.224 76.992C169.199 77.621 170.232 78.1554 171.309 78.5881C172.501 79.0652 174.109 79.3038 174.853 78.2587C175.421 77.4805 175.126 76.3445 174.478 75.6459C173.775 74.9997 172.934 74.5219 172.019 74.2486C173.672 72.4651 173.615 69.4831 172.178 67.5235C170.741 65.5639 168.202 64.6153 165.754 64.763C165.275 64.8528 164.781 64.7912 164.339 64.5869C163.448 64.0189 163.874 62.65 163.822 61.781C163.726 60.2247 162.556 57.8675 160.698 59.0887C159.233 60.0713 159 62.4796 158.381 63.9508Z" fill="#016A70"/>
<path d="M157.336 67.7903C157.115 67.7519 156.888 67.7726 156.677 67.8504C156.467 67.9282 156.28 68.0603 156.138 68.2333C155.865 68.7161 156.268 69.3011 156.706 69.6703C157.275 70.1845 157.911 70.6201 158.597 70.9654C159.973 71.6583 161.507 71.9757 163.044 71.8855C163.24 71.8838 163.434 71.8413 163.612 71.7606C164.998 71.0051 163.362 68.7104 162.425 68.3526C160.983 67.7675 158.875 67.8187 157.336 67.7903Z" fill="#016A70"/>
<path d="M169.974 86.7951C169.83 86.7567 169.68 86.7495 169.533 86.774C169.386 86.7985 169.246 86.8541 169.122 86.9371C169.016 87.0576 168.953 87.2095 168.941 87.3696C168.93 87.5297 168.972 87.689 169.06 87.8232C169.417 88.448 169.997 88.9592 170.377 89.6067C170.853 90.3919 171.108 91.2905 171.116 92.2082C171.116 92.9409 170.968 93.7247 171.332 94.3609C171.53 94.7017 171.86 94.9573 172.036 95.3038C172.144 95.5139 172.195 95.7525 172.303 95.9626C172.349 96.0715 172.424 96.1662 172.518 96.237C172.613 96.3078 172.725 96.3523 172.842 96.3659C173.217 96.3659 173.411 95.9342 173.513 95.5707C173.859 94.253 173.831 92.7307 174.422 91.5038C175.086 90.1122 176.33 89.7146 177.636 89.2318C179.147 88.6354 180.777 88.5389 182.345 88.1583C182.56 88.1128 182.766 88.0301 182.953 87.9141C183.046 87.8524 183.122 87.7677 183.172 87.6682C183.223 87.5687 183.247 87.4577 183.243 87.3461C183.152 86.5906 181.635 86.7781 181.164 86.8349C177.452 87.367 173.682 87.3536 169.974 86.7951Z" fill="#016A70"/>
<path d="M177.665 96.3316C177.665 94.1845 180.624 92.6793 182.476 92.668C183.9 92.7053 185.282 93.1574 186.452 93.9687C187.94 94.9457 188.491 97.3767 188.105 99.0353C188.007 99.5502 187.756 100.023 187.384 100.393C187.195 100.573 186.958 100.694 186.701 100.74C186.445 100.787 186.18 100.757 185.941 100.654C185.651 100.473 185.405 100.231 185.219 99.9441C184.529 99.0938 183.666 98.4007 182.686 97.9109C181.706 97.4212 180.634 97.1461 179.539 97.1041C178.807 97.0643 177.887 97.0132 177.665 96.3316Z" fill="#016A70"/>
<path d="M181.192 101.387C180.098 100.936 178.908 100.768 177.732 100.898C177.278 100.919 176.842 101.08 176.483 101.358C176.307 101.501 176.188 101.702 176.148 101.926C176.109 102.149 176.151 102.379 176.267 102.574C176.407 102.741 176.584 102.873 176.784 102.96C177.741 103.478 178.657 104.067 179.527 104.721C179.858 104.93 180.127 105.224 180.305 105.573C180.381 105.95 180.488 106.32 180.624 106.68C180.789 106.871 180.993 107.024 181.222 107.129C181.451 107.233 181.701 107.288 181.953 107.288C182.288 107.364 182.637 107.349 182.964 107.243C183.161 107.124 183.329 106.964 183.456 106.772C183.582 106.58 183.665 106.363 183.696 106.135C183.835 105.531 183.836 104.904 183.698 104.3C183.56 103.697 183.287 103.132 182.899 102.649C182.512 102.166 182.02 101.777 181.46 101.511C180.901 101.245 180.289 101.109 179.669 101.114" fill="#016A70"/>
<path d="M155.973 74.1694C155.879 74.1368 155.778 74.127 155.679 74.1409C155.581 74.1547 155.487 74.1917 155.405 74.2489C155.344 74.3237 155.312 74.4169 155.312 74.5131C155.312 74.6092 155.344 74.7024 155.405 74.7772C155.537 74.9202 155.7 75.031 155.882 75.1009C157.213 75.642 158.481 76.3257 159.665 77.1401C160.254 77.5542 160.755 78.0804 161.14 78.6886C161.525 79.2968 161.786 79.975 161.908 80.6844C161.948 81.0422 161.971 81.4625 162.272 81.6557C162.435 81.7354 162.621 81.751 162.795 81.6995C162.969 81.6479 163.116 81.5329 163.209 81.3773C163.39 81.0629 163.486 80.7065 163.488 80.3436C163.635 78.6907 164.056 76.1461 162.107 75.3849C161.377 75.1967 160.632 75.0713 159.881 75.0101C158.586 74.7431 157.291 74.408 155.973 74.1694Z" fill="#016A70"/>
<path d="M124.721 53.2827C124.261 53.5781 123.75 53.9757 123.767 54.521C123.805 54.7582 123.917 54.9774 124.088 55.1468C124.258 55.3162 124.478 55.4272 124.716 55.4638C125.196 55.5156 125.682 55.4731 126.147 55.3389C129.333 54.6686 133.031 54.964 135.28 57.3212C135.662 57.8008 136.098 58.2336 136.581 58.6106C137.99 59.5194 139.847 59.3603 141.398 59.7466C141.421 59.4235 141.342 59.1013 141.171 58.8264C138.279 53.2827 130.299 49.7214 124.721 53.2827Z" fill="#016A70"/>
<path d="M182.896 111.203C182.549 111.266 182.146 111.419 182.066 111.771C181.987 112.123 182.248 112.385 182.475 112.618L183.532 113.68C183.787 113.916 184.014 114.181 184.208 114.469C184.668 115.219 184.662 116.173 184.844 117.014C184.901 117.275 185.037 117.582 185.304 117.61C185.379 117.607 185.453 117.589 185.522 117.557C185.59 117.524 185.651 117.479 185.702 117.423C186.542 116.673 186.627 115.412 186.622 114.282C186.644 111.828 185.304 110.76 182.896 111.203Z" fill="#016A70"/>
<path d="M130.379 90.8459C130.38 91.0786 130.312 91.3065 130.183 91.5006C130.055 91.6947 129.872 91.8463 129.657 91.9362C129.442 92.026 129.206 92.0501 128.977 92.0054C128.749 91.9607 128.539 91.8491 128.374 91.6849C128.209 91.5207 128.096 91.3112 128.05 91.083C128.005 90.8548 128.027 90.6181 128.116 90.4029C128.205 90.1877 128.356 90.0038 128.549 89.8743C128.743 89.7449 128.97 89.6758 129.203 89.6758C129.514 89.6758 129.812 89.7989 130.032 90.0181C130.253 90.2374 130.377 90.535 130.379 90.8459Z" fill="#FAFAFA"/>
<path d="M122.251 68.3986C122.252 68.6316 122.184 68.8597 122.055 69.054C121.926 69.2482 121.743 69.3998 121.528 69.4894C121.313 69.5791 121.076 69.6029 120.847 69.5577C120.619 69.5125 120.409 69.4004 120.244 69.2357C120.079 69.0709 119.967 68.8609 119.922 68.6323C119.877 68.4037 119.9 68.1668 119.99 67.9517C120.08 67.7366 120.231 67.5531 120.425 67.4243C120.62 67.2956 120.848 67.2274 121.081 67.2285C121.391 67.23 121.687 67.3538 121.907 67.5729C122.126 67.792 122.249 68.0887 122.251 68.3986Z" fill="#FAFAFA"/>
<path d="M112.623 80.9277C112.623 81.1605 112.554 81.3881 112.424 81.5815C112.295 81.775 112.111 81.9257 111.896 82.0145C111.681 82.1033 111.444 82.1263 111.216 82.0805C110.988 82.0346 110.778 81.9221 110.614 81.7571C110.45 81.5921 110.338 81.382 110.293 81.1536C110.249 80.9252 110.273 80.6886 110.363 80.4738C110.452 80.2591 110.604 80.0759 110.798 79.9473C110.992 79.8188 111.22 79.7508 111.453 79.752C111.607 79.752 111.76 79.7824 111.902 79.8416C112.044 79.9007 112.174 79.9874 112.282 80.0967C112.391 80.2059 112.477 80.3356 112.536 80.4782C112.594 80.6208 112.624 80.7736 112.623 80.9277Z" fill="#FAFAFA"/>
<path d="M101.24 87.2734C101.24 87.5062 101.171 87.7338 101.042 87.9272C100.912 88.1207 100.728 88.2714 100.513 88.3602C100.298 88.449 100.061 88.472 99.833 88.4262C99.6047 88.3803 99.3952 88.2678 99.231 88.1028C99.0668 87.9378 98.9553 87.7278 98.9106 87.4993C98.8659 87.2709 98.8899 87.0343 98.9798 86.8195C99.0697 86.6048 99.2213 86.4216 99.4154 86.293C99.6094 86.1645 99.8373 86.0965 100.07 86.0977C100.224 86.0977 100.377 86.1281 100.519 86.1873C100.662 86.2464 100.791 86.3331 100.899 86.4424C101.008 86.5516 101.094 86.6813 101.153 86.8239C101.211 86.9665 101.241 87.1193 101.24 87.2734Z" fill="#FAFAFA"/>
<path d="M125.761 98.3146C125.761 98.546 125.692 98.7723 125.564 98.9647C125.435 99.1571 125.253 99.3071 125.039 99.3956C124.825 99.4842 124.59 99.5074 124.363 99.4622C124.136 99.4171 123.927 99.3056 123.764 99.142C123.6 98.9783 123.489 98.7699 123.443 98.5429C123.398 98.3159 123.421 98.0806 123.51 97.8668C123.599 97.653 123.748 97.4703 123.941 97.3417C124.133 97.2132 124.36 97.1445 124.591 97.1445C124.901 97.146 125.198 97.2698 125.417 97.4889C125.636 97.708 125.76 98.0047 125.761 98.3146Z" fill="#FAFAFA"/>
<path d="M108.005 100.871C108.006 101.104 107.938 101.332 107.809 101.527C107.68 101.721 107.497 101.872 107.282 101.962C107.067 102.052 106.83 102.076 106.601 102.03C106.372 101.985 106.162 101.873 105.998 101.708C105.833 101.544 105.721 101.334 105.676 101.105C105.63 100.876 105.654 100.639 105.744 100.424C105.834 100.209 105.985 100.026 106.179 99.897C106.374 99.7682 106.602 99.7001 106.835 99.7012C107.145 99.7027 107.441 99.8264 107.66 100.046C107.88 100.265 108.003 100.561 108.005 100.871Z" fill="#FAFAFA"/>
<path d="M152.684 101.672C152.683 101.903 152.613 102.129 152.484 102.32C152.355 102.512 152.172 102.661 151.958 102.749C151.744 102.836 151.509 102.859 151.282 102.813C151.055 102.767 150.848 102.655 150.684 102.492C150.521 102.328 150.411 102.119 150.366 101.892C150.321 101.666 150.345 101.431 150.433 101.217C150.522 101.004 150.672 100.821 150.864 100.693C151.057 100.565 151.283 100.496 151.514 100.496C151.668 100.496 151.821 100.527 151.963 100.586C152.105 100.645 152.234 100.732 152.343 100.841C152.452 100.95 152.538 101.08 152.596 101.222C152.655 101.365 152.685 101.518 152.684 101.672Z" fill="#FAFAFA"/>
<path d="M144.221 124.619C144.221 124.852 144.152 125.079 144.022 125.273C143.893 125.466 143.709 125.617 143.494 125.706C143.278 125.795 143.042 125.818 142.813 125.772C142.585 125.726 142.376 125.613 142.211 125.448C142.047 125.283 141.936 125.073 141.891 124.845C141.846 124.617 141.87 124.38 141.96 124.165C142.05 123.95 142.202 123.767 142.396 123.639C142.59 123.51 142.818 123.442 143.051 123.443C143.205 123.443 143.357 123.474 143.5 123.533C143.642 123.592 143.771 123.679 143.88 123.788C143.989 123.897 144.075 124.027 144.133 124.17C144.192 124.312 144.221 124.465 144.221 124.619Z" fill="#FAFAFA"/>
<path d="M154.388 89.7423C154.388 89.9738 154.319 90.2 154.191 90.3924C154.062 90.5848 153.88 90.7348 153.666 90.8234C153.452 90.9119 153.217 90.9351 152.99 90.8899C152.763 90.8448 152.554 90.7334 152.391 90.5697C152.227 90.4061 152.115 90.1976 152.07 89.9706C152.025 89.7436 152.048 89.5084 152.137 89.2946C152.225 89.0808 152.375 88.898 152.568 88.7695C152.76 88.6409 152.987 88.5723 153.218 88.5723C153.528 88.5723 153.826 88.6955 154.045 88.915C154.265 89.1344 154.388 89.432 154.388 89.7423Z" fill="#FAFAFA"/>
<path d="M154.309 66.0568C154.31 66.2898 154.242 66.5179 154.113 66.7122C153.984 66.9064 153.8 67.058 153.585 67.1477C153.37 67.2373 153.133 67.2611 152.905 67.2159C152.676 67.1707 152.466 67.0586 152.301 66.8939C152.137 66.7291 152.025 66.5191 151.979 66.2905C151.934 66.0619 151.958 65.825 152.048 65.6099C152.137 65.3948 152.289 65.2113 152.483 65.0825C152.677 64.9538 152.905 64.8856 153.138 64.8867C153.448 64.8882 153.745 65.012 153.964 65.2311C154.183 65.4502 154.307 65.747 154.309 66.0568Z" fill="#F0F0F0"/>
<path d="M175.727 81.7402C175.727 81.973 175.658 82.2006 175.529 82.394C175.399 82.5875 175.216 82.7382 175 82.827C174.785 82.9158 174.548 82.9388 174.32 82.893C174.092 82.8471 173.883 82.7346 173.718 82.5696C173.554 82.4046 173.443 82.1946 173.398 81.9661C173.353 81.7377 173.377 81.5011 173.467 81.2863C173.557 81.0716 173.709 80.8884 173.903 80.7599C174.097 80.6313 174.325 80.5633 174.557 80.5645C174.712 80.5645 174.864 80.5949 175.007 80.6541C175.149 80.7132 175.278 80.7999 175.387 80.9092C175.496 81.0184 175.582 81.1481 175.64 81.2907C175.699 81.4333 175.728 81.5861 175.727 81.7402Z" fill="#F0F0F0"/>
<path d="M178.92 99.0195C178.92 99.2523 178.851 99.4799 178.721 99.6733C178.592 99.8668 178.408 100.017 178.193 100.106C177.978 100.195 177.741 100.218 177.513 100.172C177.284 100.126 177.075 100.014 176.911 99.8489C176.747 99.6839 176.635 99.4739 176.59 99.2454C176.546 99.017 176.57 98.7804 176.659 98.5656C176.749 98.3509 176.901 98.1677 177.095 98.0392C177.289 97.9106 177.517 97.8426 177.75 97.8438C177.904 97.8438 178.057 97.8742 178.199 97.9334C178.341 97.9925 178.47 98.0792 178.579 98.1885C178.688 98.2977 178.774 98.4274 178.832 98.57C178.891 98.7126 178.921 98.8654 178.92 99.0195Z" fill="#F0F0F0"/>
<path d="M140.199 53.5508C140.199 53.7833 140.13 54.0106 140.001 54.204C139.872 54.3973 139.688 54.548 139.473 54.637C139.259 54.726 139.022 54.7493 138.794 54.7039C138.566 54.6586 138.356 54.5466 138.192 54.3821C138.028 54.2177 137.916 54.0082 137.87 53.7801C137.825 53.5521 137.848 53.3157 137.937 53.1008C138.026 52.886 138.177 52.7023 138.37 52.5732C138.564 52.444 138.791 52.375 139.023 52.375C139.335 52.375 139.634 52.4989 139.855 52.7194C140.075 52.9399 140.199 53.2389 140.199 53.5508Z" fill="#F0F0F0"/>
<path d="M141.034 71.2834C141.034 71.5148 140.966 71.741 140.837 71.9334C140.709 72.1258 140.526 72.2758 140.312 72.3644C140.098 72.4529 139.863 72.4761 139.636 72.431C139.409 72.3858 139.201 72.2744 139.037 72.1107C138.873 71.9471 138.762 71.7386 138.717 71.5116C138.672 71.2847 138.695 71.0494 138.783 70.8356C138.872 70.6218 139.022 70.439 139.214 70.3105C139.407 70.1819 139.633 70.1133 139.864 70.1133C140.174 70.1148 140.471 70.2385 140.69 70.4576C140.909 70.6767 141.033 70.9735 141.034 71.2834Z" fill="#FAFAFA"/>
<path d="M141.409 109.334C142.056 109.334 142.579 108.81 142.579 108.164C142.579 107.518 142.056 106.994 141.409 106.994C140.763 106.994 140.239 107.518 140.239 108.164C140.239 108.81 140.763 109.334 141.409 109.334Z" fill="#FAFAFA"/>
<path d="M166.521 113.195C166.521 113.427 166.452 113.653 166.324 113.846C166.195 114.038 166.012 114.188 165.799 114.276C165.585 114.365 165.349 114.388 165.122 114.343C164.895 114.298 164.687 114.186 164.523 114.023C164.36 113.859 164.248 113.651 164.203 113.424C164.158 113.197 164.181 112.962 164.27 112.748C164.358 112.534 164.508 112.351 164.701 112.223C164.893 112.094 165.119 112.025 165.351 112.025C165.661 112.025 165.959 112.149 166.178 112.368C166.398 112.588 166.521 112.885 166.521 113.195Z" fill="#FAFAFA"/>
<path d="M110.913 111.947C110.911 112.179 110.84 112.405 110.709 112.597C110.579 112.789 110.394 112.938 110.179 113.025C109.964 113.112 109.728 113.134 109.501 113.087C109.274 113.041 109.065 112.928 108.902 112.763C108.739 112.598 108.628 112.389 108.583 112.161C108.539 111.933 108.563 111.697 108.652 111.483C108.741 111.269 108.892 111.086 109.085 110.957C109.278 110.828 109.505 110.76 109.737 110.76C109.893 110.76 110.046 110.791 110.19 110.85C110.333 110.91 110.463 110.998 110.573 111.108C110.682 111.219 110.768 111.349 110.827 111.493C110.885 111.637 110.914 111.792 110.913 111.947Z" fill="#FAFAFA"/>
<path d="M130.379 120.416C130.38 120.649 130.312 120.877 130.183 121.071C130.055 121.265 129.872 121.417 129.657 121.506C129.442 121.596 129.206 121.62 128.977 121.576C128.749 121.531 128.539 121.419 128.374 121.255C128.209 121.091 128.096 120.882 128.05 120.653C128.005 120.425 128.027 120.188 128.116 119.973C128.205 119.758 128.356 119.574 128.549 119.445C128.743 119.315 128.97 119.246 129.203 119.246C129.514 119.246 129.812 119.369 130.032 119.588C130.253 119.808 130.377 120.105 130.379 120.416Z" fill="#FAFAFA"/>
<path d="M162.067 124.307C162.067 124.539 161.998 124.766 161.869 124.96C161.74 125.153 161.556 125.304 161.342 125.393C161.127 125.482 160.89 125.505 160.662 125.46C160.434 125.414 160.225 125.302 160.06 125.138C159.896 124.974 159.784 124.764 159.738 124.536C159.693 124.308 159.716 124.072 159.805 123.857C159.894 123.642 160.045 123.458 160.238 123.329C160.432 123.2 160.659 123.131 160.892 123.131C161.203 123.131 161.502 123.255 161.723 123.475C161.943 123.696 162.067 123.995 162.067 124.307Z" fill="#FAFAFA"/>
</svg>
