<svg width="35" height="34" viewBox="0 0 35 34" fill="none" xmlns="http://www.w3.org/2000/svg">
<path d="M8.03877 13.7168C11.4581 7.66633 13.1678 4.64107 15.5139 3.86233C16.8045 3.43391 18.1948 3.43391 19.4854 3.86233C21.8316 4.64107 23.5412 7.66633 26.9606 13.7168C30.38 19.7673 32.0896 22.7926 31.5768 25.2576C31.2946 26.6137 30.5995 27.8437 29.5909 28.7715C27.7578 30.4577 24.3385 30.4577 17.4997 30.4577C10.6609 30.4577 7.24155 30.4577 5.40837 28.7715C4.39988 27.8437 3.70473 26.6137 3.42257 25.2576C2.9097 22.7926 4.61939 19.7673 8.03877 13.7168Z" stroke="#F65800" stroke-width="1.5"/>
<path d="M17.4883 22.666H17.501" stroke="#F65800" stroke-width="2" stroke-linecap="round" stroke-linejoin="round"/>
<path d="M17.5 18.4167V12.75" stroke="#F65800" stroke-width="1.5" stroke-linecap="round" stroke-linejoin="round"/>
</svg>
