<svg width="52" height="52" viewBox="0 0 52 52" fill="none" xmlns="http://www.w3.org/2000/svg">
<rect width="52" height="52" rx="26" fill="#FDD2D1"/>
<path d="M37.8953 26.8213L35.2567 23.5232C34.6177 17.9176 30.0556 13.7227 24.5388 13.7227C18.5747 13.7227 13.7227 18.7057 13.7227 24.8311C13.7227 27.9128 14.9902 30.8829 17.2008 32.9789C17.9737 33.712 18.3999 34.6533 18.3999 35.6285V37.4012C18.3999 37.8853 18.7928 38.2782 19.2769 38.2782C19.761 38.2782 28.7319 38.2782 29.216 38.2782C29.7001 38.2782 30.093 37.8853 30.093 37.4012V37.0744C30.093 36.9481 30.1737 36.837 30.293 36.7967L33.5554 35.7092C34.6317 35.3508 35.3549 34.3482 35.3549 33.2139V30.1889L37.1042 29.5768C37.6409 29.3885 38.0549 28.95 38.2121 28.4034C38.3694 27.8567 38.2501 27.2656 37.8953 26.8213ZM25.3339 30.6777H24.3283C23.6314 30.6777 23.0315 30.186 22.8947 29.5025L22.779 28.9237H26.8827L26.7669 29.5025C26.6307 30.186 26.0308 30.6777 25.3339 30.6777ZM27.6942 25.9969C27.5229 26.1641 27.3943 26.3688 27.3469 26.6032L27.2341 27.1697H22.4282L22.3148 26.6038C22.268 26.3694 22.1388 26.1641 21.9675 25.9975C21.1817 25.2299 20.7385 24.1898 20.7385 23.0772C20.7385 21.8505 21.2817 20.6999 22.2288 19.9188C22.9649 19.312 23.8834 18.9957 24.8311 18.9933C25.7788 18.9957 26.6979 19.312 27.4334 19.9188C28.3806 20.6999 28.9237 21.8505 28.9237 23.0772C28.9237 24.1898 28.4805 25.2299 27.6942 25.9969Z" fill="#F71C19"/>
</svg>
