<svg width="52" height="53" viewBox="0 0 52 53" fill="none" xmlns="http://www.w3.org/2000/svg">
<rect y="0.5" width="52" height="52" rx="8" fill="#7A5AF8"/>
<path d="M11.75 26.5C11.75 19.7825 11.75 16.4237 13.8369 14.3369C15.9237 12.25 19.2825 12.25 26 12.25C32.7175 12.25 36.0763 12.25 38.1632 14.3369C40.25 16.4237 40.25 19.7825 40.25 26.5C40.25 33.2175 40.25 36.5763 38.1632 38.6632C36.0763 40.75 32.7175 40.75 26 40.75C19.2825 40.75 15.9237 40.75 13.8369 38.6632C11.75 36.5763 11.75 33.2175 11.75 26.5Z" stroke="white" stroke-width="1.5" stroke-linejoin="round"/>
<path d="M26.9788 30.5704L26.7125 29.7356C26.4943 29.0515 26.3851 28.7095 26.4691 28.4395C26.5368 28.221 26.686 28.0326 26.889 27.9087C27.14 27.7554 27.5196 27.7554 28.2791 27.7554H28.6831C31.2531 27.7554 32.5382 27.7554 33.1451 27.017C33.2145 26.9326 33.2762 26.8429 33.3296 26.7488C33.7966 25.9252 33.2657 24.816 32.204 22.5972C31.2297 20.5611 30.7425 19.543 29.838 18.9438C29.7504 18.8858 29.6604 18.8311 29.5683 18.7798C28.616 18.25 27.4361 18.25 25.0765 18.25H24.5647C21.7057 18.25 20.2763 18.25 19.3881 19.0852C18.5 19.9204 18.5 21.2647 18.5 23.9533V24.8982C18.5 26.3112 18.5 27.0175 18.7583 27.6642C19.0167 28.3106 19.5114 28.8424 20.5007 29.9058L24.5921 34.303C24.6947 34.4132 24.746 34.4685 24.7913 34.5065C25.2135 34.8633 25.8653 34.8232 26.2344 34.4177C26.2739 34.3742 26.3173 34.3133 26.4037 34.1914C26.5388 34.0006 26.6064 33.9053 26.6654 33.8108C27.1928 32.965 27.3524 31.9601 27.1108 31.0063C27.0838 30.8998 27.0488 30.7899 26.9788 30.5704Z" fill="white"/>
</svg>
