<svg width="34" height="35" viewBox="0 0 34 35" fill="none" xmlns="http://www.w3.org/2000/svg">
<rect x="0.5" y="1" width="33" height="33" rx="7.5" stroke="#F65800"/>
<path d="M9.875 17.5C9.875 14.1412 9.875 12.4619 10.9184 11.4184C11.9619 10.375 13.6412 10.375 17 10.375C20.3587 10.375 22.0381 10.375 23.0816 11.4184C24.125 12.4619 24.125 14.1412 24.125 17.5C24.125 20.8587 24.125 22.5381 23.0816 23.5816C22.0381 24.625 20.3587 24.625 17 24.625C13.6412 24.625 11.9619 24.625 10.9184 23.5816C9.875 22.5381 9.875 20.8587 9.875 17.5Z" stroke="#F65800" stroke-width="1.5" stroke-linejoin="round"/>
<path d="M17.4894 19.5352L17.3563 19.1178C17.2471 18.7757 17.1925 18.6048 17.2345 18.4698C17.2684 18.3605 17.343 18.2663 17.4445 18.2043C17.57 18.1277 17.7598 18.1277 18.1395 18.1277H18.3415C19.6266 18.1277 20.2691 18.1277 20.5725 17.7585C20.6073 17.7163 20.6381 17.6715 20.6648 17.6244C20.8983 17.2126 20.6328 16.658 20.102 15.5486C19.6149 14.5305 19.3713 14.0215 18.919 13.7219C18.8752 13.6929 18.8302 13.6655 18.7842 13.6399C18.308 13.375 17.7181 13.375 16.5382 13.375H16.2823C14.8529 13.375 14.1381 13.375 13.6941 13.7926C13.25 14.2102 13.25 14.8824 13.25 16.2267V16.6991C13.25 17.4056 13.25 17.7587 13.3792 18.0821C13.5083 18.4053 13.7557 18.6712 14.2504 19.2029L16.2961 21.4015C16.3474 21.4566 16.373 21.4842 16.3956 21.5033C16.6068 21.6816 16.9326 21.6616 17.1172 21.4589C17.1369 21.4371 17.1586 21.4067 17.2018 21.3457C17.2694 21.2503 17.3032 21.2027 17.3327 21.1554C17.5964 20.7325 17.6762 20.2301 17.5554 19.7531C17.5419 19.6999 17.5244 19.6449 17.4894 19.5352Z" fill="#F65800"/>
</svg>
