<svg width="52" height="53" viewBox="0 0 52 53" fill="none" xmlns="http://www.w3.org/2000/svg">
<rect y="0.5" width="52" height="52" rx="8" fill="#1158FF"/>
<path d="M11 27.25C11 25.5931 12.3431 24.25 14 24.25C16.4853 24.25 18.5 26.2646 18.5 28.75V34.75C18.5 37.2354 16.4853 39.25 14 39.25C12.3431 39.25 11 37.9069 11 36.25V27.25Z" stroke="white" stroke-width="1.5" stroke-linecap="round" stroke-linejoin="round"/>
<path d="M31.218 20.2094L30.8186 21.4995C30.4913 22.5567 30.3276 23.0852 30.4535 23.5027C30.5553 23.8404 30.7788 24.1315 31.0835 24.3231C31.46 24.5598 32.0295 24.5598 33.1686 24.5598H33.7746C37.6298 24.5598 39.5573 24.5598 40.4678 25.701C40.5717 25.8313 40.6643 25.9701 40.7444 26.1156C41.4447 27.3882 40.6485 29.1026 39.056 32.5317C37.5945 35.6784 36.8637 37.2517 35.507 38.1778C35.3757 38.2673 35.2407 38.3519 35.1024 38.4311C33.674 39.25 31.9043 39.25 28.3646 39.25H27.5969C23.3085 39.25 21.1644 39.25 19.8322 37.9592C18.5 36.6684 18.5 34.5909 18.5 30.4359V28.9755C18.5 26.7919 18.5 25.7002 18.8875 24.7009C19.275 23.7016 20.017 22.88 21.501 21.2367L27.6381 14.4408C27.792 14.2704 27.869 14.1852 27.9369 14.1261C28.5702 13.5749 29.5478 13.637 30.1016 14.2635C30.161 14.3307 30.2258 14.4249 30.3554 14.6133C30.5582 14.9081 30.6596 15.0555 30.7481 15.2015C31.5392 16.5087 31.7786 18.0615 31.4162 19.5357C31.3757 19.7004 31.3232 19.8702 31.218 20.2094Z" fill="white" stroke="white" stroke-opacity="0.3" stroke-width="1.5" stroke-linecap="round" stroke-linejoin="round"/>
</svg>
