<svg width="34" height="35" viewBox="0 0 34 35" fill="none" xmlns="http://www.w3.org/2000/svg">
<rect x="0.5" y="1" width="33" height="33" rx="7.5" stroke="#0086FF"/>
<path d="M9.5 17.375C9.5 16.5466 10.1716 15.875 11 15.875C12.2426 15.875 13.25 16.8823 13.25 18.125V21.125C13.25 22.3677 12.2426 23.375 11 23.375C10.1716 23.375 9.5 22.7034 9.5 21.875V17.375Z" stroke="#0086FF" stroke-width="1.5" stroke-linecap="round" stroke-linejoin="round"/>
<path d="M19.609 13.8547L19.4093 14.4998C19.2456 15.0283 19.1638 15.2926 19.2267 15.5014C19.2777 15.6702 19.3894 15.8158 19.5417 15.9115C19.73 16.0299 20.0148 16.0299 20.5843 16.0299H20.8873C22.8149 16.0299 23.7786 16.0299 24.2339 16.6005C24.2859 16.6657 24.3321 16.735 24.3722 16.8078C24.7224 17.4441 24.3243 18.3013 23.528 20.0158C22.7973 21.5892 22.4319 22.3758 21.7535 22.8389C21.6879 22.8837 21.6204 22.926 21.5512 22.9656C20.837 23.375 19.9521 23.375 18.1823 23.375H17.7984C15.6543 23.375 14.5822 23.375 13.9161 22.7296C13.25 22.0842 13.25 21.0454 13.25 18.9679V18.2377C13.25 17.146 13.25 16.6001 13.4438 16.1005C13.6375 15.6008 14.0085 15.19 14.7505 14.3683L17.8191 10.9704C17.896 10.8852 17.9345 10.8426 17.9685 10.8131C18.2851 10.5375 18.7739 10.5685 19.0508 10.8818C19.0805 10.9153 19.1129 10.9624 19.1777 11.0567C19.2791 11.204 19.3298 11.2777 19.374 11.3507C19.7696 12.0043 19.8893 12.7808 19.7081 13.5179C19.6878 13.6002 19.6616 13.6851 19.609 13.8547Z" fill="#0086FF" stroke="white" stroke-opacity="0.3" stroke-width="1.5" stroke-linecap="round" stroke-linejoin="round"/>
</svg>
