<svg width="52" height="53" viewBox="0 0 52 53" fill="none" xmlns="http://www.w3.org/2000/svg">
<rect y="0.5" width="52" height="52" rx="8" fill="#F79009"/>
<path d="M17.1341 31C16.5665 29.7241 16.25 28.3046 16.25 26.8088C16.25 21.2535 20.6152 16.75 26 16.75C31.3848 16.75 35.75 21.2535 35.75 26.8088C35.75 28.3046 35.4335 29.7241 34.8659 31" fill="white"/>
<path d="M17.1341 31C16.5665 29.7241 16.25 28.3046 16.25 26.8088C16.25 21.2535 20.6152 16.75 26 16.75C31.3849 16.75 35.75 21.2535 35.75 26.8088C35.75 28.3046 35.4335 29.7241 34.8659 31" stroke="white" stroke-width="1.5" stroke-linecap="round"/>
<path d="M26 11.5V13" stroke="white" stroke-width="1.5" stroke-linecap="round" stroke-linejoin="round"/>
<path d="M41 26.5H39.5" stroke="white" stroke-width="1.5" stroke-linecap="round" stroke-linejoin="round"/>
<path d="M12.5 26.5H11" stroke="white" stroke-width="1.5" stroke-linecap="round" stroke-linejoin="round"/>
<path d="M36.6075 15.8906L35.5469 16.9513" stroke="white" stroke-width="1.5" stroke-linecap="round" stroke-linejoin="round"/>
<path d="M16.4552 16.9552L15.3945 15.8945" stroke="white" stroke-width="1.5" stroke-linecap="round" stroke-linejoin="round"/>
<path d="M29.7772 37.4572C31.2928 36.967 31.9006 35.5798 32.0716 34.1845C32.1226 33.7676 31.7797 33.4219 31.3597 33.4219L20.717 33.4222C20.2826 33.4222 19.9337 33.7909 19.9856 34.2221C20.1531 35.6147 20.5758 36.632 22.1819 37.4572M29.7772 37.4572C29.7772 37.4572 22.4463 37.4572 22.1819 37.4572M29.7772 37.4572C29.595 40.3747 28.7524 41.5301 26.0119 41.4977C23.0806 41.5519 22.4063 40.1237 22.1819 37.4572" stroke="white" stroke-width="1.5" stroke-linecap="round" stroke-linejoin="round"/>
</svg>
