<svg width="34" height="35" viewBox="0 0 34 35" fill="none" xmlns="http://www.w3.org/2000/svg">
<rect x="0.5" y="1" width="33" height="33" rx="7.5" stroke="#7A5AF8"/>
<path d="M12.567 19.75C12.2832 19.112 12.125 18.4023 12.125 17.6544C12.125 14.8767 14.3076 12.625 17 12.625C19.6924 12.625 21.875 14.8767 21.875 17.6544C21.875 18.4023 21.7168 19.112 21.433 19.75" fill="#7A5AF8"/>
<path d="M12.567 19.75C12.2832 19.112 12.125 18.4023 12.125 17.6544C12.125 14.8767 14.3076 12.625 17 12.625C19.6924 12.625 21.875 14.8767 21.875 17.6544C21.875 18.4023 21.7168 19.112 21.433 19.75" stroke="#7A5AF8" stroke-width="1.5" stroke-linecap="round"/>
<path d="M17 10V10.75" stroke="#7A5AF8" stroke-width="1.5" stroke-linecap="round" stroke-linejoin="round"/>
<path d="M24.5 17.5H23.75" stroke="#7A5AF8" stroke-width="1.5" stroke-linecap="round" stroke-linejoin="round"/>
<path d="M10.25 17.5H9.5" stroke="#7A5AF8" stroke-width="1.5" stroke-linecap="round" stroke-linejoin="round"/>
<path d="M22.3038 12.1953L21.7734 12.7256" stroke="#7A5AF8" stroke-width="1.5" stroke-linecap="round" stroke-linejoin="round"/>
<path d="M12.2296 12.7256L11.6992 12.1953" stroke="#7A5AF8" stroke-width="1.5" stroke-linecap="round" stroke-linejoin="round"/>
<path d="M18.8867 22.9786C19.6445 22.7335 19.9484 22.0399 20.0339 21.3422C20.0594 21.1338 19.8879 20.9609 19.6779 20.9609L14.3565 20.9611C14.1393 20.9611 13.9649 21.1454 13.9908 21.3611C14.0746 22.0574 14.2859 22.566 15.089 22.9786M18.8867 22.9786C18.8867 22.9786 15.2212 22.9786 15.089 22.9786M18.8867 22.9786C18.7955 24.4373 18.3743 25.0151 17.004 24.9989C15.5384 25.0259 15.2012 24.3119 15.089 22.9786" stroke="#7A5AF8" stroke-width="1.5" stroke-linecap="round" stroke-linejoin="round"/>
</svg>
