<svg width="389" height="234" viewBox="0 0 389 234" fill="none" xmlns="http://www.w3.org/2000/svg">
<g clip-path="url(#clip0_2367_10556)">
<rect y="0.666992" width="388.667" height="233" rx="17.7273" fill="url(#paint0_linear_2367_10556)" fill-opacity="0.1"/>
<g opacity="0.15" clip-path="url(#clip1_2367_10556)">
<path d="M403.639 150.559H287.751C285.004 150.556 282.371 149.463 280.429 147.519C278.486 145.576 277.394 142.941 277.391 140.193V-27.9668C277.394 -30.7151 278.486 -33.35 280.429 -35.2934C282.371 -37.2368 285.004 -38.3299 287.751 -38.333H403.639C406.385 -38.3299 409.019 -37.2368 410.961 -35.2934C412.903 -33.35 413.996 -30.7151 413.999 -27.9668V140.193C413.996 142.941 412.903 145.576 410.961 147.519C409.019 149.463 406.385 150.556 403.639 150.559Z" fill="#E6E6E6"/>
<path d="M403.845 143.945H287.549C286.702 143.944 285.891 143.607 285.292 143.008C284.693 142.409 284.356 141.597 284.355 140.75V-28.5233C284.356 -29.3705 284.693 -30.1827 285.292 -30.7817C285.891 -31.3808 286.702 -31.7178 287.549 -31.7188H403.845C404.691 -31.7178 405.503 -31.3808 406.102 -30.7817C406.701 -30.1827 407.037 -29.3705 407.038 -28.5233V140.75C407.037 141.597 406.701 142.409 406.102 143.008C405.503 143.607 404.691 143.944 403.845 143.945Z" fill="white"/>
<path d="M392.57 79.7444H298.821C298.743 79.7444 298.668 79.7134 298.613 79.6584C298.558 79.6033 298.527 79.5287 298.527 79.4508V34.4908C298.527 34.413 298.558 34.3383 298.613 34.2832C298.668 34.2282 298.743 34.1973 298.821 34.1973C298.899 34.1973 298.973 34.2282 299.028 34.2832C299.083 34.3383 299.114 34.413 299.114 34.4908V79.1572H392.57C392.648 79.1575 392.722 79.1886 392.777 79.2436C392.832 79.2986 392.863 79.3731 392.863 79.4508C392.863 79.5285 392.832 79.603 392.777 79.658C392.722 79.713 392.648 79.7441 392.57 79.7444Z" fill="#3F3D56"/>
<path d="M318.851 76.5156H310.324C310.093 76.5153 309.872 76.4234 309.709 76.2601C309.545 76.0967 309.453 75.8752 309.453 75.6442V63.8831C309.453 63.6521 309.545 63.4306 309.709 63.2672C309.872 63.1039 310.093 63.012 310.324 63.0117H318.851C319.082 63.012 319.303 63.1039 319.467 63.2672C319.63 63.4306 319.722 63.6521 319.722 63.8831V75.6442C319.722 75.8752 319.63 76.0967 319.467 76.2601C319.303 76.4234 319.082 76.5153 318.851 76.5156Z" fill="#016A70"/>
<path d="M334.402 76.5156H325.875C325.644 76.5154 325.423 76.4235 325.259 76.2601C325.096 76.0968 325.004 75.8753 325.004 75.6443V52.7278C325.004 52.4968 325.096 52.2753 325.259 52.1119C325.423 51.9486 325.644 51.8567 325.875 51.8564H334.402C334.633 51.8567 334.854 51.9486 335.017 52.1119C335.181 52.2753 335.272 52.4968 335.273 52.7278V75.6443C335.272 75.8753 335.181 76.0968 335.017 76.2601C334.854 76.4235 334.633 76.5154 334.402 76.5156Z" fill="#016A70"/>
<path d="M349.953 76.5156H341.426C341.195 76.5153 340.973 76.4234 340.81 76.2601C340.647 76.0967 340.555 75.8752 340.555 75.6442V63.8831C340.555 63.6521 340.647 63.4306 340.81 63.2672C340.973 63.1039 341.195 63.012 341.426 63.0117H349.953C350.183 63.012 350.405 63.1039 350.568 63.2672C350.731 63.4306 350.823 63.6521 350.823 63.8831V75.6442C350.823 75.8752 350.731 76.0967 350.568 76.2601C350.405 76.4234 350.183 76.5153 349.953 76.5156Z" fill="#016A70"/>
<path d="M365.499 76.5159H356.973C356.747 76.5208 356.528 76.436 356.365 76.28C356.202 76.1241 356.107 75.9098 356.102 75.6841V48.2852C356.107 48.0595 356.202 47.8452 356.365 47.6892C356.528 47.5333 356.747 47.4485 356.973 47.4533H365.499C365.725 47.4485 365.943 47.5333 366.107 47.6892C366.27 47.8452 366.365 48.0595 366.37 48.2852V75.6841C366.365 75.9098 366.27 76.1241 366.107 76.28C365.943 76.436 365.725 76.5208 365.499 76.5159Z" fill="#016A70"/>
<path d="M381.05 76.5152H372.523C372.292 76.5149 372.071 76.423 371.908 76.2597C371.744 76.0963 371.653 75.8748 371.652 75.6438V40.3977C371.653 40.1667 371.744 39.9452 371.908 39.7819C372.071 39.6185 372.292 39.5266 372.523 39.5264H381.05C381.281 39.5266 381.502 39.6185 381.666 39.7819C381.829 39.9452 381.921 40.1667 381.921 40.3977V75.6438C381.921 75.8748 381.829 76.0963 381.666 76.2597C381.502 76.423 381.281 76.5149 381.05 76.5152Z" fill="#016A70"/>
<path d="M314.589 59.4886C315.561 59.4886 316.349 58.7 316.349 57.7272C316.349 56.7544 315.561 55.9658 314.589 55.9658C313.616 55.9658 312.828 56.7544 312.828 57.7272C312.828 58.7 313.616 59.4886 314.589 59.4886Z" fill="#3F3D56"/>
<path d="M330.139 48.0403C331.112 48.0403 331.9 47.2517 331.9 46.279C331.9 45.3062 331.112 44.5176 330.139 44.5176C329.167 44.5176 328.379 45.3062 328.379 46.279C328.379 47.2517 329.167 48.0403 330.139 48.0403Z" fill="#3F3D56"/>
<path d="M345.686 59.4886C346.658 59.4886 347.447 58.7 347.447 57.7272C347.447 56.7544 346.658 55.9658 345.686 55.9658C344.714 55.9658 343.926 56.7544 343.926 57.7272C343.926 58.7 344.714 59.4886 345.686 59.4886Z" fill="#3F3D56"/>
<path d="M361.237 42.4622C362.209 42.4622 362.997 41.6736 362.997 40.7008C362.997 39.728 362.209 38.9395 361.237 38.9395C360.265 38.9395 359.477 39.728 359.477 40.7008C359.477 41.6736 360.265 42.4622 361.237 42.4622Z" fill="#3F3D56"/>
<path d="M376.788 36.0042C377.76 36.0042 378.548 35.2156 378.548 34.2428C378.548 33.27 377.76 32.4814 376.788 32.4814C375.815 32.4814 375.027 33.27 375.027 34.2428C375.027 35.2156 375.815 36.0042 376.788 36.0042Z" fill="#3F3D56"/>
<path d="M345.723 58.1216L330.136 46.4404L314.762 57.962L314.41 57.4922L330.136 45.7064L345.649 57.3326L361.064 40.4533L361.126 40.428L376.676 34.1592L376.896 34.7039L361.408 40.9479L345.723 58.1216Z" fill="#3F3D56"/>
<path d="M228.597 94.6779C228.612 94.6781 228.627 94.6777 228.641 94.677C236.17 94.2829 243.266 91.0343 248.487 85.592C253.707 80.1496 256.66 72.922 256.744 65.3791C256.829 57.8361 254.039 50.5441 248.942 44.986C243.845 39.4279 236.823 36.021 229.305 35.4581C229.212 35.4508 229.118 35.4628 229.03 35.4934C228.942 35.5239 228.861 35.5724 228.793 35.6357C228.725 35.6979 228.67 35.7736 228.632 35.858C228.595 35.9425 228.575 36.0337 228.574 36.1262L227.926 93.9926C227.924 94.1725 227.994 94.3457 228.12 94.4742C228.246 94.6027 228.417 94.6759 228.597 94.6779Z" fill="#3F3D56"/>
<path d="M205.341 45.0264C205.572 45.0292 205.792 45.1234 205.954 45.2884L225.863 65.6611C225.943 65.7426 226.006 65.8391 226.049 65.9452C226.091 66.0513 226.113 66.1647 226.111 66.279L225.801 93.9683C225.8 94.0872 225.774 94.2045 225.726 94.313C225.678 94.4215 225.607 94.5188 225.519 94.5988C225.431 94.6798 225.328 94.7419 225.215 94.7812C225.102 94.8204 224.982 94.8361 224.863 94.8271C219.327 94.4126 214.016 92.4616 209.528 89.1935C205.039 85.9254 201.551 81.4696 199.454 76.3268C197.357 71.1839 196.735 65.5579 197.657 60.0808C198.58 54.6038 201.011 49.4927 204.677 45.3219C204.757 45.2321 204.854 45.1595 204.962 45.1087C205.071 45.0578 205.189 45.0299 205.308 45.0266C205.319 45.0264 205.33 45.0263 205.341 45.0264Z" fill="#E6E6E6"/>
<path d="M225.584 35.2217C225.806 35.2244 226.019 35.3115 226.18 35.4653C226.266 35.5473 226.334 35.6463 226.38 35.756C226.426 35.8657 226.449 35.9837 226.447 36.1027L226.167 61.0857C226.165 61.2577 226.112 61.4253 226.015 61.5673C225.918 61.7092 225.781 61.8192 225.621 61.8832C225.462 61.9473 225.287 61.9625 225.119 61.9271C224.95 61.8917 224.796 61.8071 224.676 61.6842L207.303 43.9064C207.223 43.8245 207.16 43.7277 207.117 43.6214C207.075 43.5151 207.053 43.4015 207.055 43.287C207.056 43.1726 207.08 43.0595 207.125 42.9543C207.17 42.849 207.235 42.7537 207.317 42.6737C207.328 42.6635 207.338 42.6535 207.349 42.6438C212.402 38.1936 218.808 35.579 225.53 35.2228C225.548 35.2219 225.566 35.2216 225.584 35.2217Z" fill="#016A70"/>
</g>
</g>
<defs>
<linearGradient id="paint0_linear_2367_10556" x1="31.5" y1="-27.833" x2="501.796" y2="134.114" gradientUnits="userSpaceOnUse">
<stop offset="0.0164704" stop-color="#0086FF"/>
<stop offset="0.453217" stop-color="#016A70"/>
<stop offset="1" stop-color="#67A6A9"/>
</linearGradient>
<clipPath id="clip0_2367_10556">
<rect y="0.666992" width="388.667" height="233" rx="17.7273" fill="white"/>
</clipPath>
<clipPath id="clip1_2367_10556">
<rect width="317" height="224" fill="white" transform="translate(97 -38.333)"/>
</clipPath>
</defs>
</svg>
