<svg width="48" height="49" viewBox="0 0 48 49" fill="none" xmlns="http://www.w3.org/2000/svg">
<path d="M18.5 6.66699C16.5818 6.66699 15 8.24881 15 10.167V12.667H7.5C5.58182 12.667 4 14.2488 4 16.167V40.167C4 42.0852 5.58182 43.667 7.5 43.667H40.5C42.4182 43.667 44 42.0852 44 40.167V16.167C44 14.2488 42.4182 12.667 40.5 12.667H33V10.167C33 8.24881 31.4182 6.66699 29.5 6.66699H18.5ZM18.5 9.66699H29.5C29.7818 9.66699 30 9.88517 30 10.167V12.667H18V10.167C18 9.88517 18.2182 9.66699 18.5 9.66699ZM7.5 15.667H40.5C40.7818 15.667 41 15.8852 41 16.167V29.667H27V29.167C27 28.367 26.3 27.667 25.5 27.667H22.5C21.7 27.667 21 28.367 21 29.167V29.667H7V16.167C7 15.8852 7.21818 15.667 7.5 15.667ZM7 32.667H21V33.167C21 33.967 21.7 34.667 22.5 34.667H25.5C26.3 34.667 27 33.967 27 33.167V32.667H41V40.167C41 40.4488 40.7818 40.667 40.5 40.667H7.5C7.21818 40.667 7 40.4488 7 40.167V32.667Z" fill="#212838"/>
</svg>
