<svg width="49" height="49" viewBox="0 0 49 49" fill="none" xmlns="http://www.w3.org/2000/svg">
<path d="M11.167 5.66797C7.59505 5.66797 4.66699 8.59603 4.66699 12.168V28.168V34.1191C4.66699 36.1058 7.09908 37.3426 8.70605 36.1758L12.7607 33.2266C13.2686 36.3079 15.9441 38.668 19.167 38.668H31.6787L40.6279 45.1758C41.0729 45.4988 41.5951 45.6641 42.1221 45.6641C42.5161 45.6641 42.9123 45.5718 43.2783 45.3848C44.1353 44.9488 44.667 44.0801 44.667 43.1191V21.168C44.667 17.584 41.751 14.668 38.167 14.668H36.667V12.168C36.667 8.59603 33.7389 5.66797 30.167 5.66797H11.167ZM11.167 8.66797H30.167C32.1171 8.66797 33.667 10.2179 33.667 12.168V23.168C33.667 25.118 32.1171 26.668 30.167 26.668H17.167C16.8498 26.6679 16.5407 26.7684 16.2842 26.9551L7.66699 33.2227V28.168V12.168C7.66699 10.2179 9.21693 8.66797 11.167 8.66797ZM14.167 12.668C13.9682 12.6652 13.7709 12.7019 13.5864 12.776C13.402 12.8501 13.2341 12.9602 13.0925 13.0997C12.951 13.2393 12.8386 13.4056 12.7619 13.589C12.6851 13.7724 12.6456 13.9692 12.6456 14.168C12.6456 14.3668 12.6851 14.5636 12.7619 14.7469C12.8386 14.9303 12.951 15.0966 13.0925 15.2362C13.2341 15.3758 13.402 15.4858 13.5864 15.5599C13.7709 15.6341 13.9682 15.6708 14.167 15.668H27.167C27.3658 15.6708 27.5631 15.6341 27.7476 15.5599C27.932 15.4858 28.0999 15.3758 28.2414 15.2362C28.383 15.0966 28.4954 14.9303 28.5721 14.7469C28.6488 14.5636 28.6884 14.3668 28.6884 14.168C28.6884 13.9692 28.6488 13.7724 28.5721 13.589C28.4954 13.4056 28.383 13.2393 28.2414 13.0997C28.0999 12.9602 27.932 12.8501 27.7476 12.776C27.5631 12.7019 27.3658 12.6652 27.167 12.668H14.167ZM36.667 17.668H38.167C40.097 17.668 41.667 19.238 41.667 21.168V42.2227L33.0498 35.9551C32.7938 35.7691 32.484 35.668 32.167 35.668H19.167C17.237 35.668 15.667 34.098 15.667 32.168V31.1133L17.6553 29.668H30.167C33.7389 29.668 36.667 26.7399 36.667 23.168V17.668ZM14.167 19.668C13.9682 19.6652 13.7709 19.7019 13.5864 19.776C13.402 19.8501 13.2341 19.9602 13.0925 20.0997C12.951 20.2393 12.8386 20.4056 12.7619 20.589C12.6851 20.7724 12.6456 20.9692 12.6456 21.168C12.6456 21.3668 12.6851 21.5636 12.7619 21.7469C12.8386 21.9303 12.951 22.0966 13.0925 22.2362C13.2341 22.3758 13.402 22.4858 13.5864 22.5599C13.7709 22.6341 13.9682 22.6708 14.167 22.668H24.167C24.3658 22.6708 24.5631 22.6341 24.7476 22.5599C24.932 22.4858 25.0999 22.3758 25.2414 22.2362C25.383 22.0966 25.4954 21.9303 25.5721 21.7469C25.6488 21.5636 25.6884 21.3668 25.6884 21.168C25.6884 20.9692 25.6488 20.7724 25.5721 20.589C25.4954 20.4056 25.383 20.2393 25.2414 20.0997C25.0999 19.9602 24.932 19.8501 24.7476 19.776C24.5631 19.7019 24.3658 19.6652 24.167 19.668H14.167Z" fill="#212838"/>
</svg>
