<svg width="390" height="234" viewBox="0 0 390 234" fill="none" xmlns="http://www.w3.org/2000/svg">
<g clip-path="url(#clip0_2367_10647)">
<rect x="0.667969" y="0.666992" width="388.667" height="233" rx="17.7273" fill="url(#paint0_linear_2367_10647)" fill-opacity="0.1"/>
<g opacity="0.15" clip-path="url(#clip1_2367_10647)">
<path d="M214.472 -5.33301H327.634C331.47 -5.32872 335.149 -3.81456 337.862 -1.12271C340.575 1.56914 342.101 5.21884 342.105 9.02568V70.4511C342.101 74.2579 340.575 77.9076 337.862 80.5995C335.149 83.2913 331.47 84.8055 327.634 84.8098H214.472C210.635 84.8055 206.956 83.2913 204.243 80.5995C201.53 77.9076 200.004 74.2579 200 70.4511V9.02568C200.004 5.21884 201.53 1.56914 204.243 -1.12271C206.956 -3.81456 210.635 -5.32872 214.472 -5.33301Z" fill="#C3C3C3"/>
<path d="M214.473 -1.19922H327.636C330.368 -1.19618 332.987 -0.117916 334.919 1.79901C336.851 3.71593 337.938 6.31497 337.941 9.02591V70.4513C337.938 73.1623 336.851 75.7613 334.919 77.6782C332.987 79.5952 330.368 80.6734 327.636 80.6765H214.473C211.741 80.6734 209.122 79.5951 207.19 77.6782C205.258 75.7613 204.171 73.1623 204.168 70.4513V9.02591C204.171 6.31499 205.258 3.71597 207.19 1.79905C209.122 -0.117873 211.741 -1.19615 214.473 -1.19922Z" fill="white"/>
<path d="M215.576 106.803C215.235 106.802 214.897 106.734 214.582 106.603C214.112 106.416 213.71 106.092 213.428 105.674C213.146 105.255 212.999 104.763 213.004 104.26V83.0257L241.536 82.0732L217.367 106.053C217.134 106.29 216.855 106.478 216.548 106.606C216.24 106.735 215.91 106.802 215.576 106.803Z" fill="#C3C3C3"/>
<path d="M313.46 14.0791H228.368C224.961 14.0791 222.199 16.8193 222.199 20.1996V20.1996C222.199 23.5799 224.961 26.3201 228.368 26.3201H313.46C316.867 26.3201 319.629 23.5799 319.629 20.1996C319.629 16.8193 316.867 14.0791 313.46 14.0791Z" fill="#C3C3C3"/>
<path d="M313.597 33.6182H228.505C225.098 33.6182 222.336 36.3584 222.336 39.7387V39.7387C222.336 43.119 225.098 45.8592 228.505 45.8592H313.597C317.004 45.8592 319.765 43.119 319.765 39.7387C319.765 36.3584 317.004 33.6182 313.597 33.6182Z" fill="#C3C3C3"/>
<path d="M313.737 53.1562H228.645C225.238 53.1562 222.477 55.8965 222.477 59.2768V59.2768C222.477 62.657 225.238 65.3973 228.645 65.3973H313.737C317.144 65.3973 319.906 62.657 319.906 59.2768C319.906 55.8965 317.144 53.1562 313.737 53.1562Z" fill="#C3C3C3"/>
<path d="M393.165 25.9951H280.003C276.166 25.9994 272.488 27.5136 269.775 30.2054C267.062 32.8973 265.536 36.547 265.531 40.3538V101.779C265.536 105.586 267.062 109.236 269.775 111.928C272.488 114.619 276.166 116.134 280.003 116.138H393.165C397.002 116.134 400.68 114.619 403.393 111.928C406.106 109.236 407.632 105.586 407.637 101.779V40.3538C407.632 36.547 406.106 32.8973 403.393 30.2054C400.68 27.5136 397.002 25.9994 393.165 25.9951Z" fill="#C4C4C4"/>
<path d="M393.163 30.1289H280.001C277.269 30.1319 274.649 31.2102 272.717 33.1271C270.785 35.0441 269.698 37.6431 269.695 40.354V101.779C269.698 104.49 270.785 107.089 272.717 109.006C274.649 110.923 277.269 112.002 280.001 112.005H393.163C395.895 112.002 398.515 110.923 400.447 109.006C402.379 107.089 403.466 104.49 403.469 101.779V40.354C403.466 37.6431 402.379 35.0441 400.447 33.1272C398.515 31.2103 395.895 30.132 393.163 30.1289Z" fill="white"/>
<path d="M384.555 137.38L360.387 113.4L388.919 114.353V135.587C388.924 136.09 388.776 136.583 388.495 137.001C388.213 137.419 387.811 137.743 387.341 137.93C387.026 138.061 386.688 138.129 386.346 138.13C386.013 138.129 385.683 138.062 385.375 137.933C385.068 137.805 384.789 137.617 384.555 137.38Z" fill="#C4C4C4"/>
<path d="M311.623 78.8234C315.941 78.8234 319.442 75.3503 319.442 71.066C319.442 66.7817 315.941 63.3086 311.623 63.3086C307.305 63.3086 303.805 66.7817 303.805 71.066C303.805 75.3503 307.305 78.8234 311.623 78.8234Z" fill="#016A70"/>
<path d="M336.584 78.8234C340.902 78.8234 344.402 75.3503 344.402 71.066C344.402 66.7817 340.902 63.3086 336.584 63.3086C332.266 63.3086 328.766 66.7817 328.766 71.066C328.766 75.3503 332.266 78.8234 336.584 78.8234Z" fill="#016A70"/>
<path d="M361.541 78.8234C365.859 78.8234 369.359 75.3503 369.359 71.066C369.359 66.7817 365.859 63.3086 361.541 63.3086C357.223 63.3086 353.723 66.7817 353.723 71.066C353.723 75.3503 357.223 78.8234 361.541 78.8234Z" fill="#016A70"/>
</g>
</g>
<defs>
<linearGradient id="paint0_linear_2367_10647" x1="380.501" y1="419.667" x2="-60.5015" y2="135.423" gradientUnits="userSpaceOnUse">
<stop offset="0.0164704" stop-color="#F65800"/>
<stop offset="0.625616" stop-color="#016A70"/>
<stop offset="1" stop-color="#67A6A9"/>
</linearGradient>
<clipPath id="clip0_2367_10647">
<rect x="0.667969" y="0.666992" width="388.667" height="233" rx="17.7273" fill="white"/>
</clipPath>
<clipPath id="clip1_2367_10647">
<rect width="255" height="217" fill="white" transform="translate(200 -5.33301)"/>
</clipPath>
</defs>
</svg>
