<svg width="49" height="49" viewBox="0 0 49 49" fill="none" xmlns="http://www.w3.org/2000/svg">
<path d="M17.667 2.83398C12.1619 2.83398 7.66699 7.32891 7.66699 12.834C7.66699 18.3391 12.1619 22.834 17.667 22.834C23.1721 22.834 27.667 18.3391 27.667 12.834C27.667 7.32891 23.1721 2.83398 17.667 2.83398ZM17.667 5.83398C21.5508 5.83398 24.667 8.95022 24.667 12.834C24.667 16.7177 21.5508 19.834 17.667 19.834C13.7832 19.834 10.667 16.7177 10.667 12.834C10.667 8.95022 13.7832 5.83398 17.667 5.83398ZM42.165 24.834C41.891 24.835 41.614 24.8592 41.335 24.9102C40.451 25.0692 39.6066 25.5301 38.8936 26.2441L27.0947 38.043C26.7377 38.4 26.475 38.8451 26.335 39.3281L24.7646 44.8086C24.6926 44.9986 24.66 45.1994 24.667 45.4004C24.68 45.7634 24.8226 46.1224 25.1006 46.4004C25.3776 46.6774 25.7347 46.82 26.0967 46.834C26.2977 46.841 26.5014 46.8093 26.6924 46.7363L32.1729 45.166C32.6559 45.026 33.0981 44.7643 33.4561 44.4062L45.2568 32.6074C45.9708 31.8944 46.4318 31.05 46.5908 30.166C46.6408 29.887 46.664 29.6099 46.665 29.3359C46.668 28.1419 46.2077 27.0133 45.3467 26.1543C44.4877 25.2943 43.359 24.832 42.165 24.834ZM6.88965 26.834C4.83765 26.834 3.16699 28.6185 3.16699 30.8125V32.334C3.16699 35.615 4.86238 38.4663 7.94238 40.3613C10.5334 41.9563 13.987 42.834 17.667 42.834C19.626 42.834 21.6223 42.5642 23.4873 42.0332C23.7233 41.1832 24.0251 40.1234 24.4111 38.7754C24.4381 38.6824 24.4787 38.5949 24.5107 38.5039C23.4753 38.9623 22.3283 39.2952 21.1396 39.5156L18.5244 32.9766L19.9756 29.834H28.4443C28.8363 29.834 29.167 30.2815 29.167 30.8125V32.334C29.167 32.635 29.1425 32.9231 29.1025 33.2051L32.1084 30.1992C31.8304 28.2972 30.3003 26.834 28.4443 26.834H6.88965ZM6.88965 29.834H15.3584L16.8096 32.9766L14.1943 39.5156C9.89653 38.7227 6.16699 36.4081 6.16699 32.334V30.8125C6.16699 30.2815 6.49865 29.834 6.88965 29.834Z" fill="#212838"/>
</svg>
