<svg width="390" height="234" viewBox="0 0 390 234" fill="none" xmlns="http://www.w3.org/2000/svg">
<g clip-path="url(#clip0_2367_10373)">
<rect x="0.667969" y="0.833984" width="388.667" height="233" rx="17.7273" fill="url(#paint0_linear_2367_10373)" fill-opacity="0.1"/>
<g opacity="0.15" clip-path="url(#clip1_2367_10373)">
<path d="M433.67 7.1377H167.156V133.547H433.67V7.1377Z" fill="#E6E6E6"/>
<path d="M426.049 17.9775H174.777V123.445H426.049V17.9775Z" fill="white"/>
<path d="M433.552 -0.166016H167.039V11.1512H433.552V-0.166016Z" fill="#016A70"/>
<path d="M175.454 7.16593C176.613 7.16593 177.553 6.22679 177.553 5.06832C177.553 3.90984 176.613 2.9707 175.454 2.9707C174.295 2.9707 173.355 3.90984 173.355 5.06832C173.355 6.22679 174.295 7.16593 175.454 7.16593Z" fill="white"/>
<path d="M183.419 7.16593C184.578 7.16593 185.517 6.22679 185.517 5.06832C185.517 3.90984 184.578 2.9707 183.419 2.9707C182.26 2.9707 181.32 3.90984 181.32 5.06832C181.32 6.22679 182.26 7.16593 183.419 7.16593Z" fill="white"/>
<path d="M191.388 7.16593C192.547 7.16593 193.486 6.22679 193.486 5.06832C193.486 3.90984 192.547 2.9707 191.388 2.9707C190.229 2.9707 189.289 3.90984 189.289 5.06832C189.289 6.22679 190.229 7.16593 191.388 7.16593Z" fill="white"/>
<path d="M287.161 43.0068C286.892 43.0068 286.633 43.1139 286.442 43.3045C286.252 43.4951 286.145 43.7535 286.145 44.023C286.145 44.2926 286.252 44.551 286.442 44.7416C286.633 44.9322 286.892 45.0393 287.161 45.0393H342.947C343.217 45.0393 343.476 44.9322 343.666 44.7416C343.857 44.551 343.964 44.2926 343.964 44.023C343.964 43.7535 343.857 43.4951 343.666 43.3045C343.476 43.1139 343.217 43.0068 342.947 43.0068H287.161Z" fill="#E6E6E6"/>
<path d="M287.163 49.1045C286.894 49.1051 286.636 49.2124 286.445 49.4029C286.255 49.5934 286.148 49.8516 286.148 50.1207C286.148 50.3898 286.255 50.648 286.445 50.8385C286.636 51.029 286.894 51.1363 287.163 51.1369H315.643C315.912 51.1363 316.17 51.029 316.36 50.8385C316.551 50.648 316.657 50.3898 316.657 50.1207C316.657 49.8516 316.551 49.5934 316.36 49.4029C316.17 49.2124 315.912 49.1051 315.643 49.1045H287.163Z" fill="#E6E6E6"/>
<path d="M285.759 78.6191C285.489 78.6191 285.231 78.7262 285.04 78.9168C284.849 79.1074 284.742 79.3658 284.742 79.6354C284.742 79.9049 284.849 80.1633 285.04 80.3539C285.231 80.5445 285.489 80.6516 285.759 80.6516H390.359C390.628 80.6516 390.887 80.5445 391.077 80.3539C391.268 80.1633 391.375 79.9049 391.375 79.6354C391.375 79.3658 391.268 79.1074 391.077 78.9168C390.887 78.7262 390.628 78.6191 390.359 78.6191H285.759Z" fill="#E6E6E6"/>
<path d="M285.761 84.7168C285.491 84.7174 285.233 84.8247 285.043 85.0152C284.853 85.2057 284.746 85.4639 284.746 85.733C284.746 86.0021 284.853 86.2603 285.043 86.4508C285.233 86.6413 285.491 86.7486 285.761 86.7492H363.054C363.323 86.7486 363.581 86.6413 363.771 86.4508C363.962 86.2603 364.068 86.0021 364.068 85.733C364.068 85.4639 363.962 85.2057 363.771 85.0152C363.581 84.8247 363.323 84.7174 363.054 84.7168H285.761Z" fill="#E6E6E6"/>
<path d="M285.761 90.6768C285.491 90.6773 285.233 90.7847 285.043 90.9752C284.853 91.1657 284.746 91.4238 284.746 91.693C284.746 91.9621 284.853 92.2203 285.043 92.4108C285.233 92.6013 285.491 92.7086 285.761 92.7092H390.36C390.629 92.7086 390.887 92.6013 391.078 92.4108C391.268 92.2203 391.375 91.9621 391.375 91.693C391.375 91.4238 391.268 91.1657 391.078 90.9752C390.887 90.7847 390.629 90.6773 390.36 90.6768H285.761Z" fill="#E6E6E6"/>
<path d="M285.761 96.7744C285.491 96.775 285.233 96.8823 285.043 97.0728C284.853 97.2633 284.746 97.5215 284.746 97.7906C284.746 98.0598 284.853 98.3179 285.043 98.5084C285.233 98.6989 285.491 98.8063 285.761 98.8068H363.054C363.323 98.8063 363.581 98.6989 363.771 98.5084C363.962 98.3179 364.068 98.0598 364.068 97.7906C364.068 97.5215 363.962 97.2633 363.771 97.0728C363.581 96.8823 363.323 96.775 363.054 96.7744H285.761Z" fill="#E6E6E6"/>
<path d="M231.075 82.7435C235.965 82.7435 239.928 78.7818 239.928 73.8947C239.928 69.0076 235.965 65.0459 231.075 65.0459C226.186 65.0459 222.223 69.0076 222.223 73.8947C222.223 78.7818 226.186 82.7435 231.075 82.7435Z" fill="#A0616A"/>
<path d="M228.269 66.8149C228.269 66.8149 232.4 67.921 234.539 68.3634C236.679 68.8059 236.457 67.5523 236.457 67.5523C236.457 67.5523 239.261 67.921 239.113 67.626C238.966 67.331 240.294 65.7825 238.744 64.0127C237.195 62.243 237.638 60.9157 237.638 60.9157H236.31L235.941 60.3995H233.875C233.875 60.3995 231.592 58.3978 227.534 58.9877C223.477 59.5776 218.678 61.1369 218.236 63.5703C218.176 63.9004 218.097 64.2671 218.005 64.6544C216.895 69.3364 219.253 73.7172 221.698 77.8618C222.299 78.8804 225.205 81.1016 225.131 79.5777C225.057 78.0537 222.514 74.6313 224.285 74.4101C226.056 74.1889 229.08 69.6907 228.269 66.8149Z" fill="#2F2E41"/>
<path d="M226.051 102.501C224.342 102.364 222.647 102.086 220.984 101.669L221.078 99.9041L221.853 85.8732L221.86 85.7656H237.454L239.901 98.6846L240.231 100.428C239.586 100.679 238.932 100.916 238.265 101.124C238.258 101.124 238.258 101.131 238.251 101.131C237.325 101.418 236.385 101.669 235.437 101.877C234.178 102.148 232.903 102.345 231.62 102.465C230.628 102.563 229.631 102.611 228.635 102.608C227.773 102.608 226.905 102.573 226.051 102.501Z" fill="#016A70"/>
<path d="M216.027 100.005C215.381 99.7251 214.756 99.4238 214.139 99.1082L213.874 98.9719C213.694 98.8787 213.508 98.7782 213.328 98.6778C213.084 98.5415 212.847 98.4052 212.618 98.2689C212.395 98.1398 212.166 98.0035 211.943 97.8672C211.929 97.86 211.922 97.8529 211.908 97.8529C211.132 97.3579 210.372 96.8486 209.64 96.2963C209.518 96.203 209.396 96.1098 209.273 96.0165L209.145 93.9507L209.331 93.8359L221.854 85.8735L222.026 85.7659L222.04 85.7588L223.806 85.7659V92.3366C224.803 93.7785 225.478 96.7984 225.894 100.751C225.952 101.318 226.002 101.899 226.052 102.501C224.343 102.364 222.649 102.086 220.986 101.669C220.806 101.633 220.634 101.59 220.454 101.54C219.409 101.266 218.378 100.936 217.369 100.55C217.06 100.435 216.759 100.313 216.457 100.191L216.429 100.177C216.299 100.12 216.156 100.062 216.027 100.005Z" fill="#2F2E41"/>
<path d="M213.33 98.6773C213.085 98.5411 212.849 98.4048 212.619 98.2685C212.397 98.1393 212.167 98.0031 211.944 97.8668C211.93 97.8596 211.923 97.8524 211.909 97.8524C211.134 97.3575 210.373 96.8481 209.641 96.2958C209.519 96.2026 209.397 96.1093 209.275 96.0161C209.218 95.9659 209.16 95.9228 209.095 95.8726C208.636 95.5211 208.191 95.1553 207.761 94.768C207.739 94.7536 207.725 94.732 207.703 94.7177C208.138 94.3835 208.626 94.1241 209.146 93.9502L209.655 94.1008L213.287 95.1911L213.308 96.6617L213.33 98.6773Z" fill="#2F2E41"/>
<path d="M243.907 98.6989C243.691 98.8137 243.476 98.9285 243.261 99.0361C243.211 99.0648 243.168 99.0863 243.125 99.1078C242.837 99.2513 242.558 99.3947 242.271 99.531C242.263 99.5382 242.249 99.5382 242.249 99.5454C242.235 99.5526 242.213 99.5597 242.199 99.5669C241.553 99.8754 240.9 100.162 240.232 100.428C239.587 100.679 238.933 100.915 238.266 101.123C238.259 101.123 238.259 101.131 238.252 101.131C237.326 101.418 236.386 101.669 235.438 101.877C235.428 101.287 235.505 100.7 235.668 100.134L235.675 100.033L236.293 90.048L235.467 85.7656L237.836 85.4141L250.861 92.4223C250.861 92.4223 249.425 93.857 243.534 96.9128C243.013 97.183 243.778 98.082 243.907 98.6989Z" fill="#2F2E41"/>
<path d="M231.461 100.744C230.528 100.83 229.581 100.873 228.634 100.873C227.715 100.873 226.803 100.837 225.892 100.751C225.949 101.317 226 101.899 226.05 102.501C226.904 102.573 227.772 102.609 228.634 102.609C229.63 102.611 230.627 102.564 231.619 102.465C232.902 102.345 234.177 102.149 235.436 101.877C235.426 101.288 235.503 100.7 235.666 100.134L235.673 100.033C234.288 100.37 232.88 100.608 231.461 100.744ZM258.58 60.4874C257.064 56.1332 254.616 52.162 251.406 48.8507C248.196 45.5395 244.303 42.968 239.996 41.3154C235.69 39.6628 231.075 38.969 226.474 39.2823C221.872 39.5956 217.393 40.9085 213.351 43.1294C209.309 45.3504 205.8 48.426 203.07 52.1416C200.339 55.8573 198.452 60.1237 197.54 64.6432C196.628 69.1628 196.714 73.8267 197.79 78.3099C198.867 82.793 200.909 86.9874 203.774 90.6007C204.061 90.9593 204.356 91.318 204.657 91.6623C204.686 91.691 204.7 91.7125 204.722 91.734C205.462 92.5881 206.251 93.4 207.083 94.1657C207.284 94.3522 207.492 94.5388 207.7 94.7181C207.721 94.7324 207.736 94.7539 207.757 94.7683C208.188 95.1556 208.633 95.5215 209.092 95.873C209.157 95.9232 209.214 95.9662 209.271 96.0164C209.394 96.1097 209.516 96.203 209.637 96.2962C210.369 96.8485 211.13 97.3578 211.905 97.8528C211.92 97.8528 211.927 97.86 211.941 97.8671C212.164 98.0034 212.393 98.1397 212.616 98.2688C212.845 98.4051 213.082 98.5414 213.326 98.6777C213.506 98.7781 213.692 98.8785 213.871 98.9718L214.137 99.1081C214.754 99.4237 215.379 99.725 216.024 100.005C216.154 100.062 216.297 100.119 216.426 100.177L216.455 100.191C216.756 100.313 217.058 100.435 217.366 100.55C218.376 100.936 219.406 101.266 220.452 101.54C220.632 101.59 220.804 101.633 220.983 101.669C222.646 102.086 224.341 102.364 226.05 102.501C226.904 102.573 227.772 102.609 228.634 102.609C229.63 102.611 230.627 102.564 231.619 102.465C232.902 102.345 234.177 102.149 235.436 101.877C236.384 101.669 237.324 101.418 238.25 101.131C238.257 101.131 238.257 101.124 238.264 101.124C238.931 100.916 239.585 100.679 240.23 100.428C240.898 100.163 241.551 99.8757 242.197 99.5672C242.211 99.56 242.233 99.5529 242.247 99.5457C242.247 99.5385 242.261 99.5385 242.269 99.5313C242.556 99.395 242.835 99.2516 243.123 99.1081C243.166 99.0866 243.209 99.0651 243.259 99.0364C243.474 98.9288 243.689 98.814 243.905 98.6992C243.919 98.6921 243.926 98.6849 243.941 98.6777C244.508 98.3621 245.067 98.0321 245.62 97.6806C245.771 97.5874 245.921 97.4942 246.072 97.3865C246.295 97.2502 246.51 97.0996 246.718 96.949C246.998 96.7553 247.278 96.5544 247.551 96.3464C247.641 96.2882 247.728 96.2235 247.809 96.1528C248.476 95.6506 249.122 95.1198 249.739 94.5603C254.419 90.3919 257.757 84.9296 259.331 78.8645C260.905 72.7994 260.644 66.404 258.58 60.4874ZM249.201 92.7096C248.424 93.4401 247.61 94.1297 246.761 94.7755C246.575 94.9189 246.381 95.0624 246.187 95.1915C246 95.335 245.814 95.4713 245.62 95.6004C245.455 95.7152 245.29 95.8299 245.118 95.9375C245.103 95.9519 245.082 95.959 245.068 95.9734C244.945 96.0595 244.816 96.1384 244.694 96.2173C244.314 96.454 243.919 96.6907 243.532 96.9131C243.438 96.9633 243.352 97.0207 243.259 97.0709C243.209 97.0996 243.159 97.1283 243.101 97.157C242.886 97.2789 242.67 97.3865 242.455 97.5013C242.427 97.5228 242.391 97.53 242.362 97.5515C242.351 97.5532 242.341 97.5582 242.333 97.5658C242.183 97.6448 242.032 97.7165 241.881 97.7882C241.752 97.8528 241.63 97.9173 241.501 97.9747C240.977 98.2258 240.439 98.4625 239.9 98.6848C239.333 98.9144 238.759 99.1224 238.178 99.3161C238.034 99.3663 237.884 99.4237 237.733 99.4667C237.051 99.6819 236.37 99.8757 235.673 100.033C234.288 100.37 232.88 100.608 231.461 100.744C230.528 100.83 229.581 100.873 228.634 100.873C227.715 100.873 226.803 100.837 225.892 100.751C224.266 100.602 222.656 100.319 221.077 99.9043C221.019 99.8899 220.955 99.8756 220.897 99.8613C219.602 99.5237 218.333 99.0922 217.101 98.5701C217.036 98.5414 216.965 98.5199 216.907 98.4912C216.835 98.4625 216.771 98.441 216.713 98.4123C216.642 98.3836 216.577 98.3549 216.513 98.3262C215.974 98.0895 215.45 97.8312 214.927 97.5658L214.682 97.4367C214.216 97.1928 213.757 96.9417 213.305 96.662C213.147 96.5759 212.982 96.4755 212.824 96.3751C212.644 96.2675 212.465 96.1527 212.293 96.0379C212.25 96.0092 212.207 95.9806 212.164 95.9519C211.762 95.6793 211.353 95.4067 210.965 95.1126C210.693 94.9117 210.427 94.7181 210.161 94.51C209.989 94.3809 209.817 94.2446 209.652 94.1012C209.544 94.0223 209.437 93.929 209.329 93.8358C209.185 93.7138 209.042 93.5919 208.898 93.4628C208.676 93.2834 208.468 93.0826 208.267 92.8961C207.459 92.1517 206.694 91.3614 205.977 90.5289C205.734 90.2563 205.504 89.9837 205.282 89.6968C205.23 89.6403 205.182 89.5804 205.138 89.5175C201.525 84.9586 199.318 79.4473 198.785 73.6558C198.252 67.8643 199.418 62.043 202.138 56.9022C204.859 51.7613 209.018 47.5232 214.108 44.7047C219.197 41.8862 224.998 40.6093 230.801 41.0297C236.604 41.4501 242.16 43.5497 246.789 47.0723C251.419 50.5949 254.923 55.3882 256.874 60.8674C258.825 66.3467 259.138 72.2751 257.776 77.9293C256.413 83.5835 253.434 88.7191 249.201 92.7096Z" fill="#3F3D56"/>
</g>
</g>
<defs>
<linearGradient id="paint0_linear_2367_10373" x1="0.667971" y1="-9.21699" x2="95.8919" y2="327.662" gradientUnits="userSpaceOnUse">
<stop offset="0.0164704" stop-color="#016A70"/>
<stop offset="0.453217" stop-color="#016A70"/>
<stop offset="1" stop-color="#67A6A9"/>
</linearGradient>
<clipPath id="clip0_2367_10373">
<rect x="0.667969" y="0.833984" width="388.667" height="233" rx="17.7273" fill="white"/>
</clipPath>
<clipPath id="clip1_2367_10373">
<rect width="428" height="241" fill="white" transform="translate(5.66797 -0.166016)"/>
</clipPath>
</defs>
</svg>
