<svg width="49" height="49" viewBox="0 0 49 49" fill="none" xmlns="http://www.w3.org/2000/svg">
<path d="M24.3818 2.83472C23.9951 2.82265 23.6186 2.9605 23.3311 3.21948C23.3311 3.21948 15.8232 9.83471 6.83301 9.83471C6.4352 9.83475 6.05369 9.9928 5.77239 10.2741C5.4911 10.5554 5.33305 10.9369 5.33301 11.3347V23.5945C5.33301 30.2725 8.42242 41.2611 23.751 47.7175C23.9352 47.7951 24.1331 47.835 24.333 47.835C24.5329 47.835 24.7308 47.7951 24.915 47.7175C40.2436 41.2611 43.333 30.2725 43.333 23.5945V11.3347C43.333 10.9369 43.1749 10.5554 42.8936 10.2741C42.6123 9.9928 42.2308 9.83475 41.833 9.83471C32.8428 9.83471 25.335 3.21948 25.335 3.21948C25.0725 2.98299 24.7349 2.84673 24.3818 2.83472ZM24.333 6.26245C26.396 7.92108 32.4443 12.1719 40.333 12.7097V23.5945C40.333 29.3367 38.1264 38.6004 24.333 44.6609C10.5396 38.6004 8.33301 29.3367 8.33301 23.5945V12.7097C16.2218 12.1719 22.27 7.92108 24.333 6.26245ZM24.333 12.8347C21.0371 12.8347 18.333 15.5388 18.333 18.8347V21.114C16.5966 21.7398 15.333 23.3947 15.333 25.3347V30.3347C15.333 32.8022 17.3655 34.8347 19.833 34.8347H28.833C31.3005 34.8347 33.333 32.8022 33.333 30.3347V25.3347C33.333 23.3947 32.0694 21.7398 30.333 21.114V18.8347C30.333 15.5388 27.6289 12.8347 24.333 12.8347ZM24.333 15.8347C26.0071 15.8347 27.333 17.1606 27.333 18.8347V20.8347H21.333V18.8347C21.333 17.1606 22.6589 15.8347 24.333 15.8347ZM19.833 23.8347H28.833C29.6795 23.8347 30.333 24.4882 30.333 25.3347V30.3347C30.333 31.1812 29.6795 31.8347 28.833 31.8347H19.833C18.9865 31.8347 18.333 31.1812 18.333 30.3347V25.3347C18.333 24.4882 18.9865 23.8347 19.833 23.8347ZM24.333 25.8347C23.8026 25.8347 23.2939 26.0454 22.9188 26.4205C22.5437 26.7956 22.333 27.3043 22.333 27.8347C22.333 28.3651 22.5437 28.8739 22.9188 29.2489C23.2939 29.624 23.8026 29.8347 24.333 29.8347C24.8634 29.8347 25.3721 29.624 25.7472 29.2489C26.1223 28.8739 26.333 28.3651 26.333 27.8347C26.333 27.3043 26.1223 26.7956 25.7472 26.4205C25.3721 26.0454 24.8634 25.8347 24.333 25.8347Z" fill="#212838"/>
</svg>
