<svg width="389" height="234" viewBox="0 0 389 234" fill="none" xmlns="http://www.w3.org/2000/svg">
<g clip-path="url(#clip0_2367_10464)">
<rect x="0.332031" y="0.833984" width="388.667" height="233" rx="17.7273" fill="url(#paint0_linear_2367_10464)" fill-opacity="0.1"/>
<g opacity="0.5" clip-path="url(#clip1_2367_10464)">
<path d="M229.704 69.2887C232.929 69.2887 235.544 66.6709 235.544 63.4417C235.544 60.2125 232.929 57.5947 229.704 57.5947C226.478 57.5947 223.863 60.2125 223.863 63.4417C223.863 66.6709 226.478 69.2887 229.704 69.2887Z" fill="#CFCFCF"/>
<path d="M378.432 76.3885H225.601C225.373 76.3888 225.146 76.3441 224.935 76.2568C224.724 76.1694 224.532 76.0412 224.37 75.8795C224.208 75.7178 224.08 75.5257 223.992 75.3143C223.904 75.1029 223.859 74.8763 223.859 74.6474C223.859 74.4185 223.904 74.1919 223.992 73.9804C224.08 73.769 224.208 73.5769 224.37 73.4152C224.532 73.2535 224.724 73.1253 224.935 73.038C225.146 72.9506 225.373 72.9059 225.601 72.9063H378.432C378.917 72.9333 379.374 73.1406 379.713 73.4876C380.053 73.8346 380.251 74.2962 380.268 74.7817C380.254 75.0082 380.195 75.2296 380.094 75.4331C379.994 75.6367 379.855 75.8184 379.684 75.9678C379.514 76.1172 379.315 76.2312 379.1 76.3034C378.885 76.3756 378.658 76.4045 378.432 76.3885Z" fill="#CFCFCF"/>
<path d="M338.351 83.2686H225.603C225.141 83.2686 224.699 83.0851 224.373 82.7585C224.047 82.432 223.863 81.9891 223.863 81.5273C223.863 81.0655 224.047 80.6227 224.373 80.2961C224.699 79.9696 225.141 79.7861 225.603 79.7861H338.351C338.812 79.7861 339.254 79.9696 339.581 80.2961C339.907 80.6227 340.09 81.0655 340.09 81.5273C340.09 81.9891 339.907 82.432 339.581 82.7585C339.254 83.0851 338.812 83.2686 338.351 83.2686Z" fill="#CFCFCF"/>
<path d="M229.704 20.2174C232.929 20.2174 235.544 17.5997 235.544 14.3704C235.544 11.1412 232.929 8.52344 229.704 8.52344C226.478 8.52344 223.863 11.1412 223.863 14.3704C223.863 17.5997 226.478 20.2174 229.704 20.2174Z" fill="#CFCFCF"/>
<path d="M378.433 27.3172H225.602C225.141 27.3172 224.699 27.1338 224.373 26.8072C224.047 26.4807 223.863 26.0379 223.863 25.5761C223.863 25.1143 224.047 24.6714 224.373 24.3449C224.699 24.0184 225.141 23.835 225.602 23.835H378.433C378.894 23.835 379.337 24.0184 379.663 24.3449C379.989 24.6714 380.172 25.1143 380.172 25.5761C380.172 26.0379 379.989 26.4807 379.663 26.8072C379.337 27.1338 378.894 27.3172 378.433 27.3172Z" fill="#CFCFCF"/>
<path d="M357.151 34.1972H225.603C225.141 34.1972 224.699 34.0138 224.373 33.6873C224.047 33.3607 223.863 32.9178 223.863 32.4561C223.863 31.9943 224.047 31.5514 224.373 31.2248C224.699 30.8983 225.141 30.7148 225.603 30.7148H357.151C357.612 30.7148 358.054 30.8983 358.38 31.2248C358.707 31.5514 358.89 31.9943 358.89 32.4561C358.89 32.9178 358.707 33.3607 358.38 33.6873C358.054 34.0138 357.612 34.1972 357.151 34.1972Z" fill="#CFCFCF"/>
<path d="M348.222 41.0771H225.603C225.141 41.0771 224.699 40.8937 224.373 40.5672C224.047 40.2406 223.863 39.7977 223.863 39.3359C223.863 38.8741 224.047 38.4313 224.373 38.1047C224.699 37.7782 225.141 37.5947 225.603 37.5947H348.222C348.683 37.5947 349.126 37.7782 349.452 38.1047C349.778 38.4313 349.961 38.8741 349.961 39.3359C349.961 39.7977 349.778 40.2406 349.452 40.5672C349.126 40.8937 348.683 41.0771 348.222 41.0771Z" fill="#CFCFCF"/>
<path opacity="0.2" d="M350.76 118.052C374.647 118.052 394.012 98.6663 394.012 74.7523C394.012 50.8383 374.647 31.4521 350.76 31.4521C326.872 31.4521 307.508 50.8383 307.508 74.7523C307.508 98.6663 326.872 118.052 350.76 118.052Z" fill="#016A70"/>
<path opacity="0.2" d="M350.698 89.8597C354.111 89.8597 356.877 87.0903 356.877 83.674C356.877 80.2577 354.111 77.4883 350.698 77.4883C347.286 77.4883 344.52 80.2577 344.52 83.674C344.52 87.0903 347.286 89.8597 350.698 89.8597Z" fill="#3F3D56"/>
<path opacity="0.2" d="M350.699 86.5292C352.274 86.5292 353.551 85.251 353.551 83.6743C353.551 82.0975 352.274 80.8193 350.699 80.8193C349.124 80.8193 347.848 82.0975 347.848 83.6743C347.848 85.251 349.124 86.5292 350.699 86.5292Z" fill="#016A70"/>
<path opacity="0.2" d="M362.168 97.4439H339.347C337.088 97.4414 334.921 96.5417 333.323 94.9421C331.726 93.3426 330.827 91.1738 330.824 88.9117V78.4369C330.827 76.1747 331.726 74.0059 333.323 72.4063C334.921 70.8067 337.088 69.9069 339.347 69.9043H362.168C364.428 69.9069 366.594 70.8068 368.192 72.4064C369.79 74.006 370.688 76.1748 370.691 78.4369V88.9117C370.688 91.1738 369.79 93.3425 368.192 94.9421C366.594 96.5416 364.428 97.4414 362.168 97.4439ZM339.347 70.7977C337.324 70.8 335.385 71.6056 333.954 73.0377C332.524 74.4699 331.719 76.4116 331.717 78.4369V88.9117C331.719 90.937 332.524 92.8786 333.954 94.3107C335.385 95.7428 337.324 96.5483 339.347 96.5505H362.168C364.191 96.5483 366.131 95.7428 367.561 94.3107C368.992 92.8786 369.796 90.937 369.799 88.9117V78.4369C369.796 76.4116 368.992 74.4699 367.561 73.0378C366.131 71.6056 364.191 70.8 362.168 70.7977L339.347 70.7977Z" fill="white"/>
<path opacity="0.2" d="M337.996 91.7579H358.252C359.303 91.7579 360.344 91.5506 361.315 91.1478C362.287 90.745 363.169 90.1546 363.913 89.4104C364.656 88.6661 365.246 87.7826 365.648 86.8102C366.051 85.8377 366.258 84.7955 366.258 83.743V74.9772C366.256 74.0051 366.077 73.0415 365.73 72.1338C366.718 72.8787 367.52 73.8433 368.072 74.9514C368.624 76.0596 368.911 77.281 368.911 78.5194V87.2852C368.911 88.3378 368.704 89.38 368.302 90.3524C367.9 91.3248 367.31 92.2084 366.566 92.9526C365.823 93.6969 364.94 94.2873 363.969 94.69C362.998 95.0928 361.957 95.3001 360.905 95.3001H340.65C339.026 95.2993 337.442 94.8041 336.106 93.8804C334.771 92.9567 333.747 91.6482 333.172 90.1286C334.558 91.1858 336.253 91.7582 337.996 91.7579Z" fill="#3F3D56"/>
<path opacity="0.2" d="M351.109 51.2744C346.879 51.2744 343.16 53.1917 341.055 56.0696C343.305 54.4297 346.023 53.5568 348.807 53.5795C355.357 53.5795 360.687 58.1735 360.687 63.8203V68.5141H362.99V61.5152C362.99 55.8684 357.66 51.2744 351.109 51.2744Z" fill="#3F3D56"/>
<path opacity="0.2" d="M364.573 70.9163H336.945V62.7784C336.945 56.2127 343.142 50.8711 350.759 50.8711C358.376 50.8711 364.573 56.2127 364.573 62.7784V70.9163ZM337.838 70.0229H363.681V62.7784C363.681 56.7052 357.884 51.7645 350.759 51.7645C343.634 51.7645 337.838 56.7052 337.838 62.7784V70.0229Z" fill="white"/>
<path opacity="0.2" d="M357.834 67.81H343.682C343.046 67.8093 342.435 67.5558 341.985 67.1051C341.535 66.6544 341.282 66.0433 341.281 65.4059V62.1674C341.281 57.652 345.533 53.9785 350.758 53.9785C355.984 53.9785 360.235 57.652 360.235 62.1674V65.4059C360.234 66.0433 359.981 66.6544 359.531 67.1051C359.081 67.5558 358.47 67.8093 357.834 67.81ZM350.758 54.8719C346.025 54.8719 342.174 58.1445 342.174 62.1674V65.4059C342.174 65.8064 342.333 66.1904 342.616 66.4736C342.899 66.7568 343.282 66.9161 343.682 66.9166H357.834C358.234 66.9161 358.617 66.7568 358.9 66.4736C359.183 66.1904 359.342 65.8064 359.342 65.4059V62.1674C359.342 58.1445 355.492 54.8719 350.758 54.8719Z" fill="white"/>
</g>
</g>
<defs>
<linearGradient id="paint0_linear_2367_10464" x1="226.499" y1="-248.166" x2="594.437" y2="171.012" gradientUnits="userSpaceOnUse">
<stop offset="0.0164704" stop-color="#FFA800"/>
<stop offset="0.504847" stop-color="#016A70"/>
<stop offset="1" stop-color="#67A6A9"/>
</linearGradient>
<clipPath id="clip0_2367_10464">
<rect x="0.332031" y="0.833984" width="388.667" height="233" rx="17.7273" fill="white"/>
</clipPath>
<clipPath id="clip1_2367_10464">
<rect width="267" height="232" fill="white" transform="translate(214 -70.166)"/>
</clipPath>
</defs>
</svg>
