<svg width="48" height="48" viewBox="0 0 48 48" fill="none" xmlns="http://www.w3.org/2000/svg">
<path d="M12.5312 3.0293C6.74125 3.0293 2.03125 7.7393 2.03125 13.5293V26.5293C2.03125 28.8193 3.23125 30.84 5.03125 32V13.5293C5.03125 9.3893 8.39125 6.0293 12.5312 6.0293H37.002C35.842 4.2293 33.8213 3.0293 31.5312 3.0293H12.5312ZM13.502 8C9.92195 8 7.00195 10.92 7.00195 14.5V31.5C7.00195 35.08 9.92195 38 13.502 38H22.3516C22.1216 37.04 22.002 36.03 22.002 35H13.502C11.572 35 10.002 33.43 10.002 31.5V18.0273L24.2832 25.8164C24.5037 25.9367 24.7508 25.9998 25.002 25.9998C25.2531 25.9998 25.5002 25.9367 25.7207 25.8164L40.002 18.0273V23C41.082 23.45 42.092 24.0398 43.002 24.7598V14.5C43.002 10.92 40.082 8 36.502 8H13.502ZM13.502 11H36.502C38.432 11 40.002 12.57 40.002 14.5V14.6094L25.002 22.791L10.002 14.6094V14.5C10.002 12.57 11.572 11 13.502 11ZM35.002 24C28.927 24 24.002 28.925 24.002 35C24.002 41.075 28.927 46 35.002 46C41.077 46 46.002 41.075 46.002 35C46.002 28.925 41.077 24 35.002 24ZM35.002 27C35.554 27 36.002 27.448 36.002 28V34H42.002C42.554 34 43.002 34.448 43.002 35C43.002 35.552 42.554 36 42.002 36H36.002V42C36.002 42.552 35.554 43 35.002 43C34.45 43 34.002 42.552 34.002 42V36H28.002C27.45 36 27.002 35.552 27.002 35C27.002 34.448 27.45 34 28.002 34H34.002V28C34.002 27.448 34.45 27 35.002 27Z" fill="#212838"/>
</svg>
