<svg width="389" height="257" viewBox="0 0 389 257" fill="none" xmlns="http://www.w3.org/2000/svg">
<g clip-path="url(#clip0_2394_5759)">
<rect width="388.667" height="256.667" rx="17.7273" fill="url(#paint0_linear_2394_5759)" fill-opacity="0.1"/>
<g opacity="0.15" clip-path="url(#clip1_2394_5759)">
<path d="M392.034 35.5059H391.978L359.747 49.3015L315.649 68.1769C315.477 68.2496 315.292 68.2875 315.105 68.2884C314.918 68.2894 314.733 68.2534 314.56 68.1826L269.063 49.2621L236.041 35.5284L235.99 35.5059H235.934C235.413 35.5064 234.913 35.7142 234.545 36.0835C234.177 36.4528 233.969 36.9536 233.969 37.4759V123.03C233.969 123.552 234.177 124.053 234.545 124.423C234.913 124.792 235.413 125 235.934 125H392.034C392.555 125 393.055 124.792 393.423 124.423C393.792 124.053 393.999 123.552 394 123.03V37.4759C393.999 36.9536 393.792 36.4528 393.423 36.0835C393.055 35.7142 392.555 35.5064 392.034 35.5059Z" fill="white"/>
<path d="M392.595 36.0685C392.538 36.0685 392.482 36.0509 392.435 36.0181L314.789 -18.1861C314.553 -18.3503 314.272 -18.438 313.984 -18.4375C313.697 -18.437 313.416 -18.3483 313.181 -18.1833L236.094 36.0175C236.064 36.0388 236.03 36.0538 235.994 36.0618C235.958 36.0699 235.921 36.0707 235.885 36.0643C235.848 36.0579 235.814 36.0444 235.782 36.0246C235.751 36.0048 235.724 35.979 235.703 35.9487C235.682 35.9185 235.667 35.8843 235.659 35.8482C235.651 35.8121 235.65 35.7748 235.657 35.7384C235.663 35.702 235.676 35.6672 235.696 35.636C235.716 35.6048 235.742 35.5779 235.772 35.5566L312.858 -18.6442C313.188 -18.8752 313.581 -18.9993 313.983 -19C314.386 -19.0007 314.779 -18.8778 315.11 -18.6479L392.755 35.5561C392.805 35.5903 392.841 35.6394 392.861 35.6961C392.88 35.7528 392.881 35.8143 392.863 35.8714C392.845 35.9286 392.809 35.9785 392.761 36.014C392.713 36.0494 392.655 36.0685 392.595 36.0685Z" fill="#3F3D56"/>
<path d="M240.5 37.9895L314.061 -16.6592L388.181 41.878L317.851 83.6702L279.669 74.9459L240.5 37.9895Z" fill="#E6E6E6"/>
<path d="M282.893 109.484H246.552C246.328 109.484 246.107 109.44 245.901 109.355C245.695 109.27 245.508 109.144 245.35 108.986C245.192 108.828 245.066 108.64 244.981 108.434C244.896 108.227 244.852 108.006 244.852 107.782C244.852 107.558 244.896 107.337 244.981 107.13C245.066 106.924 245.192 106.736 245.35 106.578C245.508 106.42 245.695 106.294 245.901 106.209C246.107 106.124 246.328 106.08 246.552 106.08H282.893C283.116 106.08 283.337 106.124 283.543 106.209C283.749 106.294 283.937 106.42 284.095 106.578C284.253 106.736 284.378 106.924 284.463 107.13C284.549 107.337 284.593 107.558 284.593 107.782C284.593 108.006 284.549 108.227 284.463 108.434C284.378 108.64 284.253 108.828 284.095 108.986C283.937 109.144 283.749 109.27 283.543 109.355C283.337 109.44 283.116 109.484 282.893 109.484Z" fill="#016A70"/>
<path d="M259.59 102.167H246.552C246.328 102.167 246.107 102.123 245.901 102.038C245.695 101.952 245.508 101.827 245.35 101.669C245.192 101.511 245.066 101.323 244.981 101.116C244.896 100.91 244.852 100.688 244.852 100.465C244.852 100.241 244.896 100.019 244.981 99.8128C245.066 99.6062 245.192 99.4185 245.35 99.2604C245.508 99.1023 245.695 98.977 245.901 98.8916C246.107 98.8062 246.328 98.7624 246.552 98.7627H259.59C259.813 98.7624 260.034 98.8062 260.24 98.8916C260.447 98.977 260.634 99.1023 260.792 99.2604C260.95 99.4185 261.075 99.6062 261.161 99.8128C261.246 100.019 261.29 100.241 261.29 100.465C261.29 100.688 261.246 100.91 261.161 101.116C261.075 101.323 260.95 101.511 260.792 101.669C260.634 101.827 260.447 101.952 260.24 102.038C260.034 102.123 259.813 102.167 259.59 102.167Z" fill="#016A70"/>
<path d="M315.095 68.4284C314.819 68.4287 314.545 68.375 314.289 68.2703L268.922 49.4008V-9.66379C268.922 -10.1861 269.13 -10.6868 269.498 -11.0561C269.867 -11.4254 270.366 -11.6332 270.887 -11.6338H357.922C358.443 -11.6332 358.942 -11.4254 359.311 -11.0561C359.679 -10.6868 359.886 -10.1861 359.887 -9.66379V49.442L359.802 49.4786L315.925 68.261C315.662 68.3717 315.38 68.4286 315.095 68.4284Z" fill="white"/>
<path d="M315.095 68.5691C314.8 68.5694 314.508 68.5122 314.236 68.4006L268.781 49.4949V-9.6637C268.782 -10.2233 269.004 -10.7598 269.399 -11.1555C269.793 -11.5512 270.329 -11.7738 270.887 -11.7744H357.921C358.48 -11.7738 359.015 -11.5512 359.41 -11.1555C359.804 -10.7598 360.026 -10.2233 360.027 -9.6637V49.535L315.98 68.3904C315.7 68.5086 315.399 68.5694 315.095 68.5691ZM269.343 49.1189L314.45 67.8802C314.871 68.0513 315.342 68.0485 315.76 67.8724L359.465 49.1634V-9.6637C359.465 -10.0741 359.302 -10.4675 359.013 -10.7577C358.723 -11.0478 358.331 -11.2111 357.921 -11.2116H270.887C270.478 -11.2111 270.085 -11.0478 269.796 -10.7577C269.506 -10.4675 269.343 -10.0741 269.343 -9.6637V49.1189Z" fill="#3F3D56"/>
<path d="M392.034 35.5059H391.978L359.747 49.3015L315.649 68.1769C315.477 68.2496 315.292 68.2875 315.105 68.2884C314.918 68.2894 314.733 68.2534 314.56 68.1826L269.063 49.2621L236.041 35.5284L235.99 35.5059H235.934C235.413 35.5064 234.913 35.7142 234.545 36.0835C234.177 36.4528 233.969 36.9536 233.969 37.4759V123.03C233.969 123.552 234.177 124.053 234.545 124.423C234.913 124.792 235.413 125 235.934 125H392.034C392.555 125 393.055 124.792 393.423 124.423C393.792 124.053 393.999 123.552 394 123.03V37.4759C393.999 36.9536 393.792 36.4528 393.423 36.0835C393.055 35.7142 392.555 35.5064 392.034 35.5059ZM393.438 123.03C393.438 123.403 393.29 123.761 393.027 124.025C392.764 124.289 392.407 124.437 392.034 124.437H235.934C235.562 124.437 235.205 124.289 234.942 124.025C234.678 123.761 234.53 123.403 234.53 123.03V37.4759C234.531 37.112 234.672 36.7624 234.923 36.5001C235.175 36.2379 235.518 36.0833 235.881 36.0687L269.063 49.87L314.344 68.7032C314.834 68.9031 315.383 68.9001 315.871 68.6947L359.747 49.9122L392.091 36.0687C392.453 36.0844 392.795 36.2394 393.046 36.5015C393.297 36.7636 393.437 37.1126 393.438 37.4759V123.03Z" fill="#3F3D56"/>
<path d="M308.032 10.4452H277.148C276.553 10.4452 275.981 10.208 275.56 9.78582C275.139 9.36359 274.902 8.79093 274.902 8.19381C274.902 7.5967 275.139 7.02403 275.56 6.60181C275.981 6.17958 276.553 5.94238 277.148 5.94238H308.032C308.627 5.94238 309.199 6.17958 309.62 6.60181C310.041 7.02403 310.278 7.5967 310.278 8.19381C310.278 8.79093 310.041 9.36359 309.62 9.78582C309.199 10.208 308.627 10.4452 308.032 10.4452Z" fill="#016A70"/>
<path d="M292.028 0.875906H277.148C276.553 0.875906 275.981 0.638705 275.56 0.21648C275.139 -0.205745 274.902 -0.778407 274.902 -1.37552C274.902 -1.97264 275.139 -2.5453 275.56 -2.96752C275.981 -3.38975 276.553 -3.62695 277.148 -3.62695H292.028C292.624 -3.62695 293.195 -3.38975 293.617 -2.96752C294.038 -2.5453 294.275 -1.97264 294.275 -1.37552C294.275 -0.778407 294.038 -0.205745 293.617 0.21648C293.195 0.638705 292.624 0.875906 292.028 0.875906Z" fill="#016A70"/>
<path d="M337.503 32.9589H290.336C289.74 32.9589 289.169 32.7217 288.748 32.2995C288.326 31.8773 288.09 31.3046 288.09 30.7075C288.09 30.1104 288.326 29.5377 288.748 29.1155C289.169 28.6933 289.74 28.4561 290.336 28.4561H337.503C338.099 28.4561 338.67 28.6933 339.091 29.1155C339.512 29.5377 339.749 30.1104 339.749 30.7075C339.749 31.3046 339.512 31.8773 339.091 32.2995C338.67 32.7217 338.099 32.9589 337.503 32.9589Z" fill="#CCCCCC"/>
<path d="M337.503 43.372H290.336C289.74 43.372 289.169 43.1348 288.748 42.7126C288.326 42.2903 288.09 41.7177 288.09 41.1206C288.09 40.5235 288.326 39.9508 288.748 39.5286C289.169 39.1063 289.74 38.8691 290.336 38.8691H337.503C338.099 38.8691 338.67 39.1063 339.091 39.5286C339.512 39.9508 339.749 40.5235 339.749 41.1206C339.749 41.7177 339.512 42.2903 339.091 42.7126C338.67 43.1348 338.099 43.372 337.503 43.372Z" fill="#CCCCCC"/>
</g>
</g>
<defs>
<linearGradient id="paint0_linear_2394_5759" x1="-1.13592e-06" y1="-11.0719" x2="498.519" y2="113.559" gradientUnits="userSpaceOnUse">
<stop offset="0.0164704" stop-color="#9747FF"/>
<stop offset="0.453217" stop-color="#016A70"/>
<stop offset="1" stop-color="#67A6A9"/>
</linearGradient>
<clipPath id="clip0_2394_5759">
<rect width="388.667" height="256.667" rx="17.7273" fill="white"/>
</clipPath>
<clipPath id="clip1_2394_5759">
<rect width="208" height="144" fill="white" transform="translate(186 -19)"/>
</clipPath>
</defs>
</svg>
