<svg width="20" height="21" viewBox="0 0 20 21" fill="none" xmlns="http://www.w3.org/2000/svg">
<g clip-path="url(#clip0_1849_12137)">
<path d="M15.3465 3.95426L12.6126 1.2203C12.2964 0.904146 11.7858 0.897129 11.461 1.20462L7.0918 5.34436V7.25615H15.3465V3.95426Z" fill="url(#paint0_linear_1849_12137)"/>
<path d="M9.08062 0.471851C8.77768 0.168903 8.28817 0.1623 7.97738 0.456993L4.61523 3.64208V6.25593H13.2827V4.67392L9.08062 0.471851Z" fill="url(#paint1_linear_1849_12137)"/>
<path d="M15.761 3.54102H4.20438C3.7483 3.54102 3.37891 3.91041 3.37891 4.36649V4.77922H16.5865V4.36649C16.5865 3.91041 16.2171 3.54102 15.761 3.54102Z" fill="#67A6A9"/>
<path d="M15.9674 4.7793H3.99805L4.66957 17.2059C4.69309 17.6439 5.05506 17.9868 5.4938 17.9868H14.4716C14.9104 17.9868 15.2723 17.6439 15.2959 17.2059L15.9674 4.7793Z" fill="url(#paint2_linear_1849_12137)"/>
<path opacity="0.05" d="M14.1088 12.2172L13.3514 10.9109C13.2412 10.7206 13.0356 10.6026 12.8152 10.6026C12.7438 10.6026 12.6749 10.6195 12.608 10.6434C12.6357 10.5951 12.6634 10.546 12.6786 10.4907L13.0641 9.07874C13.1037 8.9281 13.0728 8.77456 12.9803 8.65445C12.8883 8.53517 12.7438 8.46377 12.594 8.46377C12.5094 8.46377 12.426 8.48606 12.3521 8.52815L12.069 8.68995L11.4123 7.55203C11.1135 7.03488 10.579 6.72656 9.98222 6.72656C9.92278 6.72656 9.86294 6.72945 9.80268 6.73606C9.28346 6.79012 8.80014 7.12238 8.5104 7.62468L7.538 9.30946C7.37538 9.59136 7.46247 9.94755 7.72744 10.1283C7.69814 10.1242 7.6709 10.1139 7.64077 10.1139C7.58175 10.1139 7.52273 10.1217 7.46535 10.1374L6.05297 10.5213C5.86229 10.5728 5.72278 10.733 5.69761 10.9295C5.67243 11.1255 5.76736 11.3158 5.93865 11.414L6.22591 11.5783L5.85527 12.218C5.52467 12.788 5.5614 13.4764 5.95185 14.0138C6.25769 14.434 6.78682 14.6862 7.36712 14.6862H9.17821C9.51954 14.6862 9.79731 14.4088 9.79731 14.0679V13.98C9.82084 14.1096 9.88151 14.2334 9.98098 14.3333L11.0153 15.3688C11.1073 15.4609 11.2295 15.5116 11.3591 15.5116C11.6278 15.5116 11.8465 15.2933 11.8465 15.0246V14.6862H12.5961C13.1764 14.6862 13.7055 14.4344 14.0122 14.0122C14.4026 13.4752 14.4394 12.7872 14.1088 12.2172ZM9.79731 13.741V13.6568C9.79731 13.3159 9.51954 13.0385 9.17821 13.0385H7.28416L7.65769 12.3959L7.95899 12.568C8.03287 12.6101 8.11624 12.6324 8.20085 12.6324C8.35109 12.6324 8.49554 12.561 8.58758 12.4417C8.68045 12.3212 8.7114 12.1681 8.67261 12.0207L8.28629 10.605C8.26317 10.5204 8.22066 10.4466 8.16948 10.3793C8.25203 10.4181 8.34077 10.4428 8.43198 10.4428C8.65238 10.4428 8.85793 10.3244 8.96854 10.1333L9.98181 8.37668L10.6356 9.50923L10.3318 9.68299C10.1601 9.78122 10.0656 9.97149 10.0908 10.1675C10.1159 10.3636 10.2554 10.5237 10.4461 10.5757L11.8585 10.9596C11.9159 10.9753 11.9749 10.9831 12.0339 10.9831C12.0381 10.9831 12.0414 10.981 12.0455 10.981C11.9605 11.0595 11.8907 11.1519 11.8602 11.2662C11.8172 11.426 11.8395 11.5927 11.9225 11.7359L12.6799 13.0427L11.847 13.0406V12.6976C11.847 12.4289 11.6282 12.2102 11.3591 12.2102C11.2307 12.2102 11.1098 12.2597 11.0182 12.3501L9.98139 13.3881C9.8811 13.4876 9.82043 13.6114 9.79731 13.741Z" fill="#020203"/>
<g opacity="0.07">
<path d="M9.17897 13.2442H7.28492C7.18628 13.2442 7.13303 13.1885 7.10579 13.1415C7.07938 13.0952 7.0575 13.0218 7.10621 12.9376L7.58333 12.1146L8.0621 12.3882C8.10461 12.4126 8.1529 12.4254 8.20119 12.4254C8.28787 12.4254 8.37124 12.3841 8.42407 12.3152C8.47731 12.2458 8.49506 12.1575 8.47277 12.0729L8.08687 10.6593C8.03197 10.4587 7.84872 10.3184 7.6407 10.3184C7.59984 10.3184 7.55898 10.3237 7.51935 10.3345L6.10697 10.7183C5.99718 10.748 5.9167 10.8405 5.90226 10.9536C5.88781 11.0666 5.94229 11.176 6.04135 11.2326L6.50856 11.5L6.03392 12.3193C5.745 12.8179 5.7772 13.4201 6.11894 13.8902C6.38681 14.2587 6.85361 14.4791 7.36788 14.4791H9.17897C9.40638 14.4791 9.5917 14.2942 9.5917 14.0672V13.6562C9.5917 13.4291 9.40638 13.2442 9.17897 13.2442Z" fill="#020203"/>
<path d="M10.1616 8.27344L10.9185 9.58512L10.4348 9.86165C10.3357 9.9182 10.2812 10.028 10.2957 10.1407C10.3101 10.2538 10.3906 10.3458 10.5004 10.3759L11.9128 10.7598C11.9524 10.7705 11.9933 10.7759 12.0341 10.7759C12.2422 10.7759 12.4254 10.6355 12.4803 10.4349L12.8658 9.02297C12.8885 8.9363 12.8708 8.84797 12.8175 8.77905C12.7643 8.71012 12.6809 8.66885 12.5946 8.66885C12.5459 8.66885 12.4981 8.68164 12.4551 8.70599L11.9937 8.97014L11.2343 7.65393C10.973 7.20157 10.505 6.93164 9.98284 6.93164C9.93042 6.93164 9.87801 6.93453 9.82476 6.9399C9.37117 6.98736 8.94646 7.28123 8.68974 7.72657L7.71733 9.41136C7.60342 9.60865 7.67152 9.86124 7.8684 9.97516L8.22583 10.1815C8.28856 10.2178 8.35996 10.2368 8.43178 10.2368C8.57871 10.2368 8.71574 10.1576 8.78962 10.0305L9.80371 8.27344C9.85283 8.18801 9.92795 8.17026 9.98243 8.17026C10.0369 8.17026 10.1124 8.18801 10.1616 8.27344Z" fill="#020203"/>
<path d="M13.9301 12.3209L13.1727 11.0141C13.0993 10.8874 12.9622 10.8086 12.8153 10.8086C12.7431 10.8086 12.6721 10.8276 12.6093 10.8635L12.2519 11.069C12.1562 11.1239 12.0876 11.2131 12.0592 11.3196C12.0307 11.4256 12.0455 11.5367 12.1009 11.632L12.8582 12.9387C12.9069 13.0229 12.8851 13.0964 12.8582 13.1434C12.8314 13.1893 12.7786 13.2454 12.6795 13.2454H11.6402V12.6973C11.6402 12.5425 11.5139 12.4162 11.3588 12.4162C11.2849 12.4162 11.2155 12.4447 11.1627 12.4967L10.1272 13.5335C9.9472 13.7138 9.9472 14.0069 10.1272 14.1873L11.1615 15.2228C11.2143 15.276 11.2849 15.3054 11.3592 15.3054C11.5144 15.3054 11.6402 15.1795 11.6402 15.0247V14.4799H12.5961C13.1104 14.4799 13.5772 14.2599 13.8451 13.8913C14.1868 13.4208 14.2194 12.819 13.9301 12.3209Z" fill="#020203"/>
</g>
<path d="M9.17882 13.4508H7.28477C7.06974 13.4508 6.96325 13.3072 6.92734 13.2453C6.89185 13.1834 6.82003 13.0195 6.92776 12.8342L7.50765 11.8337L8.16431 12.2093C8.22168 12.2423 8.2902 12.1891 8.27369 12.126L7.88819 10.714C7.85105 10.5778 7.7103 10.4973 7.5741 10.5344L6.16172 10.9183C6.09816 10.9356 6.08701 11.0215 6.14438 11.0545L6.79197 11.4247L6.2129 12.4235C5.96691 12.8478 5.99085 13.3629 6.28636 13.7699C6.5307 14.1063 6.95004 14.273 7.36773 14.273H9.17882C9.29273 14.273 9.38518 14.181 9.38518 14.0675V13.6564C9.38518 13.5429 9.29273 13.4508 9.17882 13.4508Z" fill="white"/>
<path d="M10.3399 8.16975L11.2004 9.66097L10.5368 10.0407C10.4794 10.0737 10.4905 10.1596 10.5541 10.1769L11.9665 10.5607C12.1027 10.5979 12.2434 10.5174 12.2806 10.3812L12.6661 8.96922C12.6826 8.90607 12.6145 8.85283 12.5567 8.88585L11.9165 9.25195L11.0543 7.75784C10.8075 7.33108 10.3465 7.09375 9.84502 7.14576C9.42981 7.18909 9.0761 7.46852 8.86725 7.83007L7.89485 9.51486C7.83789 9.6135 7.87173 9.7398 7.97038 9.79676L8.3278 10.0031C8.42645 10.0601 8.55275 10.0262 8.6097 9.9276L9.6238 8.17058C9.73152 7.98444 9.90941 7.96421 9.98123 7.96421C10.053 7.96421 10.2322 7.98361 10.3399 8.16975Z" fill="white"/>
<path d="M13.7527 12.4232L12.9953 11.1165C12.9383 11.0182 12.812 10.9844 12.7134 11.0413L12.356 11.2469C12.2573 11.3034 12.2235 11.4293 12.2804 11.5275L13.0378 12.8343C13.1455 13.0196 13.0737 13.1834 13.0382 13.2454C13.0023 13.3073 12.8954 13.4509 12.6808 13.4509H11.4352V12.6964C11.4352 12.6304 11.3551 12.5974 11.3084 12.6432L10.2741 13.6787C10.1742 13.7786 10.1742 13.9408 10.2741 14.0407L11.3084 15.0762C11.3551 15.1229 11.4352 15.0899 11.4352 15.0238V14.2727H12.5974C13.0151 14.2727 13.4344 14.1063 13.6792 13.7691C13.9743 13.3626 13.9987 12.8475 13.7527 12.4232Z" fill="white"/>
<path d="M9.17882 13.4508H7.28477C7.06974 13.4508 6.96325 13.3072 6.92734 13.2453C6.89185 13.1834 6.82003 13.0195 6.92776 12.8342L7.50765 11.8337L8.16431 12.2093C8.22168 12.2423 8.2902 12.1891 8.27369 12.126L7.88819 10.714C7.85105 10.5778 7.7103 10.4973 7.5741 10.5344L6.16172 10.9183C6.09816 10.9356 6.08701 11.0215 6.14438 11.0545L6.79197 11.4247L6.2129 12.4235C5.96691 12.8478 5.99085 13.3629 6.28636 13.7699C6.5307 14.1063 6.95004 14.273 7.36773 14.273H9.17882C9.29273 14.273 9.38518 14.181 9.38518 14.0675V13.6564C9.38518 13.5429 9.29273 13.4508 9.17882 13.4508Z" fill="white"/>
<path d="M10.3399 8.16975L11.2004 9.66097L10.5368 10.0407C10.4794 10.0737 10.4905 10.1596 10.5541 10.1769L11.9665 10.5607C12.1027 10.5979 12.2434 10.5174 12.2806 10.3812L12.6661 8.96922C12.6826 8.90607 12.6145 8.85283 12.5567 8.88585L11.9165 9.25195L11.0543 7.75784C10.8075 7.33108 10.3465 7.09375 9.84502 7.14576C9.42981 7.18909 9.0761 7.46852 8.86725 7.83007L7.89485 9.51486C7.83789 9.6135 7.87173 9.7398 7.97038 9.79676L8.3278 10.0031C8.42645 10.0601 8.55275 10.0262 8.6097 9.9276L9.6238 8.17058C9.73152 7.98444 9.90941 7.96421 9.98123 7.96421C10.053 7.96421 10.2322 7.98361 10.3399 8.16975Z" fill="white"/>
<path d="M13.7527 12.4232L12.9953 11.1165C12.9383 11.0182 12.812 10.9844 12.7134 11.0413L12.356 11.2469C12.2573 11.3034 12.2235 11.4293 12.2804 11.5275L13.0378 12.8343C13.1455 13.0196 13.0737 13.1834 13.0382 13.2454C13.0023 13.3073 12.8954 13.4509 12.6808 13.4509H11.4352V12.6964C11.4352 12.6304 11.3551 12.5974 11.3084 12.6432L10.2741 13.6787C10.1742 13.7786 10.1742 13.9408 10.2741 14.0407L11.3084 15.0762C11.3551 15.1229 11.4352 15.0899 11.4352 15.0238V14.2727H12.5974C13.0151 14.2727 13.4344 14.1063 13.6792 13.7691C13.9743 13.3626 13.9987 12.8475 13.7527 12.4232Z" fill="white"/>
</g>
<defs>
<linearGradient id="paint0_linear_1849_12137" x1="7.0918" y1="4.11729" x2="15.3465" y2="4.11729" gradientUnits="userSpaceOnUse">
<stop stop-color="#EBA601"/>
<stop offset="1" stop-color="#C18310"/>
</linearGradient>
<linearGradient id="paint1_linear_1849_12137" x1="4.61523" y1="3.24833" x2="13.2827" y2="3.24833" gradientUnits="userSpaceOnUse">
<stop stop-color="#FFD056"/>
<stop offset="0.293" stop-color="#FCCB4E"/>
<stop offset="0.719" stop-color="#F5BE38"/>
<stop offset="1" stop-color="#EFB423"/>
</linearGradient>
<linearGradient id="paint2_linear_1849_12137" x1="6.81002" y1="3.70371" x2="13.0312" y2="16.7573" gradientUnits="userSpaceOnUse">
<stop stop-color="#67A6A9"/>
<stop offset="1" stop-color="#016A70"/>
</linearGradient>
<clipPath id="clip0_1849_12137">
<rect width="19.8113" height="19.8113" fill="white" transform="translate(0.0761719 0.240234)"/>
</clipPath>
</defs>
</svg>
