<svg width="21" height="21" viewBox="0 0 21 21" fill="none" xmlns="http://www.w3.org/2000/svg">
<path d="M11.2812 1.44922V3.95494H13.2888C13.4725 3.95494 13.5649 3.73247 13.4349 3.60246L11.2812 1.44922Z" fill="#67A6A9"/>
<path d="M11.2812 18.8436V16.3379H13.2888C13.4725 16.3379 13.5649 16.5604 13.4349 16.6904L11.2812 18.8436Z" fill="#67A6A9"/>
<path d="M19.5643 10.5586H17.0586V12.5661C17.0586 12.7498 17.2811 12.8423 17.4111 12.7122L19.5643 10.5586Z" fill="#67A6A9"/>
<path d="M2.17188 10.5586H4.67759V12.5661C4.67759 12.7498 4.45513 12.8423 4.32512 12.7122L2.17188 10.5586Z" fill="#67A6A9"/>
<path d="M19.6861 9.85395L17.4119 7.57978C17.2819 7.44976 17.0594 7.5418 17.0594 7.72547V9.32028H11.6939V2.03261C11.6939 1.92323 11.6505 1.81798 11.573 1.7408L11.1602 1.32807C10.9988 1.16669 10.7376 1.16669 10.5766 1.32807L8.30243 3.60224C8.17242 3.73225 8.26446 3.95472 8.44813 3.95472H10.0429V9.32028H4.67737V7.72547C4.67737 7.5418 4.45491 7.44935 4.3249 7.57936L2.05072 9.85354C1.88934 10.0149 1.88934 10.2762 2.05072 10.4371L2.46346 10.8499C2.54105 10.9279 2.64589 10.9712 2.75526 10.9712H10.0429V16.3368H8.44813C8.26446 16.3368 8.17201 16.5593 8.30202 16.6893L10.5762 18.9634C10.7376 19.1248 10.9988 19.1248 11.1598 18.9634L11.5725 18.5507C11.6505 18.4731 11.6939 18.3683 11.6939 18.2589V10.9712H18.9816C19.0909 10.9712 19.1962 10.9279 19.2734 10.8503L19.6861 10.4376C19.8471 10.2766 19.8471 10.0149 19.6861 9.85395Z" fill="#67A6A9"/>
</svg>
