<svg width="29" height="30" viewBox="0 0 29 30" fill="none" xmlns="http://www.w3.org/2000/svg">
<path d="M14.1476 3.20996C7.64701 3.20996 2.3584 8.49858 2.3584 14.9991C2.3584 20.8972 6.71685 25.7832 12.3792 26.6409V17.9464H10.0213C9.69597 17.9464 9.43189 17.6829 9.43189 17.3569V15.5886C9.43189 15.2626 9.69597 14.9991 10.0213 14.9991H12.3792V12.8582C12.3792 10.0577 13.8098 8.51508 16.4075 8.51508C17.4603 8.51508 18.2908 8.58817 18.3256 8.59112C18.6298 8.61824 18.8632 8.87288 18.8632 9.17822V11.1676C18.8632 11.4936 18.5991 11.7571 18.2738 11.7571H17.0948C16.4447 11.7571 15.9159 12.2858 15.9159 12.936V14.9991H18.2738C18.4429 14.9991 18.6039 15.0716 18.7158 15.1984C18.8278 15.3257 18.8797 15.4943 18.8591 15.6617L18.638 17.43C18.6009 17.7248 18.3498 17.9464 18.0527 17.9464H15.9159V26.6409C21.5783 25.7832 25.9367 20.8972 25.9367 14.9991C25.9367 8.49858 20.6481 3.20996 14.1476 3.20996Z" fill="#667085"/>
</svg>
