<svg width="29" height="30" viewBox="0 0 29 30" fill="none" xmlns="http://www.w3.org/2000/svg">
<path d="M9.72603 3.7998C5.98828 3.7998 2.94727 6.84082 2.94727 10.5786V19.4204C2.94727 23.1582 5.98828 26.1992 9.72603 26.1992H18.5679C22.3056 26.1992 25.3467 23.1582 25.3467 19.4204V10.5786C25.3467 6.84082 22.3056 3.7998 18.5679 3.7998H9.72603ZM20.0415 7.92601C20.6929 7.92601 21.2205 8.45357 21.2205 9.10492C21.2205 9.75568 20.6929 10.2838 20.0415 10.2838C19.3902 10.2838 18.8626 9.75568 18.8626 9.10492C18.8626 8.45357 19.3902 7.92601 20.0415 7.92601ZM14.147 9.10492C17.3972 9.10492 20.0415 11.7492 20.0415 14.9995C20.0415 18.2498 17.3972 20.8941 14.147 20.8941C10.8967 20.8941 8.25238 18.2498 8.25238 14.9995C8.25238 11.7492 10.8967 9.10492 14.147 9.10492ZM14.147 10.8733C13.6051 10.8733 13.0685 10.98 12.5679 11.1874C12.0673 11.3947 11.6124 11.6987 11.2293 12.0818C10.8461 12.465 10.5422 12.9199 10.3348 13.4205C10.1275 13.9211 10.0208 14.4576 10.0208 14.9995C10.0208 15.5414 10.1275 16.0779 10.3348 16.5785C10.5422 17.0791 10.8461 17.534 11.2293 17.9172C11.6124 18.3003 12.0673 18.6043 12.5679 18.8116C13.0685 19.019 13.6051 19.1257 14.147 19.1257C14.6888 19.1257 15.2254 19.019 15.726 18.8116C16.2266 18.6043 16.6815 18.3003 17.0646 17.9172C17.4478 17.534 17.7517 17.0791 17.9591 16.5785C18.1664 16.0779 18.2732 15.5414 18.2732 14.9995C18.2732 14.4576 18.1664 13.9211 17.9591 13.4205C17.7517 12.9199 17.4478 12.465 17.0646 12.0818C16.6815 11.6987 16.2266 11.3947 15.726 11.1874C15.2254 10.98 14.6888 10.8733 14.147 10.8733Z" fill="#667085"/>
</svg>
