<svg width="29" height="30" viewBox="0 0 29 30" fill="none" xmlns="http://www.w3.org/2000/svg">
<path d="M21.5165 4.38867H6.7801C4.99287 4.38867 3.53809 5.84345 3.53809 7.63069V22.3671C3.53809 24.1544 4.99287 25.6091 6.7801 25.6091H21.5165C23.3038 25.6091 24.7586 24.1544 24.7586 22.3671V7.63069C24.7586 5.84345 23.3038 4.38867 21.5165 4.38867ZM10.6116 20.8935C10.6116 21.2195 10.3481 21.4829 10.0221 21.4829H8.25375C7.92778 21.4829 7.66429 21.2195 7.66429 20.8935V13.2305C7.66429 12.9046 7.92778 12.6411 8.25375 12.6411H10.0221C10.3481 12.6411 10.6116 12.9046 10.6116 13.2305V20.8935ZM9.13793 11.4622C8.32389 11.4622 7.66429 10.8026 7.66429 9.98852C7.66429 9.17448 8.32389 8.51488 9.13793 8.51488C9.95197 8.51488 10.6116 9.17448 10.6116 9.98852C10.6116 10.8026 9.95197 11.4622 9.13793 11.4622ZM20.6324 20.8935C20.6324 21.2195 20.3689 21.4829 20.0429 21.4829H18.2745C17.9486 21.4829 17.6851 21.2195 17.6851 20.8935V16.4726C17.6851 15.6597 17.0243 14.9989 16.2114 14.9989C15.3986 14.9989 14.7378 15.6597 14.7378 16.4726V20.8935C14.7378 21.2195 14.4743 21.4829 14.1483 21.4829H12.38C12.054 21.4829 11.7905 21.2195 11.7905 20.8935V13.2305C11.7905 12.9046 12.054 12.6411 12.38 12.6411H14.1483C14.4743 12.6411 14.7378 12.9046 14.7378 13.2305V13.5494C15.3644 12.9865 16.189 12.6411 17.0956 12.6411C19.0461 12.6411 20.6324 14.2273 20.6324 16.1778V20.8935Z" fill="#667085"/>
</svg>
