<svg width="29" height="30" viewBox="0 0 29 30" fill="none" xmlns="http://www.w3.org/2000/svg">
<path d="M2.94727 15.0002C2.94727 9.72027 2.94727 7.08032 4.58752 5.44006C6.22778 3.7998 8.86773 3.7998 14.1476 3.7998C19.4276 3.7998 22.0674 3.7998 23.7078 5.44006C25.348 7.08032 25.348 9.72027 25.348 15.0002C25.348 20.28 25.348 22.92 23.7078 24.5603C22.0674 26.2005 19.4276 26.2005 14.1476 26.2005C8.86773 26.2005 6.22778 26.2005 4.58752 24.5603C2.94727 22.92 2.94727 20.28 2.94727 15.0002Z" fill="#667085" stroke="#667085" stroke-width="0.625088" stroke-linecap="round" stroke-linejoin="round"/>
<path d="M8.25293 20.8944L13.1971 15.9503L8.25293 20.8944ZM20.0428 9.10449L15.0987 14.0486L20.0428 9.10449ZM15.0987 14.0486L11.5279 9.10449H8.25293L13.1971 15.9503M15.0987 14.0486L20.0428 20.8944H16.7678L13.1971 15.9503" fill="white"/>
<path d="M8.25293 20.8944L13.1971 15.9503M13.1971 15.9503L8.25293 9.10449H11.5279L15.0987 14.0486M13.1971 15.9503L16.7678 20.8944H20.0428L15.0987 14.0486M20.0428 9.10449L15.0987 14.0486" stroke="white" stroke-width="0.625088" stroke-linecap="round" stroke-linejoin="round"/>
</svg>
