<svg width="29" height="30" viewBox="0 0 29 30" fill="none" xmlns="http://www.w3.org/2000/svg">
<path d="M14.1465 3.20996C14.1053 3.20996 14.0577 3.20982 14.0164 3.21572C12.6607 3.36898 11.2348 5.90378 10.5039 9.69399H17.7892C17.0583 5.90378 15.6324 3.36898 14.2766 3.21572C14.2354 3.20982 14.1878 3.20996 14.1465 3.20996ZM10.7871 3.69926C7.65118 4.62471 5.06337 6.82334 3.6192 9.69399H8.70557C9.11819 7.33616 9.82039 5.20237 10.7871 3.69926ZM17.506 3.69926C18.4727 5.20237 19.1749 7.33616 19.5875 9.69399H24.6739C23.2297 6.82334 20.6419 4.62471 17.506 3.69926ZM8.62844 11.4785C8.45735 11.4873 8.29468 11.5555 8.1684 11.6712C8.04212 11.787 7.96013 11.9432 7.93652 12.1128L7.45182 15.1534L6.56994 13.1156C6.51271 12.9839 6.41826 12.8719 6.2982 12.7932C6.17814 12.7144 6.0377 12.6725 5.89414 12.6725C5.75057 12.6725 5.61013 12.7144 5.49007 12.7932C5.37002 12.8719 5.27557 12.9839 5.21833 13.1156L4.33645 15.1534L3.85176 12.1128C3.82681 11.9408 3.74183 11.7831 3.61184 11.6676C3.48184 11.5522 3.31522 11.4864 3.14142 11.4819C3.03246 11.4792 2.92425 11.5006 2.82457 11.5447C2.72489 11.5888 2.63624 11.6544 2.56499 11.7369C2.49374 11.8194 2.44168 11.9166 2.41255 12.0217C2.38342 12.1267 2.37795 12.2369 2.39653 12.3443L3.28072 17.8854C3.30609 18.0427 3.38175 18.1875 3.49637 18.2982C3.61098 18.4088 3.75837 18.4794 3.91644 18.4992C4.07452 18.519 4.23477 18.4871 4.37317 18.4082C4.51158 18.3293 4.62068 18.2077 4.68414 18.0615L5.89414 15.2628L7.10414 18.0615C7.16759 18.2077 7.2767 18.3293 7.4151 18.4082C7.55351 18.4871 7.71376 18.519 7.87183 18.4992C8.02991 18.4794 8.1773 18.4088 8.29191 18.2982C8.40652 18.1875 8.48218 18.0427 8.50755 17.8854L9.39174 12.3443C9.41129 12.235 9.40592 12.1228 9.37603 12.0159C9.34614 11.909 9.2925 11.8103 9.21912 11.7271C9.14573 11.6438 9.0545 11.5783 8.95222 11.5352C8.84994 11.4922 8.73926 11.4728 8.62844 11.4785ZM16.8808 11.4785C16.7098 11.4873 16.5471 11.5555 16.4208 11.6712C16.2945 11.787 16.2125 11.9432 16.1889 12.1128L15.7042 15.1534L14.8223 13.1156C14.7651 12.9839 14.6707 12.8719 14.5506 12.7932C14.4305 12.7144 14.2901 12.6725 14.1465 12.6725C14.003 12.6725 13.8625 12.7144 13.7425 12.7932C13.6224 12.8719 13.528 12.9839 13.4707 13.1156L12.5889 15.1534L12.1042 12.1128C12.0792 11.9408 11.9942 11.7831 11.8642 11.6676C11.7343 11.5522 11.5676 11.4864 11.3938 11.4819C11.2849 11.4792 11.1767 11.5006 11.077 11.5447C10.9773 11.5888 10.8886 11.6544 10.8174 11.7369C10.7461 11.8194 10.6941 11.9166 10.665 12.0217C10.6358 12.1267 10.6304 12.2369 10.6489 12.3443L11.5331 17.8854C11.5585 18.0427 11.6342 18.1875 11.7488 18.2982C11.8634 18.4088 12.0108 18.4794 12.1688 18.4992C12.3269 18.519 12.4872 18.4871 12.6256 18.4082C12.764 18.3293 12.8731 18.2077 12.9365 18.0615L14.1465 15.2628L15.3565 18.0615C15.42 18.2077 15.5291 18.3293 15.6675 18.4082C15.8059 18.4871 15.9662 18.519 16.1242 18.4992C16.2823 18.4794 16.4297 18.4088 16.5443 18.2982C16.6589 18.1875 16.7346 18.0427 16.76 17.8854L17.6441 12.3443C17.6637 12.235 17.6583 12.1228 17.6284 12.0159C17.5985 11.909 17.5449 11.8103 17.4715 11.7271C17.3981 11.6438 17.3069 11.5783 17.2046 11.5352C17.1023 11.4922 16.9917 11.4728 16.8808 11.4785ZM25.1333 11.4785C24.9622 11.4873 24.7995 11.5555 24.6732 11.6712C24.5469 11.787 24.4649 11.9432 24.4413 12.1128L23.9566 15.1534L23.0748 13.1156C23.0175 12.9839 22.9231 12.8719 22.803 12.7932C22.683 12.7144 22.5425 12.6725 22.399 12.6725C22.2554 12.6725 22.1149 12.7144 21.9949 12.7932C21.8748 12.8719 21.7804 12.9839 21.7231 13.1156L20.8413 15.1534L20.3566 12.1128C20.3316 11.9408 20.2466 11.7831 20.1166 11.6676C19.9867 11.5522 19.82 11.4864 19.6462 11.4819C19.5373 11.4792 19.4291 11.5006 19.3294 11.5447C19.2297 11.5888 19.141 11.6544 19.0698 11.7369C18.9986 11.8194 18.9465 11.9166 18.9174 12.0217C18.8882 12.1267 18.8828 12.2369 18.9013 12.3443L19.7855 17.8854C19.8109 18.0427 19.8866 18.1875 20.0012 18.2982C20.1158 18.4088 20.2632 18.4794 20.4213 18.4992C20.5793 18.519 20.7396 18.4871 20.878 18.4082C21.0164 18.3293 21.1255 18.2077 21.1889 18.0615L22.399 15.2628L23.609 18.0615C23.6724 18.2077 23.7815 18.3293 23.9199 18.4082C24.0583 18.4871 24.2186 18.519 24.3766 18.4992C24.5347 18.4794 24.6821 18.4088 24.7967 18.2982C24.9113 18.1875 24.987 18.0427 25.0124 17.8854L25.8966 12.3443C25.9161 12.235 25.9107 12.1228 25.8808 12.0159C25.851 11.909 25.7973 11.8103 25.7239 11.7271C25.6505 11.6438 25.5593 11.5783 25.457 11.5352C25.3548 11.4922 25.2441 11.4728 25.1333 11.4785ZM3.6192 20.3042C5.06337 23.1749 7.65118 25.3735 10.7871 26.299C9.82039 24.7959 9.11819 22.6621 8.70557 20.3042H3.6192ZM10.5039 20.3042C11.2348 24.0944 12.6607 26.6293 14.0164 26.7825C14.0577 26.7884 14.1053 26.7883 14.1465 26.7883C14.1878 26.7883 14.2354 26.7884 14.2766 26.7825C15.6324 26.6293 17.0583 24.0944 17.7892 20.3042H10.5039ZM19.5875 20.3042C19.1749 22.6621 18.4727 24.7959 17.506 26.299C20.6419 25.3735 23.2297 23.1749 24.6739 20.3042H19.5875Z" fill="#667085"/>
</svg>
