<svg width="35" height="34" viewBox="0 0 35 34" fill="none" xmlns="http://www.w3.org/2000/svg">
<path d="M8.03975 13.7168C11.4591 7.66633 13.1688 4.64107 15.5149 3.86233C16.8055 3.43391 18.1958 3.43391 19.4864 3.86233C21.8325 4.64107 23.5422 7.66633 26.9616 13.7168C30.381 19.7673 32.0906 22.7926 31.5778 25.2576C31.2956 26.6137 30.6004 27.8437 29.5919 28.7715C27.7587 30.4577 24.3395 30.4577 17.5007 30.4577C10.6619 30.4577 7.24253 30.4577 5.40935 28.7715C4.40085 27.8437 3.70571 26.6137 3.42355 25.2576C2.91068 22.7926 4.62037 19.7673 8.03975 13.7168Z" stroke="#F65800" stroke-width="1.5"/>
<path d="M17.4883 22.666H17.501" stroke="#F65800" stroke-width="2" stroke-linecap="round" stroke-linejoin="round"/>
<path d="M17.5 18.4167V12.75" stroke="#F65800" stroke-width="1.5" stroke-linecap="round" stroke-linejoin="round"/>
</svg>
