<svg width="20" height="15" viewBox="0 0 20 15" fill="none" xmlns="http://www.w3.org/2000/svg">
<path d="M6.83955 11.5904L17.8012 0.628746C18.0599 0.370064 18.3617 0.240723 18.7066 0.240723C19.0515 0.240723 19.3533 0.370064 19.612 0.628746C19.8707 0.887428 20 1.19461 20 1.5503C20 1.90599 19.8707 2.21317 19.612 2.47186L7.74494 14.3712C7.48626 14.6299 7.18446 14.7593 6.83955 14.7593C6.49464 14.7593 6.19285 14.6299 5.93417 14.3712L0.372502 8.80956C0.11382 8.55088 -0.0101317 8.2437 0.000646705 7.88801C0.0114251 7.53232 0.146155 7.22514 0.404837 6.96646C0.663519 6.70777 0.970704 6.57843 1.32639 6.57843C1.68208 6.57843 1.98926 6.70777 2.24795 6.96646L6.83955 11.5904Z" fill="#1E1E1E"/>
</svg>
