<svg width="107" height="81" viewBox="0 0 107 81" fill="none" xmlns="http://www.w3.org/2000/svg">
<path fill-rule="evenodd" clip-rule="evenodd" d="M93.252 0.749512C96.7661 0.749512 100.136 2.14549 102.621 4.63035C105.106 7.1152 106.502 10.4854 106.502 13.9995V33.8745C106.502 37.3886 105.106 40.7588 102.621 43.2437C100.136 45.7285 96.7661 47.1245 93.252 47.1245H73.377C73.377 52.3957 75.4709 57.451 79.1982 61.1783C82.9255 64.9055 87.9808 66.9995 93.252 66.9995H99.877C101.634 66.9995 103.319 67.6975 104.562 68.9399C105.804 70.1824 106.502 71.8675 106.502 73.6245C106.502 75.3816 105.804 77.0667 104.562 78.3091C103.319 79.5515 101.634 80.2495 99.877 80.2495H93.252C84.4667 80.2495 76.0412 76.7596 69.829 70.5474C63.6169 64.3353 60.127 55.9098 60.127 47.1245V13.9995C60.127 10.4854 61.5229 7.1152 64.0078 4.63035C66.4926 2.14549 69.8628 0.749512 73.377 0.749512H93.252ZM33.627 0.749512C37.1411 0.749512 40.5113 2.14549 42.9961 4.63035C45.481 7.1152 46.877 10.4854 46.877 13.9995V33.8745C46.877 37.3886 45.481 40.7588 42.9961 43.2437C40.5113 45.7285 37.1411 47.1245 33.627 47.1245H13.752C13.752 52.3957 15.8459 57.451 19.5732 61.1783C23.3005 64.9055 28.3558 66.9995 33.627 66.9995H40.252C42.009 66.9995 43.6941 67.6975 44.9365 68.9399C46.179 70.1824 46.877 71.8675 46.877 73.6245C46.877 75.3816 46.179 77.0667 44.9365 78.3091C43.6941 79.5515 42.009 80.2495 40.252 80.2495H33.627C24.8417 80.2495 16.4162 76.7596 10.204 70.5474C3.9919 64.3353 0.501953 55.9098 0.501953 47.1245V13.9995C0.501953 10.4854 1.89793 7.1152 4.38279 4.63035C6.86765 2.14549 10.2378 0.749512 13.752 0.749512H33.627Z" fill="#EFEEEE"/>
</svg>
