<svg width="107" height="81" viewBox="0 0 107 81" fill="none" xmlns="http://www.w3.org/2000/svg">
<path fill-rule="evenodd" clip-rule="evenodd" d="M13.75 0.750977C10.2359 0.750977 6.86569 2.14695 4.38083 4.63181C1.89598 7.11667 0.5 10.4869 0.5 14.001V33.876C0.5 37.3901 1.89598 40.7603 4.38083 43.2451C6.86569 45.73 10.2359 47.126 13.75 47.126H33.625C33.625 52.3972 31.531 57.4524 27.8037 61.1797C24.0765 64.907 19.0212 67.001 13.75 67.001H7.125C5.36794 67.001 3.68285 67.699 2.44042 68.9414C1.19799 70.1838 0.5 71.8689 0.5 73.626C0.5 75.383 1.19799 77.0681 2.44042 78.3106C3.68285 79.553 5.36794 80.251 7.125 80.251H13.75C22.5353 80.251 30.9608 76.761 37.1729 70.5489C43.3851 64.3367 46.875 55.9113 46.875 47.126V14.001C46.875 10.4869 45.479 7.11667 42.9942 4.63181C40.5093 2.14695 37.1391 0.750977 33.625 0.750977H13.75ZM73.375 0.750977C69.8609 0.750977 66.4907 2.14695 64.0058 4.63181C61.521 7.11667 60.125 10.4869 60.125 14.001V33.876C60.125 37.3901 61.521 40.7603 64.0058 43.2451C66.4907 45.73 69.8609 47.126 73.375 47.126H93.25C93.25 52.3972 91.156 57.4524 87.4287 61.1797C83.7015 64.907 78.6462 67.001 73.375 67.001H66.75C64.9929 67.001 63.3078 67.699 62.0654 68.9414C60.823 70.1838 60.125 71.8689 60.125 73.626C60.125 75.383 60.823 77.0681 62.0654 78.3106C63.3078 79.553 64.9929 80.251 66.75 80.251H73.375C82.1603 80.251 90.5858 76.761 96.7979 70.5489C103.01 64.3367 106.5 55.9113 106.5 47.126V14.001C106.5 10.4869 105.104 7.11667 102.619 4.63181C100.134 2.14695 96.7641 0.750977 93.25 0.750977H73.375Z" fill="#EFEEEE"/>
</svg>
