<svg width="197" height="52" viewBox="0 0 197 52" fill="none" xmlns="http://www.w3.org/2000/svg">
<circle cx="25.5429" cy="25.5429" r="25.5429" fill="#3ED0D6"/>
<circle cx="47.3552" cy="36.5032" r="14.6013" fill="#7C4BDE" fill-opacity="0.8"/>
<path d="M75.0916 36.1033H69.2663V17.9316H75.0916C76.9465 17.9316 78.4149 18.0862 79.4969 18.3953C80.5982 18.7045 81.4773 19.1972 82.1343 19.8734C82.7912 20.5497 83.2646 21.4674 83.5544 22.6267C83.8635 23.7667 84.0181 25.2254 84.0181 27.003C84.0181 30.1524 83.3129 32.4613 81.9024 33.9297C80.492 35.3788 78.2217 36.1033 75.0916 36.1033ZM79.4679 22.3949C79.1008 21.9118 78.5888 21.5737 77.9319 21.3805C77.275 21.1679 76.3282 21.0617 75.0916 21.0617H72.7441V32.8284H75.0916C77.1783 32.8284 78.5888 32.4033 79.323 31.5532C80.0572 30.703 80.4243 29.1863 80.4243 27.003C80.4243 25.8437 80.347 24.897 80.1925 24.1628C80.0379 23.4285 79.7964 22.8392 79.4679 22.3949ZM89.9177 36.3642C88.4493 36.3642 87.3673 36.0067 86.6718 35.2918C85.9955 34.5576 85.6574 33.4177 85.6574 31.872C85.6574 30.2876 86.0631 29.167 86.8746 28.5101C87.7054 27.8531 89.1256 27.5247 91.135 27.5247C91.6953 27.5247 92.2653 27.5536 92.8449 27.6116C93.4246 27.6696 93.9269 27.7469 94.352 27.8435V26.6262C94.352 25.8727 94.1201 25.322 93.6564 24.9743C93.1927 24.6265 92.4585 24.4526 91.4538 24.4526C90.5457 24.4526 89.7342 24.4816 89.0193 24.5395C88.3237 24.5975 87.6571 24.6941 87.0195 24.8293V22.0181C87.7537 21.8442 88.5459 21.7186 89.3961 21.6413C90.2655 21.5447 91.2896 21.4964 92.4682 21.4964C94.2264 21.4964 95.5402 21.9022 96.4097 22.7137C97.2792 23.5058 97.7139 24.7038 97.7139 26.3074V36.1033H94.6128L94.4679 34.8281H94.4099C93.7917 35.2918 93.0768 35.6686 92.2653 35.9584C91.4731 36.2289 90.6906 36.3642 89.9177 36.3642ZM91.5407 29.9302C90.4974 29.9302 89.7825 30.0558 89.3961 30.3069C89.0096 30.5388 88.8164 30.9928 88.8164 31.6691C88.8164 32.326 88.971 32.7994 89.2801 33.0892C89.6086 33.3597 90.1593 33.495 90.9321 33.495C91.4924 33.495 92.0817 33.4177 92.7 33.2631C93.3376 33.0892 93.8883 32.8767 94.352 32.6255V30.162C93.8883 30.0847 93.4246 30.0268 92.9608 29.9881C92.5165 29.9495 92.0431 29.9302 91.5407 29.9302ZM101.607 24.5975H99.6942V21.7862H101.607V21.6413C101.607 19.941 102.042 18.6658 102.911 17.8157C103.781 16.9656 105.094 16.5405 106.853 16.5405C107.278 16.5405 107.722 16.5695 108.186 16.6274C108.65 16.6661 109.084 16.724 109.49 16.8013V19.4677C109.2 19.429 108.862 19.4 108.476 19.3807C108.109 19.3421 107.77 19.3228 107.461 19.3228C106.476 19.3228 105.809 19.4677 105.462 19.7575C105.133 20.028 104.969 20.569 104.969 21.3805V21.7862H109.055V24.5975H104.969V36.1033H101.607V24.5975ZM119.965 32.9733V35.8425C119.636 35.9777 119.173 36.0937 118.574 36.1903C117.994 36.3062 117.463 36.3642 116.98 36.3642C115.144 36.3642 113.83 35.9681 113.038 35.1759C112.246 34.3644 111.85 33.0216 111.85 31.1474V24.5975H109.937V21.7862H111.937L112.401 18.3664H115.212V21.7862H119.791V24.5975H115.212V31.0315C115.212 31.8816 115.395 32.4613 115.762 32.7704C116.13 33.0795 116.786 33.2341 117.733 33.2341C118.062 33.2341 118.448 33.2148 118.892 33.1762C119.337 33.1182 119.694 33.0506 119.965 32.9733ZM125.268 36.3642C123.799 36.3642 122.717 36.0067 122.022 35.2918C121.346 34.5576 121.007 33.4177 121.007 31.872C121.007 30.2876 121.413 29.167 122.225 28.5101C123.056 27.8531 124.476 27.5247 126.485 27.5247C127.045 27.5247 127.615 27.5536 128.195 27.6116C128.775 27.6696 129.277 27.7469 129.702 27.8435V26.6262C129.702 25.8727 129.47 25.322 129.007 24.9743C128.543 24.6265 127.809 24.4526 126.804 24.4526C125.896 24.4526 125.084 24.4816 124.369 24.5395C123.674 24.5975 123.007 24.6941 122.37 24.8293V22.0181C123.104 21.8442 123.896 21.7186 124.746 21.6413C125.616 21.5447 126.64 21.4964 127.818 21.4964C129.576 21.4964 130.89 21.9022 131.76 22.7137C132.629 23.5058 133.064 24.7038 133.064 26.3074V36.1033H129.963L129.818 34.8281H129.76C129.142 35.2918 128.427 35.6686 127.615 35.9584C126.823 36.2289 126.041 36.3642 125.268 36.3642ZM126.891 29.9302C125.847 29.9302 125.133 30.0558 124.746 30.3069C124.36 30.5388 124.167 30.9928 124.167 31.6691C124.167 32.326 124.321 32.7994 124.63 33.0892C124.959 33.3597 125.509 33.495 126.282 33.495C126.843 33.495 127.432 33.4177 128.05 33.2631C128.688 33.0892 129.238 32.8767 129.702 32.6255V30.162C129.238 30.0847 128.775 30.0268 128.311 29.9881C127.867 29.9495 127.393 29.9302 126.891 29.9302ZM139.532 36.1033H136.17V21.7862H139.272L139.416 22.9455H139.503C140.218 22.5204 140.943 22.192 141.677 21.9601C142.411 21.7283 143.126 21.6123 143.822 21.6123C144.015 21.6123 144.141 21.6123 144.199 21.6123C144.276 21.6123 144.334 21.622 144.372 21.6413V24.8873C144.256 24.8487 144.102 24.8293 143.909 24.8293C143.735 24.81 143.426 24.8004 142.981 24.8004C142.305 24.8004 141.677 24.8583 141.097 24.9743C140.518 25.0902 139.996 25.2544 139.532 25.4669V36.1033ZM150.039 30.5968V36.1033H146.561V17.9316H152.966C155.652 17.9316 157.564 18.405 158.704 19.3517C159.864 20.2985 160.443 21.8732 160.443 24.0758C160.443 26.2978 159.835 27.9401 158.617 29.0027C157.42 30.0654 155.565 30.5968 153.053 30.5968H150.039ZM156.908 24.0758C156.908 22.9745 156.608 22.2016 156.009 21.7572C155.429 21.2935 154.415 21.0617 152.966 21.0617H150.039V27.5536H152.966C154.415 27.5536 155.429 27.2928 156.009 26.7711C156.608 26.2301 156.908 25.3317 156.908 24.0758ZM166.052 16.8303V36.1033H162.69V16.8303H166.052ZM173.895 36.3642C172.291 36.3642 171.093 35.9681 170.301 35.1759C169.509 34.3644 169.113 33.1568 169.113 31.5532V21.7862H172.475V31.1184C172.475 31.8526 172.668 32.384 173.054 32.7124C173.441 33.0409 174.069 33.2051 174.938 33.2051C175.479 33.2051 176.03 33.1472 176.59 33.0312C177.15 32.9153 177.672 32.7607 178.155 32.5675V21.7862H181.517V36.1033H178.416L178.3 35.1179H178.213C177.421 35.5237 176.658 35.8328 175.924 36.0454C175.209 36.2579 174.532 36.3642 173.895 36.3642ZM190.071 24.3946C189.047 24.3946 188.342 24.5009 187.956 24.7134C187.589 24.9066 187.405 25.3414 187.405 26.0176C187.405 26.3461 187.482 26.5972 187.637 26.7711C187.791 26.9257 188.052 27.032 188.419 27.0899L191.984 27.6116C193.124 27.7662 193.916 28.1236 194.361 28.6839C194.824 29.2443 195.056 30.133 195.056 31.3503C195.056 33.1085 194.65 34.3837 193.839 35.1759C193.027 35.9681 191.646 36.3642 189.695 36.3642C188.574 36.3642 187.55 36.3159 186.622 36.2193C185.695 36.1227 184.913 35.9777 184.275 35.7845V32.7994C184.874 32.954 185.608 33.0892 186.478 33.2051C187.347 33.3017 188.226 33.35 189.115 33.35C190.12 33.35 190.796 33.2245 191.144 32.9733C191.511 32.7221 191.694 32.2487 191.694 31.5532C191.694 31.2054 191.607 30.9445 191.433 30.7706C191.26 30.5774 190.97 30.4518 190.564 30.3939L186.941 29.8722C185.956 29.737 185.231 29.3699 184.768 28.7709C184.304 28.1526 184.072 27.2638 184.072 26.1045C184.072 24.5395 184.545 23.3802 185.492 22.6267C186.458 21.8732 187.917 21.4964 189.868 21.4964C190.661 21.4964 191.385 21.5157 192.042 21.5544C192.699 21.593 193.375 21.6703 194.071 21.7862V24.6554C193.568 24.5782 192.96 24.5202 192.245 24.4816C191.549 24.4236 190.825 24.3946 190.071 24.3946Z" fill="white"/>
</svg>
