<svg width="1161" height="303" viewBox="0 0 1161 303" fill="none" xmlns="http://www.w3.org/2000/svg">
<circle cx="151.303" cy="151.303" r="151.303" fill="#3ED0D6"/>
<circle cx="280.51" cy="216.226" r="86.4904" fill="#7C4BDE" fill-opacity="0.8"/>
<path d="M444.807 213H410.3V105.36H444.807C455.794 105.36 464.492 106.276 470.901 108.107C477.425 109.938 482.632 112.857 486.524 116.863C490.415 120.868 493.219 126.305 494.936 133.172C496.767 139.924 497.682 148.565 497.682 159.094C497.682 177.75 493.505 191.426 485.15 200.124C476.795 208.708 463.348 213 444.807 213ZM470.73 131.798C468.555 128.937 465.522 126.934 461.631 125.79C457.74 124.531 452.132 123.901 444.807 123.901H430.901V193.601H444.807C457.167 193.601 465.522 191.083 469.871 186.047C474.22 181.011 476.395 172.027 476.395 159.094C476.395 152.227 475.937 146.619 475.021 142.27C474.106 137.921 472.675 134.431 470.73 131.798ZM532.629 214.545C523.931 214.545 517.522 212.428 513.401 208.193C509.396 203.844 507.393 197.092 507.393 187.936C507.393 178.551 509.796 171.913 514.603 168.021C519.524 164.13 527.936 162.185 539.839 162.185C543.158 162.185 546.534 162.356 549.968 162.7C553.401 163.043 556.377 163.501 558.895 164.073V156.863C558.895 152.399 557.522 149.137 554.775 147.077C552.028 145.017 547.679 143.987 541.728 143.987C536.348 143.987 531.542 144.159 527.307 144.502C523.187 144.845 519.238 145.418 515.461 146.219V129.566C519.81 128.536 524.503 127.793 529.539 127.335C534.689 126.762 540.755 126.476 547.736 126.476C558.151 126.476 565.934 128.88 571.084 133.687C576.234 138.379 578.809 145.475 578.809 154.974V213H560.44L559.582 205.446H559.238C555.576 208.193 551.341 210.425 546.534 212.142C541.842 213.744 537.207 214.545 532.629 214.545ZM542.243 176.433C536.062 176.433 531.828 177.177 529.539 178.665C527.25 180.039 526.105 182.728 526.105 186.734C526.105 190.625 527.021 193.429 528.852 195.146C530.798 196.748 534.059 197.549 538.637 197.549C541.956 197.549 545.447 197.092 549.11 196.176C552.886 195.146 556.148 193.887 558.895 192.399V177.807C556.148 177.349 553.401 177.006 550.655 176.777C548.022 176.548 545.218 176.433 542.243 176.433ZM601.87 144.845H590.539V128.193H601.87V127.335C601.87 117.263 604.445 109.71 609.595 104.674C614.745 99.638 622.528 97.1201 632.943 97.1201C635.461 97.1201 638.093 97.2918 640.84 97.6351C643.586 97.864 646.162 98.2074 648.565 98.6652V114.459C646.848 114.23 644.845 114.059 642.556 113.944C640.382 113.715 638.379 113.601 636.548 113.601C630.711 113.601 626.762 114.459 624.702 116.176C622.757 117.778 621.784 120.983 621.784 125.79V128.193H645.99V144.845H621.784V213H601.87V144.845ZM710.612 194.459V211.455C708.666 212.256 705.919 212.943 702.371 213.515C698.938 214.202 695.791 214.545 692.929 214.545C682.057 214.545 674.274 212.199 669.582 207.506C664.889 202.7 662.543 194.745 662.543 183.644V144.845H651.213V128.193H663.058L665.805 107.936H682.457V128.193H709.582V144.845H682.457V182.957C682.457 187.993 683.544 191.426 685.719 193.258C687.894 195.089 691.785 196.004 697.393 196.004C699.338 196.004 701.627 195.89 704.26 195.661C706.892 195.318 709.009 194.917 710.612 194.459ZM742.024 214.545C733.326 214.545 726.917 212.428 722.797 208.193C718.791 203.844 716.788 197.092 716.788 187.936C716.788 178.551 719.191 171.913 723.998 168.021C728.92 164.13 737.332 162.185 749.234 162.185C752.553 162.185 755.93 162.356 759.363 162.7C762.797 163.043 765.772 163.501 768.29 164.073V156.863C768.29 152.399 766.917 149.137 764.17 147.077C761.423 145.017 757.074 143.987 751.123 143.987C745.744 143.987 740.937 144.159 736.702 144.502C732.582 144.845 728.633 145.418 724.857 146.219V129.566C729.206 128.536 733.898 127.793 738.934 127.335C744.084 126.762 750.15 126.476 757.131 126.476C767.546 126.476 775.329 128.88 780.479 133.687C785.629 138.379 788.204 145.475 788.204 154.974V213H769.835L768.977 205.446H768.633C764.971 208.193 760.736 210.425 755.93 212.142C751.237 213.744 746.602 214.545 742.024 214.545ZM751.638 176.433C745.458 176.433 741.223 177.177 738.934 178.665C736.645 180.039 735.5 182.728 735.5 186.734C735.5 190.625 736.416 193.429 738.247 195.146C740.193 196.748 743.455 197.549 748.033 197.549C751.352 197.549 754.842 197.092 758.505 196.176C762.282 195.146 765.543 193.887 768.29 192.399V177.807C765.543 177.349 762.797 177.006 760.05 176.777C757.417 176.548 754.613 176.433 751.638 176.433ZM826.52 213H806.606V128.193H824.975L825.833 135.06H826.348C830.583 132.542 834.875 130.597 839.224 129.223C843.573 127.85 847.807 127.163 851.927 127.163C853.072 127.163 853.816 127.163 854.159 127.163C854.617 127.163 854.96 127.22 855.189 127.335V146.562C854.503 146.333 853.587 146.219 852.443 146.219C851.412 146.104 849.581 146.047 846.949 146.047C842.943 146.047 839.224 146.391 835.79 147.077C832.357 147.764 829.267 148.737 826.52 149.996V213ZM888.754 180.382V213H868.153V105.36H906.093C922.002 105.36 933.332 108.164 940.085 113.772C946.952 119.381 950.385 128.708 950.385 141.755C950.385 154.917 946.78 164.645 939.57 170.94C932.474 177.235 921.487 180.382 906.608 180.382H888.754ZM929.441 141.755C929.441 135.232 927.667 130.654 924.119 128.021C920.686 125.275 914.677 123.901 906.093 123.901H888.754V162.356H906.093C914.677 162.356 920.686 160.811 924.119 157.721C927.667 154.516 929.441 149.195 929.441 141.755ZM983.608 98.8369V213H963.694V98.8369H983.608ZM1030.06 214.545C1020.57 214.545 1013.47 212.199 1008.78 207.506C1004.08 202.7 1001.74 195.546 1001.74 186.047V128.193H1021.65V183.472C1021.65 187.821 1022.8 190.969 1025.09 192.914C1027.38 194.86 1031.09 195.833 1036.24 195.833C1039.45 195.833 1042.71 195.489 1046.03 194.803C1049.35 194.116 1052.44 193.2 1055.3 192.056V128.193H1075.21V213H1056.85L1056.16 207.163H1055.64C1050.95 209.567 1046.43 211.398 1042.08 212.657C1037.85 213.916 1033.84 214.545 1030.06 214.545ZM1125.89 143.644C1119.82 143.644 1115.64 144.273 1113.35 145.532C1111.18 146.677 1110.09 149.252 1110.09 153.257C1110.09 155.203 1110.55 156.691 1111.46 157.721C1112.38 158.637 1113.93 159.266 1116.1 159.609L1137.22 162.7C1143.97 163.615 1148.66 165.732 1151.29 169.051C1154.04 172.371 1155.41 177.635 1155.41 184.845C1155.41 195.26 1153.01 202.814 1148.2 207.506C1143.4 212.199 1135.21 214.545 1123.65 214.545C1117.02 214.545 1110.95 214.259 1105.46 213.687C1099.96 213.114 1095.33 212.256 1091.55 211.112V193.429C1095.1 194.345 1099.45 195.146 1104.6 195.833C1109.75 196.405 1114.96 196.691 1120.22 196.691C1126.17 196.691 1130.18 195.947 1132.24 194.459C1134.41 192.971 1135.5 190.167 1135.5 186.047C1135.5 183.987 1134.98 182.442 1133.95 181.412C1132.92 180.268 1131.21 179.524 1128.8 179.18L1107.34 176.09C1101.51 175.289 1097.22 173.114 1094.47 169.567C1091.72 165.904 1090.35 160.639 1090.35 153.773C1090.35 144.502 1093.15 137.635 1098.76 133.172C1104.48 128.708 1113.12 126.476 1124.68 126.476C1129.38 126.476 1133.67 126.591 1137.56 126.82C1141.45 127.049 1145.46 127.506 1149.58 128.193V145.189C1146.6 144.731 1143 144.388 1138.76 144.159C1134.64 143.815 1130.35 143.644 1125.89 143.644Z" fill="#FAFAFA"/>
</svg>
