<svg width="14" height="14" viewBox="0 0 14 14" fill="none" xmlns="http://www.w3.org/2000/svg">
<path d="M6.08396 1.41605C6.01803 1.4152 5.95287 1.4303 5.89403 1.46004C5.83518 1.48979 5.78439 1.53331 5.74598 1.5869C5.70757 1.64049 5.68267 1.70257 5.6734 1.76785C5.66413 1.83313 5.67076 1.89968 5.69274 1.96185H4.48494C3.98172 1.96185 3.51501 2.21188 3.23611 2.63024L2.59011 3.59924H2.53627C2.48203 3.59848 2.42817 3.6085 2.37784 3.62872C2.3275 3.64895 2.28169 3.67898 2.24306 3.71707C2.20443 3.75516 2.17375 3.80054 2.15281 3.85059C2.13188 3.90063 2.12109 3.95434 2.12109 4.00859C2.12109 4.06284 2.13188 4.11655 2.15281 4.16659C2.17375 4.21664 2.20443 4.26203 2.24306 4.30011C2.28169 4.3382 2.3275 4.36823 2.37784 4.38846C2.42817 4.40869 2.48203 4.41871 2.53627 4.41794H11.5419C11.5962 4.41871 11.65 4.40869 11.7004 4.38846C11.7507 4.36823 11.7965 4.3382 11.8352 4.30011C11.8738 4.26203 11.9045 4.21664 11.9254 4.16659C11.9463 4.11655 11.9571 4.06284 11.9571 4.00859C11.9571 3.95434 11.9463 3.90063 11.9254 3.85059C11.9045 3.80054 11.8738 3.75516 11.8352 3.71707C11.7965 3.67898 11.7507 3.64895 11.7004 3.62872C11.65 3.6085 11.5962 3.59848 11.5419 3.59924H11.4881L10.8421 2.63024C10.5632 2.21188 10.0962 1.96185 9.59327 1.96185H8.38548C8.40746 1.89968 8.41409 1.83313 8.40482 1.76785C8.39555 1.70257 8.37065 1.64049 8.33224 1.5869C8.29382 1.53331 8.24303 1.48979 8.18419 1.46004C8.12535 1.4303 8.06019 1.4152 7.99426 1.41605H6.08396ZM2.93816 5.23664L3.52553 10.7181C3.6074 11.4827 4.24892 12.0591 5.01795 12.0591H9.06027C9.82902 12.0591 10.4705 11.4827 10.5527 10.7181L11.1401 5.23664H2.93816Z" fill="#FC4C1B"/>
</svg>
