<svg width="19" height="20" viewBox="0 0 19 20" fill="none" xmlns="http://www.w3.org/2000/svg">
<path d="M5.5415 16.8281C5.10609 16.8281 4.73334 16.6795 4.42327 16.3824C4.11321 16.0852 3.95817 15.728 3.95817 15.3108V5.44792C3.73387 5.44792 3.54584 5.37521 3.39411 5.2298C3.24237 5.08438 3.1665 4.9042 3.1665 4.68924C3.1665 4.47428 3.24237 4.29409 3.39411 4.14868C3.54584 4.00326 3.73387 3.93056 3.95817 3.93056H7.12484C7.12484 3.7156 7.20071 3.53541 7.35244 3.39C7.50418 3.24458 7.6922 3.17188 7.9165 3.17188H11.0832C11.3075 3.17188 11.4955 3.24458 11.6472 3.39C11.799 3.53541 11.8748 3.7156 11.8748 3.93056H15.0415C15.2658 3.93056 15.4538 4.00326 15.6056 4.14868C15.7573 4.29409 15.8332 4.47428 15.8332 4.68924C15.8332 4.9042 15.7573 5.08438 15.6056 5.2298C15.4538 5.37521 15.2658 5.44792 15.0415 5.44792V15.3108C15.0415 15.728 14.8865 16.0852 14.5764 16.3824C14.2663 16.6795 13.8936 16.8281 13.4582 16.8281H5.5415ZM13.4582 5.44792H5.5415V15.3108H13.4582V5.44792ZM7.9165 13.7934C8.14081 13.7934 8.32883 13.7207 8.48057 13.5753C8.6323 13.4299 8.70817 13.2497 8.70817 13.0347V7.72396C8.70817 7.509 8.6323 7.32881 8.48057 7.1834C8.32883 7.03798 8.14081 6.96528 7.9165 6.96528C7.6922 6.96528 7.50418 7.03798 7.35244 7.1834C7.20071 7.32881 7.12484 7.509 7.12484 7.72396V13.0347C7.12484 13.2497 7.20071 13.4299 7.35244 13.5753C7.50418 13.7207 7.6922 13.7934 7.9165 13.7934ZM11.0832 13.7934C11.3075 13.7934 11.4955 13.7207 11.6472 13.5753C11.799 13.4299 11.8748 13.2497 11.8748 13.0347V7.72396C11.8748 7.509 11.799 7.32881 11.6472 7.1834C11.4955 7.03798 11.3075 6.96528 11.0832 6.96528C10.8589 6.96528 10.6708 7.03798 10.5191 7.1834C10.3674 7.32881 10.2915 7.509 10.2915 7.72396V13.0347C10.2915 13.2497 10.3674 13.4299 10.5191 13.5753C10.6708 13.7207 10.8589 13.7934 11.0832 13.7934Z" fill="#1E1E1E"/>
</svg>
