<svg width="18" height="18" viewBox="0 0 18 18" fill="none" xmlns="http://www.w3.org/2000/svg">
<path d="M7.6877 1.50005C7.5971 1.49889 7.50757 1.51963 7.4267 1.5605C7.34584 1.60138 7.27605 1.66118 7.22327 1.73482C7.17048 1.80846 7.13626 1.89376 7.12353 1.98346C7.11079 2.07317 7.1199 2.16462 7.1501 2.25005H5.49043C4.80146 2.25005 4.1563 2.59484 3.77437 3.1685L2.88667 4.50005H2.8127C2.73816 4.49899 2.66416 4.51276 2.59499 4.54056C2.52582 4.56835 2.46286 4.60962 2.40978 4.66196C2.3567 4.71429 2.31454 4.77666 2.28577 4.84543C2.257 4.9142 2.24219 4.988 2.24219 5.06255C2.24219 5.13709 2.257 5.21089 2.28577 5.27966C2.31454 5.34843 2.3567 5.4108 2.40978 5.46314C2.46286 5.51547 2.52582 5.55674 2.59499 5.58453C2.66416 5.61233 2.73816 5.6261 2.8127 5.62505H3.09908C3.14733 5.63234 3.19632 5.63332 3.24483 5.62798L4.17207 14.2823C4.28396 15.3256 5.17364 16.125 6.22286 16.125H11.7768C12.826 16.125 13.7157 15.3256 13.8276 14.2823L14.7556 5.62798C14.8031 5.63307 14.8511 5.63209 14.8984 5.62505H15.1877C15.2622 5.6261 15.3362 5.61233 15.4054 5.58453C15.4746 5.55674 15.5375 5.51547 15.5906 5.46314C15.6437 5.4108 15.6859 5.34843 15.7146 5.27966C15.7434 5.21089 15.7582 5.13709 15.7582 5.06255C15.7582 4.988 15.7434 4.9142 15.7146 4.84543C15.6859 4.77666 15.6437 4.71429 15.5906 4.66196C15.5375 4.60962 15.4746 4.56835 15.4054 4.54056C15.3362 4.51276 15.2622 4.49899 15.1877 4.50005H15.1137L14.226 3.1685C13.8438 2.59515 13.1987 2.25005 12.51 2.25005H10.8503C10.8805 2.16462 10.8896 2.07317 10.8769 1.98346C10.8641 1.89376 10.8299 1.80846 10.7771 1.73482C10.7243 1.66118 10.6546 1.60138 10.5737 1.5605C10.4928 1.51963 10.4033 1.49889 10.3127 1.50005H7.6877ZM5.49043 3.37505H12.51C12.824 3.37505 13.1157 3.53113 13.29 3.79253L13.7617 4.50005H4.23872L4.7104 3.79253L4.71114 3.79179C4.88494 3.53072 5.1759 3.37505 5.49043 3.37505ZM4.37642 5.62505H13.624L12.7092 14.1622C12.6576 14.6435 12.2606 15 11.7768 15H6.22286C5.73907 15 5.34283 14.6435 5.29121 14.1622L4.37642 5.62505Z" fill="#FC4D3A"/>
</svg>
