<svg width="50" height="51" viewBox="0 0 50 51" fill="none" xmlns="http://www.w3.org/2000/svg">
<path d="M15.0474 4.90841C14.7717 4.91843 14.5035 5.00126 14.2702 5.14848L4.37438 11.3985C4.15171 11.5394 3.96829 11.7344 3.8412 11.9652C3.71411 12.1961 3.64746 12.4553 3.64746 12.7189C3.64746 12.9824 3.71411 13.2417 3.8412 13.4725C3.96829 13.7034 4.15171 13.8983 4.37438 14.0393L12.1787 18.9689L4.37438 23.8985C4.15171 24.0394 3.96829 24.2344 3.8412 24.4652C3.71411 24.6961 3.64746 24.9553 3.64746 25.2189C3.64746 25.4824 3.71411 25.7417 3.8412 25.9725C3.96829 26.2034 4.15171 26.3983 4.37438 26.5393L14.2702 32.7893C14.5199 32.9469 14.8091 33.0305 15.1044 33.0305C15.3996 33.0305 15.6888 32.9469 15.9385 32.7893L25.0002 27.0662L34.0619 32.7893C34.3116 32.9469 34.6008 33.0305 34.896 33.0305C35.1913 33.0305 35.4805 32.9469 35.7302 32.7893L45.626 26.5393C45.8487 26.3983 46.0321 26.2034 46.1592 25.9725C46.2863 25.7417 46.3529 25.4824 46.3529 25.2189C46.3529 24.9553 46.2863 24.6961 46.1592 24.4652C46.0321 24.2344 45.8487 24.0394 45.626 23.8985L37.8216 18.9689L45.626 14.0393C45.8487 13.8983 46.0321 13.7034 46.1592 13.4725C46.2863 13.2417 46.3529 12.9824 46.3529 12.7189C46.3529 12.4553 46.2863 12.1961 46.1592 11.9652C46.0321 11.7344 45.8487 11.5394 45.626 11.3985L35.7302 5.14848C35.4805 4.99088 35.1913 4.90723 34.896 4.90723C34.6008 4.90723 34.3116 4.99088 34.0619 5.14848L25.0002 10.8715L15.9385 5.14848C15.6724 4.98057 15.3618 4.8969 15.0474 4.90841ZM15.1044 8.31621L21.5863 12.4096L14.6161 16.8123L8.13415 12.7189L15.1044 8.31621ZM34.896 8.31621L41.8662 12.7189L35.3843 16.8123L28.4141 12.4096L34.896 8.31621ZM25.0002 13.9498L32.9449 18.9689L25.0002 23.988L17.0555 18.9689L25.0002 13.9498ZM14.6161 21.1255L21.5863 25.5281L15.1044 29.6215L8.13415 25.2189L14.6161 21.1255ZM35.3843 21.1255L41.8662 25.2189L34.896 29.6215L28.4141 25.5281L35.3843 21.1255ZM24.9636 30.948C24.6735 30.9548 24.391 31.0421 24.1477 31.2003L14.5327 37.4503C14.3144 37.5922 14.135 37.7864 14.0108 38.0152C13.8866 38.244 13.8216 38.5002 13.8216 38.7605C13.8216 39.0209 13.8866 39.2771 14.0108 39.5059C14.135 39.7347 14.3144 39.9289 14.5327 40.0708L24.1477 46.3208C24.4014 46.4859 24.6975 46.5738 25.0002 46.5738C25.3029 46.5738 25.599 46.4859 25.8527 46.3208L35.4677 40.0708C35.686 39.9289 35.8654 39.7347 35.9896 39.5059C36.1137 39.2771 36.1788 39.0209 36.1788 38.7605C36.1788 38.5002 36.1137 38.244 35.9896 38.0152C35.8654 37.7864 35.686 37.5922 35.4677 37.4503L25.8527 31.2003C25.5885 31.0285 25.2786 30.9406 24.9636 30.948ZM25.0002 34.3742L31.7486 38.7605L25.0002 43.1469L18.2517 38.7605L25.0002 34.3742Z" fill="#FAFAFA"/>
</svg>
