<svg width="18" height="18" viewBox="0 0 18 18" fill="none" xmlns="http://www.w3.org/2000/svg">
<path d="M13.4995 1.87891C12.8265 1.87891 12.1536 2.13405 11.6436 2.64429L3.34302 10.9441C3.18553 11.1016 3.07019 11.2974 3.00904 11.5125L1.89649 15.4082C1.86905 15.5046 1.86787 15.6066 1.89306 15.7036C1.91825 15.8006 1.9689 15.8891 2.03977 15.96C2.11064 16.0309 2.19916 16.0815 2.29617 16.1067C2.39318 16.1319 2.49516 16.1307 2.59156 16.1033L6.48804 14.9907L6.48878 14.99C6.70235 14.9286 6.89772 14.8147 7.05567 14.6567L15.3555 6.3562C16.3759 5.33578 16.3759 3.66471 15.3555 2.64429C14.8455 2.13405 14.1725 1.87891 13.4995 1.87891ZM13.4995 2.99731C13.8823 2.99731 14.2646 3.14481 14.5593 3.4397H14.5601C15.1506 4.03028 15.1506 4.97021 14.5601 5.56079L13.8328 6.28809L11.7117 4.16699L12.439 3.4397C12.7337 3.14481 13.1167 2.99731 13.4995 2.99731ZM10.9163 4.9624L13.0374 7.0835L6.25953 13.8613C6.23754 13.8832 6.20969 13.8999 6.17823 13.9089L3.25586 14.7439L4.09083 11.8208V11.8201C4.09942 11.7898 4.11517 11.7628 4.13843 11.7395L10.9163 4.9624Z" fill="#475467"/>
</svg>
