<svg width="14" height="14" viewBox="0 0 14 14" fill="none" xmlns="http://www.w3.org/2000/svg">
<path d="M11.4468 5.3826L12.1127 4.71672C12.8042 4.0252 12.8042 2.89976 12.1127 2.20796C11.7778 1.87339 11.3327 1.68945 10.8582 1.68945C10.3836 1.68945 9.93823 1.87366 9.60365 2.20823L8.93805 2.87384L11.4468 5.3826ZM8.35923 3.45265L3.42822 8.38367C3.32315 8.48874 3.24319 8.61836 3.1968 8.75891L2.28259 11.5209C2.23374 11.6677 2.27222 11.8296 2.38165 11.939C2.45997 12.017 2.56422 12.0588 2.67119 12.0588C2.71431 12.0588 2.7577 12.052 2.8 12.0381L5.5612 11.1236C5.70229 11.0772 5.83219 10.9972 5.93725 10.8919L10.868 5.96114L8.35923 3.45265Z" fill="#F2F4F7"/>
</svg>
