<svg width="19" height="18" viewBox="0 0 19 18" fill="none" xmlns="http://www.w3.org/2000/svg">
<path d="M3.95833 14.0379H5.08646L12.825 7.00282L11.6969 5.97725L3.95833 13.0123V14.0379ZM3.16667 15.4773C2.94236 15.4773 2.75434 15.4083 2.6026 15.2703C2.45087 15.1324 2.375 14.9615 2.375 14.7576V13.0123C2.375 12.8204 2.41458 12.6374 2.49375 12.4635C2.57292 12.2896 2.68507 12.1367 2.83021 12.0047L12.825 2.93653C12.9833 2.80459 13.1582 2.70263 13.3495 2.63066C13.5408 2.55869 13.742 2.52271 13.9531 2.52271C14.1642 2.52271 14.3687 2.55869 14.5667 2.63066C14.7646 2.70263 14.9361 2.81058 15.0813 2.95452L16.1698 3.9621C16.3281 4.09404 16.4436 4.24998 16.5161 4.4299C16.5887 4.60983 16.625 4.78975 16.625 4.96968C16.625 5.16159 16.5887 5.34452 16.5161 5.51844C16.4436 5.69237 16.3281 5.8513 16.1698 5.99524L6.19479 15.0634C6.04965 15.1954 5.88142 15.2973 5.6901 15.3693C5.49878 15.4413 5.29757 15.4773 5.08646 15.4773H3.16667ZM12.251 6.49903L11.6969 5.97725L12.825 7.00282L12.251 6.49903Z" fill="#1E1E1E"/>
</svg>
