<svg width="19" height="18" viewBox="0 0 19 18" fill="none" xmlns="http://www.w3.org/2000/svg">
<path d="M13.8335 1.87891C13.1605 1.87891 12.4875 2.13405 11.9775 2.64429L3.67701 10.9441C3.51952 11.1016 3.40417 11.2974 3.34302 11.5125L2.23047 15.4082C2.20304 15.5046 2.20185 15.6066 2.22704 15.7036C2.25223 15.8006 2.30288 15.8891 2.37375 15.96C2.44462 16.0309 2.53314 16.0815 2.63015 16.1067C2.72716 16.1319 2.82914 16.1307 2.92554 16.1033L6.82203 14.9907L6.82276 14.99C7.03633 14.9286 7.23171 14.8147 7.38965 14.6567L15.6895 6.3562C16.7099 5.33578 16.7099 3.66471 15.6895 2.64429C15.1795 2.13405 14.5065 1.87891 13.8335 1.87891ZM13.8335 2.99731C14.2163 2.99731 14.5986 3.14481 14.8933 3.4397H14.894C15.4846 4.03028 15.4846 4.97021 14.894 5.56079L14.1668 6.28809L12.0457 4.16699L12.773 3.4397C13.0677 3.14481 13.4507 2.99731 13.8335 2.99731ZM11.2502 4.9624L13.3713 7.0835L6.59351 13.8613C6.57153 13.8832 6.54368 13.8999 6.51221 13.9089L3.58985 14.7439L4.42481 11.8208V11.8201C4.43341 11.7898 4.44916 11.7628 4.47242 11.7395L11.2502 4.9624Z" fill="#EAECF0"/>
</svg>
