<svg width="25" height="24" viewBox="0 0 25 24" fill="none" xmlns="http://www.w3.org/2000/svg">
<path d="M23.503 0.0761719H1.8796C1.35958 0.0761719 0.939453 0.4963 0.939453 1.01632V22.6397C0.939453 23.1597 1.35958 23.5798 1.8796 23.5798H23.503C24.023 23.5798 24.4431 23.1597 24.4431 22.6397V1.01632C24.4431 0.4963 24.023 0.0761719 23.503 0.0761719ZM20.7883 6.9363H18.9109C17.439 6.9363 17.154 7.63554 17.154 8.66382V10.929H20.6678L20.2095 14.4751H17.154V23.5798H13.4904V14.478H10.4261V10.929H13.4904V8.31421C13.4904 5.2793 15.3443 3.62523 18.0531 3.62523C19.3516 3.62523 20.4651 3.72218 20.7912 3.76625V6.9363H20.7883Z" fill="#CCFE06" fill-opacity="0.7"/>
</svg>
