<svg width="24" height="24" viewBox="0 0 24 24" fill="none" xmlns="http://www.w3.org/2000/svg">
<path d="M6.25 2C5.01625 2 4 3.01625 4 4.25V19.75C4 20.9838 5.01625 22 6.25 22H17.75C18.9837 22 20 20.9838 20 19.75V9.25C20 9.0511 19.9209 8.86036 19.7803 8.71973L19.7725 8.71191L13.2803 2.21973C13.1396 2.07907 12.9489 2.00004 12.75 2H6.25ZM6.25 3.5H12V7.75C12 8.98375 13.0162 10 14.25 10H18.5V19.75C18.5 20.1733 18.1732 20.5 17.75 20.5H6.25C5.82675 20.5 5.5 20.1733 5.5 19.75V4.25C5.5 3.82675 5.82675 3.5 6.25 3.5ZM13.5 4.56055L17.4395 8.5H14.25C13.8267 8.5 13.5 8.17325 13.5 7.75V4.56055ZM11.25 10.5C10.5655 10.5 10 11.0655 10 11.75C10 12.6212 10.4445 13.5633 11.0264 14.4658C10.8752 14.9566 10.711 15.4371 10.5186 15.8701C10.5139 15.8719 10.5076 15.8732 10.5029 15.875C9.23758 16.3597 8.3463 16.917 7.87793 17.3545C7.61302 17.6027 7.5 17.9391 7.5 18.25C7.5 18.5687 7.62398 18.8916 7.86621 19.1338C8.10844 19.376 8.43126 19.5 8.75 19.5C9.09651 19.5 9.38144 19.3426 9.5957 19.1689C9.85863 18.9553 10.1153 18.6303 10.4189 18.1748C10.6828 17.7789 10.9643 17.2577 11.2354 16.7012C11.6678 16.5505 12.1265 16.41 12.6348 16.2988C13.4246 16.9668 14.2891 17.5 15.25 17.5C15.9345 17.5 16.5 16.9345 16.5 16.25C16.5 15.5655 15.9345 15 15.25 15C14.4195 15 13.6541 15.0988 12.9277 15.2285C12.7582 15.0667 12.5683 14.9598 12.4131 14.7764C12.297 14.6392 12.2375 14.4821 12.1328 14.3369C12.3535 13.5138 12.5 12.6424 12.5 11.75C12.5 11.0655 11.9345 10.5 11.25 10.5ZM11.25 11.5C11.3935 11.5 11.5 11.6065 11.5 11.75C11.5 12.1593 11.3948 12.5605 11.333 12.9678C11.1472 12.5156 11 12.0723 11 11.75C11 11.6065 11.1065 11.5 11.25 11.5ZM11.7187 15.4844C11.729 15.4962 11.7426 15.5038 11.7529 15.5156C11.7357 15.5204 11.7193 15.5254 11.7021 15.5303C11.7079 15.5151 11.713 15.4996 11.7187 15.4844ZM15.25 16C15.3935 16 15.5 16.1065 15.5 16.25C15.5 16.3935 15.3935 16.5 15.25 16.5C14.8992 16.5 14.5021 16.3137 14.1094 16.1123C14.4917 16.0752 14.8424 16 15.25 16ZM9.74023 17.3418C9.68978 17.4225 9.63451 17.5472 9.58594 17.6201C9.31364 18.0287 9.05391 18.3202 8.96484 18.3926C8.85809 18.4787 8.78728 18.5 8.75 18.5C8.68474 18.5 8.62401 18.4775 8.57324 18.4268C8.52247 18.376 8.5 18.3153 8.5 18.25C8.5 18.1774 8.52389 18.1198 8.56055 18.085L8.56152 18.084C8.74581 17.9121 9.19118 17.6344 9.74023 17.3418Z" fill="#EAECF0"/>
</svg>
