<svg width="30" height="30" viewBox="0 0 30 30" fill="none" xmlns="http://www.w3.org/2000/svg">
<path d="M15 26.25C14.6458 26.25 14.349 26.1302 14.1094 25.8906C13.8698 25.651 13.75 25.3542 13.75 25V20C13.75 19.6458 13.8698 19.349 14.1094 19.1094C14.349 18.8698 14.6458 18.75 15 18.75C15.3542 18.75 15.651 18.8698 15.8906 19.1094C16.1302 19.349 16.25 19.6458 16.25 20V21.25H25C25.3542 21.25 25.651 21.3698 25.8906 21.6094C26.1302 21.849 26.25 22.1458 26.25 22.5C26.25 22.8542 26.1302 23.151 25.8906 23.3906C25.651 23.6302 25.3542 23.75 25 23.75H16.25V25C16.25 25.3542 16.1302 25.651 15.8906 25.8906C15.651 26.1302 15.3542 26.25 15 26.25ZM5 23.75C4.64583 23.75 4.34896 23.6302 4.10938 23.3906C3.86979 23.151 3.75 22.8542 3.75 22.5C3.75 22.1458 3.86979 21.849 4.10938 21.6094C4.34896 21.3698 4.64583 21.25 5 21.25H10C10.3542 21.25 10.651 21.3698 10.8906 21.6094C11.1302 21.849 11.25 22.1458 11.25 22.5C11.25 22.8542 11.1302 23.151 10.8906 23.3906C10.651 23.6302 10.3542 23.75 10 23.75H5ZM10 18.75C9.64583 18.75 9.34896 18.6302 9.10938 18.3906C8.86979 18.151 8.75 17.8542 8.75 17.5V16.25H5C4.64583 16.25 4.34896 16.1302 4.10938 15.8906C3.86979 15.651 3.75 15.3542 3.75 15C3.75 14.6458 3.86979 14.349 4.10938 14.1094C4.34896 13.8698 4.64583 13.75 5 13.75H8.75V12.5C8.75 12.1458 8.86979 11.849 9.10938 11.6094C9.34896 11.3698 9.64583 11.25 10 11.25C10.3542 11.25 10.651 11.3698 10.8906 11.6094C11.1302 11.849 11.25 12.1458 11.25 12.5V17.5C11.25 17.8542 11.1302 18.151 10.8906 18.3906C10.651 18.6302 10.3542 18.75 10 18.75ZM15 16.25C14.6458 16.25 14.349 16.1302 14.1094 15.8906C13.8698 15.651 13.75 15.3542 13.75 15C13.75 14.6458 13.8698 14.349 14.1094 14.1094C14.349 13.8698 14.6458 13.75 15 13.75H25C25.3542 13.75 25.651 13.8698 25.8906 14.1094C26.1302 14.349 26.25 14.6458 26.25 15C26.25 15.3542 26.1302 15.651 25.8906 15.8906C25.651 16.1302 25.3542 16.25 25 16.25H15ZM20 11.25C19.6458 11.25 19.349 11.1302 19.1094 10.8906C18.8698 10.651 18.75 10.3542 18.75 10V5C18.75 4.64583 18.8698 4.34896 19.1094 4.10938C19.349 3.86979 19.6458 3.75 20 3.75C20.3542 3.75 20.651 3.86979 20.8906 4.10938C21.1302 4.34896 21.25 4.64583 21.25 5V6.25H25C25.3542 6.25 25.651 6.36979 25.8906 6.60938C26.1302 6.84896 26.25 7.14583 26.25 7.5C26.25 7.85417 26.1302 8.15104 25.8906 8.39062C25.651 8.63021 25.3542 8.75 25 8.75H21.25V10C21.25 10.3542 21.1302 10.651 20.8906 10.8906C20.651 11.1302 20.3542 11.25 20 11.25ZM5 8.75C4.64583 8.75 4.34896 8.63021 4.10938 8.39062C3.86979 8.15104 3.75 7.85417 3.75 7.5C3.75 7.14583 3.86979 6.84896 4.10938 6.60938C4.34896 6.36979 4.64583 6.25 5 6.25H15C15.3542 6.25 15.651 6.36979 15.8906 6.60938C16.1302 6.84896 16.25 7.14583 16.25 7.5C16.25 7.85417 16.1302 8.15104 15.8906 8.39062C15.651 8.63021 15.3542 8.75 15 8.75H5Z" fill="#FAFAFA"/>
</svg>
