<svg width="21" height="21" viewBox="0 0 21 21" fill="none" xmlns="http://www.w3.org/2000/svg">
<path fill-rule="evenodd" clip-rule="evenodd" d="M15.8395 0.172363H5.51682C2.67834 0.172363 0.355469 2.4942 0.355469 5.33372V15.6564C0.355469 18.4949 2.67834 20.8178 5.51682 20.8178H15.8395C18.678 20.8178 21.0009 18.4949 21.0009 15.6564V5.33372C21.0009 2.4942 18.678 0.172363 15.8395 0.172363ZM10.6774 14.7965C8.30158 14.7965 6.37614 12.8703 6.37614 10.4956C6.37614 8.11981 8.30158 6.19436 10.6774 6.19436C13.0521 6.19436 14.9786 8.11981 14.9786 10.4956C14.9786 12.8703 13.0521 14.7965 10.6774 14.7965ZM14.9799 4.9038C14.9799 5.61632 15.5569 6.19413 16.2702 6.19413C16.9835 6.19413 17.5605 5.61632 17.5605 4.9038C17.5605 4.19127 16.9835 3.61346 16.2702 3.61346C15.5569 3.61346 14.9799 4.19127 14.9799 4.9038Z" fill="#FAFAFA"/>
</svg>
