<svg width="24" height="19" viewBox="0 0 24 19" fill="none" xmlns="http://www.w3.org/2000/svg">
<path d="M21.0467 4.88148C21.0617 5.0822 21.0617 5.28178 21.0617 5.48135C21.0617 11.5889 16.413 18.6267 7.91741 18.6267C5.30003 18.6267 2.86846 17.8686 0.822266 16.5519C1.19388 16.5943 1.55174 16.6092 1.93826 16.6092C4.098 16.6092 6.0857 15.8798 7.67425 14.6353C5.64297 14.5929 3.94087 13.2624 3.35362 11.4318C3.63922 11.4743 3.92596 11.5029 4.22646 11.5029C4.64052 11.5029 5.05687 11.4456 5.4434 11.3458C3.32495 10.9168 1.73869 9.05759 1.73869 6.81183V6.75448C2.35461 7.09742 3.06917 7.31191 3.82617 7.34058C2.58171 6.51247 1.76622 5.09597 1.76622 3.49365C1.76622 2.63572 1.99447 1.8489 2.39476 1.16302C4.66919 3.96506 8.0883 5.79676 11.9215 5.99748C11.8504 5.65339 11.8068 5.29669 11.8068 4.93883C11.8068 2.39256 13.8667 0.318848 16.4268 0.318848C17.7572 0.318848 18.9581 0.876274 19.8023 1.77779C20.846 1.57707 21.8462 1.19054 22.7339 0.661791C22.391 1.73421 21.6604 2.63572 20.7027 3.20806C21.6328 3.10713 22.5344 2.8502 23.3625 2.49235C22.7339 3.40763 21.9483 4.22312 21.0467 4.88148Z" fill="#FAFAFA"/>
</svg>
