<svg width="18" height="16" viewBox="0 0 18 16" fill="none" xmlns="http://www.w3.org/2000/svg">
<path d="M11.8125 14.375C11.5684 14.375 11.3516 14.2171 11.277 13.9846L10.1794 10.5706L6.76538 9.473C6.53288 9.39837 6.375 9.18163 6.375 8.9375C6.375 8.69337 6.53288 8.47663 6.76538 8.402L10.1794 7.30438L11.277 3.89038C11.3516 3.65788 11.5684 3.5 11.8125 3.5C12.0566 3.5 12.2734 3.65788 12.348 3.89038L13.4456 7.30438L16.8596 8.402C17.0921 8.47663 17.25 8.69337 17.25 8.9375C17.25 9.18163 17.0921 9.39837 16.8596 9.473L13.4456 10.5706L12.348 13.9846C12.2734 14.2171 12.0566 14.375 11.8125 14.375ZM4.5 7.625C4.25775 7.625 4.04287 7.47013 3.96637 7.24063L3.25838 5.11663L1.13438 4.40863C0.904875 4.33213 0.75 4.11725 0.75 3.875C0.75 3.63275 0.904875 3.41787 1.13438 3.34137L3.25838 2.63338L3.96637 0.509375C4.04287 0.279875 4.25775 0.125 4.5 0.125C4.74225 0.125 4.95713 0.279875 5.03363 0.509375L5.74162 2.63338L7.86563 3.34137C8.09513 3.41787 8.25 3.63275 8.25 3.875C8.25 4.11725 8.09513 4.33213 7.86563 4.40863L5.74162 5.11663L5.03363 7.24063C4.95713 7.47013 4.74225 7.625 4.5 7.625ZM3.9375 15.875C3.69525 15.875 3.48037 15.7201 3.40387 15.4906L2.83613 13.7885L1.13438 13.2211C0.904875 13.1446 0.75 12.9298 0.75 12.6875C0.75 12.4452 0.904875 12.2304 1.13438 12.1539L2.83613 11.5865L3.40387 9.88437C3.48037 9.65487 3.69525 9.5 3.9375 9.5C4.17975 9.5 4.39463 9.65487 4.47113 9.88437L5.0385 11.5865L6.74063 12.1539C6.97013 12.2304 7.125 12.4452 7.125 12.6875C7.125 12.9298 6.97013 13.1446 6.74063 13.2211L5.0385 13.7885L4.47113 15.4906C4.39463 15.7201 4.17975 15.875 3.9375 15.875Z" fill="url(#paint0_linear_4400_11108)"/>
<defs>
<linearGradient id="paint0_linear_4400_11108" x1="0.75" y1="2.23463" x2="17.4015" y2="2.42165" gradientUnits="userSpaceOnUse">
<stop stop-color="#655DBB"/>
<stop offset="1" stop-color="#3E54AC"/>
</linearGradient>
</defs>
</svg>
