<svg width="24" height="25" viewBox="0 0 24 25" fill="none" xmlns="http://www.w3.org/2000/svg">
<path fill-rule="evenodd" clip-rule="evenodd" d="M0.484375 11.0503C0.484375 6.16024 0.484375 3.71456 2.00417 2.19606C3.52267 0.676269 5.96835 0.67627 10.8584 0.67627H13.4519C18.342 0.67627 20.7876 0.676269 22.3061 2.19606C23.8259 3.71456 23.8259 6.16024 23.8259 11.0503V13.6438C23.8259 18.5339 23.8259 20.9795 22.3061 22.498C20.7876 24.0178 18.342 24.0178 13.4519 24.0178H10.8584C5.96835 24.0178 3.52267 24.0178 2.00417 22.498C0.484375 20.9795 0.484375 18.5339 0.484375 13.6438V11.0503ZM19.9357 6.51166C19.9357 7.02754 19.7307 7.52229 19.366 7.88708C19.0012 8.25186 18.5064 8.45679 17.9906 8.45679C17.4747 8.45679 16.9799 8.25186 16.6151 7.88708C16.2504 7.52229 16.0454 7.02754 16.0454 6.51166C16.0454 5.99578 16.2504 5.50103 16.6151 5.13625C16.9799 4.77146 17.4747 4.56653 17.9906 4.56653C18.5064 4.56653 19.0012 4.77146 19.366 5.13625C19.7307 5.50103 19.9357 5.99578 19.9357 6.51166ZM14.7487 13.6438C14.7487 14.3316 14.4754 14.9913 13.989 15.4777C13.5027 15.9641 12.843 16.2373 12.1552 16.2373C11.4673 16.2373 10.8076 15.9641 10.3213 15.4777C9.8349 14.9913 9.56165 14.3316 9.56165 13.6438C9.56165 12.956 9.8349 12.2963 10.3213 11.8099C10.8076 11.3235 11.4673 11.0503 12.1552 11.0503C12.843 11.0503 13.5027 11.3235 13.989 11.8099C14.4754 12.2963 14.7487 12.956 14.7487 13.6438ZM17.3422 13.6438C17.3422 15.0195 16.7957 16.3388 15.8229 17.3116C14.8502 18.2843 13.5308 18.8308 12.1552 18.8308C10.7795 18.8308 9.46014 18.2843 8.48738 17.3116C7.51463 16.3388 6.96814 15.0195 6.96814 13.6438C6.96814 12.2681 7.51463 10.9488 8.48738 9.97603C9.46014 9.00328 10.7795 8.45679 12.1552 8.45679C13.5308 8.45679 14.8502 9.00328 15.8229 9.97603C16.7957 10.9488 17.3422 12.2681 17.3422 13.6438Z" fill="#CCFE06" fill-opacity="0.7"/>
</svg>
