<svg width="24" height="25" viewBox="0 0 24 25" fill="none" xmlns="http://www.w3.org/2000/svg">
<path fill-rule="evenodd" clip-rule="evenodd" d="M20.0079 0.67627C21.0397 0.67627 22.0292 1.08614 22.7588 1.8157C23.4883 2.54527 23.8982 3.53477 23.8982 4.56653V20.1276C23.8982 21.1593 23.4883 22.1488 22.7588 22.8784C22.0292 23.608 21.0397 24.0178 20.0079 24.0178H4.4469C3.41514 24.0178 2.42564 23.608 1.69607 22.8784C0.966506 22.1488 0.556641 21.1593 0.556641 20.1276V4.56653C0.556641 3.53477 0.966506 2.54527 1.69607 1.8157C2.42564 1.08614 3.41514 0.67627 4.4469 0.67627H20.0079ZM7.04041 9.75355C6.69649 9.75355 6.36665 9.89017 6.12347 10.1334C5.88028 10.3765 5.74366 10.7064 5.74366 11.0503V17.5341C5.74366 17.878 5.88028 18.2078 6.12347 18.451C6.36665 18.6942 6.69649 18.8308 7.04041 18.8308C7.38433 18.8308 7.71416 18.6942 7.95735 18.451C8.20054 18.2078 8.33716 17.878 8.33716 17.5341V11.0503C8.33716 10.7064 8.20054 10.3765 7.95735 10.1334C7.71416 9.89017 7.38433 9.75355 7.04041 9.75355ZM10.9307 8.45679C10.5868 8.45679 10.2569 8.59341 10.0137 8.8366C9.77054 9.07979 9.63392 9.40963 9.63392 9.75355V17.5341C9.63392 17.878 9.77054 18.2078 10.0137 18.451C10.2569 18.6942 10.5868 18.8308 10.9307 18.8308C11.2746 18.8308 11.6044 18.6942 11.8476 18.451C12.0908 18.2078 12.2274 17.878 12.2274 17.5341V12.7879C12.6229 12.3419 13.2908 11.818 14.0338 11.5003C14.4656 11.3161 15.1153 11.2409 15.5666 11.3836C15.7163 11.4215 15.8496 11.5071 15.9465 11.6274C16.0139 11.7181 16.1177 11.9204 16.1177 12.3471V17.5341C16.1177 17.878 16.2543 18.2078 16.4975 18.451C16.7407 18.6942 17.0705 18.8308 17.4144 18.8308C17.7584 18.8308 18.0882 18.6942 18.3314 18.451C18.5746 18.2078 18.7112 17.878 18.7112 17.5341V12.3471C18.7112 11.4782 18.4907 10.7054 18.0317 10.0855C17.6093 9.52345 17.0181 9.1113 16.3446 8.90936C15.1749 8.54238 13.8795 8.74597 13.0146 9.11684C12.7374 9.23545 12.4676 9.37055 12.2067 9.52143C12.1523 9.22264 11.9948 8.95241 11.7616 8.75785C11.5284 8.56329 11.2344 8.45675 10.9307 8.45679ZM7.04041 5.86328C6.69649 5.86328 6.36665 5.99991 6.12347 6.2431C5.88028 6.48628 5.74366 6.81612 5.74366 7.16004C5.74366 7.50396 5.88028 7.83379 6.12347 8.07698C6.36665 8.32017 6.69649 8.45679 7.04041 8.45679C7.38433 8.45679 7.71416 8.32017 7.95735 8.07698C8.20054 7.83379 8.33716 7.50396 8.33716 7.16004C8.33716 6.81612 8.20054 6.48628 7.95735 6.2431C7.71416 5.99991 7.38433 5.86328 7.04041 5.86328Z" fill="#CCFE06" fill-opacity="0.7"/>
</svg>
