<svg width="26" height="30" viewBox="0 0 26 30" fill="none" xmlns="http://www.w3.org/2000/svg">
<path d="M3.375 0C1.51425 0 0 1.51425 0 3.375V26.625C0 28.4858 1.51425 30 3.375 30H14.625C16.4858 30 18 28.4858 18 26.625V22.5H11.25C9.17925 22.5 7.5 20.8207 7.5 18.75V11.25C7.5 9.17925 9.17925 7.5 11.25 7.5H18V3.375C18 1.51425 16.4858 0 14.625 0H3.375ZM9 3.75C9.621 3.75 10.125 4.254 10.125 4.875C10.125 5.496 9.621 6 9 6C8.379 6 7.875 5.496 7.875 4.875C7.875 4.254 8.379 3.75 9 3.75ZM11.25 9C10.9425 9 10.6499 9.06018 10.3799 9.18018L16.2378 14.5503C16.8153 15.0828 17.6847 15.0828 18.2622 14.5503L24.1201 9.18018C23.8501 9.06018 23.5575 9 23.25 9H11.25ZM9.26221 10.1997C9.09721 10.5147 9 10.8675 9 11.25V18.75C9 19.995 10.005 21 11.25 21H23.25C24.495 21 25.5 19.995 25.5 18.75V11.25C25.5 10.8675 25.4028 10.5147 25.2378 10.1997L19.2744 15.6606C18.1194 16.7181 16.3806 16.7181 15.2256 15.6606L9.26221 10.1997ZM7.125 24H10.875C11.4967 24 12 24.504 12 25.125C12 25.746 11.4967 26.25 10.875 26.25H7.125C6.50325 26.25 6 25.746 6 25.125C6 24.504 6.50325 24 7.125 24Z" fill="#655DBB"/>
</svg>
