<svg width="25" height="24" viewBox="0 0 25 24" fill="none" xmlns="http://www.w3.org/2000/svg">
<path d="M12.334 2C6.82013 2 2.33398 6.48615 2.33398 12C2.33398 17.5139 6.82013 22 12.334 22C17.8478 22 22.334 17.5139 22.334 12C22.334 6.48615 17.8478 2 12.334 2ZM12.334 3.5C17.0371 3.5 20.834 7.29685 20.834 12C20.834 16.7031 17.0371 20.5 12.334 20.5C7.63084 20.5 3.83398 16.7031 3.83398 12C3.83398 7.29685 7.63084 3.5 12.334 3.5ZM10.084 8C9.12651 8 8.33398 8.79252 8.33398 9.75V14.25C8.33398 15.2075 9.12651 16 10.084 16H14.584C15.5415 16 16.334 15.2075 16.334 14.25V9.75C16.334 8.79252 15.5415 8 14.584 8H10.084ZM10.084 9.5H14.584C14.7315 9.5 14.834 9.60248 14.834 9.75V14.25C14.834 14.3975 14.7315 14.5 14.584 14.5H10.084C9.93646 14.5 9.83398 14.3975 9.83398 14.25V9.75C9.83398 9.60248 9.93646 9.5 10.084 9.5Z" fill="#FC4D3A"/>
</svg>
