<svg width="25" height="24" viewBox="0 0 25 24" fill="none" xmlns="http://www.w3.org/2000/svg">
<path d="M12.668 2C7.15411 2 2.66797 6.48615 2.66797 12C2.66797 17.5139 7.15411 22 12.668 22C18.1818 22 22.668 17.5139 22.668 12C22.668 6.48615 18.1818 2 12.668 2ZM12.668 3.5C17.3711 3.5 21.168 7.29685 21.168 12C21.168 16.7031 17.3711 20.5 12.668 20.5C7.96482 20.5 4.16797 16.7031 4.16797 12C4.16797 7.29685 7.96482 3.5 12.668 3.5ZM10.375 7.58887C9.74687 7.62796 9.16797 8.14734 9.16797 8.82812V15.1719C9.16797 16.0796 10.1971 16.7003 11 16.2783V16.2773L17.0264 13.1055V13.1064C17.8794 12.6584 17.8795 11.3424 17.0273 10.8936H17.0264L11 7.72168C10.7993 7.61619 10.5844 7.57584 10.375 7.58887ZM10.668 9.24121L15.9082 12L10.668 14.7578V9.24121Z" fill="#475467"/>
</svg>
