<svg width="28" height="28" viewBox="0 0 28 28" fill="none" xmlns="http://www.w3.org/2000/svg">
<path d="M6.70833 3.5C4.93908 3.5 3.5 4.93967 3.5 6.70833V21.2917C3.5 23.0603 4.93908 24.5 6.70833 24.5H16.9771C16.9409 24.3093 16.9167 24.1156 16.9167 23.9167V22.75H6.70833C5.9045 22.75 5.25 22.0961 5.25 21.2917V6.70833C5.25 5.90392 5.9045 5.25 6.70833 5.25H21.2917C22.0955 5.25 22.75 5.90392 22.75 6.70833V13.4315C23.3911 13.4805 23.9873 13.6892 24.5 14.0182V6.70833C24.5 4.93967 23.0609 3.5 21.2917 3.5H6.70833ZM12.2329 7.57536C12.0057 7.58198 11.7899 7.67678 11.6313 7.83968L9.33333 10.1377L8.49365 9.29801C8.41303 9.21404 8.31645 9.147 8.20959 9.10081C8.10273 9.05463 7.98773 9.03023 7.87132 9.02905C7.75491 9.02786 7.63943 9.04992 7.53165 9.09392C7.42387 9.13792 7.32596 9.20299 7.24364 9.28531C7.16132 9.36763 7.09626 9.46554 7.05225 9.57332C7.00825 9.6811 6.98619 9.79657 6.98738 9.91298C6.98856 10.0294 7.01296 10.1444 7.05915 10.2513C7.10533 10.3581 7.17237 10.4547 7.25635 10.5353L8.71468 11.9937C8.87878 12.1577 9.10131 12.2498 9.33333 12.2498C9.56536 12.2498 9.78789 12.1577 9.95199 11.9937L12.8687 9.07699C12.9949 8.95405 13.0811 8.79586 13.1159 8.62313C13.1508 8.4504 13.1326 8.27118 13.0639 8.10891C12.9952 7.94665 12.8792 7.8089 12.7309 7.7137C12.5826 7.6185 12.409 7.57029 12.2329 7.57536ZM14.875 9.33333C14.7591 9.33169 14.6439 9.35312 14.5363 9.39635C14.4287 9.43959 14.3308 9.50378 14.2482 9.58519C14.1657 9.66661 14.1001 9.76362 14.0553 9.8706C14.0106 9.97757 13.9875 10.0924 13.9875 10.2083C13.9875 10.3243 14.0106 10.4391 14.0553 10.5461C14.1001 10.653 14.1657 10.7501 14.2482 10.8315C14.3308 10.9129 14.4287 10.9771 14.5363 11.0203C14.6439 11.0636 14.7591 11.085 14.875 11.0833H20.125C20.2409 11.085 20.3561 11.0636 20.4637 11.0203C20.5713 10.9771 20.6692 10.9129 20.7518 10.8315C20.8343 10.7501 20.8999 10.653 20.9447 10.5461C20.9894 10.4391 21.0125 10.3243 21.0125 10.2083C21.0125 10.0924 20.9894 9.97757 20.9447 9.8706C20.8999 9.76362 20.8343 9.66661 20.7518 9.58519C20.6692 9.50378 20.5713 9.43959 20.4637 9.39635C20.3561 9.35312 20.2409 9.33169 20.125 9.33333H14.875ZM22.4583 14.5833C21.7621 14.5833 21.0945 14.8599 20.6022 15.3522C20.1099 15.8445 19.8333 16.5121 19.8333 17.2083C19.8333 17.9045 20.1099 18.5722 20.6022 19.0645C21.0945 19.5568 21.7621 19.8333 22.4583 19.8333C23.1545 19.8333 23.8222 19.5568 24.3145 19.0645C24.8068 18.5722 25.0833 17.9045 25.0833 17.2083C25.0833 16.5121 24.8068 15.8445 24.3145 15.3522C23.8222 14.8599 23.1545 14.5833 22.4583 14.5833ZM12.2329 15.1587C12.0057 15.1653 11.7899 15.2601 11.6313 15.423L9.33333 17.721L8.49365 16.8813C8.41303 16.7974 8.31645 16.7303 8.20959 16.6841C8.10273 16.638 7.98773 16.6136 7.87132 16.6124C7.75491 16.6112 7.63943 16.6333 7.53165 16.6773C7.42387 16.7213 7.32596 16.7863 7.24364 16.8686C7.16132 16.951 7.09626 17.0489 7.05225 17.1567C7.00825 17.2644 6.98619 17.3799 6.98738 17.4963C6.98856 17.6127 7.01296 17.7277 7.05915 17.8346C7.10533 17.9415 7.17237 18.038 7.25635 18.1187L8.71468 19.577C8.87878 19.741 9.10131 19.8332 9.33333 19.8332C9.56536 19.8332 9.78789 19.741 9.95199 19.577L12.8687 16.6603C12.9949 16.5374 13.0811 16.3792 13.1159 16.2065C13.1508 16.0337 13.1326 15.8545 13.0639 15.6922C12.9952 15.53 12.8792 15.3922 12.7309 15.297C12.5826 15.2018 12.409 15.1536 12.2329 15.1587ZM14.875 16.9167C14.3914 16.9167 14 17.3087 14 17.7917C14 18.2747 14.3914 18.6667 14.875 18.6667H18.9583C18.7711 18.2175 18.6667 17.7252 18.6667 17.2083C18.6667 17.1098 18.6745 17.0135 18.6815 16.9167H14.875ZM19.8333 21C18.8668 21 18.0833 21.7834 18.0833 22.75V23.9167C18.0833 25.5273 20.0422 26.8333 22.4583 26.8333C24.8745 26.8333 26.8333 25.5273 26.8333 23.9167V22.75C26.8333 21.7834 26.0499 21 25.0833 21H19.8333Z" fill="#667085"/>
</svg>
