<svg width="18" height="19" viewBox="0 0 18 19" fill="none" xmlns="http://www.w3.org/2000/svg">
<path d="M1.5 10.2499H14.6895L12.2197 12.7197C11.9269 13.0125 11.9269 13.4873 12.2197 13.7802C12.3664 13.9268 12.558 13.9999 12.75 13.9999C12.942 13.9999 13.1336 13.9268 13.2803 13.7802L17.0303 10.0302C17.1709 9.88991 17.25 9.69903 17.25 9.49991C17.25 9.30078 17.1709 9.11028 17.0303 8.96966L13.2803 5.21966C12.9874 4.92678 12.5126 4.92678 12.2197 5.21966C11.9269 5.51253 11.9269 5.98728 12.2197 6.28016L14.6895 8.74991H1.5C1.086 8.74991 0.75 9.08591 0.75 9.49991C0.75 9.91391 1.086 10.2499 1.5 10.2499Z" fill="#475467"/>
</svg>
