<svg width="18" height="18" viewBox="0 0 18 18" fill="none" xmlns="http://www.w3.org/2000/svg">
<path d="M8.9998 12C9.9373 12 10.7342 11.6719 11.3904 11.0156C12.0467 10.3594 12.3748 9.5625 12.3748 8.625C12.3748 7.6875 12.0467 6.89063 11.3904 6.23438C10.7342 5.57812 9.9373 5.25 8.9998 5.25C8.0623 5.25 7.26543 5.57812 6.60918 6.23438C5.95293 6.89063 5.6248 7.6875 5.6248 8.625C5.6248 9.5625 5.95293 10.3594 6.60918 11.0156C7.26543 11.6719 8.0623 12 8.9998 12ZM8.9998 10.65C8.4373 10.65 7.95918 10.4531 7.56543 10.0594C7.17168 9.66563 6.9748 9.1875 6.9748 8.625C6.9748 8.0625 7.17168 7.58438 7.56543 7.19063C7.95918 6.79688 8.4373 6.6 8.9998 6.6C9.5623 6.6 10.0404 6.79688 10.4342 7.19063C10.8279 7.58438 11.0248 8.0625 11.0248 8.625C11.0248 9.1875 10.8279 9.66563 10.4342 10.0594C10.0404 10.4531 9.5623 10.65 8.9998 10.65ZM8.9998 14.25C7.3248 14.25 5.79668 13.8 4.41543 12.9C3.03418 12 1.94355 10.8125 1.14355 9.3375C1.08105 9.225 1.03418 9.10938 1.00293 8.99063C0.97168 8.87188 0.956055 8.75 0.956055 8.625C0.956055 8.5 0.97168 8.37813 1.00293 8.25938C1.03418 8.14062 1.08105 8.025 1.14355 7.9125C1.94355 6.4375 3.03418 5.25 4.41543 4.35C5.79668 3.45 7.3248 3 8.9998 3C10.6748 3 12.2029 3.45 13.5842 4.35C14.9654 5.25 16.0561 6.4375 16.8561 7.9125C16.9186 8.025 16.9654 8.14062 16.9967 8.25938C17.0279 8.37813 17.0436 8.5 17.0436 8.625C17.0436 8.75 17.0279 8.87188 16.9967 8.99063C16.9654 9.10938 16.9186 9.225 16.8561 9.3375C16.0561 10.8125 14.9654 12 13.5842 12.9C12.2029 13.8 10.6748 14.25 8.9998 14.25ZM8.9998 12.75C10.4123 12.75 11.7092 12.3781 12.8904 11.6344C14.0717 10.8906 14.9748 9.8875 15.5998 8.625C14.9748 7.3625 14.0717 6.35938 12.8904 5.61563C11.7092 4.87188 10.4123 4.5 8.9998 4.5C7.5873 4.5 6.29043 4.87188 5.10918 5.61563C3.92793 6.35938 3.0248 7.3625 2.3998 8.625C3.0248 9.8875 3.92793 10.8906 5.10918 11.6344C6.29043 12.3781 7.5873 12.75 8.9998 12.75Z" fill="#1E1E1E"/>
</svg>
