<svg width="24" height="25" viewBox="0 0 24 25" fill="none" xmlns="http://www.w3.org/2000/svg">
<path d="M3.74029 3.50006C3.54308 3.50265 3.35482 3.58281 3.21628 3.72318C3.07774 3.86355 3.00005 4.05284 3.00005 4.25006V8.14069C2.99119 8.2068 2.99119 8.2738 3.00005 8.33991V20.7501C3.00007 20.949 3.0791 21.1397 3.21974 21.2804C3.36039 21.421 3.55115 21.5 3.75005 21.5001H20.2501C20.449 21.5 20.6397 21.421 20.7804 21.2804C20.921 21.1397 21 20.949 21.0001 20.7501V12.1114C21.0136 12.0299 21.0136 11.9468 21.0001 11.8653V6.75006C21 6.63009 20.9712 6.51187 20.916 6.40534C20.8609 6.2988 20.781 6.20705 20.683 6.13779C20.585 6.06853 20.4719 6.02378 20.3531 6.00729C20.2342 5.9908 20.1132 6.00306 20.0001 6.04303L16.129 7.40924L12.4502 4.65045C12.3552 4.57907 12.2445 4.5313 12.1273 4.5111C12.0102 4.49089 11.8899 4.49883 11.7764 4.53424L8.07427 5.69049L4.10064 3.58698C3.98968 3.52831 3.86578 3.49843 3.74029 3.50006ZM4.50005 5.49616L7.64947 7.16315C7.73697 7.20939 7.83275 7.23785 7.9313 7.2469C8.02986 7.25595 8.12923 7.24541 8.22368 7.21588L11.8575 6.08014L15.5499 8.84967C15.6487 8.92388 15.7643 8.97251 15.8865 8.99125C16.0086 9.00999 16.1335 8.99826 16.2501 8.95709L19.5001 7.80963V11.6895L16.5001 14.6895L12.5303 10.7198C12.4451 10.6346 12.3406 10.5713 12.2257 10.5351C12.1108 10.4989 11.9888 10.4909 11.8702 10.5118L7.98931 11.1964L4.50005 7.92584V5.49616ZM4.50005 9.98053L5.39068 10.8155C5.30278 10.9383 5.25005 11.0876 5.25005 11.2501C5.25005 11.6641 5.58605 12.0001 6.00005 12.0001C6.1797 12.0001 6.34254 11.9346 6.47173 11.8292L6.93462 12.2628C6.8212 12.3942 6.75005 12.563 6.75005 12.7501C6.75005 13.1641 7.08605 13.5001 7.50005 13.5001C7.91405 13.5001 8.25005 13.1641 8.25005 12.7501C8.25005 12.7244 8.24477 12.6999 8.24224 12.6749L9.84478 12.3917C9.78605 12.4986 9.75005 12.6195 9.75005 12.7501C9.75005 13.1641 10.0861 13.5001 10.5001 13.5001C10.9141 13.5001 11.2501 13.1641 11.2501 12.7501C11.2501 12.5259 11.1493 12.327 10.9932 12.1895L11.7461 12.0567L15.9698 16.2803C16.1104 16.4209 16.3012 16.4999 16.5001 16.4999C16.6989 16.4999 16.8897 16.4209 17.0303 16.2803L19.5001 13.8106V15.0001C19.0861 15.0001 18.7501 15.3361 18.7501 15.7501C18.7501 16.1641 19.0861 16.5001 19.5001 16.5001V18.0001C19.0861 18.0001 18.7501 18.3361 18.7501 18.7501C18.7501 19.1641 19.0861 19.5001 19.5001 19.5001V20.0001H18.7042C18.6008 19.7094 18.326 19.5001 18.0001 19.5001C17.6741 19.5001 17.3993 19.7094 17.2959 20.0001H15.7042C15.6008 19.7094 15.326 19.5001 15.0001 19.5001C14.6741 19.5001 14.3993 19.7094 14.2959 20.0001H12.7042C12.6008 19.7094 12.326 19.5001 12.0001 19.5001C11.6741 19.5001 11.3993 19.7094 11.2959 20.0001H9.70415C9.60081 19.7094 9.32599 19.5001 9.00005 19.5001C8.67411 19.5001 8.39929 19.7094 8.29595 20.0001H6.70415C6.60081 19.7094 6.32599 19.5001 6.00005 19.5001C5.67411 19.5001 5.3993 19.7094 5.29595 20.0001H4.50005V19.5001C4.91405 19.5001 5.25005 19.1641 5.25005 18.7501C5.25005 18.3361 4.91405 18.0001 4.50005 18.0001V16.5001C4.91405 16.5001 5.25005 16.1641 5.25005 15.7501C5.25005 15.3361 4.91405 15.0001 4.50005 15.0001V13.5001C4.91405 13.5001 5.25005 13.1641 5.25005 12.7501C5.25005 12.3361 4.91405 12.0001 4.50005 12.0001V9.98053ZM6.00005 13.5001C5.58605 13.5001 5.25005 13.8361 5.25005 14.2501C5.25005 14.6641 5.58605 15.0001 6.00005 15.0001C6.41405 15.0001 6.75005 14.6641 6.75005 14.2501C6.75005 13.8361 6.41405 13.5001 6.00005 13.5001ZM9.00005 13.5001C8.58605 13.5001 8.25005 13.8361 8.25005 14.2501C8.25005 14.6641 8.58605 15.0001 9.00005 15.0001C9.41405 15.0001 9.75005 14.6641 9.75005 14.2501C9.75005 13.8361 9.41405 13.5001 9.00005 13.5001ZM12.0001 13.5001C11.5861 13.5001 11.2501 13.8361 11.2501 14.2501C11.2501 14.6641 11.5861 15.0001 12.0001 15.0001C12.4141 15.0001 12.7501 14.6641 12.7501 14.2501C12.7501 13.8361 12.4141 13.5001 12.0001 13.5001ZM7.50005 15.0001C7.08605 15.0001 6.75005 15.3361 6.75005 15.7501C6.75005 16.1641 7.08605 16.5001 7.50005 16.5001C7.91405 16.5001 8.25005 16.1641 8.25005 15.7501C8.25005 15.3361 7.91405 15.0001 7.50005 15.0001ZM10.5001 15.0001C10.0861 15.0001 9.75005 15.3361 9.75005 15.7501C9.75005 16.1641 10.0861 16.5001 10.5001 16.5001C10.9141 16.5001 11.2501 16.1641 11.2501 15.7501C11.2501 15.3361 10.9141 15.0001 10.5001 15.0001ZM13.5001 15.0001C13.0861 15.0001 12.7501 15.3361 12.7501 15.7501C12.7501 16.1641 13.0861 16.5001 13.5001 16.5001C13.9141 16.5001 14.2501 16.1641 14.2501 15.7501C14.2501 15.3361 13.9141 15.0001 13.5001 15.0001ZM6.00005 16.5001C5.58605 16.5001 5.25005 16.8361 5.25005 17.2501C5.25005 17.6641 5.58605 18.0001 6.00005 18.0001C6.41405 18.0001 6.75005 17.6641 6.75005 17.2501C6.75005 16.8361 6.41405 16.5001 6.00005 16.5001ZM9.00005 16.5001C8.58605 16.5001 8.25005 16.8361 8.25005 17.2501C8.25005 17.6641 8.58605 18.0001 9.00005 18.0001C9.41405 18.0001 9.75005 17.6641 9.75005 17.2501C9.75005 16.8361 9.41405 16.5001 9.00005 16.5001ZM12.0001 16.5001C11.5861 16.5001 11.2501 16.8361 11.2501 17.2501C11.2501 17.6641 11.5861 18.0001 12.0001 18.0001C12.4141 18.0001 12.7501 17.6641 12.7501 17.2501C12.7501 16.8361 12.4141 16.5001 12.0001 16.5001ZM15.0001 16.5001C14.5861 16.5001 14.2501 16.8361 14.2501 17.2501C14.2501 17.6641 14.5861 18.0001 15.0001 18.0001C15.4141 18.0001 15.7501 17.6641 15.7501 17.2501C15.7501 16.8361 15.4141 16.5001 15.0001 16.5001ZM18.0001 16.5001C17.5861 16.5001 17.2501 16.8361 17.2501 17.2501C17.2501 17.6641 17.5861 18.0001 18.0001 18.0001C18.4141 18.0001 18.7501 17.6641 18.7501 17.2501C18.7501 16.8361 18.4141 16.5001 18.0001 16.5001ZM7.50005 18.0001C7.08605 18.0001 6.75005 18.3361 6.75005 18.7501C6.75005 19.1641 7.08605 19.5001 7.50005 19.5001C7.91405 19.5001 8.25005 19.1641 8.25005 18.7501C8.25005 18.3361 7.91405 18.0001 7.50005 18.0001ZM10.5001 18.0001C10.0861 18.0001 9.75005 18.3361 9.75005 18.7501C9.75005 19.1641 10.0861 19.5001 10.5001 19.5001C10.9141 19.5001 11.2501 19.1641 11.2501 18.7501C11.2501 18.3361 10.9141 18.0001 10.5001 18.0001ZM13.5001 18.0001C13.0861 18.0001 12.7501 18.3361 12.7501 18.7501C12.7501 19.1641 13.0861 19.5001 13.5001 19.5001C13.9141 19.5001 14.2501 19.1641 14.2501 18.7501C14.2501 18.3361 13.9141 18.0001 13.5001 18.0001ZM16.5001 18.0001C16.0861 18.0001 15.7501 18.3361 15.7501 18.7501C15.7501 19.1641 16.0861 19.5001 16.5001 19.5001C16.9141 19.5001 17.2501 19.1641 17.2501 18.7501C17.2501 18.3361 16.9141 18.0001 16.5001 18.0001Z" fill="white"/>
</svg>
