<svg width="24" height="25" viewBox="0 0 24 25" fill="none" xmlns="http://www.w3.org/2000/svg">
<path d="M19.7501 4C19.5512 4 19.3604 4.07902 19.2197 4.21967C19.0791 4.36032 19.0001 4.55109 19.0001 4.75C19.0001 4.94891 19.0791 5.13968 19.2197 5.28033C19.3604 5.42098 19.5512 5.5 19.7501 5.5C19.949 5.5 20.1398 5.42098 20.2804 5.28033C20.4211 5.13968 20.5001 4.94891 20.5001 4.75C20.5001 4.55109 20.4211 4.36032 20.2804 4.21967C20.1398 4.07902 19.949 4 19.7501 4ZM15.7501 7C15.5512 7 15.3604 7.07902 15.2197 7.21967C15.0791 7.36032 15.0001 7.55109 15.0001 7.75C15.0001 7.94891 15.0791 8.13968 15.2197 8.28033C15.3604 8.42098 15.5512 8.5 15.7501 8.5C15.949 8.5 16.1398 8.42098 16.2804 8.28033C16.4211 8.13968 16.5001 7.94891 16.5001 7.75C16.5001 7.55109 16.4211 7.36032 16.2804 7.21967C16.1398 7.07902 15.949 7 15.7501 7ZM19.7501 7C19.5512 7 19.3604 7.07902 19.2197 7.21967C19.0791 7.36032 19.0001 7.55109 19.0001 7.75C19.0001 7.94891 19.0791 8.13968 19.2197 8.28033C19.3604 8.42098 19.5512 8.5 19.7501 8.5C19.949 8.5 20.1398 8.42098 20.2804 8.28033C20.4211 8.13968 20.5001 7.94891 20.5001 7.75C20.5001 7.55109 20.4211 7.36032 20.2804 7.21967C20.1398 7.07902 19.949 7 19.7501 7ZM11.7384 9.73926C11.5396 9.74236 11.3502 9.82423 11.2118 9.96686C11.0734 10.1095 10.9972 10.3013 11.0001 10.5V19.75C10.9987 19.8494 11.017 19.9481 11.0541 20.0403C11.0912 20.1325 11.1462 20.2164 11.216 20.2872C11.2857 20.358 11.3689 20.4142 11.4606 20.4526C11.5523 20.4909 11.6507 20.5107 11.7501 20.5107C11.8495 20.5107 11.9479 20.4909 12.0396 20.4526C12.1313 20.4142 12.2144 20.358 12.2842 20.2872C12.354 20.2164 12.409 20.1325 12.4461 20.0403C12.4831 19.9481 12.5015 19.8494 12.5001 19.75V10.5C12.5015 10.3996 12.4828 10.3 12.445 10.207C12.4072 10.1139 12.3512 10.0295 12.2801 9.95852C12.2091 9.88758 12.1245 9.83161 12.0315 9.79395C11.9384 9.75629 11.8387 9.73769 11.7384 9.73926ZM15.7501 10C15.5512 10 15.3604 10.079 15.2197 10.2197C15.0791 10.3603 15.0001 10.5511 15.0001 10.75C15.0001 10.9489 15.0791 11.1397 15.2197 11.2803C15.3604 11.421 15.5512 11.5 15.7501 11.5C15.949 11.5 16.1398 11.421 16.2804 11.2803C16.4211 11.1397 16.5001 10.9489 16.5001 10.75C16.5001 10.5511 16.4211 10.3603 16.2804 10.2197C16.1398 10.079 15.949 10 15.7501 10ZM19.7501 10C19.5512 10 19.3604 10.079 19.2197 10.2197C19.0791 10.3603 19.0001 10.5511 19.0001 10.75C19.0001 10.9489 19.0791 11.1397 19.2197 11.2803C19.3604 11.421 19.5512 11.5 19.7501 11.5C19.949 11.5 20.1398 11.421 20.2804 11.2803C20.4211 11.1397 20.5001 10.9489 20.5001 10.75C20.5001 10.5511 20.4211 10.3603 20.2804 10.2197C20.1398 10.079 19.949 10 19.7501 10ZM7.73836 12.7393C7.53962 12.7424 7.35023 12.8242 7.21181 12.9669C7.07338 13.1095 6.99723 13.3013 7.00008 13.5V19.75C6.99867 19.8494 7.01703 19.9481 7.05409 20.0403C7.09115 20.1325 7.14617 20.2164 7.21596 20.2872C7.28574 20.358 7.3689 20.4142 7.46059 20.4526C7.55228 20.4909 7.65068 20.5107 7.75008 20.5107C7.84947 20.5107 7.94787 20.4909 8.03957 20.4526C8.13126 20.4142 8.21441 20.358 8.2842 20.2872C8.35398 20.2164 8.409 20.1325 8.44606 20.0403C8.48312 19.9481 8.50148 19.8494 8.50008 19.75V13.5C8.50152 13.3996 8.48279 13.3 8.44501 13.207C8.40723 13.1139 8.35116 13.0295 8.28012 12.9585C8.20909 12.8876 8.12453 12.8316 8.03147 12.794C7.93841 12.7563 7.83874 12.7377 7.73836 12.7393ZM15.7501 13C15.5512 13 15.3604 13.079 15.2197 13.2197C15.0791 13.3603 15.0001 13.5511 15.0001 13.75C15.0001 13.9489 15.0791 14.1397 15.2197 14.2803C15.3604 14.421 15.5512 14.5 15.7501 14.5C15.949 14.5 16.1398 14.421 16.2804 14.2803C16.4211 14.1397 16.5001 13.9489 16.5001 13.75C16.5001 13.5511 16.4211 13.3603 16.2804 13.2197C16.1398 13.079 15.949 13 15.7501 13ZM19.7501 13C19.5512 13 19.3604 13.079 19.2197 13.2197C19.0791 13.3603 19.0001 13.5511 19.0001 13.75C19.0001 13.9489 19.0791 14.1397 19.2197 14.2803C19.3604 14.421 19.5512 14.5 19.7501 14.5C19.949 14.5 20.1398 14.421 20.2804 14.2803C20.4211 14.1397 20.5001 13.9489 20.5001 13.75C20.5001 13.5511 20.4211 13.3603 20.2804 13.2197C20.1398 13.079 19.949 13 19.7501 13ZM3.73836 15.7393C3.53962 15.7424 3.35023 15.8242 3.21181 15.9669C3.07338 16.1095 2.99723 16.3013 3.00008 16.5V19.75C2.99867 19.8494 3.01703 19.9481 3.05409 20.0403C3.09115 20.1325 3.14617 20.2164 3.21596 20.2872C3.28574 20.358 3.36889 20.4142 3.46059 20.4526C3.55228 20.4909 3.65068 20.5107 3.75008 20.5107C3.84947 20.5107 3.94787 20.4909 4.03957 20.4526C4.13126 20.4142 4.21441 20.358 4.2842 20.2872C4.35398 20.2164 4.409 20.1325 4.44606 20.0403C4.48312 19.9481 4.50148 19.8494 4.50008 19.75V16.5C4.50152 16.3996 4.48279 16.3 4.44501 16.207C4.40723 16.1139 4.35116 16.0295 4.28012 15.9585C4.20909 15.8876 4.12454 15.8316 4.03147 15.794C3.93841 15.7563 3.83874 15.7377 3.73836 15.7393ZM15.7501 16C15.5512 16 15.3604 16.079 15.2197 16.2197C15.0791 16.3603 15.0001 16.5511 15.0001 16.75C15.0001 16.9489 15.0791 17.1397 15.2197 17.2803C15.3604 17.421 15.5512 17.5 15.7501 17.5C15.949 17.5 16.1398 17.421 16.2804 17.2803C16.4211 17.1397 16.5001 16.9489 16.5001 16.75C16.5001 16.5511 16.4211 16.3603 16.2804 16.2197C16.1398 16.079 15.949 16 15.7501 16ZM19.7501 16C19.5512 16 19.3604 16.079 19.2197 16.2197C19.0791 16.3603 19.0001 16.5511 19.0001 16.75C19.0001 16.9489 19.0791 17.1397 19.2197 17.2803C19.3604 17.421 19.5512 17.5 19.7501 17.5C19.949 17.5 20.1398 17.421 20.2804 17.2803C20.4211 17.1397 20.5001 16.9489 20.5001 16.75C20.5001 16.5511 20.4211 16.3603 20.2804 16.2197C20.1398 16.079 19.949 16 19.7501 16ZM15.7501 19C15.5512 19 15.3604 19.079 15.2197 19.2197C15.0791 19.3603 15.0001 19.5511 15.0001 19.75C15.0001 19.9489 15.0791 20.1397 15.2197 20.2803C15.3604 20.421 15.5512 20.5 15.7501 20.5C15.949 20.5 16.1398 20.421 16.2804 20.2803C16.4211 20.1397 16.5001 19.9489 16.5001 19.75C16.5001 19.5511 16.4211 19.3603 16.2804 19.2197C16.1398 19.079 15.949 19 15.7501 19ZM19.7501 19C19.5512 19 19.3604 19.079 19.2197 19.2197C19.0791 19.3603 19.0001 19.5511 19.0001 19.75C19.0001 19.9489 19.0791 20.1397 19.2197 20.2803C19.3604 20.421 19.5512 20.5 19.7501 20.5C19.949 20.5 20.1398 20.421 20.2804 20.2803C20.4211 20.1397 20.5001 19.9489 20.5001 19.75C20.5001 19.5511 20.4211 19.3603 20.2804 19.2197C20.1398 19.079 19.949 19 19.7501 19Z" fill="white"/>
</svg>
