<svg width="24" height="25" viewBox="0 0 24 25" fill="none" xmlns="http://www.w3.org/2000/svg">
<path d="M3.25 6.5C2.91848 6.5 2.60054 6.6317 2.36612 6.86612C2.1317 7.10054 2 7.41848 2 7.75C2 8.08152 2.1317 8.39946 2.36612 8.63388C2.60054 8.8683 2.91848 9 3.25 9C3.58152 9 3.89946 8.8683 4.13388 8.63388C4.3683 8.39946 4.5 8.08152 4.5 7.75C4.5 7.41848 4.3683 7.10054 4.13388 6.86612C3.89946 6.6317 3.58152 6.5 3.25 6.5ZM6.75 7C6.65062 6.99859 6.55194 7.01696 6.45972 7.05402C6.36749 7.09108 6.28355 7.1461 6.21277 7.21588C6.142 7.28566 6.08579 7.36882 6.04743 7.46051C6.00907 7.5522 5.98932 7.65061 5.98932 7.75C5.98932 7.84939 6.00907 7.9478 6.04743 8.03949C6.08579 8.13118 6.142 8.21434 6.21277 8.28412C6.28355 8.3539 6.36749 8.40892 6.45972 8.44598C6.55194 8.48304 6.65062 8.50141 6.75 8.5H21.25C21.3494 8.50141 21.4481 8.48304 21.5403 8.44598C21.6325 8.40892 21.7164 8.3539 21.7872 8.28412C21.858 8.21434 21.9142 8.13118 21.9526 8.03949C21.9909 7.9478 22.0107 7.84939 22.0107 7.75C22.0107 7.65061 21.9909 7.5522 21.9526 7.46051C21.9142 7.36882 21.858 7.28566 21.7872 7.21588C21.7164 7.1461 21.6325 7.09108 21.5403 7.05402C21.4481 7.01696 21.3494 6.99859 21.25 7H6.75ZM3.25 11.5C2.91848 11.5 2.60054 11.6317 2.36612 11.8661C2.1317 12.1005 2 12.4185 2 12.75C2 13.0815 2.1317 13.3995 2.36612 13.6339C2.60054 13.8683 2.91848 14 3.25 14C3.58152 14 3.89946 13.8683 4.13388 13.6339C4.3683 13.3995 4.5 13.0815 4.5 12.75C4.5 12.4185 4.3683 12.1005 4.13388 11.8661C3.89946 11.6317 3.58152 11.5 3.25 11.5ZM6.75 12C6.65062 11.9986 6.55194 12.017 6.45972 12.054C6.36749 12.0911 6.28355 12.1461 6.21277 12.2159C6.142 12.2857 6.08579 12.3688 6.04743 12.4605C6.00907 12.5522 5.98932 12.6506 5.98932 12.75C5.98932 12.8494 6.00907 12.9478 6.04743 13.0395C6.08579 13.1312 6.142 13.2143 6.21277 13.2841C6.28355 13.3539 6.36749 13.4089 6.45972 13.446C6.55194 13.483 6.65062 13.5014 6.75 13.5H21.25C21.3494 13.5014 21.4481 13.483 21.5403 13.446C21.6325 13.4089 21.7164 13.3539 21.7872 13.2841C21.858 13.2143 21.9142 13.1312 21.9526 13.0395C21.9909 12.9478 22.0107 12.8494 22.0107 12.75C22.0107 12.6506 21.9909 12.5522 21.9526 12.4605C21.9142 12.3688 21.858 12.2857 21.7872 12.2159C21.7164 12.1461 21.6325 12.0911 21.5403 12.054C21.4481 12.017 21.3494 11.9986 21.25 12H6.75ZM3.25 16.5C2.91848 16.5 2.60054 16.6317 2.36612 16.8661C2.1317 17.1005 2 17.4185 2 17.75C2 18.0815 2.1317 18.3995 2.36612 18.6339C2.60054 18.8683 2.91848 19 3.25 19C3.58152 19 3.89946 18.8683 4.13388 18.6339C4.3683 18.3995 4.5 18.0815 4.5 17.75C4.5 17.4185 4.3683 17.1005 4.13388 16.8661C3.89946 16.6317 3.58152 16.5 3.25 16.5ZM6.75 17C6.65062 16.9986 6.55194 17.017 6.45972 17.054C6.36749 17.0911 6.28355 17.1461 6.21277 17.2159C6.142 17.2857 6.08579 17.3688 6.04743 17.4605C6.00907 17.5522 5.98932 17.6506 5.98932 17.75C5.98932 17.8494 6.00907 17.9478 6.04743 18.0395C6.08579 18.1312 6.142 18.2143 6.21277 18.2841C6.28355 18.3539 6.36749 18.4089 6.45972 18.446C6.55194 18.483 6.65062 18.5014 6.75 18.5H21.25C21.3494 18.5014 21.4481 18.483 21.5403 18.446C21.6325 18.4089 21.7164 18.3539 21.7872 18.2841C21.858 18.2143 21.9142 18.1312 21.9526 18.0395C21.9909 17.9478 22.0107 17.8494 22.0107 17.75C22.0107 17.6506 21.9909 17.5522 21.9526 17.4605C21.9142 17.3688 21.858 17.2857 21.7872 17.2159C21.7164 17.1461 21.6325 17.0911 21.5403 17.054C21.4481 17.017 21.3494 16.9986 21.25 17H6.75Z" fill="white"/>
</svg>
