<svg width="24" height="25" viewBox="0 0 24 25" fill="none" xmlns="http://www.w3.org/2000/svg">
<path d="M18.9971 2.5C17.6239 2.5 16.4951 3.62971 16.4951 5.00293V20C16.4951 21.3732 17.6239 22.5029 18.9971 22.5029C20.3703 22.5029 21.5 21.3732 21.5 20V5.00293C21.5 3.62971 20.3703 2.5 18.9971 2.5ZM8.75 3C8.65062 2.99859 8.55194 3.01696 8.45972 3.05402C8.36749 3.09108 8.28355 3.1461 8.21277 3.21588C8.142 3.28566 8.08579 3.36882 8.04743 3.46051C8.00907 3.5522 7.98932 3.65061 7.98932 3.75C7.98932 3.84939 8.00907 3.9478 8.04743 4.03949C8.08579 4.13118 8.142 4.21434 8.21277 4.28412C8.28355 4.3539 8.36749 4.40892 8.45972 4.44598C8.55194 4.48304 8.65062 4.50141 8.75 4.5H10.3398L2.25195 11.6895C2.17551 11.754 2.11277 11.8333 2.06741 11.9225C2.02206 12.0117 1.99502 12.1091 1.98787 12.2089C1.98073 12.3087 1.99364 12.4089 2.02583 12.5037C2.05802 12.5984 2.10885 12.6858 2.17532 12.7606C2.24178 12.8354 2.32255 12.8962 2.41286 12.9393C2.50317 12.9824 2.60119 13.007 2.70116 13.0117C2.80112 13.0163 2.90101 13.0009 2.99493 12.9664C3.08885 12.9318 3.17491 12.8789 3.24805 12.8105L11.5 5.47559V7.25C11.4986 7.34938 11.517 7.44806 11.554 7.54028C11.5911 7.63251 11.6461 7.71645 11.7159 7.78723C11.7857 7.858 11.8688 7.91421 11.9605 7.95257C12.0522 7.99093 12.1506 8.01068 12.25 8.01068C12.3494 8.01068 12.4478 7.99093 12.5395 7.95257C12.6312 7.91421 12.7143 7.858 12.7841 7.78723C12.8539 7.71645 12.9089 7.63251 12.946 7.54028C12.983 7.44806 13.0014 7.34938 13 7.25V3.75C13 3.55109 12.921 3.36034 12.7803 3.21969C12.6397 3.07904 12.4489 3.00002 12.25 3H8.75ZM18.9971 4C19.5599 4 20 4.44015 20 5.00293V20C20 20.5628 19.5599 21.0029 18.9971 21.0029C18.4343 21.0029 17.9951 20.5628 17.9951 20V5.00293C17.9951 4.44015 18.4343 4 18.9971 4ZM12 10C10.6268 10 9.49707 11.1297 9.49707 12.5029V20C9.49707 21.3732 10.6268 22.5029 12 22.5029C13.3732 22.5029 14.5029 21.3732 14.5029 20V12.5029C14.5029 11.1297 13.3732 10 12 10ZM12 11.5C12.5628 11.5 13.0029 11.9401 13.0029 12.5029V20C13.0029 20.5628 12.5628 21.0029 12 21.0029C11.4372 21.0029 10.9971 20.5628 10.9971 20V12.5029C10.9971 11.9401 11.4372 11.5 12 11.5ZM4.99707 14.4971C3.62385 14.4971 2.49512 15.6268 2.49512 17V20C2.49512 21.3732 3.62385 22.5029 4.99707 22.5029C6.37029 22.5029 7.5 21.3732 7.5 20V17C7.5 15.6268 6.37029 14.4971 4.99707 14.4971ZM4.99707 15.9971C5.55985 15.9971 6 16.4372 6 17V20C6 20.5628 5.55985 21.0029 4.99707 21.0029C4.43429 21.0029 3.99512 20.5628 3.99512 20V17C3.99512 16.4372 4.43429 15.9971 4.99707 15.9971Z" fill="white"/>
</svg>
