<svg width="24" height="25" viewBox="0 0 24 25" fill="none" xmlns="http://www.w3.org/2000/svg">
<path d="M5.75 3.5C4.234 3.5 3 4.734 3 6.25V18.75C3 20.266 4.234 21.5 5.75 21.5H8.41016C8.01416 21.0885 7.72682 20.5735 7.59082 20H5.75C5.0605 20 4.5 19.4395 4.5 18.75V6.25C4.5 5.5605 5.0605 5 5.75 5H7.59082C7.72732 4.4265 8.01416 3.9115 8.41016 3.5H5.75ZM10.75 3.5C9.51625 3.5 8.5 4.51625 8.5 5.75V19.25C8.5 20.4838 9.51625 21.5 10.75 21.5H13.25C14.4838 21.5 15.5 20.4838 15.5 19.25V5.75C15.5 4.51625 14.4838 3.5 13.25 3.5H10.75ZM15.5898 3.5C15.9858 3.9115 16.2727 4.4265 16.4092 5H18.25C18.9395 5 19.5 5.5605 19.5 6.25V18.75C19.5 19.4395 18.9395 20 18.25 20H16.4092C16.2727 20.5735 15.9858 21.0885 15.5898 21.5H18.25C19.766 21.5 21 20.266 21 18.75V6.25C21 4.734 19.766 3.5 18.25 3.5H15.5898ZM10.75 5H13.25C13.6732 5 14 5.32675 14 5.75V19.25C14 19.6733 13.6732 20 13.25 20H10.75C10.3268 20 10 19.6733 10 19.25V5.75C10 5.32675 10.3268 5 10.75 5Z" fill="white"/>
</svg>
