<svg width="24" height="25" viewBox="0 0 24 25" fill="none" xmlns="http://www.w3.org/2000/svg">
<path d="M6.25 2.5C5.01 2.5 4 3.51 4 4.75V20.25C4 21.49 5.01 22.5 6.25 22.5H12.5V21H6.25C5.835 21 5.5 20.665 5.5 20.25V4.75C5.5 4.335 5.835 4 6.25 4H12V8.25C12 9.49 13.01 10.5 14.25 10.5H18.5V12H20V9.75C20 9.5425 19.9159 9.35535 19.7803 9.21973L13.2803 2.71973C13.1446 2.5841 12.9575 2.5 12.75 2.5H6.25ZM13.5 5.06055L17.4395 9H14.25C13.835 9 13.5 8.665 13.5 8.25V5.06055ZM16 13C15.4475 13 15 13.4475 15 14V19.9893H19.5C20.3305 19.9893 21.006 20.668 21 21.5V22.0107C20.998 22.2832 21.228 22.5 21.5 22.5H22C22.5525 22.5 23 22.0525 23 21.5V14C23 13.4475 22.5525 13 22 13H16ZM10.5 13.5C10.2459 13.5002 10.0015 13.5972 9.81628 13.7711C9.63109 13.9451 9.51906 14.183 9.50293 14.4365L7.93652 16.0029C7.67963 16.0224 7.44016 16.1402 7.26802 16.3319C7.09589 16.5236 7.00438 16.7743 7.01256 17.0318C7.02075 17.2893 7.128 17.5337 7.31196 17.7141C7.49591 17.8945 7.74239 17.9969 8 18C8.25407 17.9998 8.49853 17.9028 8.68372 17.7289C8.86891 17.5549 8.98094 17.317 8.99707 17.0635L10.5 15.5605L12.0029 17.0635C12.0191 17.317 12.1311 17.5549 12.3163 17.7289C12.5015 17.9028 12.7459 17.9998 13 18C13.2541 17.9998 13.4985 17.9028 13.6837 17.7289C13.8689 17.5549 13.9809 17.317 13.9971 17.0635L14 17.0605V14.9395L13 15.9395L11.4971 14.4365C11.4809 14.183 11.3689 13.9451 11.1837 13.7711C10.9985 13.5972 10.7541 13.5002 10.5 13.5ZM14 21C13.724 21 13.5 21.224 13.5 21.5V22C13.5 22.8285 14.1715 23.5 15 23.5H21.5C20.6715 23.5 20 22.8285 20 22V21.5C20 21.224 19.776 21 19.5 21H14Z" fill="white"/>
</svg>
