<svg width="24" height="25" viewBox="0 0 24 25" fill="none" xmlns="http://www.w3.org/2000/svg">
<path d="M12 2.5C6.48603 2.5 2 6.98604 2 12.5C2 18.014 6.48603 22.5 12 22.5C14.7106 22.5 17.1687 21.4116 18.9717 19.6543L18.9736 19.6533C19.0412 19.6051 19.1002 19.546 19.1484 19.4785C20.9095 17.675 22 15.2138 22 12.5C22 6.98604 17.514 2.5 12 2.5ZM13.0029 4.06445C13.5994 4.13436 14.1757 4.26773 14.7275 4.4541L10.9736 8.20801C10.4133 8.34393 9.91159 8.56896 9.4541 8.89355L8.81445 8.25391L13.0029 4.06445ZM10.8604 4.08496L7.75293 7.19238L6.54199 5.98145C7.74275 4.97564 9.22799 4.30321 10.8604 4.08496ZM16.1943 5.1084C16.6421 5.36254 17.0659 5.653 17.458 5.98145L14.5459 8.89355C14.1037 8.57981 13.622 8.3579 13.083 8.21973L16.1943 5.1084ZM5.48145 7.04199L8.39355 9.9541C7.87259 10.6884 7.5 11.5357 7.5 12.5C7.5 14.9764 9.5236 17 12 17C12.9643 17 13.8116 16.6274 14.5459 16.1064L17.457 19.0186C15.9814 20.2544 14.0806 21 12 21C7.29669 21 3.5 17.2033 3.5 12.5C3.5 10.4191 4.24537 8.51766 5.48145 7.04199ZM18.5186 7.04199C19.7546 8.51766 20.5 10.4191 20.5 12.5C20.5 14.5806 19.7544 16.4814 18.5186 17.957L15.6064 15.0459C16.1274 14.3116 16.5 13.4643 16.5 12.5C16.5 11.5357 16.1274 10.6884 15.6064 9.9541L18.5186 7.04199ZM12 9.5C13.6657 9.5 15 10.8343 15 12.5C15 14.1657 13.6657 15.5 12 15.5C10.3343 15.5 9 14.1657 9 12.5C9 10.8343 10.3343 9.5 12 9.5Z" fill="white"/>
</svg>
