<svg width="24" height="25" viewBox="0 0 24 25" fill="none" xmlns="http://www.w3.org/2000/svg">
<path d="M10.75 3.5C9.79252 3.5 9 4.29252 9 5.25V7.75C9 8.70748 9.79252 9.5 10.75 9.5H11.25V11.5H6C5.04252 11.5 4.25 12.2925 4.25 13.25V15.5H3.75C2.79252 15.5 2 16.2925 2 17.25V19.75C2 20.7075 2.79252 21.5 3.75 21.5H6.25C7.20748 21.5 8 20.7075 8 19.75V17.25C8 16.2925 7.20748 15.5 6.25 15.5H5.75V13.25C5.75 13.1025 5.85248 13 6 13H11.25V15.5H10.75C9.79252 15.5 9 16.2925 9 17.25V19.75C9 20.7075 9.79252 21.5 10.75 21.5H13.25C14.2075 21.5 15 20.7075 15 19.75V17.25C15 16.2925 14.2075 15.5 13.25 15.5H12.75V13H18C18.1475 13 18.25 13.1025 18.25 13.25V15.5H17.75C16.7925 15.5 16 16.2925 16 17.25V19.75C16 20.7075 16.7925 21.5 17.75 21.5H20.25C21.2075 21.5 22 20.7075 22 19.75V17.25C22 16.2925 21.2075 15.5 20.25 15.5H19.75V13.25C19.75 12.2925 18.9575 11.5 18 11.5H12.75V9.5H13.25C14.2075 9.5 15 8.70748 15 7.75V5.25C15 4.29252 14.2075 3.5 13.25 3.5H10.75ZM10.75 5H13.25C13.3975 5 13.5 5.10248 13.5 5.25V7.75C13.5 7.89752 13.3975 8 13.25 8H12.123C12.0425 7.98677 11.9604 7.98677 11.8799 8H10.75C10.6025 8 10.5 7.89752 10.5 7.75V5.25C10.5 5.10248 10.6025 5 10.75 5ZM3.75 17H4.87695C4.95747 17.0132 5.0396 17.0132 5.12012 17H6.25C6.39752 17 6.5 17.1025 6.5 17.25V19.75C6.5 19.8975 6.39752 20 6.25 20H3.75C3.60248 20 3.5 19.8975 3.5 19.75V17.25C3.5 17.1025 3.60248 17 3.75 17ZM10.75 17H11.877C11.9575 17.0132 12.0396 17.0132 12.1201 17H13.25C13.3975 17 13.5 17.1025 13.5 17.25V19.75C13.5 19.8975 13.3975 20 13.25 20H10.75C10.6025 20 10.5 19.8975 10.5 19.75V17.25C10.5 17.1025 10.6025 17 10.75 17ZM17.75 17H18.877C18.9575 17.0132 19.0396 17.0132 19.1201 17H20.25C20.3975 17 20.5 17.1025 20.5 17.25V19.75C20.5 19.8975 20.3975 20 20.25 20H17.75C17.6025 20 17.5 19.8975 17.5 19.75V17.25C17.5 17.1025 17.6025 17 17.75 17Z" fill="white"/>
</svg>
