<svg width="24" height="25" viewBox="0 0 24 25" fill="none" xmlns="http://www.w3.org/2000/svg">
<path d="M5.25 3.5C4.01625 3.5 3 4.51625 3 5.75V9.75C3 10.9838 4.01625 12 5.25 12H9.25C10.4838 12 11.5 10.9838 11.5 9.75V5.75C11.5 4.51625 10.4838 3.5 9.25 3.5H5.25ZM14.75 3.5C13.5162 3.5 12.5 4.51625 12.5 5.75V9.75C12.5 10.9838 13.5162 12 14.75 12H18.75C19.9838 12 21 10.9838 21 9.75V5.75C21 4.51625 19.9838 3.5 18.75 3.5H14.75ZM5.25 5H9.25C9.67325 5 10 5.32675 10 5.75V9.75C10 10.1732 9.67325 10.5 9.25 10.5H5.25C4.82675 10.5 4.5 10.1732 4.5 9.75V5.75C4.5 5.32675 4.82675 5 5.25 5ZM14.75 5H18.75C19.1733 5 19.5 5.32675 19.5 5.75V9.75C19.5 10.1732 19.1733 10.5 18.75 10.5H14.75C14.3268 10.5 14 10.1732 14 9.75V5.75C14 5.32675 14.3268 5 14.75 5ZM7.25 6.5C6.91848 6.5 6.60054 6.6317 6.36612 6.86612C6.1317 7.10054 6 7.41848 6 7.75C6 8.08152 6.1317 8.39946 6.36612 8.63388C6.60054 8.8683 6.91848 9 7.25 9C7.58152 9 7.89946 8.8683 8.13388 8.63388C8.3683 8.39946 8.5 8.08152 8.5 7.75C8.5 7.41848 8.3683 7.10054 8.13388 6.86612C7.89946 6.6317 7.58152 6.5 7.25 6.5ZM5.25 13C4.01625 13 3 14.0162 3 15.25V19.25C3 20.4838 4.01625 21.5 5.25 21.5H9.25C10.4838 21.5 11.5 20.4838 11.5 19.25V15.25C11.5 14.0162 10.4838 13 9.25 13H5.25ZM14.75 13C13.5162 13 12.5 14.0162 12.5 15.25V19.25C12.5 20.4838 13.5162 21.5 14.75 21.5H18.75C19.9838 21.5 21 20.4838 21 19.25V15.25C21 14.0162 19.9838 13 18.75 13H14.75ZM5.25 14.5H9.25C9.67325 14.5 10 14.8268 10 15.25V19.25C10 19.6733 9.67325 20 9.25 20H5.25C4.82675 20 4.5 19.6733 4.5 19.25V15.25C4.5 14.8268 4.82675 14.5 5.25 14.5ZM14.75 14.5H18.75C19.1733 14.5 19.5 14.8268 19.5 15.25V19.25C19.5 19.6733 19.1733 20 18.75 20H14.75C14.3268 20 14 19.6733 14 19.25V15.25C14 14.8268 14.3268 14.5 14.75 14.5ZM16.75 15.7871C16.6222 15.7871 16.495 15.8361 16.3975 15.9336L15.4336 16.8975C15.2386 17.0925 15.2386 17.4075 15.4336 17.6025L16.3975 18.5664C16.5925 18.7614 16.9075 18.7614 17.1025 18.5664L18.0664 17.6025C18.2614 17.4075 18.2614 17.0925 18.0664 16.8975L17.1025 15.9336C17.005 15.8361 16.8778 15.7871 16.75 15.7871ZM7.25 16.249C7.15837 16.249 7.06672 16.2929 7.01172 16.3809L5.95605 18.0703C5.83905 18.2573 5.97384 18.5 6.19434 18.5H8.30566C8.52616 18.5 8.66145 18.2573 8.54395 18.0703L7.48828 16.3809C7.43328 16.2929 7.34163 16.249 7.25 16.249Z" fill="white"/>
</svg>
