<svg width="24" height="25" viewBox="0 0 24 25" fill="none" xmlns="http://www.w3.org/2000/svg">
<path d="M5.83793 2.51192C5.55015 2.50467 5.25532 2.53071 4.95707 2.59298C3.19221 2.96174 1.95118 4.58086 2.00199 6.3713C2.02599 7.23188 2.38473 7.94325 2.87113 8.61935H2.87016C3.56332 9.58343 4.49739 10.6242 4.94926 11.1174C5.37403 11.5805 6.14265 11.5805 6.56742 11.1174C7.01929 10.6242 7.95266 9.58337 8.64652 8.62032C9.15233 7.91673 9.51664 7.17091 9.51664 6.26778C9.51664 4.22857 7.85241 2.5627 5.83793 2.51192ZM5.81352 4.00802C7.05965 4.02835 8.01664 5.02837 8.01664 6.26778C8.01664 6.80966 7.85894 7.14594 7.42875 7.74435C6.90382 8.47274 6.23553 9.21812 5.75883 9.74825C5.28193 9.21787 4.61284 8.47306 4.08891 7.74435C4.08858 7.74402 4.08826 7.74369 4.08793 7.74337C3.67433 7.16849 3.51502 6.83172 3.50102 6.32931C3.47083 5.26575 4.23357 4.27697 5.26371 4.06173C5.45158 4.0225 5.6355 4.00511 5.81352 4.00802ZM5.75004 5.25021C5.48482 5.25021 5.23047 5.35556 5.04293 5.5431C4.8554 5.73063 4.75004 5.98499 4.75004 6.25021C4.75004 6.51542 4.8554 6.76978 5.04293 6.95731C5.23047 7.14485 5.48482 7.25021 5.75004 7.25021C6.01526 7.25021 6.26961 7.14485 6.45715 6.95731C6.64468 6.76978 6.75004 6.51542 6.75004 6.25021C6.75004 5.98499 6.64468 5.73063 6.45715 5.5431C6.26961 5.35556 6.01526 5.25021 5.75004 5.25021ZM18.3291 7.52071C18.0413 7.51346 17.7465 7.53949 17.4483 7.60177C15.6834 7.97053 14.4434 9.58965 14.4942 11.3801C14.5182 12.2407 14.8759 12.952 15.3623 13.6281C16.0555 14.5922 16.9896 15.633 17.4414 16.1262C17.8662 16.5893 18.6348 16.5893 19.0596 16.1262C19.5115 15.633 20.4449 14.5922 21.1387 13.6291C21.1387 13.6288 21.1387 13.6285 21.1387 13.6281C21.6445 12.9245 22.0088 12.1797 22.0088 11.2766C22.0088 9.23736 20.3438 7.57149 18.3291 7.52071ZM18.3047 9.01583C19.551 9.03635 20.5088 10.0372 20.5088 11.2766C20.5088 11.8184 20.3511 12.1547 19.9209 12.7531C19.3961 13.4813 18.7268 14.2259 18.25 14.7561C17.7731 14.2256 17.1038 13.4805 16.5801 12.7522C16.1665 12.1773 16.0072 11.8405 15.9932 11.3381C15.9932 11.3378 15.9932 11.3374 15.9932 11.3371C15.963 10.2739 16.7252 9.28517 17.7549 9.06954C17.9428 9.03031 18.1267 9.0129 18.3047 9.01583ZM18.2422 10.259C17.977 10.259 17.7227 10.3644 17.5351 10.5519C17.3476 10.7394 17.2422 10.9938 17.2422 11.259C17.2422 11.5242 17.3476 11.7786 17.5351 11.9661C17.7227 12.1536 17.977 12.259 18.2422 12.259C18.5074 12.259 18.7618 12.1536 18.9493 11.9661C19.1369 11.7786 19.2422 11.5242 19.2422 11.259C19.2422 10.9938 19.1369 10.7394 18.9493 10.5519C18.7618 10.3644 18.5074 10.259 18.2422 10.259ZM5.75004 13.0002C5.55113 13.0002 5.36036 13.0792 5.21971 13.2199C5.07906 13.3605 5.00004 13.5513 5.00004 13.7502C5.00004 13.9491 5.07906 14.1399 5.21971 14.2805C5.36036 14.4212 5.55113 14.5002 5.75004 14.5002C5.94895 14.5002 6.13972 14.4212 6.28037 14.2805C6.42102 14.1399 6.50004 13.9491 6.50004 13.7502C6.50004 13.5513 6.42102 13.3605 6.28037 13.2199C6.13972 13.0792 5.94895 13.0002 5.75004 13.0002ZM5.75004 15.5002C5.55113 15.5002 5.36036 15.5792 5.21971 15.7199C5.07906 15.8605 5.00004 16.0513 5.00004 16.2502C5.00004 16.4491 5.07906 16.6399 5.21971 16.7805C5.36036 16.9212 5.55113 17.0002 5.75004 17.0002C5.94895 17.0002 6.13972 16.9212 6.28037 16.7805C6.42102 16.6399 6.50004 16.4491 6.50004 16.2502C6.50004 16.0513 6.42102 15.8605 6.28037 15.7199C6.13972 15.5792 5.94895 15.5002 5.75004 15.5002ZM5.75004 18.0002C5.55113 18.0002 5.36036 18.0792 5.21971 18.2199C5.07906 18.3605 5.00004 18.5513 5.00004 18.7502C5.00004 18.9491 5.07906 19.1399 5.21971 19.2805C5.36036 19.4212 5.55113 19.5002 5.75004 19.5002C5.94895 19.5002 6.13972 19.4212 6.28037 19.2805C6.42102 19.1399 6.50004 18.9491 6.50004 18.7502C6.50004 18.5513 6.42102 18.3605 6.28037 18.2199C6.13972 18.0792 5.94895 18.0002 5.75004 18.0002ZM18.25 18.0002C18.0511 18.0002 17.8604 18.0792 17.7197 18.2199C17.5791 18.3605 17.5 18.5513 17.5 18.7502C17.5 18.9491 17.5791 19.1399 17.7197 19.2805C17.8604 19.4212 18.0511 19.5002 18.25 19.5002C18.449 19.5002 18.6397 19.4212 18.7804 19.2805C18.921 19.1399 19 18.9491 19 18.7502C19 18.5513 18.921 18.3605 18.7804 18.2199C18.6397 18.0792 18.449 18.0002 18.25 18.0002ZM5.75004 20.5002C5.55113 20.5002 5.36036 20.5792 5.21971 20.7199C5.07906 20.8605 5.00004 21.0513 5.00004 21.2502C5.00004 21.4491 5.07906 21.6399 5.21971 21.7805C5.36036 21.9212 5.55113 22.0002 5.75004 22.0002C5.94895 22.0002 6.13972 21.9212 6.28037 21.7805C6.42102 21.6399 6.50004 21.4491 6.50004 21.2502C6.50004 21.0513 6.42102 20.8605 6.28037 20.7199C6.13972 20.5792 5.94895 20.5002 5.75004 20.5002ZM8.25004 20.5002C8.05113 20.5002 7.86036 20.5792 7.71971 20.7199C7.57906 20.8605 7.50004 21.0513 7.50004 21.2502C7.50004 21.4491 7.57906 21.6399 7.71971 21.7805C7.86036 21.9212 8.05113 22.0002 8.25004 22.0002C8.44895 22.0002 8.63972 21.9212 8.78037 21.7805C8.92102 21.6399 9.00004 21.4491 9.00004 21.2502C9.00004 21.0513 8.92102 20.8605 8.78037 20.7199C8.63972 20.5792 8.44895 20.5002 8.25004 20.5002ZM10.75 20.5002C10.5511 20.5002 10.3604 20.5792 10.2197 20.7199C10.0791 20.8605 10 21.0513 10 21.2502C10 21.4491 10.0791 21.6399 10.2197 21.7805C10.3604 21.9212 10.5511 22.0002 10.75 22.0002C10.949 22.0002 11.1397 21.9212 11.2804 21.7805C11.421 21.6399 11.5 21.4491 11.5 21.2502C11.5 21.0513 11.421 20.8605 11.2804 20.7199C11.1397 20.5792 10.949 20.5002 10.75 20.5002ZM13.25 20.5002C13.0511 20.5002 12.8604 20.5792 12.7197 20.7199C12.5791 20.8605 12.5 21.0513 12.5 21.2502C12.5 21.4491 12.5791 21.6399 12.7197 21.7805C12.8604 21.9212 13.0511 22.0002 13.25 22.0002C13.449 22.0002 13.6397 21.9212 13.7804 21.7805C13.921 21.6399 14 21.4491 14 21.2502C14 21.0513 13.921 20.8605 13.7804 20.7199C13.6397 20.5792 13.449 20.5002 13.25 20.5002ZM15.75 20.5002C15.5511 20.5002 15.3604 20.5792 15.2197 20.7199C15.0791 20.8605 15 21.0513 15 21.2502C15 21.4491 15.0791 21.6399 15.2197 21.7805C15.3604 21.9212 15.5511 22.0002 15.75 22.0002C15.949 22.0002 16.1397 21.9212 16.2804 21.7805C16.421 21.6399 16.5 21.4491 16.5 21.2502C16.5 21.0513 16.421 20.8605 16.2804 20.7199C16.1397 20.5792 15.949 20.5002 15.75 20.5002ZM18.25 20.5002C18.0511 20.5002 17.8604 20.5792 17.7197 20.7199C17.5791 20.8605 17.5 21.0513 17.5 21.2502C17.5 21.4491 17.5791 21.6399 17.7197 21.7805C17.8604 21.9212 18.0511 22.0002 18.25 22.0002C18.449 22.0002 18.6397 21.9212 18.7804 21.7805C18.921 21.6399 19 21.4491 19 21.2502C19 21.0513 18.921 20.8605 18.7804 20.7199C18.6397 20.5792 18.449 20.5002 18.25 20.5002Z" fill="white"/>
</svg>
