<svg width="45" height="59" viewBox="0 0 45 59" fill="none" xmlns="http://www.w3.org/2000/svg">
<g clip-path="url(#clip0_10305_27371)">
<path d="M22.5 0C17.5254 0 13.2275 2.06543 10.5469 5.41406C7.86621 8.76269 6.75 13.1045 6.75 17.7891V20.25H13.5V17.7891C13.5 14.2383 14.3789 11.4434 15.8203 9.63281C17.2617 7.82227 19.2217 6.75 22.5 6.75C25.7871 6.75 27.7383 7.76074 29.1797 9.5625C30.6211 11.3643 31.5 14.1943 31.5 17.7891V20.25H38.25V17.7891C38.25 13.0781 37.0635 8.69238 34.3828 5.34375C31.7021 1.99512 27.4658 0 22.5 0ZM6.75 22.5C3.02344 22.5 0 25.5234 0 29.25V51.75C0 55.4766 3.02344 58.5 6.75 58.5H38.25C41.9766 58.5 45 55.4766 45 51.75V29.25C45 25.5234 41.9766 22.5 38.25 22.5H6.75ZM22.5 33.75C24.9873 33.75 27 35.7627 27 38.25C27 39.9111 26.0947 41.335 24.75 42.1172V47.25C24.75 48.4893 23.7393 49.5 22.5 49.5C21.2607 49.5 20.25 48.4893 20.25 47.25V42.1172C18.9053 41.335 18 39.9111 18 38.25C18 35.7627 20.0127 33.75 22.5 33.75Z" fill="#4A5366"/>
</g>
<defs>
<clipPath id="clip0_10305_27371">
<rect width="45" height="58.5" fill="white"/>
</clipPath>
</defs>
</svg>
