<svg width="24" height="25" viewBox="0 0 24 25" fill="none" xmlns="http://www.w3.org/2000/svg">
<path d="M9.27161 4.49932C9.10568 4.49464 8.94288 4.54512 8.80872 4.64288L3.30872 8.64288C3.21311 8.71248 3.13532 8.8037 3.08169 8.90909C3.02806 9.01449 3.00011 9.13107 3.00012 9.24932V19.7493C3.00013 19.8877 3.03842 20.0234 3.11075 20.1413C3.18307 20.2593 3.28662 20.355 3.40994 20.4177C3.53326 20.4805 3.67153 20.5079 3.80947 20.497C3.94742 20.4861 4.07964 20.4372 4.19153 20.3558L9.25012 16.6771L14.3087 20.3558C14.437 20.4491 14.5915 20.4994 14.7501 20.4994C14.9087 20.4994 15.0633 20.4491 15.1915 20.3558L20.6915 16.3558C20.7871 16.2862 20.8649 16.1949 20.9185 16.0896C20.9722 15.9842 21.0001 15.8676 21.0001 15.7493V5.24932C21.0001 5.11095 20.9618 4.97528 20.8895 4.85731C20.8172 4.73935 20.7136 4.64369 20.5903 4.58092C20.467 4.51815 20.3287 4.49071 20.1908 4.50165C20.0528 4.51258 19.9206 4.56146 19.8087 4.64288L14.7501 8.32159L9.69153 4.64288C9.56924 4.55377 9.42286 4.50372 9.27161 4.49932ZM9.25012 6.17706L14.3087 9.85577C14.437 9.94911 14.5915 9.9994 14.7501 9.9994C14.9087 9.9994 15.0633 9.94911 15.1915 9.85577L19.5001 6.72198V15.3675L14.7501 18.8216L9.69153 15.1429C9.56328 15.0495 9.40874 14.9992 9.25012 14.9992C9.0915 14.9992 8.93696 15.0495 8.80872 15.1429L4.50012 18.2767V9.63116L9.25012 6.17706ZM6.94348 8.99932C6.69898 8.99932 6.50012 9.19818 6.50012 9.44268V10.9593C6.50012 11.1488 6.55625 11.333 6.66125 11.4905L7.4259 12.638C7.4744 12.7105 7.50012 12.7956 7.50012 12.8831V14.1487C7.50012 14.5072 7.90389 14.7165 8.19739 14.511L9.63196 13.5071C9.86246 13.3461 10.0001 13.0816 10.0001 12.8001V12.6829C10.0001 12.5659 9.95324 12.4524 9.87024 12.3694L9.63 12.1292C9.547 12.0457 9.43403 11.9993 9.31653 11.9993H8.44348C8.19898 11.9993 8.00012 11.8009 8.00012 11.5569C8.00012 11.3719 8.11423 11.2069 8.28723 11.1419L9.71301 10.6077C9.88601 10.5427 10.0001 10.3772 10.0001 10.1927V9.94268C10.0001 9.69818 9.80176 9.4998 9.55676 9.5003H8.43274C8.31574 9.5003 8.20324 9.45244 8.12024 9.36944L7.88 9.12921C7.797 9.04571 7.68403 8.99932 7.56653 8.99932H6.94348ZM14.5001 10.9993C14.0001 10.9993 14.0001 11.4993 14.0001 11.4993H12.5001V11.3255C12.5001 11.0835 12.2449 10.926 12.0284 11.0345L11.7765 11.1605C11.607 11.245 11.5001 11.4182 11.5001 11.6077V12.4993C11.5001 12.6568 11.5743 12.8052 11.7003 12.8997L12.2999 13.3489C12.4259 13.4434 12.5001 13.5918 12.5001 13.7493V13.9993C12.5001 14.2753 12.7241 14.4993 13.0001 14.4993H13.4034C13.6119 14.4993 13.7982 14.6285 13.8712 14.8235L14.1857 16.1614C14.2622 16.3644 14.4565 16.4993 14.673 16.4993C14.921 16.4993 15.1352 16.3239 15.1837 16.0804L15.42 14.4017C15.467 14.1677 15.6718 13.9993 15.9103 13.9993H16.0001C16.2761 13.9993 16.5001 13.7753 16.5001 13.4993V13.4564C16.5001 13.3239 16.4476 13.1963 16.3536 13.1028L16.1466 12.8958C16.0526 12.8018 16.0001 12.6748 16.0001 12.5423V12.4993C16.0001 12.2233 16.2241 11.9993 16.5001 11.9993C16.7761 11.9993 17.0001 11.7753 17.0001 11.4993C17.0001 11.2233 16.7761 10.9993 16.5001 10.9993H14.5001ZM16.4698 14.9993C16.2103 14.9993 16.0001 15.2095 16.0001 15.469V16.0296C16.0001 16.2891 16.2103 16.4993 16.4698 16.4993H16.5499C16.6229 16.4993 16.6944 16.482 16.7589 16.4495L17.2404 16.2093C17.4724 16.0933 17.5663 15.8114 17.4503 15.5794L17.2902 15.2591C17.2107 15.1001 17.0482 14.9993 16.8702 14.9993H16.4698Z" fill="white"/>
</svg>
