<svg width="24" height="25" viewBox="0 0 24 25" fill="none" xmlns="http://www.w3.org/2000/svg">
<path d="M12.0002 2.5C9.52385 2.5 7.50021 4.52364 7.50021 7C7.50021 8.15657 8.15108 9.33035 8.86837 10.5098C9.58567 11.6892 10.4172 12.8052 10.9318 13.4688C11.4615 14.1509 12.5389 14.1509 13.0686 13.4688C13.5836 12.8051 14.4147 11.6892 15.132 10.5098C15.8494 9.33034 16.5002 8.15657 16.5002 7C16.5002 4.52364 14.4766 2.5 12.0002 2.5ZM12.0002 4C13.6658 4 15.0002 5.33436 15.0002 7C15.0002 7.45293 14.5183 8.63302 13.8508 9.73047C13.2228 10.763 12.4976 11.7339 11.9992 12.3818C11.501 11.7338 10.7773 10.7625 10.1496 9.73047C9.48216 8.633 9.00021 7.45293 9.00021 7C9.00021 5.33436 10.3346 4 12.0002 4ZM18.0002 5V6.5H19.7502C19.8977 6.5 20.0002 6.60248 20.0002 6.75V10.3486L18.8342 11.126C18.6822 11.2274 18.5724 11.3807 18.5255 11.5573C18.4786 11.7339 18.4977 11.9215 18.5793 12.085L19.9553 14.8369L19.5227 16.5684C19.5078 16.6278 19.5002 16.6888 19.5002 16.75V18.7305L16.2932 19.9326L12.5852 18.0791C12.4444 18.0089 12.2851 17.9846 12.1299 18.0099C11.9746 18.0351 11.8312 18.1085 11.7199 18.2197L10.4397 19.5H6.56075L5.44064 18.3799L5.02462 16.2979L5.46212 14.9873C5.52483 14.7987 5.51007 14.5928 5.4211 14.415L4.04025 11.6523L4.8088 8.19531C4.835 8.07724 4.93085 8 5.05196 8H6.00021V6.5H5.05196C4.23608 6.5 3.52076 7.07319 3.34396 7.87012L2.51778 11.5869C2.4805 11.7551 2.50223 11.9309 2.57931 12.085L3.94064 14.8076L3.53829 16.0127C3.49709 16.1367 3.48901 16.2694 3.51486 16.3975L4.01486 18.8975C4.04397 19.0425 4.11532 19.1757 4.21993 19.2803L5.71993 20.7803C5.86057 20.9209 6.05131 21 6.25021 21H10.7502C10.9491 21 11.1398 20.9209 11.2805 20.7803L12.3986 19.6621L15.9152 21.4209C16.0075 21.467 16.1083 21.4935 16.2113 21.4989C16.3143 21.5043 16.4173 21.4884 16.5139 21.4521L20.5139 19.9521C20.6567 19.8985 20.7798 19.8025 20.8667 19.6771C20.9536 19.5516 21.0002 19.4026 21.0002 19.25V16.8428L21.4777 14.9316C21.521 14.7582 21.5009 14.575 21.4211 14.415L20.217 12.0068L21.1662 11.374C21.269 11.3055 21.3532 11.2127 21.4114 11.1039C21.4697 10.995 21.5002 10.8735 21.5002 10.75V6.75C21.5002 5.79252 20.7077 5 19.7502 5H18.0002ZM12.0002 5.92871C11.7198 5.93428 11.4527 6.04959 11.2563 6.24989C11.06 6.45019 10.95 6.7195 10.95 7C10.95 7.2805 11.06 7.54981 11.2563 7.75011C11.4527 7.95041 11.7198 8.06572 12.0002 8.07129C12.2806 8.06572 12.5477 7.95041 12.7441 7.75011C12.9405 7.54981 13.0504 7.2805 13.0504 7C13.0504 6.7195 12.9405 6.45019 12.7441 6.24989C12.5477 6.04959 12.2806 5.93428 12.0002 5.92871ZM8.25021 15C7.91869 15 7.60074 15.1317 7.36632 15.3661C7.1319 15.6005 7.00021 15.9185 7.00021 16.25C7.00021 16.5815 7.1319 16.8995 7.36632 17.1339C7.60074 17.3683 7.91869 17.5 8.25021 17.5C8.58173 17.5 8.89967 17.3683 9.13409 17.1339C9.36851 16.8995 9.50021 16.5815 9.50021 16.25C9.50021 15.9185 9.36851 15.6005 9.13409 15.3661C8.89967 15.1317 8.58173 15 8.25021 15Z" fill="white"/>
</svg>
