<svg width="24" height="25" viewBox="0 0 24 25" fill="none" xmlns="http://www.w3.org/2000/svg">
<path d="M5.22752 3.00033C5.15443 3.00249 5.08205 3.01532 5.01268 3.03842L3.51268 3.53842C3.32387 3.60136 3.16779 3.73672 3.07878 3.91473C2.98978 4.09275 2.97513 4.29883 3.03807 4.48764C3.10101 4.67645 3.23637 4.83253 3.41438 4.92153C3.5924 5.01054 3.79848 5.02519 3.98729 4.96225L4.49998 4.79135V7.75033C4.49858 7.84972 4.51694 7.94839 4.554 8.04062C4.59106 8.13284 4.64608 8.21678 4.71586 8.28756C4.78565 8.35834 4.8688 8.41454 4.96049 8.4529C5.05219 8.49126 5.15059 8.51102 5.24998 8.51102C5.34938 8.51102 5.44778 8.49126 5.53947 8.4529C5.63116 8.41454 5.71432 8.35834 5.7841 8.28756C5.85389 8.21678 5.90891 8.13284 5.94597 8.04062C5.98303 7.94839 6.00139 7.84972 5.99998 7.75033V3.75033C6.00002 3.64993 5.97989 3.55053 5.9408 3.45805C5.90171 3.36556 5.84445 3.28187 5.77241 3.21193C5.70037 3.14198 5.61502 3.08721 5.52142 3.05087C5.42783 3.01452 5.32788 2.99734 5.22752 3.00033ZM10.75 5.50033C10.6506 5.49893 10.5519 5.51729 10.4597 5.55435C10.3675 5.59141 10.2835 5.64643 10.2128 5.71621C10.142 5.786 10.0858 5.86915 10.0474 5.96084C10.0091 6.05254 9.9893 6.15094 9.9893 6.25033C9.9893 6.34973 10.0091 6.44813 10.0474 6.53982C10.0858 6.63152 10.142 6.71467 10.2128 6.78445C10.2835 6.85424 10.3675 6.90926 10.4597 6.94632C10.5519 6.98338 10.6506 7.00174 10.75 7.00033H19.75C19.8494 7.00174 19.948 6.98338 20.0403 6.94632C20.1325 6.90926 20.2164 6.85424 20.2872 6.78445C20.358 6.71467 20.4142 6.63152 20.4525 6.53982C20.4909 6.44813 20.5107 6.34973 20.5107 6.25033C20.5107 6.15094 20.4909 6.05254 20.4525 5.96084C20.4142 5.86915 20.358 5.786 20.2872 5.71621C20.2164 5.64643 20.1325 5.59141 20.0403 5.55435C19.948 5.51729 19.8494 5.49893 19.75 5.50033H10.75ZM5.05174 9.50033C4.30174 9.50033 3.73708 9.9129 3.44139 10.2816C3.1457 10.6503 3.03221 11.0335 3.03221 11.0335C3.00065 11.1286 2.98846 11.2291 2.99637 11.329C3.00429 11.4289 3.03214 11.5262 3.07828 11.6152C3.12443 11.7041 3.18793 11.7829 3.26504 11.8469C3.34215 11.9109 3.4313 11.9588 3.52723 11.9878C3.62316 12.0168 3.72393 12.0263 3.82357 12.0156C3.92322 12.005 4.01973 11.9745 4.1074 11.926C4.19508 11.8775 4.27213 11.8119 4.33403 11.733C4.39592 11.6542 4.44139 11.5638 4.46776 11.4671C4.46776 11.4671 4.506 11.3504 4.61131 11.2191C4.71662 11.0878 4.80174 11.0003 5.05174 11.0003C5.25798 11.0003 5.29545 11.0468 5.37205 11.1507C5.44865 11.2546 5.49998 11.4521 5.49998 11.5394C5.49998 11.7418 5.45998 11.8033 5.32908 11.9339C5.19819 12.0646 4.95163 12.216 4.65233 12.3724C4.35302 12.5288 4.00762 12.6858 3.67381 12.9515C3.34 13.2172 2.99998 13.6894 2.99998 14.2503C3 14.4492 3.07903 14.64 3.21967 14.7806C3.36032 14.9213 3.55108 15.0003 3.74998 15.0003H6.74998C6.84937 15.0017 6.94804 14.9834 7.04026 14.9463C7.13249 14.9093 7.21643 14.8542 7.28721 14.7845C7.35799 14.7147 7.41419 14.6315 7.45255 14.5398C7.49091 14.4481 7.51066 14.3497 7.51066 14.2503C7.51066 14.1509 7.49091 14.0525 7.45255 13.9608C7.41419 13.8692 7.35799 13.786 7.28721 13.7162C7.21643 13.6464 7.13249 13.5914 7.04026 13.5543C6.94804 13.5173 6.84937 13.4989 6.74998 13.5003H5.64451C5.89346 13.3606 6.14804 13.2366 6.38963 12.9955C6.72748 12.6583 6.99998 12.1339 6.99998 11.5394C6.99998 11.1227 6.88498 10.6759 6.57908 10.2611C6.27318 9.84621 5.7115 9.50033 5.05174 9.50033ZM10.75 12.0003C10.6506 11.9989 10.5519 12.0173 10.4597 12.0543C10.3675 12.0914 10.2835 12.1464 10.2128 12.2162C10.142 12.286 10.0858 12.3692 10.0474 12.4608C10.0091 12.5525 9.9893 12.6509 9.9893 12.7503C9.9893 12.8497 10.0091 12.9481 10.0474 13.0398C10.0858 13.1315 10.142 13.2147 10.2128 13.2845C10.2835 13.3542 10.3675 13.4093 10.4597 13.4463C10.5519 13.4834 10.6506 13.5017 10.75 13.5003H19.75C19.8494 13.5017 19.948 13.4834 20.0403 13.4463C20.1325 13.4093 20.2164 13.3542 20.2872 13.2845C20.358 13.2147 20.4142 13.1315 20.4525 13.0398C20.4909 12.9481 20.5107 12.8497 20.5107 12.7503C20.5107 12.6509 20.4909 12.5525 20.4525 12.4608C20.4142 12.3692 20.358 12.286 20.2872 12.2162C20.2164 12.1464 20.1325 12.0914 20.0403 12.0543C19.948 12.0173 19.8494 11.9989 19.75 12.0003H10.75ZM5.05174 16.5003C3.94076 16.5003 3.22166 17.2181 3.22166 17.2181C3.14947 17.287 3.09173 17.3695 3.05184 17.461C3.01195 17.5524 2.99069 17.6509 2.98933 17.7506C2.98796 17.8504 3.00651 17.9494 3.04389 18.0419C3.08126 18.1344 3.13672 18.2185 3.207 18.2893C3.27728 18.3601 3.36099 18.4162 3.45321 18.4543C3.54543 18.4923 3.64431 18.5116 3.74407 18.511C3.84384 18.5103 3.94247 18.4898 4.0342 18.4506C4.12593 18.4114 4.20892 18.3542 4.2783 18.2826C4.2783 18.2826 4.56772 18.0003 5.05174 18.0003C5.25067 18.0003 5.38244 18.0615 5.44236 18.1097C5.50229 18.1579 5.49998 18.1684 5.49998 18.2025C5.49998 18.4638 5.45941 18.445 5.44334 18.4574C5.42727 18.4697 5.33967 18.5003 5.24998 18.5003C5.05291 18.5031 4.86485 18.5834 4.72647 18.7237C4.58809 18.8641 4.51051 19.0532 4.51051 19.2503C4.51051 19.4474 4.58809 19.6366 4.72647 19.777C4.86485 19.9173 5.05291 19.9975 5.24998 20.0003C5.24197 20.0003 5.51644 20.0428 5.65037 20.1126C5.7843 20.1825 5.74998 20.1518 5.74998 20.1634C5.74998 20.2932 5.72846 20.3159 5.65135 20.3763C5.57424 20.4367 5.4118 20.5003 5.20604 20.5003C4.68954 20.5003 4.21385 20.1615 4.21385 20.1615C4.13696 20.0965 4.04777 20.0476 3.95159 20.0178C3.85541 19.988 3.75422 19.9779 3.65404 19.988C3.55387 19.9981 3.45676 20.0283 3.3685 20.0768C3.28025 20.1253 3.20265 20.191 3.14035 20.2701C3.07804 20.3492 3.0323 20.44 3.00584 20.5372C2.97939 20.6343 2.97277 20.7358 2.98637 20.8356C2.99997 20.9354 3.03352 21.0314 3.08502 21.1179C3.13652 21.2044 3.20491 21.2797 3.28611 21.3392C3.28611 21.3392 4.08053 22.0003 5.20604 22.0003C5.69577 22.0003 6.18014 21.8671 6.57615 21.557C6.97217 21.2469 7.24998 20.7256 7.24998 20.1634C7.24998 19.7131 7.0199 19.3889 6.75389 19.1312C6.89911 18.8597 6.99998 18.5504 6.99998 18.2025C6.99998 17.7006 6.74774 17.2345 6.38279 16.9408C6.01784 16.647 5.54931 16.5003 5.05174 16.5003ZM10.75 18.5003C10.6506 18.4989 10.5519 18.5173 10.4597 18.5543C10.3675 18.5914 10.2835 18.6464 10.2128 18.7162C10.142 18.786 10.0858 18.8692 10.0474 18.9608C10.0091 19.0525 9.9893 19.1509 9.9893 19.2503C9.9893 19.3497 10.0091 19.4481 10.0474 19.5398C10.0858 19.6315 10.142 19.7147 10.2128 19.7845C10.2835 19.8542 10.3675 19.9093 10.4597 19.9463C10.5519 19.9834 10.6506 20.0017 10.75 20.0003H19.75C19.8494 20.0017 19.948 19.9834 20.0403 19.9463C20.1325 19.9093 20.2164 19.8542 20.2872 19.7845C20.358 19.7147 20.4142 19.6315 20.4525 19.5398C20.4909 19.4481 20.5107 19.3497 20.5107 19.2503C20.5107 19.1509 20.4909 19.0525 20.4525 18.9608C20.4142 18.8692 20.358 18.786 20.2872 18.7162C20.2164 18.6464 20.1325 18.5914 20.0403 18.5543C19.948 18.5173 19.8494 18.4989 19.75 18.5003H10.75Z" fill="white"/>
</svg>
