<svg width="24" height="25" viewBox="0 0 24 25" fill="none" xmlns="http://www.w3.org/2000/svg">
<path d="M5.75 3.5C4.24091 3.5 3 4.74091 3 6.25V18.75C3 20.2591 4.24091 21.5 5.75 21.5H18.25C19.7591 21.5 21 20.2591 21 18.75V6.25C21 4.74091 19.7591 3.5 18.25 3.5H5.75ZM5.75 5H18.25C18.9409 5 19.5 5.55909 19.5 6.25V16.4355L16.5283 13.5684C16.1018 13.1429 15.5657 13 15.0996 13C14.6068 13 14.0613 13.1779 13.6699 13.5693L12.6523 14.5566L9.58008 11.5693C9.18866 11.1779 8.64325 11 8.15039 11C7.6582 11 7.11299 11.178 6.72168 11.5684L6.71973 11.5693L4.5 13.7256V6.25C4.5 5.55909 5.05909 5 5.75 5ZM15.25 7C14.5625 7 13.9519 7.28482 13.5645 7.7207C13.177 8.15659 13 8.70833 13 9.25C13 9.79167 13.177 10.3434 13.5645 10.7793C13.9519 11.2152 14.5625 11.5 15.25 11.5C15.9375 11.5 16.5481 11.2152 16.9355 10.7793C17.323 10.3434 17.5 9.79167 17.5 9.25C17.5 8.70833 17.323 8.15659 16.9355 7.7207C16.5481 7.28482 15.9375 7 15.25 7ZM15.25 8.5C15.5625 8.5 15.7019 8.59018 15.8145 8.7168C15.927 8.84341 16 9.04167 16 9.25C16 9.45833 15.927 9.65659 15.8145 9.7832C15.7019 9.90982 15.5625 10 15.25 10C14.9375 10 14.7981 9.90982 14.6855 9.7832C14.573 9.65659 14.5 9.45833 14.5 9.25C14.5 9.04167 14.573 8.84341 14.6855 8.7168C14.7981 8.59018 14.9375 8.5 15.25 8.5ZM8.15039 12.5C8.35753 12.5 8.41095 12.5213 8.51953 12.6299C8.52212 12.6325 8.52472 12.6351 8.52734 12.6377L11.5762 15.6016L7.0459 20H5.75C5.05909 20 4.5 19.4409 4.5 18.75V15.8174L7.77246 12.6377C7.77508 12.6351 7.77769 12.6325 7.78027 12.6299C7.88885 12.5213 7.94325 12.5 8.15039 12.5ZM15.0996 14.5C15.2329 14.5 15.3965 14.5567 15.4697 14.6299C15.473 14.6332 15.4762 14.6364 15.4795 14.6396L19.5 18.5205V18.75C19.5 19.4409 18.9409 20 18.25 20H9.19922L14.7227 14.6377C14.7253 14.6351 14.7279 14.6325 14.7305 14.6299C14.839 14.5213 14.8925 14.5 15.0996 14.5Z" fill="white"/>
</svg>
