<svg width="24" height="25" viewBox="0 0 24 25" fill="none" xmlns="http://www.w3.org/2000/svg">
<path d="M4.73836 2.48935C4.53962 2.49245 4.35023 2.57432 4.21181 2.71696C4.07338 2.85959 3.99723 3.05135 4.00008 3.25009V9.25009C4.00008 10.4838 5.01633 11.5001 6.25008 11.5001H17.7501C18.9838 11.5001 20.0001 10.4838 20.0001 9.25009V3.25009C20.0015 3.15071 19.9831 3.05204 19.9461 2.95981C19.909 2.86758 19.854 2.78364 19.7842 2.71287C19.7144 2.64209 19.6313 2.58589 19.5396 2.54752C19.4479 2.50916 19.3495 2.48941 19.2501 2.48941C19.1507 2.48941 19.0523 2.50916 18.9606 2.54752C18.8689 2.58589 18.7857 2.64209 18.716 2.71287C18.6462 2.78364 18.5912 2.86758 18.5541 2.95981C18.517 3.05204 18.4987 3.15071 18.5001 3.25009V9.25009C18.5001 9.67334 18.1733 10.0001 17.7501 10.0001H6.25008C5.82683 10.0001 5.50008 9.67334 5.50008 9.25009V3.25009C5.50152 3.14971 5.48279 3.05006 5.44501 2.95705C5.40723 2.86403 5.35116 2.77955 5.28012 2.70861C5.20909 2.63767 5.12454 2.5817 5.03147 2.54404C4.93841 2.50638 4.83874 2.48778 4.73836 2.48935ZM7.75008 2.50009C7.65069 2.49869 7.55202 2.51705 7.45979 2.55411C7.36757 2.59117 7.28363 2.64619 7.21285 2.71597C7.14207 2.78575 7.08587 2.86891 7.04751 2.9606C7.00915 3.05229 6.9894 3.1507 6.9894 3.25009C6.9894 3.34949 7.00915 3.44789 7.04751 3.53958C7.08587 3.63127 7.14207 3.71443 7.21285 3.78421C7.28363 3.85399 7.36757 3.90902 7.45979 3.94608C7.55202 3.98314 7.65069 4.0015 7.75008 4.00009H16.2501C16.3495 4.0015 16.4481 3.98314 16.5404 3.94608C16.6326 3.90902 16.7165 3.85399 16.7873 3.78421C16.8581 3.71443 16.9143 3.63127 16.9526 3.53958C16.991 3.44789 17.0108 3.34949 17.0108 3.25009C17.0108 3.1507 16.991 3.05229 16.9526 2.9606C16.9143 2.86891 16.8581 2.78575 16.7873 2.71597C16.7165 2.64619 16.6326 2.59117 16.5404 2.55411C16.4481 2.51705 16.3495 2.49869 16.2501 2.50009H7.75008ZM7.75008 6.00009C7.65069 5.99869 7.55202 6.01705 7.45979 6.05411C7.36757 6.09117 7.28363 6.14619 7.21285 6.21597C7.14207 6.28575 7.08587 6.36891 7.04751 6.4606C7.00915 6.5523 6.9894 6.6507 6.9894 6.75009C6.9894 6.84949 7.00915 6.94789 7.04751 7.03958C7.08587 7.13127 7.14207 7.21443 7.21285 7.28421C7.28363 7.35399 7.36757 7.40902 7.45979 7.44608C7.55202 7.48314 7.65069 7.5015 7.75008 7.50009H16.2501C16.3495 7.5015 16.4481 7.48314 16.5404 7.44608C16.6326 7.40902 16.7165 7.35399 16.7873 7.28421C16.8581 7.21443 16.9143 7.13127 16.9526 7.03958C16.991 6.94789 17.0108 6.84949 17.0108 6.75009C17.0108 6.6507 16.991 6.5523 16.9526 6.4606C16.9143 6.36891 16.8581 6.28575 16.7873 6.21597C16.7165 6.14619 16.6326 6.09117 16.5404 6.05411C16.4481 6.01705 16.3495 5.99869 16.2501 6.00009H7.75008ZM6.25008 13.5001C5.01633 13.5001 4.00008 14.5163 4.00008 15.7501V21.7501C3.99867 21.8495 4.01703 21.9481 4.05409 22.0404C4.09115 22.1326 4.14617 22.2165 4.21596 22.2873C4.28574 22.3581 4.3689 22.4143 4.46059 22.4527C4.55228 22.491 4.65068 22.5108 4.75008 22.5108C4.84947 22.5108 4.94787 22.491 5.03957 22.4527C5.13126 22.4143 5.21441 22.3581 5.2842 22.2873C5.35398 22.2165 5.409 22.1326 5.44606 22.0404C5.48312 21.9481 5.50148 21.8495 5.50008 21.7501V15.7501C5.50008 15.3268 5.82683 15.0001 6.25008 15.0001H17.7501C18.1733 15.0001 18.5001 15.3268 18.5001 15.7501V21.7501C18.4987 21.8495 18.517 21.9481 18.5541 22.0404C18.5912 22.1326 18.6462 22.2165 18.716 22.2873C18.7857 22.3581 18.8689 22.4143 18.9606 22.4527C19.0523 22.491 19.1507 22.5108 19.2501 22.5108C19.3495 22.5108 19.4479 22.491 19.5396 22.4527C19.6313 22.4143 19.7144 22.3581 19.7842 22.2873C19.854 22.2165 19.909 22.1326 19.9461 22.0404C19.9831 21.9481 20.0015 21.8495 20.0001 21.7501V15.7501C20.0001 14.5163 18.9838 13.5001 17.7501 13.5001H6.25008ZM7.75008 17.5001C7.65069 17.4987 7.55202 17.517 7.45979 17.5541C7.36757 17.5912 7.28363 17.6462 7.21285 17.716C7.14207 17.7858 7.08587 17.8689 7.04751 17.9606C7.00915 18.0523 6.9894 18.1507 6.9894 18.2501C6.9894 18.3495 7.00915 18.4479 7.04751 18.5396C7.08587 18.6313 7.14207 18.7144 7.21285 18.7842C7.28363 18.854 7.36757 18.909 7.45979 18.9461C7.55202 18.9831 7.65069 19.0015 7.75008 19.0001H16.2501C16.3495 19.0015 16.4481 18.9831 16.5404 18.9461C16.6326 18.909 16.7165 18.854 16.7873 18.7842C16.8581 18.7144 16.9143 18.6313 16.9526 18.5396C16.991 18.4479 17.0108 18.3495 17.0108 18.2501C17.0108 18.1507 16.991 18.0523 16.9526 17.9606C16.9143 17.8689 16.8581 17.7858 16.7873 17.716C16.7165 17.6462 16.6326 17.5912 16.5404 17.5541C16.4481 17.517 16.3495 17.4987 16.2501 17.5001H7.75008ZM7.75008 21.0001C7.65069 20.9987 7.55202 21.017 7.45979 21.0541C7.36757 21.0912 7.28363 21.1462 7.21285 21.216C7.14207 21.2858 7.08587 21.3689 7.04751 21.4606C7.00915 21.5523 6.9894 21.6507 6.9894 21.7501C6.9894 21.8495 7.00915 21.9479 7.04751 22.0396C7.08587 22.1313 7.14207 22.2144 7.21285 22.2842C7.28363 22.354 7.36757 22.409 7.45979 22.4461C7.55202 22.4831 7.65069 22.5015 7.75008 22.5001H16.2501C16.3495 22.5015 16.4481 22.4831 16.5404 22.4461C16.6326 22.409 16.7165 22.354 16.7873 22.2842C16.8581 22.2144 16.9143 22.1313 16.9526 22.0396C16.991 21.9479 17.0108 21.8495 17.0108 21.7501C17.0108 21.6507 16.991 21.5523 16.9526 21.4606C16.9143 21.3689 16.8581 21.2858 16.7873 21.216C16.7165 21.1462 16.6326 21.0912 16.5404 21.0541C16.4481 21.017 16.3495 20.9987 16.2501 21.0001H7.75008Z" fill="white"/>
</svg>
