<svg width="24" height="25" viewBox="0 0 24 25" fill="none" xmlns="http://www.w3.org/2000/svg">
<path d="M12.7383 2.4893C12.7019 2.49025 12.6657 2.49384 12.6299 2.50004H9.25C6.35925 2.50004 4 4.85929 4 7.75004C4 10.6408 6.35925 13 9.25 13H12V21.25C11.9986 21.3494 12.017 21.4481 12.054 21.5403C12.0911 21.6326 12.1461 21.7165 12.2159 21.7873C12.2857 21.858 12.3688 21.9142 12.4605 21.9526C12.5522 21.991 12.6506 22.0107 12.75 22.0107C12.8494 22.0107 12.9478 21.991 13.0395 21.9526C13.1312 21.9142 13.2143 21.858 13.2841 21.7873C13.3539 21.7165 13.4089 21.6326 13.446 21.5403C13.483 21.4481 13.5014 21.3494 13.5 21.25V12.3731C13.5132 12.2926 13.5132 12.2104 13.5 12.1299V4.00004H15.5V21.25C15.4986 21.3494 15.517 21.4481 15.554 21.5403C15.5911 21.6326 15.6461 21.7165 15.7159 21.7873C15.7857 21.858 15.8688 21.9142 15.9605 21.9526C16.0522 21.991 16.1506 22.0107 16.25 22.0107C16.3494 22.0107 16.4478 21.991 16.5395 21.9526C16.6312 21.9142 16.7143 21.858 16.7841 21.7873C16.8539 21.7165 16.9089 21.6326 16.946 21.5403C16.983 21.4481 17.0014 21.3494 17 21.25V4.00004H17.25C17.3494 4.00145 17.4481 3.98309 17.5403 3.94603C17.6325 3.90897 17.7164 3.85395 17.7872 3.78416C17.858 3.71438 17.9142 3.63123 17.9526 3.53953C17.9909 3.44784 18.0107 3.34944 18.0107 3.25004C18.0107 3.15065 17.9909 3.05225 17.9526 2.96055C17.9142 2.86886 17.858 2.78571 17.7872 2.71592C17.7164 2.64614 17.6325 2.59112 17.5403 2.55406C17.4481 2.517 17.3494 2.49864 17.25 2.50004H16.373C16.2925 2.48682 16.2104 2.48682 16.1299 2.50004H12.873C12.8285 2.49241 12.7834 2.48882 12.7383 2.4893ZM9.25 4.00004H12V11.5H9.25C7.16975 11.5 5.5 9.83029 5.5 7.75004C5.5 5.66979 7.16975 4.00004 9.25 4.00004Z" fill="white"/>
</svg>
