<svg width="24" height="25" viewBox="0 0 24 25" fill="none" xmlns="http://www.w3.org/2000/svg">
<path d="M13.75 2C13.5511 2.00002 13.3603 2.07904 13.2197 2.21969C13.079 2.36034 13 2.55109 13 2.75V10.75C13 10.9489 13.079 11.1397 13.2197 11.2803C13.3603 11.421 13.5511 11.5 13.75 11.5H21.75C21.9489 11.5 22.1397 11.421 22.2803 11.2803C22.421 11.1397 22.5 10.9489 22.5 10.75C22.5 5.92622 18.5738 2 13.75 2ZM14.5 3.5752C17.9037 3.92788 20.5721 6.59634 20.9248 10H14.5V3.5752ZM10.75 5C5.92622 5 2 8.92622 2 13.75C2 18.5738 5.92622 22.5 10.75 22.5C15.5738 22.5 19.5 18.5738 19.5 13.75C19.5 13.5511 19.421 13.3603 19.2803 13.2197C19.1397 13.079 18.9489 13 18.75 13H11.5V5.75C11.5 5.55109 11.421 5.36034 11.2803 5.21969C11.1397 5.07904 10.9489 5.00002 10.75 5ZM10 6.5752V13.75C10 13.9489 10.079 14.1397 10.2197 14.2803C10.3603 14.421 10.5511 14.5 10.75 14.5H17.9248C17.5462 18.1537 14.5062 21 10.75 21C6.73678 21 3.5 17.7632 3.5 13.75C3.5 9.99381 6.34633 6.95379 10 6.5752Z" fill="white"/>
</svg>
