<svg width="15" height="16" viewBox="0 0 15 16" fill="none" xmlns="http://www.w3.org/2000/svg">
<path d="M8.70363 8.48594L7.36094 7.14325C7.17794 6.96025 7.08644 6.86875 6.98769 6.81981C6.79988 6.72673 6.57938 6.72673 6.3915 6.81981C6.29281 6.86875 6.20129 6.96025 6.01827 7.14325C5.83524 7.32631 5.74373 7.41781 5.69481 7.5165C5.60173 7.70437 5.60173 7.92487 5.69481 8.11269C5.74373 8.21144 5.83524 8.30294 6.01827 8.48594L7.36094 9.82862M8.70363 8.48594L12.7318 12.5141C12.9148 12.6971 13.0062 12.7886 13.0552 12.8873C13.1483 13.0751 13.1483 13.2956 13.0552 13.4835C13.0062 13.5822 12.9148 13.6737 12.7318 13.8567C12.5487 14.0397 12.4572 14.1312 12.3585 14.1802C12.1706 14.2732 11.9501 14.2732 11.7623 14.1802C11.6636 14.1312 11.5721 14.0397 11.3891 13.8567L7.36094 9.82862M8.70363 8.48594L7.36094 9.82862L8.70363 8.48594Z" fill="#67A6A9"/>
<path d="M8.70363 8.48594L7.36094 7.14325C7.17794 6.96025 7.08644 6.86875 6.98769 6.81981C6.79988 6.72673 6.57938 6.72673 6.3915 6.81981C6.29281 6.86875 6.20129 6.96025 6.01827 7.14325C5.83524 7.32631 5.74373 7.41781 5.69481 7.5165C5.60173 7.70437 5.60173 7.92487 5.69481 8.11269C5.74373 8.21144 5.83524 8.30294 6.01827 8.48594L7.36094 9.82862M8.70363 8.48594L12.7318 12.5141C12.9148 12.6971 13.0062 12.7886 13.0552 12.8873C13.1482 13.0751 13.1482 13.2956 13.0552 13.4835C13.0062 13.5822 12.9148 13.6737 12.7318 13.8567C12.5487 14.0397 12.4572 14.1312 12.3585 14.1802C12.1706 14.2732 11.9501 14.2732 11.7623 14.1802C11.6636 14.1312 11.5721 14.0397 11.3891 13.8567L7.36094 9.82862M8.70363 8.48594L7.36094 9.82862" stroke="#67A6A9" stroke-width="0.7" stroke-linecap="round" stroke-linejoin="round"/>
<path d="M10.625 1.75L10.8092 2.24788C11.0508 2.90073 11.1716 3.22716 11.4097 3.46528C11.6479 3.70341 11.9742 3.82419 12.6271 4.06577L13.125 4.25L12.6271 4.43423C11.9742 4.67581 11.6479 4.7966 11.4097 5.03472C11.1716 5.27284 11.0508 5.59927 10.8092 6.25212L10.625 6.75L10.4408 6.25212C10.1992 5.59927 10.0784 5.27284 9.84025 5.03472C9.60213 4.79659 9.27575 4.67581 8.62288 4.43423L8.125 4.25L8.62288 4.06577C9.27575 3.82419 9.60213 3.70341 9.84025 3.46528C10.0784 3.22716 10.1992 2.90073 10.4408 2.24788L10.625 1.75Z" fill="#67A6A9" stroke="#67A6A9" stroke-width="0.7" stroke-linejoin="round"/>
<path d="M3.75 3L3.88818 3.37341C4.06936 3.86304 4.15995 4.10787 4.33854 4.28646C4.51713 4.46505 4.76196 4.55564 5.25159 4.73683L5.625 4.875L5.25159 5.01318C4.76196 5.19436 4.51713 5.28495 4.33854 5.46354C4.15995 5.64213 4.06936 5.88696 3.88818 6.37659L3.75 6.75L3.61183 6.37659C3.43064 5.88696 3.34005 5.64213 3.16146 5.46354C2.98287 5.28495 2.73804 5.19436 2.24841 5.01318L1.875 4.875L2.24841 4.73683C2.73804 4.55564 2.98287 4.46505 3.16146 4.28646C3.34005 4.10787 3.43064 3.86304 3.61183 3.37341L3.75 3Z" fill="#67A6A9" stroke="#67A6A9" stroke-width="0.7" stroke-linejoin="round"/>
</svg>
