<svg width="24" height="25" viewBox="0 0 24 25" fill="none" xmlns="http://www.w3.org/2000/svg">
<g clip-path="url(#clip0_1963_44)">
<path d="M17.6445 1.99325C17.5082 1.99114 17.3739 2.02621 17.256 2.09469C17.1382 2.16317 17.0412 2.26247 16.9755 2.38193L16.5263 3.16025C16.0743 3.35622 14.422 4.00009 11.9999 4.00009C10.5833 4.00009 9.38746 3.76352 8.55267 3.52841C8.13528 3.41086 7.80807 3.29375 7.58978 3.2081C7.53758 3.18761 7.513 3.17587 7.47357 3.15927L7.02435 2.38193C6.95689 2.26113 6.85733 2.16135 6.73669 2.09362C6.61604 2.02588 6.47902 1.99284 6.34076 1.99814C6.21074 2.00316 6.08425 2.04191 5.97374 2.1106C5.86323 2.17929 5.77248 2.27554 5.71042 2.38991C5.64836 2.50428 5.61712 2.63282 5.61977 2.76292C5.62242 2.89301 5.65886 3.02018 5.72553 3.13193L6.17474 3.91025C6.11841 4.40006 5.85034 6.1521 4.63959 8.24911C3.4271 10.3491 2.04113 11.4583 1.6474 11.7501H0.74994C0.650556 11.7487 0.551884 11.767 0.459657 11.8041C0.367431 11.8412 0.28349 11.8962 0.212713 11.966C0.141936 12.0358 0.0857338 12.1189 0.047373 12.2106C0.00901222 12.3023 -0.0107422 12.4007 -0.0107422 12.5001C-0.0107422 12.5995 0.00901222 12.6979 0.047373 12.7896C0.0857338 12.8813 0.141936 12.9644 0.212713 13.0342C0.28349 13.104 0.367431 13.159 0.459657 13.1961C0.551884 13.2331 0.650556 13.2515 0.74994 13.2501H1.64935C1.68184 13.2747 1.70492 13.2909 1.74799 13.3253C1.93137 13.4717 2.19628 13.6964 2.50678 13.9991C3.12777 14.6046 3.93028 15.5223 4.63861 16.7491C5.85133 18.8496 6.11905 20.6045 6.17474 21.0909L5.72553 21.8683C5.6738 21.9536 5.63963 22.0485 5.62504 22.1472C5.61044 22.246 5.6157 22.3467 5.64052 22.4434C5.66533 22.5401 5.7092 22.6308 5.76955 22.7104C5.8299 22.7899 5.90552 22.8566 5.99197 22.9065C6.07842 22.9564 6.17396 22.9886 6.27301 23.0011C6.37205 23.0136 6.47259 23.0062 6.56874 22.9794C6.66489 22.9525 6.75472 22.9068 6.83296 22.8447C6.91119 22.7827 6.97626 22.7057 7.02435 22.6183L7.47455 21.839C7.51386 21.8227 7.53818 21.8113 7.58978 21.7911C7.80818 21.7054 8.13524 21.5884 8.55267 21.4708C9.38754 21.2357 10.5833 20.9981 11.9999 20.9981C14.4203 20.9981 16.0718 21.6422 16.5253 21.839L16.9755 22.6183C17.0236 22.7057 17.0887 22.7827 17.1669 22.8447C17.2452 22.9068 17.335 22.9525 17.4311 22.9794C17.5273 23.0062 17.6278 23.0136 17.7269 23.0011C17.8259 22.9886 17.9215 22.9564 18.0079 22.9065C18.0944 22.8566 18.17 22.7899 18.2303 22.7104C18.2907 22.6308 18.3345 22.5401 18.3594 22.4434C18.3842 22.3467 18.3894 22.246 18.3748 22.1472C18.3602 22.0485 18.3261 21.9536 18.2744 21.8683L17.8251 21.0909C17.8306 21.0482 17.8333 21.0208 17.8417 20.9649C17.8768 20.733 17.9389 20.3911 18.0458 19.9708C18.2597 19.1303 18.6529 17.9759 19.3613 16.7491C20.5724 14.6514 21.9561 13.5432 22.3515 13.2501H23.2499C23.3493 13.2515 23.448 13.2331 23.5402 13.1961C23.6324 13.159 23.7164 13.104 23.7872 13.0342C23.8579 12.9644 23.9141 12.8813 23.9525 12.7896C23.9909 12.6979 24.0106 12.5995 24.0106 12.5001C24.0106 12.4007 23.9909 12.3023 23.9525 12.2106C23.9141 12.1189 23.8579 12.0358 23.7872 11.966C23.7164 11.8962 23.6324 11.8412 23.5402 11.8041C23.448 11.767 23.3493 11.7487 23.2499 11.7501H22.3525C21.9589 11.4583 20.5738 10.3491 19.3613 8.24911C18.6529 7.02223 18.2597 5.86893 18.0458 5.02841C17.9389 4.60815 17.8768 4.26623 17.8417 4.03427C17.8334 3.97886 17.8306 3.95173 17.8251 3.90927L18.2744 3.13193C18.3428 3.01901 18.3802 2.89004 18.3828 2.75804C18.3854 2.62604 18.3531 2.49569 18.2892 2.38017C18.2253 2.26464 18.132 2.16803 18.0188 2.10009C17.9056 2.03215 17.7765 1.9953 17.6445 1.99325ZM15.4208 5.07529L14.2255 7.1456C14.0124 7.23933 13.3555 7.50009 11.9999 7.50009C10.6444 7.50009 9.98743 7.23933 9.77435 7.1456L8.58295 5.08114C9.48325 5.30395 10.6397 5.50009 11.9999 5.50009C13.485 5.50009 14.5836 5.30035 15.4208 5.07529ZM7.28119 5.82529L8.47553 7.89462C8.45029 8.12538 8.34807 8.82543 7.66986 10.0001C6.99182 11.1745 6.43736 11.6127 6.24994 11.7501H3.85931C4.47291 11.1376 5.19543 10.286 5.93842 8.99911C6.68089 7.71315 7.05769 6.66274 7.28119 5.82529ZM16.7158 5.83114C16.973 6.72207 17.3813 7.82112 18.0615 8.99911C18.7975 10.274 19.5205 11.139 20.1298 11.7501H17.7499C17.5625 11.6127 17.0081 11.1745 16.33 10.0001C15.6518 8.82543 15.5496 8.12538 15.5244 7.89462L16.7158 5.83114ZM10.7529 8.83993C11.159 8.9041 11.4761 9.00009 11.9999 9.00009C12.5238 9.00009 12.8409 8.9041 13.247 8.83993L11.9999 11.0001L10.7529 8.83993ZM9.45404 9.58993L10.7011 11.7501H8.20599C8.46478 11.4303 8.7066 11.204 8.96869 10.7501C9.23069 10.2963 9.30652 9.97382 9.45404 9.58993ZM14.5458 9.58993C14.6934 9.97382 14.7692 10.2963 15.0312 10.7501C15.2933 11.204 15.5351 11.4303 15.7939 11.7501H13.2988L14.5458 9.58993ZM3.86713 13.2501H6.24994C6.43736 13.3875 6.99182 13.8257 7.66986 15.0001C8.34807 16.1748 8.45029 16.8748 8.47553 17.1056L7.28119 19.1749C7.05782 18.3373 6.68131 17.2858 5.93842 15.9991C5.25826 14.8211 4.51019 13.9182 3.86713 13.2501ZM8.20599 13.2501H10.7011L9.45404 15.4102C9.30652 15.0264 9.23069 14.7039 8.96869 14.2501C8.7066 13.7962 8.46478 13.5698 8.20599 13.2501ZM13.2988 13.2501H15.7939C15.5351 13.5698 15.2933 13.7962 15.0312 14.2501C14.7692 14.7039 14.6934 15.0264 14.5458 15.4102L13.2988 13.2501ZM17.7499 13.2501H20.1269C19.5182 13.861 18.7964 14.7261 18.0615 15.9991C17.381 17.1776 16.972 18.2769 16.7148 19.1681L15.5244 17.1056C15.5496 16.8748 15.6518 16.1748 16.33 15.0001C17.0081 13.8257 17.5625 13.3875 17.7499 13.2501ZM11.9999 14.0001L13.247 16.1602C12.8409 16.0961 12.5238 16.0001 11.9999 16.0001C11.4761 16.0001 11.159 16.0961 10.7529 16.1602L11.9999 14.0001ZM11.9999 17.5001C13.3555 17.5001 14.0124 17.7608 14.2255 17.8546L15.4189 19.922C14.5819 19.6971 13.4839 19.4981 11.9999 19.4981C10.6401 19.4981 9.48413 19.6944 8.58392 19.9171L9.77435 17.8546C9.98743 17.7608 10.6444 17.5001 11.9999 17.5001Z" fill="white"/>
</g>
<defs>
<clipPath id="clip0_1963_44">
<rect width="24" height="24" fill="white" transform="translate(0 0.5)"/>
</clipPath>
</defs>
</svg>
