<svg width="24" height="25" viewBox="0 0 24 25" fill="none" xmlns="http://www.w3.org/2000/svg">
<path d="M2.60352 3C1.71495 3 1 3.74423 1 4.625V20.375C1 21.2558 1.71495 22 2.60352 22H21.3955C22.2841 22 22.999 21.2553 22.999 20.375V4.62598V4.625C22.9994 3.74424 22.2847 3 21.3965 3H2.60352ZM2.60352 4.5H21.3965C21.4469 4.5 21.4991 4.54222 21.499 4.62402V4.625V20.375C21.499 20.4577 21.4469 20.5 21.3955 20.5H2.60352C2.55308 20.5 2.5 20.4572 2.5 20.375V4.625C2.5 4.54277 2.55308 4.5 2.60352 4.5ZM4.25 9.5C4.05109 9.50002 3.86034 9.57904 3.71969 9.71969C3.57904 9.86034 3.50002 10.0511 3.5 10.25V16.25C3.50002 16.4489 3.57904 16.6397 3.71969 16.7803C3.86034 16.921 4.05109 17 4.25 17H13.9375L16.2168 19.2803C16.3217 19.3851 16.4553 19.4565 16.6008 19.4854C16.7462 19.5143 16.897 19.4994 17.034 19.4427C17.171 19.3859 17.2882 19.2898 17.3706 19.1666C17.453 19.0433 17.497 18.8983 17.4971 18.75V17.0078L19.7393 17.0322C19.8384 17.0332 19.9368 17.0146 20.0287 16.9774C20.1206 16.9401 20.2042 16.8851 20.2746 16.8153C20.3451 16.7456 20.401 16.6625 20.4392 16.571C20.4774 16.4795 20.4971 16.3814 20.4971 16.2822V10.25C20.4971 10.0511 20.418 9.86034 20.2774 9.71969C20.1367 9.57904 19.946 9.50002 19.7471 9.5H4.25ZM5 11H18.9971V15.5244L16.7559 15.5C16.6566 15.4988 16.5582 15.5174 16.4662 15.5546C16.3742 15.5917 16.2904 15.6468 16.2199 15.7166C16.1493 15.7863 16.0933 15.8694 16.055 15.961C16.0168 16.0525 15.9971 16.1508 15.9971 16.25V16.9385L14.7783 15.7197C14.6377 15.5791 14.4469 15.5 14.248 15.5H5V11ZM6.47754 12.5C6.21354 12.5 6 12.714 6 12.9775V13.5225C6 13.7865 6.21404 14 6.47754 14H7.02246C7.28646 14 7.5 13.786 7.5 13.5225V12.9775C7.5 12.714 7.28596 12.5 7.02246 12.5H6.47754ZM8.97754 12.5C8.71354 12.5 8.5 12.714 8.5 12.9775V13.5225C8.5 13.7865 8.71404 14 8.97754 14H9.52246C9.78646 14 10 13.786 10 13.5225V12.9775C10 12.714 9.78596 12.5 9.52246 12.5H8.97754ZM11.4775 12.5C11.2135 12.5 11 12.714 11 12.9775V13.5225C11 13.7865 11.214 14 11.4775 14H12.0225C12.2865 14 12.5 13.786 12.5 13.5225V12.9775C12.5 12.714 12.286 12.5 12.0225 12.5H11.4775ZM13.9775 12.5C13.7135 12.5 13.5 12.714 13.5 12.9775V13.5225C13.5 13.7865 13.714 14 13.9775 14H14.5225C14.7865 14 15 13.786 15 13.5225V12.9775C15 12.714 14.786 12.5 14.5225 12.5H13.9775ZM16.4775 12.5C16.2135 12.5 16 12.714 16 12.9775V13.5225C16 13.7865 16.214 14 16.4775 14H17.0225C17.2865 14 17.5 13.786 17.5 13.5225V12.9775C17.5 12.714 17.286 12.5 17.0225 12.5H16.4775Z" fill="white"/>
</svg>
