<svg width="24" height="25" viewBox="0 0 24 25" fill="none" xmlns="http://www.w3.org/2000/svg">
<path d="M11.9882 3.4893C11.9515 3.4902 11.915 3.49379 11.8788 3.50004H6.24991C4.74002 3.50004 3.49991 4.74016 3.49991 6.25004V15.127C3.48668 15.2075 3.48668 15.2896 3.49991 15.3702V18.75C3.49991 20.2599 4.74002 21.5 6.24991 21.5H11.8769C11.9574 21.5133 12.0395 21.5133 12.12 21.5H17.7499C19.2598 21.5 20.4999 20.2599 20.4999 18.75V15.3731C20.5131 15.2926 20.5131 15.2104 20.4999 15.1299V6.25004C20.4999 4.74016 19.2598 3.50004 17.7499 3.50004H12.123C12.0784 3.49241 12.0333 3.48882 11.9882 3.4893ZM6.24991 5.00004H11.2499V9.00004H4.99991V6.25004C4.99991 5.55093 5.5508 5.00004 6.24991 5.00004ZM12.7499 5.00004H17.7499C18.449 5.00004 18.9999 5.55093 18.9999 6.25004V9.00004H12.7499V5.00004ZM4.99991 10.5H11.2499V14.5H4.99991V10.5ZM12.7499 10.5H18.9999V14.5H12.7499V10.5ZM4.99991 16H11.2499V20H6.24991C5.5508 20 4.99991 19.4492 4.99991 18.75V16ZM12.7499 16H18.9999V18.75C18.9999 19.4492 18.449 20 17.7499 20H12.7499V16Z" fill="white"/>
</svg>
