<svg width="24" height="25" viewBox="0 0 24 25" fill="none" xmlns="http://www.w3.org/2000/svg">
<path d="M9.5 22.5C8.671 22.5 8 21.829 8 21V7C8 6.171 8.671 5.5 9.5 5.5C10.329 5.5 11 6.171 11 7V21C11 21.829 10.329 22.5 9.5 22.5Z" fill="white"/>
<path d="M15.5 7.5H3.5C2.671 7.5 2 6.829 2 6C2 5.171 2.671 4.5 3.5 4.5H15.5C16.329 4.5 17 5.171 17 6C17 6.829 16.329 7.5 15.5 7.5Z" fill="white"/>
<path opacity="0.35" d="M21.5 12.5H15.5C14.671 12.5 14 13.171 14 14C14 14.829 14.671 15.5 15.5 15.5H17V21C17 21.829 17.671 22.5 18.5 22.5C19.329 22.5 20 21.829 20 21V15.5H21.5C22.329 15.5 23 14.829 23 14C23 13.171 22.329 12.5 21.5 12.5Z" fill="white"/>
</svg>
