<svg width="16" height="16" viewBox="0 0 16 16" fill="none" xmlns="http://www.w3.org/2000/svg">
<g clip-path="url(#clip0_10398_14550)">
<path d="M2 8C5 8 8 5 8 2C8 5 11 8 14 8C11 8 8 11 8 14C8 11 5 8 2 8Z" fill="white" stroke="white" stroke-linejoin="round"/>
<path d="M1.33398 13.0007C1.88954 13.0007 3.00065 11.8895 3.00065 11.334C3.00065 11.8895 4.11176 13.0007 4.66732 13.0007C4.11176 13.0007 3.00065 14.1118 3.00065 14.6673C3.00065 14.1118 1.88954 13.0007 1.33398 13.0007Z" fill="white" stroke="white" stroke-linejoin="round"/>
<path d="M10.666 3.33398C11.3327 3.33398 12.666 2.00065 12.666 1.33398C12.666 2.00065 13.9993 3.33398 14.666 3.33398C13.9993 3.33398 12.666 4.66732 12.666 5.33398C12.666 4.66732 11.3327 3.33398 10.666 3.33398Z" fill="white" stroke="white" stroke-linejoin="round"/>
</g>
<defs>
<clipPath id="clip0_10398_14550">
<rect width="16" height="16" fill="white"/>
</clipPath>
</defs>
</svg>
