<svg width="24" height="25" viewBox="0 0 24 25" fill="none" xmlns="http://www.w3.org/2000/svg">
<path d="M12 3C8.41903 3 5.5 5.91903 5.5 9.5C5.5 9.57911 5.50889 9.65594 5.51172 9.73438C3.42903 10.8194 2 12.9961 2 15.5C2 19.081 4.91903 22 8.5 22C9.78856 22 10.988 21.6176 12 20.9668C13.012 21.6176 14.2114 22 15.5 22C19.081 22 22 19.081 22 15.5C22 12.9961 20.571 10.8194 18.4883 9.73438C18.4911 9.65594 18.5 9.57911 18.5 9.5C18.5 5.91903 15.581 3 12 3ZM12 4.5C14.6618 4.5 16.8191 6.56008 16.9844 9.17871C16.5067 9.06628 16.0112 9 15.5 9C14.2114 9 13.012 9.38245 12 10.0332C10.988 9.38245 9.78856 9 8.5 9C7.98875 9 7.49332 9.06628 7.01562 9.17871C7.18095 6.56008 9.33819 4.5 12 4.5ZM8.5 10.5C9.3224 10.5 10.0954 10.7 10.7783 11.0488C10.0813 11.7877 9.55449 12.6866 9.2627 13.6865C8.21757 13.0037 7.45088 11.9395 7.14746 10.6885C7.57793 10.5685 8.0302 10.5 8.5 10.5ZM15.5 10.5C15.9698 10.5 16.4221 10.5685 16.8525 10.6885C16.5491 11.9395 15.7824 13.0037 14.7373 13.6865C14.4455 12.6866 13.9187 11.7877 13.2217 11.0488C13.9046 10.7 14.6776 10.5 15.5 10.5ZM5.7627 11.3135C6.26341 13.0294 7.45271 14.4534 9.01172 15.2656C9.00889 15.3441 9 15.4209 9 15.5C9 17.2218 9.67949 18.7863 10.7783 19.9512C10.0954 20.3 9.3224 20.5 8.5 20.5C5.72969 20.5 3.5 18.2703 3.5 15.5C3.5 13.7423 4.39889 12.2045 5.7627 11.3135ZM18.2373 11.3135C19.6011 12.2045 20.5 13.7423 20.5 15.5C20.5 18.2703 18.2703 20.5 15.5 20.5C14.6776 20.5 13.9046 20.3 13.2217 19.9512C14.3205 18.7863 15 17.2218 15 15.5C15 15.4209 14.9911 15.3441 14.9883 15.2656C16.5473 14.4534 17.7366 13.0294 18.2373 11.3135ZM12 11.9258C12.6549 12.5671 13.1288 13.3889 13.3525 14.3115C12.9221 14.4315 12.4698 14.5 12 14.5C11.5302 14.5 11.0779 14.4315 10.6475 14.3115C10.8712 13.3889 11.3451 12.5671 12 11.9258ZM10.5156 15.8213C10.9933 15.9337 11.4888 16 12 16C12.5112 16 13.0067 15.9337 13.4844 15.8213C13.4039 17.0959 12.8542 18.2378 12 19.0742C11.1458 18.2378 10.5961 17.0959 10.5156 15.8213Z" fill="white"/>
</svg>
