<svg width="24" height="25" viewBox="0 0 24 25" fill="none" xmlns="http://www.w3.org/2000/svg">
<path d="M12 2.5C6.48603 2.5 2 6.98604 2 12.5C2 18.014 6.48603 22.5 12 22.5C17.514 22.5 22 18.014 22 12.5C22 6.98604 17.514 2.5 12 2.5ZM12 4C13.7048 4 15.2863 4.50427 16.6152 5.36426L16.5234 5.4541C16.4264 5.5511 16.2984 5.60059 16.1699 5.60059C16.0589 5.60059 15.9475 5.56376 15.8555 5.48926L15.3887 5.11133C15.2987 5.03933 15.1877 5 15.0732 5H14C13.724 5 13.5 5.224 13.5 5.5V6C13.5 6.276 13.724 6.5 14 6.5H14.2695C14.4155 6.5 14.5544 6.5643 14.6494 6.6748L15.8818 8.1123C15.9583 8.2013 16.0014 8.31366 16.0029 8.43066L16.0186 9.69824C16.0196 9.78524 16.0439 9.87031 16.0879 9.94531L16.8555 11.2529C16.945 11.4059 17.1086 11.5 17.2861 11.5H17.5C17.776 11.5 18 11.724 18 12C18 12.276 18.224 12.5 18.5 12.5H18.5234C18.6539 12.5 18.7795 12.4489 18.873 12.3574L19.6045 11.6426C19.6975 11.5511 19.8231 11.5 19.9541 11.5L20.4346 11.4883C20.4739 11.8207 20.5 12.1568 20.5 12.5C20.5 12.5026 20.5 12.5052 20.5 12.5078C20.4177 12.5158 20.3365 12.5334 20.2607 12.5674L18.9268 13.1699C18.8108 13.2224 18.7103 13.3033 18.6338 13.4053L18.3213 13.8223C18.1288 14.0788 18.1189 14.4283 18.2969 14.6953L18.6934 15.29C18.8759 15.564 18.8608 15.9246 18.6553 16.1816L18.166 16.7939C18.0585 16.9274 18 17.0931 18 17.2646V18.5264C16.464 20.0557 14.3449 21 12 21C7.29669 21 3.5 17.2033 3.5 12.5C3.5 12.2013 3.51601 11.9069 3.5459 11.6162C3.57715 11.6491 3.60524 11.6847 3.625 11.7256L4.37695 13.248C4.45195 13.4025 4.60877 13.5 4.78027 13.5H5.04883C5.29833 13.5 5.5 13.2983 5.5 13.0488V11.6865C5.5 11.5665 5.54781 11.4522 5.63281 11.3672L6 11C6 11 6.06277 10.9375 6.13477 10.9375C6.20677 10.9375 6.28722 11 6.32422 11.25C6.39872 11.75 6.60156 13.1152 6.60156 13.1152C6.63456 13.3367 6.82533 13.5 7.04883 13.5C7.29833 13.5 7.5 13.2983 7.5 13.0488V9.45117C7.5 9.20167 7.70167 9 7.95117 9H8.31348C8.43348 9 8.54781 8.95219 8.63281 8.86719L9.13184 8.36816C9.32634 8.17366 9.30398 7.8525 9.08398 7.6875L8.87207 7.5293C8.66807 7.3763 8.63152 7.08524 8.79102 6.88574L8.98145 6.64844C9.07395 6.53294 9.20353 6.47852 9.33203 6.47852C9.51503 6.47852 9.6962 6.58761 9.7627 6.78711L9.89746 7.19141C9.95896 7.37541 10.1307 7.5 10.3252 7.5H10.5488C10.7983 7.5 11 7.29833 11 7.04883V5.83691C11 5.77941 11.0107 5.72292 11.0322 5.66992L11.668 4.0166C11.7791 4.01232 11.8878 4 12 4ZM9.9707 4.25293L9.67969 5.00879C9.56669 4.98879 9.45051 4.97852 9.33301 4.97852C8.73801 4.97852 8.18305 5.24544 7.81055 5.71094L7.62012 5.94922C7.29212 6.35922 7.14201 6.89306 7.20801 7.41406C7.21751 7.48756 7.23055 7.55986 7.24805 7.63086C6.52105 7.91286 6.00448 8.61886 6.00098 9.44336C5.60748 9.47636 5.22693 9.65295 4.94043 9.93945L4.57227 10.3066C4.53627 10.3426 4.50223 10.3795 4.46973 10.418L3.91504 9.87695C4.81378 7.09475 7.10414 4.95333 9.9707 4.25293ZM17.8066 6.29883C18.8728 7.29728 19.6853 8.56147 20.125 9.99512L19.9297 10C19.4887 10.005 19.0696 10.1529 18.7266 10.4209C18.4831 10.2314 18.1949 10.0966 17.8809 10.0361L17.5156 9.41406L17.5029 8.41309C17.4969 7.94509 17.326 7.49222 17.0215 7.13672L16.8809 6.97266C17.1399 6.87516 17.3753 6.72432 17.5713 6.52832L17.8066 6.29883ZM10.4932 12.8398C10.3577 12.8398 10.224 12.8927 10.124 12.9922L8.8457 14.1797C8.6252 14.3842 8.5 14.6712 8.5 14.9717V16.0869C8.5 16.3824 8.62096 16.6651 8.83496 16.8691L9.07129 17.0947C9.17429 17.2027 9.31222 17.2568 9.44922 17.2568C9.59072 17.2568 9.73294 17.1999 9.83594 17.0859L10.2119 16.6719C10.3114 16.5624 10.4511 16.5 10.5986 16.5H11.0439C11.1914 16.5 11.3317 16.5619 11.4307 16.6709L12.0283 17.3281C12.1273 17.4376 12.2675 17.5 12.415 17.5H12.7627C12.9637 17.5 13.1474 17.3846 13.2344 17.2031L13.9111 15.7871C13.9686 15.6671 13.978 15.5303 13.9375 15.4033L13.3369 13.5166C13.2634 13.2861 13.0529 13.1533 12.8369 13.1533C12.7159 13.1533 12.5932 13.1947 12.4912 13.2852C12.3937 13.3722 12.2696 13.418 12.1436 13.418C12.0786 13.418 12.0127 13.4059 11.9502 13.3809L10.6865 12.8779C10.6235 12.8524 10.5582 12.8398 10.4932 12.8398ZM10.7051 14.499L11.3945 14.7744C11.6335 14.8699 11.8861 14.918 12.1436 14.918C12.1651 14.918 12.1865 14.9165 12.208 14.916L12.3906 15.4893L12.3828 15.5059C12.0153 15.1819 11.5384 15 11.0439 15H10.5986C10.4286 15 10.2602 15.022 10.0977 15.0635L10.7051 14.499ZM15.3086 16.502C15.1572 16.4807 15.0029 16.6083 15.0029 16.8037V17.6963C15.0029 17.9568 15.2776 18.0963 15.4531 17.9238L15.9082 17.4766C16.0307 17.3561 16.0307 17.143 15.9082 17.0225L15.4531 16.5762C15.4093 16.5332 15.3591 16.509 15.3086 16.502ZM14.3516 18.0068C14.2423 17.9866 14.1264 18.007 14.0254 18.0723L12.7275 18.9102C12.586 19.0017 12.5 19.1663 12.5 19.3428V19.4941C12.5 19.8501 12.836 20.0954 13.1465 19.9639L14.7002 19.3105C14.9982 19.1855 15.0951 18.7875 14.8936 18.5225L14.6377 18.1855C14.5632 18.0878 14.4608 18.0271 14.3516 18.0068Z" fill="white"/>
</svg>
