<svg width="25" height="25" viewBox="0 0 25 25" fill="none" xmlns="http://www.w3.org/2000/svg">
<path d="M22.5 10.5V9.71749C22.5 7.77787 22.5 6.80807 21.9142 6.2055C21.3284 5.60294 20.3856 5.60294 18.5 5.60294H16.4214C15.504 5.60294 15.4964 5.60116 14.6715 5.18834L11.3399 3.52114C9.94884 2.82504 9.25332 2.47699 8.51238 2.50118C7.77143 2.52537 7.09877 2.91808 5.75345 3.70351L4.52558 4.42037C3.53739 4.99729 3.04329 5.28576 2.77164 5.76564C2.5 6.24553 2.5 6.82993 2.5 7.99873V16.2157C2.5 17.7514 2.5 18.5193 2.84226 18.9467C3.07001 19.231 3.38916 19.4222 3.742 19.4856C4.27226 19.5808 4.92148 19.2018 6.21987 18.4437C7.10156 17.929 7.95011 17.3944 9.00487 17.5394C9.88869 17.6608 10.71 18.2185 11.5 18.6138" stroke="#212838" stroke-width="1.5" stroke-linecap="round" stroke-linejoin="round"/>
<path d="M8.5 2.5V17.5" stroke="#212838" stroke-width="1.5" stroke-linejoin="round"/>
<path d="M15.5 5.5V10" stroke="#212838" stroke-width="1.5" stroke-linecap="round" stroke-linejoin="round"/>
<path d="M18.8083 22.1835C18.5915 22.3865 18.3017 22.5 18.0001 22.5C17.6985 22.5 17.4087 22.3865 17.1919 22.1835C15.2063 20.313 12.5455 18.2235 13.8431 15.1898C14.5447 13.5496 16.2289 12.5 18.0001 12.5C19.7713 12.5 21.4555 13.5496 22.1571 15.1898C23.4531 18.2196 20.7988 20.3194 18.8083 22.1835Z" stroke="#212838" stroke-width="1.5"/>
<path d="M18 17H18.0088" stroke="#212838" stroke-width="2" stroke-linecap="round" stroke-linejoin="round"/>
</svg>
