<svg width="448" height="233" viewBox="0 0 448 233" fill="none" xmlns="http://www.w3.org/2000/svg">
<g opacity="0.3" clip-path="url(#clip0_6494_7478)">
<path d="M88.2494 99.2195C115.389 99.2195 137.389 77.2187 137.389 50.0795C137.389 22.9402 115.389 0.939453 88.2494 0.939453C61.1101 0.939453 39.1094 22.9402 39.1094 50.0795C39.1094 77.2187 61.1101 99.2195 88.2494 99.2195Z" fill="#016A70"/>
<path d="M88.2516 90.9897C65.7016 90.9897 47.3516 72.6397 47.3516 50.0897C47.3516 27.5397 65.6916 9.17969 88.2516 9.17969C110.812 9.17969 129.152 27.5297 129.152 50.0797C129.152 72.6297 110.802 90.9797 88.2516 90.9797V90.9897ZM88.2516 16.1797C69.5616 16.1797 54.3516 31.3897 54.3516 50.0797C54.3516 68.7697 69.5616 83.9797 88.2516 83.9797C106.942 83.9797 122.152 68.7697 122.152 50.0797C122.152 31.3897 106.942 16.1797 88.2516 16.1797Z" fill="white"/>
<path d="M87.9702 64.0692C79.6602 64.0692 72.9102 57.3092 72.9102 49.0092C72.9102 40.7092 79.6702 33.9492 87.9702 33.9492C96.2702 33.9492 103.03 40.7092 103.03 49.0092C103.03 57.3092 96.2702 64.0692 87.9702 64.0692ZM87.9702 40.9392C83.5202 40.9392 79.9102 44.5592 79.9102 48.9992C79.9102 53.4392 83.5302 57.0592 87.9702 57.0592C92.4102 57.0592 96.0302 53.4392 96.0302 48.9992C96.0302 44.5592 92.4102 40.9392 87.9702 40.9392Z" fill="white"/>
<path d="M87.9697 49H68.9297L72.2497 54.88L27.4297 75.42L28.9397 77.94L73.9097 57.64L76.9897 63.47L87.9697 49Z" fill="#455A64"/>
<path d="M27.4297 75.4197L26.9497 74.9597C24.5997 72.6697 21.1997 71.8197 18.0497 72.7397L0.179688 77.9397L10.1397 82.3097L6.13969 92.9497L22.9097 86.9697C26.6897 85.6197 29.1497 81.9497 28.9497 77.9397L27.4397 75.4197H27.4297Z" fill="#263238"/>
<path d="M442.665 9.82812H328.745C326.016 9.82812 323.805 12.0398 323.805 14.7681V121.758C323.805 124.486 326.016 126.698 328.745 126.698H442.665C445.393 126.698 447.605 124.486 447.605 121.758V14.7681C447.605 12.0398 445.393 9.82812 442.665 9.82812Z" fill="#FAFAFA"/>
<path d="M442.663 126.699C442.663 126.699 443.083 126.709 443.863 126.519C444.623 126.329 445.803 125.809 446.703 124.509C447.123 123.859 447.483 123.029 447.523 122.069C447.553 121.109 447.523 120.039 447.523 118.889C447.523 116.589 447.513 113.929 447.503 110.939C447.483 98.9689 447.453 81.6589 447.423 60.2689C447.423 49.5689 447.403 37.8589 447.393 25.2789C447.393 22.1389 447.393 18.9389 447.393 15.6889C447.393 14.8689 447.423 14.0789 447.163 13.3389C446.913 12.5989 446.503 11.9089 445.923 11.3689C445.353 10.8289 444.643 10.4189 443.873 10.2289C443.113 10.0089 442.293 10.0789 441.443 10.0689C434.743 10.0689 427.853 10.0689 420.773 10.0789C392.493 10.0789 361.393 10.0889 328.753 10.0989C326.803 10.0689 324.943 11.3989 324.333 13.2289C323.983 14.1289 324.083 15.1289 324.063 16.1489V19.1789C324.063 23.2089 324.063 27.2089 324.063 31.1889C324.063 39.1389 324.063 46.9689 324.063 54.6689C324.063 70.0589 324.053 84.9089 324.043 99.0489C324.043 106.119 324.043 113.019 324.033 119.719C324.033 120.549 324.013 121.409 324.053 122.199C324.123 122.989 324.403 123.749 324.843 124.409C325.733 125.719 327.273 126.519 328.843 126.479C332.093 126.479 335.293 126.479 338.433 126.479C351.013 126.489 362.723 126.499 373.423 126.509C394.813 126.539 412.113 126.569 424.093 126.589C430.063 126.609 434.713 126.629 437.863 126.639C439.433 126.649 440.623 126.659 441.443 126.669C442.253 126.669 442.663 126.699 442.663 126.699C442.663 126.699 442.253 126.719 441.443 126.729C440.623 126.729 439.433 126.739 437.863 126.759C434.703 126.769 430.063 126.789 424.093 126.809C412.123 126.829 394.813 126.859 373.423 126.889C362.723 126.889 351.013 126.909 338.433 126.919C335.293 126.919 332.093 126.919 328.843 126.919C327.143 126.959 325.433 126.089 324.473 124.659C323.993 123.939 323.683 123.109 323.603 122.239C323.553 121.369 323.593 120.559 323.573 119.719C323.573 113.019 323.573 106.119 323.563 99.0489C323.563 84.9089 323.563 70.0589 323.543 54.6689C323.543 46.9689 323.543 39.1389 323.543 31.1889C323.543 27.2189 323.543 23.2089 323.543 19.1789V16.1489V14.6289C323.543 14.0989 323.663 13.5689 323.833 13.0589C324.513 11.0189 326.573 9.53892 328.743 9.57892C361.383 9.57892 392.473 9.58892 420.763 9.59892C427.833 9.59892 434.733 9.59892 441.433 9.60892H442.683C443.113 9.62892 443.553 9.65892 443.973 9.78892C444.823 9.99892 445.593 10.4489 446.213 11.0389C446.843 11.6289 447.303 12.3889 447.573 13.1989C447.853 14.0189 447.823 14.8989 447.823 15.6889C447.823 18.9389 447.823 22.1389 447.823 25.2789C447.813 37.8589 447.803 49.5689 447.793 60.2689C447.763 81.6589 447.733 98.9589 447.713 110.939C447.713 113.929 447.693 116.589 447.693 118.889C447.683 120.039 447.693 121.099 447.663 122.079C447.613 123.069 447.243 123.919 446.803 124.569C445.873 125.879 444.663 126.389 443.893 126.569C443.103 126.749 442.683 126.699 442.683 126.699H442.663Z" fill="#263238"/>
<path d="M352.072 56.6191H345.402V113.959H352.072V56.6191Z" fill="#016A70"/>
<path d="M382.4 51.9688H375.73V113.969H382.4V51.9688Z" fill="#016A70"/>
<path d="M413.822 44.0996H407.152V113.97H413.822V44.0996Z" fill="#016A70"/>
<path d="M399.061 86.0488H392.391V113.969H399.061V86.0488Z" fill="#263238"/>
<path d="M359.85 50.4805H353.18V113.97H359.85V50.4805Z" fill="#455A64"/>
<path d="M390.721 37.1797H384.051V113.97H390.721V37.1797Z" fill="#455A64"/>
<path d="M431.029 37.1797H424.359V113.97H431.029V37.1797Z" fill="#263238"/>
<path d="M422.74 22.0195H416.07V113.97H422.74V22.0195Z" fill="#455A64"/>
<path d="M368.01 73.6699H361.34V113.96H368.01V73.6699Z" fill="#263238"/>
<path d="M440.593 117.449C440.593 117.589 416.783 117.709 387.413 117.709C358.043 117.709 334.223 117.589 334.223 117.449C334.223 117.309 358.033 117.189 387.413 117.189C416.793 117.189 440.593 117.309 440.593 117.449Z" fill="#263238"/>
<path d="M335.191 103.77H331.121V105.3H335.191V103.77Z" fill="#263238"/>
<path d="M335.191 83.3594H331.121V84.8894H335.191V83.3594Z" fill="#263238"/>
<path d="M335.191 44.959H331.121V46.489H335.191V44.959Z" fill="#263238"/>
<path d="M335.191 25.6602H331.121V27.1902H335.191V25.6602Z" fill="#263238"/>
<path d="M335.402 64.1602H331.332V65.6902H335.402V64.1602Z" fill="#263238"/>
<path d="M341.643 52.5488H111.293V231.819H341.643V52.5488Z" fill="white"/>
<path d="M341.641 231.819C341.641 230.029 341.551 160.729 341.421 52.5488L341.641 52.7688C276.091 52.7788 196.751 52.7988 111.311 52.8188H111.291L111.551 52.5588C111.551 117.179 111.531 178.299 111.521 231.829L111.291 231.599C247.991 231.739 339.581 231.829 341.641 231.829C339.591 231.829 247.991 231.929 111.291 232.059H111.061V231.829C111.061 178.299 111.041 117.179 111.031 52.5588V52.2988H111.311C196.751 52.3188 276.091 52.3288 341.641 52.3488H341.861V52.5688C341.731 160.759 341.651 230.059 341.641 231.839V231.819Z" fill="#263238"/>
<path d="M179.362 209.859C179.222 209.859 179.102 191.769 179.102 169.459C179.102 147.149 179.222 129.059 179.362 129.059C179.502 129.059 179.622 147.149 179.622 169.459C179.622 191.769 179.502 209.859 179.362 209.859Z" fill="#263238"/>
<path d="M272.182 209.859C272.042 209.859 271.922 191.769 271.922 169.459C271.922 147.149 272.042 129.059 272.182 129.059C272.322 129.059 272.442 147.149 272.442 169.459C272.442 191.769 272.322 209.859 272.182 209.859Z" fill="#263238"/>
<path d="M211.049 209.859C210.909 209.859 210.789 186.729 210.789 158.209C210.789 129.689 210.909 106.559 211.049 106.559C211.189 106.559 211.309 129.679 211.309 158.209C211.309 186.739 211.189 209.859 211.049 209.859Z" fill="#263238"/>
<path d="M146.819 209.859C146.679 209.859 146.559 186.729 146.559 158.209C146.559 129.689 146.679 106.559 146.819 106.559C146.959 106.559 147.079 129.679 147.079 158.209C147.079 186.739 146.959 209.859 146.819 209.859Z" fill="#263238"/>
<path d="M308.6 209.859C308.46 209.859 308.34 186.729 308.34 158.209C308.34 129.689 308.46 106.559 308.6 106.559C308.74 106.559 308.86 129.679 308.86 158.209C308.86 186.739 308.74 209.859 308.6 209.859Z" fill="#263238"/>
<path d="M238.83 209.858C238.69 209.858 238.57 183.158 238.57 150.228C238.57 117.298 238.69 90.5879 238.83 90.5879C238.97 90.5879 239.09 117.288 239.09 150.228C239.09 183.168 238.97 209.858 238.83 209.858Z" fill="#263238"/>
<path d="M180.122 129.057C180.122 129.477 179.782 129.817 179.362 129.817C178.942 129.817 178.602 129.477 178.602 129.057C178.602 128.637 178.942 128.297 179.362 128.297C179.782 128.297 180.122 128.637 180.122 129.057Z" fill="#263238"/>
<path d="M211.809 106.557C211.809 106.977 211.469 107.317 211.049 107.317C210.629 107.317 210.289 106.977 210.289 106.557C210.289 106.137 210.629 105.797 211.049 105.797C211.469 105.797 211.809 106.137 211.809 106.557Z" fill="#263238"/>
<path d="M211.052 109.257C209.562 109.257 208.352 108.047 208.352 106.557C208.352 105.067 209.562 103.857 211.052 103.857C212.542 103.857 213.752 105.067 213.752 106.557C213.752 108.047 212.542 109.257 211.052 109.257ZM211.052 104.117C209.702 104.117 208.602 105.217 208.602 106.567C208.602 107.917 209.702 109.017 211.052 109.017C212.402 109.017 213.502 107.917 213.502 106.567C213.502 105.217 212.402 104.117 211.052 104.117Z" fill="#016A70"/>
<path d="M238.83 91.3481C239.25 91.3481 239.59 91.0079 239.59 90.5881C239.59 90.1684 239.25 89.8281 238.83 89.8281C238.411 89.8281 238.07 90.1684 238.07 90.5881C238.07 91.0079 238.411 91.3481 238.83 91.3481Z" fill="#263238"/>
<path d="M272.93 129.819C272.93 130.239 272.59 130.579 272.17 130.579C271.75 130.579 271.41 130.239 271.41 129.819C271.41 129.399 271.75 129.059 272.17 129.059C272.59 129.059 272.93 129.399 272.93 129.819Z" fill="#263238"/>
<path d="M309.379 106.557C309.379 106.977 309.039 107.317 308.619 107.317C308.199 107.317 307.859 106.977 307.859 106.557C307.859 106.137 308.199 105.797 308.619 105.797C309.039 105.797 309.379 106.137 309.379 106.557Z" fill="#263238"/>
<path d="M147.579 107.319C147.579 107.739 147.239 108.079 146.819 108.079C146.399 108.079 146.059 107.739 146.059 107.319C146.059 106.899 146.399 106.559 146.819 106.559C147.239 106.559 147.579 106.899 147.579 107.319Z" fill="#263238"/>
<path d="M315.78 143.117C315.8 143.207 314.95 143.317 313.48 143.947C312.02 144.587 310.03 145.897 308.01 148.157C305.96 150.397 303.9 153.517 301.31 157.037C300 158.777 298.55 160.637 296.73 162.377C295.84 163.257 294.82 164.077 293.74 164.857C292.63 165.597 291.44 166.297 290.13 166.837C287.53 167.917 284.54 168.447 281.48 168.307C279.96 168.237 278.4 168.127 276.83 167.727C275.26 167.387 273.68 166.727 272.3 165.737C270.91 164.757 269.73 163.467 268.76 162.057C267.79 160.657 266.92 159.177 266.08 157.677C264.41 154.657 262.68 151.647 260.72 148.597C258.78 145.507 256.98 142.257 254.99 139.067C252.99 135.887 250.78 132.737 248.02 130.077C246.59 128.827 245.1 127.577 243.36 126.767C242.54 126.267 241.59 126.047 240.7 125.677C240.24 125.557 239.76 125.477 239.29 125.367L238.58 125.217C238.34 125.167 238.1 125.177 237.86 125.157C233.98 124.827 229.92 125.617 226.41 127.587C222.9 129.587 220.06 132.567 217.66 135.757C215.25 138.957 213.3 142.437 211.36 145.867C207.55 152.767 203.35 159.337 197.8 164.267C195.01 166.677 191.84 168.657 188.36 169.517C186.64 170.007 184.87 170.107 183.14 170.087C181.41 170.007 179.74 169.657 178.15 169.157C174.99 168.117 172.26 166.457 169.77 164.767C167.29 163.057 165.03 161.287 162.82 159.687C160.61 158.077 158.47 156.677 156.25 155.687C154.05 154.687 151.83 154.047 149.72 153.817C147.61 153.587 145.61 153.707 143.85 154.177C143.4 154.247 143 154.457 142.58 154.577C142.18 154.737 141.75 154.827 141.39 155.037C140.66 155.437 139.91 155.717 139.31 156.177C138.02 156.967 137.05 157.897 136.17 158.667C135.4 159.537 134.67 160.217 134.19 160.867C133.22 162.137 132.68 162.797 132.64 162.777C132.59 162.747 133.04 162.027 133.94 160.677C134.39 159.997 135.08 159.267 135.84 158.347C136.7 157.527 137.67 156.537 138.98 155.677C139.59 155.177 140.36 154.857 141.11 154.427C141.48 154.197 141.92 154.087 142.34 153.907C142.77 153.767 143.19 153.547 143.66 153.447C145.49 152.907 147.6 152.737 149.81 152.937C152.03 153.147 154.35 153.767 156.65 154.767C158.96 155.757 161.22 157.187 163.46 158.777C165.71 160.357 167.99 162.097 170.45 163.757C172.91 165.397 175.57 166.967 178.55 167.917C180.04 168.367 181.6 168.687 183.2 168.747C184.79 168.747 186.43 168.647 188.01 168.187C191.22 167.377 194.19 165.507 196.85 163.177C202.15 158.427 206.27 151.977 210.03 145.117C211.96 141.677 213.93 138.137 216.42 134.827C218.9 131.537 221.86 128.387 225.64 126.227C229.43 124.097 233.8 123.237 238.02 123.607C238.28 123.637 238.55 123.627 238.81 123.677L239.59 123.847C240.11 123.967 240.63 124.057 241.14 124.197C242.12 124.587 243.16 124.847 244.06 125.397C245.96 126.287 247.56 127.627 249.07 128.967C251.99 131.787 254.24 135.047 256.26 138.277C258.27 141.517 260.05 144.777 261.95 147.827C263.89 150.877 265.66 153.997 267.29 156.997C268.95 159.957 270.57 162.907 273.06 164.677C274.28 165.567 275.68 166.177 277.14 166.507C278.58 166.887 280.08 167.007 281.54 167.097C284.45 167.257 287.26 166.797 289.72 165.807C290.95 165.317 292.09 164.667 293.15 163.977C294.19 163.247 295.17 162.487 296.05 161.647C297.83 159.997 299.28 158.197 300.62 156.497C303.25 153.067 305.41 149.957 307.57 147.727C309.71 145.477 311.84 144.197 313.37 143.637C314.15 143.377 314.74 143.207 315.16 143.167C315.57 143.097 315.78 143.077 315.79 143.107L315.78 143.117Z" fill="#016A70"/>
<path d="M183.349 76.0977H146.059V78.1677H183.349V76.0977Z" fill="#263238"/>
<path d="M164.489 80.957H146.059V83.027H164.489V80.957Z" fill="#263238"/>
<path d="M341.643 47.3184H111.293V61.7184H341.643V47.3184Z" fill="#263238"/>
</g>
<defs>
<clipPath id="clip0_6494_7478">
<rect width="447.64" height="231.12" fill="white" transform="translate(0.179688 0.939453)"/>
</clipPath>
</defs>
</svg>
