<svg width="25" height="25" viewBox="0 0 25 25" fill="none" xmlns="http://www.w3.org/2000/svg">
<path d="M9.5 15H13.5M9.5 10H17.5" stroke="#212838" stroke-width="1.5" stroke-linecap="round"/>
<path d="M4.5 10.5C4.5 6.72876 4.5 4.84315 5.67157 3.67157C6.84315 2.5 8.72876 2.5 12.5 2.5H14C17.7712 2.5 19.6569 2.5 20.8284 3.67157C22 4.84315 22 6.72876 22 10.5V14.5C22 18.2712 22 20.1569 20.8284 21.3284C19.6569 22.5 17.7712 22.5 14 22.5H12.5C8.72876 22.5 6.84315 22.5 5.67157 21.3284C4.5 20.1569 4.5 18.2712 4.5 14.5V10.5Z" stroke="#212838" stroke-width="1.5"/>
<path d="M5.5 6.5H3M5.5 12.5H3M5.5 18.5H3" stroke="#212838" stroke-width="1.5" stroke-linecap="round" stroke-linejoin="round"/>
</svg>
