<svg width="1375" height="532" viewBox="0 0 1375 532" fill="none" xmlns="http://www.w3.org/2000/svg">
<g opacity="0.1">
<path d="M410.961 121.328C410.65 127.203 402.986 135.035 405.351 140.415C409.715 150.334 407.185 162.211 401.538 171.525C395.891 180.84 387.44 187.995 379.135 194.913C379.554 180.45 378.292 165.988 375.376 151.816C374.46 147.388 372.956 142.447 368.905 140.434C363.643 137.835 356.97 141.586 351.58 139.281C345.841 136.792 344.686 128.959 339.846 125.007C335.465 121.438 329.03 121.822 323.658 123.616C318.286 125.409 313.355 128.429 307.836 129.655C302.318 130.881 295.663 129.783 292.601 125.025C290.768 122.097 292.07 123.89 290.273 120.907C290.273 120.907 279.511 121.273 275.808 108.775C275.808 108.775 270.748 94.8848 281.95 88.7543C281.95 88.7543 284.498 63.6467 309.78 74.9378C317.113 78.1952 325.656 67.7276 332.751 71.2778C338.655 74.2607 340.396 82.4591 346.3 85.4603C353.083 88.9007 360.966 83.7767 368.556 83.4656C373.419 83.4656 378.082 85.3936 381.52 88.8255C384.958 92.2575 386.89 96.9122 386.89 101.766C386.89 101.766 388.081 96.7514 396.313 98.9474C404.545 101.143 411.548 109.873 410.961 121.328Z" fill="#263238"/>
<path d="M400.236 161.734C400.395 158.894 399.866 156.057 398.696 153.463C397.633 151.322 393.655 146.454 389.291 146.143L389.933 120.285C389.981 117.719 389.068 115.228 387.373 113.298C385.677 111.369 383.321 110.141 380.766 109.854L330.001 104.51C325.852 104.073 321.657 104.477 317.668 105.701C313.68 106.924 309.98 108.94 306.793 111.627C303.605 114.315 300.995 117.619 299.121 121.339C297.246 125.06 296.144 129.121 295.883 133.278C294.655 152.767 293.921 176.612 296.231 191.143C300.888 220.423 323.328 224.083 323.328 224.083L322.778 244.505C321.916 266.264 338.233 279.367 355.063 279.367C371.893 279.367 387.44 264.855 386.945 243.316L388.595 177.436C391.438 177.174 394.083 175.87 396.02 173.776C398.811 170.388 400.305 166.12 400.236 161.734Z" fill="#FFBE9D"/>
<path d="M307.141 149.144C307.135 150.128 307.516 151.076 308.201 151.783C308.886 152.491 309.822 152.903 310.807 152.932C311.768 152.988 312.712 152.664 313.436 152.03C314.16 151.397 314.605 150.505 314.676 149.547C314.693 149.055 314.611 148.566 314.434 148.107C314.258 147.648 313.99 147.229 313.648 146.875C313.306 146.522 312.896 146.241 312.442 146.049C311.989 145.857 311.502 145.758 311.009 145.759C310.048 145.703 309.104 146.027 308.38 146.66C307.656 147.294 307.211 148.186 307.141 149.144Z" fill="#263238"/>
<path d="M300.978 145.686C301.436 146.18 304.278 144.075 308.311 144.075C312.344 144.075 315.314 146.107 315.754 145.613C315.956 145.393 315.479 144.515 314.196 143.581C312.448 142.37 310.366 141.73 308.238 141.751C306.142 141.718 304.091 142.36 302.389 143.581C301.161 144.588 300.666 145.466 300.978 145.686Z" fill="#263238"/>
<path d="M346.153 149.895C346.143 150.88 346.522 151.83 347.208 152.539C347.894 153.248 348.832 153.659 349.819 153.683C350.78 153.738 351.724 153.414 352.448 152.781C353.172 152.147 353.617 151.255 353.688 150.297C353.697 149.311 353.318 148.362 352.632 147.653C351.946 146.944 351.008 146.533 350.021 146.509C349.06 146.454 348.116 146.778 347.392 147.411C346.668 148.044 346.223 148.936 346.153 149.895Z" fill="#263238"/>
<path d="M340.708 146.436C341.167 146.93 344.008 144.825 348.042 144.844C352.075 144.862 355.045 146.857 355.485 146.362C355.687 146.143 355.228 145.264 353.927 144.331C352.179 143.119 350.096 142.48 347.968 142.501C345.874 142.477 343.826 143.118 342.12 144.331C340.892 145.338 340.47 146.216 340.708 146.436Z" fill="#263238"/>
<path d="M326.022 176.356C323.89 175.698 321.687 175.299 319.459 175.167C318.432 175.075 317.461 174.856 317.277 174.16C317.2 173.095 317.442 172.031 317.974 171.104L321.017 163.29C325.271 152.109 328.351 142.922 327.874 142.758C327.397 142.593 323.621 151.505 319.386 162.686C318.359 165.431 317.387 168.067 316.471 170.574C315.818 171.816 315.624 173.247 315.921 174.618C316.073 174.98 316.305 175.304 316.601 175.564C316.896 175.824 317.246 176.013 317.626 176.119C318.224 176.281 318.84 176.367 319.459 176.375C321.638 176.653 323.845 176.647 326.022 176.356Z" fill="#263238"/>
<path d="M323.234 224.101C337.029 224.307 350.61 220.69 362.468 213.652C362.468 213.652 352.311 235.612 322.996 232.922L323.234 224.101Z" fill="#EB996E"/>
<path d="M338.875 139.372C339.278 140.47 343.312 139.958 348.042 140.525C352.772 141.092 356.622 142.355 357.208 141.403C357.483 140.927 356.823 139.903 355.283 138.841C353.225 137.516 350.882 136.694 348.445 136.444C346.023 136.154 343.566 136.442 341.277 137.286C339.59 137.999 338.71 138.86 338.875 139.372Z" fill="#263238"/>
<path d="M300.318 136.298C301.033 137.213 303.801 136.298 307.156 136.298C310.511 136.298 313.335 136.902 313.995 135.95C314.288 135.474 313.83 134.559 312.601 133.699C310.938 132.667 309.006 132.149 307.049 132.211C305.091 132.272 303.196 132.911 301.601 134.047C300.391 134.907 300.006 135.84 300.318 136.298Z" fill="#263238"/>
<path d="M326.922 199.195C326.922 199.103 327.197 198.609 328.022 198.097C329.131 197.441 330.399 197.099 331.689 197.108C332.974 197.093 334.24 197.421 335.355 198.06C336.18 198.572 336.547 199.048 336.474 199.14C334.953 198.572 333.361 198.215 331.744 198.078C330.089 198.202 328.463 198.579 326.922 199.195Z" fill="#EB996E"/>
<path d="M386.598 169.512C387.555 169.122 388.486 168.67 389.384 168.158C390.389 167.501 391.221 166.613 391.811 165.568C392.402 164.524 392.732 163.354 392.776 162.155C392.796 160.95 392.531 159.756 392.002 158.672C391.473 157.588 390.696 156.643 389.733 155.915C388.902 155.342 387.947 154.972 386.946 154.835C386.854 154.726 388.303 154.232 390.118 155.348C391.26 156.076 392.197 157.083 392.839 158.275C393.481 159.467 393.806 160.803 393.784 162.155C393.761 163.656 393.289 165.116 392.428 166.346C391.744 167.338 390.841 168.158 389.788 168.743C388.857 169.385 387.72 169.659 386.598 169.512Z" fill="#EB996E"/>
<path d="M290.272 97.5382C285.542 110.165 296.781 119.315 305.544 121.328C317.791 124.183 330.807 116.46 339.186 119.736C345.437 122.188 351.341 127.056 357.977 126.05C361.204 125.574 364.394 123.725 367.529 124.567C371.544 125.665 373.176 130.533 373.029 134.687C372.919 139.811 371.196 144.899 371.837 149.986C372.479 155.073 377.026 160.326 381.994 158.971C384.329 158.192 386.373 156.726 387.858 154.767C389.343 152.807 390.201 150.446 390.317 147.991C390.904 140.946 389.602 132.564 389.951 125.501C390.262 119.279 390.281 112.434 386.284 107.622C382.287 102.809 375.541 101.509 369.326 100.667C343.114 97.0647 316.645 95.669 290.199 96.4951" fill="#263238"/>
<path d="M274.853 100.228C274.695 99.8064 274.608 99.3611 274.596 98.9107C274.529 97.6034 274.794 96.3003 275.366 95.1226C276.273 93.231 277.846 91.7391 279.785 90.9319C281.011 90.4657 282.336 90.3208 283.635 90.511C285.01 90.6391 286.385 91.0051 287.833 91.0783C289.335 91.1618 290.832 90.8327 292.16 90.1267C293.609 89.32 294.957 88.3431 296.175 87.217C297.495 86.0824 298.833 84.838 300.373 83.7217C301.976 82.5532 303.816 81.7475 305.763 81.361C309.97 80.7294 314.268 81.4606 318.028 83.4472C321.933 85.6 325.575 88.1977 328.881 91.1881C332.093 94.1718 335.748 96.641 339.716 98.5081C341.598 99.2944 343.643 99.6085 345.675 99.4231C347.599 99.1317 349.46 98.5127 351.175 97.5931C354.392 95.6666 357.81 94.0957 361.368 92.9083C364.568 91.997 367.943 91.8901 371.195 92.5972C373.875 93.2033 376.34 94.5254 378.326 96.4219C379.809 97.8557 380.965 99.5906 381.718 101.509C382.186 102.719 382.441 104.001 382.47 105.297C382.494 105.632 382.494 105.969 382.47 106.304C382.47 106.524 382.47 106.633 382.47 106.633C382.446 104.928 382.111 103.241 381.48 101.656C380.697 99.8179 379.535 98.1654 378.07 96.8062C376.128 95.0239 373.74 93.7974 371.158 93.256C368.019 92.6201 364.772 92.7583 361.698 93.6586C358.196 94.87 354.834 96.4528 351.67 98.38C349.839 99.3353 347.852 99.9551 345.803 100.21C343.626 100.429 341.428 100.108 339.405 99.2767C335.347 97.3836 331.606 94.8776 328.313 91.8469C325.061 88.9036 321.481 86.3431 317.643 84.2158C314.068 82.3084 309.979 81.5843 305.965 82.1479C302.133 82.7884 299.365 85.4785 296.798 87.7477C295.521 88.8937 294.112 89.8829 292.6 90.694C291.147 91.4417 289.519 91.7832 287.888 91.6822C286.366 91.5724 284.991 91.1881 283.671 91.0234C282.441 90.8274 281.18 90.9406 280.005 91.3528C278.164 92.0883 276.648 93.4584 275.733 95.2141C275.138 96.3432 274.824 97.5984 274.816 98.8741C274.78 99.7708 275 100.21 274.853 100.228Z" fill="#455A64"/>
<path d="M289.026 120.578C288.606 120.695 288.163 120.695 287.743 120.578C287.125 120.456 286.54 120.204 286.028 119.837C285.515 119.471 285.088 119 284.773 118.455C283.888 116.676 283.642 114.648 284.076 112.709C284.508 110.146 285.538 107.72 287.083 105.627C288.953 103.058 291.552 101.107 294.544 100.027C297.978 98.7541 301.738 98.6575 305.233 99.7527C308.948 101.137 312.42 103.101 315.518 105.572C318.74 108.193 322.394 110.237 326.316 111.611C330.323 112.627 334.544 112.397 338.416 110.952C342.077 109.644 345.597 107.97 348.921 105.956C351.972 104.127 355.124 102.471 358.363 100.997C361.211 99.7028 364.263 98.9162 367.383 98.673C369.653 98.4858 371.937 98.7625 374.096 99.4862C376.256 100.21 378.244 101.365 379.941 102.882C380.821 103.744 381.552 104.746 382.104 105.847C382.301 106.229 382.449 106.635 382.544 107.054C381.836 105.597 380.874 104.277 379.703 103.157C378.012 101.743 376.058 100.678 373.953 100.021C371.848 99.3647 369.634 99.1305 367.438 99.3318C364.399 99.6157 361.434 100.427 358.674 101.729C355.477 103.215 352.367 104.883 349.361 106.725C345.992 108.781 342.424 110.492 338.709 111.831C334.657 113.347 330.236 113.59 326.041 112.526C322.047 111.108 318.326 109.016 315.041 106.341C312.032 103.915 308.661 101.976 305.049 100.595C301.731 99.5363 298.157 99.5941 294.874 100.759C292.014 101.777 289.516 103.609 287.688 106.03C286.168 108.02 285.138 110.34 284.681 112.801C284.212 114.633 284.387 116.571 285.176 118.291C285.447 118.816 285.822 119.28 286.279 119.654C286.736 120.029 287.266 120.306 287.834 120.468C288.228 120.539 288.626 120.576 289.026 120.578Z" fill="#455A64"/>
<path d="M401.301 169.347C401.301 169.347 401.961 168.469 402.932 166.785C404.265 164.382 405.012 161.699 405.114 158.953C405.197 157.097 404.961 155.24 404.417 153.463C403.744 151.407 402.755 149.469 401.484 147.717C400.201 145.887 398.679 143.874 397.341 141.678C395.82 139.425 394.986 136.781 394.939 134.065C395.2 131.386 396.038 128.796 397.396 126.471C398.567 124.404 399.269 122.104 399.449 119.736C399.499 117.737 399.027 115.759 398.079 113.997C397.131 112.235 395.739 110.751 394.041 109.689C391.673 108.292 388.896 107.749 386.176 108.152C385.184 108.33 384.204 108.568 383.242 108.866C383.449 108.701 383.677 108.566 383.921 108.463C384.627 108.159 385.365 107.932 386.121 107.786C388.94 107.221 391.869 107.688 394.371 109.104C396.217 110.196 397.742 111.757 398.788 113.627C399.835 115.498 400.366 117.612 400.329 119.754C400.163 122.252 399.45 124.682 398.239 126.873C396.95 129.082 396.15 131.54 395.892 134.083C395.937 136.624 396.721 139.097 398.147 141.202C399.431 143.325 400.934 145.265 402.217 147.223C403.515 149.063 404.517 151.095 405.187 153.243C405.729 155.133 405.934 157.103 405.792 159.063C405.635 161.853 404.791 164.562 403.336 166.95C402.937 167.603 402.476 168.215 401.961 168.78C401.502 169.183 401.319 169.366 401.301 169.347Z" fill="#455A64"/>
<path d="M324.499 147.991C324.329 146.459 324.072 144.938 323.729 143.435C323.08 140.929 321.913 138.586 320.304 136.557C318.695 134.528 316.679 132.856 314.385 131.65C312.091 130.444 309.57 129.73 306.983 129.553C304.396 129.377 301.801 129.741 299.364 130.625C295.959 131.897 292.998 134.128 290.839 137.048C288.523 140.19 287.274 143.989 287.274 147.891C287.274 151.792 288.523 155.591 290.839 158.733C291.909 160.244 293.223 161.567 294.726 162.65C296.132 163.72 297.697 164.566 299.364 165.157C302.262 166.222 305.381 166.546 308.436 166.098C311.491 165.651 314.385 164.446 316.854 162.595C320.215 160.068 322.635 156.494 323.729 152.438C324.069 150.941 324.327 149.426 324.499 147.9C324.614 149.455 324.478 151.018 324.096 152.53C323.12 156.816 320.667 160.625 317.166 163.29C314.62 165.255 311.618 166.547 308.439 167.046C305.26 167.545 302.006 167.235 298.979 166.145C297.221 165.54 295.569 164.663 294.084 163.546C292.514 162.41 291.134 161.033 289.996 159.465C287.543 156.168 286.219 152.171 286.219 148.064C286.219 143.958 287.543 139.96 289.996 136.664C292.263 133.595 295.388 131.265 298.979 129.966C302.222 128.808 305.716 128.536 309.099 129.179C312.689 129.877 316.002 131.59 318.645 134.114C321.287 136.638 323.147 139.867 324.004 143.416C324.41 144.906 324.577 146.45 324.499 147.991Z" fill="#263238"/>
<path d="M367.475 147.991C367.317 146.457 367.06 144.935 366.705 143.435C366.059 140.93 364.894 138.587 363.287 136.558C361.679 134.529 359.665 132.857 357.372 131.651C355.08 130.445 352.56 129.73 349.974 129.554C347.389 129.377 344.795 129.742 342.359 130.625C338.945 131.89 335.976 134.122 333.815 137.048C331.5 140.19 330.251 143.989 330.251 147.891C330.251 151.792 331.5 155.591 333.815 158.733C334.891 160.24 336.203 161.562 337.702 162.65C339.117 163.717 340.688 164.563 342.359 165.157C344.781 166.033 347.358 166.398 349.929 166.229C352.499 166.059 355.006 165.359 357.292 164.172C359.577 162.985 361.59 161.337 363.204 159.333C364.818 157.329 365.998 155.012 366.669 152.53C367.021 151.034 367.278 149.519 367.439 147.991C367.566 149.546 367.429 151.111 367.035 152.621C366.083 156.855 363.685 160.627 360.252 163.29C357.706 165.255 354.705 166.547 351.526 167.046C348.346 167.545 345.093 167.235 342.065 166.145C340.308 165.54 338.656 164.663 337.17 163.546C335.595 162.41 334.209 161.033 333.064 159.465C330.622 156.164 329.305 152.168 329.305 148.064C329.305 143.961 330.622 139.965 333.064 136.664C335.343 133.6 338.473 131.271 342.065 129.966C345.308 128.808 348.802 128.536 352.185 129.179C355.771 129.882 359.079 131.597 361.718 134.121C364.357 136.644 366.215 139.87 367.072 143.416C367.458 144.909 367.594 146.454 367.475 147.991Z" fill="#263238"/>
<path d="M330.806 144.844V145.027V144.697V145.063C329.796 145.288 328.761 145.386 327.726 145.356C325.893 145.356 324.371 145.137 324.371 144.88C324.371 144.624 325.874 144.405 327.726 144.405C328.761 144.365 329.797 144.463 330.806 144.697V145.063V144.734V144.917V144.844Z" fill="#263238"/>
<path d="M390.117 148.98C386.264 149.19 382.4 149.073 378.567 148.632C374.711 148.521 370.872 148.086 367.09 147.333C370.943 147.145 374.805 147.261 378.64 147.68C382.494 147.803 386.332 148.237 390.117 148.98Z" fill="#263238"/>
<path d="M342.834 175.35C343.175 176.296 343.22 177.324 342.962 178.296C342.569 180.731 341.297 182.937 339.385 184.499C337.473 186.06 335.054 186.868 332.585 186.769C331.575 186.831 330.571 186.582 329.707 186.056C329.707 185.909 330.844 186.202 332.585 186.056C334.85 185.978 337.027 185.161 338.782 183.729C340.538 182.298 341.774 180.332 342.302 178.132C342.834 176.466 342.724 175.35 342.834 175.35Z" fill="#263238"/>
<path d="M270.215 306.726C270.238 306.92 270.238 307.117 270.215 307.311V309.031C270.215 310.605 270.215 312.838 270.306 315.656C270.306 321.457 270.306 329.747 270.435 339.977C270.435 360.509 269.811 388.874 268.216 420.167C266.621 451.46 264.971 479.734 263.853 500.303C263.34 510.496 262.918 518.786 262.625 524.587C262.478 527.405 262.368 529.601 262.295 531.175C262.295 531.889 262.203 532.456 262.185 532.895C262.204 533.09 262.204 533.286 262.185 533.481C262.157 533.287 262.157 533.09 262.185 532.895C262.185 532.456 262.185 531.889 262.185 531.175C262.185 529.601 262.276 527.387 262.35 524.569C262.515 518.823 262.808 510.514 263.266 500.266C264.128 479.752 265.796 451.424 267.355 420.131C268.913 388.838 269.756 360.491 269.866 339.958C269.866 329.747 269.995 321.457 270.031 315.656C270.031 312.838 270.031 310.605 270.123 309.031V307.311C270.13 307.113 270.161 306.916 270.215 306.726Z" fill="#263238"/>
<path d="M447.333 275.213C437.47 263.848 418.201 262.183 409.658 268.35C401.115 274.517 396.366 284.985 395.505 295.471C394.643 305.957 397.338 316.479 401.335 326.197C407.77 341.788 417.285 354.415 431.493 370.483L468.16 418.465L397.485 487.346L426.818 533.481L486.896 485.169L536.58 432.611" fill="#016A70"/>
<path d="M191.785 423.15C192.932 422.31 194.225 421.69 195.598 421.32C198.848 420.226 202.276 419.76 205.7 419.948C209.131 420.135 212.496 420.967 215.618 422.4C216.971 422.905 218.216 423.663 219.285 424.632C219.285 424.76 217.818 423.955 215.435 423.022C212.336 421.803 209.062 421.087 205.737 420.899C202.414 420.736 199.086 421.095 195.873 421.961C193.325 422.638 191.858 423.296 191.785 423.15Z" fill="#263238"/>
<path d="M456.849 285.992C432.191 253.344 405.644 256.034 392.114 255.65V241.321C382.123 241.321 368.464 250.307 361.406 256.73L354.421 266.301C352.627 261.06 349.63 256.31 345.67 252.431C341.71 248.551 336.897 245.649 331.614 243.956C327.803 242.749 323.896 241.867 319.936 241.321V254.131C286.789 255.065 269.061 264.105 246.914 289.688C245.778 291.006 243.523 293.257 240.938 295.8L175.414 372.66C162.031 387.447 149.748 407.796 152.626 427.56C155.761 449.813 168.759 464.453 193.638 481.234L262.571 525.831L262.241 533.499H426.746C426.746 533.499 538.304 451.35 541.036 420.917C543.163 396.871 504.736 345.906 456.849 285.992ZM265.339 460.409L217.104 424.486L269.208 370.666L265.339 460.409ZM423.299 463.264L421.998 436.674L429.001 366.823C442.751 382.561 468.198 413.799 468.198 418.465L423.299 463.264Z" fill="#016A70"/>
<path d="M392.079 255.724C391.73 256.485 391.312 257.214 390.832 257.901C389.952 259.256 388.687 261.214 387.019 263.574C382.724 269.765 377.896 275.569 372.591 280.923C371.032 282.497 369.456 283.979 367.916 285.388L367.146 286.102V285.059C367.057 279.045 364.639 273.3 360.399 269.028C359.283 267.691 357.835 266.669 356.201 266.063C355.572 265.94 354.92 266.05 354.367 266.374C354.582 266.107 354.868 265.905 355.192 265.792C355.516 265.678 355.866 265.658 356.201 265.734C357.965 266.227 359.55 267.219 360.766 268.589C362.751 270.472 364.389 272.69 365.606 275.14C367.126 278.224 367.952 281.603 368.026 285.04L367.256 284.693C368.759 283.283 370.336 281.819 371.876 280.246C377.135 274.914 382.005 269.215 386.451 263.19L390.484 257.7C390.947 256.989 391.481 256.327 392.079 255.724Z" fill="#263238"/>
<path d="M319.898 254.205C320.435 254.719 320.914 255.29 321.328 255.906L324.995 260.719C328.057 264.819 332.2 270.528 336.747 276.86L339.717 280.996L338.892 281.124C339.779 278.167 341.009 275.323 342.558 272.651C343.839 270.482 345.666 268.684 347.857 267.436C349.302 266.601 350.936 266.147 352.605 266.118C353.228 266.055 353.857 266.143 354.438 266.374C354.438 266.374 353.815 266.374 352.605 266.374C351.023 266.534 349.499 267.053 348.15 267.893C346.116 269.173 344.429 270.933 343.237 273.017C341.762 275.656 340.581 278.448 339.717 281.344L339.423 282.204L338.892 281.472L335.922 277.336C331.375 271.004 327.305 265.24 324.39 261.049C323.052 259.054 321.915 257.389 320.998 256.053C320.566 255.479 320.197 254.859 319.898 254.205Z" fill="#263238"/>
<g opacity="0.1">
<path d="M354.383 266.374C357.13 269.379 359.194 272.941 360.431 276.818C361.669 280.694 362.051 284.791 361.551 288.828C361.203 291.5 360.891 295.069 363.384 296.057C365.126 296.734 367.051 295.544 368.463 294.373C379.159 285.77 387.959 275.054 394.313 262.897C394.928 261.941 395.258 260.831 395.266 259.695C395.252 259.131 395.022 258.595 394.622 258.196C394.223 257.798 393.686 257.568 393.121 257.554C392.368 257.763 391.717 258.237 391.288 258.89C383.661 267.674 375.228 276.805 367.601 285.571C367.945 280.692 366.432 275.863 363.366 272.047C360.341 268.387 357.041 264.599 354.438 266.374" fill="black"/>
</g>
<path d="M424.727 530.425C424.512 530.189 424.321 529.931 424.159 529.656C423.756 529.071 423.261 528.302 422.619 527.35L416.991 518.64C412.206 511.063 405.514 500.504 397.722 488.225L397.539 487.914L397.796 487.676L414.992 470.547L452.411 433.581C457.177 428.933 461.064 425.163 463.814 422.455L466.967 419.472C467.32 419.108 467.7 418.772 468.104 418.465C467.803 418.873 467.466 419.253 467.096 419.6C466.344 420.387 465.262 421.43 464.089 422.729L452.832 434.13L415.597 471.297C409.547 477.318 403.717 483.083 398.382 488.371V487.822C406.046 500.175 412.646 510.789 417.357 518.42C419.631 522.08 421.464 525.118 422.766 527.277C423.352 528.247 423.811 529.107 424.177 529.656C424.389 529.891 424.573 530.149 424.727 530.425Z" fill="#263238"/>
<path d="M404.508 274.28L404.233 274.628L403.389 275.616C402.601 276.458 401.556 277.775 400.236 279.495C396.608 284.434 394.202 290.159 393.214 296.203C392.046 305.214 393.464 314.371 397.303 322.61C399.389 327.529 402.1 332.161 405.369 336.39C408.834 340.8 412.501 345.211 416.259 349.95C431.054 368.561 443.759 385.892 453.109 398.336L464.109 413.104C465.374 414.787 466.364 416.141 467.098 417.13L467.849 418.191L468.088 418.557C468.088 418.557 467.959 418.466 467.776 418.246L466.951 417.239L463.834 413.232C461.139 409.81 457.289 404.832 452.559 398.592C443.099 386.257 430.284 368.982 415.526 350.408C411.859 345.741 408.193 341.258 404.636 336.921C401.332 332.616 398.596 327.905 396.496 322.903C392.632 314.51 391.263 305.185 392.554 296.039C393.973 288.254 397.733 281.086 403.334 275.488L404.251 274.573C404.379 274.371 404.489 274.262 404.508 274.28Z" fill="#263238"/>
<path d="M466.347 297.905C466.347 297.996 465.338 298.344 463.615 299.259C461.205 300.586 459.011 302.271 457.107 304.255C454.299 307.224 451.838 310.503 449.773 314.027C447.261 318.433 444.526 322.708 441.578 326.837C438.811 330.597 435.232 333.687 431.107 335.879C426.981 338.071 422.415 339.309 417.745 339.501C414.941 339.641 412.131 339.376 409.403 338.714C408.663 338.547 407.935 338.333 407.222 338.073C406.969 337.99 406.724 337.886 406.488 337.762C410.159 338.643 413.937 339.001 417.708 338.824C421.779 338.546 425.758 337.483 429.423 335.694C433.903 333.498 437.789 330.259 440.753 326.251C443.998 322.042 446.455 317.541 448.948 313.624C451.081 310.067 453.635 306.78 456.557 303.834C458.546 301.848 460.85 300.203 463.377 298.966C464.066 298.644 464.777 298.369 465.503 298.143C465.772 298.026 466.056 297.946 466.347 297.905Z" fill="#FAFAFA"/>
<path d="M422.622 458.817H422.182L420.953 458.524C420.403 458.378 419.725 458.286 418.918 458.158C417.996 458.005 417.065 457.901 416.132 457.847C410.147 457.573 404.161 458.341 398.44 460.116C394.465 461.258 390.575 462.677 386.798 464.362C382.728 466.192 378.512 468.424 373.965 470.565C369.215 472.894 364.255 474.769 359.152 476.165C356.425 476.867 353.638 477.309 350.828 477.483C347.923 477.621 345.012 477.412 342.157 476.861C336.58 475.6 331.256 473.41 326.408 470.382C321.678 467.564 317.443 464.362 313.392 461.397C305.38 455.395 297.717 450.417 290.438 448.258C287.187 447.25 283.813 446.696 280.41 446.611C277.845 446.562 275.285 446.863 272.802 447.507C270.692 448.1 268.651 448.916 266.715 449.941L267.063 449.685L268.163 449.026C269.605 448.247 271.13 447.633 272.71 447.196C275.221 446.486 277.818 446.129 280.428 446.135C283.88 446.163 287.311 446.675 290.622 447.654C298.065 449.758 305.857 454.772 313.905 460.738C317.975 463.703 322.21 466.85 326.885 469.632C331.642 472.601 336.867 474.748 342.34 475.982C345.116 476.528 347.948 476.731 350.773 476.586C353.521 476.429 356.247 476.006 358.913 475.323C363.963 473.954 368.873 472.116 373.58 469.833C378.127 467.711 382.362 465.478 386.413 463.703C390.231 462.03 394.164 460.636 398.183 459.53C403.978 457.793 410.04 457.117 416.077 457.536C418.307 457.657 420.51 458.088 422.622 458.817Z" fill="#FAFAFA"/>
<path d="M241.395 442.566C241.395 442.566 241.487 442.786 241.542 443.207C241.657 443.811 241.73 444.423 241.762 445.037C241.945 447.303 241.846 449.584 241.468 451.826C240.926 455.198 239.622 458.402 237.655 461.196C235.135 464.517 231.927 467.257 228.25 469.23C224.583 471.48 220.788 473.365 217.763 475.561C215.029 477.414 212.635 479.723 210.687 482.387C209.399 484.188 208.666 486.325 208.578 488.536C208.578 490.11 208.817 490.97 208.707 490.988C208.598 490.801 208.524 490.597 208.487 490.384C208.329 489.785 208.231 489.172 208.193 488.554C208.119 486.241 208.759 483.96 210.027 482.021C211.949 479.218 214.365 476.788 217.158 474.848C220.238 472.56 223.96 470.639 227.663 468.424C231.221 466.503 234.342 463.867 236.83 460.683C238.756 458.01 240.076 454.95 240.698 451.716C241.118 449.521 241.314 447.29 241.285 445.055C241.262 444.224 241.299 443.392 241.395 442.566Z" fill="#FAFAFA"/>
<path d="M518.064 366.823C514.301 367.454 510.642 368.599 507.192 370.227C503.5 372.026 500.184 374.51 497.421 377.547C495.805 379.349 494.414 381.34 493.277 383.476C492.067 385.69 491.242 388.197 490.051 390.668C488.959 393.156 487.31 395.36 485.229 397.109C483.272 398.703 481.051 399.941 478.666 400.769C474.652 402.096 470.415 402.619 466.199 402.307C463.384 402.137 460.58 401.808 457.802 401.318C456.779 401.184 455.767 400.97 454.777 400.678C455.81 400.681 456.84 400.773 457.857 400.952C459.837 401.154 462.679 401.538 466.217 401.63C470.341 401.838 474.466 401.261 478.372 399.928C480.748 399.16 482.937 397.905 484.8 396.245C486.663 394.584 488.157 392.554 489.189 390.284C490.344 387.868 491.187 385.343 492.452 383.055C493.656 380.874 495.128 378.851 496.834 377.034C499.691 373.916 503.136 371.391 506.972 369.605C509.531 368.392 512.246 367.542 515.039 367.079C515.798 366.955 516.563 366.869 517.331 366.823C517.573 366.783 517.821 366.783 518.064 366.823Z" fill="#FAFAFA"/>
<path d="M426.948 382.268L426.526 382.396L425.28 382.671C424.18 382.909 422.548 383.201 420.421 383.531C414.435 384.452 408.383 384.881 402.326 384.812C393.312 384.748 384.366 383.234 375.834 380.328C370.837 378.517 366.014 376.256 361.424 373.576C356.561 370.698 351.473 368.22 346.208 366.164C343.531 365.219 340.748 364.605 337.921 364.334C335.171 364.127 332.406 364.262 329.689 364.737C324.568 365.783 319.626 367.571 315.023 370.044C306.131 374.747 298.651 379.981 291.886 383.622C286.655 386.722 280.951 388.947 275.001 390.21C273.392 390.555 271.752 390.733 270.106 390.741H268.823C268.677 390.761 268.529 390.761 268.383 390.741H268.823L270.088 390.595C271.719 390.499 273.339 390.26 274.928 389.881C280.79 388.492 286.399 386.201 291.556 383.092C298.211 379.432 305.654 374.106 314.601 369.312C319.293 366.75 324.342 364.9 329.579 363.822C332.374 363.326 335.219 363.178 338.049 363.383C340.96 363.669 343.823 364.315 346.574 365.304C351.889 367.376 357.022 369.885 361.92 372.807C366.472 375.456 371.244 377.709 376.183 379.541C384.616 382.455 393.458 384.017 402.381 384.171C408.404 384.304 414.429 383.98 420.403 383.201C422.529 382.927 424.161 382.689 425.28 382.506L426.545 382.341C426.675 382.3 426.811 382.275 426.948 382.268Z" fill="#FAFAFA"/>
<path d="M247.739 392.846C247.918 391.91 247.88 390.946 247.629 390.027C247.115 388.842 246.324 387.797 245.322 386.979C244.321 386.161 243.138 385.594 241.873 385.324C240.278 384.848 238.463 384.574 236.519 384.135C234.365 383.737 232.343 382.813 230.634 381.445C228.843 379.832 227.45 377.828 226.564 375.589C225.662 373.21 224.957 370.762 224.456 368.269C223.98 365.843 223.281 363.466 222.366 361.168C221.486 359.052 220.333 357.059 218.938 355.239C216.583 352.125 213.557 349.579 210.083 347.791C207.773 346.584 205.305 345.709 202.749 345.192C200.916 344.826 199.871 344.753 199.871 344.662C200.125 344.611 200.387 344.611 200.641 344.662C201.366 344.684 202.088 344.752 202.804 344.863C205.475 345.233 208.069 346.03 210.486 347.224C214.08 348.994 217.217 351.568 219.653 354.745C221.143 356.603 222.376 358.653 223.319 360.839C224.269 363.206 224.993 365.657 225.483 368.159C225.969 370.582 226.649 372.963 227.518 375.278C228.346 377.368 229.637 379.245 231.294 380.768C232.885 382.073 234.774 382.966 236.794 383.366C238.628 383.842 240.461 384.153 242.166 384.684C243.507 385.005 244.749 385.65 245.781 386.563C246.814 387.476 247.606 388.628 248.088 389.918C248.274 390.644 248.274 391.405 248.088 392.132C248.025 392.392 247.906 392.636 247.739 392.846Z" fill="#FAFAFA"/>
<path d="M392.534 298.984C390.831 298.048 389.021 297.317 387.144 296.807C384.919 296.35 382.623 296.35 380.398 296.807C377.431 297.39 374.553 298.355 371.836 299.68C368.774 301.052 365.548 302.846 362.028 304.694C358.298 306.767 354.343 308.406 350.239 309.58C345.623 310.708 340.821 310.863 336.141 310.038C331.154 309.128 326.317 307.533 321.768 305.298C312.399 300.741 304.608 294.629 297.091 289.871C290.613 285.371 283.379 282.068 275.733 280.117C270.567 278.852 265.178 278.789 259.984 279.934C258.12 280.449 256.285 281.059 254.484 281.764C256.211 280.793 258.061 280.061 259.984 279.586C265.228 278.28 270.709 278.242 275.971 279.477C283.73 281.353 291.08 284.627 297.659 289.139C305.249 293.879 313.041 299.973 322.263 304.456C326.732 306.653 331.482 308.229 336.379 309.141C340.936 309.948 345.61 309.811 350.111 308.738C354.16 307.615 358.066 306.031 361.753 304.017C365.273 302.187 368.536 300.357 371.653 299.076C374.437 297.78 377.376 296.846 380.398 296.294C382.701 295.903 385.06 295.991 387.328 296.551C388.738 296.941 390.093 297.506 391.361 298.234C391.765 298.463 392.157 298.713 392.534 298.984Z" fill="#FAFAFA"/>
<path d="M382.179 531.321L387.276 533.865H416.609L422.531 529.034L401.191 493.788C398.569 494.941 387.056 496.734 383.334 498.034C380.124 499.159 376.745 499.728 373.343 499.717C369.55 499.801 365.759 499.488 362.031 498.784L361.224 498.528C360.726 498.314 360.19 498.202 359.648 498.198C356.476 497.924 353.964 501.236 355.743 503.853C357.521 506.47 366.193 509.965 377.266 509.654H377.798C387.514 509.654 378.604 517.779 372.829 522.611C371.809 523.432 371.018 524.501 370.53 525.716C370.042 526.93 369.874 528.249 370.043 529.546C370.076 530.013 370.209 530.467 370.434 530.877C370.658 531.288 370.969 531.645 371.344 531.925C373.801 533.481 382.179 531.321 382.179 531.321Z" fill="#FFBE9D"/>
<path d="M262.48 526.948C262.461 526.778 262.461 526.606 262.48 526.436C262.48 526.033 262.48 525.539 262.48 524.917C262.48 523.508 262.59 521.549 262.682 519.079C262.902 513.955 263.195 506.653 263.58 497.65C264.332 479.496 265.414 454.535 266.532 426.957C267.65 399.379 268.365 374.326 268.879 356.227C269.08 347.224 269.227 339.922 269.337 334.78C269.337 332.309 269.429 330.351 269.465 328.942C269.465 328.32 269.465 327.826 269.465 327.441C269.442 327.265 269.442 327.087 269.465 326.911C269.493 327.086 269.493 327.266 269.465 327.441C269.465 327.826 269.465 328.338 269.465 328.942C269.465 330.351 269.465 332.309 269.465 334.78C269.465 339.849 269.465 347.169 269.319 356.227C269.062 374.344 268.329 399.36 267.247 426.993C266.165 454.626 264.974 479.606 264.02 497.686C263.507 506.672 263.104 513.973 262.81 519.097C262.645 521.568 262.517 523.526 262.425 524.917L262.297 526.436C262.377 526.599 262.438 526.771 262.48 526.948Z" fill="#263238"/>
<path d="M342.284 530.425C342.256 530.2 342.256 529.972 342.284 529.748C342.284 529.253 342.192 528.595 342.119 527.753L341.587 520.049C341.367 516.718 341.092 512.619 340.945 507.861C340.799 503.103 340.45 497.704 340.414 491.72C340.377 485.736 340.157 479.166 340.249 472.121C340.249 468.607 340.249 464.966 340.249 461.141C340.249 457.316 340.414 453.528 340.505 449.575C340.964 433.746 341.789 416.361 343.072 398.134C345.639 361.662 348.902 328.74 350.992 304.895C352.019 293 352.825 283.375 353.449 276.64C353.724 273.365 353.962 270.784 354.109 268.973C354.2 268.131 354.255 267.472 354.31 266.978C354.365 266.484 354.402 266.301 354.402 266.301C354.427 266.526 354.427 266.753 354.402 266.978L354.31 268.991C354.182 270.821 354.017 273.383 353.815 276.677C353.394 283.356 352.642 293.019 351.67 304.95C349.745 328.74 346.592 361.68 344.025 398.189C342.742 416.489 341.899 433.782 341.385 449.594C341.385 453.546 341.184 457.408 341.092 461.159C341 464.911 341.092 468.479 340.964 472.139C340.854 479.166 340.964 485.718 340.964 491.702C340.964 497.686 341.239 503.103 341.349 507.842C341.459 512.582 341.66 516.7 341.825 520.03C341.99 523.361 342.1 525.923 342.192 527.735V529.748C342.247 529.969 342.277 530.196 342.284 530.425Z" fill="#263238"/>
<path d="M355.777 350.133C355.685 350.042 356.712 349.621 357.848 350.591C358.173 350.878 358.425 351.239 358.581 351.644C358.737 352.048 358.794 352.484 358.747 352.915C358.629 353.447 358.354 353.932 357.958 354.307C357.562 354.681 357.062 354.929 356.523 355.018C355.985 355.106 355.432 355.032 354.936 354.804C354.44 354.576 354.024 354.205 353.742 353.738C353.558 353.349 353.47 352.922 353.486 352.492C353.502 352.062 353.621 351.642 353.833 351.268C354.585 349.969 355.667 350.042 355.667 350.17C355.667 350.298 354.878 350.481 354.457 351.561C354.322 351.847 354.253 352.159 354.253 352.476C354.253 352.792 354.322 353.104 354.457 353.391C354.672 353.667 354.958 353.88 355.285 354.007C355.612 354.134 355.967 354.17 356.313 354.112C356.659 354.054 356.982 353.903 357.249 353.676C357.516 353.45 357.717 353.155 357.83 352.823C357.868 352.52 357.842 352.211 357.753 351.918C357.665 351.625 357.516 351.354 357.317 351.121C356.62 350.188 355.777 350.298 355.777 350.133Z" fill="#263238"/>
<path d="M350.627 432.3C350.536 432.209 351.581 431.769 352.717 432.758C353.038 433.044 353.285 433.403 353.438 433.804C353.591 434.205 353.646 434.637 353.597 435.064C353.503 435.606 353.236 436.103 352.837 436.482C352.437 436.861 351.926 437.101 351.379 437.168C350.84 437.275 350.282 437.211 349.782 436.985C349.282 436.758 348.866 436.381 348.592 435.905C348.414 435.511 348.331 435.08 348.35 434.648C348.369 434.216 348.49 433.794 348.702 433.416C349.454 432.117 350.536 432.209 350.536 432.319C350.536 432.428 349.747 432.648 349.326 433.709C349.186 433.994 349.114 434.307 349.114 434.624C349.114 434.941 349.186 435.254 349.326 435.539C349.517 435.851 349.797 436.098 350.13 436.249C350.463 436.401 350.834 436.449 351.195 436.388C351.556 436.327 351.89 436.159 352.155 435.907C352.42 435.655 352.603 435.329 352.681 434.972C352.723 434.671 352.699 434.364 352.61 434.074C352.522 433.783 352.371 433.515 352.167 433.288C351.489 432.3 350.627 432.428 350.627 432.3Z" fill="#263238"/>
<path d="M482.169 488.756C481.342 488.736 480.519 488.631 479.713 488.444C477.497 487.974 475.335 487.281 473.259 486.377C466.349 483.313 460.577 478.16 456.759 471.645C454.83 468.02 453.3 464.198 452.194 460.244C451.288 457.074 449.923 454.053 448.143 451.277C446.914 449.435 445.331 447.855 443.486 446.629C442.148 445.805 441.304 445.531 441.341 445.439C441.555 445.455 441.766 445.505 441.964 445.586C442.554 445.776 443.125 446.022 443.669 446.318C445.664 447.45 447.381 449.013 448.693 450.893C450.6 453.704 452.066 456.789 453.038 460.043C454.162 463.923 455.686 467.676 457.584 471.242C461.314 477.612 466.878 482.713 473.553 485.882C476.346 487.062 479.227 488.023 482.169 488.756Z" fill="#FAFAFA"/>
<path d="M669.976 533.81L638.809 443.518L653.219 356.886C657.418 333.517 659.764 312.966 653.476 301.199C636.664 269.851 616.369 267.033 588.649 259.841C582.929 258.358 539.424 256.894 534.639 258.011C496.891 262.238 472.728 282.222 459.473 314.741L445.099 372.569L425.354 432.959C423.702 436.468 421.281 439.561 418.269 442.01C415.258 444.458 411.733 446.2 407.956 447.105L331.836 473.072L332.478 487.95L331.836 508.08L433.219 489.03C453.533 485.223 474.194 477.739 480.024 458.176L490.933 425.931C496.268 439.583 502.079 452.101 502.079 452.101L494.746 533.407L669.976 533.81Z" fill="#455A64"/>
<path d="M643.868 373.392L614.901 470.071C612.69 477.442 608.688 484.153 603.25 489.606C597.812 495.059 591.108 499.086 583.734 501.327L463.174 533.389L447.188 491.848L556.161 451.405L582.909 354.598C582.909 354.598 589.088 300.467 638.129 303.248" fill="#455A64"/>
<path d="M638.111 303.248H636.644C635.672 303.248 634.242 303.138 632.354 303.248C626.833 303.405 621.381 304.513 616.239 306.524C612.522 307.976 609.024 309.935 605.844 312.343C602.075 315.238 598.735 318.651 595.926 322.481C589.205 332.019 584.85 343.014 583.221 354.561C575.887 381.499 566.721 414.475 556.582 451.423V451.643H556.381L447.334 492.287L447.609 491.683L450.451 499.003C454.942 510.715 459.379 522.244 463.577 533.169L463.009 532.876L566.592 505.426L578.271 502.315C580.104 501.803 582.102 501.327 583.972 500.778C585.808 500.202 587.608 499.517 589.362 498.729C599.412 494.189 607.498 486.203 612.151 476.22C613.536 473.129 614.676 469.935 615.561 466.667C617.492 460.274 619.325 454.174 621.061 448.367C628.119 425.053 633.784 406.277 637.689 393.467L642.217 378.644L643.409 374.819C643.684 373.959 643.849 373.52 643.849 373.52C643.849 373.52 643.739 373.978 643.501 374.838C643.262 375.698 642.877 377.015 642.382 378.699C641.374 382.121 639.907 387.117 638.019 393.577L621.666 448.605C619.942 454.449 618.109 460.549 616.166 466.905C615.287 470.211 614.146 473.441 612.756 476.567C611.278 479.817 609.433 482.887 607.256 485.717C602.597 491.677 596.574 496.434 589.692 499.589C587.9 500.391 586.063 501.094 584.192 501.693C582.359 502.242 580.397 502.718 578.472 503.249L566.794 506.36L463.229 533.956L462.826 534.066L462.679 533.682C458.481 522.702 454.026 511.209 449.534 499.516L446.692 492.196L446.527 491.756L446.967 491.592L555.959 451.185L555.684 451.478C565.932 414.567 575.081 381.59 582.542 354.689C584.208 343.045 588.646 331.969 595.486 322.39C598.33 318.525 601.72 315.092 605.551 312.197C608.773 309.787 612.315 307.835 616.074 306.396C621.257 304.391 626.759 303.331 632.317 303.266C633.746 303.187 635.178 303.187 636.607 303.266L638.111 303.248Z" fill="#263238"/>
<path d="M562.155 429.683C561.68 429.789 561.192 429.826 560.706 429.793C559.392 429.784 558.082 429.63 556.801 429.335C552.533 428.344 548.593 426.27 545.361 423.315C542.086 420.425 539.536 416.809 537.918 412.756C537.625 412.061 537.386 411.345 537.203 410.614C537.037 410.076 536.914 409.525 536.836 408.967C536.69 408.052 536.635 407.54 536.708 407.54C536.781 407.54 537.203 409.516 538.541 412.481C540.287 416.337 542.822 419.784 545.985 422.601C549.128 425.452 552.895 427.533 556.985 428.677C560.101 429.518 562.155 429.482 562.155 429.683Z" fill="#263238"/>
<path d="M490.565 356.153C490.317 357.128 489.979 358.077 489.556 358.99C488.841 360.82 487.723 363.4 486.568 366.658C484.185 373.117 480.83 382.286 480.481 392.826C480.308 397.784 480.983 402.736 482.48 407.466C483.707 411.305 485.375 414.989 487.448 418.446C488.844 420.791 490.368 423.058 492.013 425.236C492.678 426.011 493.291 426.831 493.846 427.688C493.846 427.688 493.626 427.523 493.26 427.139C492.893 426.755 492.398 426.224 491.775 425.474C489.986 423.37 488.356 421.138 486.898 418.794C484.724 415.31 482.97 411.581 481.673 407.686C480.119 402.884 479.406 397.852 479.565 392.808C480.14 383.711 482.292 374.782 485.926 366.42C487.228 363.199 488.401 360.637 489.208 358.862C489.589 357.925 490.042 357.019 490.565 356.153Z" fill="#263238"/>
<path d="M566.756 464.306C565.588 461.635 564.098 459.116 562.32 456.803C560.299 454.703 558.027 452.859 555.555 451.313C556.445 451.387 557.302 451.683 558.048 452.174C561.873 454.22 564.8 457.611 566.261 461.69C566.639 462.508 566.809 463.407 566.756 464.306Z" fill="#263238"/>
<path d="M449.408 497.631C449.408 497.631 414.923 500.705 415.399 523.068L458.336 520.89L449.408 497.631Z" fill="#B78876"/>
<path d="M504.994 122.902C501.84 138.127 498.834 153.377 495.974 168.652C492.307 188.013 489.007 208.253 494.489 227.212C497.495 237.606 503.032 247.049 508.514 256.382C511.594 261.616 514.967 267.142 520.43 269.851C527.855 273.511 537.242 270.619 543.164 264.818C549.085 259.017 552.074 250.928 554.164 242.858C558.142 227.23 559.022 210.998 559.664 194.876C560.305 178.753 560.635 162.027 555.997 146.399C551.359 130.771 541.202 115.984 526.077 109.799" fill="#263238"/>
<path d="M507.488 110.678C511.804 107.328 517.044 105.38 522.503 105.096C526.903 96.2022 537.335 92.1213 547.088 90.2364C561.462 87.4365 559.922 87.0522 573.287 92.9448C586.652 98.8374 605.682 115.49 608.12 129.911C610.335 142.559 614.393 154.816 620.165 166.291C623.832 173.886 630.982 179.101 635.217 186.421C637.501 190.39 638.845 194.828 639.147 199.396C639.449 203.963 638.7 208.539 636.958 212.773C633.512 221.027 626.197 228.31 626.893 237.204C627.278 242.383 627.095 246.079 629.148 250.856C636.097 267.033 632.815 288.59 617.892 297.923C602.968 307.256 581.372 303.999 569.84 290.603C559.83 279.038 557.905 262.531 558.84 247.269C559.775 232.007 563.295 216.836 562.305 201.519" fill="#263238"/>
<path d="M524.61 533.389L524.39 528.119L446.657 519.939L412.593 422.198L266.715 418.904L310.843 533.389C382.967 533.938 454.222 533.938 524.61 533.389Z" fill="#263238"/>
<path d="M347.657 477.72C348.409 479.025 349.533 480.078 350.884 480.746C352.236 481.414 353.757 481.667 355.252 481.472C356.748 481.278 358.153 480.645 359.288 479.654C360.424 478.662 361.239 477.357 361.631 475.903C362.024 474.449 361.975 472.912 361.492 471.486C361.009 470.059 360.113 468.808 358.918 467.89C357.722 466.971 356.281 466.428 354.776 466.327C353.27 466.227 351.769 466.575 350.462 467.326C348.709 468.333 347.429 469.994 346.903 471.943C346.377 473.893 346.648 475.971 347.657 477.72Z" fill="white"/>
<path d="M560.011 297.649C577.501 297.649 593.231 282.771 592.717 260.664L595.871 134.394C595.927 131.751 594.985 129.183 593.233 127.2C591.48 125.217 589.045 123.964 586.411 123.689L534.289 118.199C530.03 117.751 525.724 118.168 521.63 119.424C517.537 120.681 513.74 122.751 510.469 125.511C507.197 128.27 504.519 131.661 502.595 135.481C500.671 139.3 499.541 143.468 499.272 147.735C498.026 167.719 497.274 192.186 499.639 207.1C504.406 237.094 527.451 240.919 527.451 240.919L526.883 261.872C526.003 284.198 542.741 297.63 560.011 297.63V297.649Z" fill="#B78876"/>
<path d="M510.934 164.022C510.923 165.017 511.299 165.977 511.983 166.7C512.667 167.424 513.605 167.854 514.6 167.902C515.09 167.941 515.582 167.883 516.048 167.729C516.514 167.576 516.944 167.331 517.313 167.008C517.682 166.686 517.983 166.292 518.197 165.852C518.412 165.411 518.535 164.932 518.56 164.443C518.576 163.447 518.201 162.484 517.516 161.76C516.832 161.035 515.891 160.606 514.894 160.563C514.405 160.524 513.913 160.582 513.447 160.736C512.981 160.889 512.55 161.134 512.181 161.457C511.812 161.779 511.511 162.173 511.297 162.613C511.083 163.054 510.959 163.533 510.934 164.022Z" fill="#263238"/>
<path d="M504.591 160.472C505.067 160.966 508.001 158.825 512.144 158.825C516.287 158.825 519.331 160.911 519.771 160.399C519.991 160.179 519.514 159.282 518.194 158.312C516.389 157.091 514.251 156.452 512.071 156.482C509.917 156.478 507.817 157.158 506.076 158.422C504.792 159.337 504.371 160.252 504.591 160.472Z" fill="#263238"/>
<path d="M550.973 164.79C550.958 165.786 551.332 166.749 552.017 167.473C552.702 168.198 553.643 168.627 554.64 168.67C555.13 168.712 555.624 168.656 556.092 168.503C556.561 168.351 556.993 168.106 557.364 167.783C557.736 167.461 558.038 167.067 558.253 166.625C558.469 166.183 558.593 165.702 558.618 165.211C558.629 164.217 558.253 163.257 557.569 162.533C556.885 161.81 555.947 161.379 554.951 161.332C554.461 161.289 553.967 161.346 553.499 161.498C553.031 161.65 552.598 161.895 552.227 162.218C551.855 162.541 551.553 162.935 551.338 163.377C551.122 163.819 550.998 164.299 550.973 164.79Z" fill="#263238"/>
<path d="M545.363 161.24C545.839 161.753 548.754 159.593 552.898 159.593C557.041 159.593 560.084 161.679 560.543 161.167C560.763 160.947 560.286 160.051 558.948 159.081C557.147 157.864 555.017 157.226 552.843 157.251C550.683 157.246 548.578 157.926 546.829 159.191C545.564 160.106 545.124 161.021 545.363 161.24Z" fill="#263238"/>
<path d="M530.31 191.948C528.127 191.268 525.866 190.862 523.582 190.74C522.519 190.63 521.51 190.411 521.327 189.697C521.244 188.6 521.493 187.503 522.042 186.549C523.032 184.006 524.077 181.316 525.177 178.516C529.522 167.042 532.675 157.617 532.199 157.452C531.722 157.288 527.835 166.438 523.49 177.894C522.445 180.73 521.437 183.383 520.484 186C519.829 187.275 519.635 188.736 519.934 190.136C520.088 190.509 520.325 190.843 520.627 191.112C520.928 191.381 521.287 191.58 521.675 191.692C522.273 191.853 522.89 191.933 523.509 191.93C525.766 192.228 528.052 192.235 530.31 191.948Z" fill="#263238"/>
<path d="M527.453 240.937C541.603 241.149 555.534 237.436 567.695 230.213C567.695 230.213 557.923 250.819 527.856 248.019L527.453 240.937Z" fill="#AA6550"/>
<path d="M532.07 201.921C532.851 200.922 533.878 200.142 535.051 199.658C536.224 199.173 537.502 199.001 538.762 199.158C539.675 199.24 540.563 199.504 541.372 199.935C542.182 200.365 542.896 200.954 543.474 201.665C544.03 202.355 544.36 203.2 544.419 204.084C544.478 204.967 544.263 205.848 543.804 206.606C543.133 207.363 542.249 207.899 541.267 208.144C540.285 208.39 539.252 208.332 538.304 207.979C536.349 207.283 534.55 206.214 533.005 204.831C532.542 204.497 532.144 204.082 531.832 203.605C531.674 203.376 531.59 203.105 531.59 202.827C531.59 202.549 531.674 202.278 531.832 202.049" fill="#AA6550"/>
<path d="M542.523 194.802C541.845 194.802 541.826 199.268 537.976 202.452C534.126 205.636 529.341 205.142 529.305 205.782C529.305 206.057 530.368 206.643 532.403 206.697C535.068 206.756 537.667 205.868 539.736 204.19C541.695 202.585 542.951 200.281 543.238 197.767C543.33 195.9 542.816 194.784 542.523 194.802Z" fill="#263238"/>
<path d="M543.492 153.993C543.895 155.128 548.039 154.597 552.915 155.183C557.792 155.768 561.715 157.013 562.357 156.08C562.65 155.585 561.954 154.542 560.377 153.444C558.271 152.082 555.87 151.242 553.374 150.992C550.895 150.704 548.384 150.998 546.04 151.852C544.225 152.584 543.327 153.463 543.492 153.993Z" fill="#263238"/>
<path d="M506.113 148.485C506.846 149.437 509.779 148.485 513.153 148.485C516.526 148.485 519.496 149.107 520.156 148.137C520.449 147.662 519.991 146.71 518.726 145.832C517.021 144.756 515.033 144.214 513.017 144.276C511.001 144.338 509.05 145.001 507.414 146.179C506.204 147.058 505.801 148.028 506.113 148.485Z" fill="#263238"/>
<path d="M499.898 142.757C511.21 136.206 522.228 130.149 529.232 119.169C533.137 130.149 540.763 135.639 550.883 141.476C561.003 147.314 572.315 150.736 583.517 154.085C577.852 159.575 577.1 168.451 578.402 176.228C579.703 184.006 582.692 191.49 583.187 199.359C583.828 209.863 579.978 220.166 579.74 230.689C579.41 245.128 585.79 258.761 592.042 271.772L619.193 255.979L615.288 185.616L615.618 135.822L573.287 96.5498L519.68 102.406L499.898 142.757Z" fill="#263238"/>
<path d="M493.865 290.713C507.634 304.603 506.167 329.362 521.365 341.788C530.642 349.401 544.19 350.115 555.575 346.272C566.96 342.429 576.53 334.651 585.312 326.453C594.094 318.254 602.399 309.452 612.39 302.809C622.089 296.349 638.699 292.378 641.045 280.959C642.769 272.614 633.969 262.567 632.319 254.204C629.697 240.918 644.089 230.652 646.49 217.33C651.294 190.703 637.214 159.447 622.547 136.81C607.88 114.173 599.594 88.5344 562.414 86.4299C529.139 84.9476 506.479 100.887 495.405 123.945C489.905 135.492 488.567 148.558 487.485 161.332C484.974 191.161 483.58 222.783 497.385 249.355C500.245 254.845 503.655 261.835 499.805 266.703C496.285 271.15 488.31 270.967 486.074 276.183C483.837 281.398 489.722 286.522 493.865 290.713ZM535.335 113.88C539.79 113.697 553.009 113.88 567.749 133.479C576.567 145.209 576.549 164.205 576.365 180.766C576.2 193.082 576.365 224.247 576.365 224.247C576.365 224.247 578.309 263.611 564.907 267.088C548.407 271.37 534.052 268.423 521.75 256.73C509.449 245.036 502.409 228.621 499.604 211.895C496.799 195.168 495.222 178.113 497.422 161.295C498.581 150.975 501.998 141.036 507.432 132.18C510.527 127.338 514.613 123.204 519.422 120.05C524.231 116.896 529.654 114.793 535.335 113.88Z" fill="#016A70"/>
<g opacity="0.3">
<path d="M638.112 268.094C627.112 274.06 619.504 282.935 610.612 291.682C601.72 300.43 591.655 308.903 579.445 312.05C567.235 315.198 552.55 311.446 546.445 300.485C580.857 306.341 620.805 278.909 632.612 246.097C631.907 248.948 631.869 251.922 632.502 254.79C634.094 259.336 635.968 263.779 638.112 268.094Z" fill="black"/>
</g>
<g opacity="0.3">
<path d="M501.289 259.036C502.483 263.477 504.575 267.629 507.434 271.235C510.293 274.841 513.861 277.827 517.917 280.007C519.8 280.791 521.565 281.832 523.16 283.1C523.947 283.75 524.519 284.622 524.803 285.6C525.088 286.579 525.071 287.621 524.756 288.59C524.174 289.577 523.268 290.332 522.191 290.726C521.115 291.119 519.934 291.128 518.852 290.75C516.742 289.9 514.859 288.571 513.352 286.87C507.357 281.087 501.179 275.231 499.492 267.106C500.468 265.922 501.146 264.523 501.472 263.025C501.556 261.693 501.495 260.355 501.289 259.036Z" fill="black"/>
</g>
<path d="M629.88 252.594C629.755 252.968 629.582 253.325 629.367 253.655C628.982 254.332 628.487 255.375 627.698 256.62C625.542 260.191 623.166 263.626 620.585 266.904C616.79 271.804 612.589 276.376 608.027 280.574C602.47 285.788 596.168 290.148 589.327 293.513C585.718 295.086 582.006 296.412 578.217 297.484C574.691 298.508 571.102 299.302 567.473 299.863C561.336 300.862 555.097 301.095 548.902 300.558C544.735 300.179 540.615 299.394 536.6 298.216C535.17 297.831 534.107 297.392 533.373 297.136C532.989 297.031 532.619 296.878 532.273 296.679C532.273 296.679 533.85 297.118 536.71 297.85C540.729 298.895 544.834 299.575 548.975 299.881C555.099 300.318 561.254 300.023 567.308 299.003C570.888 298.422 574.428 297.615 577.905 296.587C581.655 295.52 585.33 294.206 588.905 292.652C595.658 289.296 601.889 284.981 607.403 279.842C611.958 275.706 616.176 271.215 620.017 266.41C622.637 263.186 625.085 259.827 627.35 256.345C628.175 255.137 628.725 254.131 629.183 253.49C629.393 253.175 629.626 252.875 629.88 252.594Z" fill="#263238"/>
<path d="M545.493 286.54C544.794 286.825 544.06 287.015 543.311 287.108C541.291 287.473 539.241 287.657 537.188 287.657C530.332 287.68 523.599 285.832 517.719 282.313C511.838 278.794 507.032 273.738 503.821 267.691C502.849 265.877 502.045 263.979 501.42 262.018C501.153 261.312 500.981 260.573 500.906 259.822C501.946 262.395 503.121 264.912 504.426 267.362C507.703 273.192 512.447 278.068 518.189 281.509C523.932 284.949 530.474 286.835 537.17 286.979C542.321 287.126 545.475 286.339 545.493 286.54Z" fill="#263238"/>
<path d="M538.359 331.888C538.699 331.747 539.057 331.655 539.423 331.613C540.119 331.449 541.256 331.302 542.503 330.973C546.27 330.164 549.986 329.131 553.631 327.88C565.631 323.631 576.923 317.604 587.126 310.001C597.312 302.37 606.96 294.048 616.001 285.095L624.324 277.043C625.241 276.146 626.011 275.432 626.598 274.865C626.853 274.598 627.135 274.359 627.441 274.151C627.237 274.454 627.004 274.736 626.744 274.993L624.581 277.299C622.748 279.275 619.943 282.112 616.478 285.571C607.543 294.698 597.92 303.128 587.694 310.788C577.421 318.443 565.998 324.428 553.851 328.521C550.163 329.722 546.396 330.664 542.576 331.339C541.238 331.613 540.156 331.705 539.441 331.796C539.086 331.872 538.722 331.902 538.359 331.888Z" fill="#263238"/>
<path d="M1183.98 370.281L1119.3 294.153L1119.16 294.299C1116.61 291.792 1114.37 289.56 1113.24 288.26C1090.83 262.348 1073.03 253.49 1038.73 253.015L972.069 254.442C959.676 255.467 931.552 250.178 905.537 284.6C858.146 343.874 820.141 394.291 822.286 418.081C824.981 448.184 940.004 534.011 940.004 534.011L1098.11 533.883L1097.78 521.86L1166 477.665C1190.6 461.067 1203.45 446.555 1206.57 424.595C1209.3 405.051 1197.17 384.921 1183.98 370.281ZM894.317 415.592C894.317 410.962 919.251 381.773 932.817 366.182L939.876 433.581L938.666 459.914L894.317 415.592ZM1094.9 457.078L1091.14 368.25L1142.7 421.484L1094.9 457.078Z" fill="#455A64"/>
<path d="M996.104 407.48L879.23 465.138C876.126 466.669 874.853 470.423 876.387 473.521L914.167 549.824C915.702 552.923 919.462 554.194 922.566 552.662L1039.44 495.005C1042.54 493.473 1043.82 489.72 1042.28 486.621L1004.5 410.318C1002.97 407.219 999.208 405.949 996.104 407.48Z" fill="#E0E0E0"/>
<path d="M958.832 472.907C960.054 472.162 961.47 471.794 962.901 471.852C964.332 471.91 965.714 472.39 966.872 473.231C968.03 474.073 968.911 475.238 969.406 476.58C969.9 477.922 969.985 479.38 969.649 480.77C969.313 482.16 968.571 483.419 967.519 484.388C966.466 485.358 965.149 485.993 963.734 486.216C962.319 486.438 960.869 486.236 959.569 485.636C958.269 485.036 957.177 484.064 956.43 482.844C955.428 481.209 955.119 479.243 955.569 477.379C956.02 475.516 957.193 473.907 958.832 472.907Z" fill="white"/>
<path d="M1090.15 305.042C1090.18 305.236 1090.18 305.433 1090.15 305.627C1090.15 306.066 1090.15 306.615 1090.15 307.329C1090.15 308.885 1090.15 311.081 1090.15 313.862C1090.15 319.608 1090.26 327.807 1090.34 337.927C1090.45 358.24 1091.24 386.275 1092.81 417.239C1094.39 448.202 1096 476.22 1096.86 496.514C1097.3 506.653 1097.6 514.814 1097.76 520.561C1097.76 523.342 1097.87 525.538 1097.91 527.094C1097.91 527.807 1097.91 528.356 1097.91 528.796C1097.93 528.99 1097.93 529.186 1097.91 529.381C1097.89 529.186 1097.89 528.99 1097.91 528.796C1097.91 528.356 1097.91 527.807 1097.8 527.094C1097.8 525.538 1097.6 523.434 1097.47 520.561C1097.18 514.833 1096.75 506.634 1096.26 496.551C1095.14 476.201 1093.62 448.202 1091.93 417.275C1090.25 386.348 1089.66 358.24 1089.73 337.927C1089.73 327.825 1089.73 319.627 1089.86 313.862C1089.86 311.081 1089.86 308.885 1089.95 307.329C1089.95 306.615 1089.95 306.066 1089.95 305.627C1090 305.427 1090.07 305.231 1090.15 305.042Z" fill="#263238"/>
<path d="M925.537 265.239C933.971 259.109 943.779 260.957 952.231 267.069C960.682 273.181 965.376 283.539 966.219 293.915C967.062 304.291 964.386 314.686 960.444 324.311C954.082 339.738 944.677 352.219 930.616 368.103L894.389 415.592L964.331 483.741L935.346 529.381L876.789 482.332C856.787 465.478 839.774 448.239 827.289 430.415" fill="#455A64"/>
<path d="M827.273 430.47L827.695 431.019L828.923 432.666C830.005 434.112 831.618 436.326 833.8 438.998C840.076 446.824 846.81 454.273 853.967 461.305C858.55 465.862 863.775 470.748 869.605 475.945C875.435 481.143 881.998 486.285 888.965 491.866L935.532 529.162L934.89 529.272C943.892 515.089 953.663 499.681 963.838 483.613V484.199L927.758 449.063L893.915 416.123L893.622 415.848L893.86 415.519C906.693 398.774 918.83 382.853 930.123 368.049C937.023 360.468 943.423 352.448 949.282 344.039C954.513 336.377 958.745 328.081 961.877 319.352C964.848 311.604 966.244 303.342 965.984 295.05C965.678 288.073 963.548 281.296 959.805 275.396C956.726 270.65 952.436 266.809 947.375 264.269C943.667 262.298 939.489 261.374 935.293 261.598C932.692 261.802 930.162 262.55 927.868 263.794C926.292 264.635 925.558 265.203 925.54 265.166L926.09 264.745C926.631 264.344 927.201 263.983 927.795 263.665C930.094 262.364 932.644 261.565 935.275 261.323C939.531 261.044 943.782 261.944 947.558 263.922C952.713 266.442 957.09 270.305 960.227 275.103C964.069 281.078 966.27 287.957 966.607 295.05C966.914 303.32 965.594 311.571 962.72 319.334C959.596 328.139 955.357 336.509 950.107 344.24C944.249 352.684 937.849 360.741 930.948 368.36C919.655 383.164 907.5 399.104 894.74 415.94V415.318L928.602 448.258L964.663 483.412L964.938 483.686L964.737 483.997C954.543 500.065 944.753 515.455 935.733 529.619L935.477 530.04L935.092 529.729L888.617 492.306C881.668 486.706 875.068 481.509 869.293 476.311C863.518 471.114 858.293 466.228 853.692 461.671C846.546 454.578 839.842 447.055 833.617 439.144C831.472 436.399 829.95 434.203 828.85 432.721C828.337 432.007 827.952 431.44 827.677 431.037C827.402 430.635 827.273 430.47 827.273 430.47Z" fill="#263238"/>
<path d="M1167.83 420.222C1166.58 419.931 1165.36 419.552 1164.17 419.087C1158.3 417.228 1151.96 417.56 1146.33 420.021C1145.18 420.604 1144 421.111 1142.79 421.54C1143.73 420.635 1144.83 419.91 1146.03 419.399C1148.85 417.972 1151.94 417.15 1155.1 416.987C1158.26 416.823 1161.41 417.32 1164.37 418.447C1165.62 418.831 1166.79 419.432 1167.83 420.222Z" fill="#263238"/>
<path d="M978.649 527.24L965.926 533.554C962.838 535.087 959.373 535.699 955.945 535.316C952.518 534.933 949.274 533.571 946.602 531.394L938.664 524.934L960.664 490.402C963.249 491.519 973.882 493.019 977.549 494.319C980.724 495.429 984.067 495.986 987.431 495.966C991.186 496.045 994.94 495.739 998.632 495.051C998.871 494.959 999.201 494.886 999.421 494.794C999.92 494.588 1000.46 494.494 1001 494.52C1004.13 494.227 1006.63 497.521 1004.87 500.01C1003.11 502.499 994.526 506.049 983.562 505.738H983.049C973.424 505.738 982.261 513.771 987.962 518.548C988.972 519.36 989.756 520.418 990.238 521.62C990.719 522.821 990.883 524.127 990.712 525.41C990.684 525.873 990.554 526.324 990.332 526.732C990.111 527.14 989.802 527.495 989.429 527.771C986.936 529.381 978.649 527.24 978.649 527.24Z" fill="#A36853"/>
<path d="M1008.09 284.802C991.226 284.802 976.065 270.455 976.211 249.08L973.168 127.367H973.516C973.466 124.812 974.382 122.331 976.08 120.419C977.779 118.507 980.136 117.303 982.683 117.046L1032.95 111.739C1037.06 111.306 1041.21 111.707 1045.16 112.918C1049.1 114.129 1052.76 116.125 1055.92 118.786C1059.07 121.446 1061.65 124.716 1063.51 128.398C1065.36 132.081 1066.45 136.1 1066.7 140.213C1067.91 159.483 1068.65 183.072 1066.36 197.456C1061.7 226.425 1039.5 230.121 1039.5 230.121L1040.03 250.251C1040.89 271.772 1024.74 284.729 1008.09 284.729V284.802Z" fill="#A36853"/>
<path d="M1055.41 155.97C1055.41 156.925 1055.04 157.842 1054.37 158.526C1053.7 159.21 1052.79 159.606 1051.84 159.63C1051.36 159.67 1050.89 159.614 1050.43 159.466C1049.98 159.318 1049.56 159.08 1049.21 158.768C1048.85 158.455 1048.56 158.074 1048.35 157.647C1048.15 157.22 1048.03 156.755 1048 156.281C1048 155.31 1048.39 154.38 1049.08 153.693C1049.77 153.007 1050.7 152.621 1051.67 152.621C1052.6 152.599 1053.51 152.933 1054.21 153.556C1054.9 154.178 1055.33 155.041 1055.41 155.97Z" fill="#263238"/>
<path d="M1061.5 152.53C1061.04 153.024 1058.24 150.938 1054.17 150.956C1050.1 150.974 1047.25 152.951 1046.83 152.475C1046.41 151.999 1047.09 151.377 1048.37 150.443C1050.1 149.247 1052.15 148.609 1054.26 148.613C1056.33 148.6 1058.36 149.24 1060.05 150.443C1061.33 151.45 1061.76 152.31 1061.5 152.53Z" fill="#263238"/>
<path d="M1016.82 156.702C1016.83 157.19 1016.75 157.676 1016.57 158.131C1016.39 158.585 1016.12 159 1015.78 159.349C1015.44 159.699 1015.03 159.977 1014.58 160.166C1014.13 160.356 1013.64 160.454 1013.15 160.453C1012.2 160.499 1011.27 160.176 1010.56 159.551C1009.85 158.927 1009.4 158.049 1009.32 157.104C1009.31 156.616 1009.4 156.13 1009.57 155.676C1009.75 155.221 1010.02 154.807 1010.36 154.457C1010.7 154.107 1011.11 153.83 1011.56 153.64C1012.01 153.45 1012.5 153.353 1012.99 153.353C1013.94 153.307 1014.87 153.63 1015.58 154.255C1016.3 154.88 1016.74 155.757 1016.82 156.702Z" fill="#263238"/>
<path d="M1022.21 153.28C1021.75 153.774 1018.93 151.688 1014.88 151.688C1010.83 151.688 1007.95 153.701 1007.54 153.207C1007.32 153.005 1007.8 152.127 1009.08 151.194C1010.81 149.989 1012.86 149.349 1014.97 149.364C1017.04 149.35 1019.07 149.99 1020.76 151.194C1022.03 152.182 1022.45 153.06 1022.21 153.28Z" fill="#263238"/>
<path d="M1036.73 182.889C1038.83 182.221 1041.02 181.827 1043.22 181.718C1044.25 181.608 1045.22 181.407 1045.38 180.712C1045.47 179.66 1045.23 178.607 1044.71 177.692C1043.73 175.222 1042.74 172.641 1041.68 169.933C1037.48 158.953 1034.46 149.803 1034.9 149.62C1035.34 149.437 1039.11 158.276 1043.29 169.329C1044.32 172.056 1045.27 174.654 1046.19 177.143C1046.84 178.374 1047.03 179.794 1046.72 181.151C1046.57 181.506 1046.34 181.823 1046.06 182.08C1045.77 182.336 1045.43 182.525 1045.05 182.633C1044.49 182.784 1043.9 182.863 1043.31 182.871C1041.13 183.148 1038.92 183.154 1036.73 182.889Z" fill="#263238"/>
<path d="M1039.5 230.122C1025.85 230.323 1012.42 226.744 1000.69 219.782C1000.69 219.782 1010.73 241.541 1039.72 238.833L1039.5 230.122Z" fill="#8F5039"/>
<path d="M1024.01 146.289C1023.62 147.387 1019.63 146.856 1014.93 147.424C1010.24 147.991 1006.45 149.254 1005.77 148.302C1005.47 147.826 1006.13 146.801 1007.6 145.758C1009.64 144.468 1011.95 143.66 1014.35 143.397C1016.76 143.134 1019.19 143.422 1021.46 144.239C1023.31 144.99 1024.19 145.777 1024.01 146.289Z" fill="#263238"/>
<path d="M1060.05 140.982C1059.35 141.897 1056.58 140.982 1053.28 140.982C1049.98 140.982 1047.16 141.586 1046.52 140.635C1046.23 140.177 1046.68 139.28 1047.89 138.42C1049.53 137.365 1051.45 136.847 1053.39 136.938C1055.34 136.962 1057.23 137.602 1058.78 138.768C1059.98 139.61 1060.36 140.543 1060.05 140.982Z" fill="#263238"/>
<path d="M973.5 155.018C978.432 154.14 982.373 155.659 983.767 160.508C985.838 167.737 984.427 171.305 984.775 176.283L992.108 174.087C990.275 157.416 994.437 145.081 992.622 128.337C1002.81 131.631 1016.82 125.336 1021.17 114.795C1025.49 117.968 1030.63 119.852 1035.98 120.227C1041.34 120.603 1046.69 119.455 1051.42 116.918C1052.61 119.079 1054.45 120.807 1056.69 121.853C1058.93 122.899 1061.44 123.209 1063.86 122.737C1069.36 121.182 1075.19 113.367 1076.79 107.823C1079.65 97.8491 1078.26 83.5385 1070.15 77.042C1062.05 70.5455 1045.81 72.101 1039.5 80.3543C1037.01 83.6117 1036.71 89.6324 1032.7 90.4559C1029.12 91.1879 1025.88 88.6259 1022.61 86.9423C1012.44 81.9098 998.378 88.5893 995.867 99.6425C987.36 94.5734 977.057 91.2611 967.542 93.9878C958.027 96.7145 950.437 107.255 953.682 116.588C955.02 120.504 958.045 123.908 958.375 127.989C959.017 135.95 949.447 143.16 952.508 150.535C954.213 154.671 959.218 156.501 961.473 160.362C964.003 164.681 962.427 170.134 962.647 175.13C962.977 183.475 967.267 195.827 975.278 198.206" fill="#263238"/>
<path d="M974.249 154.927C973.02 155.101 971.861 155.603 970.893 156.379C969.925 157.155 969.185 158.177 968.749 159.337C967.683 161.554 967.173 163.998 967.264 166.456C967.102 170.298 968.339 174.069 970.748 177.07C971.982 178.528 973.643 179.565 975.497 180.034C977.351 180.503 979.306 180.382 981.088 179.687" fill="#A36853"/>
<path d="M979.256 173.41C979.256 173.501 978.174 173.904 976.469 173.3C975.485 172.923 974.618 172.291 973.958 171.47C973.164 170.406 972.699 169.134 972.619 167.81C972.528 166.544 972.788 165.278 973.371 164.15C973.862 163.225 974.566 162.428 975.424 161.826C976.928 160.838 978.101 160.893 978.083 161.002C977.302 161.4 976.554 161.859 975.846 162.375C975.05 163.038 974.427 163.884 974.031 164.84C973.635 165.796 973.478 166.834 973.573 167.865C973.624 168.881 973.945 169.866 974.502 170.718C975.059 171.57 975.833 172.259 976.744 172.714C977.563 173.01 978.402 173.243 979.256 173.41Z" fill="#8F5039"/>
<path d="M1024.01 197.017C1027.68 199.524 1034.61 198.206 1037.21 194.491C1031.62 191.447 1026.46 187.661 1021.88 183.237C1021.88 183.237 1016.68 191.874 1024.01 197.017Z" fill="#FAFAFA"/>
<path d="M1035.83 205.471C1034.34 204.879 1032.77 204.509 1031.18 204.374C1029.58 204.506 1028.02 204.857 1026.52 205.417C1026.52 205.417 1026.79 204.849 1027.62 204.355C1028.7 203.732 1029.93 203.404 1031.19 203.404C1032.44 203.404 1033.67 203.732 1034.75 204.355C1035.58 204.886 1035.94 205.38 1035.83 205.471Z" fill="#AA6550"/>
<path d="M991.23 322.646C998.969 311.251 1006 299.395 1012.3 287.144C1019.87 272.724 1018.58 271.992 1016.77 271.351C1011.89 269.613 1002.49 296.184 1001.24 289.23C999.994 282.276 1016.46 258.12 1011.29 256.583C1004.54 254.497 995.209 282.514 994.255 284.82C993.302 287.126 989.947 285.717 990.937 283.686C992.349 280.776 1006.39 249.684 999.774 247.58C996.107 246.427 994.787 253.271 994.787 253.271C994.787 253.271 983.787 283.374 980.689 282.276C977.59 281.178 983.439 263.263 985.84 257.37C988.242 251.478 986.445 247.982 983.017 249.007C980.67 249.702 972.879 267.563 970.642 273.438C968.405 279.312 962.539 295.581 958.982 285.058C958.982 284.893 958.854 284.747 958.78 284.582C955.572 274.115 949.614 267.124 946.515 266.282C943.417 265.44 941.162 268.844 942.445 271.772C942.61 272.283 942.885 272.752 943.252 273.145C943.417 273.328 943.582 273.602 943.747 273.804C945.586 277.07 947.085 280.517 948.22 284.088C949.306 287.269 949.845 290.61 949.815 293.97C949.815 297.868 951.649 309.214 951.502 312.014" fill="#FFAD9D"/>
<path d="M949.668 307.86L905.32 395.7C905.32 395.7 880.24 323.287 866.71 294.483C861.558 283.503 851.218 275.89 841.3 270.839V270.638L839.228 269.814C832.111 266.419 824.632 263.834 816.935 262.11C770.148 248.733 726.075 253.399 675.053 271.26C675.053 271.26 648.561 278.361 635.71 312.856C624.16 343.966 611.198 391.546 608.98 399.964C593.085 453.363 615.781 483.101 647.37 479.441C660.386 477.391 671.46 466.631 676.355 462.459L693.056 446.794L693.423 458.927L674.668 533.865L866.691 533.462L832.041 444.726L839.741 404.045L852.923 435.301C857.064 445.13 863.988 453.538 872.847 459.495C881.706 465.452 892.114 468.699 902.794 468.836C913.475 468.974 923.964 465.998 932.974 460.272C941.984 454.545 949.124 446.319 953.518 436.601L998.417 323.763L949.668 307.86Z" fill="#016A70"/>
<path d="M718.429 417.367C717.922 418.235 717.345 419.061 716.706 419.838C715.551 421.375 713.809 423.589 711.591 426.243C707.172 431.568 700.811 438.723 693.422 446.281C686.034 453.839 678.994 460.336 673.714 464.819C671.092 467.088 668.911 468.845 667.371 470.016C666.613 470.704 665.79 471.317 664.914 471.846C665.598 471.111 666.34 470.431 667.132 469.815C668.599 468.552 670.707 466.704 673.274 464.325C678.407 459.695 685.356 453.144 692.726 445.604C700.096 438.064 706.549 430.964 711.059 425.804C713.351 423.205 715.147 421.064 716.394 419.6C717.006 418.798 717.687 418.051 718.429 417.367Z" fill="#263238"/>
<path d="M832.664 441.871C832.649 441.527 832.68 441.182 832.755 440.846C832.902 440.077 833.049 439.126 833.25 437.955L835.249 427.304C836.935 418.319 839.245 405.911 841.079 392.095C841.543 388.642 841.959 385.281 842.325 382.012C842.777 378.904 842.955 375.763 842.857 372.624C842.518 367.302 841.727 362.019 840.492 356.831C839.502 352.366 838.659 348.779 838.09 346.272C837.834 345.009 837.687 344.021 837.614 343.362C837.569 343.016 837.569 342.665 837.614 342.319C837.73 342.643 837.804 342.982 837.834 343.325C837.962 343.984 838.182 344.954 838.494 346.198C839.099 348.669 840.107 352.219 841.189 356.684C842.531 361.896 843.396 367.219 843.774 372.587C843.884 375.767 843.724 378.95 843.297 382.103C842.949 385.379 842.527 388.764 842.069 392.223C840.235 406.076 837.797 418.483 835.945 427.432C834.992 431.806 834.222 435.393 833.654 438.028C833.379 439.181 833.159 440.132 832.994 440.901C832.916 441.234 832.806 441.559 832.664 441.871Z" fill="#263238"/>
<path d="M901.414 417.184C902.113 409.969 903.444 402.829 905.392 395.846C905.191 399.496 904.67 403.121 903.834 406.68C903.327 410.243 902.517 413.757 901.414 417.184Z" fill="#263238"/>
<path d="M908.18 419.783C907.26 415.717 906.647 411.588 906.347 407.43C905.704 403.307 905.38 399.141 905.375 394.968C906.295 399.034 906.908 403.163 907.208 407.32C907.851 411.444 908.175 415.61 908.18 419.783Z" fill="#263238"/>
<path d="M766.535 533.462C766.279 533.462 766.059 504.036 766.059 467.765C766.059 431.495 766.279 402.05 766.535 402.05C766.792 402.05 767.012 431.458 767.012 467.765C767.012 504.072 766.792 533.462 766.535 533.462Z" fill="#263238"/>
<g opacity="0.2">
<path d="M838.586 347.626C847.588 364.846 855.416 381.975 856.131 401.391C856.681 416.489 850.631 429.079 856.883 442.841C856.571 443.079 851.236 431.22 848.871 425.657C844.013 414.201 839.704 403.972 839.704 403.972C839.704 403.972 843.041 378.114 843.371 373.703C843.701 369.293 838.586 347.626 838.586 347.626Z" fill="black"/>
</g>
<g opacity="0.2">
<path d="M615.783 435.118C615.783 443.756 610.411 415.244 615.435 408.236C618.973 403.313 625.023 400.916 630.89 399.47C636.756 398.024 642.898 397.054 648.105 393.98C654.833 390.009 659.105 383 663.816 376.851C668.528 370.702 674.816 344.369 682.59 343.801V382.231C663.974 394.26 644.611 405.097 624.62 414.677C621.773 417.26 619.513 420.419 617.989 423.945C616.465 427.47 615.713 431.279 615.783 435.118Z" fill="black"/>
</g>
<g opacity="0.2">
<path d="M693 446.812C705.558 439.766 714.725 430.342 728.915 427.908C742.573 425.492 756.635 427.908 770.458 426.956C769.713 419.99 768.949 413.012 768.167 406.021L728.622 405.582L693 446.812Z" fill="black"/>
</g>
<path d="M682.587 343.362C682.844 343.362 683.064 351.908 683.064 362.449C683.064 372.99 682.844 381.554 682.587 381.554C682.104 375.198 681.945 368.821 682.11 362.449C681.945 356.082 682.104 349.712 682.587 343.362Z" fill="#263238"/>
<path d="M615.746 434.917C615.449 433.808 615.374 432.651 615.526 431.513C615.71 428.756 616.368 426.051 617.469 423.516C618.555 420.98 620.075 418.651 621.961 416.635C622.683 415.747 623.566 415.002 624.564 414.439C622.094 417.313 620.005 420.493 618.349 423.9C616.981 427.436 616.105 431.143 615.746 434.917Z" fill="#263238"/>
<path d="M623.645 415.025C624.633 414.763 625.596 414.414 626.523 413.981C628.356 413.249 630.996 412.151 634.204 410.633C640.621 407.705 649.366 403.313 658.643 397.823C667.92 392.333 676.005 386.934 681.67 382.798C684.511 380.712 686.785 378.992 688.306 377.766C689.131 377.167 689.904 376.499 690.616 375.771C689.716 376.261 688.857 376.824 688.049 377.455L681.248 382.213C675.473 386.202 667.37 391.527 658.111 396.962C648.853 402.398 640.2 406.826 633.875 409.919L626.358 413.579C625.412 413.979 624.504 414.463 623.645 415.025Z" fill="#263238"/>
<path d="M864.545 179.43C861.391 175.313 856.386 172.11 855.378 167.078C854.113 160.325 860.878 153.993 859.65 147.222C858.843 142.593 854.571 139.335 850.208 137.542C845.845 135.748 841.041 134.888 837.045 132.491C832.247 129.419 828.564 124.89 826.54 119.571C825.941 118.118 825.421 116.633 824.981 115.124C824.572 111.89 823.829 108.708 822.763 105.627C822.598 104.821 822.451 104.016 822.305 103.211L822.506 105.041C821.898 103.518 821.097 102.079 820.123 100.759C816.768 96.2936 810.058 93.8048 805.456 96.9341L807.656 95.4701C804.875 88.7543 800.405 82.8681 794.679 78.3801C788.953 73.8922 782.164 70.9542 774.968 69.8501C772.223 69.466 769.446 69.374 766.681 69.5756C756.8 69.0632 742.518 71.9363 736.486 75.761C728.786 80.6288 720.903 87.3083 717.035 95.5616C714.963 100.008 713.551 105.151 709.701 108.115C704.458 112.068 697.106 110.531 690.561 111.263C679.781 112.489 670.395 120.742 666.728 130.935C665.021 136.095 664.407 141.552 664.925 146.961C665.442 152.37 667.08 157.613 669.735 162.357C670.871 164.461 672.21 166.895 671.311 169.109C670.382 170.753 668.931 172.041 667.186 172.769C662.791 175.032 659.281 178.698 657.213 183.182C655.38 187.739 656.076 193.503 659.78 196.724C661.333 197.96 663.188 198.759 665.154 199.039C667.121 199.319 669.126 199.069 670.963 198.316C669.87 201.073 669.292 204.007 669.258 206.972C669.18 210.212 669.974 213.413 671.557 216.242C673.141 219.072 675.455 221.425 678.26 223.058C683.998 226.041 692.028 224.467 695.401 218.959C695.38 223.02 696.46 227.011 698.526 230.51C700.593 234.009 703.569 236.884 707.14 238.831C710.711 240.778 714.743 241.725 718.808 241.57C722.874 241.416 726.823 240.166 730.235 237.954C732.948 236.124 735.735 233.708 738.943 234.294C742.151 234.879 743.966 237.954 746.166 240.186C752.033 246.28 762.043 246.976 769.761 243.517C777.48 240.058 783.163 233.141 787.251 225.748C788.677 227.877 790.674 229.561 793.015 230.608C795.356 231.655 797.945 232.022 800.486 231.666C803.026 231.311 805.414 230.248 807.377 228.599C809.339 226.95 810.796 224.782 811.58 222.344C814.437 226.034 818.362 228.759 822.821 230.15C827.281 231.541 832.062 231.531 836.516 230.122C840.97 228.712 844.883 225.971 847.725 222.269C850.567 218.568 852.202 214.084 852.408 209.424C855.633 208.948 858.677 207.641 861.24 205.632C863.804 203.622 865.798 200.98 867.025 197.966C868.253 194.952 868.671 191.67 868.239 188.445C867.808 185.22 866.54 182.163 864.563 179.577L864.545 179.43ZM680.166 185.085C680.166 185.085 680.166 185.085 680.166 184.975L680.35 184.884L680.166 185.085Z" fill="#263238"/>
<path d="M796.475 231C796.475 231 819.96 227.12 824.819 196.541C827.239 181.334 826.469 156.409 825.185 136.041C824.913 131.693 823.761 127.446 821.801 123.554C819.841 119.662 817.113 116.205 813.78 113.393C810.447 110.581 806.579 108.471 802.408 107.189C798.237 105.908 793.849 105.482 789.509 105.938L736.342 111.556C733.646 111.84 731.156 113.128 729.369 115.163C727.582 117.198 726.628 119.83 726.699 122.536L732.29 255.357C728.422 256.181 719.64 258.084 715.332 259.328C715.332 259.328 756.435 351.03 766.5 349.968C776.565 348.907 816.789 262.128 816.789 262.128C809.783 260.021 802.673 258.28 795.485 256.913C795.371 248.264 795.702 239.615 796.475 231Z" fill="#FFAD9D"/>
<path d="M813.305 152.694C813.315 153.714 812.926 154.698 812.221 155.436C811.516 156.175 810.55 156.609 809.528 156.647C809.026 156.7 808.518 156.649 808.037 156.497C807.555 156.345 807.11 156.096 806.73 155.764C806.35 155.433 806.042 155.026 805.826 154.57C805.611 154.114 805.492 153.619 805.477 153.115C805.466 152.095 805.855 151.111 806.561 150.373C807.266 149.635 808.232 149.2 809.253 149.162C809.753 149.122 810.256 149.183 810.732 149.34C811.207 149.497 811.647 149.747 812.025 150.076C812.402 150.405 812.71 150.806 812.93 151.256C813.15 151.706 813.277 152.195 813.305 152.694Z" fill="#263238"/>
<path d="M819.777 149.071C819.282 149.583 816.312 147.387 812.077 147.405C807.842 147.424 804.744 149.528 804.304 149.016C804.065 148.778 804.56 147.863 805.917 146.875C807.762 145.629 809.942 144.972 812.169 144.99C814.368 144.987 816.511 145.678 818.292 146.966C819.502 147.918 820.015 148.851 819.777 149.071Z" fill="#263238"/>
<path d="M772.515 153.481C772.525 154.504 772.134 155.491 771.424 156.23C770.715 156.968 769.744 157.401 768.72 157.434C768.218 157.487 767.71 157.436 767.228 157.284C766.747 157.132 766.302 156.883 765.921 156.551C765.541 156.22 765.233 155.813 765.018 155.357C764.802 154.901 764.683 154.406 764.668 153.902C764.658 152.879 765.049 151.893 765.759 151.154C766.468 150.415 767.439 149.983 768.463 149.949C768.963 149.91 769.465 149.97 769.941 150.127C770.417 150.284 770.857 150.534 771.234 150.863C771.612 151.192 771.92 151.594 772.14 152.043C772.36 152.493 772.487 152.982 772.515 153.481Z" fill="#263238"/>
<path d="M778.215 149.858C777.738 150.37 774.75 148.174 770.533 148.193C766.317 148.211 763.2 150.315 762.742 149.803C762.522 149.565 763.017 148.65 764.373 147.662C766.206 146.401 768.381 145.73 770.607 145.74C772.805 145.74 774.948 146.431 776.73 147.717C778.013 148.65 778.453 149.638 778.215 149.858Z" fill="#263238"/>
<path d="M793.558 181.151C795.789 180.454 798.099 180.042 800.433 179.924C801.496 179.815 802.523 179.595 802.706 178.863C802.801 177.748 802.551 176.63 801.991 175.661C800.965 173.062 799.92 170.317 798.801 167.462C794.365 155.787 791.156 146.179 791.633 145.996C792.11 145.813 796.07 155.146 800.506 166.84L803.568 175.093C804.25 176.392 804.445 177.891 804.118 179.321C803.957 179.708 803.708 180.053 803.389 180.326C803.071 180.599 802.692 180.794 802.285 180.894C801.685 181.049 801.07 181.135 800.451 181.151C798.162 181.434 795.847 181.434 793.558 181.151Z" fill="#263238"/>
<path d="M796.477 231C782.051 231.202 767.853 227.401 755.465 220.02C755.465 220.02 765.42 241.01 796.073 238.155L796.477 231Z" fill="#ED9482"/>
<path d="M781.662 187.757C782.592 187.105 783.647 186.65 784.76 186.421C785.322 186.318 785.901 186.394 786.417 186.637C786.934 186.88 787.361 187.278 787.639 187.775C787.755 188.141 787.902 188.496 788.079 188.837C788.702 189.678 790.004 189.367 790.994 189.66C791.368 189.818 791.707 190.048 791.991 190.337C792.276 190.626 792.5 190.968 792.652 191.344C792.804 191.72 792.879 192.122 792.875 192.527C792.87 192.932 792.785 193.332 792.625 193.705C792.257 194.448 791.742 195.109 791.112 195.65C790.482 196.191 789.75 196.6 788.959 196.852C786.884 197.705 784.624 198.014 782.395 197.749C781.616 197.719 780.851 197.525 780.153 197.178C779.454 196.831 778.837 196.339 778.344 195.736C777.881 194.927 777.664 194.002 777.719 193.073C777.775 192.143 778.1 191.25 778.655 190.502C779.795 189.013 781.223 187.769 782.854 186.842" fill="#ED9482"/>
<path d="M781.131 184.078C781.809 184.078 781.828 188.617 785.751 191.856C789.674 195.095 794.551 194.601 794.588 195.241C794.588 195.534 793.506 196.138 791.434 196.193C788.765 196.219 786.171 195.313 784.101 193.631C782.076 192.01 780.762 189.668 780.434 187.098C780.306 185.25 780.819 184.042 781.131 184.078Z" fill="#263238"/>
<path d="M780.122 142.483C779.701 143.618 775.484 143.087 770.534 143.672C765.584 144.258 761.551 145.631 760.909 144.587C760.616 144.112 761.313 143.032 762.926 141.916C765.088 140.554 767.532 139.702 770.073 139.423C772.614 139.144 775.186 139.445 777.593 140.305C779.389 141.037 780.306 141.934 780.122 142.483Z" fill="#263238"/>
<path d="M818.216 139.5C817.465 140.47 814.55 139.5 811.048 139.5C807.547 139.5 804.595 140.14 803.916 139.134C803.605 138.658 804.082 137.688 805.365 136.791C807.106 135.704 809.131 135.156 811.184 135.218C813.236 135.28 815.225 135.949 816.896 137.139C818.143 138.091 818.546 139.079 818.216 139.5Z" fill="#263238"/>
<path d="M807.273 101.472C806.129 106.889 803.91 112.023 800.747 116.57C797.584 121.118 793.54 124.987 788.855 127.949C784.17 130.912 778.938 132.908 773.467 133.82C767.997 134.732 762.399 134.541 757.003 133.259C756.117 139.976 753.51 146.351 749.434 151.768C745.359 157.186 739.953 161.463 733.738 164.186C742.216 179.527 745.671 197.13 743.62 214.53C742.722 221.85 740.577 229.664 735.003 234.66C726.497 242.273 712.16 240.424 703.983 232.482C696.137 224.851 693.368 212.919 695.587 202.214C697.805 191.508 704.533 182.084 712.985 175.203C709.425 174.595 706.105 173.007 703.399 170.618C700.693 168.229 698.709 165.134 697.669 161.681C696.629 158.228 696.574 154.554 697.512 151.072C698.449 147.59 700.341 144.438 702.975 141.97C705.377 139.701 708.475 138.017 710.308 135.254C712.142 132.491 712.435 129.416 713.48 126.47C716.212 118.766 723.105 113.441 729.668 108.536C735.168 104.4 741.328 100.082 748.258 100.1C751.925 100.1 755.592 101.381 759.258 100.887C764.3 100.21 768.242 96.3849 772.403 93.5667C778.193 89.2657 785.395 87.3049 792.57 88.0767C799.665 89.193 806.283 94.4818 807.622 101.509" fill="#263238"/>
<path d="M804.542 104.492C803.46 110.403 806.375 116.46 810.812 120.596C815.248 124.732 820.73 127.294 826.212 129.746C824.301 123.932 821.632 118.394 818.273 113.276C816.579 110.705 814.391 108.495 811.836 106.774C809.281 105.053 806.409 103.854 803.387 103.248" fill="#263238"/>
<path d="M669.827 174.983C669.618 174.366 669.561 173.706 669.662 173.062C669.934 171.193 670.919 169.501 672.412 168.34C674.826 166.586 677.801 165.779 680.772 166.071C684.2 166.071 687.995 167.206 692.194 166.95C694.465 166.759 696.659 166.035 698.597 164.835C700.534 163.636 702.159 161.997 703.34 160.051C704.65 157.875 705.37 155.396 705.43 152.859C705.614 150.242 705.43 147.497 705.522 144.642C705.55 141.649 706.483 138.734 708.199 136.279C710.108 133.827 712.64 131.932 715.532 130.789C721.307 128.172 727.889 128.135 734.195 126.964C737.325 126.455 740.34 125.402 743.105 123.853C745.696 122.206 747.943 120.075 749.724 117.576C753.299 112.672 755.7 107.2 758.982 102.534C762.926 96.6733 768.729 92.3058 775.458 90.132C782.187 87.9583 789.453 88.1045 796.089 90.5471C798.841 91.539 801.439 92.9128 803.807 94.628C805.86 96.0373 807.684 97.7532 809.215 99.7154C809.082 99.6192 808.959 99.5088 808.849 99.386L807.84 98.3795C806.521 97.1242 805.105 95.9739 803.605 94.9391C798.046 91.1127 791.419 89.134 784.667 89.2844C779.711 89.4526 774.864 90.7867 770.522 93.178C766.18 95.5694 762.464 98.9505 759.679 103.046C756.47 107.621 754.087 113.093 750.512 118.144C748.663 120.744 746.321 122.957 743.619 124.658C740.78 126.273 737.676 127.37 734.452 127.897C727.999 129.087 721.619 129.124 715.972 131.557C713.232 132.647 710.828 134.44 709.005 136.755C707.381 139.06 706.498 141.805 706.475 144.624C706.31 147.387 706.475 150.114 706.347 152.84C706.256 155.511 705.479 158.113 704.092 160.398C702.839 162.436 701.118 164.146 699.072 165.387C697.025 166.628 694.711 167.365 692.322 167.535C687.94 167.755 684.164 166.62 680.809 166.529C677.95 166.194 675.067 166.917 672.705 168.56C671.254 169.652 670.261 171.244 669.919 173.025C669.806 173.671 669.775 174.329 669.827 174.983Z" fill="#FAFAFA"/>
<path d="M715.367 316.241L717.311 364.992L722.224 411.657L774.162 409.443L770.422 317.303L715.367 316.241Z" fill="#263238"/>
<path d="M707.742 316.077L709.686 364.993L714.599 411.658L766.537 409.443L762.797 317.156L707.742 316.077Z" fill="#455A64"/>
<path d="M702.866 417.367C716.65 416.74 730.383 415.274 743.988 412.975C760.084 410.395 759.919 408.949 759.351 407.101C757.811 402.16 730.861 410.541 735.701 405.381C740.541 400.22 769.746 398.976 767.913 393.888C765.548 387.245 737.479 396.542 735.059 397.146C732.639 397.75 731.759 394.254 733.978 393.815C737.168 393.193 770.516 385.836 768.243 379.285C766.996 375.625 760.708 378.699 760.708 378.699C760.708 378.699 729.944 387.849 728.973 384.793C728.001 381.737 745.894 375.643 752.054 373.996C758.214 372.349 759.956 368.854 757.078 366.676C755.116 365.231 736.123 369.677 730.073 371.416C724.023 373.154 707.449 378.169 713.756 369.019C713.866 368.872 713.939 368.726 714.031 368.579C720.503 359.759 722.538 350.81 721.364 347.809C720.191 344.808 716.103 345.082 714.544 347.809C714.238 348.249 714.026 348.747 713.921 349.273C713.921 349.511 713.756 349.822 713.683 350.078C712.185 353.495 710.342 356.751 708.183 359.795C706.285 362.575 703.923 365.008 701.198 366.987C698.063 369.275 690.198 377.656 687.723 379.139" fill="#FFAD9D"/>
<path d="M690.966 376.448L718.429 417.367L673.164 463.446L674.704 388.709L690.966 376.448Z" fill="#016A70"/>
</g>
</svg>
