<svg width="54" height="54" viewBox="0 0 54 54" fill="none" xmlns="http://www.w3.org/2000/svg">
<path d="M14.0399 4.32031C7.49156 4.32031 2.15991 9.65196 2.15991 16.2003C2.15991 22.7487 7.49156 28.0803 14.0399 28.0803C20.5883 28.0803 25.9199 22.7487 25.9199 16.2003C25.9199 9.65196 20.5883 4.32031 14.0399 4.32031ZM39.9599 4.32031C33.4116 4.32031 28.0799 9.65196 28.0799 16.2003C28.0799 22.7487 33.4116 28.0803 39.9599 28.0803C46.5083 28.0803 51.8399 22.7487 51.8399 16.2003C51.8399 9.65196 46.5083 4.32031 39.9599 4.32031ZM14.0399 6.48031C19.4209 6.48031 23.7599 10.8193 23.7599 16.2003C23.7599 21.5813 19.4209 25.9203 14.0399 25.9203C8.65891 25.9203 4.31991 21.5813 4.31991 16.2003C4.31991 10.8193 8.65891 6.48031 14.0399 6.48031ZM39.9599 6.48031C45.3409 6.48031 49.6799 10.8193 49.6799 16.2003C49.6799 21.5813 45.3409 25.9203 39.9599 25.9203C34.5789 25.9203 30.2399 21.5813 30.2399 16.2003C30.2399 10.8193 34.5789 6.48031 39.9599 6.48031ZM10.2599 10.8003C9.83026 10.8003 9.41821 10.971 9.1144 11.2748C8.81059 11.5786 8.63991 11.9907 8.63991 12.4203C8.63991 12.85 8.81059 13.262 9.1144 13.5658C9.41821 13.8696 9.83026 14.0403 10.2599 14.0403C10.6896 14.0403 11.1016 13.8696 11.4054 13.5658C11.7092 13.262 11.8799 12.85 11.8799 12.4203C11.8799 11.9907 11.7092 11.5786 11.4054 11.2748C11.1016 10.971 10.6896 10.8003 10.2599 10.8003ZM17.8199 10.8003C17.3903 10.8003 16.9782 10.971 16.6744 11.2748C16.3706 11.5786 16.1999 11.9907 16.1999 12.4203C16.1999 12.85 16.3706 13.262 16.6744 13.5658C16.9782 13.8696 17.3903 14.0403 17.8199 14.0403C18.2496 14.0403 18.6616 13.8696 18.9654 13.5658C19.2692 13.262 19.4399 12.85 19.4399 12.4203C19.4399 11.9907 19.2692 11.5786 18.9654 11.2748C18.6616 10.971 18.2496 10.8003 17.8199 10.8003ZM36.1799 10.8003C35.7503 10.8003 35.3382 10.971 35.0344 11.2748C34.7306 11.5786 34.5599 11.9907 34.5599 12.4203C34.5599 12.85 34.7306 13.262 35.0344 13.5658C35.3382 13.8696 35.7503 14.0403 36.1799 14.0403C36.6096 14.0403 37.0216 13.8696 37.3254 13.5658C37.6292 13.262 37.7999 12.85 37.7999 12.4203C37.7999 11.9907 37.6292 11.5786 37.3254 11.2748C37.0216 10.971 36.6096 10.8003 36.1799 10.8003ZM43.7399 10.8003C43.3103 10.8003 42.8982 10.971 42.5944 11.2748C42.2906 11.5786 42.1199 11.9907 42.1199 12.4203C42.1199 12.85 42.2906 13.262 42.5944 13.5658C42.8982 13.8696 43.3103 14.0403 43.7399 14.0403C44.1696 14.0403 44.5816 13.8696 44.8854 13.5658C45.1892 13.262 45.3599 12.85 45.3599 12.4203C45.3599 11.9907 45.1892 11.5786 44.8854 11.2748C44.5816 10.971 44.1696 10.8003 43.7399 10.8003ZM35.6842 17.2677C35.4876 17.267 35.2945 17.3201 35.1258 17.4212C34.9572 17.5222 34.8193 17.6674 34.727 17.841C34.6348 18.0147 34.5917 18.2102 34.6024 18.4065C34.6131 18.6029 34.6772 18.7926 34.7877 18.9552C35.8639 20.5898 37.8163 21.6214 40.0063 21.6214C42.1633 21.6214 44.0855 20.6197 45.1722 19.0269C45.2593 18.9101 45.3218 18.777 45.3561 18.6354C45.3904 18.4939 45.3958 18.3469 45.3718 18.2032C45.3478 18.0596 45.295 17.9223 45.2166 17.7995C45.1382 17.6768 45.0358 17.5712 44.9155 17.4891C44.7952 17.4069 44.6596 17.35 44.5167 17.3216C44.3739 17.2933 44.2268 17.2941 44.0842 17.324C43.9417 17.354 43.8067 17.4125 43.6874 17.4959C43.568 17.5794 43.4668 17.6862 43.3898 17.8098C42.7419 18.7593 41.489 19.4614 40.0063 19.4614C38.5006 19.4614 37.2322 18.7358 36.5933 17.7655C36.4957 17.6129 36.3613 17.4874 36.2024 17.4004C36.0435 17.3134 35.8653 17.2678 35.6842 17.2677ZM14.0462 17.2803C11.8893 17.2803 9.96494 18.2821 8.87827 19.8748C8.79119 19.9916 8.72861 20.1247 8.69431 20.2663C8.66 20.4078 8.65468 20.5548 8.67866 20.6985C8.70263 20.8421 8.75542 20.9795 8.83383 21.1022C8.91224 21.2249 9.01466 21.3305 9.13494 21.4127C9.25522 21.4948 9.39086 21.5518 9.53372 21.5801C9.67657 21.6085 9.82368 21.6076 9.96621 21.5777C10.1087 21.5477 10.2437 21.4893 10.3631 21.4058C10.4824 21.3223 10.5837 21.2156 10.6607 21.092C11.3085 20.1424 12.5636 19.4403 14.0462 19.4403C15.552 19.4403 16.8182 20.1638 17.4571 21.1341C17.6146 21.3736 17.8607 21.5407 18.1414 21.5986C18.4221 21.6566 18.7143 21.6006 18.9537 21.4432C19.1931 21.2857 19.3602 21.0395 19.4182 20.7589C19.4761 20.4782 19.4202 20.186 19.2627 19.9466C18.1865 18.312 16.2362 17.2803 14.0462 17.2803ZM26.9999 29.1603C17.2493 29.1603 9.10635 35.9889 7.03257 45.122C6.99473 45.2625 6.98568 45.4092 7.00595 45.5532C7.02622 45.6973 7.07539 45.8358 7.15052 45.9605C7.22564 46.0851 7.32518 46.1932 7.44314 46.2784C7.5611 46.3636 7.69506 46.4241 7.83697 46.4562C7.97889 46.4884 8.12583 46.4915 8.26899 46.4654C8.41215 46.4394 8.54856 46.3847 8.67004 46.3046C8.79153 46.2245 8.89557 46.1207 8.97594 45.9994C9.05631 45.8781 9.11134 45.7418 9.13772 45.5987C10.993 37.428 18.2566 31.3203 26.9999 31.3203C35.7432 31.3203 43.0068 37.428 44.8621 45.5987C44.8885 45.7418 44.9435 45.8781 45.0239 45.9994C45.1043 46.1207 45.2083 46.2245 45.3298 46.3046C45.4513 46.3847 45.5877 46.4394 45.7308 46.4654C45.874 46.4915 46.0209 46.4884 46.1629 46.4562C46.3048 46.4241 46.4387 46.3636 46.5567 46.2784C46.6746 46.1932 46.7742 46.0851 46.8493 45.9605C46.9244 45.8358 46.9736 45.6973 46.9939 45.5532C47.0141 45.4092 47.0051 45.2625 46.9673 45.122C44.8935 35.9889 36.7505 29.1603 26.9999 29.1603ZM26.9999 33.4803C26.7135 33.4803 26.4388 33.5941 26.2362 33.7966C26.0337 33.9992 25.9199 34.2739 25.9199 34.5603C25.9199 34.8467 26.0337 35.1214 26.2362 35.324C26.4388 35.5265 26.7135 35.6403 26.9999 35.6403C27.2863 35.6403 27.5611 35.5265 27.7636 35.324C27.9661 35.1214 28.0799 34.8467 28.0799 34.5603C28.0799 34.2739 27.9661 33.9992 27.7636 33.7966C27.5611 33.5941 27.2863 33.4803 26.9999 33.4803ZM19.4399 35.6403C19.1535 35.6403 18.8788 35.7541 18.6762 35.9566C18.4737 36.1592 18.3599 36.4339 18.3599 36.7203C18.3599 37.0067 18.4737 37.2814 18.6762 37.484C18.8788 37.6865 19.1535 37.8003 19.4399 37.8003C19.7263 37.8003 20.001 37.6865 20.2036 37.484C20.4061 37.2814 20.5199 37.0067 20.5199 36.7203C20.5199 36.4339 20.4061 36.1592 20.2036 35.9566C20.001 35.7541 19.7263 35.6403 19.4399 35.6403ZM34.5599 35.6403C34.2735 35.6403 33.9988 35.7541 33.7962 35.9566C33.5937 36.1592 33.4799 36.4339 33.4799 36.7203C33.4799 37.0067 33.5937 37.2814 33.7962 37.484C33.9988 37.6865 34.2735 37.8003 34.5599 37.8003C34.8463 37.8003 35.1211 37.6865 35.3236 37.484C35.5261 37.2814 35.6399 37.0067 35.6399 36.7203C35.6399 36.4339 35.5261 36.1592 35.3236 35.9566C35.1211 35.7541 34.8463 35.6403 34.5599 35.6403ZM30.2399 36.7203L25.0424 47.6891H25.0466C24.917 47.9666 24.8399 48.2742 24.8399 48.6003C24.8399 49.7937 25.8065 50.7603 26.9999 50.7603C28.0724 50.7603 28.9545 49.9764 29.1241 48.9526L29.1262 48.9547L29.1451 48.7585C29.1484 48.7045 29.1599 48.6543 29.1599 48.6003C29.1599 48.5971 29.1578 48.5919 29.1578 48.5919L30.2399 36.7203ZM14.0399 41.0403C13.7535 41.0403 13.4788 41.1541 13.2762 41.3566C13.0737 41.5592 12.9599 41.8339 12.9599 42.1203C12.9599 42.4067 13.0737 42.6814 13.2762 42.884C13.4788 43.0865 13.7535 43.2003 14.0399 43.2003C14.3263 43.2003 14.601 43.0865 14.8036 42.884C15.0061 42.6814 15.1199 42.4067 15.1199 42.1203C15.1199 41.8339 15.0061 41.5592 14.8036 41.3566C14.601 41.1541 14.3263 41.0403 14.0399 41.0403ZM39.9599 41.0403C39.6735 41.0403 39.3988 41.1541 39.1962 41.3566C38.9937 41.5592 38.8799 41.8339 38.8799 42.1203C38.8799 42.4067 38.9937 42.6814 39.1962 42.884C39.3988 43.0865 39.6735 43.2003 39.9599 43.2003C40.2463 43.2003 40.521 43.0865 40.7236 42.884C40.9261 42.6814 41.0399 42.4067 41.0399 42.1203C41.0399 41.8339 40.9261 41.5592 40.7236 41.3566C40.521 41.1541 40.2463 41.0403 39.9599 41.0403Z" fill="white"/>
</svg>
