<svg width="50" height="50" viewBox="0 0 50 50" fill="none" xmlns="http://www.w3.org/2000/svg">
<g clip-path="url(#clip0_6831_4021)">
<path d="M23 0C15.7738 0 10.4456 2.491 7 6.40039C3.55444 10.3098 2 15.5595 2 21C2 25.4056 3.36599 29.507 5.67578 32.8672C7.76961 35.9132 9 39.5237 9 43.1992V49H11V43.1992C11 39.0787 9.62839 35.0864 7.32422 31.7344C5.23601 28.6965 4 24.9924 4 21C4 15.9405 5.44556 11.1902 8.5 7.72461C11.5544 4.259 16.2262 2 23 2C29.8024 2 34.2054 3.9786 37.1152 7.00586C40.025 10.0331 41.4731 14.2056 42.0078 18.7188L42.0312 18.9258L46.8242 27.1855C47.0726 27.6356 46.9488 28.0786 46.5156 28.3223L42 30.5801V36.6016C42 40.3399 38.9198 43.2508 35.1953 42.9023L35.1797 42.9004L31 42.6328V49H33V44.7656L35.0098 44.8945C39.8793 45.3501 44 41.4572 44 36.6016V31.8164L47.4668 30.084L47.4863 30.0723C48.845 29.3158 49.3236 27.5666 48.5742 26.2148L48.5684 26.2051L43.9219 18.1992C43.3262 13.5168 41.8051 8.99862 38.5586 5.62109C35.2439 2.1726 30.1976 0 23 0ZM23 7C15.8321 7 10 12.8321 10 20C10 27.1679 15.8321 33 23 33C30.1679 33 36 27.1679 36 20C36 12.8321 30.1679 7 23 7ZM23 9C29.087 9 34 13.913 34 20C34 26.087 29.087 31 23 31C16.913 31 12 26.087 12 20C12 13.913 16.913 9 23 9ZM22.9844 10.9863C22.7195 10.9905 22.4671 11.0995 22.2825 11.2896C22.098 11.4796 21.9964 11.7351 22 12V18.2695C21.6195 18.49 21.3223 18.8298 21.1543 19.2362C20.9864 19.6426 20.9571 20.0931 21.0709 20.5178C21.1848 20.9426 21.4355 21.318 21.7842 21.5859C22.1329 21.8539 22.5602 21.9994 23 22C23.2655 22 23.5283 21.9472 23.7731 21.8446C24.018 21.7421 24.2399 21.5918 24.4261 21.4025C24.6122 21.2133 24.7589 20.9889 24.8574 20.7424C24.9559 20.4959 25.0044 20.2322 25 19.9668L28.5137 17.8574C28.6311 17.7924 28.7342 17.7045 28.8169 17.5988C28.8997 17.4931 28.9602 17.3718 28.9951 17.2422C29.03 17.1126 29.0384 16.9773 29.0198 16.8444C29.0013 16.7114 28.9562 16.5836 28.8872 16.4685C28.8183 16.3533 28.7268 16.2533 28.6184 16.1742C28.5099 16.0952 28.3866 16.0387 28.2559 16.0083C28.1252 15.9779 27.9897 15.9741 27.8575 15.9972C27.7253 16.0203 27.599 16.0697 27.4863 16.1426L24 18.2344V12C24.0018 11.8662 23.9768 11.7334 23.9264 11.6095C23.876 11.4855 23.8012 11.373 23.7065 11.2784C23.6118 11.1839 23.4991 11.1094 23.375 11.0592C23.251 11.009 23.1182 10.9842 22.9844 10.9863Z" fill="white"/>
</g>
<defs>
<clipPath id="clip0_6831_4021">
<rect width="50" height="50" fill="white"/>
</clipPath>
</defs>
</svg>
