<svg width="54" height="54" viewBox="0 0 54 54" fill="none" xmlns="http://www.w3.org/2000/svg">
<g clip-path="url(#clip0_6831_3826)">
<g clip-path="url(#clip1_6831_3826)">
<path d="M20.9249 8.09961C18.3225 8.09961 16.2 10.2222 16.2 12.8246C16.2 15.4271 18.3225 17.5496 20.9249 17.5496C23.5274 17.5496 25.65 15.4271 25.65 12.8246C25.65 10.2222 23.5274 8.09961 20.9249 8.09961ZM33.0749 8.09961C30.4725 8.09961 28.3499 10.2222 28.3499 12.8246C28.3499 15.4271 30.4725 17.5496 33.0749 17.5496C35.6774 17.5496 37.7999 15.4271 37.7999 12.8246C37.7999 10.2222 35.6774 8.09961 33.0749 8.09961ZM20.9249 9.44961C22.797 9.44961 24.2999 10.9525 24.2999 12.8246C24.2999 14.6967 22.797 16.1996 20.9249 16.1996C19.0529 16.1996 17.5499 14.6967 17.5499 12.8246C17.5499 10.9525 19.0529 9.44961 20.9249 9.44961ZM33.0749 9.44961C34.947 9.44961 36.4499 10.9525 36.4499 12.8246C36.4499 14.6967 34.947 16.1996 33.0749 16.1996C31.2029 16.1996 29.6999 14.6967 29.6999 12.8246C29.6999 10.9525 31.2029 9.44961 33.0749 9.44961ZM12.15 16.1996C9.17573 16.1996 6.74995 18.6254 6.74995 21.5996C6.74995 24.5738 9.17573 26.9996 12.15 26.9996C15.1242 26.9996 17.5499 24.5738 17.5499 21.5996C17.5499 18.6254 15.1242 16.1996 12.15 16.1996ZM41.8499 16.1996C38.8757 16.1996 36.4499 18.6254 36.4499 21.5996C36.4499 24.5738 38.8757 26.9996 41.8499 26.9996C44.8242 26.9996 47.2499 24.5738 47.2499 21.5996C47.2499 18.6254 44.8242 16.1996 41.8499 16.1996ZM12.15 17.5496C14.3938 17.5496 16.2 19.3558 16.2 21.5996C16.2 23.8435 14.3938 25.6496 12.15 25.6496C9.9061 25.6496 8.09995 23.8435 8.09995 21.5996C8.09995 19.3558 9.9061 17.5496 12.15 17.5496ZM41.8499 17.5496C44.0938 17.5496 45.8999 19.3558 45.8999 21.5996C45.8999 23.8435 44.0938 25.6496 41.8499 25.6496C39.6061 25.6496 37.7999 23.8435 37.7999 21.5996C37.7999 21.4599 37.8079 21.3201 37.821 21.1856C38.0267 19.1369 39.7458 17.5496 41.8499 17.5496ZM27 20.9246C23.654 20.9246 20.9249 23.6536 20.9249 26.9996C20.9249 30.3456 23.654 33.0746 27 33.0746C30.3459 33.0746 33.0749 30.3456 33.0749 26.9996C33.0749 23.6536 30.3459 20.9246 27 20.9246ZM27 22.2746C29.6182 22.2746 31.7249 24.3813 31.7249 26.9996C31.7249 29.6179 29.6182 31.7246 27 31.7246C24.3817 31.7246 22.275 29.6179 22.275 26.9996C22.275 24.3813 24.3817 22.2746 27 22.2746ZM12.15 28.3496C6.95562 28.3496 2.69995 32.6053 2.69995 37.7996V40.4996H17.7319C17.1834 41.7415 16.875 43.11 16.875 44.5496V47.2496H37.125V44.5496C37.125 43.11 36.8165 41.7415 36.268 40.4996H51.2999V37.7996C51.2999 32.6053 47.0443 28.3496 41.8499 28.3496C38.3906 28.3496 35.3531 30.2375 33.7078 33.0324C33.1593 33.9711 32.7744 35.0126 32.5713 36.1147C30.9708 35.0495 29.0566 34.4246 27 34.4246C24.9433 34.4246 23.0291 35.0495 21.4286 36.1147C20.6244 31.7167 16.7668 28.3496 12.15 28.3496ZM12.15 29.6996C16.3661 29.6996 19.8307 32.9612 20.1972 37.0851C19.5301 37.6941 18.9448 38.385 18.4596 39.1496H4.04995V37.7996C4.04995 33.3409 7.69126 29.6996 12.15 29.6996ZM41.8499 29.6996C46.3086 29.6996 49.9499 33.3409 49.9499 37.7996V39.1496H35.5403C35.0551 38.385 34.4698 37.6941 33.8027 37.0851C34.1692 32.9612 37.6338 29.6996 41.8499 29.6996ZM27 35.7746C31.8304 35.7746 35.7749 39.7191 35.7749 44.5496V45.8996H18.2249V44.5496C18.2249 39.7191 22.1695 35.7746 27 35.7746ZM5.39995 36.4496C5.02817 36.4496 4.72495 36.7528 4.72495 37.1246C4.72495 37.4964 5.02817 37.7996 5.39995 37.7996C5.77173 37.7996 6.07495 37.4964 6.07495 37.1246C6.07495 36.7528 5.77173 36.4496 5.39995 36.4496ZM8.09995 36.4496C7.72817 36.4496 7.42495 36.7528 7.42495 37.1246C7.42495 37.4964 7.72817 37.7996 8.09995 37.7996C8.47173 37.7996 8.77495 37.4964 8.77495 37.1246C8.77495 36.7528 8.47173 36.4496 8.09995 36.4496ZM10.8 36.4496C10.4282 36.4496 10.125 36.7528 10.125 37.1246C10.125 37.4964 10.4282 37.7996 10.8 37.7996C11.1717 37.7996 11.475 37.4964 11.475 37.1246C11.475 36.7528 11.1717 36.4496 10.8 36.4496ZM13.5 36.4496C13.1282 36.4496 12.825 36.7528 12.825 37.1246C12.825 37.4964 13.1282 37.7996 13.5 37.7996C13.8717 37.7996 14.175 37.4964 14.175 37.1246C14.175 36.7528 13.8717 36.4496 13.5 36.4496ZM16.2 36.4496C15.8282 36.4496 15.525 36.7528 15.525 37.1246C15.525 37.4964 15.8282 37.7996 16.2 37.7996C16.5717 37.7996 16.875 37.4964 16.875 37.1246C16.875 36.7528 16.5717 36.4496 16.2 36.4496ZM18.9 36.4496C18.5282 36.4496 18.2249 36.7528 18.2249 37.1246C18.2249 37.4964 18.5282 37.7996 18.9 37.7996C19.2717 37.7996 19.5749 37.4964 19.5749 37.1246C19.5749 36.7528 19.2717 36.4496 18.9 36.4496ZM35.0999 36.4496C34.7282 36.4496 34.4249 36.7528 34.4249 37.1246C34.4249 37.4964 34.7282 37.7996 35.0999 37.7996C35.4717 37.7996 35.7749 37.4964 35.7749 37.1246C35.7749 36.7528 35.4717 36.4496 35.0999 36.4496ZM37.7999 36.4496C37.4282 36.4496 37.125 36.7528 37.125 37.1246C37.125 37.4964 37.4282 37.7996 37.7999 37.7996C38.1717 37.7996 38.4749 37.4964 38.4749 37.1246C38.4749 36.7528 38.1717 36.4496 37.7999 36.4496ZM40.4999 36.4496C40.1282 36.4496 39.8249 36.7528 39.8249 37.1246C39.8249 37.4964 40.1282 37.7996 40.4999 37.7996C40.8717 37.7996 41.1749 37.4964 41.1749 37.1246C41.1749 36.7528 40.8717 36.4496 40.4999 36.4496ZM43.1999 36.4496C42.8282 36.4496 42.5249 36.7528 42.5249 37.1246C42.5249 37.4964 42.8282 37.7996 43.1999 37.7996C43.5717 37.7996 43.8749 37.4964 43.8749 37.1246C43.8749 36.7528 43.5717 36.4496 43.1999 36.4496ZM45.8999 36.4496C45.5282 36.4496 45.2249 36.7528 45.2249 37.1246C45.2249 37.4964 45.5282 37.7996 45.8999 37.7996C46.2717 37.7996 46.5749 37.4964 46.5749 37.1246C46.5749 36.7528 46.2717 36.4496 45.8999 36.4496ZM48.5999 36.4496C48.2282 36.4496 47.9249 36.7528 47.9249 37.1246C47.9249 37.4964 48.2282 37.7996 48.5999 37.7996C48.9717 37.7996 49.2749 37.4964 49.2749 37.1246C49.2749 36.7528 48.9717 36.4496 48.5999 36.4496ZM20.25 43.1996C19.8782 43.1996 19.5749 43.5028 19.5749 43.8746C19.5749 44.2464 19.8782 44.5496 20.25 44.5496C20.6217 44.5496 20.9249 44.2464 20.9249 43.8746C20.9249 43.5028 20.6217 43.1996 20.25 43.1996ZM22.9499 43.1996C22.5782 43.1996 22.275 43.5028 22.275 43.8746C22.275 44.2464 22.5782 44.5496 22.9499 44.5496C23.3217 44.5496 23.625 44.2464 23.625 43.8746C23.625 43.5028 23.3217 43.1996 22.9499 43.1996ZM25.65 43.1996C25.2782 43.1996 24.9749 43.5028 24.9749 43.8746C24.9749 44.2464 25.2782 44.5496 25.65 44.5496C26.0217 44.5496 26.3249 44.2464 26.3249 43.8746C26.3249 43.5028 26.0217 43.1996 25.65 43.1996ZM28.3499 43.1996C27.9782 43.1996 27.6749 43.5028 27.6749 43.8746C27.6749 44.2464 27.9782 44.5496 28.3499 44.5496C28.7217 44.5496 29.025 44.2464 29.025 43.8746C29.025 43.5028 28.7217 43.1996 28.3499 43.1996ZM31.0499 43.1996C30.6782 43.1996 30.3749 43.5028 30.3749 43.8746C30.3749 44.2464 30.6782 44.5496 31.0499 44.5496C31.4217 44.5496 31.7249 44.2464 31.7249 43.8746C31.7249 43.5028 31.4217 43.1996 31.0499 43.1996ZM33.7499 43.1996C33.3782 43.1996 33.0749 43.5028 33.0749 43.8746C33.0749 44.2464 33.3782 44.5496 33.7499 44.5496C34.1217 44.5496 34.4249 44.2464 34.4249 43.8746C34.4249 43.5028 34.1217 43.1996 33.7499 43.1996Z" fill="white"/>
</g>
</g>
<defs>
<clipPath id="clip0_6831_3826">
<rect width="54" height="54" fill="white"/>
</clipPath>
<clipPath id="clip1_6831_3826">
<rect width="54" height="54" fill="white"/>
</clipPath>
</defs>
</svg>
