<svg width="54" height="54" viewBox="0 0 54 54" fill="none" xmlns="http://www.w3.org/2000/svg">
<g clip-path="url(#clip0_6831_3765)">
<g clip-path="url(#clip1_6831_3765)">
<path d="M27.0001 4.72461C14.7051 4.72461 4.7251 14.7046 4.7251 26.9996C4.7251 39.2946 14.7051 49.2746 27.0001 49.2746C39.2951 49.2746 49.2751 39.2946 49.2751 26.9996C49.2751 14.7046 39.2951 4.72461 27.0001 4.72461ZM27.0001 6.07461C38.5647 6.07461 47.9251 15.435 47.9251 26.9996C47.9251 38.5643 38.5647 47.9246 27.0001 47.9246C15.4354 47.9246 6.0751 38.5643 6.0751 26.9996C6.0751 15.435 15.4354 6.07461 27.0001 6.07461ZM27.0001 8.09961C26.6283 8.09961 26.3251 8.40283 26.3251 8.77461C26.3251 9.14639 26.6283 9.44961 27.0001 9.44961C27.3719 9.44961 27.6751 9.14639 27.6751 8.77461C27.6751 8.40283 27.3719 8.09961 27.0001 8.09961ZM30.5729 8.44766C30.2433 8.43975 29.9585 8.66914 29.8926 8.99346C29.8214 9.35732 30.0587 9.71328 30.4252 9.78711C30.7891 9.8583 31.145 9.621 31.2188 9.25713C31.29 8.89062 31.0527 8.53467 30.6889 8.46084C30.6493 8.45557 30.6124 8.45029 30.5729 8.44766ZM23.4484 8.45029C23.4036 8.45029 23.3588 8.45293 23.314 8.46084C22.9475 8.53467 22.7102 8.89062 22.784 9.25713C22.8183 9.43115 22.9211 9.58672 23.0714 9.68691C23.219 9.78447 23.401 9.82139 23.5776 9.78711C23.9441 9.71328 24.1814 9.35996 24.1076 8.99346C24.0443 8.67969 23.7701 8.45293 23.4484 8.45029ZM20.0312 9.48652C19.9416 9.48652 19.852 9.50234 19.7676 9.53662C19.4222 9.68164 19.2587 10.0745 19.4037 10.4199C19.5461 10.7653 19.939 10.9288 20.2844 10.7864C20.6298 10.6414 20.7933 10.2485 20.6509 9.90313C20.5454 9.65264 20.3028 9.48916 20.0312 9.48652ZM33.99 9.48652C33.7105 9.48125 33.4574 9.64473 33.3493 9.90313C33.2069 10.2485 33.3704 10.6414 33.7158 10.7864C34.0612 10.9288 34.4541 10.7653 34.5965 10.4199C34.7415 10.0745 34.578 9.68164 34.2326 9.53662C34.1562 9.50498 34.0718 9.48916 33.99 9.48652ZM16.883 11.1688C16.7459 11.1688 16.6114 11.2083 16.498 11.2848C16.1896 11.4904 16.1052 11.9097 16.3135 12.2208C16.5191 12.5293 16.9384 12.6137 17.2495 12.4054C17.5606 12.1997 17.6424 11.7805 17.4367 11.472C17.3128 11.2848 17.1045 11.1714 16.883 11.1688ZM37.1356 11.1688C36.9062 11.1661 36.69 11.2795 36.5635 11.472C36.3552 11.7805 36.4396 12.1997 36.748 12.4054C37.0592 12.6137 37.4784 12.5293 37.6841 12.2208C37.7843 12.0731 37.8212 11.8886 37.7869 11.7146C37.7526 11.5379 37.6498 11.3823 37.4995 11.2848C37.3914 11.2109 37.2675 11.1714 37.1356 11.1688ZM23.6251 12.8246V17.3914L20.5612 23.6246H16.8751V24.9746H21.4023L24.9751 17.7078V14.1746H25.1518C25.6896 14.1746 26.3225 14.6018 26.8313 15.377C27.3402 16.1495 27.6751 17.2147 27.6751 18.1692C27.6751 18.2431 27.6382 18.6597 27.5749 19.1316C27.5116 19.6062 27.4299 20.1784 27.3455 20.7269C27.1768 21.829 27.0106 22.8389 27.0106 22.8389L26.8788 23.6246H36.7876C37.3545 23.6246 37.8001 24.0702 37.8001 24.6371C37.8001 25.204 37.3545 25.6496 36.7876 25.6496H36.1126L35.9992 26.9891C35.9992 26.9891 36.3156 27.0497 36.6162 27.2237C36.9168 27.4004 37.1251 27.5797 37.1251 28.0121C37.1251 28.5922 36.6848 29.0246 36.1126 29.0246H35.4376L35.3269 30.3641C35.3269 30.3641 35.6406 30.4221 35.9412 30.5987C36.2418 30.7754 36.4501 30.9547 36.4501 31.3871C36.4501 31.954 36.0045 32.3996 35.4376 32.3996H34.7626L34.6993 33.747C34.6993 33.747 34.9973 33.7812 35.282 33.9395C35.5668 34.095 35.7751 34.2479 35.7751 34.7621C35.7751 35.329 35.3295 35.7746 34.7626 35.7746H22.9501C22.3595 35.7746 21.8717 35.4002 21.6845 34.8755L21.5263 34.4246H16.8751V35.7746H20.7511C21.2257 36.5419 21.9851 37.1246 22.9501 37.1246H34.7626C36.0599 37.1246 37.1251 36.0594 37.1251 34.7621C37.1251 34.182 36.901 33.7417 36.6188 33.3831C37.3097 32.9718 37.8001 32.2467 37.8001 31.3871C37.8001 30.8097 37.5602 30.3799 37.2648 30.0266C37.9741 29.6179 38.4751 28.8849 38.4751 28.0121C38.4751 27.4347 38.2352 27.0049 37.9398 26.6516C38.6491 26.2429 39.1501 25.5072 39.1501 24.6371C39.1501 23.3398 38.0849 22.2746 36.7876 22.2746H28.4661C28.5294 21.8791 28.5716 21.6313 28.6797 20.9325C28.7641 20.3762 28.8511 19.7987 28.9144 19.3083C28.9776 18.8179 29.0251 18.454 29.0251 18.1692C29.0251 16.9142 28.6217 15.6433 27.9599 14.636C27.298 13.6262 26.333 12.8246 25.1518 12.8246H23.6251ZM14.1224 13.4363C13.9404 13.4363 13.7638 13.5075 13.6372 13.6367C13.3735 13.8978 13.3735 14.3275 13.6372 14.5886C13.8982 14.8522 14.328 14.8522 14.5891 14.5886C14.8527 14.3275 14.8527 13.8978 14.5891 13.6367C14.4651 13.5102 14.299 13.439 14.1224 13.4363ZM39.8963 13.4363C39.7144 13.4363 39.5377 13.5075 39.4111 13.6367C39.1475 13.8978 39.1475 14.3275 39.4111 14.5886C39.6722 14.8522 40.102 14.8522 40.363 14.5886C40.6267 14.3275 40.6267 13.8978 40.363 13.6367C40.2391 13.5102 40.0729 13.439 39.8963 13.4363ZM42.1612 16.1996C42.0241 16.197 41.8923 16.2365 41.7789 16.313C41.4704 16.5187 41.386 16.9379 41.5943 17.2464C41.8 17.5575 42.2192 17.6419 42.5277 17.4336C42.8389 17.2253 42.9232 16.8087 42.7149 16.4976C42.591 16.313 42.3827 16.1996 42.1612 16.1996ZM11.8574 16.1996C11.628 16.1943 11.4118 16.3077 11.2853 16.4976C11.0796 16.8087 11.1613 17.2279 11.4725 17.4336C11.7836 17.6419 12.2002 17.5575 12.4085 17.249C12.6142 16.9379 12.5324 16.5187 12.2213 16.313C12.1132 16.2418 11.9893 16.2022 11.8574 16.1996ZM43.8435 19.3505C43.7538 19.3479 43.6642 19.3663 43.5798 19.4006C43.2344 19.543 43.0709 19.9385 43.2133 20.2812C43.3583 20.6267 43.7512 20.7901 44.0966 20.6478C44.442 20.5054 44.6055 20.1099 44.4631 19.7645C44.3576 19.5166 44.115 19.3505 43.8435 19.3505ZM10.1778 19.3505C9.89834 19.3452 9.64522 19.5087 9.53975 19.7671C9.39736 20.1125 9.56084 20.5054 9.90361 20.6504C10.249 20.7928 10.6445 20.6293 10.7869 20.2839C10.9293 19.9385 10.7658 19.5456 10.4204 19.4032C10.3439 19.3689 10.2622 19.3531 10.1778 19.3505ZM44.8771 22.7703C44.8322 22.7677 44.7874 22.7729 44.7426 22.7809C44.3787 22.8547 44.1414 23.2106 44.2126 23.5745C44.2864 23.941 44.6424 24.1783 45.0063 24.1071C45.3728 24.0333 45.6101 23.6773 45.5389 23.3108C45.4756 22.9971 45.1987 22.7703 44.8771 22.7703ZM9.14424 22.7703C8.81465 22.7624 8.52988 22.9892 8.46397 23.3108C8.42969 23.4875 8.46397 23.6721 8.56416 23.8197C8.66436 23.97 8.81992 24.0729 8.99658 24.1071C9.17061 24.1414 9.35254 24.1045 9.50283 24.0069C9.65049 23.9067 9.75332 23.7512 9.7876 23.5745C9.86143 23.2106 9.62412 22.8547 9.26025 22.7809C9.2207 22.7756 9.18379 22.7703 9.14424 22.7703ZM8.7751 26.3246C8.40332 26.3246 8.1001 26.6278 8.1001 26.9996C8.1001 27.3714 8.40332 27.6746 8.7751 27.6746C9.14687 27.6746 9.4501 27.3714 9.4501 26.9996C9.4501 26.6278 9.14687 26.3246 8.7751 26.3246ZM45.2251 26.3246C44.8533 26.3246 44.5501 26.6278 44.5501 26.9996C44.5501 27.3714 44.8533 27.6746 45.2251 27.6746C45.5969 27.6746 45.9001 27.3714 45.9001 26.9996C45.9001 26.6278 45.5969 26.3246 45.2251 26.3246ZM9.12842 29.8789C9.08359 29.8789 9.03877 29.8842 8.99395 29.8921C8.62744 29.9659 8.39014 30.3219 8.46397 30.6884C8.53779 31.0522 8.89111 31.2896 9.25762 31.2184C9.62412 31.1445 9.86143 30.7886 9.7876 30.4247C9.72432 30.1083 9.4501 29.8815 9.12842 29.8789ZM44.8929 29.8789C44.5633 29.871 44.2785 30.1004 44.2126 30.4247C44.1414 30.7886 44.3787 31.1445 44.7426 31.2184C45.1091 31.2896 45.465 31.0522 45.5389 30.6884C45.6101 30.3219 45.3728 29.9659 45.0063 29.8921C44.9693 29.8868 44.9324 29.8815 44.8929 29.8789ZM43.854 33.2961C43.5745 33.2908 43.3214 33.4569 43.2133 33.7153C43.0709 34.0581 43.2344 34.4536 43.5798 34.596C43.9252 34.7384 44.3181 34.5749 44.4631 34.2321C44.6055 33.8867 44.442 33.4912 44.0966 33.3488C44.0201 33.3172 43.9357 33.2987 43.854 33.2961ZM10.1673 33.2987C10.0776 33.2987 9.98799 33.3146 9.90361 33.3488C9.74014 33.4174 9.6083 33.5492 9.53975 33.7153C9.47119 33.8814 9.47119 34.066 9.53711 34.2321C9.68213 34.5775 10.075 34.741 10.4204 34.596C10.5865 34.5301 10.7184 34.3982 10.7869 34.2321C10.8555 34.066 10.8555 33.8814 10.7869 33.7153C10.6841 33.4648 10.4389 33.3014 10.1673 33.2987ZM42.1665 36.4496C41.9371 36.4443 41.7209 36.5577 41.5943 36.7476C41.386 37.0587 41.4704 37.4753 41.7789 37.6836C41.9266 37.7838 42.1111 37.8207 42.2852 37.7838C42.4618 37.7495 42.6174 37.6467 42.7149 37.4964C42.9232 37.1879 42.8389 36.7687 42.5277 36.563C42.4223 36.4892 42.2957 36.4496 42.1665 36.4496ZM11.8548 36.4496C11.7177 36.447 11.5858 36.4865 11.4725 36.563C11.164 36.7713 11.0796 37.1879 11.2853 37.499C11.4936 37.8075 11.9128 37.8919 12.2239 37.6836C12.5324 37.4779 12.6168 37.0587 12.4085 36.7476C12.2846 36.563 12.0763 36.4522 11.8548 36.4496ZM14.1224 39.2129C13.9404 39.2103 13.7638 39.2814 13.6372 39.4106C13.3735 39.6717 13.3735 40.1015 13.6372 40.3625C13.8982 40.6262 14.328 40.6262 14.5891 40.3625C14.8527 40.1015 14.8527 39.6717 14.5891 39.4106C14.4651 39.2841 14.299 39.2129 14.1224 39.2129ZM39.8963 39.2129C39.7144 39.2103 39.5377 39.2814 39.4111 39.4106C39.1475 39.6717 39.1475 40.1015 39.4111 40.3625C39.6722 40.6262 40.102 40.6262 40.363 40.3625C40.6267 40.1015 40.6267 39.6717 40.363 39.4106C40.2391 39.2841 40.0729 39.2129 39.8963 39.2129ZM16.8883 41.4778C16.6589 41.4726 16.4427 41.5859 16.3161 41.7758C16.1078 42.0869 16.1922 42.5062 16.5033 42.7145C16.8118 42.9201 17.2311 42.8357 17.4367 42.5272C17.645 42.2161 17.5606 41.7995 17.2521 41.5912C17.144 41.52 17.0175 41.4778 16.8883 41.4778ZM37.133 41.4778C36.9959 41.4752 36.8641 41.5147 36.7507 41.5886C36.6004 41.6888 36.4976 41.8443 36.4633 42.021C36.429 42.195 36.4659 42.3796 36.5661 42.5272C36.7718 42.8357 37.191 42.9201 37.5021 42.7145C37.8106 42.5062 37.895 42.0869 37.6867 41.7758C37.5654 41.5912 37.3571 41.4778 37.133 41.4778ZM20.0418 43.1601C19.7623 43.1548 19.5092 43.3209 19.4037 43.5793C19.2613 43.9221 19.4248 44.3176 19.7676 44.46C20.113 44.6023 20.5085 44.4389 20.6509 44.0961C20.7933 43.7507 20.6298 43.3552 20.2844 43.2128C20.2079 43.1812 20.1262 43.1627 20.0418 43.1601ZM33.9795 43.1601C33.8898 43.1601 33.8002 43.1785 33.7185 43.2128C33.5523 43.2813 33.4205 43.4132 33.352 43.5767C33.2834 43.7428 33.2834 43.93 33.3493 44.0961C33.4943 44.4389 33.8872 44.6023 34.2326 44.46C34.3987 44.3914 34.5306 44.2596 34.5991 44.0961C34.6677 43.93 34.6677 43.7428 34.5991 43.5793C34.4963 43.3262 34.2511 43.1627 33.9795 43.1601ZM23.4643 44.1989C23.1347 44.191 22.8473 44.4204 22.784 44.7421C22.7102 45.1086 22.9475 45.4619 23.314 45.5357C23.6805 45.6096 24.0338 45.3723 24.1076 45.0058C24.1814 44.6393 23.9441 44.2859 23.5776 44.2121C23.5407 44.2042 23.5012 44.1989 23.4643 44.1989ZM30.557 44.2016C30.5122 44.1989 30.4674 44.2042 30.4252 44.2121C30.0587 44.2859 29.8214 44.6393 29.8926 45.0058C29.9295 45.1824 30.0323 45.3354 30.18 45.4355C30.3303 45.5357 30.5122 45.5727 30.6889 45.5384C30.8629 45.5015 31.0185 45.3986 31.1187 45.251C31.2162 45.1007 31.2531 44.9188 31.2188 44.7421C31.1556 44.4283 30.8787 44.2016 30.557 44.2016ZM27.0001 44.5496C26.6283 44.5496 26.3251 44.8528 26.3251 45.2246C26.3251 45.5964 26.6283 45.8996 27.0001 45.8996C27.3719 45.8996 27.6751 45.5964 27.6751 45.2246C27.6751 44.8528 27.3719 44.5496 27.0001 44.5496Z" fill="white"/>
</g>
</g>
<defs>
<clipPath id="clip0_6831_3765">
<rect width="54" height="54" fill="white"/>
</clipPath>
<clipPath id="clip1_6831_3765">
<rect width="54" height="54" fill="white"/>
</clipPath>
</defs>
</svg>
