<svg width="59" height="60" viewBox="0 0 59 60" fill="none" xmlns="http://www.w3.org/2000/svg">
<rect y="0.5" width="59" height="59" rx="29.5" fill="#016A70" fill-opacity="0.2"/>
<path d="M24 29.7947C29.284 19.9466 35.8635 19.833 38.4928 21.0072C39.667 23.6365 39.5534 30.216 29.7053 35.5C29.6031 34.9129 29.0352 33.3749 27.5801 31.9199C26.1251 30.4648 24.5871 29.8969 24 29.7947Z" fill="#212838" stroke="#212838" stroke-width="1.5" stroke-linecap="round" stroke-linejoin="round"/>
<path d="M31 35.3C33.0428 36.2334 33.2609 37.9069 33.5439 39.5C33.5439 39.5 37.8223 36.5481 35.0856 32.5" fill="#212838"/>
<path d="M31 35.3C33.0428 36.2334 33.2609 37.9069 33.5439 39.5C33.5439 39.5 37.8223 36.5481 35.0856 32.5" stroke="#212838" stroke-width="1.5" stroke-linecap="round" stroke-linejoin="round"/>
<path d="M24.2 28.5C23.2666 26.4572 21.5931 26.2391 20 25.9561C20 25.9561 22.9519 21.6777 27 24.4144" fill="#212838"/>
<path d="M24.2 28.5C23.2666 26.4572 21.5931 26.2391 20 25.9561C20 25.9561 22.9519 21.6777 27 24.4144" stroke="#212838" stroke-width="1.5" stroke-linecap="round" stroke-linejoin="round"/>
<path d="M23.2086 32.5C22.5768 33.1319 21.5025 34.9644 22.2608 37.2392C24.5356 37.9975 26.3681 36.9233 27 36.2914" fill="#212838"/>
<path d="M23.2086 32.5C22.5768 33.1319 21.5025 34.9644 22.2608 37.2392C24.5356 37.9975 26.3681 36.9233 27 36.2914" stroke="#212838" stroke-width="1.5" stroke-linecap="round" stroke-linejoin="round"/>
<path d="M35.0967 26.2535C35.0967 25.2333 34.2697 24.4062 33.2495 24.4062C32.2293 24.4062 31.4023 25.2333 31.4023 26.2535C31.4023 27.2737 32.2293 28.1007 33.2495 28.1007C34.2697 28.1007 35.0967 27.2737 35.0967 26.2535Z" fill="#212838" stroke="#212838" stroke-width="1.5"/>
</svg>
