<svg width="66" height="66" viewBox="0 0 66 66" fill="none" xmlns="http://www.w3.org/2000/svg">
<g opacity="0.66">
<path d="M25.575 4.9502C23.7606 4.9502 22.275 6.43584 22.275 8.2502V10.7252H23.925V8.2502C23.925 7.32852 24.6533 6.6002 25.575 6.6002H26.6288C26.9156 7.09004 27.4409 7.4252 28.05 7.4252H37.95C38.5591 7.4252 39.0844 7.09004 39.3712 6.6002H40.425C41.3467 6.6002 42.075 7.32852 42.075 8.2502V10.7252H43.725V8.2502C43.725 6.43584 42.2394 4.9502 40.425 4.9502H25.575ZM42.9 10.7252C41.8236 10.7252 40.9181 11.4148 40.5765 12.3752H25.4235C25.0819 11.4148 24.1764 10.7252 23.1 10.7252C22.0236 10.7252 21.1181 11.4148 20.7765 12.3752H7.425C5.61064 12.3752 4.125 13.8608 4.125 15.6752V51.9752C4.125 53.7896 5.61064 55.2752 7.425 55.2752H8.25V56.1002H12.375V55.2752H53.625V56.1002H57.75V55.2752H58.575C60.3894 55.2752 61.875 53.7896 61.875 51.9752V15.6752C61.875 13.8608 60.3894 12.3752 58.575 12.3752H45.2235C44.8819 11.4148 43.9764 10.7252 42.9 10.7252ZM7.425 14.0252H58.575C59.4967 14.0252 60.225 14.7535 60.225 15.6752V51.9752C60.225 52.8969 59.4967 53.6252 58.575 53.6252H7.425C6.50332 53.6252 5.775 52.8969 5.775 51.9752V15.6752C5.775 14.7535 6.50332 14.0252 7.425 14.0252ZM18.15 18.9752C17.6956 18.9752 17.325 19.3458 17.325 19.8002C17.325 20.2546 17.6956 20.6252 18.15 20.6252C18.6044 20.6252 18.975 20.2546 18.975 19.8002C18.975 19.3458 18.6044 18.9752 18.15 18.9752ZM28.05 18.9752C27.5956 18.9752 27.225 19.3458 27.225 19.8002C27.225 20.2546 27.5956 20.6252 28.05 20.6252C28.5044 20.6252 28.875 20.2546 28.875 19.8002C28.875 19.3458 28.5044 18.9752 28.05 18.9752ZM37.95 18.9752C37.4956 18.9752 37.125 19.3458 37.125 19.8002C37.125 20.2546 37.4956 20.6252 37.95 20.6252C38.4044 20.6252 38.775 20.2546 38.775 19.8002C38.775 19.3458 38.4044 18.9752 37.95 18.9752ZM47.85 18.9752C47.3956 18.9752 47.025 19.3458 47.025 19.8002C47.025 20.2546 47.3956 20.6252 47.85 20.6252C48.3044 20.6252 48.675 20.2546 48.675 19.8002C48.675 19.3458 48.3044 18.9752 47.85 18.9752ZM18.15 22.2752C17.6956 22.2752 17.325 22.6458 17.325 23.1002C17.325 23.5546 17.6956 23.9252 18.15 23.9252C18.6044 23.9252 18.975 23.5546 18.975 23.1002C18.975 22.6458 18.6044 22.2752 18.15 22.2752ZM28.05 22.2752C27.5956 22.2752 27.225 22.6458 27.225 23.1002C27.225 23.5546 27.5956 23.9252 28.05 23.9252C28.5044 23.9252 28.875 23.5546 28.875 23.1002C28.875 22.6458 28.5044 22.2752 28.05 22.2752ZM37.95 22.2752C37.4956 22.2752 37.125 22.6458 37.125 23.1002C37.125 23.5546 37.4956 23.9252 37.95 23.9252C38.4044 23.9252 38.775 23.5546 38.775 23.1002C38.775 22.6458 38.4044 22.2752 37.95 22.2752ZM47.85 22.2752C47.3956 22.2752 47.025 22.6458 47.025 23.1002C47.025 23.5546 47.3956 23.9252 47.85 23.9252C48.3044 23.9252 48.675 23.5546 48.675 23.1002C48.675 22.6458 48.3044 22.2752 47.85 22.2752ZM18.15 25.5752C17.6956 25.5752 17.325 25.9458 17.325 26.4002C17.325 26.8546 17.6956 27.2252 18.15 27.2252C18.6044 27.2252 18.975 26.8546 18.975 26.4002C18.975 25.9458 18.6044 25.5752 18.15 25.5752ZM28.05 25.5752C27.5956 25.5752 27.225 25.9458 27.225 26.4002C27.225 26.8546 27.5956 27.2252 28.05 27.2252C28.5044 27.2252 28.875 26.8546 28.875 26.4002C28.875 25.9458 28.5044 25.5752 28.05 25.5752ZM37.95 25.5752C37.4956 25.5752 37.125 25.9458 37.125 26.4002C37.125 26.8546 37.4956 27.2252 37.95 27.2252C38.4044 27.2252 38.775 26.8546 38.775 26.4002C38.775 25.9458 38.4044 25.5752 37.95 25.5752ZM47.85 25.5752C47.3956 25.5752 47.025 25.9458 47.025 26.4002C47.025 26.8546 47.3956 27.2252 47.85 27.2252C48.3044 27.2252 48.675 26.8546 48.675 26.4002C48.675 25.9458 48.3044 25.5752 47.85 25.5752ZM18.15 28.8752C17.6956 28.8752 17.325 29.2458 17.325 29.7002C17.325 30.1546 17.6956 30.5252 18.15 30.5252C18.6044 30.5252 18.975 30.1546 18.975 29.7002C18.975 29.2458 18.6044 28.8752 18.15 28.8752ZM28.05 28.8752C27.5956 28.8752 27.225 29.2458 27.225 29.7002C27.225 30.1546 27.5956 30.5252 28.05 30.5252C28.5044 30.5252 28.875 30.1546 28.875 29.7002C28.875 29.2458 28.5044 28.8752 28.05 28.8752ZM37.95 28.8752C37.4956 28.8752 37.125 29.2458 37.125 29.7002C37.125 30.1546 37.4956 30.5252 37.95 30.5252C38.4044 30.5252 38.775 30.1546 38.775 29.7002C38.775 29.2458 38.4044 28.8752 37.95 28.8752ZM47.85 28.8752C47.3956 28.8752 47.025 29.2458 47.025 29.7002C47.025 30.1546 47.3956 30.5252 47.85 30.5252C48.3044 30.5252 48.675 30.1546 48.675 29.7002C48.675 29.2458 48.3044 28.8752 47.85 28.8752ZM18.15 32.1752C17.6956 32.1752 17.325 32.5458 17.325 33.0002C17.325 33.4546 17.6956 33.8252 18.15 33.8252C18.6044 33.8252 18.975 33.4546 18.975 33.0002C18.975 32.5458 18.6044 32.1752 18.15 32.1752ZM28.05 32.1752C27.5956 32.1752 27.225 32.5458 27.225 33.0002C27.225 33.4546 27.5956 33.8252 28.05 33.8252C28.5044 33.8252 28.875 33.4546 28.875 33.0002C28.875 32.5458 28.5044 32.1752 28.05 32.1752ZM37.95 32.1752C37.4956 32.1752 37.125 32.5458 37.125 33.0002C37.125 33.4546 37.4956 33.8252 37.95 33.8252C38.4044 33.8252 38.775 33.4546 38.775 33.0002C38.775 32.5458 38.4044 32.1752 37.95 32.1752ZM47.85 32.1752C47.3956 32.1752 47.025 32.5458 47.025 33.0002C47.025 33.4546 47.3956 33.8252 47.85 33.8252C48.3044 33.8252 48.675 33.4546 48.675 33.0002C48.675 32.5458 48.3044 32.1752 47.85 32.1752ZM18.15 35.4752C17.6956 35.4752 17.325 35.8458 17.325 36.3002C17.325 36.7546 17.6956 37.1252 18.15 37.1252C18.6044 37.1252 18.975 36.7546 18.975 36.3002C18.975 35.8458 18.6044 35.4752 18.15 35.4752ZM28.05 35.4752C27.5956 35.4752 27.225 35.8458 27.225 36.3002C27.225 36.7546 27.5956 37.1252 28.05 37.1252C28.5044 37.1252 28.875 36.7546 28.875 36.3002C28.875 35.8458 28.5044 35.4752 28.05 35.4752ZM37.95 35.4752C37.4956 35.4752 37.125 35.8458 37.125 36.3002C37.125 36.7546 37.4956 37.1252 37.95 37.1252C38.4044 37.1252 38.775 36.7546 38.775 36.3002C38.775 35.8458 38.4044 35.4752 37.95 35.4752ZM47.85 35.4752C47.3956 35.4752 47.025 35.8458 47.025 36.3002C47.025 36.7546 47.3956 37.1252 47.85 37.1252C48.3044 37.1252 48.675 36.7546 48.675 36.3002C48.675 35.8458 48.3044 35.4752 47.85 35.4752ZM18.15 38.7752C17.6956 38.7752 17.325 39.1458 17.325 39.6002C17.325 40.0546 17.6956 40.4252 18.15 40.4252C18.6044 40.4252 18.975 40.0546 18.975 39.6002C18.975 39.1458 18.6044 38.7752 18.15 38.7752ZM28.05 38.7752C27.5956 38.7752 27.225 39.1458 27.225 39.6002C27.225 40.0546 27.5956 40.4252 28.05 40.4252C28.5044 40.4252 28.875 40.0546 28.875 39.6002C28.875 39.1458 28.5044 38.7752 28.05 38.7752ZM37.95 38.7752C37.4956 38.7752 37.125 39.1458 37.125 39.6002C37.125 40.0546 37.4956 40.4252 37.95 40.4252C38.4044 40.4252 38.775 40.0546 38.775 39.6002C38.775 39.1458 38.4044 38.7752 37.95 38.7752ZM47.85 38.7752C47.3956 38.7752 47.025 39.1458 47.025 39.6002C47.025 40.0546 47.3956 40.4252 47.85 40.4252C48.3044 40.4252 48.675 40.0546 48.675 39.6002C48.675 39.1458 48.3044 38.7752 47.85 38.7752ZM18.15 42.0752C17.6956 42.0752 17.325 42.4458 17.325 42.9002C17.325 43.3546 17.6956 43.7252 18.15 43.7252C18.6044 43.7252 18.975 43.3546 18.975 42.9002C18.975 42.4458 18.6044 42.0752 18.15 42.0752ZM28.05 42.0752C27.5956 42.0752 27.225 42.4458 27.225 42.9002C27.225 43.3546 27.5956 43.7252 28.05 43.7252C28.5044 43.7252 28.875 43.3546 28.875 42.9002C28.875 42.4458 28.5044 42.0752 28.05 42.0752ZM37.95 42.0752C37.4956 42.0752 37.125 42.4458 37.125 42.9002C37.125 43.3546 37.4956 43.7252 37.95 43.7252C38.4044 43.7252 38.775 43.3546 38.775 42.9002C38.775 42.4458 38.4044 42.0752 37.95 42.0752ZM47.85 42.0752C47.3956 42.0752 47.025 42.4458 47.025 42.9002C47.025 43.3546 47.3956 43.7252 47.85 43.7252C48.3044 43.7252 48.675 43.3546 48.675 42.9002C48.675 42.4458 48.3044 42.0752 47.85 42.0752ZM18.15 45.3752C17.6956 45.3752 17.325 45.7458 17.325 46.2002C17.325 46.6546 17.6956 47.0252 18.15 47.0252C18.6044 47.0252 18.975 46.6546 18.975 46.2002C18.975 45.7458 18.6044 45.3752 18.15 45.3752ZM28.05 45.3752C27.5956 45.3752 27.225 45.7458 27.225 46.2002C27.225 46.6546 27.5956 47.0252 28.05 47.0252C28.5044 47.0252 28.875 46.6546 28.875 46.2002C28.875 45.7458 28.5044 45.3752 28.05 45.3752ZM37.95 45.3752C37.4956 45.3752 37.125 45.7458 37.125 46.2002C37.125 46.6546 37.4956 47.0252 37.95 47.0252C38.4044 47.0252 38.775 46.6546 38.775 46.2002C38.775 45.7458 38.4044 45.3752 37.95 45.3752ZM47.85 45.3752C47.3956 45.3752 47.025 45.7458 47.025 46.2002C47.025 46.6546 47.3956 47.0252 47.85 47.0252C48.3044 47.0252 48.675 46.6546 48.675 46.2002C48.675 45.7458 48.3044 45.3752 47.85 45.3752ZM18.15 48.6752C17.6956 48.6752 17.325 49.0458 17.325 49.5002C17.325 49.9546 17.6956 50.3252 18.15 50.3252C18.6044 50.3252 18.975 49.9546 18.975 49.5002C18.975 49.0458 18.6044 48.6752 18.15 48.6752ZM28.05 48.6752C27.5956 48.6752 27.225 49.0458 27.225 49.5002C27.225 49.9546 27.5956 50.3252 28.05 50.3252C28.5044 50.3252 28.875 49.9546 28.875 49.5002C28.875 49.0458 28.5044 48.6752 28.05 48.6752ZM37.95 48.6752C37.4956 48.6752 37.125 49.0458 37.125 49.5002C37.125 49.9546 37.4956 50.3252 37.95 50.3252C38.4044 50.3252 38.775 49.9546 38.775 49.5002C38.775 49.0458 38.4044 48.6752 37.95 48.6752ZM47.85 48.6752C47.3956 48.6752 47.025 49.0458 47.025 49.5002C47.025 49.9546 47.3956 50.3252 47.85 50.3252C48.3044 50.3252 48.675 49.9546 48.675 49.5002C48.675 49.0458 48.3044 48.6752 47.85 48.6752Z" fill="#212838"/>
</g>
</svg>
