<svg width="413" height="376" viewBox="0 0 413 376" fill="none" xmlns="http://www.w3.org/2000/svg">
<circle cx="193.5" cy="190.5" r="174" stroke="#212838" stroke-dasharray="10 10"/>
<rect x="156" width="89" height="40" rx="20" fill="#016A70"/>
<path d="M170.095 25V14.5H176.62V15.73H171.595V19.135H175.795V20.335H171.595V25H170.095ZM181.233 25.18C180.503 25.18 179.858 25.015 179.298 24.685C178.738 24.355 178.298 23.895 177.978 23.305C177.668 22.715 177.513 22.03 177.513 21.25C177.513 20.46 177.668 19.77 177.978 19.18C178.298 18.58 178.738 18.115 179.298 17.785C179.858 17.445 180.508 17.275 181.248 17.275C181.988 17.275 182.623 17.44 183.153 17.77C183.683 18.1 184.093 18.535 184.383 19.075C184.673 19.615 184.818 20.215 184.818 20.875C184.818 20.975 184.813 21.085 184.803 21.205C184.803 21.315 184.798 21.44 184.788 21.58H178.608V20.53H183.318C183.288 19.9 183.078 19.41 182.688 19.06C182.298 18.7 181.813 18.52 181.233 18.52C180.823 18.52 180.448 18.615 180.108 18.805C179.768 18.985 179.493 19.255 179.283 19.615C179.083 19.965 178.983 20.405 178.983 20.935V21.37C178.983 21.92 179.083 22.39 179.283 22.78C179.493 23.16 179.768 23.45 180.108 23.65C180.448 23.84 180.818 23.935 181.218 23.935C181.698 23.935 182.093 23.83 182.403 23.62C182.723 23.41 182.953 23.125 183.093 22.765H184.608C184.468 23.225 184.243 23.64 183.933 24.01C183.633 24.37 183.253 24.655 182.793 24.865C182.343 25.075 181.823 25.18 181.233 25.18ZM188.99 25.18C188.37 25.18 187.855 25.075 187.445 24.865C187.035 24.655 186.73 24.375 186.53 24.025C186.33 23.665 186.23 23.28 186.23 22.87C186.23 22.37 186.355 21.945 186.605 21.595C186.865 21.245 187.235 20.975 187.715 20.785C188.205 20.595 188.785 20.5 189.455 20.5H191.42C191.42 20.06 191.355 19.695 191.225 19.405C191.095 19.115 190.9 18.895 190.64 18.745C190.39 18.595 190.07 18.52 189.68 18.52C189.23 18.52 188.84 18.63 188.51 18.85C188.19 19.07 187.995 19.39 187.925 19.81H186.425C186.485 19.27 186.665 18.815 186.965 18.445C187.275 18.065 187.665 17.775 188.135 17.575C188.615 17.375 189.13 17.275 189.68 17.275C190.38 17.275 190.97 17.4 191.45 17.65C191.94 17.9 192.305 18.255 192.545 18.715C192.795 19.165 192.92 19.7 192.92 20.32V25H191.615L191.495 23.725C191.385 23.925 191.255 24.115 191.105 24.295C190.955 24.475 190.775 24.63 190.565 24.76C190.365 24.89 190.13 24.99 189.86 25.06C189.6 25.14 189.31 25.18 188.99 25.18ZM189.275 23.965C189.595 23.965 189.885 23.9 190.145 23.77C190.405 23.64 190.625 23.465 190.805 23.245C190.995 23.015 191.135 22.76 191.225 22.48C191.325 22.19 191.38 21.895 191.39 21.595V21.55H189.605C189.175 21.55 188.825 21.605 188.555 21.715C188.295 21.815 188.105 21.96 187.985 22.15C187.865 22.33 187.805 22.535 187.805 22.765C187.805 23.015 187.86 23.23 187.97 23.41C188.09 23.58 188.26 23.715 188.48 23.815C188.7 23.915 188.965 23.965 189.275 23.965ZM197.778 25C197.308 25 196.898 24.925 196.548 24.775C196.198 24.625 195.928 24.375 195.738 24.025C195.548 23.675 195.453 23.2 195.453 22.6V18.715H194.148V17.455H195.453L195.633 15.565H196.953V17.455H199.083V18.715H196.953V22.615C196.953 23.045 197.038 23.34 197.208 23.5C197.388 23.65 197.703 23.725 198.153 23.725H199.008V25H197.778ZM203.513 25.18C202.923 25.18 202.408 25.06 201.968 24.82C201.538 24.58 201.203 24.22 200.963 23.74C200.733 23.25 200.618 22.64 200.618 21.91V17.455H202.118V21.76C202.118 22.47 202.268 23.005 202.568 23.365C202.878 23.725 203.328 23.905 203.918 23.905C204.308 23.905 204.658 23.81 204.968 23.62C205.288 23.43 205.538 23.155 205.718 22.795C205.898 22.435 205.988 21.995 205.988 21.475V17.455H207.488V25H206.153L206.048 23.71C205.818 24.16 205.478 24.52 205.028 24.79C204.588 25.05 204.083 25.18 203.513 25.18ZM209.541 25V17.455H210.891L211.026 18.88C211.196 18.54 211.411 18.255 211.671 18.025C211.941 17.785 212.261 17.6 212.631 17.47C213.001 17.34 213.416 17.275 213.876 17.275V18.85H213.351C213.041 18.85 212.746 18.89 212.466 18.97C212.186 19.05 211.936 19.18 211.716 19.36C211.506 19.54 211.341 19.785 211.221 20.095C211.101 20.405 211.041 20.79 211.041 21.25V25H209.541ZM218.47 25.18C217.74 25.18 217.095 25.015 216.535 24.685C215.975 24.355 215.535 23.895 215.215 23.305C214.905 22.715 214.75 22.03 214.75 21.25C214.75 20.46 214.905 19.77 215.215 19.18C215.535 18.58 215.975 18.115 216.535 17.785C217.095 17.445 217.745 17.275 218.485 17.275C219.225 17.275 219.86 17.44 220.39 17.77C220.92 18.1 221.33 18.535 221.62 19.075C221.91 19.615 222.055 20.215 222.055 20.875C222.055 20.975 222.05 21.085 222.04 21.205C222.04 21.315 222.035 21.44 222.025 21.58H215.845V20.53H220.555C220.525 19.9 220.315 19.41 219.925 19.06C219.535 18.7 219.05 18.52 218.47 18.52C218.06 18.52 217.685 18.615 217.345 18.805C217.005 18.985 216.73 19.255 216.52 19.615C216.32 19.965 216.22 20.405 216.22 20.935V21.37C216.22 21.92 216.32 22.39 216.52 22.78C216.73 23.16 217.005 23.45 217.345 23.65C217.685 23.84 218.055 23.935 218.455 23.935C218.935 23.935 219.33 23.83 219.64 23.62C219.96 23.41 220.19 23.125 220.33 22.765H221.845C221.705 23.225 221.48 23.64 221.17 24.01C220.87 24.37 220.49 24.655 220.03 24.865C219.58 25.075 219.06 25.18 218.47 25.18ZM228.819 25V16.195L227.004 16.66V15.535L229.374 14.5H230.349V25H228.819Z" fill="white"/>
<rect x="324" y="162" width="89" height="40" rx="20" fill="#01B847"/>
<path d="M338.095 187V176.5H344.62V177.73H339.595V181.135H343.795V182.335H339.595V187H338.095ZM349.233 187.18C348.503 187.18 347.858 187.015 347.298 186.685C346.738 186.355 346.298 185.895 345.978 185.305C345.668 184.715 345.513 184.03 345.513 183.25C345.513 182.46 345.668 181.77 345.978 181.18C346.298 180.58 346.738 180.115 347.298 179.785C347.858 179.445 348.508 179.275 349.248 179.275C349.988 179.275 350.623 179.44 351.153 179.77C351.683 180.1 352.093 180.535 352.383 181.075C352.673 181.615 352.818 182.215 352.818 182.875C352.818 182.975 352.813 183.085 352.803 183.205C352.803 183.315 352.798 183.44 352.788 183.58H346.608V182.53H351.318C351.288 181.9 351.078 181.41 350.688 181.06C350.298 180.7 349.813 180.52 349.233 180.52C348.823 180.52 348.448 180.615 348.108 180.805C347.768 180.985 347.493 181.255 347.283 181.615C347.083 181.965 346.983 182.405 346.983 182.935V183.37C346.983 183.92 347.083 184.39 347.283 184.78C347.493 185.16 347.768 185.45 348.108 185.65C348.448 185.84 348.818 185.935 349.218 185.935C349.698 185.935 350.093 185.83 350.403 185.62C350.723 185.41 350.953 185.125 351.093 184.765H352.608C352.468 185.225 352.243 185.64 351.933 186.01C351.633 186.37 351.253 186.655 350.793 186.865C350.343 187.075 349.823 187.18 349.233 187.18ZM356.99 187.18C356.37 187.18 355.855 187.075 355.445 186.865C355.035 186.655 354.73 186.375 354.53 186.025C354.33 185.665 354.23 185.28 354.23 184.87C354.23 184.37 354.355 183.945 354.605 183.595C354.865 183.245 355.235 182.975 355.715 182.785C356.205 182.595 356.785 182.5 357.455 182.5H359.42C359.42 182.06 359.355 181.695 359.225 181.405C359.095 181.115 358.9 180.895 358.64 180.745C358.39 180.595 358.07 180.52 357.68 180.52C357.23 180.52 356.84 180.63 356.51 180.85C356.19 181.07 355.995 181.39 355.925 181.81H354.425C354.485 181.27 354.665 180.815 354.965 180.445C355.275 180.065 355.665 179.775 356.135 179.575C356.615 179.375 357.13 179.275 357.68 179.275C358.38 179.275 358.97 179.4 359.45 179.65C359.94 179.9 360.305 180.255 360.545 180.715C360.795 181.165 360.92 181.7 360.92 182.32V187H359.615L359.495 185.725C359.385 185.925 359.255 186.115 359.105 186.295C358.955 186.475 358.775 186.63 358.565 186.76C358.365 186.89 358.13 186.99 357.86 187.06C357.6 187.14 357.31 187.18 356.99 187.18ZM357.275 185.965C357.595 185.965 357.885 185.9 358.145 185.77C358.405 185.64 358.625 185.465 358.805 185.245C358.995 185.015 359.135 184.76 359.225 184.48C359.325 184.19 359.38 183.895 359.39 183.595V183.55H357.605C357.175 183.55 356.825 183.605 356.555 183.715C356.295 183.815 356.105 183.96 355.985 184.15C355.865 184.33 355.805 184.535 355.805 184.765C355.805 185.015 355.86 185.23 355.97 185.41C356.09 185.58 356.26 185.715 356.48 185.815C356.7 185.915 356.965 185.965 357.275 185.965ZM365.778 187C365.308 187 364.898 186.925 364.548 186.775C364.198 186.625 363.928 186.375 363.738 186.025C363.548 185.675 363.453 185.2 363.453 184.6V180.715H362.148V179.455H363.453L363.633 177.565H364.953V179.455H367.083V180.715H364.953V184.615C364.953 185.045 365.038 185.34 365.208 185.5C365.388 185.65 365.703 185.725 366.153 185.725H367.008V187H365.778ZM371.513 187.18C370.923 187.18 370.408 187.06 369.968 186.82C369.538 186.58 369.203 186.22 368.963 185.74C368.733 185.25 368.618 184.64 368.618 183.91V179.455H370.118V183.76C370.118 184.47 370.268 185.005 370.568 185.365C370.878 185.725 371.328 185.905 371.918 185.905C372.308 185.905 372.658 185.81 372.968 185.62C373.288 185.43 373.538 185.155 373.718 184.795C373.898 184.435 373.988 183.995 373.988 183.475V179.455H375.488V187H374.153L374.048 185.71C373.818 186.16 373.478 186.52 373.028 186.79C372.588 187.05 372.083 187.18 371.513 187.18ZM377.541 187V179.455H378.891L379.026 180.88C379.196 180.54 379.411 180.255 379.671 180.025C379.941 179.785 380.261 179.6 380.631 179.47C381.001 179.34 381.416 179.275 381.876 179.275V180.85H381.351C381.041 180.85 380.746 180.89 380.466 180.97C380.186 181.05 379.936 181.18 379.716 181.36C379.506 181.54 379.341 181.785 379.221 182.095C379.101 182.405 379.041 182.79 379.041 183.25V187H377.541ZM386.47 187.18C385.74 187.18 385.095 187.015 384.535 186.685C383.975 186.355 383.535 185.895 383.215 185.305C382.905 184.715 382.75 184.03 382.75 183.25C382.75 182.46 382.905 181.77 383.215 181.18C383.535 180.58 383.975 180.115 384.535 179.785C385.095 179.445 385.745 179.275 386.485 179.275C387.225 179.275 387.86 179.44 388.39 179.77C388.92 180.1 389.33 180.535 389.62 181.075C389.91 181.615 390.055 182.215 390.055 182.875C390.055 182.975 390.05 183.085 390.04 183.205C390.04 183.315 390.035 183.44 390.025 183.58H383.845V182.53H388.555C388.525 181.9 388.315 181.41 387.925 181.06C387.535 180.7 387.05 180.52 386.47 180.52C386.06 180.52 385.685 180.615 385.345 180.805C385.005 180.985 384.73 181.255 384.52 181.615C384.32 181.965 384.22 182.405 384.22 182.935V183.37C384.22 183.92 384.32 184.39 384.52 184.78C384.73 185.16 385.005 185.45 385.345 185.65C385.685 185.84 386.055 185.935 386.455 185.935C386.935 185.935 387.33 185.83 387.64 185.62C387.96 185.41 388.19 185.125 388.33 184.765H389.845C389.705 185.225 389.48 185.64 389.17 186.01C388.87 186.37 388.49 186.655 388.03 186.865C387.58 187.075 387.06 187.18 386.47 187.18ZM396.819 187V178.195L395.004 178.66V177.535L397.374 176.5H398.349V187H396.819Z" fill="white"/>
<rect x="160" y="336" width="89" height="40" rx="20" fill="#943500"/>
<path d="M174.095 361V350.5H180.62V351.73H175.595V355.135H179.795V356.335H175.595V361H174.095ZM185.233 361.18C184.503 361.18 183.858 361.015 183.298 360.685C182.738 360.355 182.298 359.895 181.978 359.305C181.668 358.715 181.513 358.03 181.513 357.25C181.513 356.46 181.668 355.77 181.978 355.18C182.298 354.58 182.738 354.115 183.298 353.785C183.858 353.445 184.508 353.275 185.248 353.275C185.988 353.275 186.623 353.44 187.153 353.77C187.683 354.1 188.093 354.535 188.383 355.075C188.673 355.615 188.818 356.215 188.818 356.875C188.818 356.975 188.813 357.085 188.803 357.205C188.803 357.315 188.798 357.44 188.788 357.58H182.608V356.53H187.318C187.288 355.9 187.078 355.41 186.688 355.06C186.298 354.7 185.813 354.52 185.233 354.52C184.823 354.52 184.448 354.615 184.108 354.805C183.768 354.985 183.493 355.255 183.283 355.615C183.083 355.965 182.983 356.405 182.983 356.935V357.37C182.983 357.92 183.083 358.39 183.283 358.78C183.493 359.16 183.768 359.45 184.108 359.65C184.448 359.84 184.818 359.935 185.218 359.935C185.698 359.935 186.093 359.83 186.403 359.62C186.723 359.41 186.953 359.125 187.093 358.765H188.608C188.468 359.225 188.243 359.64 187.933 360.01C187.633 360.37 187.253 360.655 186.793 360.865C186.343 361.075 185.823 361.18 185.233 361.18ZM192.99 361.18C192.37 361.18 191.855 361.075 191.445 360.865C191.035 360.655 190.73 360.375 190.53 360.025C190.33 359.665 190.23 359.28 190.23 358.87C190.23 358.37 190.355 357.945 190.605 357.595C190.865 357.245 191.235 356.975 191.715 356.785C192.205 356.595 192.785 356.5 193.455 356.5H195.42C195.42 356.06 195.355 355.695 195.225 355.405C195.095 355.115 194.9 354.895 194.64 354.745C194.39 354.595 194.07 354.52 193.68 354.52C193.23 354.52 192.84 354.63 192.51 354.85C192.19 355.07 191.995 355.39 191.925 355.81H190.425C190.485 355.27 190.665 354.815 190.965 354.445C191.275 354.065 191.665 353.775 192.135 353.575C192.615 353.375 193.13 353.275 193.68 353.275C194.38 353.275 194.97 353.4 195.45 353.65C195.94 353.9 196.305 354.255 196.545 354.715C196.795 355.165 196.92 355.7 196.92 356.32V361H195.615L195.495 359.725C195.385 359.925 195.255 360.115 195.105 360.295C194.955 360.475 194.775 360.63 194.565 360.76C194.365 360.89 194.13 360.99 193.86 361.06C193.6 361.14 193.31 361.18 192.99 361.18ZM193.275 359.965C193.595 359.965 193.885 359.9 194.145 359.77C194.405 359.64 194.625 359.465 194.805 359.245C194.995 359.015 195.135 358.76 195.225 358.48C195.325 358.19 195.38 357.895 195.39 357.595V357.55H193.605C193.175 357.55 192.825 357.605 192.555 357.715C192.295 357.815 192.105 357.96 191.985 358.15C191.865 358.33 191.805 358.535 191.805 358.765C191.805 359.015 191.86 359.23 191.97 359.41C192.09 359.58 192.26 359.715 192.48 359.815C192.7 359.915 192.965 359.965 193.275 359.965ZM201.778 361C201.308 361 200.898 360.925 200.548 360.775C200.198 360.625 199.928 360.375 199.738 360.025C199.548 359.675 199.453 359.2 199.453 358.6V354.715H198.148V353.455H199.453L199.633 351.565H200.953V353.455H203.083V354.715H200.953V358.615C200.953 359.045 201.038 359.34 201.208 359.5C201.388 359.65 201.703 359.725 202.153 359.725H203.008V361H201.778ZM207.513 361.18C206.923 361.18 206.408 361.06 205.968 360.82C205.538 360.58 205.203 360.22 204.963 359.74C204.733 359.25 204.618 358.64 204.618 357.91V353.455H206.118V357.76C206.118 358.47 206.268 359.005 206.568 359.365C206.878 359.725 207.328 359.905 207.918 359.905C208.308 359.905 208.658 359.81 208.968 359.62C209.288 359.43 209.538 359.155 209.718 358.795C209.898 358.435 209.988 357.995 209.988 357.475V353.455H211.488V361H210.153L210.048 359.71C209.818 360.16 209.478 360.52 209.028 360.79C208.588 361.05 208.083 361.18 207.513 361.18ZM213.541 361V353.455H214.891L215.026 354.88C215.196 354.54 215.411 354.255 215.671 354.025C215.941 353.785 216.261 353.6 216.631 353.47C217.001 353.34 217.416 353.275 217.876 353.275V354.85H217.351C217.041 354.85 216.746 354.89 216.466 354.97C216.186 355.05 215.936 355.18 215.716 355.36C215.506 355.54 215.341 355.785 215.221 356.095C215.101 356.405 215.041 356.79 215.041 357.25V361H213.541ZM222.47 361.18C221.74 361.18 221.095 361.015 220.535 360.685C219.975 360.355 219.535 359.895 219.215 359.305C218.905 358.715 218.75 358.03 218.75 357.25C218.75 356.46 218.905 355.77 219.215 355.18C219.535 354.58 219.975 354.115 220.535 353.785C221.095 353.445 221.745 353.275 222.485 353.275C223.225 353.275 223.86 353.44 224.39 353.77C224.92 354.1 225.33 354.535 225.62 355.075C225.91 355.615 226.055 356.215 226.055 356.875C226.055 356.975 226.05 357.085 226.04 357.205C226.04 357.315 226.035 357.44 226.025 357.58H219.845V356.53H224.555C224.525 355.9 224.315 355.41 223.925 355.06C223.535 354.7 223.05 354.52 222.47 354.52C222.06 354.52 221.685 354.615 221.345 354.805C221.005 354.985 220.73 355.255 220.52 355.615C220.32 355.965 220.22 356.405 220.22 356.935V357.37C220.22 357.92 220.32 358.39 220.52 358.78C220.73 359.16 221.005 359.45 221.345 359.65C221.685 359.84 222.055 359.935 222.455 359.935C222.935 359.935 223.33 359.83 223.64 359.62C223.96 359.41 224.19 359.125 224.33 358.765H225.845C225.705 359.225 225.48 359.64 225.17 360.01C224.87 360.37 224.49 360.655 224.03 360.865C223.58 361.075 223.06 361.18 222.47 361.18ZM232.819 361V352.195L231.004 352.66V351.535L233.374 350.5H234.349V361H232.819Z" fill="white"/>
<rect y="202" width="89" height="40" rx="20" fill="#0A3599"/>
<path d="M14.095 227V216.5H20.62V217.73H15.595V221.135H19.795V222.335H15.595V227H14.095ZM25.2333 227.18C24.5033 227.18 23.8583 227.015 23.2983 226.685C22.7383 226.355 22.2983 225.895 21.9783 225.305C21.6683 224.715 21.5133 224.03 21.5133 223.25C21.5133 222.46 21.6683 221.77 21.9783 221.18C22.2983 220.58 22.7383 220.115 23.2983 219.785C23.8583 219.445 24.5083 219.275 25.2483 219.275C25.9883 219.275 26.6233 219.44 27.1533 219.77C27.6833 220.1 28.0933 220.535 28.3833 221.075C28.6733 221.615 28.8183 222.215 28.8183 222.875C28.8183 222.975 28.8133 223.085 28.8033 223.205C28.8033 223.315 28.7983 223.44 28.7883 223.58H22.6083V222.53H27.3183C27.2883 221.9 27.0783 221.41 26.6883 221.06C26.2983 220.7 25.8133 220.52 25.2333 220.52C24.8233 220.52 24.4483 220.615 24.1083 220.805C23.7683 220.985 23.4933 221.255 23.2833 221.615C23.0833 221.965 22.9833 222.405 22.9833 222.935V223.37C22.9833 223.92 23.0833 224.39 23.2833 224.78C23.4933 225.16 23.7683 225.45 24.1083 225.65C24.4483 225.84 24.8183 225.935 25.2183 225.935C25.6983 225.935 26.0933 225.83 26.4033 225.62C26.7233 225.41 26.9533 225.125 27.0933 224.765H28.6083C28.4683 225.225 28.2433 225.64 27.9333 226.01C27.6333 226.37 27.2533 226.655 26.7933 226.865C26.3433 227.075 25.8233 227.18 25.2333 227.18ZM32.9898 227.18C32.3698 227.18 31.8548 227.075 31.4448 226.865C31.0348 226.655 30.7298 226.375 30.5298 226.025C30.3298 225.665 30.2298 225.28 30.2298 224.87C30.2298 224.37 30.3548 223.945 30.6048 223.595C30.8648 223.245 31.2348 222.975 31.7148 222.785C32.2048 222.595 32.7848 222.5 33.4548 222.5H35.4198C35.4198 222.06 35.3548 221.695 35.2248 221.405C35.0948 221.115 34.8998 220.895 34.6398 220.745C34.3898 220.595 34.0698 220.52 33.6798 220.52C33.2298 220.52 32.8398 220.63 32.5098 220.85C32.1898 221.07 31.9948 221.39 31.9248 221.81H30.4248C30.4848 221.27 30.6648 220.815 30.9648 220.445C31.2748 220.065 31.6648 219.775 32.1348 219.575C32.6148 219.375 33.1298 219.275 33.6798 219.275C34.3798 219.275 34.9698 219.4 35.4498 219.65C35.9398 219.9 36.3048 220.255 36.5448 220.715C36.7948 221.165 36.9198 221.7 36.9198 222.32V227H35.6148L35.4948 225.725C35.3848 225.925 35.2548 226.115 35.1048 226.295C34.9548 226.475 34.7748 226.63 34.5648 226.76C34.3648 226.89 34.1298 226.99 33.8598 227.06C33.5998 227.14 33.3098 227.18 32.9898 227.18ZM33.2748 225.965C33.5948 225.965 33.8848 225.9 34.1448 225.77C34.4048 225.64 34.6248 225.465 34.8048 225.245C34.9948 225.015 35.1348 224.76 35.2248 224.48C35.3248 224.19 35.3798 223.895 35.3898 223.595V223.55H33.6048C33.1748 223.55 32.8248 223.605 32.5548 223.715C32.2948 223.815 32.1048 223.96 31.9848 224.15C31.8648 224.33 31.8048 224.535 31.8048 224.765C31.8048 225.015 31.8598 225.23 31.9698 225.41C32.0898 225.58 32.2598 225.715 32.4798 225.815C32.6998 225.915 32.9648 225.965 33.2748 225.965ZM41.7783 227C41.3083 227 40.8983 226.925 40.5483 226.775C40.1983 226.625 39.9283 226.375 39.7383 226.025C39.5483 225.675 39.4533 225.2 39.4533 224.6V220.715H38.1483V219.455H39.4533L39.6333 217.565H40.9533V219.455H43.0833V220.715H40.9533V224.615C40.9533 225.045 41.0383 225.34 41.2083 225.5C41.3883 225.65 41.7033 225.725 42.1533 225.725H43.0083V227H41.7783ZM47.5128 227.18C46.9228 227.18 46.4078 227.06 45.9678 226.82C45.5378 226.58 45.2028 226.22 44.9628 225.74C44.7328 225.25 44.6178 224.64 44.6178 223.91V219.455H46.1178V223.76C46.1178 224.47 46.2678 225.005 46.5678 225.365C46.8778 225.725 47.3278 225.905 47.9178 225.905C48.3078 225.905 48.6578 225.81 48.9678 225.62C49.2878 225.43 49.5378 225.155 49.7178 224.795C49.8978 224.435 49.9878 223.995 49.9878 223.475V219.455H51.4878V227H50.1528L50.0478 225.71C49.8178 226.16 49.4778 226.52 49.0278 226.79C48.5878 227.05 48.0828 227.18 47.5128 227.18ZM53.5415 227V219.455H54.8915L55.0265 220.88C55.1965 220.54 55.4115 220.255 55.6715 220.025C55.9415 219.785 56.2615 219.6 56.6315 219.47C57.0015 219.34 57.4165 219.275 57.8765 219.275V220.85H57.3515C57.0415 220.85 56.7465 220.89 56.4665 220.97C56.1865 221.05 55.9365 221.18 55.7165 221.36C55.5065 221.54 55.3415 221.785 55.2215 222.095C55.1015 222.405 55.0415 222.79 55.0415 223.25V227H53.5415ZM62.4696 227.18C61.7396 227.18 61.0946 227.015 60.5346 226.685C59.9746 226.355 59.5346 225.895 59.2146 225.305C58.9046 224.715 58.7496 224.03 58.7496 223.25C58.7496 222.46 58.9046 221.77 59.2146 221.18C59.5346 220.58 59.9746 220.115 60.5346 219.785C61.0946 219.445 61.7446 219.275 62.4846 219.275C63.2246 219.275 63.8596 219.44 64.3896 219.77C64.9196 220.1 65.3296 220.535 65.6196 221.075C65.9096 221.615 66.0546 222.215 66.0546 222.875C66.0546 222.975 66.0496 223.085 66.0396 223.205C66.0396 223.315 66.0346 223.44 66.0246 223.58H59.8446V222.53H64.5546C64.5246 221.9 64.3146 221.41 63.9246 221.06C63.5346 220.7 63.0496 220.52 62.4696 220.52C62.0596 220.52 61.6846 220.615 61.3446 220.805C61.0046 220.985 60.7296 221.255 60.5196 221.615C60.3196 221.965 60.2196 222.405 60.2196 222.935V223.37C60.2196 223.92 60.3196 224.39 60.5196 224.78C60.7296 225.16 61.0046 225.45 61.3446 225.65C61.6846 225.84 62.0546 225.935 62.4546 225.935C62.9346 225.935 63.3296 225.83 63.6396 225.62C63.9596 225.41 64.1896 225.125 64.3296 224.765H65.8446C65.7046 225.225 65.4796 225.64 65.1696 226.01C64.8696 226.37 64.4896 226.655 64.0296 226.865C63.5796 227.075 63.0596 227.18 62.4696 227.18ZM72.8191 227V218.195L71.0041 218.66V217.535L73.3741 216.5H74.3491V227H72.8191Z" fill="white"/>
<rect x="249" y="16" width="41" height="41" rx="20.5" fill="#1158FF" fill-opacity="0.4"/>
<path d="M264.906 28.1875C264.013 28.1875 263.26 28.5461 262.775 29.0916C262.29 29.637 262.062 30.3385 262.062 31.0312C262.062 31.724 262.29 32.4255 262.775 32.9709C263.129 33.3695 263.659 33.6097 264.25 33.7417V39.2583C263.659 39.3903 263.129 39.6305 262.775 40.0291C262.29 40.5745 262.062 41.276 262.062 41.9688C262.062 42.6615 262.29 43.363 262.775 43.9084C263.26 44.4539 264.013 44.8125 264.906 44.8125C266.469 44.8125 267.75 43.5315 267.75 41.9688C267.75 40.6981 266.888 39.6543 265.732 39.2933C265.755 39.262 265.747 39.1977 265.775 39.1677C265.915 39.0214 266.169 38.8771 266.538 38.761C267.278 38.5289 268.418 38.4343 269.6 38.2526C270.782 38.0709 272.034 37.7997 273.049 37.0477C273.956 36.3756 274.571 35.2655 274.698 33.752C275.964 33.4656 276.938 32.3802 276.938 31.0312C276.938 29.4685 275.657 28.1875 274.094 28.1875C273.201 28.1875 272.448 28.5461 271.963 29.0916C271.478 29.637 271.25 30.3385 271.25 31.0312C271.25 31.724 271.478 32.4255 271.963 32.9709C272.299 33.3491 272.795 33.5816 273.346 33.7229C273.236 34.8337 272.874 35.5441 272.268 35.9933C271.56 36.5178 270.515 36.7833 269.4 36.9546C268.285 37.1259 267.128 37.2006 266.145 37.5092C265.943 37.5727 265.751 37.6572 265.562 37.7493V33.7417C266.803 33.4364 267.75 32.3618 267.75 31.0312C267.75 29.4685 266.469 28.1875 264.906 28.1875ZM264.906 29.5C265.76 29.5 266.438 30.1778 266.438 31.0312C266.438 31.8713 265.778 32.534 264.944 32.5548C264.918 32.5533 264.892 32.5533 264.866 32.5548C264.33 32.5443 263.993 32.3663 263.756 32.0994C263.512 31.8245 263.375 31.4323 263.375 31.0312C263.375 30.6302 263.512 30.238 263.756 29.9631C264 29.6883 264.341 29.5 264.906 29.5ZM274.094 29.5C274.947 29.5 275.625 30.1778 275.625 31.0312C275.625 31.8713 274.966 32.534 274.131 32.5548C274.105 32.5533 274.079 32.5533 274.054 32.5548C273.517 32.5443 273.181 32.3663 272.944 32.0994C272.699 31.8245 272.562 31.4323 272.562 31.0312C272.562 30.6302 272.699 30.238 272.944 29.9631C273.188 29.6883 273.529 29.5 274.094 29.5ZM264.866 40.4452C264.892 40.4467 264.918 40.4467 264.944 40.4452C265.778 40.466 266.438 41.1287 266.438 41.9688C266.438 42.8222 265.76 43.5 264.906 43.5C264.341 43.5 264 43.3117 263.756 43.0369C263.512 42.762 263.375 42.3698 263.375 41.9688C263.375 41.5677 263.512 41.1755 263.756 40.9006C263.993 40.6337 264.33 40.4557 264.866 40.4452Z" fill="#F8FAFC"/>
<rect x="328" y="210" width="41" height="41" rx="20.5" fill="#709BFF"/>
<path d="M347.894 221.775C345.429 221.775 343.562 222.618 342.361 223.974C341.158 225.33 340.633 227.146 340.633 229.032C340.633 230.569 341.067 232.11 341.883 233.314C342.577 234.34 343.252 235.702 343.252 236.76V238.594C343.247 238.956 343.536 239.254 343.899 239.259C344.261 239.264 344.56 238.975 344.564 238.612V238.594V236.76C344.564 235.198 343.731 233.704 342.969 232.579C342.328 231.633 341.944 230.316 341.944 229.033C341.944 227.391 342.401 225.907 343.342 224.845C344.283 223.783 345.719 223.089 347.894 223.089C350.085 223.089 351.405 223.708 352.274 224.641C353.144 225.575 353.583 226.895 353.756 228.375C353.767 228.469 353.798 228.559 353.847 228.64L355.483 231.344L354.169 231.858C353.917 231.956 353.752 232.199 353.752 232.469V234.656C353.752 235.509 353.074 236.187 352.221 236.187H350.908C350.546 236.187 350.252 236.481 350.252 236.844V238.594C350.247 238.956 350.536 239.254 350.899 239.259C351.261 239.264 351.56 238.975 351.564 238.612V238.594V237.5H352.221C353.783 237.5 355.064 236.219 355.064 234.656V232.916L356.088 232.516C356.117 232.505 356.145 232.492 356.172 232.476C356.773 232.137 356.983 231.347 356.657 230.75C356.652 230.741 356.647 230.733 356.643 230.724L355.017 228.038C354.81 226.46 354.327 224.918 353.235 223.746C352.099 222.527 350.344 221.775 347.894 221.775ZM346.971 225.25C346.797 225.25 346.63 225.319 346.507 225.442C346.383 225.565 346.314 225.732 346.314 225.906C346.314 226.08 346.383 226.247 346.507 226.37C346.63 226.493 346.797 226.562 346.971 226.562C347.145 226.562 347.312 226.493 347.435 226.37C347.558 226.247 347.627 226.08 347.627 225.906C347.627 225.732 347.558 225.565 347.435 225.442C347.312 225.319 347.145 225.25 346.971 225.25ZM349.158 225.25C348.984 225.25 348.817 225.319 348.694 225.442C348.571 225.565 348.502 225.732 348.502 225.906C348.502 226.08 348.571 226.247 348.694 226.37C348.817 226.493 348.984 226.562 349.158 226.562C349.332 226.562 349.499 226.493 349.622 226.37C349.745 226.247 349.814 226.08 349.814 225.906C349.814 225.732 349.745 225.565 349.622 225.442C349.499 225.319 349.332 225.25 349.158 225.25ZM346.916 227.437C346.343 227.437 345.877 227.903 345.877 228.476V230.773C345.877 231.346 346.343 231.812 346.916 231.812H349.213C349.786 231.812 350.252 231.346 350.252 230.773V228.476C350.252 227.903 349.786 227.437 349.213 227.437H346.916ZM344.346 227.875C344.172 227.875 344.005 227.944 343.882 228.067C343.758 228.19 343.689 228.357 343.689 228.531C343.689 228.705 343.758 228.872 343.882 228.995C344.005 229.118 344.172 229.187 344.346 229.187C344.52 229.187 344.687 229.118 344.81 228.995C344.933 228.872 345.002 228.705 345.002 228.531C345.002 228.357 344.933 228.19 344.81 228.067C344.687 227.944 344.52 227.875 344.346 227.875ZM351.783 227.875C351.609 227.875 351.442 227.944 351.319 228.067C351.196 228.19 351.127 228.357 351.127 228.531C351.127 228.705 351.196 228.872 351.319 228.995C351.442 229.118 351.609 229.187 351.783 229.187C351.957 229.187 352.124 229.118 352.247 228.995C352.37 228.872 352.439 228.705 352.439 228.531C352.439 228.357 352.37 228.19 352.247 228.067C352.124 227.944 351.957 227.875 351.783 227.875ZM347.189 228.75H348.939V230.5H347.189V228.75ZM344.346 230.062C344.172 230.062 344.005 230.131 343.882 230.254C343.758 230.378 343.689 230.544 343.689 230.719C343.689 230.893 343.758 231.059 343.882 231.183C344.005 231.306 344.172 231.375 344.346 231.375C344.52 231.375 344.687 231.306 344.81 231.183C344.933 231.059 345.002 230.893 345.002 230.719C345.002 230.544 344.933 230.378 344.81 230.254C344.687 230.131 344.52 230.062 344.346 230.062ZM351.783 230.062C351.609 230.062 351.442 230.131 351.319 230.254C351.196 230.378 351.127 230.544 351.127 230.719C351.127 230.893 351.196 231.059 351.319 231.183C351.442 231.306 351.609 231.375 351.783 231.375C351.957 231.375 352.124 231.306 352.247 231.183C352.37 231.059 352.439 230.893 352.439 230.719C352.439 230.544 352.37 230.378 352.247 230.254C352.124 230.131 351.957 230.062 351.783 230.062ZM346.971 232.687C346.797 232.687 346.63 232.756 346.507 232.879C346.383 233.003 346.314 233.169 346.314 233.344C346.314 233.518 346.383 233.684 346.507 233.808C346.63 233.931 346.797 234 346.971 234C347.145 234 347.312 233.931 347.435 233.808C347.558 233.684 347.627 233.518 347.627 233.344C347.627 233.169 347.558 233.003 347.435 232.879C347.312 232.756 347.145 232.687 346.971 232.687ZM349.158 232.687C348.984 232.687 348.817 232.756 348.694 232.879C348.571 233.003 348.502 233.169 348.502 233.344C348.502 233.518 348.571 233.684 348.694 233.808C348.817 233.931 348.984 234 349.158 234C349.332 234 349.499 233.931 349.622 233.808C349.745 233.684 349.814 233.518 349.814 233.344C349.814 233.169 349.745 233.003 349.622 232.879C349.499 232.756 349.332 232.687 349.158 232.687Z" fill="white"/>
<rect x="106" y="324" width="41" height="41" rx="20.5" fill="#5BD489"/>
<path d="M126.49 335.741C126.453 335.742 126.415 335.746 126.378 335.754C121.651 335.819 117.822 339.648 117.754 344.374C117.738 344.456 117.738 344.541 117.754 344.623C117.82 349.35 121.648 353.179 126.374 353.247C126.457 353.263 126.541 353.263 126.624 353.247C131.35 353.181 135.18 349.353 135.247 344.627C135.264 344.543 135.263 344.456 135.246 344.372C135.226 342.945 134.868 341.599 134.24 340.418L133.255 341.403C133.605 342.158 133.83 342.981 133.907 343.844H132.844C132.758 343.843 132.671 343.859 132.59 343.891C132.51 343.924 132.436 343.972 132.374 344.033C132.312 344.094 132.263 344.167 132.23 344.247C132.196 344.327 132.179 344.413 132.179 344.5C132.179 344.587 132.196 344.673 132.23 344.753C132.263 344.834 132.312 344.906 132.374 344.968C132.436 345.029 132.51 345.077 132.59 345.109C132.671 345.142 132.758 345.158 132.844 345.156H133.905C133.59 348.733 130.733 351.589 127.157 351.904V350.844C127.158 350.756 127.142 350.669 127.109 350.588C127.076 350.506 127.027 350.432 126.965 350.37C126.902 350.308 126.828 350.259 126.747 350.226C126.666 350.193 126.578 350.177 126.49 350.178C126.317 350.181 126.151 350.253 126.03 350.377C125.909 350.502 125.842 350.67 125.844 350.844V351.904C122.268 351.589 119.412 348.733 119.097 345.156H120.157C120.244 345.158 120.33 345.142 120.411 345.109C120.492 345.077 120.565 345.029 120.627 344.968C120.689 344.906 120.738 344.834 120.772 344.753C120.805 344.673 120.823 344.587 120.823 344.5C120.823 344.413 120.805 344.327 120.772 344.247C120.738 344.167 120.689 344.094 120.627 344.033C120.565 343.972 120.492 343.924 120.411 343.891C120.33 343.859 120.244 343.843 120.157 343.844H119.097C119.412 340.268 122.268 337.411 125.844 337.096V338.156C125.843 338.243 125.859 338.33 125.892 338.41C125.924 338.491 125.972 338.565 126.033 338.627C126.094 338.688 126.167 338.738 126.247 338.771C126.328 338.805 126.414 338.822 126.501 338.822C126.588 338.822 126.674 338.805 126.754 338.771C126.834 338.738 126.907 338.688 126.968 338.627C127.029 338.565 127.077 338.491 127.11 338.41C127.142 338.33 127.158 338.243 127.157 338.156V337.093C128.468 337.209 129.685 337.666 130.714 338.379L131.658 337.434C130.245 336.401 128.514 335.784 126.637 335.755C126.589 335.745 126.54 335.74 126.49 335.741ZM133.269 337.932C133.099 337.937 132.937 338.008 132.818 338.13L126.501 344.447L123.683 341.63C123.623 341.567 123.551 341.517 123.47 341.482C123.39 341.447 123.304 341.429 123.217 341.428C123.129 341.427 123.043 341.444 122.962 341.477C122.881 341.51 122.808 341.559 122.746 341.62C122.684 341.682 122.635 341.756 122.602 341.836C122.569 341.917 122.553 342.004 122.554 342.091C122.555 342.178 122.573 342.265 122.608 342.345C122.642 342.425 122.693 342.497 122.755 342.558L126.037 345.839C126.16 345.962 126.327 346.031 126.501 346.031C126.675 346.031 126.842 345.962 126.965 345.839L133.746 339.058C133.841 338.966 133.905 338.847 133.931 338.718C133.958 338.588 133.944 338.454 133.892 338.332C133.841 338.21 133.754 338.107 133.643 338.035C133.531 337.964 133.401 337.928 133.269 337.932Z" fill="white"/>
<rect x="4" y="141" width="41" height="41" rx="20.5" fill="#9747FF" fill-opacity="0.4"/>
<path d="M24.4905 152.741C24.4526 152.742 24.4148 152.746 24.3777 152.754C19.6512 152.819 15.8217 156.648 15.7542 161.374C15.7382 161.456 15.7382 161.541 15.7542 161.623C15.8199 166.35 19.6482 170.179 24.3743 170.247C24.4567 170.263 24.5414 170.263 24.6238 170.247C29.3503 170.181 33.1797 166.353 33.2473 161.627C33.2637 161.543 33.2634 161.456 33.2465 161.372C33.2259 159.945 32.8685 158.599 32.2399 157.418L31.2555 158.403C31.6052 159.158 31.8297 159.981 31.9066 160.844H30.8445C30.7575 160.843 30.6712 160.859 30.5905 160.891C30.5098 160.924 30.4363 160.972 30.3744 161.033C30.3125 161.094 30.2633 161.167 30.2297 161.247C30.1962 161.327 30.1789 161.413 30.1789 161.5C30.1789 161.587 30.1962 161.673 30.2297 161.753C30.2633 161.834 30.3125 161.906 30.3744 161.968C30.4363 162.029 30.5098 162.077 30.5905 162.109C30.6712 162.142 30.7575 162.158 30.8445 162.156H31.9049C31.5898 165.733 28.7331 168.589 25.157 168.904V167.844C25.1582 167.756 25.1419 167.669 25.1088 167.588C25.0757 167.506 25.0267 167.432 24.9645 167.37C24.9024 167.308 24.8284 167.259 24.747 167.226C24.6655 167.193 24.5783 167.177 24.4905 167.178C24.3166 167.181 24.1509 167.253 24.0297 167.377C23.9086 167.502 23.842 167.67 23.8445 167.844V168.904C20.2684 168.589 17.4117 165.733 17.0966 162.156H18.157C18.2439 162.158 18.3303 162.142 18.411 162.109C18.4917 162.077 18.5651 162.029 18.6271 161.968C18.689 161.906 18.7382 161.834 18.7717 161.753C18.8053 161.673 18.8226 161.587 18.8226 161.5C18.8226 161.413 18.8053 161.327 18.7717 161.247C18.7382 161.167 18.689 161.094 18.6271 161.033C18.5651 160.972 18.4917 160.924 18.411 160.891C18.3303 160.859 18.2439 160.843 18.157 160.844H17.0966C17.4117 157.268 20.2684 154.411 23.8445 154.096V155.156C23.8433 155.243 23.8593 155.33 23.8917 155.41C23.9242 155.491 23.9723 155.565 24.0334 155.627C24.0944 155.688 24.1672 155.738 24.2474 155.771C24.3277 155.805 24.4138 155.822 24.5007 155.822C24.5877 155.822 24.6738 155.805 24.754 155.771C24.8343 155.738 24.907 155.688 24.9681 155.627C25.0292 155.565 25.0773 155.491 25.1097 155.41C25.1421 155.33 25.1582 155.243 25.157 155.156V154.093C26.4684 154.209 27.6854 154.666 28.7142 155.379L29.6585 154.434C28.2449 153.401 26.5138 152.784 24.6375 152.755C24.5892 152.745 24.5399 152.74 24.4905 152.741ZM31.2692 154.932C31.0987 154.937 30.9369 155.008 30.818 155.13L24.5007 161.447L21.6835 158.63C21.623 158.567 21.5506 158.517 21.4704 158.482C21.3903 158.447 21.304 158.429 21.2167 158.428C21.1294 158.427 21.0428 158.444 20.962 158.477C20.8811 158.51 20.8077 158.559 20.746 158.62C20.6842 158.682 20.6354 158.756 20.6024 158.836C20.5694 158.917 20.5529 159.004 20.5538 159.091C20.5547 159.178 20.573 159.265 20.6076 159.345C20.6422 159.425 20.6925 159.497 20.7555 159.558L24.0367 162.839C24.1598 162.962 24.3267 163.031 24.5007 163.031C24.6748 163.031 24.8416 162.962 24.9647 162.839L31.746 156.058C31.8406 155.966 31.9053 155.847 31.9314 155.718C31.9576 155.588 31.944 155.454 31.8924 155.332C31.8409 155.21 31.7539 155.107 31.6426 155.035C31.5314 154.964 31.4013 154.928 31.2692 154.932Z" fill="white"/>
</svg>
