<svg width="60" height="65" viewBox="0 0 60 65" fill="none" xmlns="http://www.w3.org/2000/svg">
<path d="M37.3306 12.0011C34.9295 11.2102 32.3635 10.7822 29.6976 10.7822C16.2344 10.7822 5.32031 21.6963 5.32031 35.1595C5.32031 48.6226 16.2344 59.5368 29.6976 59.5368C43.1607 59.5368 54.0749 48.6226 54.0749 35.1595C54.0749 32.6116 53.6839 30.155 52.9589 27.8463" stroke="#016A70" stroke-width="3.65659" stroke-linecap="round"/>
<path d="M42.0709 34.4951C42.0709 41.4816 36.5311 47.1454 29.6975 47.1454C22.864 47.1454 17.3242 41.4816 17.3242 34.4951C17.3242 27.5085 22.864 21.8447 29.6975 21.8447" stroke="#016A70" stroke-width="3.65659" stroke-linecap="round" stroke-linejoin="round"/>
<path d="M48.2553 15.5195L29.6953 34.495M48.2553 15.5195V9.19434M48.2553 15.5195H54.442" stroke="#016A70" stroke-width="3.65659" stroke-linecap="round"/>
</svg>
