<svg width="54" height="54" viewBox="0 0 54 54" fill="none" xmlns="http://www.w3.org/2000/svg">
<path d="M10.7962 1.22591C10.6314 1.24568 10.46 1.28523 10.2919 1.35115C9.61628 1.60164 9.2801 2.1949 9.2801 2.86726V6.41365L8.18256 5.31612C7.84638 4.97993 7.33881 4.97993 7.00263 5.31612C6.66645 5.6523 6.66645 6.15987 7.00263 6.49605L8.10017 7.59358H4.55378C3.88142 7.59358 3.28815 8.01546 3.03767 8.60542C2.78388 9.19539 2.86628 9.95674 3.37385 10.4643L7.92878 15.0192C6.07319 18.3942 5.06135 22.2735 5.06135 26.1561C5.06135 33.7498 8.85822 40.5855 14.5964 44.7186L11.9794 48.5155C11.7257 48.9373 11.8113 49.4449 12.1508 49.6987C12.3189 49.7811 12.487 49.8635 12.6551 49.8635C12.9089 49.8635 13.1627 49.7811 13.3308 49.5273L16.0301 45.7304C19.4908 47.8398 23.5382 49.0197 27.8426 49.0197C32.147 49.0197 36.1944 47.8398 39.6551 45.7304L42.3544 49.5273C42.5225 49.7811 42.7763 49.8635 43.0301 49.8635C43.1982 49.8635 43.3663 49.7811 43.5344 49.6987C43.9562 49.4449 44.0419 48.9373 43.7058 48.5155L41.0888 44.7186C46.827 40.5855 50.6238 33.7498 50.6238 26.1561C50.6238 13.5855 40.4132 3.37483 27.8426 3.37483C23.96 3.37483 20.0808 4.38667 16.7058 6.24226L12.1508 1.68733C11.7685 1.3083 11.2939 1.16658 10.7962 1.22591ZM10.9676 2.86726L16.3696 8.26924C16.7058 8.60542 16.8738 9.0273 16.8738 9.44917V13.9217L10.9676 8.01546V2.86726ZM27.8426 5.06233C39.487 5.06233 48.9363 14.5117 48.9363 26.1561C48.9363 37.8005 39.487 47.2498 27.8426 47.2498C16.1982 47.2498 6.74885 37.8005 6.74885 26.1561C6.74885 22.6954 7.5926 19.3237 9.1977 16.2849C9.78767 16.7067 10.46 16.8748 11.1357 16.8748H17.2957L27.1669 26.746C27.335 26.9141 27.5888 26.9998 27.7602 26.9998C27.9283 26.9998 28.1788 26.9141 28.3469 26.746C28.6863 26.4099 28.6863 25.9023 28.3469 25.5661L18.5613 15.6916V9.53487C18.5613 8.85921 18.3076 8.18355 17.9714 7.59358C21.0102 5.90608 24.3819 5.06233 27.8426 5.06233ZM27.8426 8.43733C25.0576 8.43733 22.3582 9.11299 19.827 10.2929C19.4051 10.461 19.237 10.9686 19.4875 11.3905C19.6589 11.8123 20.1664 11.9804 20.5883 11.7299C22.8658 10.6324 25.2289 10.0424 27.7602 10.0424C36.6196 10.0424 43.7915 17.2143 43.7915 26.0737C43.7915 34.9331 36.6196 42.1049 27.7602 42.1049C18.9008 42.1049 11.7289 34.9331 11.7289 26.0737C11.7289 25.2299 11.8113 24.4686 11.8937 23.6248C11.9794 23.203 11.6433 22.6987 11.2214 22.6987C10.7995 22.613 10.2919 22.9492 10.2919 23.371C10.1238 24.2148 10.1238 25.1442 10.1238 25.988C10.1238 35.7768 18.0538 43.7067 27.8426 43.7067C37.6314 43.7067 45.5613 35.7768 45.5613 25.988C45.5613 16.1992 37.6314 8.43733 27.8426 8.43733ZM4.55378 9.28108H9.78437L15.6906 15.1873H11.2214C10.7995 15.1873 10.3776 15.0192 10.0414 14.6831L4.55378 9.28108ZM27.8426 14.3436C25.987 14.3436 24.0457 14.7655 22.3582 15.6916C21.9363 15.9454 21.7683 16.453 22.0187 16.7924C22.2725 17.2143 22.7801 17.3824 23.1196 17.1286C24.5533 16.3706 26.1551 15.9487 27.7602 15.9487C33.4127 16.0311 37.9676 20.586 37.9676 26.1561C37.9676 29.953 35.8582 33.4104 32.4832 35.0979C32.0613 35.3516 31.8933 35.8592 32.1437 36.1987C32.3151 36.4492 32.5689 36.6206 32.9051 36.6206C33.0732 36.6206 33.1589 36.6206 33.327 36.5349C37.2095 34.5936 39.6551 30.5429 39.6551 26.1561C39.6551 19.6599 34.3388 14.3436 27.8426 14.3436ZM12.8364 17.8208C12.5068 17.8142 12.1904 17.9724 12.0651 18.2229C11.8113 18.8161 11.4752 19.4061 11.3071 19.996C11.0533 20.4179 11.3071 20.8398 11.7289 21.0112C11.8113 21.0112 11.897 21.0936 12.0651 21.0936C12.4013 21.0936 12.7375 20.9255 12.8232 20.5893C12.9913 20.0817 13.2451 19.4918 13.4988 18.9842C13.6669 18.5623 13.4988 18.0548 13.1594 17.8867C13.0539 17.8438 12.9451 17.824 12.8364 17.8208ZM18.4031 19.7983C18.0703 19.7587 17.7407 19.9334 17.5495 20.2498C17.3814 20.6717 17.5495 21.1793 17.8857 21.4331L19.3227 22.2768C19.4908 22.3592 19.5732 22.3592 19.7446 22.3592C19.9951 22.3592 20.3345 22.1911 20.5026 21.9373C20.7564 21.5155 20.5883 21.0079 20.1664 20.7541L18.7294 19.9104C18.624 19.8477 18.5152 19.8115 18.4031 19.7983ZM27.8426 20.2498C27.5064 20.2498 27.1669 20.2498 26.8308 20.3322C26.4089 20.4179 26.0694 20.8398 26.1551 21.3474C26.2408 21.7692 26.6594 22.1054 27.1669 22.0197C27.4207 22.0197 27.6745 21.9373 27.8426 21.9373C30.2058 21.9373 32.0613 23.7929 32.0613 26.1561C32.0613 28.5192 30.2058 30.3748 27.8426 30.3748C25.4794 30.3748 23.6238 28.5192 23.6238 26.1561C23.6238 25.9023 23.6238 25.6485 23.7062 25.4804C23.7919 25.0585 23.4558 24.5543 23.0339 24.4686C22.5263 24.3829 22.1044 24.7224 22.0187 25.1442C21.9363 25.4804 21.9363 25.8199 21.9363 26.1561C21.9363 29.4454 24.5533 32.0623 27.8426 32.0623C31.1319 32.0623 33.7488 29.4454 33.7488 26.1561C33.7488 22.8668 31.1319 20.2498 27.8426 20.2498ZM16.8738 25.3123C16.3663 25.3123 16.0301 25.6485 16.0301 26.1561C16.0301 26.6637 16.3663 26.9998 16.8738 26.9998H18.5613C19.0689 26.9998 19.4051 26.6637 19.4051 26.1561C19.4051 25.6485 19.0689 25.3123 18.5613 25.3123H16.8738ZM19.6951 29.9595C19.5897 29.9694 19.4908 29.9958 19.4051 30.0354L17.9714 30.8791C17.5495 31.1329 17.4638 31.6405 17.6352 32.0623C17.8033 32.3161 18.0571 32.4842 18.3933 32.4842C18.5613 32.4842 18.647 32.4842 18.8151 32.4018L20.2488 31.5581C20.6707 31.3043 20.7564 30.7967 20.5883 30.3748C20.3972 30.0584 20.0181 29.9332 19.6951 29.9595ZM23.2976 33.2983C22.9647 33.2587 22.6318 33.4334 22.4406 33.7498L21.5969 35.1835C21.4288 35.6054 21.5145 36.113 21.9363 36.3635C22.1044 36.4492 22.1901 36.4492 22.3582 36.4492C22.612 36.4492 22.9482 36.2811 23.1196 36.0273L23.9633 34.5936C24.2138 34.1717 24.0457 33.6641 23.6238 33.4104C23.5184 33.3477 23.4096 33.3115 23.2976 33.2983ZM27.8426 34.5936C27.335 34.5936 26.9988 34.9298 26.9988 35.4373V37.1248C26.9988 37.6324 27.335 37.9686 27.8426 37.9686C28.3502 37.9686 28.6863 37.6324 28.6863 37.1248V35.4373C28.6863 34.9298 28.3502 34.5936 27.8426 34.5936Z" fill="#016A70"/>
</svg>
