<svg width="54" height="54" viewBox="0 0 54 54" fill="none" xmlns="http://www.w3.org/2000/svg">
<path d="M29.5307 0C17.5831 0 8.71384 7.93982 8.44358 18.8789C8.43699 19.1459 8.39414 19.3931 8.31834 19.6172L3.74692 33.338C3.58543 33.8225 3.65134 34.3499 3.9282 34.7783C4.20176 35.2101 4.6533 35.4902 5.16087 35.5463L7.68552 35.8297C8.11399 35.8759 8.43699 36.2351 8.43699 36.6669V44.3232C8.43699 45.5229 8.94785 46.6666 9.84104 47.4675C10.7342 48.2684 11.9306 48.6508 13.1205 48.5156L15.5693 48.2454L20.1177 47.7378L19.6661 51.1392C19.5705 51.861 19.7914 52.5894 20.2726 53.1398C20.7505 53.6869 21.4459 54 22.1743 54H44.5304C45.2456 54 45.9344 53.6968 46.4123 53.1628C46.8902 52.6289 47.1242 51.917 47.0484 51.2051L45.8355 39.6892C45.7202 38.5917 45.9114 37.4941 46.3893 36.5186C49.1578 30.843 50.6245 24.6335 50.6245 18.5625C50.6245 7.6333 41.9497 0 29.5307 0ZM29.5307 1.6875C42.9352 1.6875 48.937 10.1646 48.937 18.5625C48.937 24.3765 47.5296 30.3322 44.8731 35.7803C44.2568 37.0393 44.0096 38.4532 44.1579 39.8639L45.3708 51.3798C45.3972 51.6204 45.3214 51.8544 45.1566 52.0356C44.9984 52.2136 44.771 52.3125 44.5304 52.3125H22.1743C21.9271 52.3125 21.703 52.2103 21.5415 52.0225C21.3767 51.8379 21.3075 51.6039 21.3404 51.36L21.8447 47.5466L24.5605 47.2434C25.0252 47.1907 25.3581 46.7754 25.3087 46.314C25.256 45.8492 24.8374 45.5131 24.376 45.5658L22.0721 45.8229L12.9359 46.838C12.224 46.9171 11.5022 46.6897 10.9682 46.2085C10.4244 45.724 10.1245 45.0516 10.1245 44.3232V36.6669C10.1245 35.3749 9.15549 34.2938 7.87009 34.1521L5.34873 33.8687L9.92344 20.1511C10.0487 19.7688 10.1212 19.3535 10.1311 18.9185C10.3783 8.93518 18.5356 1.6875 29.5307 1.6875ZM29.5307 4.21875C29.066 4.21875 28.687 4.59778 28.687 5.0625V6.75C28.687 7.21472 29.066 7.59375 29.5307 7.59375C29.9955 7.59375 30.3745 7.21472 30.3745 6.75V5.0625C30.3745 4.59778 29.9955 4.21875 29.5307 4.21875ZM24.9527 4.84497C24.844 4.82849 24.7286 4.83508 24.6166 4.86475C24.1683 4.98669 23.898 5.44812 24.02 5.89966L24.4551 7.52783C24.5572 7.90686 24.8967 8.15405 25.2724 8.15405C25.3417 8.15405 25.4175 8.14746 25.49 8.12769C25.9382 8.00574 26.2085 7.54102 26.0865 7.09277L25.6515 5.4613C25.5592 5.12512 25.2757 4.88782 24.9527 4.84497ZM34.1087 4.84497C33.7824 4.88782 33.499 5.12512 33.41 5.4613L32.9717 7.09277C32.853 7.54102 33.12 8.00574 33.5682 8.12769C33.644 8.14417 33.7165 8.15405 33.789 8.15405C34.1615 8.15405 34.5042 7.90686 34.6031 7.52783L35.0415 5.89966C35.1601 5.44812 34.8932 4.98669 34.4449 4.86475C34.3296 4.83508 34.2175 4.82849 34.1087 4.84497ZM20.355 6.65442C20.2462 6.6676 20.1407 6.70386 20.0386 6.76318C19.6332 6.9939 19.498 7.51135 19.732 7.91675L20.5758 9.37354C20.7307 9.64709 21.0141 9.79541 21.3042 9.79541C21.4492 9.79541 21.5942 9.76245 21.7261 9.68665C22.1314 9.45264 22.2666 8.93518 22.0326 8.52979L21.1888 7.073C21.0174 6.76978 20.6813 6.61487 20.355 6.65442ZM38.7065 6.65771C38.3769 6.61487 38.044 6.76978 37.8727 7.073L37.0289 8.53308C36.7949 8.93518 36.93 9.45264 37.3354 9.68665C37.4673 9.76245 37.6123 9.79871 37.7573 9.79871C38.0473 9.79871 38.3308 9.64709 38.4857 9.37683L39.3294 7.91675C39.5635 7.51135 39.425 6.99719 39.0229 6.76318C38.9208 6.70386 38.8153 6.6709 38.7065 6.65771ZM29.5044 11.8125C23.4696 11.8125 18.562 16.7201 18.562 22.7549C18.562 25.6289 20.0517 27.7152 21.3701 29.5543C22.5303 31.1759 23.6245 32.7085 23.6245 34.597V36.2812C23.6245 39.5376 26.2744 42.1875 29.5307 42.1875C32.7871 42.1875 35.437 39.5376 35.437 36.2812V34.5938C35.437 32.7052 36.5213 31.1759 37.6683 29.5543C38.9735 27.7119 40.4468 25.6256 40.4468 22.7549C40.4468 16.7201 35.5392 11.8125 29.5044 11.8125ZM29.5044 13.5C34.6064 13.5 38.7593 17.6528 38.7593 22.7549C38.7593 25.0917 37.5628 26.7858 36.2939 28.5787C35.1898 30.1311 34.0593 31.7329 33.8022 33.75H25.2593C24.9989 31.7329 23.8519 30.1311 22.7412 28.5721C21.4591 26.7825 20.2495 25.0884 20.2495 22.7549C20.2495 17.6528 24.4023 13.5 29.5044 13.5ZM26.1557 21.9375C25.9415 21.9375 25.724 22.0199 25.5592 22.1847C25.2296 22.5143 25.2296 23.0482 25.5592 23.3778L27.2467 25.0653C27.4115 25.2301 27.6257 25.3125 27.8432 25.3125C28.0608 25.3125 28.275 25.2301 28.4398 25.0653C28.7694 24.7357 28.7694 24.2018 28.4398 23.8722L26.7523 22.1847C26.5875 22.0199 26.37 21.9375 26.1557 21.9375ZM32.9057 21.9375C32.6915 21.9375 32.474 22.0199 32.3092 22.1847L28.9342 25.5597C28.776 25.7179 28.687 25.9321 28.687 26.1562V31.2188C28.687 31.6835 29.066 32.0625 29.5307 32.0625C29.9955 32.0625 30.3745 31.6835 30.3745 31.2188V26.5056L33.5023 23.3778C33.8319 23.0482 33.8319 22.5143 33.5023 22.1847C33.3375 22.0199 33.12 21.9375 32.9057 21.9375ZM33.7495 35.4375V36.2812C33.7495 38.6082 31.8576 40.5 29.5307 40.5C27.2038 40.5 25.312 38.6082 25.312 36.2812V35.4408L33.7495 35.4375Z" fill="#016A70"/>
</svg>
