<svg width="54" height="54" viewBox="0 0 54 54" fill="none" xmlns="http://www.w3.org/2000/svg">
<path d="M5.90625 5.0625C4.51208 5.0625 3.375 6.19958 3.375 7.59375V46.4062C3.375 47.8004 4.51208 48.9375 5.90625 48.9375H48.0938C49.4879 48.9375 50.625 47.8004 50.625 46.4062V7.59375C50.625 6.19958 49.4879 5.0625 48.0938 5.0625H5.90625ZM5.90625 6.75H48.0938C48.5585 6.75 48.9375 7.12903 48.9375 7.59375V46.4062C48.9375 46.871 48.5585 47.25 48.0938 47.25H5.90625C5.44153 47.25 5.0625 46.871 5.0625 46.4062V7.59375C5.0625 7.12903 5.44153 6.75 5.90625 6.75ZM20.1973 14.9337C19.9105 14.937 19.6205 15.0161 19.3634 15.1677C18.8394 15.4742 18.5625 16.0181 18.5625 16.6245V35.6913C18.5625 36.2944 18.8394 36.8383 19.3634 37.1448C19.6271 37.303 19.9237 37.3788 20.2203 37.3788C20.5005 37.3788 20.7806 37.3096 21.041 37.1646L38.1797 27.6328C38.7136 27.3329 39.0465 26.7693 39.0465 26.1562C39.0465 25.5465 38.7103 24.9796 38.1764 24.6797L21.0377 15.1479C20.774 14.9996 20.484 14.9304 20.1973 14.9337ZM20.2203 16.6212L37.3557 26.1562L20.2203 35.6946V16.6212ZM7.59375 42.1875C7.12903 42.1875 6.75 42.5665 6.75 43.0312V44.7188C6.75 45.1835 7.12903 45.5625 7.59375 45.5625C8.05847 45.5625 8.4375 45.1835 8.4375 44.7188V43.0312C8.4375 42.5665 8.05847 42.1875 7.59375 42.1875ZM11.8125 42.1875C11.3478 42.1875 10.9688 42.5665 10.9688 43.0312V44.7188C10.9688 45.1835 11.3478 45.5625 11.8125 45.5625C12.2772 45.5625 12.6562 45.1835 12.6562 44.7188V43.0312C12.6562 42.5665 12.2772 42.1875 11.8125 42.1875ZM16.0312 42.1875C15.5665 42.1875 15.1875 42.5665 15.1875 43.0312V44.7188C15.1875 45.1835 15.5665 45.5625 16.0312 45.5625C16.496 45.5625 16.875 45.1835 16.875 44.7188V43.0312C16.875 42.5665 16.496 42.1875 16.0312 42.1875ZM20.25 42.1875C19.7853 42.1875 19.4062 42.5665 19.4062 43.0312V44.7188C19.4062 45.1835 19.7853 45.5625 20.25 45.5625C20.7147 45.5625 21.0938 45.1835 21.0938 44.7188V43.0312C21.0938 42.5665 20.7147 42.1875 20.25 42.1875ZM24.4688 42.1875C24.004 42.1875 23.625 42.5665 23.625 43.0312V44.7188C23.625 45.1835 24.004 45.5625 24.4688 45.5625C24.9335 45.5625 25.3125 45.1835 25.3125 44.7188V43.0312C25.3125 42.5665 24.9335 42.1875 24.4688 42.1875ZM28.6875 42.1875C28.2228 42.1875 27.8438 42.5665 27.8438 43.0312V44.7188C27.8438 45.1835 28.2228 45.5625 28.6875 45.5625C29.1522 45.5625 29.5312 45.1835 29.5312 44.7188V43.0312C29.5312 42.5665 29.1522 42.1875 28.6875 42.1875ZM32.9062 42.1875C32.4415 42.1875 32.0625 42.5665 32.0625 43.0312V44.7188C32.0625 45.1835 32.4415 45.5625 32.9062 45.5625C33.371 45.5625 33.75 45.1835 33.75 44.7188V43.0312C33.75 42.5665 33.371 42.1875 32.9062 42.1875ZM37.125 42.1875C36.6603 42.1875 36.2812 42.5665 36.2812 43.0312V44.7188C36.2812 45.1835 36.6603 45.5625 37.125 45.5625C37.5897 45.5625 37.9688 45.1835 37.9688 44.7188V43.0312C37.9688 42.5665 37.5897 42.1875 37.125 42.1875ZM41.3438 42.1875C40.879 42.1875 40.5 42.5665 40.5 43.0312V44.7188C40.5 45.1835 40.879 45.5625 41.3438 45.5625C41.8085 45.5625 42.1875 45.1835 42.1875 44.7188V43.0312C42.1875 42.5665 41.8085 42.1875 41.3438 42.1875ZM45.5625 42.1875C45.0978 42.1875 44.7188 42.5665 44.7188 43.0312V44.7188C44.7188 45.1835 45.0978 45.5625 45.5625 45.5625C46.0272 45.5625 46.4062 45.1835 46.4062 44.7188V43.0312C46.4062 42.5665 46.0272 42.1875 45.5625 42.1875Z" fill="#016A70"/>
</svg>
