<svg width="438" height="44" viewBox="0 0 438 44" fill="none" xmlns="http://www.w3.org/2000/svg">
<mask id="mask0_4344_6147" style="mask-type:luminance" maskUnits="userSpaceOnUse" x="17" y="8" width="24" height="36">
<path d="M17.666 8.33398H40.3327V43.3548H17.666V8.33398Z" fill="white"/>
</mask>
<g mask="url(#mask0_4344_6147)">
<path d="M22.0566 43.1621L39.2181 8.63086H32.4837L18.666 36.3444L22.0566 43.1621Z" fill="#1A9CA4"/>
</g>
<mask id="mask1_4344_6147" style="mask-type:luminance" maskUnits="userSpaceOnUse" x="9" y="0" width="16" height="15">
<path d="M9.66602 0.353516H24.3327V14.9993H9.66602V0.353516Z" fill="white"/>
</mask>
<g mask="url(#mask1_4344_6147)">
<path d="M24.1563 0.369141L17.3177 14.6452L10.5469 0.369141H24.1563Z" fill="#1A9CA4"/>
</g>
<mask id="mask2_4344_6147" style="mask-type:luminance" maskUnits="userSpaceOnUse" x="0" y="0" width="53" height="35">
<path d="M0.755859 0.353516H52.334V34.9993H0.755859V0.353516Z" fill="white"/>
</mask>
<g mask="url(#mask2_4344_6147)">
<path d="M51.4219 6.45247C51.0417 5.54622 50.5365 4.72331 49.9115 3.9681C49.2865 3.21289 48.5677 2.56706 47.75 2.02539C46.9375 1.48893 46.0625 1.07747 45.125 0.791016C44.1875 0.509765 43.2292 0.369141 42.25 0.369141H27.099L17.3177 20.1243L7.51563 0.369141H0.75L17.3177 33.7598L17.3229 33.7702L30.8594 6.43164H42.25C42.7552 6.44727 43.2396 6.55664 43.7031 6.76497C44.1667 6.9681 44.5729 7.25456 44.9219 7.61393C45.276 7.97852 45.5469 8.39518 45.7344 8.86393C45.9271 9.33268 46.0208 9.82227 46.0208 10.3275C46.0208 10.8327 45.9271 11.3171 45.7344 11.7858C45.5469 12.2546 45.276 12.6712 44.9219 13.0358C44.5729 13.4004 44.1667 13.6816 43.7031 13.89C43.2396 14.0931 42.7552 14.2025 42.25 14.2233H38.9844L35.974 20.2806H42.25C42.6615 20.2806 43.0677 20.2546 43.474 20.2025C43.8802 20.1556 44.2813 20.0775 44.6771 19.9785C45.0729 19.8796 45.4635 19.7546 45.8438 19.6087C46.2292 19.4577 46.599 19.2858 46.9583 19.0931C47.3177 18.9004 47.6667 18.6868 48 18.4473C48.3333 18.2129 48.651 17.9577 48.9531 17.6816C49.2552 17.4056 49.5417 17.1139 49.8073 16.8014C50.0729 16.4889 50.3229 16.166 50.5469 15.8223C50.7708 15.4837 50.9792 15.1296 51.1615 14.765C51.3438 14.3952 51.5 14.0202 51.6354 13.6348C51.776 13.2494 51.8854 12.8587 51.974 12.4577C52.0625 12.0566 52.125 11.6556 52.1615 11.2441C52.1979 10.8379 52.2135 10.4316 52.2031 10.0202C52.1875 9.61393 52.151 9.20768 52.0885 8.80143C52.026 8.39518 51.9375 7.99935 51.8281 7.60352C51.7188 7.21289 51.5833 6.82747 51.4219 6.44727V6.45247Z" fill="#016A70"/>
</g>
<path d="M97.3555 4.67969L83.2305 37.3464H75.7513L61.668 4.67969H69.8346L79.7721 28.013L89.8555 4.67969H97.3555Z" fill="#1A9CA4"/>
<path d="M126.065 31.2839V37.3464H100.773V4.67969H125.461V10.7422H108.294V17.8464H123.461V23.7214H108.294V31.2839H126.065Z" fill="#1A9CA4"/>
<path d="M162.048 4.67969V37.3464H155.84L139.548 17.513V37.3464H132.09V4.67969H138.34L154.59 24.513V4.67969H162.048Z" fill="#1A9CA4"/>
<path d="M176.568 10.8464H166.109V4.67969H194.568V10.8464H184.13V37.3464H176.568V10.8464Z" fill="#1A9CA4"/>
<path d="M213.158 37.9089C208.492 37.9089 204.851 36.6172 202.242 34.0339C199.643 31.4505 198.346 27.763 198.346 22.9714V4.67969H205.908V22.7005C205.908 28.5495 208.335 31.4714 213.2 31.4714C215.559 31.4714 217.356 30.763 218.596 29.3464C219.846 27.9297 220.471 25.7161 220.471 22.7005V4.67969H227.95V22.9714C227.95 27.763 226.648 31.4505 224.054 34.0339C221.455 36.6172 217.825 37.9089 213.158 37.9089Z" fill="#1A9CA4"/>
<path d="M256.225 37.3464L249.933 28.2422H242.975V37.3464H235.412V4.67969H249.558C252.443 4.67969 254.954 5.16927 257.079 6.13802C259.214 7.09635 260.86 8.46615 262.016 10.2422C263.167 12.0078 263.745 14.1068 263.745 16.5339C263.745 18.9661 263.162 21.0651 261.995 22.8255C260.829 24.5755 259.167 25.9193 257.016 26.8464L264.35 37.3464H256.225ZM256.079 16.5339C256.079 14.7005 255.485 13.2995 254.308 12.3255C253.126 11.3411 251.396 10.8464 249.12 10.8464H242.975V22.2214H249.12C251.396 22.2214 253.126 21.7318 254.308 20.7422C255.485 19.7422 256.079 18.3411 256.079 16.5339Z" fill="#1A9CA4"/>
<path d="M295.007 31.2839V37.3464H269.715V4.67969H294.402V10.7422H277.236V17.8464H292.402V23.7214H277.236V31.2839H295.007Z" fill="#1A9CA4"/>
<path d="M328.382 4.67969C331.268 4.67969 333.778 5.16927 335.903 6.13802C338.038 7.09635 339.684 8.46615 340.84 10.2422C341.992 12.0078 342.57 14.1068 342.57 16.5339C342.57 18.9245 341.992 21.013 340.84 22.8047C339.684 24.5964 338.038 25.9714 335.903 26.9297C333.778 27.8776 331.268 28.3464 328.382 28.3464H321.799V37.3464H314.236V4.67969H328.382ZM327.945 22.1797C330.221 22.1797 331.95 21.6953 333.132 20.7214C334.309 19.737 334.903 18.3411 334.903 16.5339C334.903 14.7005 334.309 13.2995 333.132 12.3255C331.95 11.3411 330.221 10.8464 327.945 10.8464H321.799V22.1797H327.945Z" fill="#1A9CA4"/>
<path d="M348.396 4.67969H355.959V31.1797H372.334V37.3464H348.396V4.67969Z" fill="#1A9CA4"/>
<path d="M391.105 37.9089C386.439 37.9089 382.798 36.6172 380.189 34.0339C377.59 31.4505 376.293 27.763 376.293 22.9714V4.67969H383.855V22.7005C383.855 28.5495 386.283 31.4714 391.147 31.4714C393.507 31.4714 395.303 30.763 396.543 29.3464C397.793 27.9297 398.418 25.7161 398.418 22.7005V4.67969H405.897V22.9714C405.897 27.763 404.595 31.4505 402.001 34.0339C399.402 36.6172 395.772 37.9089 391.105 37.9089Z" fill="#1A9CA4"/>
<path d="M424.089 37.9089C421.505 37.9089 419.005 37.5599 416.589 36.8672C414.182 36.1589 412.255 35.2422 410.797 34.1172L413.359 28.4297C414.76 29.4609 416.422 30.2839 418.339 30.9089C420.266 31.5339 422.198 31.8464 424.13 31.8464C426.281 31.8464 427.87 31.5286 428.901 30.888C429.927 30.2526 430.443 29.4036 430.443 28.3464C430.443 27.5703 430.135 26.9245 429.526 26.4089C428.911 25.8984 428.135 25.487 427.193 25.1797C426.245 24.862 424.964 24.513 423.339 24.138C420.849 23.5547 418.818 22.9661 417.234 22.3672C415.651 21.7734 414.286 20.8203 413.151 19.513C412.01 18.2109 411.443 16.4661 411.443 14.2839C411.443 12.3984 411.953 10.6797 412.984 9.13802C414.01 7.59635 415.557 6.3776 417.63 5.47135C419.698 4.57031 422.224 4.11719 425.214 4.11719C427.297 4.11719 429.328 4.36719 431.318 4.86719C433.318 5.36719 435.057 6.08594 436.547 7.01302L434.214 12.763C431.198 11.0443 428.182 10.1797 425.172 10.1797C423.047 10.1797 421.474 10.5286 420.464 11.2214C419.464 11.9036 418.964 12.8047 418.964 13.9297C418.964 15.0443 419.547 15.8776 420.714 16.4297C421.88 16.9714 423.656 17.5078 426.047 18.0339C428.531 18.6172 430.568 19.2109 432.151 19.8047C433.745 20.388 435.109 21.3203 436.234 22.5964C437.37 23.8776 437.943 25.6068 437.943 27.7839C437.943 29.6484 437.422 31.3464 436.38 32.888C435.339 34.4297 433.776 35.6536 431.693 36.5547C429.609 37.4557 427.073 37.9089 424.089 37.9089Z" fill="#1A9CA4"/>
</svg>
