<svg width="67" height="67" viewBox="0 0 67 67" fill="none" xmlns="http://www.w3.org/2000/svg">
<path d="M0.582031 33.5C0.582031 51.6503 15.3484 66.4167 33.4987 66.4167C51.6489 66.4167 66.4154 51.6503 66.4154 33.5C66.4154 15.3498 51.6489 0.583374 33.4987 0.583374C15.3484 0.583374 0.582031 15.3498 0.582031 33.5ZM41.8283 34.4234L28.6616 47.59C28.1794 48.0723 27.5474 48.3125 26.9154 48.3125C26.2834 48.3125 25.6514 48.0723 25.1691 47.59C24.2047 46.6256 24.2047 45.0637 25.1691 44.0992L36.5896 32.6788L25.1691 21.2583C24.2047 20.2939 24.2047 18.732 25.1691 17.7675C26.1336 16.8031 27.6955 16.8031 28.6599 17.7675L41.8266 30.9342C42.7911 31.8954 42.7911 33.4589 41.8283 34.4234Z" fill="#34888D"/>
</svg>
