<svg width="132" height="104" viewBox="0 0 132 104" fill="none" xmlns="http://www.w3.org/2000/svg">
<path opacity="0.7" d="M91.997 103.902C92.6377 103.885 93.2698 103.75 93.8612 103.503C93.8612 103.503 103.804 99.4503 113.179 88.434C122.555 77.4178 131.707 59.1676 131.707 31.25C131.707 30.9968 131.689 30.744 131.653 30.4934C131.783 26.5566 131.121 22.6337 129.706 18.9578C128.29 15.2819 126.151 11.928 123.414 9.09519C120.677 6.26242 117.398 4.00863 113.773 2.46767C110.148 0.92672 106.25 0.130035 102.311 0.124954C94.5149 0.124954 87.038 3.22201 81.5252 8.73479C76.0124 14.2476 72.9154 21.7245 72.9154 29.5208C72.9154 37.317 76.0124 44.794 81.5252 50.3068C87.038 55.8196 94.5149 58.9166 102.311 58.9166C108.223 58.915 113.998 57.1307 118.88 53.7967C115.876 66.604 110.535 75.5282 105.276 81.7065C97.3603 91.008 90.0111 93.8715 90.0111 93.8715C88.8691 94.3094 87.9185 95.1367 87.3272 96.2074C86.7359 97.2781 86.5419 98.5233 86.7794 99.7231C87.017 100.923 87.6708 102 88.6254 102.765C89.5801 103.529 90.7742 103.932 91.997 103.902ZM19.372 103.902C20.0127 103.885 20.6448 103.75 21.2362 103.503C21.2362 103.503 31.1788 99.4503 40.5543 88.434C49.9298 77.4178 59.082 59.1676 59.082 31.25C59.0825 30.9968 59.0644 30.744 59.028 30.4934C59.1583 26.5566 58.4961 22.6337 57.0807 18.9578C55.6653 15.2819 53.5255 11.928 50.7885 9.09519C48.0515 6.26242 44.7731 4.00863 41.148 2.46767C37.523 0.92672 33.6252 0.130035 29.6862 0.124954C21.8899 0.124954 14.413 3.22201 8.90019 8.73479C3.38741 14.2476 0.290344 21.7245 0.290344 29.5208C0.290344 37.317 3.38741 44.794 8.90019 50.3068C14.413 55.8196 21.8899 58.9166 29.6862 58.9166C35.5984 58.915 41.3727 57.1307 46.2551 53.7967C43.2507 66.604 37.9096 75.5282 32.6514 81.7065C24.7353 91.008 17.3861 93.8715 17.3861 93.8715C16.2441 94.3094 15.2935 95.1367 14.7022 96.2074C14.1109 97.2781 13.9169 98.5233 14.1544 99.7231C14.3919 100.923 15.0458 102 16.0004 102.765C16.9551 103.529 18.1492 103.932 19.372 103.902Z" fill="#67A6A9"/>
</svg>
