<svg width="144" height="144" viewBox="0 0 144 144" fill="none" xmlns="http://www.w3.org/2000/svg">
<path opacity="0.7" d="M94.5955 116.94C95.1467 116.925 95.6905 116.809 96.1993 116.597C96.1993 116.597 104.753 113.11 112.818 103.633C120.884 94.1554 128.758 78.4549 128.758 54.4374C128.758 54.2197 128.743 54.0021 128.711 53.7866C128.823 50.3998 128.254 47.025 127.036 43.8626C125.818 40.7002 123.978 37.8148 121.623 35.3778C119.268 32.9408 116.448 31.0019 113.329 29.6762C110.211 28.3505 106.857 27.6652 103.469 27.6608C96.7617 27.6608 90.3293 30.3252 85.5867 35.0678C80.8441 39.8104 78.1797 46.2428 78.1797 52.9499C78.1797 59.6569 80.8441 66.0893 85.5867 70.8319C90.3293 75.5745 96.7617 78.2389 103.469 78.2389C108.555 78.2375 113.523 76.7025 117.723 73.8342C115.138 84.8523 110.543 92.5297 106.02 97.8449C99.2095 105.847 92.8871 108.31 92.8871 108.31C91.9046 108.687 91.0868 109.399 90.5781 110.32C90.0694 111.241 89.9025 112.312 90.1068 113.344C90.3112 114.377 90.8737 115.304 91.695 115.961C92.5163 116.619 93.5436 116.966 94.5955 116.94ZM32.1166 116.94C32.6678 116.925 33.2116 116.809 33.7204 116.597C33.7204 116.597 42.2739 113.11 50.3396 103.633C58.4053 94.1554 66.2789 78.4549 66.2789 54.4374C66.2793 54.2197 66.2638 54.0021 66.2325 53.7866C66.3446 50.3998 65.7749 47.025 64.5572 43.8626C63.3395 40.7002 61.4987 37.8148 59.1441 35.3778C56.7895 32.9408 53.9691 31.0019 50.8505 29.6762C47.7318 28.3505 44.3786 27.6652 40.9899 27.6608C34.2828 27.6608 27.8504 30.3252 23.1078 35.0678C18.3652 39.8104 15.7008 46.2428 15.7008 52.9499C15.7008 59.6569 18.3652 66.0893 23.1078 70.8319C27.8504 75.5745 34.2828 78.2389 40.9899 78.2389C46.0761 78.2375 51.0437 76.7025 55.244 73.8342C52.6594 84.8523 48.0644 92.5297 43.5409 97.8449C36.7307 105.847 30.4082 108.31 30.4082 108.31C29.4257 108.687 28.6079 109.399 28.0992 110.32C27.5905 111.241 27.4236 112.312 27.628 113.344C27.8323 114.377 28.3948 115.304 29.2161 115.961C30.0374 116.619 31.0647 116.966 32.1166 116.94Z" fill="#F8FAFC"/>
</svg>
