<svg width="351" height="280" viewBox="0 0 351 280" fill="none" xmlns="http://www.w3.org/2000/svg">
<g clip-path="url(#clip0_14425_37688)">
<path d="M274.314 183.816C274.314 183.816 274.314 183.833 274.314 183.841C274.314 183.874 274.331 183.899 274.339 183.932C274.372 184.082 274.397 184.239 274.438 184.405C274.72 185.74 275.042 187.58 275.274 189.902C275.431 191.485 275.555 193.292 275.589 195.307C275.663 199.195 275.448 203.854 274.637 209.185C274.455 210.403 274.24 211.655 273.983 212.949C273.578 215.054 273.073 217.26 272.469 219.539C272.187 220.601 271.881 221.678 271.55 222.781C271.418 223.229 271.285 223.668 271.161 224.116C271.012 224.655 270.863 225.202 270.714 225.741C270.714 225.741 270.714 225.757 270.714 225.765C269.754 229.438 269.009 233.202 268.438 236.941C267.735 241.625 267.296 246.276 267.056 250.678C266.733 256.539 266.75 261.961 266.891 266.446C266.891 266.521 266.891 266.587 266.891 266.662C267.04 271.205 267.321 274.753 267.511 276.784C267.619 277.961 267.693 278.633 267.702 278.683" stroke="#263238" stroke-linecap="round" stroke-linejoin="round"/>
<path d="M274.339 183.933C274.339 183.933 274.339 183.917 274.322 183.917C274.322 183.917 274.317 183.911 274.306 183.9C273.71 183.378 273.056 182.922 272.369 182.549C271.608 182.151 270.797 181.836 269.961 181.637" fill="white"/>
<path d="M274.339 183.933C274.339 183.933 274.339 183.917 274.322 183.917C274.322 183.917 274.317 183.911 274.306 183.9C273.71 183.378 273.056 182.922 272.369 182.549C271.608 182.151 270.797 181.836 269.961 181.637" stroke="#263238" stroke-linecap="round" stroke-linejoin="round"/>
<path d="M275.266 189.9L277.467 187.902" stroke="#263238" stroke-linecap="round" stroke-linejoin="round"/>
<path d="M272.46 219.556C272.344 218.967 272.178 218.395 271.938 217.848C271.615 217.044 271.169 216.289 270.622 215.618C270.217 215.112 269.753 214.656 269.24 214.25" stroke="#263238" stroke-linecap="round" stroke-linejoin="round"/>
<path d="M270.697 225.775C271.301 224.233 272.592 222.956 274.14 222.367" stroke="#263238" stroke-linecap="round" stroke-linejoin="round"/>
<path d="M266.874 256.613C267.611 255.726 268.165 252.335 268.471 250.511C268.546 250.072 268.604 249.707 268.653 249.434" fill="white"/>
<path d="M266.874 256.613C267.611 255.726 268.165 252.335 268.471 250.511C268.546 250.072 268.604 249.707 268.653 249.434" stroke="#263238" stroke-linecap="round" stroke-linejoin="round"/>
<path d="M261.196 262.733C261.445 262.717 261.693 262.733 261.941 262.758C264.085 262.957 266.096 264.433 266.882 266.447" fill="white"/>
<path d="M261.196 262.733C261.445 262.717 261.693 262.733 261.941 262.758C264.085 262.957 266.096 264.433 266.882 266.447" stroke="#263238" stroke-linecap="round" stroke-linejoin="round"/>
<path d="M273.975 212.99C273.975 212.99 274.364 199.535 266.99 194.66" stroke="#263238" stroke-linecap="round" stroke-linejoin="round"/>
<path d="M274.637 241.868C275.606 245.001 268.852 250.979 268.852 250.979C268.852 250.979 259.914 249.86 258.946 246.726C257.978 243.592 260.245 238.452 264.574 237.117C268.902 235.774 273.669 238.734 274.629 241.876L274.637 241.868Z" fill="#27A3A3" fill-opacity="0.61"/>
<path d="M282.126 203.789C281.274 207.121 274.876 209.484 274.876 209.484C274.876 209.484 270.424 204.319 271.276 200.986C272.129 197.654 275.663 193.981 278.659 194.752C281.654 195.523 282.979 200.448 282.118 203.78L282.126 203.789Z" fill="#27A3A3" fill-opacity="0.61"/>
<path d="M256.479 253.591C260.493 255.157 262.951 262.27 262.951 262.27C262.951 262.27 256.339 265.844 252.325 264.277C248.311 262.71 244.065 258.299 245.207 255.348C246.358 252.397 252.465 252.024 256.479 253.591Z" fill="#27A3A3" fill-opacity="0.61"/>
<path d="M265.276 214.467C266.129 215.097 266.998 215.743 268.016 216.017C269.034 216.291 270.25 216.125 270.937 215.329C271.798 214.342 271.566 212.8 271.028 211.607C269.952 209.236 266.005 205.223 262.959 206.375C258.573 208.042 263.315 213.016 265.268 214.467H265.276Z" fill="#27A3A3" fill-opacity="0.61"/>
<path d="M274.256 220.496C273.677 221.209 273.073 222.112 273.387 222.974C273.668 223.737 274.604 224.094 275.406 223.969C276.209 223.845 276.913 223.372 277.575 222.908C279.122 221.83 282.3 219.575 280.273 217.461C278.171 215.264 275.473 218.995 274.256 220.504V220.496Z" fill="#27A3A3" fill-opacity="0.61"/>
<path d="M261.296 190.418C260.634 190.493 259.964 190.932 259.848 191.595C259.715 192.366 260.353 193.038 260.973 193.51C262.513 194.696 267.131 197.904 268.165 194.812C269.142 191.894 263.34 190.194 261.304 190.418H261.296Z" fill="#27A3A3" fill-opacity="0.61"/>
<path d="M269.821 180.252C268.869 180.344 267.917 179.995 266.957 180.053C266.005 180.111 264.938 180.882 265.153 181.819C265.352 182.681 266.419 182.972 267.305 183.03C268.811 183.121 270.334 183.021 271.815 182.715C272.163 182.648 272.535 182.541 272.725 182.25C273.114 181.678 272.494 180.916 271.84 180.717C271.186 180.518 270.441 180.584 269.845 180.244H269.821V180.252Z" fill="#27A3A3" fill-opacity="0.61"/>
<path d="M279.131 186.827C280.091 186.852 281.017 186.445 281.969 186.445C282.929 186.445 284.038 187.142 283.889 188.087C283.749 188.966 282.697 189.322 281.82 189.438C280.322 189.629 278.8 189.629 277.302 189.422C276.954 189.372 276.573 189.297 276.358 189.024C275.936 188.476 276.499 187.681 277.144 187.432C277.79 187.183 278.535 187.208 279.106 186.827H279.131Z" fill="#27A3A3" fill-opacity="0.61"/>
<path d="M278.187 257.477C278.427 257.278 278.692 257.07 278.998 257.07C279.412 257.07 279.735 257.46 279.809 257.866C279.884 258.272 279.776 258.687 279.652 259.077C279.007 261.249 271.716 277 270.044 274.173C269.051 272.499 271.492 266.961 272.204 265.394C273.594 262.36 275.63 259.624 278.179 257.468L278.187 257.477Z" fill="#27A3A3" fill-opacity="0.61"/>
<path d="M274.645 184.851C274.645 184.851 274.206 181.029 275.125 180.723" stroke="#263238" stroke-linecap="round" stroke-linejoin="round"/>
<path d="M273.834 180.848C274.414 179.547 275.034 178.187 276.185 177.35C277.335 176.513 279.172 176.446 280.008 177.599C280.943 178.884 280.008 180.84 278.577 181.528C277.145 182.216 275.465 182.009 273.892 181.785C273.876 181.553 273.868 181.321 273.851 181.081L273.826 180.848H273.834Z" fill="#27A3A3" fill-opacity="0.61"/>
<path d="M277.757 303.894C270.011 305.22 261.934 305.22 254.187 303.894L245.018 276.793H286.927L277.757 303.894Z" fill="white" stroke="#263238" stroke-linecap="round" stroke-linejoin="round"/>
<path d="M117.808 108.09C117.808 108.09 117.808 108.106 117.808 108.115C117.808 108.148 117.825 108.173 117.833 108.206C117.866 108.355 117.891 108.513 117.932 108.678C118.214 110.013 118.537 111.854 118.768 114.175C118.925 115.758 119.05 117.566 119.083 119.58C119.157 123.468 118.942 128.128 118.131 133.458C117.949 134.677 117.734 135.929 117.477 137.222C117.072 139.328 116.567 141.533 115.963 143.813C115.681 144.874 115.375 145.952 115.044 147.054C114.912 147.502 114.779 147.941 114.655 148.389C114.506 148.928 114.357 149.475 114.208 150.014C114.208 150.014 114.208 150.031 114.208 150.039C113.248 153.711 112.503 157.475 111.932 161.214C111.229 165.898 110.79 170.549 110.55 174.951C110.227 180.813 110.244 186.234 110.385 190.719C110.385 190.794 110.385 190.86 110.385 190.935C110.534 195.478 110.815 199.026 111.005 201.058C111.113 202.235 111.187 202.906 111.196 202.956" stroke="#263238" stroke-linecap="round" stroke-linejoin="round"/>
<path d="M117.833 108.207C117.833 108.207 117.833 108.19 117.817 108.19C117.817 108.19 117.811 108.184 117.8 108.173C117.204 107.651 116.55 107.195 115.863 106.822C115.102 106.424 114.291 106.109 113.455 105.91" fill="white"/>
<path d="M117.833 108.207C117.833 108.207 117.833 108.19 117.817 108.19C117.817 108.19 117.811 108.184 117.8 108.173C117.204 107.651 116.55 107.195 115.863 106.822C115.102 106.424 114.291 106.109 113.455 105.91" stroke="#263238" stroke-linecap="round" stroke-linejoin="round"/>
<path d="M118.76 114.174L120.961 112.176" stroke="#263238" stroke-linecap="round" stroke-linejoin="round"/>
<path d="M115.955 143.829C115.839 143.241 115.673 142.669 115.433 142.121C115.111 141.317 114.664 140.563 114.117 139.891C113.712 139.386 113.248 138.93 112.735 138.523" stroke="#263238" stroke-linecap="round" stroke-linejoin="round"/>
<path d="M114.2 150.048C114.804 148.506 116.095 147.229 117.643 146.641" stroke="#263238" stroke-linecap="round" stroke-linejoin="round"/>
<path d="M110.368 180.886C111.105 179.999 111.659 176.609 111.965 174.785C112.04 174.345 112.098 173.981 112.147 173.707" fill="white"/>
<path d="M110.368 180.886C111.105 179.999 111.659 176.609 111.965 174.785C112.04 174.345 112.098 173.981 112.147 173.707" stroke="#263238" stroke-linecap="round" stroke-linejoin="round"/>
<path d="M104.699 187.007C104.947 186.99 105.196 187.007 105.444 187.032C107.588 187.231 109.599 188.706 110.385 190.721" fill="white"/>
<path d="M104.699 187.007C104.947 186.99 105.196 187.007 105.444 187.032C107.588 187.231 109.599 188.706 110.385 190.721" stroke="#263238" stroke-linecap="round" stroke-linejoin="round"/>
<path d="M117.469 137.267C117.469 137.267 117.858 123.812 110.484 118.938" stroke="#263238" stroke-linecap="round" stroke-linejoin="round"/>
<path d="M118.131 166.141C119.1 169.275 112.346 175.252 112.346 175.252C112.346 175.252 103.408 174.133 102.44 170.999C101.472 167.865 103.739 162.725 108.068 161.391C112.396 160.048 117.163 163.007 118.123 166.149L118.131 166.141Z" fill="#27A3A3" fill-opacity="0.61"/>
<path d="M125.62 128.062C124.768 131.395 118.371 133.757 118.371 133.757C118.371 133.757 113.918 128.593 114.771 125.26C115.623 121.927 119.157 118.255 122.153 119.026C125.149 119.797 126.473 124.721 125.612 128.054L125.62 128.062Z" fill="#27A3A3" fill-opacity="0.61"/>
<path d="M99.9734 177.864C103.987 179.431 106.445 186.544 106.445 186.544C106.445 186.544 99.8328 190.117 95.8189 188.55C91.8051 186.983 87.5595 182.573 88.7016 179.621C89.8519 176.67 95.9596 176.297 99.9734 177.864Z" fill="#27A3A3" fill-opacity="0.61"/>
<path d="M108.77 138.74C109.623 139.37 110.492 140.017 111.51 140.29C112.528 140.564 113.744 140.398 114.431 139.602C115.292 138.616 115.06 137.074 114.522 135.88C113.446 133.509 109.499 129.496 106.453 130.649C102.067 132.315 106.809 137.289 108.762 138.74H108.77Z" fill="#27A3A3" fill-opacity="0.61"/>
<path d="M117.75 144.769C117.171 145.482 116.567 146.386 116.881 147.248C117.163 148.01 118.098 148.367 118.9 148.243C119.703 148.118 120.407 147.646 121.069 147.181C122.616 146.104 125.794 143.849 123.767 141.735C121.665 139.538 118.967 143.268 117.75 144.777V144.769Z" fill="#27A3A3" fill-opacity="0.61"/>
<path d="M104.798 114.692C104.136 114.766 103.466 115.206 103.35 115.869C103.217 116.64 103.854 117.311 104.475 117.784C106.015 118.969 110.632 122.178 111.667 119.085C112.644 116.167 106.842 114.468 104.806 114.692H104.798Z" fill="#27A3A3" fill-opacity="0.61"/>
<path d="M113.315 104.527C112.363 104.618 111.411 104.27 110.451 104.337C109.5 104.395 108.432 105.166 108.647 106.102C108.846 106.965 109.913 107.255 110.799 107.313C112.305 107.404 113.828 107.305 115.309 106.998C115.657 106.931 116.029 106.824 116.22 106.534C116.609 105.961 115.988 105.199 115.334 105C114.68 104.801 113.935 104.867 113.34 104.527H113.315Z" fill="#27A3A3" fill-opacity="0.61"/>
<path d="M122.633 111.1C123.593 111.125 124.52 110.719 125.472 110.719C126.432 110.719 127.541 111.415 127.392 112.36C127.251 113.239 126.2 113.595 125.323 113.712C123.825 113.902 122.302 113.902 120.804 113.695C120.457 113.645 120.076 113.571 119.861 113.297C119.439 112.75 120.002 111.954 120.647 111.705C121.293 111.457 122.038 111.481 122.609 111.1H122.633Z" fill="#27A3A3" fill-opacity="0.61"/>
<path d="M121.689 181.75C121.929 181.551 122.194 181.344 122.5 181.344C122.914 181.344 123.237 181.733 123.311 182.14C123.386 182.546 123.278 182.96 123.154 183.35C122.509 185.522 115.218 201.274 113.546 198.447C112.553 196.772 114.994 191.234 115.706 189.667C117.096 186.633 119.132 183.897 121.681 181.742L121.689 181.75Z" fill="#27A3A3" fill-opacity="0.61"/>
<path d="M118.139 109.129C118.139 109.129 117.7 105.307 118.619 105" stroke="#263238" stroke-linecap="round" stroke-linejoin="round"/>
<path d="M117.329 105.126C117.908 103.824 118.529 102.465 119.679 101.627C120.829 100.79 122.667 100.724 123.502 101.876C124.438 103.161 123.502 105.117 122.071 105.806C120.639 106.494 118.959 106.286 117.387 106.063C117.37 105.83 117.362 105.598 117.345 105.358L117.32 105.126H117.329Z" fill="#27A3A3" fill-opacity="0.61"/>
<path d="M12.96 199.737V117.82" stroke="#263238" stroke-linecap="round" stroke-linejoin="round"/>
<path d="M268.273 199.734H258.16" stroke="#263238" stroke-linecap="round" stroke-linejoin="round"/>
<path d="M347.516 199.734H326.934" stroke="#263238" stroke-linecap="round" stroke-linejoin="round"/>
<path d="M257.241 75.2871H293.713V40.4844" stroke="#263238" stroke-linecap="round" stroke-linejoin="round"/>
<path d="M44.665 64.6602H83.4131V92.9716H125.877" stroke="#263238" stroke-linecap="round" stroke-linejoin="round"/>
<path d="M21.8066 160.539V97.9805" stroke="#263238" stroke-linecap="round" stroke-linejoin="round"/>
<path d="M39.1113 70.8281V119.857" stroke="#263238" stroke-linecap="round" stroke-linejoin="round"/>
<path d="M56.417 70.8281V114.17" stroke="#263238" stroke-linecap="round" stroke-linejoin="round"/>
<path d="M73.7217 70.8281V146.643" stroke="#263238" stroke-linecap="round" stroke-linejoin="round"/>
<path d="M156.631 60.0763V10.2266H227.084V60.0763" stroke="#263238" stroke-linecap="round" stroke-linejoin="round"/>
<path d="M161.795 34.9884V16.1445H174.813" stroke="#263238" stroke-linecap="round" stroke-linejoin="round"/>
<path d="M177.685 34.9884V16.1445H190.703" stroke="#263238" stroke-linecap="round" stroke-linejoin="round"/>
<path d="M193.574 34.9884V16.1445H206.592" stroke="#263238" stroke-linecap="round" stroke-linejoin="round"/>
<path d="M209.465 34.9884V16.1445H222.483" stroke="#263238" stroke-linecap="round" stroke-linejoin="round"/>
<path d="M161.795 60.0744V41.2305H174.813" stroke="#263238" stroke-linecap="round" stroke-linejoin="round"/>
<path d="M177.685 60.0744V41.2305H190.703" stroke="#263238" stroke-linecap="round" stroke-linejoin="round"/>
<path d="M193.574 60.0744V41.2305H206.592" stroke="#263238" stroke-linecap="round" stroke-linejoin="round"/>
<path d="M209.465 60.0744V41.2305H222.483" stroke="#263238" stroke-linecap="round" stroke-linejoin="round"/>
<path d="M299.35 44.7969V107.264" stroke="#263238" stroke-linecap="round" stroke-linejoin="round"/>
<path d="M324.938 195.16H326.933" stroke="#263238" stroke-linecap="round" stroke-linejoin="round"/>
<path d="M314.693 62.7383V132.675" stroke="#263238" stroke-linecap="round" stroke-linejoin="round"/>
<path d="M330.037 177.301V195.158H342.277" stroke="#263238" stroke-linecap="round" stroke-linejoin="round"/>
<path d="M330.037 85.5352V133.03" stroke="#263238" stroke-linecap="round" stroke-linejoin="round"/>
<path d="M345.372 121.574V195.159H348.161" stroke="#263238" stroke-linecap="round" stroke-linejoin="round"/>
<path d="M158.485 201.234H0.414062V304.084H158.485V201.234Z" fill="white" stroke="#263238" stroke-linecap="round" stroke-linejoin="round"/>
<path d="M0.414062 201.234L79.4495 252.659L158.485 201.234H0.414062Z" fill="white" stroke="#263238" stroke-linecap="round" stroke-linejoin="round"/>
<path d="M55.6892 237.207L0.414062 304.085" stroke="#263238" stroke-linecap="round" stroke-linejoin="round"/>
<path d="M103.64 237.207L158.915 304.085" stroke="#263238" stroke-linecap="round" stroke-linejoin="round"/>
<path d="M243.072 70.0007H206.327C204.167 70.0007 202.181 71.178 201.146 73.0764L201.13 73.1096C198.333 78.1584 191.977 79.9823 186.937 77.1802C185.232 76.2268 183.825 74.8174 182.873 73.1096C181.839 71.1945 179.844 70.0007 177.667 70.0007H140.98C136.743 69.951 133.267 73.3417 133.209 77.5864V285.184C133.267 289.429 136.743 292.828 140.98 292.77H243.072C247.31 292.82 250.794 289.429 250.852 285.184V77.5864C250.794 73.3417 247.31 69.9427 243.072 70.0007Z" fill="#27A3A3" fill-opacity="0.61"/>
<path d="M254.436 75.2879C254.436 69.4183 249.685 64.668 243.834 64.668H140.236C134.376 64.668 129.626 69.4183 129.626 75.2879V293.473C129.626 299.342 134.376 304.092 140.227 304.092H243.826C249.685 304.092 254.436 299.342 254.436 293.473V75.2879ZM250.852 285.182C250.794 289.427 247.31 292.826 243.073 292.768H140.981C136.743 292.818 133.267 289.427 133.209 285.182V77.5843C133.267 73.3396 136.743 69.9406 140.981 69.9986H177.693C179.869 69.9986 181.864 71.1925 182.898 73.1075C185.696 78.1563 192.052 79.9802 197.092 77.1781C198.796 76.2247 200.203 74.8153 201.155 73.1075L201.172 73.0744C202.206 71.1759 204.192 69.9986 206.352 69.9986H243.098C247.335 69.9489 250.819 73.3396 250.877 77.5843L250.852 285.182Z" fill="#263238"/>
<path opacity="0.2" d="M219.229 64.6602L150.423 304.085L177.742 304.051L244.016 64.6602H219.229Z" fill="white"/>
<path opacity="0.2" d="M208.967 64.6602L136.222 304.085L140.202 304.06L211.591 64.6602H208.967Z" fill="white"/>
<path d="M210.59 242.645C210.764 252.676 202.786 260.809 192.772 260.809C182.758 260.809 174.49 252.676 174.316 242.645C174.142 232.613 182.12 224.48 192.134 224.48C202.148 224.48 210.416 232.613 210.59 242.645Z" fill="white" stroke="#263238" stroke-linecap="round" stroke-linejoin="round"/>
<path d="M186.507 256.208C184.819 255.586 183.279 254.633 181.964 253.406C180.639 252.129 179.613 250.579 178.959 248.854C178.215 246.923 177.85 244.875 177.875 242.802C177.859 241.036 178.173 239.287 178.794 237.629C179.357 236.112 180.192 234.719 181.268 233.509C183.395 231.171 186.143 229.496 189.188 228.676C190.686 228.278 192.226 228.07 193.773 228.07C195.056 228.07 196.339 228.22 197.58 228.526C198.789 228.825 199.939 229.306 200.998 229.944C202.049 230.574 202.993 231.378 203.787 232.315C204.623 233.318 205.252 234.47 205.658 235.714C206.121 237.123 206.353 238.607 206.336 240.1C206.32 242.96 205.293 245.729 203.448 247.909C202.645 248.821 201.693 249.6 200.634 250.189C199.724 250.719 198.689 251.01 197.638 251.026C196.918 251.035 196.206 250.811 195.627 250.38C195.031 249.94 194.675 249.244 194.675 248.506C193.442 250.247 191.771 251.117 189.668 251.117C187.955 251.117 186.582 250.529 185.555 249.36C184.529 248.183 184.016 246.74 184.024 245.024C184.024 243.722 184.256 242.429 184.695 241.194C185.125 239.95 185.737 238.781 186.524 237.729C187.302 236.684 188.286 235.822 189.42 235.2C190.554 234.562 191.837 234.222 193.136 234.222C194.038 234.213 194.932 234.429 195.735 234.86C196.513 235.275 197.142 235.921 197.539 236.709L197.704 236.162C197.978 235.349 198.847 234.918 199.658 235.183C199.807 235.233 199.955 235.308 200.08 235.407C200.336 235.615 200.477 235.93 200.452 236.261C200.452 236.419 200.427 236.568 200.378 236.717L197.696 245.654C197.39 246.674 197.241 247.378 197.241 247.76C197.241 248.406 197.572 248.722 198.226 248.722C199.078 248.722 199.922 248.324 200.75 247.536C201.644 246.649 202.331 245.571 202.761 244.394C203.274 243.101 203.539 241.724 203.539 240.332C203.556 239.105 203.373 237.886 203.009 236.717C202.711 235.706 202.223 234.761 201.586 233.923C200.982 233.161 200.245 232.506 199.426 231.992C198.598 231.469 197.704 231.08 196.761 230.839C195.793 230.591 194.8 230.458 193.798 230.458C192.532 230.458 191.266 230.64 190.049 230.988C188.799 231.345 187.599 231.884 186.507 232.589C185.398 233.285 184.397 234.147 183.528 235.125C182.634 236.162 181.93 237.347 181.467 238.64C180.946 240.042 180.689 241.526 180.697 243.026C180.672 244.8 180.987 246.558 181.641 248.208C182.195 249.633 183.081 250.918 184.223 251.938C185.324 252.9 186.59 253.638 187.964 254.127C189.412 254.641 190.935 254.898 192.474 254.881C194.113 254.881 195.751 254.633 197.315 254.143C197.473 254.094 197.638 254.06 197.804 254.069C198.126 254.052 198.433 254.185 198.656 254.417C198.863 254.633 198.979 254.923 198.979 255.221C199.02 255.719 198.689 256.175 198.201 256.282C196.248 256.879 194.212 257.194 192.168 257.211C190.231 257.227 188.311 256.887 186.499 256.208H186.507ZM193.343 247.611C194.162 247.022 194.766 246.185 195.073 245.231L196.802 239.138L196.686 238.889C196.579 238.69 196.446 238.5 196.289 238.334C196.082 238.093 195.859 237.878 195.619 237.671C195.313 237.422 194.957 237.231 194.584 237.107C193.608 236.759 192.532 236.8 191.58 237.215C191.059 237.438 190.587 237.745 190.173 238.135C189.743 238.541 189.354 238.989 189.031 239.478C188.692 239.984 188.402 240.531 188.162 241.094C187.931 241.658 187.748 242.247 187.624 242.844C187.5 243.416 187.434 243.996 187.434 244.576C187.434 244.949 187.451 245.322 187.5 245.696C187.542 246.027 187.616 246.35 187.715 246.665C187.806 246.947 187.939 247.221 188.104 247.47C188.253 247.702 188.452 247.901 188.667 248.067C188.907 248.241 189.172 248.365 189.453 248.448C189.784 248.539 190.132 248.589 190.471 248.581C191.506 248.589 192.515 248.257 193.343 247.635V247.611Z" fill="#27A3A3" fill-opacity="0.61" stroke="#263238" stroke-linecap="round" stroke-linejoin="round"/>
<path d="M210.176 180.359C210.35 190.391 202.371 198.523 192.358 198.523C182.344 198.523 174.076 190.391 173.902 180.359C173.728 170.328 181.706 162.195 191.72 162.195C201.734 162.195 210.002 170.328 210.176 180.359Z" fill="white" stroke="#263238" stroke-linecap="round" stroke-linejoin="round"/>
<path d="M203.422 178.7C197.745 174.97 186.597 174.97 181.177 178.7C179.157 179.082 177.668 180.864 177.75 183.003C177.833 185.415 187.839 185.415 187.756 183.003C187.723 181.967 187.309 181.013 186.672 180.267C190.255 179.455 194.418 179.455 198.06 180.267C197.472 181.022 197.124 181.967 197.166 183.003C197.249 185.415 207.254 185.415 207.171 183.003C207.097 180.864 205.483 179.082 203.439 178.7H203.422Z" fill="#27A3A3" fill-opacity="0.61" stroke="#263238" stroke-linecap="round" stroke-linejoin="round"/>
<path d="M210.184 119.856C210.283 124.324 207.85 128.32 203.943 130.981V141.833L196.172 134.049C194.948 134.264 193.673 134.372 192.365 134.372C182.351 134.372 174.084 127.881 173.91 119.856C173.736 111.839 181.706 105.348 191.728 105.348C201.75 105.348 210.01 111.839 210.184 119.856Z" fill="white" stroke="#263238" stroke-linecap="round" stroke-linejoin="round"/>
<path d="M184.321 119.854C184.321 121.156 183.27 122.209 181.97 122.209C180.671 122.209 179.62 121.156 179.62 119.854C179.62 118.553 180.671 117.5 181.97 117.5C183.27 117.5 184.321 118.553 184.321 119.854Z" fill="#27A3A3" fill-opacity="0.61" stroke="#263238" stroke-linecap="round" stroke-linejoin="round"/>
<path d="M194.377 119.854C194.377 121.156 193.325 122.209 192.026 122.209C190.727 122.209 189.676 121.156 189.676 119.854C189.676 118.553 190.727 117.5 192.026 117.5C193.325 117.5 194.377 118.553 194.377 119.854Z" fill="#27A3A3" fill-opacity="0.61" stroke="#263238" stroke-linecap="round" stroke-linejoin="round"/>
<path d="M204.423 119.854C204.423 121.156 203.372 122.209 202.073 122.209C200.774 122.209 199.723 121.156 199.723 119.854C199.723 118.553 200.774 117.5 202.073 117.5C203.372 117.5 204.423 118.553 204.423 119.854Z" fill="#27A3A3" fill-opacity="0.61" stroke="#263238" stroke-linecap="round" stroke-linejoin="round"/>
<path d="M90.713 152.942C90.4647 153.505 89.9599 153.912 89.4799 154.301C85.6647 157.344 81.7501 160.27 77.7528 163.081C76.288 164.117 74.7652 165.17 73.35 166.331C64.8424 172.034 70.0314 173.427 64.8424 185.498C64.8424 185.498 64.8424 185.498 64.8424 185.506C63.6175 188.391 63.841 202.534 63.841 202.534H63.4189C62.4837 201.664 61.2009 200.42 60.2161 199.774C60.0506 199.658 59.8851 199.566 59.7361 199.492C59.554 199.401 59.3802 199.343 59.2478 199.334C58.4119 199.285 55.2671 199.666 52.0725 199.45C51.7994 199.434 51.5263 199.417 51.245 199.384C50.7815 199.334 50.318 199.276 49.8629 199.202C49.416 199.119 48.9773 199.028 48.5553 198.912C46.1635 198.248 42.8366 196.839 39.6669 195.479C39.1786 195.264 38.6986 195.057 38.2269 194.849C37.9869 194.741 37.7469 194.642 37.5151 194.543C37.2917 194.443 37.0765 194.352 36.8613 194.261C36.7041 194.194 36.5469 194.128 36.3979 194.062C36.2489 193.995 36.0917 193.937 35.951 193.871C35.951 193.871 35.9482 193.871 35.9427 193.871C35.1979 193.556 34.4944 193.266 33.8489 193.017C33.5427 192.901 33.2447 192.81 32.9468 192.744C32.8972 193.423 32.8392 194.111 32.7482 194.791C32.3427 198.033 31.4654 201.026 29.8847 201.44C29.8516 201.457 29.8185 201.465 29.7771 201.465C29.6364 201.49 29.4957 201.506 29.3633 201.506C29.3137 201.506 29.2723 201.506 29.2392 201.506C28.8999 201.506 28.5606 201.432 28.213 201.307C28.213 201.307 28.2047 201.307 28.1964 201.307C26.8557 200.818 25.5647 199.558 24.8695 198.199C24.5467 197.56 24.3481 196.897 24.3481 196.292C24.3481 193.879 23.6777 179.645 23.6777 175.5C23.6777 171.354 24.5467 164.1 26.566 161.414C27.7909 159.789 28.8916 158.952 29.5619 158.546C31.1675 157.186 33.0627 156.208 34.6599 155.686C36.8696 154.973 41.7938 153.124 45.2201 151.831V151.864C43.6973 152.453 41.86 153.174 40.0393 153.87C41.3552 156.125 44.2021 159.698 49.2587 160.129C54.0422 160.536 57.005 156.2 58.5195 153.033C58.6519 153.083 66.9776 151.499 68.9141 151.582C75.1873 151.864 80.3184 148.448 82.6357 147.097C85.6398 145.348 89.5544 146.765 90.5558 150.106C90.5558 150.131 90.5723 150.156 90.5723 150.173C90.8372 151.076 91.102 152.079 90.7047 152.942H90.713Z" fill="#27A3A3" fill-opacity="0.61" stroke="#263238" stroke-linecap="round" stroke-linejoin="round"/>
<path d="M58.5365 153.023C58.5365 153.023 58.5365 153.023 58.5365 153.031C58.4123 152.981 58.2882 152.94 58.1641 152.898L58.5448 153.023H58.5365Z" fill="white" stroke="#263238" stroke-linecap="round" stroke-linejoin="round"/>
<path d="M65.5958 206.165C65.5958 206.165 65.5876 206.231 65.5793 206.264C65.4965 206.588 65.0496 206.712 64.702 206.513C64.3296 206.298 63.7337 204.913 63.7337 204.913L63.0799 204.233L62.6413 203.777C62.6413 203.777 62.6413 203.777 62.6413 203.786C62.7075 203.943 63.2206 205.22 62.9558 205.8C62.9393 205.842 62.9227 205.875 62.8896 205.908C62.7986 206.032 62.691 206.14 62.5751 206.24C62.2275 206.53 61.7806 206.696 61.3172 206.696H61.2923C60.9365 206.679 59.8937 206.82 58.9833 206.878C58.9502 206.878 58.9254 206.878 58.8923 206.878C58.5778 206.894 58.2799 206.903 58.0399 206.886C57.3033 206.787 56.5999 206.555 55.9543 206.182C55.9543 206.182 52.9915 205.726 51.6757 205.162C51.5846 205.129 51.5102 205.087 51.4274 205.029C51.3529 204.979 51.2701 204.938 51.2039 204.888C51.055 204.797 50.9226 204.689 50.7984 204.573C50.1281 203.985 49.706 203.247 49.6067 203.039L49.5901 203.006C49.5901 203.006 46.2301 202.857 41.7197 202.509C40.0728 202.385 38.2769 202.227 36.4314 202.045C33.5761 201.754 31.2258 201.771 29.3802 201.514C29.3306 201.506 29.2892 201.497 29.2478 201.489C28.8837 201.431 28.5444 201.373 28.2216 201.29C28.2216 201.29 28.2133 201.29 28.205 201.29C26.583 200.867 25.4657 200.03 24.8781 198.181C24.7705 197.85 24.6878 197.477 24.6133 197.07L26.045 194.575C26.045 194.575 27.0299 193.729 28.5526 193.133C29.7527 192.652 31.292 192.345 32.9472 192.726C33.2451 192.793 33.543 192.884 33.8493 193C34.4948 193.249 35.1982 193.539 35.9431 193.854C36.092 193.912 36.2493 193.978 36.3982 194.044C36.5472 194.111 36.7045 194.177 36.8617 194.243C37.0769 194.335 37.2921 194.426 37.5155 194.525C41.2562 196.134 45.6094 198.082 48.5556 198.894C49.3998 199.126 50.3101 199.276 51.2453 199.375C51.5184 199.408 51.7915 199.433 52.0729 199.441C55.2592 199.649 58.404 199.276 59.2482 199.325C60.1503 199.383 62.1282 201.315 63.4275 202.525C63.7834 202.857 64.0979 203.131 64.3131 203.296C64.3462 203.321 64.3793 203.346 64.4124 203.379C64.4372 203.396 64.462 203.413 64.4869 203.446C64.9917 203.91 65.2896 204.623 65.4469 205.203C65.5131 205.469 65.5545 205.701 65.5793 205.883C65.5958 205.999 65.5958 206.09 65.5958 206.157V206.165Z" fill="white" stroke="#263238" stroke-linecap="round" stroke-linejoin="round"/>
<path d="M65.5957 206.162C65.5957 206.162 65.5874 206.229 65.5791 206.262C65.4798 206.577 65.0412 206.709 64.7019 206.502C64.3294 206.278 63.7336 204.902 63.7336 204.902L63.0798 204.231L62.6494 203.783H62.6412C62.6991 203.916 63.2287 205.209 62.9639 205.797C62.9474 205.839 62.9308 205.872 62.8977 205.905C62.8067 206.03 62.6991 206.137 62.5832 206.237C62.2274 206.519 61.7887 206.685 61.3253 206.685H61.2922C60.928 206.668 59.8935 206.801 58.9915 206.867C58.9501 206.867 58.917 206.867 58.8839 206.867C58.5694 206.883 58.2714 206.892 58.0314 206.875C57.2949 206.776 56.5914 206.544 55.9459 206.17C55.9459 206.17 52.9831 205.706 51.6672 205.151C51.5845 205.118 51.5017 205.076 51.4272 205.035C51.3527 204.985 51.27 204.944 51.2038 204.894C51.0548 204.794 50.9224 204.695 50.7983 204.579C50.1279 203.99 49.7058 203.252 49.6065 203.045C49.5982 203.028 49.59 203.02 49.59 203.012L49.5817 202.995C49.5817 202.995 46.321 202.854 41.9099 202.514C40.2133 202.39 38.3429 202.224 36.4229 202.034C33.8077 201.768 31.6394 201.702 29.9015 201.428C29.7194 201.395 29.5373 201.362 29.3635 201.329C29.1483 201.279 28.9414 201.238 28.7428 201.188C28.6352 200.334 28.6435 199.24 29.0573 198.17C29.5456 196.869 30.6215 195.592 32.7732 194.78C32.7815 194.78 32.7898 194.78 32.798 194.771C33.8325 194.39 34.8919 194.083 35.9677 193.859C35.9677 193.859 35.9705 193.859 35.976 193.859C36.125 193.926 36.2739 193.984 36.4229 194.05C36.5719 194.116 36.7291 194.183 36.8864 194.249C37.1015 194.34 37.3167 194.431 37.5402 194.531C41.2892 196.148 45.6341 198.104 48.5803 198.908C49.4244 199.14 50.3431 199.29 51.27 199.381C51.5431 199.414 51.8162 199.439 52.0976 199.447C55.2838 199.663 58.4287 199.29 59.2646 199.331C60.1666 199.381 62.1363 201.321 63.4356 202.523C63.7998 202.854 64.1143 203.136 64.3377 203.302C64.3708 203.327 64.4039 203.352 64.437 203.377C64.4619 203.393 64.4867 203.41 64.5115 203.443C65.0163 203.899 65.3143 204.612 65.4715 205.201C65.546 205.458 65.5874 205.698 65.6039 205.88C65.6205 205.996 65.6205 206.088 65.6205 206.154L65.5957 206.162Z" fill="white" stroke="#263238" stroke-linecap="round" stroke-linejoin="round"/>
<path d="M55.6895 203.957C55.6895 203.957 57.5598 204.935 58.3129 205.267C59.066 205.599 58.9916 206.975 58.9916 206.975" fill="white"/>
<path d="M55.6895 203.957C55.6895 203.957 57.5598 204.935 58.3129 205.267C59.066 205.599 58.9916 206.975 58.9916 206.975" stroke="#263238" stroke-linecap="round" stroke-linejoin="round"/>
<path d="M57.6924 202.625C57.6924 202.625 60.5641 204.722 61.1021 205.336C61.4248 205.717 61.5076 206.248 61.309 206.712" fill="white"/>
<path d="M57.6924 202.625C57.6924 202.625 60.5641 204.722 61.1021 205.336C61.4248 205.717 61.5076 206.248 61.309 206.712" stroke="#263238" stroke-linecap="round" stroke-linejoin="round"/>
<path d="M62.6494 203.758C62.6494 203.758 59.9018 200.898 59.5459 200.773L62.6494 203.758Z" fill="white"/>
<path d="M62.6494 203.758C62.6494 203.758 59.9018 200.898 59.5459 200.773" stroke="#263238" stroke-linecap="round" stroke-linejoin="round"/>
<path d="M58.5281 153.038C57.0218 156.197 54.0591 160.532 49.2755 160.126C44.2107 159.695 41.3637 156.122 40.0479 153.859C41.8686 153.162 43.7058 152.449 45.2286 151.852V151.819C45.2286 150.277 45.1789 148.429 45.0134 146.596C44.9803 146.198 44.9307 145.792 44.881 145.394C44.8396 145.079 44.7983 144.756 44.7403 144.449H54.3653C54.3653 144.449 54.3073 144.839 54.2328 145.477C54.2328 145.486 54.2328 145.494 54.2246 145.502C54.1666 146.074 54.0839 146.837 54.0342 147.699C53.9597 148.843 53.9018 150.153 53.9432 151.455C54.4066 151.62 54.8784 151.786 55.3501 151.969C55.648 152.068 55.9542 152.184 56.2605 152.284C56.6246 152.416 56.9805 152.532 57.3612 152.657L58.1474 152.905C58.2798 152.947 58.3957 152.988 58.5198 153.046L58.5281 153.038Z" fill="white" stroke="#263238" stroke-linecap="round" stroke-linejoin="round"/>
<path d="M44.8809 145.395C44.8809 145.395 46.6767 150.071 49.2837 150.867C51.8906 151.671 54.2327 145.494 54.2327 145.494C54.2327 145.494 50.5582 149.432 49.1926 148.777C47.8271 148.123 44.8809 145.387 44.8809 145.387" fill="#263238"/>
<path d="M43.3418 119.58C40.826 121.661 39.0963 124.529 37.6894 127.481C36.5059 129.968 35.5045 132.828 36.4149 135.431C36.8783 136.749 37.7887 137.86 38.6908 138.929C40.4784 141.077 42.986 147.071 44.7736 149.218C44.8894 145.396 41.6949 139.22 42.0342 136.011C42.2991 133.516 43.3749 131.195 44.4343 128.923C45.7667 126.079 47.1157 123.194 49.1185 120.782C50.2026 119.472 53.6868 117.142 50.1695 116.861C47.7943 116.67 45.0963 118.129 43.3336 119.58H43.3418Z" fill="#263238" stroke="#263238" stroke-linecap="round" stroke-linejoin="round"/>
<path d="M41.0907 132.589C41.0907 132.589 39.8493 130.201 38.5583 132.473C37.6231 134.114 38.9721 136.742 39.5514 137.704C39.9321 138.284 40.5941 138.616 41.2893 138.574L41.099 132.589H41.0907Z" fill="white" stroke="#263238" stroke-linecap="round" stroke-linejoin="round"/>
<path d="M57.2952 141.267C57.0634 142.005 55.7807 143.829 54.2413 145.504C54.0013 145.769 53.7531 146.026 53.4965 146.275C51.9572 147.8 50.2937 149.01 49.2013 148.787C48.2495 148.596 47.0082 147.618 45.7916 146.366C45.4854 146.059 45.1874 145.728 44.8895 145.396C43.3585 143.647 41.9929 141.674 41.5046 140.587C41.2812 140.098 41.1322 139.385 41.0164 138.556C40.7598 136.608 40.7764 134.038 40.8012 132.297C40.8177 131.559 40.826 130.979 40.826 130.647C40.826 129.197 46.2137 124.181 46.2137 124.181C46.3295 124.131 46.4868 124.115 46.6688 124.131C47.2647 124.181 48.2247 124.537 49.3171 125.076C52.5862 126.668 57.1462 129.827 57.4772 131.029C57.9572 132.761 57.7669 139.692 57.2869 141.251L57.2952 141.267Z" fill="white" stroke="#263238" stroke-linecap="round" stroke-linejoin="round"/>
<path d="M46.5778 134.612C46.5778 135.192 46.3626 135.673 46.1226 135.673C45.8826 135.673 45.6426 135.217 45.6426 134.612C45.6426 134.007 45.8578 133.551 46.1226 133.551C46.3874 133.551 46.5778 134.04 46.5778 134.612Z" fill="#263238"/>
<path d="M52.7437 133.551C53.0085 133.551 53.2237 134.023 53.2237 134.612C53.2237 135.201 53.0085 135.673 52.7437 135.673C52.4788 135.673 52.2637 135.201 52.2637 134.612C52.2637 134.023 52.4788 133.551 52.7437 133.551Z" fill="#263238"/>
<path d="M43.4912 131.997C43.4912 131.997 44.3602 130.356 47.2485 130.845" stroke="#263238" stroke-linecap="round" stroke-linejoin="round"/>
<path d="M55.4663 131.997C55.4663 131.997 54.5973 130.356 51.709 130.845" stroke="#263238" stroke-linecap="round" stroke-linejoin="round"/>
<path d="M50.0449 138.666C50.6904 138.591 51.2201 138.143 51.3111 137.596C51.3111 137.596 49.6973 135.093 50.1856 132.672" stroke="#263238" stroke-linecap="round" stroke-linejoin="round"/>
<path d="M40.04 126.836C39.3779 127.74 38.8731 128.759 38.5586 129.837" stroke="white" stroke-linecap="round" stroke-linejoin="round"/>
<path d="M46.9673 120.203C46.9673 120.203 46.0487 121.737 42.0183 124.837C41.7617 125.028 41.5134 125.235 41.2734 125.451" stroke="white" stroke-linecap="round" stroke-linejoin="round"/>
<path d="M33.9903 168.773C33.4523 176.658 32.9061 184.55 32.3682 192.434C32.3682 192.235 32.3682 192.028 32.3764 191.829" fill="#263238"/>
<path d="M33.9903 168.773C33.4523 176.658 32.9061 184.55 32.3682 192.434C32.3682 192.235 32.3682 192.028 32.3764 191.829" stroke="#263238" stroke-linecap="round" stroke-linejoin="round"/>
<path d="M86.2689 142.753C87.742 142.114 89.5131 142.396 90.8455 143.283C92.1779 144.17 93.0965 145.605 93.5683 147.138C94.0483 148.689 94.0897 150.421 93.4193 151.897C92.749 153.373 91.2841 154.533 89.6703 154.591C88.4786 154.633 87.3365 154.102 86.3765 153.389C83.2647 151.068 81.7171 144.726 86.2689 142.753Z" fill="white" stroke="#263238" stroke-linecap="round" stroke-linejoin="round"/>
<path d="M93.1218 116.282C93.1218 116.373 93.1466 117.037 93.1714 117.153C93.4611 118.429 94.0735 121.621 92.5259 122.268C93.1135 124.373 94.5535 138.077 94.3632 145.066C94.3135 147.147 93.9494 149.634 92.079 150.529C88.9259 152.03 85.93 148.366 86.3272 145.514C86.8734 141.609 86.6913 137.63 87.1713 133.684C87.6762 129.588 88.6031 125.368 87.5851 121.389C87.3369 121.124 85.7479 117.965 85.2348 117.086C85.0113 116.705 84.7961 116.324 84.6886 115.901C84.4568 115.005 84.3906 112.145 84.3906 111.582C84.8624 110.686 85.4748 111.515 85.7975 112.096C86.0293 112.518 86.112 113.381 86.0624 114.35C86.0541 114.541 86.0375 114.74 86.1369 114.889C86.2693 115.08 86.5258 115.204 86.7576 115.171C87.7672 115.022 87.7258 114.168 87.7176 113.53C87.7176 111.333 87.7093 109.144 87.7093 106.956C87.7093 106.591 87.8169 105.604 88.1727 105.571C88.5617 105.538 89.0417 105.82 89.0914 106.997C89.1493 108.315 89.1493 112.369 89.1493 112.369C89.2155 112.427 89.3231 112.485 89.4059 112.444C89.4886 112.402 89.53 112.294 89.5548 112.212C90.0431 110.172 90.5397 108.133 91.0362 106.093C91.0942 105.853 91.45 105.355 91.6983 105.355C92.3107 105.355 92.3273 106.068 92.3604 106.276C92.5755 107.37 91.0445 111.872 90.7879 112.916C90.7466 113.099 90.8045 113.372 90.9783 113.322L93.3783 108.473C93.5852 107.959 94.1314 107.37 94.6776 107.295C94.719 107.287 94.7604 107.287 94.8018 107.304C94.8432 107.32 94.8763 107.362 94.9011 107.403C95.1328 107.818 94.9011 108.39 94.7604 108.846C94.6197 109.293 92.8321 112.651 92.2031 114.002C92.1121 114.193 91.9631 114.624 92.1452 114.79C92.41 114.898 92.6583 114.599 92.7907 114.334C93.1962 113.53 93.5852 112.726 93.9494 111.905C94.0569 111.664 94.239 111.333 94.5038 111.391C96.0763 111.731 93.7921 115.13 93.13 116.282H93.1218Z" fill="white" stroke="#263238" stroke-linecap="round" stroke-linejoin="round"/>
<path d="M88.6689 115.57C89.4717 116.267 90.2662 116.996 90.8124 117.908C91.3586 118.82 91.6235 119.948 91.309 120.959C91.2676 121.092 91.2179 121.224 91.1517 121.349" fill="white"/>
<path d="M88.6689 115.57C89.4717 116.267 90.2662 116.996 90.8124 117.908C91.3586 118.82 91.6235 119.948 91.309 120.959C91.2676 121.092 91.2179 121.224 91.1517 121.349" stroke="#263238" stroke-linecap="round" stroke-linejoin="round"/>
<path d="M65.3555 167.367C66.2907 169.415 66.8782 171.148 67.1017 172.988C67.3417 174.945 67.4162 176.478 66.0838 181.975" stroke="#263238" stroke-linecap="round" stroke-linejoin="round"/>
<path d="M46.6769 122.941C46.5776 123.28 46.5114 123.645 46.5941 123.993C46.71 124.441 47.0659 124.789 47.4134 125.096C50.0535 127.417 53.0245 129.366 56.2108 130.85C56.5749 131.024 56.9722 131.206 57.1874 131.546C57.4108 131.886 57.4191 132.317 57.4191 132.723C57.4274 134.854 57.4439 136.993 57.4522 139.123C57.4522 139.787 57.4522 140.458 57.2618 141.088C56.7984 142.58 55.7722 143.791 55.0273 145.159C54.2825 146.527 53.8687 147.911 53.9184 149.47C53.7115 147.886 59.2481 144.81 60.7377 138.576C60.9446 137.706 65.2564 132.474 62.6743 126.331C60.1915 120.437 56.2853 117.9 54.9694 117.593C52.9418 117.129 51.3859 117.378 49.7142 118.605C48.2741 119.666 47.1734 121.208 46.6852 122.941H46.6769Z" fill="#263238" stroke="#263238" stroke-linecap="round" stroke-linejoin="round"/>
<path d="M52.0974 140.863C51.6174 140.962 51.1457 141.054 50.6574 141.112C49.0436 141.319 47.2311 141.062 46.1553 139.852C46.238 140.938 46.9994 145.041 49.2008 145.149C51.5098 145.265 52.0974 140.855 52.0974 140.855V140.863Z" stroke="#263238" stroke-linecap="round" stroke-linejoin="round"/>
<path d="M49.9463 120.426C50.8897 122.59 52.4291 124.48 54.3491 125.856C55.7477 126.851 57.345 127.58 58.6278 128.724C60.3161 130.233 61.3671 132.646 60.7299 134.826" stroke="white" stroke-linecap="round" stroke-linejoin="round"/>
<path d="M67.2423 153.922C67.2423 153.922 64.8505 155.597 64.3043 159.07C64.0312 160.811 64.2298 162.643 64.9333 164.26" stroke="#263238" stroke-linecap="round" stroke-linejoin="round"/>
<path d="M36.415 167.598C36.2826 169.77 34.9336 171.652 33.626 173.393L36.415 167.598Z" fill="#263238"/>
<path d="M36.415 167.598C36.2826 169.77 34.9336 171.652 33.626 173.393" stroke="#263238" stroke-linecap="round" stroke-linejoin="round"/>
<path d="M33.1875 184.203C34.5117 186.433 36.7213 188 39.2621 188.514" stroke="#263238" stroke-linecap="round" stroke-linejoin="round"/>
<path d="M64.851 185.496C64.851 185.496 62.6248 188.837 55.0605 189.509" stroke="#263238" stroke-linecap="round" stroke-linejoin="round"/>
<path d="M286.44 156.443C286.44 156.443 257.598 165.397 252.169 158.325L252.897 122.254H257.283L262.431 147.664L286.067 143.336C286.067 143.336 289.096 152.737 286.44 156.451V156.443Z" fill="white"/>
<mask id="mask0_14425_37688" style="mask-type:luminance" maskUnits="userSpaceOnUse" x="252" y="122" width="36" height="40">
<path d="M286.44 156.443C286.44 156.443 257.598 165.397 252.169 158.325L252.897 122.254H257.283L262.431 147.664L286.067 143.336C286.067 143.336 289.096 152.737 286.44 156.451V156.443Z" fill="white"/>
</mask>
<g mask="url(#mask0_14425_37688)">
<path d="M274.283 157.702C272.677 158.481 270.981 159.128 269.582 160.231C271.535 160.844 273.621 160.057 275.566 159.435C278.139 158.614 280.788 158.067 283.436 157.586C283.56 156.848 282.617 155.165 282.236 154.51C281.557 153.366 281.433 153.267 280.266 153.831C278.189 154.834 276.426 156.666 274.283 157.702Z" fill="#27A3A3" fill-opacity="0.61"/>
</g>
<path d="M286.44 156.443C286.44 156.443 257.598 165.397 252.169 158.325L252.897 122.254H257.283L262.431 147.664L286.067 143.336C286.067 143.336 289.096 152.737 286.44 156.451V156.443Z" stroke="#263238" stroke-linecap="round" stroke-linejoin="round"/>
<path d="M283.61 157.388L288.683 188.626C288.542 208.879 298.184 205.829 304.879 205.771C312.617 205.704 324.36 198.019 318.6 186.056L320.818 142.756L307.329 141.711C302.884 141.371 284.677 141.943 283.229 144.265C279.472 150.317 283.601 157.38 283.601 157.38L283.61 157.388Z" fill="white"/>
<mask id="mask1_14425_37688" style="mask-type:luminance" maskUnits="userSpaceOnUse" x="281" y="141" width="40" height="65">
<path d="M283.61 157.388L288.683 188.626C288.542 208.879 298.184 205.829 304.879 205.771C312.617 205.704 324.36 198.019 318.6 186.056L320.818 142.756L307.329 141.711C302.884 141.371 284.677 141.943 283.229 144.265C279.472 150.317 283.601 157.38 283.601 157.38L283.61 157.388Z" fill="white"/>
</mask>
<g mask="url(#mask1_14425_37688)">
<path d="M284.404 160C287.325 171.283 294.707 181.348 304.589 187.516C303.505 187.433 302.487 186.96 301.461 186.604C300.434 186.247 299.276 186.023 298.266 186.438C297.256 186.844 296.528 188.104 297.033 189.074C297.24 189.48 297.621 189.762 297.985 190.028C299.623 191.188 301.428 192.108 303.323 192.763C301.659 192.589 299.971 192.722 298.357 193.153C298.059 194.587 299.665 195.599 300.923 196.345C302.934 197.53 304.68 199.172 305.988 201.112C301.543 201.12 297.107 201.377 292.688 201.874C292.1 201.941 291.463 202.007 290.942 201.709C290.329 201.36 290.065 200.623 289.874 199.934C288.889 196.486 288.318 192.929 288.169 189.348C288.087 187.333 288.136 185.31 287.905 183.304C287.723 181.729 287.367 180.17 287.036 178.62C285.753 172.651 284.76 166.616 284.081 160.547C283.783 160.531 284.412 160.008 284.412 160.008L284.404 160Z" fill="#27A3A3" fill-opacity="0.61"/>
<path d="M318.591 157.471C317.921 157.255 316.547 156.7 315.513 155.812C315.769 157.056 317.623 159.203 318.707 159.866C318.939 160.007 319.262 160.123 319.452 159.933C319.618 159.767 319.783 159.253 319.982 159.129L318.583 157.462L318.591 157.471Z" fill="#27A3A3" fill-opacity="0.61"/>
</g>
<path d="M283.61 157.388L288.683 188.626C288.542 208.879 298.184 205.829 304.879 205.771C312.617 205.704 324.36 198.019 318.6 186.056L320.818 142.756L307.329 141.711C302.884 141.371 284.677 141.943 283.229 144.265C279.472 150.317 283.601 157.38 283.601 157.38L283.61 157.388Z" stroke="#263238" stroke-linecap="round" stroke-linejoin="round"/>
<path d="M293.466 141.091C292.017 143.736 291.314 146.778 291.446 149.796C291.455 150.061 291.48 150.335 291.595 150.567C291.968 151.305 292.986 151.305 293.797 151.404C296.983 151.811 298.961 155.177 301.973 156.304C302.205 156.395 302.462 156.47 302.71 156.395C302.933 156.329 303.107 156.147 303.256 155.964C304.564 154.348 305.027 151.985 306.815 150.915C307.593 150.451 308.586 150.26 309.116 149.523C309.728 148.677 309.455 147.5 309.157 146.497C308.669 144.847 308.122 143.114 306.856 141.953C305.598 140.809 303.836 140.428 302.139 140.287C299.648 140.08 297.115 140.32 294.699 140.984C294.724 141.299 293.466 141.091 293.466 141.091Z" fill="#27A3A3" fill-opacity="0.61" stroke="#263238" stroke-linecap="round" stroke-linejoin="round"/>
<path d="M333.514 162.286C331.494 159.343 329.996 156.052 329.119 152.586C328.68 150.879 328.391 149.104 327.604 147.521C326.355 144.992 323.847 143.135 321.075 142.671C320.479 142.572 319.85 142.539 319.287 142.754C318.087 143.21 317.566 144.595 317.317 145.855C316.796 148.549 316.953 151.368 317.764 153.987C318.319 155.77 324.981 168.761 329.4 173.793C328.978 171.256 331.891 162.775 333.514 162.286Z" fill="white"/>
<mask id="mask2_14425_37688" style="mask-type:luminance" maskUnits="userSpaceOnUse" x="317" y="142" width="17" height="32">
<path d="M333.514 162.286C331.494 159.343 329.996 156.052 329.119 152.586C328.68 150.879 328.391 149.104 327.604 147.521C326.355 144.992 323.847 143.135 321.075 142.671C320.479 142.572 319.85 142.539 319.287 142.754C318.087 143.21 317.566 144.595 317.317 145.855C316.796 148.549 316.953 151.368 317.764 153.987C318.319 155.77 324.981 168.761 329.4 173.793C328.978 171.256 331.891 162.775 333.514 162.286Z" fill="white"/>
</mask>
<g mask="url(#mask2_14425_37688)">
<path d="M320.454 159.742C321.82 162.32 323.177 164.89 324.542 167.469C325.122 168.571 325.792 169.749 326.934 170.229C326.214 167.684 325.809 165.048 325.718 162.395C325.668 161.069 325.701 159.709 325.262 158.449C325.097 158.59 324.915 157.993 324.915 157.993C324.741 158.333 324.253 158.341 323.88 158.266C321.207 157.711 319.378 155.315 317.789 153.102C317.359 154.577 317.665 156.252 318.592 157.471C318.592 157.471 320.313 159.485 320.454 159.742Z" fill="#27A3A3" fill-opacity="0.61"/>
</g>
<path d="M333.514 162.286C331.494 159.343 329.996 156.052 329.119 152.586C328.68 150.879 328.391 149.104 327.604 147.521C326.355 144.992 323.847 143.135 321.075 142.671C320.479 142.572 319.85 142.539 319.287 142.754C318.087 143.21 317.566 144.595 317.317 145.855C316.796 148.549 316.953 151.368 317.764 153.987C318.319 155.77 324.981 168.761 329.4 173.793C328.978 171.256 331.891 162.775 333.514 162.286Z" stroke="#263238" stroke-linecap="round" stroke-linejoin="round"/>
<path d="M327.778 171.575C323.326 163.027 325.477 143.33 325.337 140.163L331.212 139.848C331.8 139.848 334.515 156.644 336.377 163.616C338.073 169.966 336.451 176.391 333.513 176.391C331.08 176.391 328.705 173.374 327.77 171.575H327.778Z" fill="white" stroke="#263238" stroke-linecap="round" stroke-linejoin="round"/>
<path d="M274.713 149.388C278.867 143.336 286.97 142.855 286.97 142.855" stroke="#263238" stroke-linecap="round" stroke-linejoin="round"/>
<path d="M258.757 152.77C260.189 151.576 261.273 149.561 261.62 148.633L258.757 152.77Z" fill="white"/>
<path d="M258.757 152.77C260.189 151.576 261.273 149.561 261.62 148.633" stroke="#263238" stroke-linecap="round" stroke-linejoin="round"/>
<path d="M289.494 181.371C291.861 185.234 307.13 189.38 313.221 188.492" stroke="#263238" stroke-linecap="round" stroke-linejoin="round"/>
<path d="M293.822 192.256C298.217 193.018 302.769 192.844 307.089 191.75" stroke="#263238" stroke-linecap="round" stroke-linejoin="round"/>
<path d="M314.09 154.742C315.058 156.06 316.026 157.379 316.995 158.697C317.392 159.236 317.946 159.841 318.6 159.692" stroke="#263238" stroke-linecap="round" stroke-linejoin="round"/>
<path d="M321.199 194.477C321.199 194.477 325.552 202.071 326.487 203.845C327.422 205.611 347.21 231.618 350.967 250.553C351.679 254.151 337.105 294.392 337.105 294.392L333.811 292.51C333.811 292.51 336.112 255.809 335.549 252.758C334.995 249.715 320.446 227.191 320.446 227.191C320.446 227.191 312.327 221.205 308.983 214.266L321.19 194.469L321.199 194.477Z" fill="#263238"/>
<path d="M321.67 213.505C321.67 213.505 319.154 219.043 319.146 219.839C319.146 220.634 332.81 263.86 336.815 273.858C339.364 280.292 341.607 286.891 343.527 293.614C343.527 293.614 345.083 295.662 343.908 297.751C342.733 299.84 338.065 301.216 337.097 299.343C336.137 297.469 326.677 287.736 322.688 278.053C318.724 268.428 313.113 252.212 309.927 246.16C305.739 238.442 302.023 230.492 298.812 222.359C294.79 212.07 290.693 200.986 290.693 200.986C292.365 201.136 294.037 201.177 295.709 201.119C299.631 200.986 303.529 200.298 307.303 199.063C316.026 196.128 319.8 190.516 319.8 190.516C319.8 190.516 321.96 196.369 322.514 197.504L321.67 213.496V213.505Z" fill="#263238"/>
<path d="M349.519 254.254C348.667 255.713 347.516 257.006 346.143 257.993" stroke="white" stroke-linecap="round" stroke-linejoin="round"/>
<path d="M350.587 251.84C350.462 252.246 350.313 252.636 350.14 253.025" stroke="white" stroke-linecap="round" stroke-linejoin="round"/>
<path d="M313.783 200.582C315.985 204.379 318.045 209.842 317.714 214.228C317.665 214.924 316.862 216.508 316.862 216.508" stroke="white" stroke-linecap="round" stroke-linejoin="round"/>
<path d="M300.451 204.809C300.691 206.923 301.014 210.438 300.559 212.51C300.095 214.591 298.978 216.597 297.174 217.733" stroke="white" stroke-linecap="round" stroke-linejoin="round"/>
<path d="M319.229 196.809C319.783 197.347 320.006 198.118 320.379 198.79C321.571 200.937 323.871 202.612 325.775 202.885" stroke="white" stroke-linecap="round" stroke-linejoin="round"/>
<path d="M312.203 205.281C315.125 211.681 317.359 218.098 321.894 228.975" stroke="white" stroke-linecap="round" stroke-linejoin="round"/>
<path d="M310.646 202.008C310.895 202.505 311.135 203.003 311.375 203.5" stroke="white" stroke-linecap="round" stroke-linejoin="round"/>
<path d="M334.962 250.969C336.294 253.555 338.007 255.943 340.019 258.04" stroke="white" stroke-linecap="round" stroke-linejoin="round"/>
<path d="M336.344 253.355C337.213 257.401 338.827 261.281 341.061 264.755" stroke="white" stroke-linecap="round" stroke-linejoin="round"/>
<path d="M315.761 253.564C309.314 239.786 302.437 226.115 293.987 205.281" stroke="white" stroke-linecap="round" stroke-linejoin="round"/>
<path d="M317.226 257.576C317.069 257.095 316.903 256.606 316.729 256.125" stroke="white" stroke-linecap="round" stroke-linejoin="round"/>
<path d="M339.505 299.934C337.858 297.77 325.784 280.891 322.788 273.206C320.793 268.099 319.287 264.493 317.789 259.402" stroke="white" stroke-linecap="round" stroke-linejoin="round"/>
<path d="M334.962 267.402L340.697 284.29" stroke="white" stroke-linecap="round" stroke-linejoin="round"/>
<path d="M331.097 139.853L329.351 140.002C328.035 140.11 326.463 140.599 322.747 139.695C321.365 139.355 318.162 138.36 317.789 138.294C317.036 138.145 315.671 137.888 314.901 137.838C311.988 137.656 313.461 136.57 314.678 136.619C316.283 136.694 316.821 136.653 318.054 136.752C317.914 136.669 317.45 136.578 317.45 136.221C317.433 135.351 318.592 135.409 318.592 135.409C318.592 135.409 317.342 134.878 317.516 134.215C317.674 133.635 318.526 133.394 319.064 133.436C319.064 133.436 318.36 133.104 318.394 132.731C318.534 131.322 321.431 131.222 321.431 131.222C320.603 130.733 320.024 130.567 319.486 130.02C319.271 129.805 319.114 129.506 319.047 129.208C318.89 128.511 319.618 127.989 320.239 128.337C321.009 128.76 321.663 129.432 322.391 129.954C323.285 130.584 324.319 130.999 325.263 131.571C325.668 131.819 326.976 133.287 327.439 134.431C327.572 134.679 331.089 139.878 331.089 139.878L331.097 139.853Z" fill="white" stroke="#263238" stroke-linecap="round" stroke-linejoin="round"/>
<path d="M252.897 122.254V117.653C252.897 115.364 253.212 113.076 253.899 110.888C254.28 109.677 254.718 108.624 255.132 108.467C255.885 108.193 256.216 111.252 256.216 111.252C256.216 111.252 255.132 106.477 255.132 103.816C255.132 101.155 258.707 112.206 258.707 112.206L257.284 122.254H252.897Z" fill="white" stroke="#263238" stroke-linecap="round" stroke-linejoin="round"/>
<path d="M257.242 114.825C257.673 114.494 258.004 114.038 258.169 113.516L257.242 114.825Z" fill="white"/>
<path d="M257.242 114.825C257.673 114.494 258.004 114.038 258.169 113.516" stroke="#263238" stroke-linecap="round" stroke-linejoin="round"/>
<path d="M291.886 131.789C293.442 134.392 294.311 137.352 294.402 140.386C294.551 145.427 300.377 152.49 302.04 152.822C303.704 153.153 305.243 144.871 305.169 142.351C305.094 139.831 304.167 132.9 304.167 132.9C304.167 132.9 296.164 126.865 291.886 131.789Z" fill="white" stroke="#263238" stroke-linecap="round" stroke-linejoin="round"/>
<path d="M294.228 138.456C294.228 138.456 301.866 148.902 304.862 138.282C307.858 127.662 296.462 141.184 294.228 138.456Z" fill="#263238"/>
<path d="M307.122 130.919C306.716 137.112 303.894 140.594 300.641 141.207C297.67 141.763 293.325 138.712 291.157 134.218C290.992 134.102 288.352 132.27 287.723 131.822C287.069 131.358 286.63 130.579 286.672 129.775C286.705 129.012 287.243 128.266 287.971 128.05C287.996 128.042 288.029 128.034 288.054 128.025C288.434 127.934 288.807 127.984 289.171 128.108C288.616 125.986 288.17 123.847 287.839 121.683C287.996 116.684 289.643 112.647 294.939 112.241C300.244 111.834 304.664 114.811 304.862 116.95C305.019 118.608 305.549 122.993 306.037 127.528C306.17 128.78 307.221 129.551 307.138 130.919H307.122Z" fill="white" stroke="#263238" stroke-linecap="round" stroke-linejoin="round"/>
<path d="M304.862 123.79C304.862 123.79 301.453 122.223 302.032 127.313C302.148 128.317 304.018 129.842 304.018 129.842C304.018 129.842 303.538 131.342 302.653 131.342" fill="white"/>
<path d="M304.862 123.79C304.862 123.79 301.453 122.223 302.032 127.313C302.148 128.317 304.018 129.842 304.018 129.842C304.018 129.842 303.538 131.342 302.653 131.342" stroke="#263238" stroke-linecap="round" stroke-linejoin="round"/>
<path d="M298.275 125.53C298.275 125.53 296.537 124.469 295.345 125.124C294.724 125.397 294.195 125.845 293.822 126.417" fill="white"/>
<path d="M298.275 125.53C298.275 125.53 296.537 124.469 295.345 125.124C294.724 125.397 294.195 125.845 293.822 126.417" stroke="#263238" stroke-linecap="round" stroke-linejoin="round"/>
<path d="M297.281 128.44C297.413 129.053 297.248 129.609 296.925 129.675C296.594 129.741 296.23 129.31 296.097 128.688C295.965 128.075 296.131 127.528 296.462 127.453C296.793 127.379 297.157 127.843 297.281 128.431V128.44Z" fill="#263238"/>
<path d="M304.001 126.681C304.134 127.294 303.968 127.841 303.645 127.916C303.323 127.991 302.942 127.543 302.818 126.929C302.694 126.324 302.851 125.76 303.174 125.694C303.505 125.628 303.869 126.067 304.001 126.681Z" fill="#263238"/>
<path d="M287.433 115.323C286.795 115.87 286.456 116.691 286.224 117.504C285.215 120.994 285.686 124.89 287.491 128.041C287.491 128.041 288.409 127.924 289.154 128.115C289.733 128.264 290.478 129.251 290.751 129.781C291.024 130.312 291.091 130.917 291.157 131.514C291.024 129.947 290.9 128.372 290.768 126.805C290.718 126.175 290.669 125.52 290.851 124.915C290.851 124.915 290.851 124.907 290.851 124.898C291.256 123.605 290.809 120.554 290.925 117.827C294.36 122.038 299.35 121.292 301.005 121.151C303.488 120.944 305.607 118.399 305.466 116.583C305.325 114.735 304.845 110.092 296.66 109.611C294.864 109.503 292.969 109.719 291.463 110.697C290.445 111.36 289.791 112.438 289.609 113.632C289.493 114.395 289.783 114.461 289.204 114.834C288.724 115.141 287.995 114.834 287.424 115.323H287.433Z" fill="#263238" stroke="#263238" stroke-linecap="round" stroke-linejoin="round"/>
<path d="M298.274 134.227C298.274 134.227 299.491 135.561 302.032 134.683L298.274 134.227Z" fill="white"/>
<path d="M298.274 134.227C298.274 134.227 299.491 135.561 302.032 134.683" stroke="#263238" stroke-linecap="round" stroke-linejoin="round"/>
</g>
<defs>
<clipPath id="clip0_14425_37688">
<rect width="351" height="310" fill="white" transform="translate(0 -1)"/>
</clipPath>
</defs>
</svg>
