<svg width="52" height="52" viewBox="0 0 52 52" fill="none" xmlns="http://www.w3.org/2000/svg">
<rect width="52" height="52" rx="4" fill="#1EA2E4" fill-opacity="0.05"/>
<path d="M26.0001 11C25.9476 11 25.887 10.9998 25.8345 11.0073C24.1095 11.2023 22.2953 14.4275 21.3653 19.25H30.6348C29.7048 14.4275 27.8906 11.2023 26.1656 11.0073C26.1131 10.9998 26.0526 11 26.0001 11ZM21.7256 11.6226C17.7356 12.8001 14.443 15.5975 12.6055 19.25H19.0772C19.6022 16.25 20.4956 13.5351 21.7256 11.6226ZM30.2745 11.6226C31.5045 13.5351 32.3979 16.25 32.9229 19.25H39.3946C37.5571 15.5975 34.2645 12.8001 30.2745 11.6226ZM18.9791 21.5205C18.7614 21.5317 18.5544 21.6185 18.3937 21.7658C18.2331 21.9131 18.1287 22.1117 18.0987 22.3276L17.482 26.1963L16.3599 23.6035C16.2871 23.436 16.1669 23.2934 16.0142 23.1932C15.8614 23.0931 15.6827 23.0397 15.5001 23.0397C15.3174 23.0397 15.1387 23.0931 14.9859 23.1932C14.8332 23.2934 14.713 23.436 14.6402 23.6035L13.5181 26.1963L12.9014 22.3276C12.8697 22.1087 12.7616 21.9081 12.5962 21.7612C12.4308 21.6143 12.2188 21.5306 11.9976 21.5249C11.859 21.5214 11.7213 21.5486 11.5945 21.6047C11.4677 21.6608 11.3548 21.7443 11.2642 21.8493C11.1735 21.9542 11.1073 22.078 11.0702 22.2116C11.0332 22.3452 11.0262 22.4854 11.0499 22.6221L12.1749 29.6724C12.2071 29.8725 12.3034 30.0568 12.4492 30.1976C12.5951 30.3384 12.7826 30.4281 12.9837 30.4533C13.1849 30.4786 13.3888 30.438 13.5649 30.3376C13.741 30.2372 13.8798 30.0824 13.9605 29.8965L15.5001 26.3354L17.0396 29.8965C17.1203 30.0824 17.2592 30.2372 17.4353 30.3376C17.6114 30.438 17.8153 30.4786 18.0164 30.4533C18.2175 30.4281 18.4051 30.3384 18.5509 30.1976C18.6967 30.0568 18.793 29.8725 18.8253 29.6724L19.9503 22.6221C19.9751 22.4831 19.9683 22.3403 19.9303 22.2043C19.8922 22.0683 19.824 21.9427 19.7306 21.8368C19.6372 21.7309 19.5212 21.6474 19.391 21.5927C19.2609 21.5379 19.1201 21.5132 18.9791 21.5205ZM29.4791 21.5205C29.2614 21.5317 29.0544 21.6185 28.8937 21.7658C28.7331 21.9131 28.6287 22.1117 28.5987 22.3276L27.982 26.1963L26.8599 23.6035C26.7871 23.436 26.6669 23.2934 26.5142 23.1932C26.3614 23.0931 26.1827 23.0397 26.0001 23.0397C25.8174 23.0397 25.6387 23.0931 25.4859 23.1932C25.3332 23.2934 25.213 23.436 25.1402 23.6035L24.0181 26.1963L23.4014 22.3276C23.3697 22.1087 23.2616 21.9081 23.0962 21.7612C22.9308 21.6143 22.7188 21.5306 22.4976 21.5249C22.359 21.5214 22.2213 21.5486 22.0945 21.6047C21.9677 21.6608 21.8549 21.7443 21.7642 21.8493C21.6735 21.9542 21.6073 22.078 21.5702 22.2116C21.5332 22.3452 21.5262 22.4854 21.5499 22.6221L22.6749 29.6724C22.7071 29.8725 22.8034 30.0568 22.9492 30.1976C23.0951 30.3384 23.2826 30.4281 23.4837 30.4533C23.6849 30.4786 23.8888 30.438 24.0649 30.3376C24.241 30.2372 24.3798 30.0824 24.4605 29.8965L26.0001 26.3354L27.5396 29.8965C27.6203 30.0824 27.7592 30.2372 27.9353 30.3376C28.1114 30.438 28.3153 30.4786 28.5164 30.4533C28.7175 30.4281 28.9051 30.3384 29.0509 30.1976C29.1967 30.0568 29.293 29.8725 29.3253 29.6724L30.4503 22.6221C30.4751 22.4831 30.4683 22.3403 30.4303 22.2043C30.3922 22.0683 30.324 21.9427 30.2306 21.8368C30.1372 21.7309 30.0212 21.6474 29.891 21.5927C29.7609 21.5379 29.6201 21.5132 29.4791 21.5205ZM39.9791 21.5205C39.7614 21.5317 39.5544 21.6185 39.3937 21.7658C39.2331 21.9131 39.1287 22.1117 39.0987 22.3276L38.482 26.1963L37.3599 23.6035C37.2871 23.436 37.1669 23.2934 37.0142 23.1932C36.8614 23.0931 36.6827 23.0397 36.5001 23.0397C36.3174 23.0397 36.1387 23.0931 35.986 23.1932C35.8332 23.2934 35.713 23.436 35.6402 23.6035L34.5181 26.1963L33.9014 22.3276C33.8697 22.1087 33.7616 21.9081 33.5962 21.7612C33.4308 21.6143 33.2188 21.5306 32.9976 21.5249C32.859 21.5214 32.7213 21.5486 32.5945 21.6047C32.4676 21.6608 32.3548 21.7443 32.2642 21.8493C32.1735 21.9542 32.1073 22.078 32.0702 22.2116C32.0332 22.3452 32.0262 22.4854 32.0499 22.6221L33.1749 29.6724C33.2071 29.8725 33.3034 30.0568 33.4492 30.1976C33.5951 30.3384 33.7826 30.4281 33.9837 30.4533C34.1849 30.4786 34.3888 30.438 34.5649 30.3376C34.741 30.2372 34.8798 30.0824 34.9605 29.8965L36.5001 26.3354L38.0396 29.8965C38.1203 30.0824 38.2592 30.2372 38.4353 30.3376C38.6114 30.438 38.8153 30.4786 39.0164 30.4533C39.2175 30.4281 39.4051 30.3384 39.5509 30.1976C39.6967 30.0568 39.793 29.8725 39.8253 29.6724L40.9503 22.6221C40.9751 22.4831 40.9683 22.3403 40.9303 22.2043C40.8922 22.0683 40.824 21.9427 40.7306 21.8368C40.6372 21.7309 40.5212 21.6474 40.391 21.5927C40.2609 21.5379 40.1201 21.5132 39.9791 21.5205ZM12.6055 32.75C14.443 36.4025 17.7356 39.1999 21.7256 40.3774C20.4956 38.4649 19.6022 35.75 19.0772 32.75H12.6055ZM21.3653 32.75C22.2953 37.5725 24.1095 40.7977 25.8345 40.9927C25.887 41.0002 25.9476 41 26.0001 41C26.0526 41 26.1131 41.0002 26.1656 40.9927C27.8906 40.7977 29.7048 37.5725 30.6348 32.75H21.3653ZM32.9229 32.75C32.3979 35.75 31.5045 38.4649 30.2745 40.3774C34.2645 39.1999 37.5571 36.4025 39.3946 32.75H32.9229Z" fill="#27A3A3"/>
</svg>
