<svg width="32" height="32" viewBox="0 0 32 32" fill="none" xmlns="http://www.w3.org/2000/svg">
<g id="icons8_ok_1 1">
<path id="Vector" d="M16.0003 2.66699C8.64833 2.66699 2.66699 8.64833 2.66699 16.0003C2.66699 23.3523 8.64833 29.3337 16.0003 29.3337C23.3523 29.3337 29.3337 23.3523 29.3337 16.0003C29.3337 8.64833 23.3523 2.66699 16.0003 2.66699ZM21.7077 13.7077L15.041 20.3743C14.8457 20.5697 14.5897 20.667 14.3337 20.667C14.0777 20.667 13.8217 20.5697 13.6263 20.3743L10.293 17.041C9.90233 16.6503 9.90233 16.0177 10.293 15.627C10.6837 15.2363 11.3163 15.2363 11.707 15.627L14.333 18.253L20.2923 12.2937C20.683 11.903 21.3157 11.903 21.7063 12.2937C22.097 12.6843 22.0977 13.317 21.7077 13.7077Z" fill="#016A70"/>
</g>
</svg>
