<svg width="21" height="20" viewBox="0 0 21 20" fill="none" xmlns="http://www.w3.org/2000/svg">
<path d="M10.2503 1.66699C5.64783 1.66699 1.91699 5.39783 1.91699 10.0003C1.91699 14.6028 5.64783 18.3337 10.2503 18.3337C14.8528 18.3337 18.5837 14.6028 18.5837 10.0003C18.5837 5.39783 14.8528 1.66699 10.2503 1.66699Z" fill="url(#paint0_linear_676_197)"/>
<path d="M11.3777 12.2083H13.5343L13.8731 10.0175H11.3777V8.81997C11.3777 7.90997 11.6752 7.10289 12.5264 7.10289H13.8943V5.19122C13.6539 5.15872 13.1456 5.08789 12.1852 5.08789C10.1793 5.08789 9.00349 6.14706 9.00349 8.56039V10.0179H6.94141V12.2087H9.00307V18.2304C9.41141 18.2912 9.82516 18.3329 10.2497 18.3329C10.6335 18.3329 11.0081 18.2979 11.3777 18.2479V12.2083Z" fill="white"/>
<defs>
<linearGradient id="paint0_linear_676_197" x1="4.41408" y1="4.16408" x2="17.1732" y2="16.9232" gradientUnits="userSpaceOnUse">
<stop stop-color="#2AA4F4"/>
<stop offset="1" stop-color="#007AD9"/>
</linearGradient>
</defs>
</svg>
