<svg width="29" height="27" viewBox="0 0 29 27" fill="none" xmlns="http://www.w3.org/2000/svg">
<path d="M9.9401 0.0154919C9.68586 0.00713452 9.43276 0.0275642 9.1849 0.0766898C8.68916 0.174941 8.21678 0.386285 7.80599 0.70169C6.98352 1.33266 6.5 2.31011 6.5 3.34752V15.3475H4.16667C2.15 15.3475 0.5 16.9975 0.5 19.0142V25.6809C0.5 26.2329 0.948 26.6809 1.5 26.6809H12.1667H20.8333H21.8333H27.5C28.052 26.6809 28.5 26.2329 28.5 25.6809V14.3475C28.5 12.3309 26.85 10.6809 24.8333 10.6809H21.8333V5.68086C21.8333 4.17854 20.8179 2.85308 19.3672 2.46211L10.7005 0.128773C10.4498 0.0609936 10.1944 0.0238492 9.9401 0.0154919ZM9.87891 2.01549C9.98064 2.01837 10.0814 2.03321 10.1797 2.05976L18.8464 4.3931C19.429 4.55012 19.8333 5.07784 19.8333 5.68086V24.6809H13.1667V19.0142C13.1667 16.9975 11.5167 15.3475 9.5 15.3475H8.5V3.34752C8.5 2.94227 8.70057 2.53532 9.02344 2.28763C9.26425 2.10273 9.5737 2.00686 9.87891 2.01549ZM11.1667 6.01419C10.7987 6.01419 10.5 6.31286 10.5 6.68086V8.01419C10.5 8.38219 10.7987 8.68086 11.1667 8.68086H12.5C12.868 8.68086 13.1667 8.38219 13.1667 8.01419V6.68086C13.1667 6.31286 12.868 6.01419 12.5 6.01419H11.1667ZM15.8333 6.01419C15.4653 6.01419 15.1667 6.31286 15.1667 6.68086V8.01419C15.1667 8.38219 15.4653 8.68086 15.8333 8.68086H17.1667C17.5347 8.68086 17.8333 8.38219 17.8333 8.01419V6.68086C17.8333 6.31286 17.5347 6.01419 17.1667 6.01419H15.8333ZM11.1667 10.6809C10.7987 10.6809 10.5 10.9795 10.5 11.3475V12.6809C10.5 13.0489 10.7987 13.3475 11.1667 13.3475H12.5C12.868 13.3475 13.1667 13.0489 13.1667 12.6809V11.3475C13.1667 10.9795 12.868 10.6809 12.5 10.6809H11.1667ZM15.8333 10.6809C15.4653 10.6809 15.1667 10.9795 15.1667 11.3475V12.6809C15.1667 13.0489 15.4653 13.3475 15.8333 13.3475H17.1667C17.5347 13.3475 17.8333 13.0489 17.8333 12.6809V11.3475C17.8333 10.9795 17.5347 10.6809 17.1667 10.6809H15.8333ZM15.8333 15.3475C15.4653 15.3475 15.1667 15.6462 15.1667 16.0142V17.3475C15.1667 17.7155 15.4653 18.0142 15.8333 18.0142H17.1667C17.5347 18.0142 17.8333 17.7155 17.8333 17.3475V16.0142C17.8333 15.6462 17.5347 15.3475 17.1667 15.3475H15.8333ZM23.8333 15.3475H25.1667C25.5347 15.3475 25.8333 15.6462 25.8333 16.0142V17.3475C25.8333 17.7155 25.5347 18.0142 25.1667 18.0142H23.8333C23.4653 18.0142 23.1667 17.7155 23.1667 17.3475V16.0142C23.1667 15.6462 23.4653 15.3475 23.8333 15.3475ZM3.83333 20.0142H5.16667C5.53467 20.0142 5.83333 20.3129 5.83333 20.6809V22.0142C5.83333 22.3822 5.53467 22.6809 5.16667 22.6809H3.83333C3.46533 22.6809 3.16667 22.3822 3.16667 22.0142V20.6809C3.16667 20.3129 3.46533 20.0142 3.83333 20.0142ZM8.5 20.0142H9.83333C10.2013 20.0142 10.5 20.3129 10.5 20.6809V22.0142C10.5 22.3822 10.2013 22.6809 9.83333 22.6809H8.5C8.132 22.6809 7.83333 22.3822 7.83333 22.0142V20.6809C7.83333 20.3129 8.132 20.0142 8.5 20.0142ZM15.8333 20.0142C15.4653 20.0142 15.1667 20.3129 15.1667 20.6809V22.0142C15.1667 22.3822 15.4653 22.6809 15.8333 22.6809H17.1667C17.5347 22.6809 17.8333 22.3822 17.8333 22.0142V20.6809C17.8333 20.3129 17.5347 20.0142 17.1667 20.0142H15.8333ZM23.8333 20.0142H25.1667C25.5347 20.0142 25.8333 20.3129 25.8333 20.6809V22.0142C25.8333 22.3822 25.5347 22.6809 25.1667 22.6809H23.8333C23.4653 22.6809 23.1667 22.3822 23.1667 22.0142V20.6809C23.1667 20.3129 23.4653 20.0142 23.8333 20.0142Z" fill="#858D9D"/>
</svg>
