<svg width="180" height="184" viewBox="0 0 180 184" fill="none" xmlns="http://www.w3.org/2000/svg">
<g opacity="0.3">
<path d="M90 87.9997C90 85.2097 90 83.8147 90.3069 82.6708C91.1385 79.5649 93.5649 77.1385 96.6708 76.3069C97.8147 76 99.2097 76 102 76H114C116.79 76 118.185 76 119.329 76.3069C122.435 77.1385 124.862 79.5649 125.693 82.6708C126 83.8147 126 85.2097 126 87.9997V94C126 103.941 117.941 112 108 112C98.0586 112 90 103.941 90 94V87.9997Z" stroke="#016A70" stroke-width="1.5" stroke-linecap="round" stroke-linejoin="round"/>
<path d="M125.1 89.5H135.743C147.301 89.5 153.08 89.5 158 88.4578C172.242 85.441 183.861 76.1863 188.945 63.8095C190.702 59.5336 191.418 54.3597 192.852 44.0113C193.39 40.1264 193.659 38.1841 193.401 36.5952C192.647 31.9679 188.939 28.1774 183.943 26.9288C182.227 26.5 180.058 26.5 175.72 26.5H40.2806C35.9416 26.5 33.772 26.5 32.0568 26.9288C27.0614 28.1774 23.3529 31.9679 22.5993 36.5952C22.3406 38.1841 22.6097 40.1264 23.1478 44.0113C24.5815 54.3597 25.2983 59.5336 27.0548 63.8095C32.139 76.1863 43.7578 85.441 57.9992 88.4578C62.9194 89.5 68.6986 89.5 80.2568 89.5H90.9" stroke="#016A70" stroke-width="1.5"/>
<path d="M31.5 71.5V89.5C31.5 123.441 31.5 140.412 41.4584 150.956C51.4167 161.5 67.4445 161.5 99.5004 161.5H116.5C148.556 161.5 164.583 161.5 174.541 150.956C184.5 140.412 184.5 123.441 184.5 89.5V71.5" stroke="#016A70" stroke-width="1.5" stroke-linecap="round" stroke-linejoin="round"/>
<path d="M139.5 26.5L138.804 23.3211C135.339 7.48057 133.607 -0.43961 129.482 -4.96985C125.357 -9.5 119.879 -9.5 108.921 -9.5H107.079C96.1209 -9.5 90.6426 -9.5 86.5178 -4.96985C82.393 -0.43961 80.6605 7.48057 77.1954 23.3211L76.5 26.5" stroke="#016A70" stroke-width="1.5"/>
</g>
</svg>
