<svg width="41" height="48" viewBox="0 0 41 48" fill="none" xmlns="http://www.w3.org/2000/svg">
<g clip-path="url(#clip0_905_4038)">
<path d="M5.16992 4C2.68992 4 0.669922 6.02 0.669922 8.5V39.5C0.669922 41.98 2.68992 44 5.16992 44H28.1699C30.6509 44 32.6699 41.981 32.6699 39.5V18.5C32.6699 18.085 32.5017 17.7107 32.2305 17.4395L19.2305 4.43945C18.9592 4.1682 18.5849 4 18.1699 4H5.16992ZM5.16992 7H16.6699V15.5C16.6699 17.98 18.6899 20 21.1699 20H29.6699V39.5C29.6699 40.327 28.9969 41 28.1699 41H5.16992C4.33992 41 3.66992 40.33 3.66992 39.5V8.5C3.66992 7.67 4.33992 7 5.16992 7ZM19.6699 9.12109L27.5488 17H21.1699C20.3399 17 19.6699 16.33 19.6699 15.5V9.12109ZM9.16992 24C8.50688 24 7.871 24.2634 7.40215 24.7322C6.93331 25.2011 6.66992 25.837 6.66992 26.5C6.66992 27.163 6.93331 27.7989 7.40215 28.2678C7.871 28.7366 8.50688 29 9.16992 29C9.83296 29 10.4688 28.7366 10.9377 28.2678C11.4065 27.7989 11.6699 27.163 11.6699 26.5C11.6699 25.837 11.4065 25.2011 10.9377 24.7322C10.4688 24.2634 9.83296 24 9.16992 24ZM16.1699 25C15.9712 24.9972 15.7738 25.0339 15.5894 25.108C15.4049 25.1821 15.237 25.2922 15.0955 25.4318C14.9539 25.5713 14.8415 25.7376 14.7648 25.921C14.6881 26.1044 14.6486 26.3012 14.6486 26.5C14.6486 26.6988 14.6881 26.8956 14.7648 27.079C14.8415 27.2624 14.9539 27.4287 15.0955 27.5682C15.237 27.7078 15.4049 27.8178 15.5894 27.892C15.7738 27.9661 15.9712 28.0028 16.1699 28H25.1699C25.3687 28.0028 25.566 27.9661 25.7505 27.892C25.9349 27.8178 26.1028 27.7078 26.2444 27.5682C26.3859 27.4287 26.4983 27.2624 26.5751 27.079C26.6518 26.8956 26.6913 26.6988 26.6913 26.5C26.6913 26.3012 26.6518 26.1044 26.5751 25.921C26.4983 25.7376 26.3859 25.5713 26.2444 25.4318C26.1028 25.2922 25.9349 25.1821 25.7505 25.108C25.566 25.0339 25.3687 24.9972 25.1699 25H16.1699ZM9.16992 32C8.50688 32 7.871 32.2634 7.40215 32.7322C6.93331 33.2011 6.66992 33.837 6.66992 34.5C6.66992 35.163 6.93331 35.7989 7.40215 36.2678C7.871 36.7366 8.50688 37 9.16992 37C9.83296 37 10.4688 36.7366 10.9377 36.2678C11.4065 35.7989 11.6699 35.163 11.6699 34.5C11.6699 33.837 11.4065 33.2011 10.9377 32.7322C10.4688 32.2634 9.83296 32 9.16992 32ZM16.1699 33C15.9712 32.9972 15.7738 33.0339 15.5894 33.108C15.4049 33.1821 15.237 33.2922 15.0955 33.4318C14.9539 33.5713 14.8415 33.7376 14.7648 33.921C14.6881 34.1044 14.6486 34.3012 14.6486 34.5C14.6486 34.6988 14.6881 34.8956 14.7648 35.079C14.8415 35.2624 14.9539 35.4287 15.0955 35.5682C15.237 35.7078 15.4049 35.8178 15.5894 35.892C15.7738 35.9661 15.9712 36.0028 16.1699 36H25.1699C25.3687 36.0028 25.566 35.9661 25.7505 35.892C25.9349 35.8178 26.1028 35.7078 26.2444 35.5682C26.3859 35.4287 26.4983 35.2624 26.5751 35.079C26.6518 34.8956 26.6913 34.6988 26.6913 34.5C26.6913 34.3012 26.6518 34.1044 26.5751 33.921C26.4983 33.7376 26.3859 33.5713 26.2444 33.4318C26.1028 33.2922 25.9349 33.1821 25.7505 33.108C25.566 33.0339 25.3687 32.9972 25.1699 33H16.1699Z" fill="#016A70" fill-opacity="0.2"/>
</g>
<defs>
<clipPath id="clip0_905_4038">
<rect width="40" height="48" fill="white" transform="translate(0.669922)"/>
</clipPath>
</defs>
</svg>
