<svg width="20" height="33" viewBox="0 0 20 33" fill="none" xmlns="http://www.w3.org/2000/svg">
<path d="M9.59961 5.30078C5.18844 5.30078 1.59961 8.88961 1.59961 13.3008C1.59961 17.712 5.18844 21.3008 9.59961 21.3008C14.0108 21.3008 17.5996 17.712 17.5996 13.3008C17.5996 8.88961 14.0108 5.30078 9.59961 5.30078ZM9.59961 6.50078C13.3623 6.50078 16.3996 9.53814 16.3996 13.3008C16.3996 17.0634 13.3623 20.1008 9.59961 20.1008C5.83696 20.1008 2.79961 17.0634 2.79961 13.3008C2.79961 9.53814 5.83696 6.50078 9.59961 6.50078ZM9.59023 8.89219C9.43124 8.89467 9.27973 8.96016 9.16899 9.07427C9.05825 9.18838 8.99733 9.34178 8.99961 9.50078V14.3008C8.99849 14.3803 9.01317 14.4592 9.04282 14.533C9.07247 14.6068 9.11649 14.6739 9.17231 14.7306C9.22814 14.7872 9.29466 14.8321 9.36802 14.8628C9.44137 14.8935 9.52009 14.9093 9.59961 14.9093C9.67912 14.9093 9.75785 14.8935 9.8312 14.8628C9.90456 14.8321 9.97108 14.7872 10.0269 14.7306C10.0827 14.6739 10.1267 14.6068 10.1564 14.533C10.186 14.4592 10.2007 14.3803 10.1996 14.3008V9.50078C10.2008 9.42048 10.1858 9.34075 10.1556 9.26634C10.1253 9.19194 10.0805 9.12435 10.0236 9.0676C9.96682 9.01084 9.89918 8.96607 9.82473 8.93594C9.75028 8.90581 9.67054 8.89093 9.59023 8.89219ZM9.59961 16.1008C9.38744 16.1008 9.18395 16.1851 9.03392 16.3351C8.88389 16.4851 8.79961 16.6886 8.79961 16.9008C8.79961 17.113 8.88389 17.3164 9.03392 17.4665C9.18395 17.6165 9.38744 17.7008 9.59961 17.7008C9.81178 17.7008 10.0153 17.6165 10.1653 17.4665C10.3153 17.3164 10.3996 17.113 10.3996 16.9008C10.3996 16.6886 10.3153 16.4851 10.1653 16.3351C10.0153 16.1851 9.81178 16.1008 9.59961 16.1008Z" fill="#F65800"/>
</svg>
