<svg width="196" height="189" viewBox="0 0 196 189" fill="none" xmlns="http://www.w3.org/2000/svg">
<g opacity="0.3">
<path d="M147.25 75C147.25 93.3635 132.363 108.25 114 108.25C95.6365 108.25 80.75 93.3635 80.75 75C80.75 56.6365 95.6365 41.75 114 41.75C132.363 41.75 147.25 56.6365 147.25 75Z" stroke="#016A70" stroke-width="1.5"/>
<path d="M199.604 94.9168C204.563 93.5801 207.042 92.9113 208.021 91.6326C209 90.3549 209 88.2981 209 84.1856V65.8154C209 61.7029 209 59.6461 208.021 58.3684C207.041 57.0897 204.563 56.4209 199.604 55.084C181.076 50.0871 169.479 30.7159 174.261 12.3083C175.576 7.24593 176.234 4.71484 175.606 3.23028C174.978 1.74571 173.176 0.722753 169.572 -1.32336L153.188 -10.626C149.652 -12.6338 147.884 -13.6376 146.297 -13.4239C144.71 -13.2101 142.92 -11.424 139.338 -7.85204C125.476 5.97758 102.539 5.97701 88.6762 -7.8529C85.0956 -11.425 83.3053 -13.211 81.7183 -13.4248C80.1315 -13.6386 78.3633 -12.6347 74.827 -10.627L58.4425 -1.32421C54.839 0.721707 53.0373 1.74467 52.4094 3.22895C51.7815 4.71332 52.4388 7.24479 53.7534 12.3076C58.533 30.7158 46.9273 50.0875 28.3957 55.0842C23.4376 56.4209 20.9586 57.0897 19.9793 58.3674C19 59.6461 19 61.7029 19 65.8154V84.1856C19 88.2981 19 90.3549 19.9793 91.6326C20.9584 92.9113 23.4375 93.5801 28.3957 94.9168C46.9243 99.9138 58.5208 119.285 53.7388 137.692C52.4238 142.755 51.7662 145.286 52.394 146.771C53.022 148.255 54.8237 149.279 58.4274 151.324L74.812 160.627C78.3485 162.635 80.1167 163.639 81.7038 163.425C83.2909 163.211 85.0809 161.424 88.6607 157.852C102.531 144.012 125.484 144.011 139.355 157.851C142.934 161.424 144.724 163.21 146.311 163.424C147.898 163.638 149.667 162.634 153.203 160.626L169.587 151.323C173.192 149.278 174.994 148.255 175.621 146.77C176.249 145.285 175.591 142.754 174.276 137.691C169.491 119.285 181.079 99.9147 199.604 94.9168Z" stroke="#016A70" stroke-width="1.5" stroke-linecap="round"/>
</g>
</svg>
