<svg width="144" height="144" viewBox="0 0 144 144" fill="none" xmlns="http://www.w3.org/2000/svg">
<path d="M33.0481 93.8731C30.5544 88.3241 29.1641 82.1508 29.1641 75.6454C29.1641 51.4846 48.3421 31.8984 71.9995 31.8984C95.6572 31.8984 114.835 51.4846 114.835 75.6454C114.835 82.1508 113.444 88.3241 110.951 93.8731" stroke="#776B5D" stroke-width="4.5" stroke-linecap="round"/>
<path d="M72 8.20312V14.5829" stroke="#776B5D" stroke-width="4.5" stroke-linecap="round" stroke-linejoin="round"/>
<path d="M137.622 74.7344H131.242" stroke="#776B5D" stroke-width="4.5" stroke-linecap="round" stroke-linejoin="round"/>
<path d="M12.7587 74.7344H6.37891" stroke="#776B5D" stroke-width="4.5" stroke-linecap="round" stroke-linejoin="round"/>
<path d="M118.483 27.3398L113.926 31.8968" stroke="#776B5D" stroke-width="4.5" stroke-linecap="round" stroke-linejoin="round"/>
<path d="M30.0765 31.8968L25.5195 27.3398" stroke="#776B5D" stroke-width="4.5" stroke-linecap="round" stroke-linejoin="round"/>
<path d="M88.3824 122.566C95.0057 120.409 97.6618 114.304 98.409 108.164C98.6319 106.33 97.1334 104.809 95.298 104.809L48.7889 104.81C46.8906 104.81 45.366 106.432 45.5927 108.33C46.3246 114.458 48.1718 118.935 55.1906 122.566M88.3824 122.566C88.3824 122.566 56.346 122.566 55.1906 122.566M88.3824 122.566C87.586 135.404 83.904 140.489 71.9279 140.346C59.1181 140.585 56.1711 134.3 55.1906 122.566" stroke="#776B5D" stroke-width="4.5" stroke-linecap="round" stroke-linejoin="round"/>
<path d="M72 104.809V74.7326" stroke="#776B5D" stroke-width="4.5" stroke-linecap="round"/>
</svg>
