<svg width="1002" height="1080" viewBox="0 0 1002 1080" fill="none" xmlns="http://www.w3.org/2000/svg">
<path d="M416.021 -62.6354L229.641 104.224L577.558 -25.3646L416.021 -62.6354ZM216.975 111.87L415.245 -65.6406L415.943 -65.474L587.089 -25.9896L582.808 -24.3854L216.975 111.87Z" fill="#3F2305"/>
<path d="M587.657 -25.043L830.574 70.707L773.834 -51.6419L587.657 -25.043ZM835.964 75.7747L832.766 74.5195L576.99 -26.2982L775.475 -54.6523L835.964 75.7747Z" fill="#3F2305"/>
<path d="M486.692 1074.39L624.374 1143.24L765.598 1054.97L486.692 1074.39ZM624.531 1146.38L476.463 1072.35L776.39 1051.46L624.531 1146.38Z" fill="#3F2305"/>
<path d="M333.105 1015.82L405.021 1124.56L478.688 1073.69L333.105 1015.82ZM404.277 1128.41L403.506 1127.24L325.99 1010.03L484.469 1073.04L404.277 1128.41Z" fill="#3F2305"/>
<path d="M155.359 921.098L222.151 1040.62L325.849 1012.49L155.359 921.098ZM220.797 1043.83L148.375 914.238L333.24 1013.34L220.797 1043.83Z" fill="#3F2305"/>
<path d="M50.8125 854.712L149.156 914.41L75.401 721.243L50.8125 854.712ZM154.578 920.915L47.7656 856.072L74.474 711.113L154.578 920.915Z" fill="#3F2305"/>
<path d="M-29.6243 606.042L73.0684 712.271L42.959 469.714L-29.6243 606.042ZM76.8027 720.089L-32.9941 606.51L-32.5202 605.63L44.6257 460.75L76.8027 720.089Z" fill="#3F2305"/>
<path d="M-11.3757 335.434L43.1556 460.35L78.3431 233.382L-11.3757 335.434ZM44.4264 470.116L-14.5996 334.923L-14.0267 334.277L82.5046 224.496L44.4264 470.116Z" fill="#3F2305"/>
<path d="M123.536 113.048L83.4577 224.579L219.385 109.564L123.536 113.048ZM77.4004 233.298L121.583 110.366L227.229 106.527L77.4004 233.298Z" fill="#3F2305"/>
<path d="M583.876 -23.5846L592.74 84.6185L826.891 72.207L583.876 -23.5846ZM590.225 87.5091L580.771 -27.7617L839.646 74.2747L590.225 87.5091Z" fill="#3F2305"/>
<path d="M226.494 109.234L342.593 221.745L585.494 87.7969L226.494 109.234ZM342.135 225.135L341.411 224.432L220.104 106.854L223.223 106.677L597.473 84.3281L342.135 225.135Z" fill="#3F2305"/>
<path d="M81.6087 230.286L45.6973 461.927L338.385 224.896L81.6087 230.286ZM41.8848 468.536L79.2494 227.589L346.354 221.984L41.8848 468.536Z" fill="#3F2305"/>
<path d="M45.39 466.975L75.7025 711.147L173.729 493.704L45.39 466.975ZM74.1764 721.215L42.1973 463.496L177.64 491.715L176.937 493.277L74.1764 721.215Z" fill="#3F2305"/>
<path d="M342.282 226.189L179.98 488.387L406.49 345.689L342.282 226.189ZM171.381 497.043L342.454 220.699L410.131 346.647L409.042 347.329L171.381 497.043Z" fill="#3F2305"/>
<path d="M596.469 87.1719L815.667 204.797L831.709 74.6927L596.469 87.1719ZM817.907 209.115L816.136 208.167L586.506 84.9479L834.834 71.7812L834.636 73.4167L817.907 209.115Z" fill="#3F2305"/>
<path d="M77.0729 717.922L152.135 914.505L250.422 746.521L77.0729 717.922ZM151.599 920.839L72.7969 714.438L75.1615 714.828L254.807 744.453L253.802 746.188L151.599 920.839Z" fill="#3F2305"/>
<path d="M163.531 918.632C163.531 924.194 159.016 928.699 153.453 928.699C147.891 928.699 143.391 924.194 143.391 918.632C143.391 913.069 147.891 908.559 153.453 908.559C159.016 908.559 163.531 913.069 163.531 918.632Z" fill="#3F2305"/>
<path d="M779.609 1053.79C779.609 1059.35 775.099 1063.86 769.536 1063.86C763.974 1063.86 759.469 1059.35 759.469 1053.79C759.469 1048.23 763.974 1043.72 769.536 1043.72C775.099 1043.72 779.609 1048.23 779.609 1053.79Z" fill="#3F2305"/>
<path d="M183.959 492.719C183.959 498.281 179.449 502.781 173.886 502.781C168.324 502.781 163.818 498.281 163.818 492.719C163.818 487.156 168.324 482.641 173.886 482.641C179.449 482.641 183.959 487.156 183.959 492.719Z" fill="#3F2305"/>
<path d="M235.817 107.661C235.817 113.224 231.312 117.734 225.749 117.734C220.187 117.734 215.682 113.224 215.682 107.661C215.682 102.099 220.187 97.5938 225.749 97.5938C231.312 97.5938 235.817 102.099 235.817 107.661Z" fill="#3F2305"/>
<path d="M843.406 74.6576C843.406 80.2148 838.891 84.7305 833.339 84.7305C827.776 84.7305 823.266 80.2148 823.266 74.6576C823.266 69.1003 827.776 64.5898 833.339 64.5898C838.891 64.5898 843.406 69.1003 843.406 74.6576Z" fill="#3F2305"/>
<path d="M51.9375 465.993C51.9375 471.556 47.4323 476.066 41.8698 476.066C36.3073 476.066 31.7969 471.556 31.7969 465.993C31.7969 460.431 36.3073 455.926 41.8698 455.926C47.4323 455.926 51.9375 460.431 51.9375 465.993Z" fill="#3F2305"/>
<path d="M91.224 228.684C91.224 234.246 86.724 238.746 81.1615 238.746C75.599 238.746 71.0938 234.246 71.0938 228.684C71.0938 223.121 75.599 218.605 81.1615 218.605C86.724 218.605 91.224 223.121 91.224 228.684Z" fill="#3F2305"/>
<path d="M264.115 748.254C264.115 753.816 259.6 758.316 254.037 758.316C248.475 758.316 243.975 753.816 243.975 748.254C243.975 742.691 248.475 738.176 254.037 738.176C259.6 738.176 264.115 742.691 264.115 748.254Z" fill="#3F2305"/>
<path d="M83.375 715.885C83.375 721.448 78.8594 725.953 73.2969 725.953C67.7396 725.953 63.2344 721.448 63.2344 715.885C63.2344 710.323 67.7396 705.812 73.2969 705.812C78.8594 705.812 83.375 710.323 83.375 715.885Z" fill="#3F2305"/>
<path d="M495.146 1069.51C495.146 1075.07 490.631 1079.57 485.068 1079.57C479.506 1079.57 475.006 1075.07 475.006 1069.51C475.006 1063.94 479.506 1059.44 485.068 1059.44C490.631 1059.44 495.146 1063.94 495.146 1069.51Z" fill="#3F2305"/>
<path d="M831.641 201.96C831.641 210.22 824.948 216.918 816.682 216.918C808.432 216.918 801.734 210.22 801.734 201.96C801.734 193.704 808.432 187.012 816.682 187.012C824.948 187.012 831.641 193.704 831.641 201.96Z" fill="#3F2305"/>
<path d="M357.011 223.962C357.011 232.223 350.308 238.915 342.053 238.915C333.792 238.915 327.1 232.223 327.1 223.962C327.1 215.707 333.792 209.004 342.053 209.004C350.308 209.004 357.011 215.707 357.011 223.962Z" fill="#3F2305"/>
<path d="M602.178 88.806C602.178 97.056 595.49 103.754 587.23 103.754C578.969 103.754 572.271 97.056 572.271 88.806C572.271 80.5456 578.969 73.8477 587.23 73.8477C595.49 73.8477 602.178 80.5456 602.178 88.806Z" fill="#3F2305"/>
<path d="M808.568 0.694012L968.141 63.8659L778.651 -49.1654L808.568 0.694012ZM982.969 72.6836L806.693 2.90755L770.656 -57.1289L984.172 70.2253L982.969 72.6836Z" fill="#3F2305"/>
<path d="M411.864 -60.2812L132.197 107.521L352.437 44.6042L411.864 -60.2812ZM112.916 115.891L419.4 -68L354.275 46.9323L353.734 47.0885L112.916 115.891Z" fill="#3F2305"/>
<path d="M121.187 116.62L-6.80794 327.63L121.187 210.016V116.62ZM-19.1777 342.729L123.926 106.797V211.219L123.484 211.63L-19.1777 342.729Z" fill="#3F2305"/>
<path d="M-11.959 340.311L-28.8913 590.967L18.5202 401.28L-11.959 340.311ZM-29.9746 606.608L-32.6777 606.186L-14.0267 330.051L21.4421 400.957L-29.9746 606.608Z" fill="#3F2305"/>
<path d="M-28.8431 609.439L48.209 847.59L55.2194 661.97L-28.8431 609.439ZM50.3757 863.194L-33.7754 603.121L58.0215 660.486L57.9902 661.283L50.3757 863.194Z" fill="#3F2305"/>
<path d="M54.6198 859.141L217.677 1036.09L169.109 907.719L54.6198 859.141ZM225.266 1048.37L43.9688 851.641L171.26 905.651L171.469 906.203L225.266 1048.37Z" fill="#3F2305"/>
<path d="M731.23 1036.32L629.376 1141.69L899.829 1050.38L731.23 1036.32ZM619.537 1147.92L730.162 1033.48L730.813 1033.53L913.266 1048.74L619.537 1147.92Z" fill="#3F2305"/>
<path d="M228.673 1044.03L400.214 1122.93L345.318 1050.88L228.673 1044.03ZM409.084 1130.04L214.271 1040.43L346.745 1048.21L347.126 1048.73L409.084 1130.04Z" fill="#3F2305"/>
<path d="M578.942 -7.54557L763.036 95.1315L805.525 3.07943L578.942 -7.54557ZM764.291 98.9805L567.4 -10.832L809.734 0.527344L764.291 98.9805Z" fill="#3F2305"/>
<path d="M361.865 45.0508L539.355 58.9727L570.683 -7.15234L361.865 45.0508ZM541.032 61.8633L540.089 61.7904L344.85 46.4727L575.652 -11.2305L541.032 61.8633Z" fill="#3F2305"/>
<path d="M352.036 48.4023L127.573 208.73L354.703 185.569L352.036 48.4023ZM117.547 212.512L354.677 43.1367L357.495 188.053L356.245 188.178L117.547 212.512Z" fill="#3F2305"/>
<path d="M122.843 212.995L23.916 396.708L186.437 283.646L122.843 212.995ZM16.041 405.531L122.281 208.25L190.572 284.13L16.041 405.531Z" fill="#3F2305"/>
<path d="M358.656 186.724L538.823 292.484V63.026L358.656 186.724ZM541.562 297.281L539.495 296.068L353.547 186.896L355.328 185.682L541.562 57.8125V297.281Z" fill="#3F2305"/>
<path d="M541.562 62.0352V291.832L760.593 97.9466L541.562 62.0352ZM538.822 297.931V58.8008L766.744 96.1654L764.577 98.082L538.822 297.931Z" fill="#3F2305"/>
<path d="M765.531 96.2865L981.661 177.781L808.051 4.16146L765.531 96.2865ZM992.614 184.844L761.807 97.8229L762.421 96.4792L807.208 -0.5625L992.614 184.844Z" fill="#3F2305"/>
<path d="M193.354 282.66L534.854 293.342L356.099 188.395L193.354 282.66ZM545.536 296.421L183.656 285.113L356.109 185.223L356.797 185.624L545.536 296.421Z" fill="#3F2305"/>
<path d="M22.1152 401.311L194.376 573.561L187.193 286.478L22.1152 401.311ZM197.292 580.368L17.8496 400.926L189.818 281.301L189.876 283.853L197.292 580.368Z" fill="#3F2305"/>
<path d="M21.9069 404.996L57.6882 658.975L193.615 576.704L21.9069 404.996ZM55.5475 663.48L18.0527 397.246L198.048 577.236L55.5475 663.48Z" fill="#3F2305"/>
<path d="M58.3848 661.771L169.223 901.333L194.255 579.526L58.3848 661.771ZM171.14 912.036L54.8535 660.688L55.9056 660.052L197.406 574.406L197.197 577.073L171.14 912.036Z" fill="#3F2305"/>
<path d="M173.521 907.618L345.755 1047.55L471.333 868.155L173.521 907.618ZM346.302 1051.56L345.161 1050.62L166.844 905.738L477.177 864.613L475.38 867.171L346.302 1051.56Z" fill="#3F2305"/>
<path d="M348.338 1048.66L527.343 1088.04L473.65 869.65L348.338 1048.66ZM531.072 1091.67L343.729 1050.45L474.864 863.113L531.072 1091.67Z" fill="#3F2305"/>
<path d="M375.583 184.147C375.583 194.569 367.135 203.012 356.724 203.012C346.302 203.012 337.859 194.569 337.859 184.147C337.859 173.736 346.302 165.293 356.724 165.293C367.135 165.293 375.583 173.736 375.583 184.147Z" fill="#3F2305"/>
<path d="M369.578 47.9427C369.578 56.2031 362.885 62.8906 354.62 62.8906C346.37 62.8906 339.672 56.2031 339.672 47.9427C339.672 39.6771 346.37 32.9844 354.62 32.9844C362.885 32.9844 369.578 39.6771 369.578 47.9427Z" fill="#3F2305"/>
<mask id="mask0_7595_10516" style="mask-type:luminance" maskUnits="userSpaceOnUse" x="964" y="157" width="38" height="41">
<path d="M964 157.965H1002V197.965H964V157.965Z" fill="white"/>
</mask>
<g mask="url(#mask0_7595_10516)">
<path d="M1002.14 177.865C1002.14 188.276 993.697 196.724 983.281 196.724C972.869 196.724 964.416 188.276 964.416 177.865C964.416 167.443 972.869 159 983.281 159C993.697 159 1002.14 167.443 1002.14 177.865Z" fill="#3F2305"/>
</g>
<path d="M205.839 284.728C205.839 295.15 197.396 303.592 186.984 303.592C176.568 303.592 168.125 295.15 168.125 284.728C168.125 274.316 176.568 265.879 186.984 265.879C197.396 265.879 205.839 274.316 205.839 284.728Z" fill="#3F2305"/>
<path d="M557.89 62.6094C557.89 73.0208 549.447 81.474 539.025 81.474C528.609 81.474 520.166 73.0208 520.166 62.6094C520.166 52.1927 528.609 43.75 539.025 43.75C549.447 43.75 557.89 52.1927 557.89 62.6094Z" fill="#3F2305"/>
<path d="M782.109 100.322C782.109 110.743 773.672 119.186 763.25 119.186C752.839 119.186 744.391 110.743 744.391 100.322C744.391 89.9102 752.839 81.4727 763.25 81.4727C773.672 81.4727 782.109 89.9102 782.109 100.322Z" fill="#3F2305"/>
<path d="M822.204 3.93359C822.204 12.194 815.521 18.8919 807.256 18.8919C798.995 18.8919 792.303 12.194 792.303 3.93359C792.303 -4.32682 798.995 -11.0195 807.256 -11.0195C815.521 -11.0195 822.204 -4.32682 822.204 3.93359Z" fill="#3F2305"/>
<path d="M587.229 -8.63542C587.229 -0.380207 580.531 6.3125 572.27 6.3125C564.02 6.3125 557.322 -0.380207 557.322 -8.63542C557.322 -16.8958 564.02 -23.5938 572.27 -23.5938C580.531 -23.5938 587.229 -16.8958 587.229 -8.63542Z" fill="#3F2305"/>
<path d="M136.975 114.995C136.975 123.255 130.277 129.948 122.027 129.948C113.761 129.948 107.068 123.255 107.068 114.995C107.068 106.74 113.761 100.047 122.027 100.047C130.277 100.047 136.975 106.74 136.975 114.995Z" fill="#3F2305"/>
<path d="M141.166 213.484C141.166 221.745 134.468 228.443 126.218 228.443C117.952 228.443 111.26 221.745 111.26 213.484C111.26 205.224 117.952 198.531 126.218 198.531C134.468 198.531 141.166 205.224 141.166 213.484Z" fill="#3F2305"/>
<path d="M38.4896 402.082C38.4896 410.337 31.7969 417.03 23.5312 417.03C15.2708 417.03 8.57812 410.337 8.57812 402.082C8.57812 393.822 15.2708 387.129 23.5312 387.129C31.7969 387.129 38.4896 393.822 38.4896 402.082Z" fill="#3F2305"/>
<path d="M65.7285 852.618C65.7285 860.879 59.0306 867.572 50.7702 867.572C42.515 867.572 35.8223 860.879 35.8223 852.618C35.8223 844.358 42.515 837.66 50.7702 837.66C59.0306 837.66 65.7285 844.358 65.7285 852.618Z" fill="#3F2305"/>
<path d="M231.27 1045.41C231.27 1053.66 224.577 1060.36 216.322 1060.36C208.062 1060.36 201.369 1053.66 201.369 1045.41C201.369 1037.15 208.062 1030.45 216.322 1030.45C224.577 1030.45 231.27 1037.15 231.27 1045.41Z" fill="#3F2305"/>
<path d="M928.797 1047.5C928.797 1055.76 922.099 1062.46 913.849 1062.46C905.583 1062.46 898.891 1055.76 898.891 1047.5C898.891 1039.24 905.583 1032.55 913.849 1032.55C922.099 1032.55 928.797 1039.24 928.797 1047.5Z" fill="#3F2305"/>
<path d="M995.855 70.9935C995.855 79.2487 989.162 85.9414 980.902 85.9414C972.641 85.9414 965.943 79.2487 965.943 70.9935C965.943 62.7331 972.641 56.0352 980.902 56.0352C989.162 56.0352 995.855 62.7331 995.855 70.9935Z" fill="#3F2305"/>
<path d="M361.192 1043.31C361.192 1051.57 354.499 1058.27 346.244 1058.27C337.984 1058.27 331.291 1051.57 331.291 1043.31C331.291 1035.06 337.984 1028.36 346.244 1028.36C354.499 1028.36 361.192 1035.06 361.192 1043.31Z" fill="#3F2305"/>
<path d="M2.86458 335.022C2.86458 343.288 -3.83854 349.98 -12.0885 349.98C-20.3542 349.98 -27.0469 343.288 -27.0469 335.022C-27.0469 326.772 -20.3542 320.074 -12.0885 320.074C-3.83854 320.074 2.86458 326.772 2.86458 335.022Z" fill="#3F2305"/>
<path d="M490.839 865.197C490.839 875.608 482.386 884.051 471.975 884.051C461.558 884.051 453.115 875.608 453.115 865.197C453.115 854.775 461.558 846.332 471.975 846.332C482.386 846.332 490.839 854.775 490.839 865.197Z" fill="#3F2305"/>
<path d="M549.505 1085.22C549.505 1095.63 541.062 1104.08 530.65 1104.08C520.234 1104.08 511.791 1095.63 511.791 1085.22C511.791 1074.81 520.234 1066.36 530.65 1066.36C541.062 1066.36 549.505 1074.81 549.505 1085.22Z" fill="#3F2305"/>
<path d="M752.771 1030.74C752.771 1041.15 744.334 1049.6 733.912 1049.6C723.501 1049.6 715.053 1041.15 715.053 1030.74C715.053 1020.32 723.501 1011.88 733.912 1011.88C744.334 1011.88 752.771 1020.32 752.771 1030.74Z" fill="#3F2305"/>
<path d="M71.7337 657.734C71.7337 668.156 63.2806 676.599 52.8691 676.599C42.4525 676.599 34.0098 668.156 34.0098 657.734C34.0098 647.323 42.4525 638.875 52.8691 638.875C63.2806 638.875 71.7337 647.323 71.7337 657.734Z" fill="#3F2305"/>
<path d="M186.984 905.007C186.984 915.423 178.536 923.866 168.124 923.866C157.702 923.866 149.26 915.423 149.26 905.007C149.26 894.595 157.702 886.152 168.124 886.152C178.536 886.152 186.984 894.595 186.984 905.007Z" fill="#3F2305"/>
<path d="M561.51 295.207C561.51 309.941 549.572 321.884 534.838 321.884C520.109 321.884 508.166 309.941 508.166 295.207C508.166 280.478 520.109 268.535 534.838 268.535C549.572 268.535 561.51 280.478 561.51 295.207Z" fill="#3F2305"/>
<path d="M219.943 578.105C219.943 592.84 208.006 604.777 193.271 604.777C178.537 604.777 166.6 592.84 166.6 578.105C166.6 563.371 178.537 551.434 193.271 551.434C208.006 551.434 219.943 563.371 219.943 578.105Z" fill="#3F2305"/>
</svg>
