<svg width="389" height="379" viewBox="0 0 389 379" fill="none" xmlns="http://www.w3.org/2000/svg">
<path d="M11.7293 218.376C11.7241 218.694 11.7449 219.007 11.7814 219.319C11.8178 219.637 11.8751 219.944 11.9533 220.251C12.0262 220.559 12.1199 220.856 12.2345 221.152C12.3439 221.449 12.4741 221.736 12.6199 222.012C12.7658 222.293 12.9272 222.564 13.1095 222.824C13.2866 223.079 13.4793 223.329 13.6928 223.564C13.9012 223.803 14.1251 224.022 14.3595 224.231C14.5939 224.444 14.8439 224.637 15.1043 224.814C15.3647 224.991 15.6303 225.158 15.9116 225.303C16.1928 225.449 16.4793 225.574 16.7762 225.689C17.0678 225.798 17.3699 225.892 17.6772 225.965C17.9845 226.043 18.2918 226.095 18.6043 226.132C18.922 226.173 19.2345 226.189 19.547 226.189C19.8647 226.189 20.1772 226.168 20.4897 226.126C20.8074 226.09 21.1147 226.033 21.422 225.954C21.7241 225.876 22.0262 225.783 22.3231 225.668C22.6147 225.553 22.9012 225.423 23.1824 225.277C23.4585 225.132 23.7293 224.965 23.9845 224.783C24.2449 224.606 24.4897 224.408 24.7241 224.199C24.9637 223.986 25.1824 223.762 25.3908 223.527C25.5991 223.288 25.7918 223.038 25.9689 222.777C26.146 222.517 26.3074 222.246 26.4533 221.965C26.5939 221.689 26.7241 221.397 26.8335 221.106C26.9428 220.809 27.0314 220.507 27.1095 220.199C27.1824 219.892 27.2345 219.585 27.271 219.267C27.3074 218.954 27.3231 218.642 27.3179 218.324C27.3179 218.012 27.297 217.694 27.2554 217.382C27.2137 217.069 27.1564 216.762 27.0783 216.454C26.9949 216.152 26.9012 215.85 26.7866 215.559C26.672 215.262 26.5418 214.975 26.3908 214.699C26.2397 214.423 26.0731 214.152 25.896 213.897C25.7137 213.637 25.5158 213.392 25.3022 213.158L69.9481 164.882C70.2033 165.079 70.4741 165.262 70.7554 165.428C71.0314 165.595 71.3231 165.741 71.6199 165.871C71.922 166.001 72.2241 166.111 72.5366 166.204C72.8491 166.293 73.1668 166.366 73.4897 166.418C73.8126 166.465 74.1356 166.496 74.4585 166.507C74.7866 166.517 75.1095 166.512 75.4324 166.48C75.7606 166.449 76.0783 166.397 76.396 166.329C76.7137 166.257 77.0262 166.168 77.3335 166.059C77.6408 165.949 77.9376 165.819 78.2293 165.673C78.521 165.527 78.797 165.361 79.0679 165.178C79.3387 164.996 79.5939 164.798 79.8387 164.585C80.0835 164.366 80.3126 164.137 80.5314 163.897C80.7449 163.652 80.9481 163.397 81.1304 163.126C81.3126 162.855 81.4793 162.579 81.6304 162.288C81.7762 162.001 81.9064 161.699 82.021 161.397C82.1304 161.09 82.2241 160.777 82.2918 160.46L181.167 173.949C181.167 174.069 181.167 174.189 181.167 174.309C181.167 174.809 181.214 175.303 181.313 175.798C181.406 176.293 181.552 176.772 181.74 177.236C181.927 177.699 182.162 178.142 182.432 178.564C182.708 178.986 183.021 179.376 183.37 179.736C183.719 180.095 184.099 180.418 184.511 180.704C184.922 180.991 185.36 181.236 185.818 181.439C186.276 181.642 186.755 181.798 187.245 181.913C187.735 182.022 188.229 182.085 188.729 182.1C189.235 182.116 189.729 182.079 190.224 182.001C190.724 181.918 191.203 181.793 191.677 181.616C192.146 181.444 192.594 181.225 193.026 180.965C193.453 180.699 193.854 180.402 194.224 180.064C194.594 179.725 194.927 179.35 195.229 178.949C195.526 178.548 195.787 178.116 196 177.663C196.219 177.21 196.386 176.741 196.516 176.257C196.641 175.772 196.719 175.277 196.745 174.777C196.776 174.272 196.761 173.772 196.693 173.277C196.625 172.777 196.511 172.293 196.354 171.814C196.193 171.34 195.99 170.887 195.74 170.449C195.49 170.012 195.203 169.605 194.875 169.225C194.547 168.84 194.188 168.496 193.792 168.184C193.401 167.876 192.979 167.605 192.531 167.376C192.083 167.147 191.62 166.96 191.141 166.819C190.656 166.678 190.167 166.585 189.667 166.543V50.5326C190.964 50.418 192.162 50.0013 193.25 49.2826C194.344 48.569 195.198 47.6368 195.823 46.4909L281.875 83.4128C281.703 83.9493 281.589 84.4961 281.537 85.0534C281.479 85.6159 281.485 86.1732 281.552 86.7357C281.62 87.293 281.745 87.8399 281.932 88.3711C282.115 88.9024 282.354 89.4076 282.651 89.8868C282.943 90.3659 283.287 90.8086 283.677 91.2149C284.068 91.6211 284.495 91.9805 284.964 92.293C285.432 92.6055 285.927 92.8607 286.453 93.069C286.974 93.2722 287.516 93.418 288.073 93.5065C288.63 93.5951 289.188 93.6263 289.75 93.5899C290.313 93.5586 290.865 93.4649 291.406 93.3138C291.948 93.1628 292.464 92.9545 292.964 92.6888C293.458 92.4232 293.922 92.1107 294.349 91.7461C294.776 91.3763 295.162 90.9701 295.505 90.5222C295.844 90.0743 296.13 89.5951 296.37 89.0847C296.604 88.5743 296.787 88.043 296.906 87.4961C297.026 86.944 297.089 86.392 297.089 85.8295C297.094 84.5586 296.797 83.3659 296.208 82.2461L375 31.9545C375.375 32.4336 375.802 32.8659 376.276 33.2513C376.755 33.6315 377.271 33.9545 377.823 34.2149C378.375 34.4753 378.948 34.6732 379.547 34.7982C380.141 34.9232 380.745 34.9805 381.359 34.9649C381.969 34.9493 382.568 34.8607 383.162 34.7045C383.75 34.5482 384.313 34.3243 384.854 34.0378C385.391 33.7461 385.886 33.3972 386.344 32.9909C386.797 32.5899 387.203 32.1315 387.552 31.6315C387.901 31.1315 388.188 30.5951 388.412 30.0274C388.636 29.4597 388.792 28.8763 388.875 28.2722C388.964 27.6628 388.979 27.0586 388.922 26.4493C388.865 25.8399 388.74 25.2461 388.542 24.668C388.349 24.0899 388.089 23.543 387.761 23.0274C387.438 22.5065 387.057 22.0378 386.62 21.6055C386.188 21.1784 385.708 20.8086 385.182 20.4909C384.662 20.1784 384.109 19.9284 383.526 19.7409C382.943 19.5586 382.349 19.4388 381.74 19.3972C381.13 19.3503 380.526 19.3763 379.922 19.4701C379.318 19.569 378.734 19.7357 378.172 19.9701C377.604 20.2045 377.078 20.5013 376.583 20.8607C376.089 21.2149 375.641 21.6263 375.245 22.0899C374.844 22.5534 374.505 23.0586 374.229 23.6003C373.948 24.142 373.734 24.7097 373.589 25.3034C373.443 25.8972 373.37 26.5013 373.365 27.1107L196.62 41.4076C196.469 40.5118 196.167 39.6628 195.719 38.8711C195.271 38.0743 194.698 37.3815 194.005 36.7878C193.313 36.194 192.537 35.7357 191.682 35.418C190.828 35.0951 189.943 34.9284 189.031 34.918C188.12 34.9076 187.229 35.0534 186.37 35.3555C185.511 35.6576 184.724 36.1003 184.016 36.6732C183.313 37.2513 182.724 37.9336 182.255 38.7149C181.792 39.5013 181.469 40.3399 181.297 41.2357L42.9012 27.2201C42.9012 27.2201 42.9012 27.1628 42.9012 27.142C42.9012 26.6524 42.8543 26.1628 42.7658 25.6784C42.672 25.194 42.5366 24.7201 42.3543 24.2618C42.172 23.8034 41.9481 23.3659 41.6876 22.9545C41.422 22.5378 41.1199 22.1472 40.7814 21.7878C40.4428 21.4284 40.0783 21.1055 39.6772 20.819C39.2762 20.5274 38.8543 20.2774 38.4064 20.069C37.9637 19.8607 37.5001 19.6993 37.021 19.5743C36.5418 19.4545 36.0574 19.3815 35.5678 19.3503C35.0731 19.319 34.5835 19.3399 34.0939 19.4024C33.6095 19.4649 33.1304 19.5743 32.6616 19.7305C32.1929 19.8868 31.7449 20.0795 31.3126 20.3243C30.8804 20.5638 30.4793 20.8399 30.0991 21.1576C29.7241 21.4701 29.3751 21.8243 29.0679 22.2045C28.7554 22.5847 28.4793 22.9909 28.2449 23.4284C28.0106 23.8607 27.8231 24.3138 27.672 24.7826C27.521 25.2513 27.422 25.7305 27.3647 26.2201C27.3074 26.7097 27.2918 27.1993 27.3283 27.694C27.3647 28.1836 27.4481 28.668 27.5731 29.1472C27.6981 29.6211 27.8699 30.0795 28.0835 30.5274C28.3022 30.9701 28.5522 31.3868 28.8491 31.7826C29.1408 32.1784 29.4689 32.543 29.8335 32.8763C30.1981 33.2097 30.5887 33.5065 31.0054 33.767C31.4272 34.0274 31.8647 34.2409 32.3283 34.418C32.7866 34.5951 33.2606 34.7253 33.7449 34.8086C31.1043 65.9649 21.5158 179.309 19.2762 210.579C18.7762 210.595 18.2762 210.663 17.7866 210.772C17.297 210.882 16.8231 211.038 16.3647 211.241C15.9064 211.444 15.4741 211.689 15.0574 211.975C14.646 212.262 14.2658 212.59 13.9168 212.949C13.5678 213.309 13.2606 213.699 12.9845 214.121C12.7137 214.543 12.4793 214.986 12.2918 215.449C12.1043 215.913 11.9637 216.392 11.8699 216.887C11.771 217.382 11.7241 217.876 11.7293 218.376ZM188.24 50.5326V166.501C186.771 166.637 185.443 167.152 184.261 168.043L114.656 91.0795C114.974 90.7357 115.261 90.3659 115.511 89.9701C115.766 89.5743 115.979 89.1576 116.156 88.7253C116.333 88.293 116.474 87.8451 116.568 87.3868C116.667 86.9284 116.719 86.4649 116.735 85.9909C116.745 85.5222 116.719 85.0586 116.646 84.5951C116.573 84.1315 116.458 83.6784 116.307 83.2357C116.156 82.793 115.964 82.3659 115.729 81.9545C115.5 81.5482 115.235 81.1628 114.938 80.8034L182.333 46.8451C182.969 47.892 183.807 48.7409 184.849 49.392C185.891 50.0378 187.021 50.4232 188.24 50.5326ZM104.13 91.9649L77.2606 151.402C76.4324 151.111 75.5783 150.96 74.7033 150.96C74.4897 150.949 74.2762 150.949 74.0679 150.96L38.0731 34.4024C39.0939 33.9805 39.9897 33.3711 40.7553 32.569L102.427 81.5586C102.162 81.9597 101.932 82.3868 101.745 82.8347C101.557 83.2826 101.412 83.7409 101.313 84.2201C101.214 84.694 101.156 85.1732 101.146 85.6576C101.13 86.142 101.167 86.6211 101.245 87.1003C101.323 87.5795 101.448 88.0482 101.615 88.5013C101.776 88.9597 101.985 89.392 102.235 89.8086C102.479 90.2253 102.766 90.6159 103.089 90.9805C103.406 91.3451 103.761 91.6784 104.141 91.9753L104.13 91.9649ZM36.7241 34.8086L72.6668 151.199C72.3439 151.283 72.0314 151.387 71.7241 151.517C71.4168 151.642 71.1199 151.788 70.8283 151.949C70.5418 152.116 70.2658 152.298 70.0001 152.496C69.7345 152.694 69.4845 152.913 69.2449 153.142C69.0106 153.376 68.7866 153.621 68.5835 153.882C68.3751 154.142 68.1876 154.413 68.0158 154.699C67.8439 154.986 67.6929 155.277 67.5574 155.579C67.4272 155.887 67.3126 156.194 67.2189 156.517C67.1251 156.835 67.0522 157.158 67.0001 157.486C66.9481 157.814 66.9168 158.142 66.9064 158.475C66.896 158.803 66.9064 159.137 66.9429 159.465C66.9741 159.798 67.0262 160.121 67.0991 160.444C67.1772 160.772 67.271 161.085 67.3856 161.397C67.5001 161.71 67.6356 162.012 67.7866 162.309C67.9429 162.6 68.1147 162.882 68.3022 163.158C68.4949 163.428 68.6981 163.689 68.922 163.934L24.2658 212.21C23.2085 211.408 22.0158 210.908 20.6981 210.71C22.9324 179.569 32.5626 65.8347 35.1616 35.0065C35.6928 34.9961 36.2137 34.9284 36.7345 34.8086H36.7241ZM82.4793 159.069C82.4793 158.949 82.4793 158.829 82.4793 158.715C82.4793 158.022 82.3856 157.345 82.2085 156.678C82.0262 156.012 81.7606 155.382 81.4168 154.788C81.0679 154.189 80.646 153.652 80.1564 153.168C79.6668 152.684 79.1199 152.272 78.521 151.928L105.349 92.7409C106 93.0795 106.688 93.3243 107.406 93.4701C108.13 93.6159 108.86 93.6576 109.589 93.6003C110.323 93.5378 111.031 93.3763 111.719 93.1107C112.406 92.8503 113.047 92.4961 113.63 92.0482L183.229 169.022C182.292 170.038 181.672 171.215 181.365 172.559L82.4793 159.069ZM295.453 81.0586C295.255 80.8034 295.042 80.5638 294.813 80.3347C294.583 80.1055 294.344 79.892 294.089 79.694C293.833 79.4909 293.568 79.3086 293.292 79.1472C293.011 78.9805 292.724 78.8295 292.427 78.6993C292.136 78.569 291.828 78.4597 291.521 78.3659C291.208 78.2722 290.896 78.1993 290.578 78.1472C290.261 78.0951 289.938 78.0586 289.615 78.0482C289.292 78.0326 288.969 78.0378 288.646 78.069C288.323 78.0951 288.005 78.142 287.688 78.2045C287.37 78.2722 287.063 78.3607 286.755 78.4649C286.448 78.569 286.151 78.694 285.86 78.8347C285.568 78.9753 285.292 79.1368 285.021 79.3138C284.75 79.4909 284.49 79.6836 284.245 79.892C283.995 80.1003 283.766 80.3243 283.547 80.5638C283.328 80.8034 283.125 81.0534 282.938 81.319C282.75 81.5795 282.578 81.8555 282.427 82.142L196.349 45.2045C196.604 44.444 196.735 43.668 196.74 42.8659L373.479 28.4701C373.62 29.2565 373.87 30.0118 374.234 30.7253L295.453 81.0586ZM181.146 42.6836C181.146 42.6836 181.146 42.7461 181.146 42.7774C181.151 43.767 181.333 44.7201 181.698 45.6368L113.891 79.7982C113.511 79.4909 113.11 79.2201 112.682 78.9857C112.255 78.7513 111.807 78.5586 111.344 78.4076C110.88 78.2565 110.406 78.1524 109.922 78.0899C109.438 78.0326 108.953 78.017 108.464 78.043C107.979 78.0743 107.5 78.1524 107.026 78.2722C106.552 78.392 106.094 78.5534 105.656 78.7618C105.214 78.9701 104.792 79.2149 104.396 79.4961C104 79.7826 103.636 80.1055 103.302 80.4597L41.6303 31.4545C42.172 30.5951 42.5314 29.668 42.7085 28.6628L181.146 42.6836Z" fill="#3F2305"/>
<mask id="mask0_7595_10524" style="mask-type:luminance" maskUnits="userSpaceOnUse" x="0" y="0" width="208" height="379">
<path d="M0 0H208V378.609H0V0Z" fill="white"/>
</mask>
<g mask="url(#mask0_7595_10524)">
<path d="M191.964 8.09858C160.694 10.3434 47.3654 19.958 16.1936 22.5569C16.105 22.0725 15.9748 21.5986 15.7977 21.1402C15.6259 20.6767 15.4071 20.2392 15.1467 19.8173C14.8863 19.4007 14.5946 19.01 14.2613 18.6455C13.9279 18.2809 13.5634 17.9527 13.1675 17.6611C12.7717 17.3642 12.3498 17.1142 11.9071 16.8955C11.4644 16.6819 11.0009 16.51 10.5269 16.385C10.0529 16.26 9.56856 16.1767 9.07377 16.1402C8.58419 16.1038 8.0946 16.1194 7.60502 16.1767C7.11544 16.234 6.63106 16.333 6.16231 16.484C5.69356 16.635 5.24044 16.8225 4.80814 17.0569C4.37585 17.2913 3.96439 17.5673 3.58419 17.8798C3.20398 18.1871 2.85502 18.5361 2.53731 18.9111C2.2196 19.2913 1.94356 19.6923 1.70398 20.1246C1.46439 20.5569 1.26648 21.0048 1.11023 21.4736C0.959186 21.9423 0.849811 22.4215 0.782103 22.9059C0.719602 23.3955 0.703978 23.885 0.730019 24.3798C0.761268 24.8694 0.834186 25.3538 0.959186 25.833C1.07898 26.3121 1.24564 26.7757 1.45398 27.2184C1.66231 27.6663 1.91231 28.0882 2.19877 28.4892C2.49044 28.8902 2.81335 29.2548 3.17273 29.5934C3.5321 29.9319 3.91752 30.234 4.33419 30.4996C4.75085 30.76 5.18835 30.984 5.64669 31.1663C6.10502 31.3486 6.57377 31.484 7.05814 31.5777C7.54252 31.6715 8.0321 31.7132 8.52689 31.7132H8.61023L22.6311 170.099C21.7352 170.27 20.8915 170.588 20.1102 171.057C19.3238 171.526 18.6415 172.109 18.0634 172.817C17.4904 173.52 17.0477 174.307 16.7456 175.166C16.4436 176.031 16.2977 176.916 16.3081 177.828C16.3186 178.739 16.48 179.625 16.8029 180.479C17.1206 181.333 17.579 182.109 18.1727 182.802C18.7613 183.494 19.4592 184.067 20.2509 184.52C21.0425 184.968 21.8915 185.27 22.7925 185.421L8.43835 362.166C7.82898 362.166 7.22481 362.239 6.62585 362.385C6.0321 362.531 5.46439 362.744 4.91752 363.02C4.37585 363.302 3.87064 363.64 3.40189 364.036C2.93835 364.437 2.52689 364.88 2.16231 365.375C1.80294 365.869 1.50606 366.401 1.26648 366.963C1.0321 367.531 0.865436 368.114 0.766478 368.718C0.667519 369.323 0.641478 369.927 0.683144 370.541C0.724811 371.151 0.839394 371.75 1.02689 372.333C1.20919 372.916 1.45919 373.468 1.77169 373.994C2.08419 374.52 2.45398 375 2.88627 375.442C3.31335 375.88 3.7821 376.26 4.30294 376.588C4.81856 376.916 5.36544 377.177 5.94356 377.38C6.52169 377.578 7.12064 377.703 7.73002 377.765C8.33939 377.823 8.94356 377.812 9.55293 377.729C10.1571 377.64 10.7456 377.489 11.3186 377.27C11.8863 377.047 12.4227 376.76 12.9279 376.411C13.4331 376.067 13.8863 375.661 14.2977 375.208C14.704 374.755 15.0581 374.255 15.3498 373.718C15.6415 373.182 15.8654 372.614 16.0269 372.026C16.1884 371.437 16.2769 370.833 16.2977 370.224C16.3134 369.609 16.2613 369.005 16.1363 368.406C16.0165 367.807 15.8238 367.229 15.5634 366.672C15.3081 366.119 14.9852 365.604 14.605 365.125C14.2248 364.64 13.7925 364.213 13.3134 363.838L63.605 285.01C63.8915 285.156 64.1831 285.281 64.48 285.39C64.7821 285.505 65.0842 285.593 65.3967 285.666C65.7092 285.739 66.0217 285.791 66.3394 285.828C66.6571 285.864 66.9748 285.875 67.2925 285.869C67.6102 285.864 67.9279 285.843 68.2457 285.797C68.5634 285.755 68.8759 285.692 69.1832 285.609C69.4904 285.526 69.7925 285.427 70.0894 285.307C70.3863 285.187 70.6727 285.047 70.9488 284.895C71.23 284.739 71.4957 284.567 71.7561 284.38C72.0113 284.192 72.2613 283.989 72.4904 283.77C72.7248 283.552 72.9436 283.323 73.1467 283.078C73.355 282.833 73.5425 282.578 73.7144 282.307C73.8863 282.041 74.0425 281.76 74.1832 281.474C74.3186 281.187 74.4436 280.89 74.5425 280.588C74.6467 280.286 74.73 279.979 74.7977 279.666C74.8602 279.354 74.9071 279.041 74.9332 278.724C74.9592 278.406 74.9644 278.088 74.9488 277.765C74.9384 277.448 74.9071 277.13 74.855 276.817C74.8029 276.505 74.73 276.192 74.6415 275.885C74.5477 275.578 74.4436 275.281 74.3134 274.989C74.1884 274.698 74.0425 274.411 73.8811 274.135C73.7196 273.859 73.5425 273.599 73.3446 273.343C73.1519 273.093 72.9436 272.854 72.7196 272.625C72.4957 272.395 72.2613 272.182 72.0113 271.984C71.7613 271.786 71.4957 271.604 71.2248 271.437C70.954 271.27 70.6727 271.125 70.3811 270.994C70.0894 270.859 69.7925 270.75 69.4852 270.651C69.1832 270.557 68.8759 270.484 68.5582 270.427C68.2457 270.369 67.9279 270.333 67.6102 270.312C67.2925 270.297 66.9748 270.297 66.6571 270.317C66.3394 270.338 66.0217 270.38 65.7092 270.442C65.3967 270.5 65.0842 270.578 64.7821 270.677L27.8498 184.614C28.9956 183.989 29.9331 183.135 30.6519 182.046C31.3706 180.953 31.7873 179.755 31.9019 178.458H147.912C147.959 178.958 148.053 179.448 148.194 179.927C148.334 180.411 148.516 180.875 148.751 181.323C148.98 181.765 149.251 182.187 149.558 182.578C149.871 182.974 150.22 183.333 150.6 183.661C150.98 183.989 151.386 184.276 151.824 184.526C152.261 184.77 152.72 184.974 153.194 185.135C153.668 185.296 154.157 185.406 154.652 185.474C155.152 185.541 155.652 185.557 156.152 185.526C156.652 185.494 157.147 185.416 157.631 185.291C158.115 185.166 158.589 184.994 159.037 184.776C159.49 184.562 159.923 184.302 160.324 184.005C160.725 183.708 161.095 183.369 161.433 183C161.772 182.63 162.074 182.229 162.334 181.802C162.595 181.369 162.813 180.921 162.985 180.453C163.162 179.979 163.287 179.5 163.371 179.005C163.454 178.505 163.485 178.01 163.47 177.505C163.454 177.005 163.391 176.51 163.282 176.02C163.168 175.531 163.011 175.057 162.808 174.599C162.605 174.14 162.36 173.703 162.074 173.291C161.787 172.88 161.464 172.5 161.105 172.151C160.746 171.796 160.355 171.489 159.933 171.213C159.511 170.937 159.069 170.708 158.605 170.52C158.141 170.333 157.662 170.187 157.168 170.093C156.678 169.994 156.178 169.948 155.678 169.948H155.319L141.819 71.0725C142.136 70.9996 142.449 70.9111 142.756 70.8017C143.063 70.6871 143.36 70.5569 143.652 70.4111C143.938 70.26 144.22 70.0986 144.49 69.9111C144.756 69.7288 145.011 69.5309 145.256 69.3121C145.501 69.0986 145.73 68.8694 145.949 68.6246C146.162 68.3798 146.36 68.1194 146.543 67.8538C146.725 67.583 146.891 67.3017 147.037 67.01C147.188 66.7236 147.313 66.4215 147.423 66.1142C147.532 65.8121 147.626 65.4996 147.694 65.1819C147.766 64.8642 147.819 64.5413 147.85 64.2184C147.876 63.8902 147.886 63.5673 147.876 63.2444C147.865 62.9163 147.834 62.5934 147.787 62.2705C147.735 61.9475 147.662 61.635 147.574 61.3173C147.48 61.0048 147.371 60.7027 147.24 60.4007C147.115 60.1038 146.964 59.8121 146.798 59.5309C146.636 59.2548 146.454 58.984 146.251 58.7288L194.532 14.083C194.964 14.4788 195.444 14.8173 195.959 15.1038C196.47 15.3955 197.011 15.6194 197.579 15.7861C198.141 15.9475 198.72 16.0465 199.308 16.083C199.897 16.1142 200.48 16.083 201.063 15.984C201.641 15.885 202.204 15.7236 202.751 15.4944C203.293 15.2705 203.808 14.984 204.287 14.6455C204.766 14.3017 205.199 13.9111 205.589 13.4684C205.98 13.0257 206.319 12.5465 206.6 12.0309C206.881 11.5152 207.105 10.9736 207.261 10.4059C207.423 9.83816 207.516 9.26003 207.543 8.67149C207.574 8.08295 207.532 7.49962 207.428 6.91629C207.324 6.33816 207.157 5.77566 206.928 5.23399C206.694 4.69233 206.407 4.18191 206.058 3.70795C205.709 3.22879 205.313 2.8017 204.871 2.41108C204.428 2.02566 203.944 1.69233 203.423 1.41629C202.902 1.14024 202.36 0.926701 201.793 0.770452C201.22 0.619411 200.641 0.530869 200.053 0.504827C199.464 0.483993 198.881 0.530869 198.303 0.640244C197.725 0.749619 197.162 0.921493 196.626 1.16108C196.084 1.39545 195.579 1.68712 195.105 2.04129C194.631 2.39024 194.204 2.79129 193.824 3.2392C193.438 3.68712 193.115 4.1767 192.839 4.69754C192.569 5.21837 192.36 5.76524 192.209 6.33816C192.063 6.90587 191.98 7.4892 191.964 8.07774V8.09858ZM28.2561 171.135L62.2144 103.739C62.5738 104.036 62.9592 104.302 63.3654 104.536C63.7769 104.765 64.204 104.958 64.6467 105.109C65.0894 105.265 65.5425 105.375 66.0061 105.448C66.4696 105.52 66.9332 105.552 67.4019 105.536C67.8707 105.526 68.3342 105.468 68.7925 105.375C69.2509 105.276 69.6988 105.14 70.1311 104.963C70.5634 104.781 70.98 104.567 71.3759 104.317C71.7717 104.062 72.1363 103.776 72.48 103.458L149.444 173.062C148.558 174.244 148.048 175.573 147.912 177.041H31.9019C31.7925 175.828 31.4123 174.703 30.7717 173.661C30.1311 172.625 29.2925 171.781 28.2561 171.135ZM67.1988 89.9319C65.6311 89.9267 64.1936 90.3538 62.8863 91.2184L13.9279 29.5465C14.7196 28.7809 15.3342 27.8902 15.7613 26.8746L132.308 62.8694C132.298 63.0777 132.298 63.2913 132.308 63.5048C132.308 64.3798 132.449 65.234 132.74 66.0569L73.355 92.9423C72.6154 91.9892 71.7092 91.2496 70.6259 90.7236C69.5425 90.1975 68.4019 89.9319 67.1988 89.9319ZM16.3446 23.9475C47.1623 21.3382 160.839 11.7236 192.048 9.4892C192.246 10.8121 192.751 11.9996 193.569 13.0569L145.251 57.7236C143.772 56.3798 142.037 55.708 140.043 55.708C139.183 55.708 138.345 55.8434 137.532 56.1142C136.72 56.3902 135.975 56.7861 135.293 57.3069C134.61 57.8277 134.027 58.4423 133.548 59.1559C133.069 59.8694 132.72 60.6402 132.49 61.4632L16.1727 25.5361C16.2821 25.0152 16.3394 24.4892 16.3446 23.9632V23.9475ZM153.876 170.151C152.532 170.463 151.35 171.093 150.339 172.031L73.3654 102.422C73.8082 101.833 74.1623 101.198 74.4279 100.51C74.6936 99.8225 74.855 99.1142 74.9123 98.3798C74.9748 97.6455 74.9332 96.9215 74.7873 96.1975C74.6415 95.4788 74.3967 94.7913 74.0582 94.1403L133.303 67.2913C133.641 67.8902 134.053 68.4371 134.537 68.9267C135.022 69.4163 135.563 69.8382 136.157 70.1871C136.751 70.5309 137.386 70.7965 138.048 70.9788C138.714 71.1559 139.391 71.2444 140.084 71.2444H140.428L153.876 170.151ZM12.1259 363.036C11.4123 362.672 10.6623 362.422 9.87064 362.281L24.2144 185.541C25.0113 185.531 25.7925 185.406 26.5529 185.161L63.4904 271.239C63.204 271.39 62.9279 271.562 62.6675 271.75C62.4019 271.937 62.1519 272.135 61.9123 272.354C61.6727 272.573 61.454 272.807 61.2404 273.052C61.0321 273.302 60.8394 273.557 60.6623 273.828C60.4852 274.099 60.3238 274.38 60.1831 274.666C60.0425 274.958 59.9175 275.255 59.8134 275.562C59.7092 275.869 59.6206 276.177 59.5529 276.494C59.4904 276.812 59.4436 277.13 59.4175 277.453C59.3863 277.776 59.3811 278.099 59.3967 278.422C59.4071 278.744 59.4436 279.062 59.4956 279.385C59.5477 279.703 59.6206 280.015 59.7144 280.323C59.8081 280.635 59.9175 280.937 60.0477 281.234C60.1779 281.531 60.329 281.817 60.4956 282.093C60.6571 282.369 60.8394 282.635 61.0425 282.89C61.2404 283.145 61.454 283.385 61.6831 283.614C61.9123 283.843 62.1519 284.057 62.4123 284.255L12.1259 363.036ZM10.0217 31.5725C11.0321 31.3746 11.9644 30.9944 12.829 30.4319L61.8186 92.0934C61.4644 92.4267 61.1467 92.7913 60.8602 93.1923C60.579 93.5882 60.3342 94.0048 60.1259 94.4475C59.9227 94.8903 59.7561 95.3486 59.6363 95.8173C59.5165 96.2913 59.4436 96.7705 59.4123 97.26C59.3863 97.7444 59.4019 98.2288 59.4644 98.7132C59.5217 99.1975 59.6311 99.6715 59.7769 100.135C59.9279 100.599 60.1206 101.047 60.355 101.474C60.5894 101.901 60.8602 102.302 61.1675 102.682L27.0061 170.489C26.0842 170.125 25.1311 169.942 24.1415 169.937H24.0425L10.0217 31.5725Z" fill="#776B5D"/>
</g>
</svg>
