<svg width="1920" height="146" viewBox="0 0 1920 146" fill="none" xmlns="http://www.w3.org/2000/svg">
<path d="M0 75.5625L265.208 75.5625" stroke="#776B5D" stroke-width="5"/>
<path d="M357.865 75.5625L670.516 75.5625" stroke="#776B5D" stroke-width="5"/>
<path d="M803.672 75.5625L1116.33 75.5625" stroke="#776B5D" stroke-width="5"/>
<path d="M1226.29 75.5625L1538.94 75.5625" stroke="#776B5D" stroke-width="5"/>
<path d="M1635.67 75.5625H1963" stroke="#776B5D" stroke-width="5"/>
<mask id="mask0_7595_10529" style="mask-type:luminance" maskUnits="userSpaceOnUse" x="665" y="0" width="145" height="146">
<path d="M665 0.6875H810V145.688H665V0.6875Z" fill="white"/>
</mask>
<g mask="url(#mask0_7595_10529)">
<path d="M737.375 0.6875C697.406 0.6875 665 33.0885 665 73.0625C665 113.036 697.406 145.438 737.375 145.438C777.349 145.438 809.75 113.036 809.75 73.0625C809.75 33.0885 777.349 0.6875 737.375 0.6875ZM730.141 109.766L719.281 98.9062L745.13 73.0625L719.281 47.2188L730.141 36.3594L766.839 73.0625L730.141 109.766Z" fill="#776B5D"/>
</g>
<mask id="mask1_7595_10529" style="mask-type:luminance" maskUnits="userSpaceOnUse" x="1081" y="0" width="145" height="146">
<path d="M1081 0.6875H1226V145.688H1081V0.6875Z" fill="white"/>
</mask>
<g mask="url(#mask1_7595_10529)">
<path d="M1153.38 0.6875C1113.41 0.6875 1081 33.0885 1081 73.0625C1081 113.036 1113.41 145.438 1153.38 145.438C1193.35 145.438 1225.75 113.036 1225.75 73.0625C1225.75 33.0885 1193.35 0.6875 1153.38 0.6875ZM1146.14 109.766L1135.28 98.9062L1161.13 73.0625L1135.28 47.2188L1146.14 36.3594L1182.84 73.0625L1146.14 109.766Z" fill="#776B5D"/>
</g>
<mask id="mask2_7595_10529" style="mask-type:luminance" maskUnits="userSpaceOnUse" x="1497" y="0" width="145" height="146">
<path d="M1497 0.6875H1642V145.688H1497V0.6875Z" fill="white"/>
</mask>
<g mask="url(#mask2_7595_10529)">
<path d="M1569.38 0.6875C1529.41 0.6875 1497 33.0885 1497 73.0625C1497 113.036 1529.41 145.438 1569.38 145.438C1609.35 145.438 1641.75 113.036 1641.75 73.0625C1641.75 33.0885 1609.35 0.6875 1569.38 0.6875ZM1562.14 109.766L1551.28 98.9062L1577.13 73.0625L1551.28 47.2188L1562.14 36.3594L1598.84 73.0625L1562.14 109.766Z" fill="#776B5D"/>
</g>
<mask id="mask3_7595_10529" style="mask-type:luminance" maskUnits="userSpaceOnUse" x="248" y="0" width="146" height="146">
<path d="M248.5 0.6875H393.5V145.688H248.5V0.6875Z" fill="white"/>
</mask>
<g mask="url(#mask3_7595_10529)">
<path d="M320.875 0.6875C280.906 0.6875 248.5 33.0885 248.5 73.0625C248.5 113.036 280.906 145.438 320.875 145.438C360.849 145.438 393.25 113.036 393.25 73.0625C393.25 33.0885 360.849 0.6875 320.875 0.6875ZM313.641 109.766L302.781 98.9062L328.63 73.0625L302.781 47.2188L313.641 36.3594L350.339 73.0625L313.641 109.766Z" fill="#776B5D"/>
</g>
</svg>
