<svg width="452" height="276" viewBox="0 0 452 276" fill="none" xmlns="http://www.w3.org/2000/svg">
<mask id="mask0_7584_38192" style="mask-type:luminance" maskUnits="userSpaceOnUse" x="0" y="0" width="452" height="276">
<path d="M0.275391 0.730469H451.999V276.001H0.275391V0.730469Z" fill="white"/>
</mask>
<g mask="url(#mask0_7584_38192)">
<path d="M329.796 204.594L334.572 206.255L336.041 206.766L337.031 207.109C337.281 206.557 337.604 206.057 338.005 205.609C338.906 204.547 340.041 203.87 341.411 203.583C341.843 203.49 342.281 203.448 342.723 203.453H343.223L343.395 202.401L347.656 177.521L349.38 174.104L344.645 201.719L344.395 203.151L336.135 208.016L327.812 205.12C328.442 204.828 329.104 204.651 329.796 204.594ZM329.796 204.594C329.104 204.646 328.442 204.813 327.812 205.094L322.447 203.24L320.145 201.255L329.796 204.594ZM329.796 204.594L334.572 206.255L336.041 206.766L337.031 207.109C337.281 206.557 337.604 206.057 338.005 205.609C338.906 204.547 340.041 203.87 341.411 203.583C341.843 203.49 342.281 203.448 342.723 203.453H343.223L343.395 202.401L347.656 177.521L349.38 174.104L344.645 201.719L344.395 203.151L336.135 208.016L327.812 205.12C328.442 204.828 329.104 204.651 329.796 204.594ZM329.796 204.594C329.104 204.646 328.442 204.813 327.812 205.094L322.447 203.24L320.145 201.255L329.796 204.594ZM329.796 204.594L334.572 206.255L336.041 206.766L337.031 207.109C337.281 206.557 337.604 206.057 338.005 205.609C338.906 204.547 340.041 203.87 341.411 203.583C341.843 203.49 342.281 203.448 342.723 203.453H343.223L343.395 202.401L347.656 177.521L349.38 174.104L344.645 201.719L344.395 203.151L336.135 208.016L327.812 205.12C328.442 204.828 329.104 204.651 329.796 204.594ZM329.796 204.594C329.104 204.646 328.442 204.813 327.812 205.094L322.447 203.24L320.145 201.255L329.796 204.594ZM329.796 204.594L334.572 206.255L336.041 206.766L337.031 207.109C337.281 206.557 337.604 206.057 338.005 205.609C338.906 204.547 340.041 203.87 341.411 203.583C341.843 203.49 342.281 203.448 342.723 203.453H343.223L343.395 202.401L347.656 177.521L349.38 174.104L344.645 201.719L344.395 203.151L336.135 208.016L327.812 205.12C328.442 204.828 329.104 204.651 329.796 204.594ZM329.796 204.594C329.104 204.646 328.442 204.813 327.812 205.094L322.447 203.24L320.145 201.255L329.796 204.594ZM329.796 204.594L334.572 206.255L336.041 206.766L337.031 207.109C337.281 206.557 337.604 206.057 338.005 205.609C338.906 204.547 340.041 203.87 341.411 203.583C341.843 203.49 342.281 203.448 342.723 203.453H343.223L343.395 202.401L347.656 177.521L349.38 174.104L344.645 201.719L344.395 203.151L336.135 208.016L327.812 205.12C328.442 204.828 329.104 204.651 329.796 204.594ZM329.796 204.594C329.104 204.646 328.442 204.813 327.812 205.094L322.447 203.24L320.145 201.255L329.796 204.594ZM329.796 204.594L334.572 206.255L336.041 206.766L337.031 207.109C337.281 206.557 337.604 206.057 338.005 205.609C338.906 204.547 340.041 203.87 341.411 203.583C341.843 203.49 342.281 203.448 342.723 203.453H343.223L343.395 202.401L347.656 177.521L349.38 174.104L344.645 201.719L344.395 203.151L336.135 208.016L327.812 205.12C328.442 204.828 329.104 204.651 329.796 204.594ZM329.796 204.594C329.104 204.646 328.442 204.813 327.812 205.094L322.447 203.24L320.145 201.255L329.796 204.594ZM329.796 204.594L334.572 206.255L336.041 206.766L337.031 207.109C337.281 206.557 337.604 206.057 338.005 205.609C338.906 204.547 340.041 203.87 341.411 203.583C341.843 203.49 342.281 203.448 342.723 203.453H343.223L343.395 202.401L347.656 177.521L349.38 174.104L344.645 201.719L344.395 203.151L336.135 208.016L327.812 205.12C328.442 204.828 329.104 204.651 329.796 204.594ZM329.796 204.594C329.104 204.646 328.442 204.813 327.812 205.094L322.447 203.24L320.145 201.255L329.796 204.594ZM329.796 204.594L334.572 206.255L336.041 206.766L337.031 207.109C337.281 206.557 337.604 206.057 338.005 205.609C338.906 204.547 340.041 203.87 341.411 203.583C341.843 203.49 342.281 203.448 342.723 203.453H343.223L343.395 202.401L347.656 177.521L349.38 174.104L344.645 201.719L344.395 203.151L336.135 208.016L327.812 205.12C328.442 204.828 329.104 204.651 329.796 204.594ZM329.796 204.594C329.104 204.646 328.442 204.813 327.812 205.094L322.447 203.24L320.145 201.255L329.796 204.594ZM329.796 204.594L334.572 206.255L336.041 206.766L337.031 207.109C337.281 206.557 337.604 206.057 338.005 205.609C338.906 204.547 340.041 203.87 341.411 203.583C341.843 203.49 342.281 203.448 342.723 203.453H343.223L343.395 202.401L347.656 177.521L349.38 174.104L344.645 201.719L344.395 203.151L336.135 208.016L327.812 205.12C328.442 204.828 329.104 204.651 329.796 204.594ZM329.796 204.594C329.104 204.646 328.442 204.813 327.812 205.094L322.447 203.24L320.145 201.255L329.796 204.594ZM329.796 204.594L334.572 206.255L336.041 206.766L337.031 207.109C337.281 206.557 337.604 206.057 338.005 205.609C338.906 204.547 340.041 203.87 341.411 203.583C341.843 203.49 342.281 203.448 342.723 203.453H343.223L343.395 202.401L347.656 177.521L349.38 174.104L344.645 201.719L344.395 203.151L336.135 208.016L327.812 205.12C328.442 204.828 329.104 204.651 329.796 204.594ZM329.796 204.594C329.104 204.646 328.442 204.813 327.812 205.094L322.447 203.24L320.145 201.255L329.796 204.594ZM329.796 204.594L334.572 206.255L336.041 206.766L337.031 207.109C337.281 206.557 337.604 206.057 338.005 205.609C338.906 204.547 340.041 203.87 341.411 203.583C341.843 203.49 342.281 203.448 342.723 203.453H343.223L343.395 202.401L347.656 177.521L349.38 174.104L344.645 201.719L344.395 203.151L336.135 208.016L327.812 205.12C328.442 204.828 329.104 204.651 329.796 204.594ZM329.796 204.594C329.104 204.646 328.442 204.813 327.812 205.094L322.447 203.24L320.145 201.255L329.796 204.594ZM329.796 204.594L334.572 206.255L336.041 206.766L337.031 207.109C337.281 206.557 337.604 206.057 338.005 205.609C338.906 204.547 340.041 203.87 341.411 203.583C341.843 203.49 342.281 203.448 342.723 203.453H343.223L343.395 202.401L347.656 177.521L349.38 174.104L344.645 201.719L344.395 203.151L336.135 208.016L327.812 205.12C328.442 204.828 329.104 204.651 329.796 204.594ZM329.796 204.594C329.104 204.646 328.442 204.813 327.812 205.094L322.447 203.24L320.145 201.255L329.796 204.594ZM329.796 204.594L334.572 206.255L336.041 206.766L337.031 207.109C337.281 206.557 337.604 206.057 338.005 205.609C338.906 204.547 340.041 203.87 341.411 203.583C341.843 203.49 342.281 203.448 342.723 203.453H343.223L343.395 202.401L347.656 177.521L349.38 174.104L344.645 201.719L344.395 203.151L336.135 208.016L327.812 205.12C328.442 204.828 329.104 204.651 329.796 204.594ZM329.796 204.594C329.104 204.646 328.442 204.813 327.812 205.094L322.447 203.24L320.145 201.255L329.796 204.594ZM63.1348 209.672C62.1244 209.667 61.1764 209.438 60.2806 208.974L1.19727 301.234H-0.115234L59.3327 208.37C58.9473 208.073 58.6035 207.734 58.2962 207.354C57.9889 206.974 57.7337 206.563 57.5254 206.125C57.3119 205.682 57.1556 205.224 57.0566 204.75C56.9525 204.271 56.9108 203.792 56.9212 203.302C56.9316 202.813 56.9994 202.333 57.1244 201.865C57.2494 201.391 57.4264 200.943 57.6556 200.511C57.8848 200.083 58.166 199.688 58.4889 199.323C58.8119 198.958 59.1712 198.636 59.5723 198.354C59.9733 198.078 60.4004 197.844 60.8535 197.667C61.3066 197.49 61.7702 197.365 62.2546 197.292C62.7389 197.224 63.2233 197.214 63.7077 197.255C64.1921 197.302 64.666 197.401 65.1296 197.557C65.5879 197.714 66.0254 197.922 66.4421 198.177C66.8535 198.438 67.2337 198.74 67.5723 199.089C67.916 199.438 68.2129 199.818 68.4629 200.234C68.7181 200.651 68.916 201.094 69.0619 201.557L165.135 180.151C165.114 179.886 165.114 179.625 165.135 179.359C165.135 178.953 165.176 178.552 165.255 178.151C165.333 177.75 165.447 177.359 165.604 176.984C165.76 176.604 165.952 176.245 166.176 175.906C166.406 175.568 166.661 175.255 166.947 174.964C167.239 174.677 167.551 174.417 167.89 174.193C168.229 173.964 168.588 173.771 168.963 173.615C169.343 173.458 169.729 173.344 170.13 173.261C170.531 173.182 170.937 173.141 171.343 173.141C172.567 173.141 173.687 173.469 174.708 174.141L230.583 102.568C230.218 102.229 229.906 101.849 229.63 101.438C229.359 101.021 229.14 100.578 228.979 100.115C228.812 99.646 228.702 99.1668 228.65 98.672C228.604 98.1772 228.609 97.6824 228.676 97.1928C228.744 96.7032 228.869 96.2241 229.051 95.7657C229.234 95.3022 229.468 94.8699 229.755 94.4637C230.036 94.0574 230.369 93.6928 230.739 93.3647C231.114 93.0366 231.52 92.7605 231.963 92.5314C232.4 92.3022 232.864 92.1303 233.343 92.0105C233.827 91.8907 234.317 91.8335 234.812 91.8335C235.307 91.8282 235.796 91.8855 236.281 92.0053C236.76 92.1199 237.223 92.2918 237.666 92.5157C238.104 92.7449 238.515 93.021 238.89 93.3439C239.265 93.672 239.593 94.0366 239.88 94.4376C240.171 94.8439 240.406 95.2762 240.588 95.7345C240.775 96.198 240.9 96.672 240.973 97.1616L348.942 91.5887C348.984 90.4428 349.317 89.3855 349.947 88.422C350.572 87.4637 351.406 86.7293 352.437 86.2293C353.468 85.7293 354.557 85.5314 355.697 85.6303C356.843 85.7345 357.88 86.1251 358.807 86.8022L424.739 11.7137C424.4 11.3595 424.104 10.9741 423.859 10.547C423.609 10.1251 423.416 9.6772 423.27 9.20845C423.13 8.7397 423.046 8.25533 423.015 7.76574C422.989 7.27616 423.02 6.79178 423.104 6.30741C423.192 5.82304 423.333 5.35949 423.531 4.90637C423.729 4.45845 423.979 4.03658 424.275 3.64595C424.572 3.25533 424.911 2.90637 425.291 2.59387C425.671 2.28137 426.077 2.02095 426.52 1.80741C426.963 1.59387 427.426 1.43762 427.906 1.33345C428.385 1.22928 428.869 1.18241 429.359 1.19283C429.854 1.20324 430.333 1.27095 430.812 1.39595C431.286 1.52095 431.739 1.69804 432.171 1.93241C432.604 2.16158 433.005 2.44283 433.369 2.77095C433.734 3.09908 434.057 3.46366 434.338 3.8647C434.619 4.27095 434.848 4.69804 435.025 5.15637C435.202 5.6147 435.322 6.08866 435.39 6.57304L473.275 5.03658V6.15116L435.432 7.72929C435.385 8.79179 435.083 9.77616 434.531 10.6824C433.979 11.5835 433.239 12.297 432.312 12.823L445.317 48.5105L445.489 49.0105C446.01 48.8699 446.541 48.8022 447.077 48.797C447.848 48.797 448.588 48.9376 449.301 49.2189C449.843 49.4272 450.348 49.7085 450.812 50.0574C451.275 50.4064 451.682 50.8178 452.031 51.2814C452.38 51.7449 452.661 52.2501 452.864 52.7918C453.072 53.3387 453.197 53.9012 453.249 54.4793H473.275V55.5991H453.26C453.182 56.5418 452.9 57.422 452.416 58.2345C451.926 59.047 451.286 59.7137 450.484 60.2241C450.166 60.4532 449.822 60.6355 449.458 60.7762C448.697 61.0939 447.906 61.2501 447.077 61.2501C446.692 61.2553 446.307 61.2189 445.921 61.146L434.51 101.042L432.854 106.87L420.676 149.526L420.359 150.589L419.046 155.208C419.838 155.505 420.541 155.943 421.161 156.521C421.359 156.719 421.546 156.927 421.713 157.151L434.442 149.037L473.275 124.396V125.714L434.958 150.052L424.635 156.625L422.307 158.099C422.656 158.781 422.874 159.511 422.958 160.276C423.041 161.042 422.984 161.797 422.786 162.542C422.588 163.287 422.265 163.969 421.812 164.594C421.359 165.214 420.812 165.74 420.166 166.156C419.52 166.578 418.817 166.865 418.067 167.026C417.312 167.188 416.557 167.208 415.796 167.083C415.036 166.964 414.322 166.708 413.656 166.323C412.989 165.938 412.416 165.443 411.932 164.844L348.192 206.714C348.687 207.63 348.937 208.604 348.932 209.646C348.937 209.719 348.937 209.797 348.932 209.87C348.906 210.615 348.749 211.333 348.463 212.021C348.176 212.714 347.781 213.328 347.27 213.875C346.76 214.422 346.171 214.865 345.505 215.198C344.838 215.531 344.135 215.74 343.39 215.818C342.65 215.896 341.916 215.844 341.192 215.662C340.468 215.479 339.801 215.172 339.187 214.745C338.577 214.323 338.057 213.802 337.63 213.188C337.202 212.578 336.9 211.906 336.713 211.182C336.676 211.063 336.645 210.943 336.624 210.818L324.275 212.13L288.64 215.813C288.64 215.813 288.64 215.813 288.64 215.891C288.64 216.552 288.536 217.198 288.333 217.823C288.13 218.453 287.833 219.037 287.442 219.568C287.051 220.099 286.588 220.563 286.051 220.948C285.515 221.328 284.932 221.625 284.301 221.823C283.671 222.021 283.025 222.115 282.364 222.109C281.702 222.099 281.057 221.99 280.432 221.776C279.807 221.568 279.229 221.261 278.702 220.865C278.176 220.469 277.723 219.995 277.343 219.453L221.822 251.412C222.182 252.193 222.364 253.011 222.374 253.87C222.385 253.917 222.385 253.964 222.374 254.016C222.38 254.386 222.348 254.755 222.27 255.12C222.145 255.833 221.895 256.505 221.531 257.136C221.166 257.766 220.702 258.313 220.145 258.781C219.588 259.245 218.968 259.604 218.286 259.854C217.604 260.104 216.895 260.229 216.171 260.234C215.176 260.234 214.239 260.005 213.359 259.547C212.968 259.365 212.609 259.13 212.275 258.854L205.031 266.401L171.515 301.234H169.963L203.968 265.875L211.463 258.089C210.614 257.099 210.114 255.953 209.979 254.656C209.963 254.443 209.963 254.229 209.979 254.016C209.963 253.761 209.963 253.505 209.979 253.25L164.755 243.443C164.557 244.073 164.265 244.656 163.885 245.198C163.499 245.734 163.041 246.203 162.505 246.594C161.973 246.985 161.39 247.281 160.76 247.49C160.13 247.693 159.484 247.797 158.822 247.792C158.119 247.787 157.437 247.672 156.775 247.438L143.52 276.62L142.911 277.932L132.395 301.234H131.156L141.572 278.302L142.166 276.984L155.812 246.979C154.749 246.37 153.932 245.526 153.369 244.443L92.6296 269.427C92.8171 270.026 92.9056 270.636 92.9056 271.266C92.9056 271.672 92.8639 272.078 92.7858 272.479C92.7077 272.88 92.5879 273.271 92.4316 273.646C92.2754 274.021 92.0827 274.38 91.8587 274.719C91.6296 275.063 91.3691 275.375 91.0827 275.662C90.7962 275.953 90.4785 276.208 90.14 276.438C89.8014 276.667 89.4421 276.854 89.0671 277.011C88.6869 277.167 88.2962 277.287 87.9004 277.365C87.4994 277.448 87.0931 277.484 86.6869 277.484L84.3431 301.156H83.2129L85.4994 277.458C84.166 277.203 83.0358 276.578 82.1087 275.578L48.7337 301.271H46.8952L81.4108 274.646C80.7598 273.63 80.4369 272.521 80.4369 271.318C80.4369 270.729 80.5202 270.156 80.6869 269.589C80.8483 269.026 81.0879 268.495 81.4004 267.995C81.7181 267.5 82.0931 267.057 82.5306 266.667C82.9733 266.276 83.4577 265.953 83.9889 265.703L63.3691 209.662L63.1348 209.672ZM234.827 104.214C233.609 104.219 232.489 103.891 231.463 103.224L175.536 174.891C176.682 175.964 177.327 177.276 177.484 178.839H249.187C249.244 178.245 249.385 177.677 249.604 177.125C249.827 176.578 250.119 176.068 250.484 175.604C250.848 175.136 251.275 174.729 251.755 174.386C252.239 174.042 252.76 173.771 253.317 173.578L235.801 104.188C235.479 104.229 235.156 104.234 234.827 104.214ZM349.01 92.6668L241.036 98.2397C241.015 98.8647 240.9 99.4689 240.692 100.057C240.489 100.646 240.202 101.193 239.833 101.693C239.463 102.198 239.031 102.63 238.525 103.005C238.025 103.375 237.484 103.662 236.895 103.87L254.411 173.245C254.729 173.203 255.046 173.177 255.369 173.167C255.676 173.167 255.984 173.193 256.291 173.245C256.682 173.297 257.062 173.391 257.432 173.526C258.27 173.802 259.01 174.24 259.656 174.839L273.687 162.505L274.557 161.755L284.734 152.813L286.416 151.339L350.124 95.3855C349.536 94.573 349.161 93.6616 349.01 92.6668ZM354.583 97.9272C353.145 97.797 351.906 97.2293 350.864 96.2293L288.624 150.906L286.932 152.38L275.411 162.49L274.541 163.255L260.406 175.682C260.567 175.896 260.713 176.125 260.838 176.365L280.067 168.026L281.223 167.526L341.093 141.557L345.984 139.438L349.244 138.073C349.031 137.443 348.926 136.792 348.932 136.125C348.932 135.349 349.072 134.599 349.354 133.875C349.63 133.156 350.036 132.505 350.557 131.932C351.077 131.359 351.687 130.901 352.385 130.557C353.077 130.208 353.812 130.005 354.583 129.932V97.9272ZM261.406 180.833L317.291 200.203L320.145 201.203L329.796 204.542L334.572 206.203L336.041 206.714L337.031 207.057C337.281 206.505 337.604 206.005 338.005 205.557C338.906 204.495 340.041 203.818 341.411 203.531C341.843 203.438 342.281 203.396 342.723 203.401H343.223L343.395 202.349L347.656 177.521L348.301 173.745L353.718 142.188C352.239 141.828 351.046 141.042 350.14 139.823C349.973 139.599 349.822 139.37 349.692 139.125L346.312 140.583L282.14 168.396L280.999 168.896L261.275 177.443C261.494 178.078 261.604 178.729 261.604 179.401C261.604 179.906 261.536 180.401 261.406 180.886V180.833ZM355.713 97.9793V129.932C357.145 130.057 358.374 130.62 359.411 131.615L399.531 96.2189L404.791 91.6251L436.864 63.2762L438.088 62.198L442.031 58.6876C441.827 58.4168 441.656 58.1303 441.505 57.8335L438.333 59.146L437.166 59.6199L427.817 63.3543L425.661 64.2241L361.067 90.0626C361.244 90.6407 361.333 91.2345 361.333 91.8387C361.322 92.6043 361.182 93.3491 360.9 94.0626C360.619 94.7762 360.218 95.4168 359.702 95.9845C359.182 96.5522 358.577 97.0053 357.895 97.3491C357.208 97.6928 356.479 97.9012 355.713 97.9793ZM431.301 13.2918C430.63 13.5262 429.942 13.646 429.234 13.6512C427.885 13.6512 426.666 13.2553 425.577 12.4532L359.661 87.5105C360.067 87.948 360.411 88.4272 360.687 88.9585L427.156 62.3803L429.312 61.5157L437.322 58.3178L438.479 57.8439L441.109 56.7918C440.968 56.3387 440.885 55.8751 440.859 55.4012C440.859 55.2657 440.859 55.1355 440.859 55.0157C440.859 54.4272 440.942 53.8491 441.104 53.2814C441.27 52.7137 441.51 52.1824 441.827 51.6824C442.145 51.1824 442.525 50.7397 442.968 50.3491C443.411 49.9585 443.9 49.6407 444.437 49.3907L443.4 46.521L431.301 13.2918ZM419.27 150.302L419.572 149.224L433.406 100.844L435.062 95.021L444.843 60.8282C444.083 60.521 443.4 60.0835 442.807 59.5157L437.926 63.8282L436.702 64.9064L400.333 97.0053L395.15 101.583L360.187 132.458C360.989 133.547 361.39 134.771 361.395 136.125C361.4 136.224 361.4 136.328 361.395 136.427C361.385 136.828 361.327 137.224 361.223 137.609C361.145 137.958 361.031 138.292 360.885 138.609L363.239 139.49L369.27 141.755L411.64 157.531C412.223 156.651 412.979 155.958 413.911 155.458C414.848 154.964 415.843 154.719 416.9 154.734C417.291 154.734 417.676 154.771 418.057 154.849L419.27 150.302ZM411.312 163.922L411.208 163.729C411.036 163.386 410.9 163.031 410.801 162.662C410.416 161.271 410.505 159.912 411.062 158.583L365.697 141.636L364.645 141.24L360.307 139.609C359.723 140.464 358.979 141.136 358.067 141.62C357.156 142.104 356.182 142.344 355.15 142.344H354.822L350.02 170.344L349.38 174.115L344.645 201.729L344.395 203.162L344.301 203.703C345.63 204.057 346.718 204.771 347.577 205.844L411.312 163.922ZM282.447 209.672C283.166 209.672 283.864 209.792 284.546 210.037C285.223 210.281 285.838 210.63 286.395 211.089C286.952 211.547 287.416 212.089 287.786 212.708C288.156 213.323 288.406 213.99 288.546 214.698L324.145 211.026L336.463 209.714C336.463 209.714 336.463 209.714 336.463 209.63C336.473 209.125 336.531 208.625 336.65 208.136L336.109 207.948L327.786 205.057L322.421 203.203L319.551 202.203L261.01 181.901C260.65 182.703 260.14 183.401 259.484 183.99L279.208 210.542C280.197 209.948 281.27 209.662 282.421 209.672H282.447ZM276.801 218.495C276.52 217.891 276.343 217.255 276.265 216.594C276.187 215.932 276.218 215.276 276.354 214.62C276.494 213.969 276.729 213.354 277.062 212.776C277.4 212.198 277.817 211.693 278.317 211.25L258.593 184.688C257.593 185.297 256.51 185.604 255.343 185.609C254.52 185.609 253.734 185.448 252.979 185.12L219.484 248.792C220.161 249.229 220.729 249.776 221.192 250.438L276.801 218.495ZM165.109 241.573C165.13 241.828 165.13 242.083 165.109 242.339L210.281 252.146C210.541 251.313 210.963 250.568 211.541 249.912C212.119 249.255 212.801 248.74 213.593 248.37C214.093 248.13 214.619 247.964 215.171 247.87C215.52 247.818 215.869 247.792 216.223 247.792C217.041 247.792 217.833 247.948 218.588 248.266L252.041 184.609C251.827 184.469 251.619 184.318 251.426 184.151C251.124 183.896 250.854 183.615 250.609 183.307L250.531 183.214L164.4 238.682C164.859 239.589 165.088 240.552 165.083 241.573H165.109ZM163.796 237.745L249.911 182.281C249.531 181.547 249.307 180.766 249.229 179.943H177.525C177.458 180.714 177.249 181.453 176.906 182.146C176.562 182.844 176.104 183.453 175.531 183.979C174.958 184.505 174.307 184.906 173.583 185.188C172.859 185.469 172.109 185.609 171.327 185.609C171.109 185.62 170.89 185.62 170.671 185.609L160.65 235.641C161.906 236.026 162.937 236.724 163.755 237.745H163.796ZM158.89 235.354H159.562L169.515 185.412C168.531 185.12 167.666 184.615 166.932 183.896C166.197 183.177 165.671 182.328 165.359 181.349L69.3691 202.714C69.3691 202.979 69.3691 203.255 69.3691 203.516C69.3639 204.292 69.2181 205.037 68.9316 205.755L153.301 238.797C153.562 238.287 153.885 237.813 154.27 237.391C154.661 236.964 155.098 236.604 155.588 236.302C156.077 236 156.604 235.771 157.156 235.615C157.708 235.458 158.275 235.38 158.848 235.38L158.89 235.354ZM85.0931 265.323C85.6191 265.172 86.1504 265.099 86.6973 265.099C87.8587 265.099 88.9316 265.396 89.9264 266C90.916 266.599 91.6816 267.412 92.2233 268.438L152.958 243.453C152.775 242.849 152.682 242.234 152.682 241.599C152.687 241.011 152.77 240.432 152.932 239.865L68.4733 206.729C68.0306 207.443 67.4681 208.047 66.7858 208.531C66.0983 209.021 65.3483 209.359 64.5254 209.542L85.0931 265.323ZM329.796 204.594C329.104 204.646 328.442 204.813 327.812 205.094L322.447 203.24L320.145 201.255L329.796 204.594ZM329.796 204.594L334.572 206.255L336.041 206.766L337.031 207.109C337.281 206.557 337.604 206.057 338.005 205.609C338.906 204.547 340.041 203.87 341.411 203.583C341.843 203.49 342.281 203.448 342.723 203.453H343.223L343.395 202.401L347.656 177.521L349.38 174.104L344.645 201.719L344.395 203.151L336.135 208.016L327.812 205.12C328.442 204.828 329.104 204.651 329.796 204.594ZM329.796 204.594C329.104 204.646 328.442 204.813 327.812 205.094L322.447 203.24L320.145 201.255L329.796 204.594ZM329.796 204.594L334.572 206.255L336.041 206.766L337.031 207.109C337.281 206.557 337.604 206.057 338.005 205.609C338.906 204.547 340.041 203.87 341.411 203.583C341.843 203.49 342.281 203.448 342.723 203.453H343.223L343.395 202.401L347.656 177.521L349.38 174.104L344.645 201.719L344.395 203.151L336.135 208.016L327.812 205.12C328.442 204.828 329.104 204.651 329.796 204.594ZM329.796 204.594C329.104 204.646 328.442 204.813 327.812 205.094L322.447 203.24L320.145 201.255L329.796 204.594ZM329.796 204.594L334.572 206.255L336.041 206.766L337.031 207.109C337.281 206.557 337.604 206.057 338.005 205.609C338.906 204.547 340.041 203.87 341.411 203.583C341.843 203.49 342.281 203.448 342.723 203.453H343.223L343.395 202.401L347.656 177.521L349.38 174.104L344.645 201.719L344.395 203.151L336.135 208.016L327.812 205.12C328.442 204.828 329.104 204.651 329.796 204.594ZM329.796 204.594C329.104 204.646 328.442 204.813 327.812 205.094L322.447 203.24L320.145 201.255L329.796 204.594ZM329.796 204.594L334.572 206.255L336.041 206.766L337.031 207.109C337.281 206.557 337.604 206.057 338.005 205.609C338.906 204.547 340.041 203.87 341.411 203.583C341.843 203.49 342.281 203.448 342.723 203.453H343.223L343.395 202.401L347.656 177.521L349.38 174.104L344.645 201.719L344.395 203.151L336.135 208.016L327.812 205.12C328.442 204.828 329.104 204.651 329.796 204.594ZM329.796 204.594C329.104 204.646 328.442 204.813 327.812 205.094L322.447 203.24L320.145 201.255L329.796 204.594ZM329.796 204.594L334.572 206.255L336.041 206.766L337.031 207.109C337.281 206.557 337.604 206.057 338.005 205.609C338.906 204.547 340.041 203.87 341.411 203.583C341.843 203.49 342.281 203.448 342.723 203.453H343.223L343.395 202.401L347.656 177.521L349.38 174.104L344.645 201.719L344.395 203.151L336.135 208.016L327.812 205.12C328.442 204.828 329.104 204.651 329.796 204.594ZM329.796 204.594C329.104 204.646 328.442 204.813 327.812 205.094L322.447 203.24L320.145 201.255L329.796 204.594ZM329.796 204.594L334.572 206.255L336.041 206.766L337.031 207.109C337.281 206.557 337.604 206.057 338.005 205.609C338.906 204.547 340.041 203.87 341.411 203.583C341.843 203.49 342.281 203.448 342.723 203.453H343.223L343.395 202.401L347.656 177.521L349.38 174.104L344.645 201.719L344.395 203.151L336.135 208.016L327.812 205.12C328.442 204.828 329.104 204.651 329.796 204.594ZM329.796 204.594C329.104 204.646 328.442 204.813 327.812 205.094L322.447 203.24L320.145 201.255L329.796 204.594ZM329.796 204.594L334.572 206.255L336.041 206.766L337.031 207.109C337.281 206.557 337.604 206.057 338.005 205.609C338.906 204.547 340.041 203.87 341.411 203.583C341.843 203.49 342.281 203.448 342.723 203.453H343.223L343.395 202.401L347.656 177.521L349.38 174.104L344.645 201.719L344.395 203.151L336.135 208.016L327.812 205.12C328.442 204.828 329.104 204.651 329.796 204.594ZM329.796 204.594C329.104 204.646 328.442 204.813 327.812 205.094L322.447 203.24L320.145 201.255L329.796 204.594ZM329.796 204.594L334.572 206.255L336.041 206.766L337.031 207.109C337.281 206.557 337.604 206.057 338.005 205.609C338.906 204.547 340.041 203.87 341.411 203.583C341.843 203.49 342.281 203.448 342.723 203.453H343.223L343.395 202.401L347.656 177.521L349.38 174.104L344.645 201.719L344.395 203.151L336.135 208.016L327.812 205.12C328.442 204.828 329.104 204.651 329.796 204.594ZM329.796 204.594C329.104 204.646 328.442 204.813 327.812 205.094L322.447 203.24L320.145 201.255L329.796 204.594ZM329.796 204.594L334.572 206.255L336.041 206.766L337.031 207.109C337.281 206.557 337.604 206.057 338.005 205.609C338.906 204.547 340.041 203.87 341.411 203.583C341.843 203.49 342.281 203.448 342.723 203.453H343.223L343.395 202.401L347.656 177.521L349.38 174.104L344.645 201.719L344.395 203.151L336.135 208.016L327.812 205.12C328.442 204.828 329.104 204.651 329.796 204.594ZM329.796 204.594C329.104 204.646 328.442 204.813 327.812 205.094L322.447 203.24L320.145 201.255L329.796 204.594ZM329.796 204.594L334.572 206.255L336.041 206.766L337.031 207.109C337.281 206.557 337.604 206.057 338.005 205.609C338.906 204.547 340.041 203.87 341.411 203.583C341.843 203.49 342.281 203.448 342.723 203.453H343.223L343.395 202.401L347.656 177.521L349.38 174.104L344.645 201.719L344.395 203.151L336.135 208.016L327.812 205.12C328.442 204.828 329.104 204.651 329.796 204.594ZM329.796 204.594C329.104 204.646 328.442 204.813 327.812 205.094L322.447 203.24L320.145 201.255L329.796 204.594ZM329.796 204.594L334.572 206.255L336.041 206.766L337.031 207.109C337.281 206.557 337.604 206.057 338.005 205.609C338.906 204.547 340.041 203.87 341.411 203.583C341.843 203.49 342.281 203.448 342.723 203.453H343.223L343.395 202.401L347.656 177.521L349.38 174.104L344.645 201.719L344.395 203.151L336.135 208.016L327.812 205.12C328.442 204.828 329.104 204.651 329.796 204.594ZM329.796 204.594C329.104 204.646 328.442 204.813 327.812 205.094L322.447 203.24L320.145 201.255L329.796 204.594ZM329.796 204.594L334.572 206.255L336.041 206.766L337.031 207.109C337.281 206.557 337.604 206.057 338.005 205.609C338.906 204.547 340.041 203.87 341.411 203.583C341.843 203.49 342.281 203.448 342.723 203.453H343.223L343.395 202.401L347.656 177.521L349.38 174.104L344.645 201.719L344.395 203.151L336.135 208.016L327.812 205.12C328.442 204.828 329.104 204.651 329.796 204.594ZM329.796 204.594L334.572 206.255L336.041 206.766L337.031 207.109C337.281 206.557 337.604 206.057 338.005 205.609C338.906 204.547 340.041 203.87 341.411 203.583C341.843 203.49 342.281 203.448 342.723 203.453H343.223L343.395 202.401L344.708 201.662L344.458 203.099L336.202 207.964L327.88 205.068C328.489 204.802 329.13 204.646 329.796 204.594Z" fill="#3F2305"/>
</g>
</svg>
