<svg width="535" height="501" viewBox="0 0 535 501" fill="none" xmlns="http://www.w3.org/2000/svg">
<path d="M174.654 208.406C162.701 222.349 155.82 240.286 155.82 258.911H189.841C182.138 243.01 177.003 225.958 174.654 208.406Z" fill="#3F2305"/>
<path d="M224.711 293.359H310.82V310.578H224.711V293.359Z" fill="#3F2305"/>
<path d="M360.878 208.406C358.529 225.958 353.388 243.016 345.68 258.911H379.711C379.711 240.286 372.831 222.349 360.878 208.406Z" fill="#3F2305"/>
<path d="M258.336 207.246L251.445 276.137H284.086L277.195 207.246H258.336Z" fill="#3F2305"/>
<path d="M267.763 1.66016C251.617 10.3268 237.617 21.707 226.07 35.0195H309.461C297.914 21.707 283.909 10.3268 267.763 1.66016Z" fill="#3F2305"/>
<path d="M308.212 327.801H227.322C206.816 340.733 191.697 360.764 184.79 383.884C196.4 387.676 207.16 393.806 216.4 402.181C228.165 393.03 242.546 388.077 257.681 388.077H259.155V405.301H257.681C244.275 405.301 231.671 410.52 222.186 419.999L216.098 426.087L207.395 417.384C194.046 404.035 176.306 396.691 157.431 396.691C125.587 396.691 97.8789 417.837 89.3789 448.358H446.165C437.665 417.837 409.947 396.691 378.108 396.691C359.233 396.691 341.493 404.046 328.15 417.384L319.431 426.087L313.348 419.999C303.863 410.52 291.259 405.301 277.853 405.301H276.379V388.077H277.853C292.988 388.077 307.368 393.03 319.134 402.181C328.374 393.806 339.134 387.676 350.743 383.884C343.837 360.764 328.717 340.733 308.212 327.801Z" fill="#3F2305"/>
<path d="M224.714 95.3034C224.714 116.09 209.891 133.486 190.266 137.491V186.553C190.266 199.413 192.031 212.147 195.286 224.47H239.307L241.203 205.533C242.083 196.689 249.453 190.027 258.339 190.027H277.198C286.083 190.027 293.453 196.689 294.333 205.543L296.229 224.47H340.25C343.505 212.147 345.271 199.413 345.271 186.553V137.491C325.646 133.486 310.823 116.1 310.823 95.3034C310.823 81.6888 317.135 69.3294 327.615 61.2773C325.964 58.2044 324.188 55.194 322.302 52.2461H213.234C211.354 55.194 209.583 58.2044 207.922 61.2773C218.401 69.3294 224.714 81.6888 224.714 95.3034ZM267.766 95.3034C286.792 95.3034 302.214 110.725 302.214 129.746C302.214 148.767 286.792 164.194 267.766 164.194C248.745 164.194 233.323 148.767 233.323 129.746C233.323 110.725 248.745 95.3034 267.766 95.3034Z" fill="#3F2305"/>
<path d="M344.75 119.387C343.599 104.824 340.302 90.7826 335.151 77.5742C330.672 82.2721 328.047 88.5273 328.047 95.3034C328.047 106.324 335.01 115.684 344.75 119.387Z" fill="#3F2305"/>
<mask id="mask0_7595_10523" style="mask-type:luminance" maskUnits="userSpaceOnUse" x="16" y="430" width="500" height="71">
<path d="M16 430.332H516V500.348H16V430.332Z" fill="white"/>
</mask>
<g mask="url(#mask0_7595_10523)">
<path d="M456.021 430.87C458.219 435.693 460.036 440.745 461.359 446.042L466.245 465.578H65.2917L70.1771 446.031C71.5 440.734 73.3177 435.672 75.5208 430.844C27.375 441.521 16.0469 453.042 16.0469 456.969C16.0469 471.583 104.188 500.026 265.766 500.026C427.349 500.026 515.49 471.583 515.49 456.969C515.49 453.318 503.927 441.557 456.021 430.87Z" fill="#3F2305"/>
</g>
<path d="M207.487 95.3034C207.487 88.5273 204.862 82.2721 200.393 77.5742C195.242 90.7878 191.945 104.835 190.789 119.387C200.523 115.684 207.487 106.324 207.487 95.3034Z" fill="#3F2305"/>
<path d="M220.312 276.134H234.141L237.589 241.691H201.016C205.906 253.915 212.323 265.551 220.312 276.134Z" fill="#3F2305"/>
<path d="M334.518 241.691H297.945L301.393 276.134H315.221C323.211 265.551 329.628 253.915 334.518 241.691Z" fill="#3F2305"/>
<path d="M276.38 129.746C276.38 130.314 276.323 130.871 276.214 131.428C276.104 131.98 275.938 132.522 275.724 133.043C275.505 133.564 275.24 134.059 274.927 134.533C274.615 135.001 274.255 135.434 273.859 135.835C273.458 136.236 273.021 136.595 272.552 136.908C272.083 137.22 271.583 137.486 271.062 137.704C270.542 137.918 270 138.085 269.448 138.194C268.896 138.303 268.333 138.355 267.766 138.361C267.203 138.355 266.641 138.303 266.089 138.194C265.531 138.085 264.995 137.918 264.474 137.704C263.948 137.486 263.453 137.22 262.984 136.908C262.516 136.595 262.078 136.236 261.677 135.835C261.281 135.434 260.922 135.001 260.609 134.533C260.292 134.059 260.031 133.564 259.812 133.043C259.594 132.522 259.432 131.98 259.323 131.428C259.214 130.871 259.156 130.314 259.156 129.746C259.156 129.184 259.214 128.621 259.323 128.069C259.432 127.512 259.594 126.975 259.812 126.449C260.031 125.928 260.292 125.434 260.609 124.965C260.922 124.491 261.281 124.059 261.677 123.658C262.078 123.257 262.516 122.902 262.984 122.585C263.453 122.272 263.948 122.007 264.474 121.793C264.995 121.574 265.531 121.413 266.089 121.303C266.641 121.189 267.203 121.137 267.766 121.137C268.333 121.137 268.896 121.189 269.448 121.303C270 121.413 270.542 121.574 271.062 121.793C271.583 122.007 272.083 122.272 272.552 122.585C273.021 122.902 273.458 123.257 273.859 123.658C274.255 124.059 274.615 124.491 274.927 124.965C275.24 125.434 275.505 125.928 275.724 126.449C275.938 126.975 276.104 127.512 276.214 128.069C276.323 128.621 276.38 129.184 276.38 129.746Z" fill="#3F2305"/>
<path d="M78.3229 405.301V233.077H95.5469L61.099 181.41L26.6562 233.077H43.8802V405.301H78.3229Z" fill="#3F2305"/>
<path d="M35.2656 17.8008H52.4896V35.0195H35.2656V17.8008Z" fill="#3F2305"/>
<mask id="mask1_7595_10523" style="mask-type:luminance" maskUnits="userSpaceOnUse" x="0" y="0" width="192" height="156">
<path d="M0.820312 0.347656H191.331V155.665H0.820312V0.347656Z" fill="white"/>
</mask>
<g mask="url(#mask1_7595_10523)">
<path d="M112.763 121.135C117.508 121.135 121.378 124.995 121.378 129.745C121.378 134.5 117.508 138.359 112.763 138.359H69.7109V155.578H112.763C127.008 155.578 138.596 143.99 138.596 129.745C138.596 115.505 127.008 103.911 112.763 103.911H26.6536C21.9089 103.911 18.0443 100.052 18.0443 95.3021C18.0443 90.5469 21.9089 86.6875 26.6536 86.6875H129.987C144.232 86.6875 155.82 75.099 155.82 60.8542C155.82 46.6146 144.232 35.0208 129.987 35.0208H95.5443C90.7995 35.0208 86.9297 31.1667 86.9297 26.4115C86.9297 21.6562 90.7995 17.8021 95.5443 17.8021H190.263V0.578125H95.5443C81.2995 0.578125 69.7109 12.1667 69.7109 26.4115C69.7109 40.6562 81.2995 52.2448 95.5443 52.2448H129.987C134.732 52.2448 138.596 56.1042 138.596 60.8542C138.596 65.6094 134.732 69.4688 129.987 69.4688H26.6536C12.4089 69.4688 0.820312 81.0573 0.820312 95.3021C0.820312 109.542 12.4089 121.135 26.6536 121.135H112.763Z" fill="#3F2305"/>
</g>
<path d="M35.2656 138.359H52.4896V155.578H35.2656V138.359Z" fill="#3F2305"/>
<path d="M439.988 233.077H457.212V405.301H491.655V233.077H508.879L474.436 181.41L439.988 233.077Z" fill="#3F2305"/>
<path d="M483.047 17.8008H500.271V35.0195H483.047V17.8008Z" fill="#3F2305"/>
<mask id="mask2_7595_10523" style="mask-type:luminance" maskUnits="userSpaceOnUse" x="344" y="0" width="191" height="156">
<path d="M344.664 0.347656H534.82V155.665H344.664V0.347656Z" fill="white"/>
</mask>
<g mask="url(#mask2_7595_10523)">
<path d="M508.879 69.4688H405.546C400.801 69.4688 396.936 65.6094 396.936 60.8542C396.936 56.1042 400.801 52.2448 405.546 52.2448H439.988C454.233 52.2448 465.822 40.6562 465.822 26.4115C465.822 12.1667 454.233 0.578125 439.988 0.578125H345.27V17.8021H439.988C444.733 17.8021 448.603 21.6562 448.603 26.4115C448.603 31.1667 444.733 35.0208 439.988 35.0208H405.546C391.301 35.0208 379.712 46.6146 379.712 60.8542C379.712 75.099 391.301 86.6875 405.546 86.6875H508.879C513.624 86.6875 517.488 90.5469 517.488 95.3021C517.488 100.052 513.624 103.911 508.879 103.911H422.77C408.525 103.911 396.936 115.505 396.936 129.745C396.936 143.99 408.525 155.578 422.77 155.578H465.822V138.359H422.77C418.025 138.359 414.155 134.5 414.155 129.745C414.155 124.995 418.025 121.135 422.77 121.135H508.879C523.124 121.135 534.712 109.542 534.712 95.3021C534.712 81.0573 523.124 69.4688 508.879 69.4688Z" fill="#3F2305"/>
</g>
<path d="M483.047 138.359H500.271V155.578H483.047V138.359Z" fill="#3F2305"/>
</svg>
