<svg width="1920" height="188" viewBox="0 0 1920 188" fill="none" xmlns="http://www.w3.org/2000/svg">
<path d="M1504.95 263.876L1319.88 151.017L1332.23 102.199L1544.58 149.835L1616.43 26.4805L1616.91 26.7617L1544.85 150.475L1544.66 150.428L1332.63 102.866L1320.53 150.751L1505.24 263.397L1504.95 263.876Z" fill="#3F2305"/>
<path d="M1544.72 150.434L1544.7 149.876L1811.37 140.96L1847.08 126.934L1847.28 127.454L1811.48 141.522H1811.44L1544.72 150.434Z" fill="#3F2305"/>
<path d="M1368.7 312.354L1293.49 247.859L1154.54 263.927L1154.45 263.875L1062.7 207.458L877.401 286.188L877.328 286.177L606.292 251.432L359.786 209.38V209.151L356.531 20.9844L357.005 21.3906L498.672 143.99L710.318 170.51L882.083 95.7292L882.203 95.8073L1062.75 206.828L1165.25 163.276L1165.38 163.359L1293.69 247.307L1504.9 263.344L1544.48 149.953L1544.6 149.901L1703.54 80.3906L1765.45 91.9688L1891.27 47.8646L1891.45 48.3906L1765.49 92.5365L1703.6 80.9688L1544.93 150.359L1505.56 263.151L1811.32 140.984L1811.53 141.5L1505.31 263.854L1505.29 263.938L1505.13 263.927L1368.7 312.359V312.354ZM1294.41 247.917L1368.82 311.719L1503.76 263.818L1294.41 247.917ZM360.328 208.911L606.37 250.885L877.323 285.615L1062.11 207.099L882.031 96.3594L710.391 171.089L710.312 171.078L498.422 144.526L498.359 144.469L357.104 22.224L360.328 208.906V208.911ZM1063.32 207.188L1154.66 263.354L1292.79 247.385L1165.19 163.906L1063.32 207.188H1063.32Z" fill="#3F2305"/>
<path d="M638.557 472.941L562.625 343.322L370.719 309.504L371.005 309.139L498.328 144.082L498.771 144.426L371.734 309.113L562.979 342.816L563.047 342.931L639.036 472.66L638.557 472.941Z" fill="#3F2305"/>
<path d="M638.786 473.087L638.708 473.066L286.088 355.431L79.7598 309.348L80.7858 309.04L274.63 250.884L359.932 208.884L498.604 143.915L498.744 144.056L606.343 250.78L710.343 170.447L710.51 170.566L877.437 285.608L1154.48 263.363L1293.4 138.155L1332.26 102.301L1332.29 102.28L1498.83 10.9883L1498.92 10.9987L1616.77 26.3529L1616.82 26.3841L1703.72 80.4414L1811.6 141.014L1811.63 141.04L1847.38 176.546L1846.98 176.941L1811.26 141.467L1703.44 80.9258L1616.57 26.8945L1499.29 11.6185L1544.97 150.072L1628.29 340.358L1627.8 340.306L1368.77 312.327L967.687 394.124L638.775 473.098L638.786 473.087ZM81.9733 309.27L286.239 354.895L638.807 472.509L967.567 393.566L1368.75 311.754H1368.79L1627.39 339.691L1544.46 150.27L1498.73 11.6862L1332.6 102.764L1293.78 138.572L1154.72 263.91H1154.62L877.286 286.186L877.203 286.129L710.364 171.15L606.301 251.53L498.489 144.598L360.171 209.4L274.827 251.41L81.9629 309.275L81.9733 309.27Z" fill="#3F2305"/>
<path d="M1320.21 151.161V150.599L1544.68 149.875L1765.56 91.9375L1765.68 92.0625L1811.64 141.047L1811.22 141.427L1765.38 92.5625L1544.75 150.432H1544.71L1320.21 151.161Z" fill="#3F2305"/>
<path d="M1504.79 263.158L1765.35 92.0586L1765.66 92.5273L1505.09 263.621L1504.79 263.158Z" fill="#3F2305"/>
<path d="M967.662 394.12L967.615 393.562L1627.72 339.75L1927.56 91.0938L1927.91 91.526L1627.95 340.292L1627.86 340.297L967.662 394.12Z" fill="#3F2305"/>
<path d="M638.729 473.467C638.312 473.467 637.864 472.504 632.801 438.582C630.051 420.165 626.322 394.488 621.723 362.249C614.192 309.478 606.729 256.035 606.093 251.499L371.187 309.608L371.083 309.546L274.598 251.4L69.1816 190.785L69.5514 190.452L184.088 86.7487L184.14 86.7331L357.286 21.1133L275.057 251.025L371.275 309.004L606.557 250.801L606.604 251.108C616.749 323.842 635.953 459.598 638.708 472.108C646.005 456.087 867.614 292.723 877.203 285.665L877.416 285.509L967.718 393.483L1052.44 350.931L1293.36 247.358L1319.84 151.181L1165.49 163.837L1154.88 263.66L1154.33 263.598L1164.98 163.316L1165.21 163.301L1320.59 150.561L1320.48 150.947L1293.83 247.764L1293.71 247.816L1052.67 351.436L967.572 394.176L967.432 394.009L877.328 286.264C869.025 292.384 639.088 462.025 639.088 472.785C639.088 473.077 639.088 473.436 638.775 473.457C638.765 473.457 638.744 473.457 638.734 473.457L638.729 473.467ZM70.2962 190.54L274.541 250.811L356.348 22.0768L184.38 87.2487L70.2858 190.54H70.2962Z" fill="#3F2305"/>
<path d="M1627.56 339.957L1703.62 80.707L1704.16 80.8633L1628.1 340.118L1627.56 339.957Z" fill="#3F2305"/>
<path d="M881.922 96.5925L865.922 37.8633L866.464 37.7174L882.198 95.4935L963.823 10.2383L964.224 10.6237L881.922 96.5925Z" fill="#3F2305"/>
<path d="M400.225 232.418L400.037 232.21L498.49 144.126L498.532 144.121L882.037 95.9023L882.079 96.1836L498.61 144.392L400.225 232.418Z" fill="#3F2305"/>
<path d="M638.5 473.074L638.672 472.741L763.729 228.767L770.724 212.767L606.339 251.298H606.318L400.229 232.465L371.438 304.371L517.974 311.897L517.958 312.178L371.026 304.626L371.099 304.449L399.917 232.486L274.641 251.314L274.594 251.23L183.828 86.5586L184.318 86.8971L360.141 209.033L400.188 232.189L606.323 251.017L770.896 212.444L882.219 95.6888L880.422 168.168L949.443 140.257L949.552 140.512L880.417 168.465L877.516 285.809L993.229 328.934L1155.35 263.189L1052.59 351.361L1052.51 351.329L993.229 329.236L638.505 473.079L638.5 473.074ZM771.062 212.678L763.984 228.887L639.094 472.538L992.833 329.09L877.219 285.996L880.125 168.579L771.062 212.678ZM993.604 329.079L1052.52 351.033L1153.86 264.09L993.604 329.079ZM184.651 87.4648L274.792 251.001L399.714 232.236L359.984 209.267L184.646 87.4648H184.651ZM881.911 96.3971L771.505 212.189L880.13 168.272L881.911 96.3971Z" fill="#3F2305"/>
<path d="M1627.87 340.203L1627.77 340.141L1505.02 263.755L1332.4 102.693L1165.24 163.734L1165.19 163.724L882.027 96.1823L357.865 21.8958L710.433 170.677L710.459 170.703L763.954 228.729L763.751 228.922L710.271 170.911L355.771 21.3125L356.834 21.4635L882.079 95.901L1165.22 163.443L1332.46 102.365L1332.53 102.427L1505.19 263.536L1627.81 339.839L1800.16 141.146L1800.37 141.328L1627.87 340.203Z" fill="#3F2305"/>
<path d="M968.25 385.991L606.396 251.335L562.859 343.283L562.729 343.189L517.719 312.038L517.885 311.923L606.219 251.064L606.234 251.033H606.276L606.312 251.001L606.344 251.012L763.88 228.689L763.922 228.71L877.302 285.72L949.411 140.241L949.505 140.251L1165.22 163.454L1293.6 138.23L1293.65 138.246L1320.27 150.762L1320.15 151.017L1293.57 138.517L1165.23 163.741H1165.21L949.568 140.543L877.422 286.1L877.297 286.038L763.828 228.991L606.885 251.23L968.344 385.741L968.25 386.001V385.991ZM518.203 312.038L562.75 342.866L605.974 251.569L518.208 312.038H518.203Z" fill="#3F2305"/>
<path d="M1365.02 320.686L1364.94 320.665L1154.57 263.77L1154.64 263.499L1364.94 320.374L1544.1 150.535L1293.45 247.775V138.363H1293.73V247.368L1545.32 149.764L1544.81 150.254L1365.02 320.686Z" fill="#3F2305"/>
<path d="M1332.43 102.667L882.053 96.1823L882.037 95.901L1498.87 11.1406L1498.91 11.4219L883.907 95.9271L1332.43 102.391V102.667Z" fill="#3F2305"/>
<path d="M184.178 87.1341L184.23 86.8633L498.548 144.098L498.495 144.368L184.178 87.1341Z" fill="#3F2305"/>
<path d="M15.3438 136.621C15.3438 137.35 15.2708 138.079 15.1302 138.798C14.9844 139.517 14.776 140.215 14.4948 140.892C14.2135 141.574 13.8698 142.215 13.4635 142.824C13.0521 143.434 12.5885 144.001 12.0729 144.517C11.5521 145.038 10.9896 145.501 10.3802 145.908C9.77083 146.314 9.125 146.658 8.44792 146.939C7.77083 147.22 7.07292 147.434 6.35417 147.574C5.63021 147.72 4.90625 147.793 4.17188 147.793C3.4375 147.793 2.71354 147.72 1.99479 147.574C1.27604 147.434 0.572916 147.22 -0.104167 146.939C-0.78125 146.658 -1.42188 146.314 -2.03646 145.908C-2.64583 145.501 -3.20833 145.038 -3.72917 144.517C-4.24479 144.001 -4.70833 143.434 -5.11458 142.824C-5.52604 142.215 -5.86979 141.574 -6.14583 140.892C-6.42708 140.215 -6.64062 139.517 -6.78646 138.798C-6.92708 138.079 -7 137.35 -7 136.621C-7 135.887 -6.92708 135.158 -6.78646 134.439C-6.64062 133.72 -6.42708 133.022 -6.14583 132.345C-5.86979 131.668 -5.52604 131.022 -5.11458 130.413C-4.70833 129.803 -4.24479 129.241 -3.72917 128.72C-3.20833 128.199 -2.64583 127.736 -2.03646 127.329C-1.42188 126.923 -0.78125 126.579 -0.104167 126.298C0.572916 126.017 1.27604 125.803 1.99479 125.663C2.71354 125.517 3.4375 125.449 4.17188 125.449C4.90625 125.449 5.63021 125.517 6.35417 125.663C7.07292 125.803 7.77083 126.017 8.44792 126.298C9.125 126.579 9.77083 126.923 10.3802 127.329C10.9896 127.736 11.5521 128.199 12.0729 128.72C12.5885 129.241 13.0521 129.803 13.4635 130.413C13.8698 131.022 14.2135 131.668 14.4948 132.345C14.776 133.022 14.9844 133.72 15.1302 134.439C15.2708 135.158 15.3438 135.887 15.3438 136.621Z" fill="#3F2305"/>
<path d="M80.9062 190.667C80.9062 191.401 80.8333 192.13 80.6927 192.849C80.5469 193.568 80.3385 194.266 80.0573 194.943C79.776 195.62 79.4323 196.266 79.026 196.875C78.6146 197.484 78.151 198.047 77.6354 198.568C77.1146 199.089 76.5521 199.552 75.9427 199.958C75.3333 200.365 74.6875 200.708 74.0104 200.99C73.3333 201.271 72.6354 201.484 71.9167 201.625C71.1979 201.771 70.4688 201.839 69.7344 201.839C69 201.839 68.276 201.771 67.5573 201.625C66.8385 201.484 66.1406 201.271 65.4583 200.99C64.7812 200.708 64.1406 200.365 63.5312 199.958C62.9219 199.552 62.3542 199.089 61.8385 198.568C61.3177 198.047 60.8542 197.484 60.4479 196.875C60.0417 196.266 59.6979 195.62 59.4167 194.943C59.1354 194.266 58.9219 193.568 58.7812 192.849C58.6354 192.13 58.5625 191.401 58.5625 190.667C58.5625 189.938 58.6354 189.208 58.7812 188.49C58.9219 187.771 59.1354 187.073 59.4167 186.396C59.6979 185.714 60.0417 185.073 60.4479 184.464C60.8542 183.854 61.3177 183.286 61.8385 182.771C62.3542 182.25 62.9219 181.786 63.5312 181.38C64.1406 180.974 64.7812 180.63 65.4583 180.349C66.1406 180.068 66.8385 179.854 67.5573 179.714C68.276 179.568 69 179.5 69.7344 179.5C70.4688 179.5 71.1979 179.568 71.9167 179.714C72.6354 179.854 73.3333 180.068 74.0104 180.349C74.6875 180.63 75.3333 180.974 75.9427 181.38C76.5521 181.786 77.1146 182.25 77.6354 182.771C78.151 183.286 78.6146 183.854 79.026 184.464C79.4323 185.073 79.776 185.714 80.0573 186.396C80.3385 187.073 80.5469 187.771 80.6927 188.49C80.8333 189.208 80.9062 189.938 80.9062 190.667Z" fill="#3F2305"/>
<path d="M1304.76 138.366C1304.76 139.1 1304.69 139.829 1304.55 140.548C1304.4 141.267 1304.19 141.965 1303.91 142.642C1303.63 143.319 1303.29 143.965 1302.88 144.574C1302.47 145.184 1302 145.751 1301.49 146.267C1300.97 146.788 1300.41 147.251 1299.8 147.658C1299.19 148.064 1298.54 148.408 1297.86 148.689C1297.19 148.97 1296.49 149.184 1295.77 149.324C1295.05 149.47 1294.32 149.538 1293.59 149.538C1292.85 149.538 1292.13 149.47 1291.41 149.324C1290.69 149.184 1289.99 148.97 1289.31 148.689C1288.63 148.408 1287.99 148.064 1287.38 147.658C1286.77 147.251 1286.21 146.788 1285.69 146.267C1285.17 145.751 1284.71 145.184 1284.3 144.574C1283.9 143.965 1283.55 143.319 1283.27 142.642C1282.99 141.965 1282.78 141.267 1282.63 140.548C1282.49 139.829 1282.42 139.1 1282.42 138.366C1282.42 137.637 1282.49 136.908 1282.63 136.189C1282.78 135.47 1282.99 134.772 1283.27 134.095C1283.55 133.418 1283.9 132.772 1284.3 132.163C1284.71 131.553 1285.17 130.986 1285.69 130.47C1286.21 129.949 1286.77 129.486 1287.38 129.079C1287.99 128.673 1288.63 128.329 1289.31 128.048C1289.99 127.767 1290.69 127.553 1291.41 127.413C1292.13 127.267 1292.85 127.199 1293.59 127.199C1294.32 127.199 1295.05 127.267 1295.77 127.413C1296.49 127.553 1297.19 127.767 1297.86 128.048C1298.54 128.329 1299.19 128.673 1299.8 129.079C1300.41 129.486 1300.97 129.949 1301.49 130.47C1302 130.986 1302.47 131.553 1302.88 132.163C1303.29 132.772 1303.63 133.418 1303.91 134.095C1304.19 134.772 1304.4 135.47 1304.55 136.189C1304.69 136.908 1304.76 137.637 1304.76 138.366Z" fill="#3F2305"/>
<mask id="mask0_7595_10527" style="mask-type:luminance" maskUnits="userSpaceOnUse" x="1487" y="0" width="25" height="23">
<path d="M1487.07 0.109375H1511.07V22.6667H1487.07V0.109375Z" fill="white"/>
</mask>
<g mask="url(#mask0_7595_10527)">
<path d="M1510.06 11.2812C1510.06 12.0156 1509.99 12.7396 1509.85 13.4583C1509.7 14.1823 1509.49 14.8802 1509.21 15.5573C1508.93 16.2344 1508.58 16.8802 1508.17 17.4896C1507.77 18.099 1507.3 18.6615 1506.79 19.1823C1506.27 19.6979 1505.7 20.1615 1505.1 20.5677C1504.48 20.9792 1503.84 21.3229 1503.16 21.6042C1502.49 21.8802 1501.79 22.0938 1501.06 22.2396C1500.35 22.3802 1499.62 22.4531 1498.89 22.4531C1498.15 22.4531 1497.43 22.3802 1496.71 22.2396C1495.99 22.0938 1495.29 21.8802 1494.61 21.6042C1493.93 21.3229 1493.29 20.9792 1492.68 20.5677C1492.07 20.1615 1491.51 19.6979 1490.99 19.1823C1490.47 18.6615 1490.01 18.099 1489.6 17.4896C1489.19 16.8802 1488.85 16.2344 1488.56 15.5573C1488.28 14.8802 1488.07 14.1823 1487.93 13.4583C1487.79 12.7396 1487.71 12.0156 1487.71 11.2812C1487.71 10.5469 1487.79 9.82292 1487.93 9.10417C1488.07 8.38021 1488.28 7.68229 1488.56 7.00521C1488.85 6.32813 1489.19 5.68229 1489.6 5.07292C1490.01 4.46354 1490.47 3.90104 1490.99 3.38021C1491.51 2.86458 1492.07 2.40104 1492.68 1.99479C1493.29 1.58333 1493.93 1.23958 1494.61 0.958333C1495.29 0.677083 1495.99 0.468749 1496.71 0.322917C1497.43 0.182291 1498.15 0.109375 1498.89 0.109375C1499.62 0.109375 1500.35 0.182291 1501.06 0.322917C1501.79 0.468749 1502.49 0.677083 1503.16 0.958333C1503.84 1.23958 1504.48 1.58333 1505.1 1.99479C1505.7 2.40104 1506.27 2.86458 1506.79 3.38021C1507.3 3.90104 1507.77 4.46354 1508.17 5.07292C1508.58 5.68229 1508.93 6.32813 1509.21 7.00521C1509.49 7.68229 1509.7 8.38021 1509.85 9.10417C1509.99 9.82292 1510.06 10.5469 1510.06 11.2812Z" fill="#3F2305"/>
</g>
<path d="M1627.84 26.6211C1627.84 27.3555 1627.76 28.0846 1627.62 28.8034C1627.48 29.5221 1627.26 30.2201 1626.99 30.8971C1626.71 31.5742 1626.36 32.2201 1625.95 32.8294C1625.55 33.4388 1625.08 34.0013 1624.57 34.5221C1624.05 35.043 1623.48 35.5013 1622.87 35.9128C1622.26 36.319 1621.62 36.6628 1620.94 36.944C1620.26 37.2253 1619.57 37.4336 1618.84 37.5794C1618.12 37.7201 1617.4 37.793 1616.67 37.793C1615.93 37.793 1615.21 37.7201 1614.48 37.5794C1613.76 37.4336 1613.07 37.2253 1612.39 36.944C1611.71 36.6628 1611.07 36.319 1610.46 35.9128C1609.85 35.5013 1609.29 35.043 1608.76 34.5221C1608.25 34.0013 1607.79 33.4388 1607.37 32.8294C1606.97 32.2201 1606.62 31.5742 1606.34 30.8971C1606.06 30.2201 1605.85 29.5221 1605.71 28.8034C1605.57 28.0846 1605.49 27.3555 1605.49 26.6211C1605.49 25.8867 1605.57 25.1628 1605.71 24.444C1605.85 23.7253 1606.06 23.0273 1606.34 22.3451C1606.62 21.668 1606.97 21.0273 1607.37 20.418C1607.79 19.8086 1608.25 19.2409 1608.76 18.7253C1609.29 18.2044 1609.85 17.7409 1610.46 17.3346C1611.07 16.9284 1611.71 16.5846 1612.39 16.3034C1613.07 16.0221 1613.76 15.8086 1614.48 15.668C1615.21 15.5221 1615.93 15.4492 1616.67 15.4492C1617.4 15.4492 1618.12 15.5221 1618.84 15.668C1619.57 15.8086 1620.26 16.0221 1620.94 16.3034C1621.62 16.5846 1622.26 16.9284 1622.87 17.3346C1623.48 17.7409 1624.05 18.2044 1624.57 18.7253C1625.08 19.2409 1625.55 19.8086 1625.95 20.418C1626.36 21.0273 1626.71 21.668 1626.99 22.3451C1627.26 23.0273 1627.48 23.7253 1627.62 24.444C1627.76 25.1628 1627.84 25.8867 1627.84 26.6211Z" fill="#3F2305"/>
<path d="M1776.64 92.25C1776.64 92.9844 1776.57 93.7135 1776.43 94.4323C1776.28 95.151 1776.07 95.849 1775.79 96.526C1775.51 97.2031 1775.17 97.849 1774.76 98.4583C1774.35 99.0677 1773.89 99.6302 1773.37 100.151C1772.85 100.672 1772.29 101.13 1771.68 101.542C1771.06 101.948 1770.42 102.292 1769.74 102.573C1769.07 102.854 1768.36 103.062 1767.65 103.208C1766.93 103.349 1766.2 103.422 1765.47 103.422C1764.73 103.422 1764.01 103.349 1763.29 103.208C1762.57 103.062 1761.87 102.854 1761.19 102.573C1760.52 102.292 1759.87 101.948 1759.26 101.542C1758.65 101.13 1758.09 100.672 1757.57 100.151C1757.05 99.6302 1756.59 99.0677 1756.18 98.4583C1755.77 97.849 1755.43 97.2031 1755.15 96.526C1754.86 95.849 1754.66 95.151 1754.51 94.4323C1754.37 93.7135 1754.3 92.9844 1754.3 92.25C1754.3 91.5156 1754.37 90.7917 1754.51 90.0729C1754.66 89.3542 1754.86 88.6563 1755.15 87.974C1755.43 87.2969 1755.77 86.6563 1756.18 86.0469C1756.59 85.4375 1757.05 84.8698 1757.57 84.3542C1758.09 83.8333 1758.65 83.3698 1759.26 82.9635C1759.87 82.5573 1760.52 82.2135 1761.19 81.9323C1761.87 81.651 1762.57 81.4375 1763.29 81.2969C1764.01 81.151 1764.73 81.0781 1765.47 81.0781C1766.2 81.0781 1766.93 81.151 1767.65 81.2969C1768.36 81.4375 1769.07 81.651 1769.74 81.9323C1770.42 82.2135 1771.06 82.5573 1771.68 82.9635C1772.29 83.3698 1772.85 83.8333 1773.37 84.3542C1773.89 84.8698 1774.35 85.4375 1774.76 86.0469C1775.17 86.6563 1775.51 87.2969 1775.79 87.974C1776.07 88.6563 1776.28 89.3542 1776.43 90.0729C1776.57 90.7917 1776.64 91.5156 1776.64 92.25Z" fill="#3F2305"/>
<path d="M1714.74 80.6758C1714.74 81.4102 1714.67 82.1341 1714.53 82.8581C1714.38 83.5768 1714.17 84.2747 1713.89 84.9518C1713.61 85.6289 1713.26 86.2747 1712.86 86.8841C1712.45 87.4935 1711.99 88.056 1711.47 88.5768C1710.95 89.0924 1710.38 89.556 1709.78 89.9674C1709.17 90.3737 1708.53 90.7174 1707.84 90.9987C1707.17 91.2799 1706.47 91.4883 1705.75 91.6341C1705.03 91.7747 1704.31 91.8477 1703.57 91.8477C1702.84 91.8477 1702.11 91.7747 1701.39 91.6341C1700.67 91.4883 1699.97 91.2799 1699.3 90.9987C1698.62 90.7174 1697.97 90.3737 1697.36 89.9674C1696.75 89.556 1696.19 89.0924 1695.67 88.5768C1695.15 88.056 1694.69 87.4935 1694.28 86.8841C1693.87 86.2747 1693.53 85.6289 1693.25 84.9518C1692.97 84.2747 1692.76 83.5768 1692.61 82.8581C1692.47 82.1341 1692.4 81.4102 1692.4 80.6758C1692.4 79.9414 1692.47 79.2174 1692.61 78.4987C1692.76 77.7799 1692.97 77.0768 1693.25 76.3997C1693.53 75.7227 1693.87 75.082 1694.28 74.4727C1694.69 73.8581 1695.15 73.2956 1695.67 72.7799C1696.19 72.2591 1696.75 71.7956 1697.36 71.3893C1697.97 70.9831 1698.62 70.6341 1699.3 70.3581C1699.97 70.0768 1700.67 69.8633 1701.39 69.7227C1702.11 69.5768 1702.84 69.5039 1703.57 69.5039C1704.31 69.5039 1705.03 69.5768 1705.75 69.7227C1706.47 69.8633 1707.17 70.0768 1707.84 70.3581C1708.53 70.6341 1709.17 70.9831 1709.78 71.3893C1710.38 71.7956 1710.95 72.2591 1711.47 72.7799C1711.99 73.2956 1712.45 73.8581 1712.86 74.4727C1713.26 75.082 1713.61 75.7227 1713.89 76.3997C1714.17 77.0768 1714.38 77.7799 1714.53 78.4987C1714.67 79.2174 1714.74 79.9414 1714.74 80.6758Z" fill="#3F2305"/>
<path d="M1343.6 102.526C1343.6 103.26 1343.53 103.99 1343.38 104.708C1343.24 105.427 1343.03 106.125 1342.75 106.802C1342.47 107.479 1342.12 108.125 1341.72 108.734C1341.31 109.344 1340.85 109.911 1340.33 110.427C1339.81 110.948 1339.24 111.411 1338.63 111.818C1338.03 112.224 1337.38 112.568 1336.7 112.849C1336.03 113.13 1335.33 113.344 1334.61 113.484C1333.89 113.63 1333.16 113.698 1332.43 113.698C1331.7 113.698 1330.97 113.63 1330.25 113.484C1329.53 113.344 1328.83 113.13 1328.16 112.849C1327.47 112.568 1326.83 112.224 1326.22 111.818C1325.61 111.411 1325.05 110.948 1324.53 110.427C1324.01 109.911 1323.55 109.344 1323.14 108.734C1322.73 108.125 1322.39 107.479 1322.11 106.802C1321.83 106.125 1321.61 105.427 1321.47 104.708C1321.33 103.99 1321.26 103.26 1321.26 102.526C1321.26 101.797 1321.33 101.068 1321.47 100.349C1321.61 99.6302 1321.83 98.9323 1322.11 98.2552C1322.39 97.5781 1322.73 96.9323 1323.14 96.3229C1323.55 95.7135 1324.01 95.1458 1324.53 94.6302C1325.05 94.1094 1325.61 93.6458 1326.22 93.2396C1326.83 92.8333 1327.47 92.4896 1328.16 92.2083C1328.83 91.9271 1329.53 91.7135 1330.25 91.5729C1330.97 91.4271 1331.7 91.3594 1332.43 91.3594C1333.16 91.3594 1333.89 91.4271 1334.61 91.5729C1335.33 91.7135 1336.03 91.9271 1336.7 92.2083C1337.38 92.4896 1338.03 92.8333 1338.63 93.2396C1339.24 93.6458 1339.81 94.1094 1340.33 94.6302C1340.85 95.1458 1341.31 95.7135 1341.72 96.3229C1342.12 96.9323 1342.47 97.5781 1342.75 98.2552C1343.03 98.9323 1343.24 99.6302 1343.38 100.349C1343.53 101.068 1343.6 101.797 1343.6 102.526Z" fill="#3F2305"/>
<path d="M721.526 170.797C721.526 171.531 721.458 172.255 721.312 172.974C721.172 173.698 720.958 174.396 720.677 175.073C720.396 175.75 720.052 176.391 719.646 177.005C719.24 177.615 718.776 178.177 718.255 178.698C717.734 179.214 717.172 179.677 716.562 180.083C715.953 180.495 715.307 180.839 714.63 181.12C713.953 181.396 713.255 181.609 712.536 181.755C711.818 181.896 711.089 181.969 710.354 181.969C709.625 181.969 708.896 181.896 708.177 181.755C707.458 181.609 706.76 181.396 706.083 181.12C705.401 180.839 704.76 180.495 704.151 180.083C703.542 179.677 702.974 179.214 702.458 178.698C701.938 178.177 701.474 177.615 701.068 177.005C700.661 176.391 700.318 175.75 700.036 175.073C699.755 174.396 699.542 173.698 699.401 172.974C699.255 172.255 699.188 171.531 699.188 170.797C699.188 170.063 699.255 169.339 699.401 168.615C699.542 167.896 699.755 167.198 700.036 166.521C700.318 165.844 700.661 165.198 701.068 164.589C701.474 163.979 701.938 163.417 702.458 162.896C702.974 162.38 703.542 161.917 704.151 161.51C704.76 161.099 705.401 160.755 706.083 160.474C706.76 160.193 707.458 159.984 708.177 159.839C708.896 159.698 709.625 159.625 710.354 159.625C711.089 159.625 711.818 159.698 712.536 159.839C713.255 159.984 713.953 160.193 714.63 160.474C715.307 160.755 715.953 161.099 716.562 161.51C717.172 161.917 717.734 162.38 718.255 162.896C718.776 163.417 719.24 163.979 719.646 164.589C720.052 165.198 720.396 165.844 720.677 166.521C720.958 167.198 721.172 167.896 721.312 168.615C721.458 169.339 721.526 170.063 721.526 170.797Z" fill="#3F2305"/>
<path d="M509.725 144.257C509.725 144.991 509.652 145.72 509.506 146.439C509.365 147.158 509.152 147.855 508.87 148.533C508.589 149.21 508.245 149.855 507.839 150.465C507.433 151.074 506.969 151.637 506.449 152.158C505.933 152.678 505.365 153.142 504.756 153.548C504.146 153.954 503.506 154.298 502.824 154.579C502.146 154.861 501.449 155.074 500.73 155.215C500.011 155.361 499.282 155.428 498.553 155.428C497.818 155.428 497.089 155.361 496.37 155.215C495.652 155.074 494.954 154.861 494.277 154.579C493.6 154.298 492.954 153.954 492.344 153.548C491.735 153.142 491.173 152.678 490.652 152.158C490.131 151.637 489.667 151.074 489.261 150.465C488.855 149.855 488.511 149.21 488.23 148.533C487.949 147.855 487.735 147.158 487.594 146.439C487.454 145.72 487.381 144.991 487.381 144.257C487.381 143.527 487.454 142.798 487.594 142.079C487.735 141.361 487.949 140.663 488.23 139.986C488.511 139.303 488.855 138.663 489.261 138.053C489.667 137.444 490.131 136.876 490.652 136.361C491.173 135.84 491.735 135.376 492.344 134.97C492.954 134.564 493.6 134.22 494.277 133.939C494.954 133.658 495.652 133.444 496.37 133.303C497.089 133.158 497.818 133.09 498.553 133.09C499.282 133.09 500.011 133.158 500.73 133.303C501.449 133.444 502.146 133.658 502.824 133.939C503.506 134.22 504.146 134.564 504.756 134.97C505.365 135.376 505.933 135.84 506.449 136.361C506.969 136.876 507.433 137.444 507.839 138.053C508.245 138.663 508.589 139.303 508.87 139.986C509.152 140.663 509.365 141.361 509.506 142.079C509.652 142.798 509.725 143.527 509.725 144.257Z" fill="#3F2305"/>
<path d="M107.115 63.7669C107.115 64.2357 107.074 64.6992 106.98 65.1523C106.891 65.6107 106.756 66.0586 106.579 66.4857C106.396 66.918 106.178 67.3294 105.923 67.7148C105.662 68.1003 105.365 68.4596 105.037 68.793C104.709 69.1211 104.35 69.418 103.959 69.6732C103.574 69.9336 103.162 70.1523 102.73 70.3294C102.303 70.5117 101.855 70.6419 101.402 70.7357C100.943 70.8242 100.48 70.8711 100.016 70.8711C99.5475 70.8711 99.084 70.8242 98.6309 70.7357C98.1725 70.6419 97.7246 70.5117 97.2975 70.3294C96.8652 70.1523 96.4538 69.9336 96.0684 69.6732C95.6777 69.418 95.3236 69.1211 94.9902 68.793C94.6621 68.4596 94.3652 68.1003 94.11 67.7148C93.8496 67.3294 93.6309 66.918 93.4538 66.4857C93.2715 66.0586 93.1413 65.6107 93.0475 65.1523C92.959 64.6992 92.9121 64.2357 92.9121 63.7669C92.9121 63.3034 92.959 62.8398 93.0475 62.3815C93.1413 61.9232 93.2715 61.4805 93.4538 61.0482C93.6309 60.6211 93.8496 60.2096 94.11 59.8242C94.3652 59.4336 94.6621 59.0742 94.9902 58.7461C95.3236 58.418 95.6777 58.1211 96.0684 57.8607C96.4538 57.6055 96.8652 57.3867 97.2975 57.2044C97.7246 57.0273 98.1725 56.8919 98.6309 56.8034C99.084 56.7096 99.5475 56.668 100.016 56.668C100.48 56.668 100.943 56.7096 101.402 56.8034C101.855 56.8919 102.303 57.0273 102.73 57.2044C103.162 57.3867 103.574 57.6055 103.959 57.8607C104.35 58.1211 104.709 58.418 105.037 58.7461C105.365 59.0742 105.662 59.4336 105.917 59.8242C106.178 60.2096 106.396 60.6211 106.579 61.0482C106.756 61.4805 106.891 61.9232 106.98 62.3815C107.074 62.8398 107.115 63.3034 107.115 63.7669Z" fill="#3F2305"/>
<path d="M191.338 87.0065C191.338 87.4701 191.291 87.9336 191.202 88.3919C191.109 88.8503 190.979 89.293 190.796 89.7253C190.619 90.1523 190.4 90.5638 190.14 90.9492C189.885 91.3398 189.588 91.6992 189.26 92.0273C188.926 92.3555 188.567 92.6523 188.182 92.9128C187.796 93.168 187.385 93.3867 186.952 93.569C186.525 93.7461 186.077 93.8815 185.619 93.9701C185.166 94.0638 184.702 94.1107 184.234 94.1107C183.77 94.1107 183.307 94.0638 182.848 93.9701C182.39 93.8815 181.947 93.7461 181.515 93.569C181.088 93.3867 180.676 93.168 180.291 92.9128C179.9 92.6523 179.541 92.3555 179.213 92.0273C178.885 91.6992 178.588 91.3398 178.327 90.9492C178.072 90.5638 177.854 90.1523 177.671 89.7253C177.494 89.293 177.359 88.8503 177.27 88.3919C177.176 87.9336 177.135 87.4701 177.135 87.0065C177.135 86.5378 177.176 86.0794 177.27 85.6211C177.359 85.1628 177.494 84.7201 177.671 84.2878C177.854 83.8555 178.072 83.4492 178.327 83.0586C178.588 82.6732 178.885 82.3138 179.213 81.9805C179.541 81.6523 179.9 81.3607 180.291 81.1003C180.676 80.8398 181.088 80.6211 181.515 80.444C181.947 80.2669 182.39 80.1315 182.848 80.0378C183.307 79.9492 183.77 79.9023 184.234 79.9023C184.702 79.9023 185.166 79.9492 185.619 80.0378C186.077 80.1315 186.525 80.2669 186.952 80.444C187.385 80.6211 187.796 80.8398 188.182 81.1003C188.567 81.3607 188.926 81.6523 189.26 81.9805C189.588 82.3138 189.885 82.6732 190.14 83.0586C190.4 83.4492 190.619 83.8555 190.796 84.2878C190.979 84.7201 191.109 85.1628 191.202 85.6211C191.291 86.0794 191.338 86.5378 191.338 87.0065Z" fill="#3F2305"/>
<path d="M956.593 140.382C956.593 140.845 956.546 141.309 956.452 141.767C956.364 142.225 956.229 142.668 956.051 143.1C955.874 143.527 955.656 143.939 955.395 144.324C955.135 144.715 954.843 145.074 954.51 145.402C954.182 145.73 953.822 146.027 953.437 146.288C953.046 146.543 952.64 146.762 952.208 146.944C951.775 147.121 951.333 147.257 950.874 147.345C950.416 147.439 949.958 147.48 949.489 147.48C949.02 147.48 948.562 147.439 948.104 147.345C947.645 147.257 947.202 147.121 946.77 146.944C946.338 146.762 945.932 146.543 945.541 146.288C945.156 146.027 944.796 145.73 944.468 145.402C944.135 145.074 943.843 144.715 943.583 144.324C943.322 143.939 943.104 143.527 942.926 143.1C942.749 142.668 942.614 142.225 942.52 141.767C942.432 141.309 942.385 140.845 942.385 140.382C942.385 139.913 942.432 139.454 942.52 138.996C942.614 138.538 942.749 138.095 942.926 137.663C943.104 137.23 943.322 136.824 943.583 136.434C943.843 136.048 944.135 135.689 944.468 135.355C944.796 135.027 945.156 134.736 945.541 134.475C945.932 134.215 946.338 133.996 946.77 133.819C947.202 133.642 947.645 133.507 948.104 133.413C948.562 133.324 949.02 133.277 949.489 133.277C949.958 133.277 950.416 133.324 950.874 133.413C951.333 133.507 951.775 133.642 952.208 133.819C952.64 133.996 953.046 134.215 953.437 134.475C953.822 134.736 954.182 135.027 954.51 135.355C954.843 135.689 955.135 136.048 955.395 136.434C955.656 136.824 955.874 137.23 956.051 137.663C956.229 138.095 956.364 138.538 956.452 138.996C956.546 139.454 956.593 139.913 956.593 140.382Z" fill="#3F2305"/>
<path d="M1172.33 163.589C1172.33 164.052 1172.28 164.516 1172.19 164.974C1172.1 165.432 1171.96 165.875 1171.79 166.307C1171.61 166.734 1171.39 167.146 1171.13 167.531C1170.87 167.922 1170.58 168.281 1170.24 168.609C1169.92 168.938 1169.56 169.234 1169.17 169.495C1168.78 169.75 1168.37 169.969 1167.94 170.151C1167.51 170.328 1167.07 170.464 1166.61 170.552C1166.15 170.646 1165.69 170.693 1165.22 170.693C1164.75 170.693 1164.3 170.646 1163.84 170.552C1163.38 170.464 1162.94 170.328 1162.5 170.151C1162.07 169.969 1161.67 169.75 1161.28 169.495C1160.89 169.234 1160.53 168.938 1160.2 168.609C1159.87 168.281 1159.58 167.922 1159.32 167.531C1159.06 167.146 1158.84 166.734 1158.66 166.307C1158.48 165.875 1158.35 165.432 1158.25 164.974C1158.17 164.516 1158.12 164.052 1158.12 163.589C1158.12 163.12 1158.17 162.661 1158.25 162.203C1158.35 161.745 1158.48 161.302 1158.66 160.87C1158.84 160.437 1159.06 160.031 1159.32 159.641C1159.58 159.255 1159.87 158.896 1160.2 158.562C1160.53 158.234 1160.89 157.943 1161.28 157.682C1161.67 157.422 1162.07 157.203 1162.5 157.026C1162.94 156.849 1163.38 156.714 1163.84 156.62C1164.3 156.531 1164.75 156.484 1165.22 156.484C1165.69 156.484 1166.15 156.531 1166.61 156.62C1167.07 156.714 1167.51 156.849 1167.94 157.026C1168.37 157.203 1168.78 157.422 1169.17 157.682C1169.56 157.943 1169.92 158.234 1170.24 158.562C1170.58 158.896 1170.87 159.255 1171.13 159.641C1171.39 160.031 1171.61 160.437 1171.79 160.87C1171.96 161.302 1172.1 161.745 1172.19 162.203C1172.28 162.661 1172.33 163.12 1172.33 163.589Z" fill="#3F2305"/>
<path d="M1397.38 99.4674C1397.38 99.931 1397.33 100.395 1397.24 100.853C1397.15 101.306 1397.02 101.754 1396.84 102.181C1396.66 102.613 1396.44 103.025 1396.18 103.41C1395.92 103.801 1395.63 104.155 1395.3 104.488C1394.97 104.816 1394.61 105.113 1394.22 105.368C1393.83 105.629 1393.42 105.848 1392.99 106.025C1392.56 106.207 1392.12 106.342 1391.66 106.431C1391.2 106.525 1390.74 106.566 1390.28 106.566C1389.81 106.566 1389.35 106.525 1388.89 106.431C1388.43 106.342 1387.99 106.207 1387.56 106.025C1387.12 105.848 1386.72 105.629 1386.33 105.368C1385.94 105.113 1385.58 104.816 1385.25 104.488C1384.92 104.155 1384.63 103.801 1384.37 103.41C1384.11 103.025 1383.89 102.613 1383.71 102.181C1383.53 101.754 1383.4 101.306 1383.31 100.853C1383.22 100.395 1383.17 99.931 1383.17 99.4674C1383.17 98.9987 1383.22 98.5352 1383.31 98.0768C1383.4 97.6237 1383.53 97.1758 1383.71 96.7487C1383.89 96.3164 1384.11 95.9049 1384.37 95.5195C1384.63 95.1289 1384.92 94.7747 1385.25 94.4414C1385.58 94.1133 1385.94 93.8164 1386.33 93.5612C1386.72 93.3008 1387.12 93.082 1387.56 92.9049C1387.99 92.7227 1388.43 92.5872 1388.89 92.4987C1389.35 92.4049 1389.81 92.3633 1390.28 92.3633C1390.74 92.3633 1391.2 92.4049 1391.66 92.4987C1392.12 92.5872 1392.56 92.7227 1392.99 92.9049C1393.42 93.082 1393.83 93.3008 1394.22 93.5612C1394.61 93.8164 1394.97 94.1133 1395.3 94.4414C1395.63 94.7747 1395.92 95.1289 1396.18 95.5195C1396.44 95.9049 1396.66 96.3164 1396.84 96.7487C1397.02 97.1758 1397.15 97.6237 1397.24 98.0768C1397.33 98.5352 1397.38 98.9987 1397.38 99.4674Z" fill="#3F2305"/>
<path d="M1551.82 150.15C1551.82 150.618 1551.77 151.082 1551.68 151.535C1551.59 151.993 1551.46 152.441 1551.28 152.868C1551.1 153.301 1550.88 153.712 1550.62 154.098C1550.37 154.483 1550.07 154.842 1549.74 155.176C1549.41 155.504 1549.05 155.801 1548.66 156.056C1548.28 156.316 1547.87 156.535 1547.43 156.712C1547.01 156.895 1546.56 157.025 1546.1 157.118C1545.65 157.207 1545.18 157.254 1544.71 157.254C1544.25 157.254 1543.79 157.207 1543.33 157.118C1542.88 157.025 1542.43 156.895 1542 156.712C1541.57 156.535 1541.16 156.316 1540.77 156.056C1540.38 155.801 1540.02 155.504 1539.69 155.176C1539.37 154.842 1539.07 154.483 1538.81 154.098C1538.55 153.712 1538.33 153.301 1538.15 152.868C1537.97 152.441 1537.84 151.993 1537.75 151.535C1537.66 151.082 1537.62 150.618 1537.62 150.15C1537.62 149.686 1537.66 149.223 1537.75 148.764C1537.84 148.306 1537.97 147.863 1538.15 147.431C1538.33 147.004 1538.55 146.592 1538.81 146.207C1539.07 145.816 1539.37 145.457 1539.69 145.129C1540.02 144.801 1540.38 144.504 1540.77 144.243C1541.16 143.988 1541.57 143.77 1542 143.587C1542.43 143.41 1542.88 143.275 1543.33 143.186C1543.79 143.092 1544.25 143.051 1544.71 143.051C1545.18 143.051 1545.65 143.092 1546.1 143.186C1546.56 143.275 1547.01 143.41 1547.43 143.587C1547.87 143.77 1548.28 143.988 1548.66 144.243C1549.05 144.504 1549.41 144.801 1549.74 145.129C1550.07 145.457 1550.37 145.816 1550.62 146.207C1550.88 146.592 1551.1 147.004 1551.28 147.431C1551.46 147.863 1551.59 148.306 1551.68 148.764C1551.77 149.223 1551.82 149.686 1551.82 150.15Z" fill="#3F2305"/>
<path d="M367.99 21.6055C367.99 22.3398 367.917 23.0638 367.777 23.7826C367.631 24.5013 367.417 25.1992 367.141 25.8815C366.86 26.5586 366.516 27.1992 366.105 27.8086C365.699 28.418 365.235 28.9857 364.719 29.5013C364.199 30.0221 363.636 30.4857 363.027 30.8919C362.412 31.2982 361.771 31.6419 361.094 31.9232C360.417 32.2044 359.714 32.418 358.995 32.5586C358.277 32.7044 357.553 32.7773 356.818 32.7773C356.084 32.7773 355.36 32.7044 354.636 32.5586C353.917 32.418 353.219 32.2044 352.542 31.9232C351.865 31.6419 351.219 31.2982 350.61 30.8919C350.001 30.4857 349.438 30.0221 348.917 29.5013C348.402 28.9857 347.938 28.418 347.527 27.8086C347.12 27.1992 346.777 26.5586 346.495 25.8815C346.214 25.1992 346.006 24.5013 345.86 23.7826C345.719 23.0638 345.646 22.3398 345.646 21.6055C345.646 20.8711 345.719 20.1419 345.86 19.4232C346.006 18.7044 346.214 18.0065 346.495 17.3294C346.777 16.6523 347.12 16.0065 347.527 15.3971C347.938 14.7878 348.402 14.2253 348.917 13.7044C349.438 13.1888 350.001 12.7253 350.61 12.3138C351.219 11.9076 351.865 11.5638 352.542 11.2826C353.219 11.0013 353.917 10.793 354.636 10.6471C355.36 10.5065 356.084 10.4336 356.818 10.4336C357.553 10.4336 358.277 10.5065 358.995 10.6471C359.714 10.793 360.417 11.0013 361.094 11.2826C361.771 11.5638 362.412 11.9076 363.027 12.3138C363.636 12.7253 364.199 13.1888 364.719 13.7044C365.235 14.2253 365.699 14.7878 366.105 15.3971C366.516 16.0065 366.86 16.6523 367.141 17.3294C367.417 18.0065 367.631 18.7044 367.777 19.4232C367.917 20.1419 367.99 20.8711 367.99 21.6055Z" fill="#3F2305"/>
<path d="M893.229 96.043C893.229 96.7773 893.161 97.5013 893.016 98.2201C892.875 98.9388 892.661 99.6367 892.38 100.319C892.099 100.996 891.755 101.637 891.349 102.246C890.943 102.855 890.479 103.423 889.958 103.939C889.443 104.46 888.875 104.923 888.266 105.329C887.656 105.736 887.01 106.079 886.333 106.361C885.656 106.642 884.958 106.855 884.24 106.996C883.521 107.142 882.792 107.215 882.062 107.215C881.328 107.215 880.599 107.142 879.88 106.996C879.161 106.855 878.464 106.642 877.786 106.361C877.109 106.079 876.464 105.736 875.854 105.329C875.245 104.923 874.677 104.46 874.161 103.939C873.641 103.423 873.177 102.855 872.771 102.246C872.365 101.637 872.021 100.996 871.74 100.319C871.458 99.6367 871.245 98.9388 871.104 98.2201C870.958 97.5013 870.891 96.7773 870.891 96.043C870.891 95.3086 870.958 94.5794 871.104 93.8607C871.245 93.1419 871.458 92.444 871.74 91.7669C872.021 91.0898 872.365 90.444 872.771 89.8346C873.177 89.2253 873.641 88.6628 874.161 88.1419C874.677 87.6263 875.245 87.1628 875.854 86.7513C876.464 86.3451 877.109 86.0013 877.786 85.7201C878.464 85.4388 879.161 85.2305 879.88 85.0846C880.599 84.944 881.328 84.8711 882.062 84.8711C882.792 84.8711 883.521 84.944 884.24 85.0846C884.958 85.2305 885.656 85.4388 886.333 85.7201C887.01 86.0013 887.656 86.3451 888.266 86.7513C888.875 87.1628 889.443 87.6263 889.958 88.1419C890.479 88.6628 890.943 89.2253 891.349 89.8346C891.755 90.444 892.099 91.0898 892.38 91.7669C892.661 92.444 892.875 93.1419 893.016 93.8607C893.161 94.5794 893.229 95.3086 893.229 96.043Z" fill="#3F2305"/>
<path d="M1331.38 150.879C1331.38 151.613 1331.31 152.337 1331.16 153.056C1331.02 153.775 1330.81 154.478 1330.53 155.155C1330.25 155.832 1329.9 156.473 1329.5 157.082C1329.09 157.697 1328.63 158.259 1328.1 158.78C1327.59 159.296 1327.02 159.759 1326.41 160.165C1325.8 160.572 1325.16 160.921 1324.49 161.197C1323.8 161.478 1323.1 161.691 1322.39 161.837C1321.67 161.978 1320.94 162.051 1320.21 162.051C1319.47 162.051 1318.75 161.978 1318.03 161.837C1317.31 161.691 1316.61 161.478 1315.93 161.197C1315.26 160.921 1314.61 160.572 1314 160.165C1313.39 159.759 1312.83 159.296 1312.31 158.78C1311.79 158.259 1311.33 157.697 1310.92 157.082C1310.51 156.473 1310.17 155.832 1309.89 155.155C1309.6 154.478 1309.4 153.775 1309.25 153.056C1309.11 152.337 1309.04 151.613 1309.04 150.879C1309.04 150.145 1309.11 149.421 1309.25 148.697C1309.4 147.978 1309.6 147.28 1309.89 146.603C1310.17 145.926 1310.51 145.28 1310.92 144.671C1311.33 144.061 1311.79 143.499 1312.31 142.978C1312.83 142.462 1313.39 141.999 1314 141.587C1314.61 141.181 1315.26 140.837 1315.93 140.556C1316.61 140.275 1317.31 140.066 1318.03 139.921C1318.75 139.78 1319.47 139.707 1320.21 139.707C1320.94 139.707 1321.67 139.78 1322.39 139.921C1323.1 140.066 1323.8 140.275 1324.49 140.556C1325.16 140.837 1325.8 141.181 1326.41 141.587C1327.02 141.999 1327.59 142.462 1328.1 142.978C1328.63 143.499 1329.09 144.061 1329.5 144.671C1329.9 145.28 1330.25 145.926 1330.53 146.603C1330.81 147.28 1331.02 147.978 1331.16 148.697C1331.31 149.421 1331.38 150.145 1331.38 150.879Z" fill="#3F2305"/>
<path d="M1811.43 141.238C1811.43 141.973 1811.36 142.697 1811.22 143.415C1811.07 144.139 1810.86 144.837 1810.58 145.514C1810.3 146.191 1809.96 146.837 1809.55 147.447C1809.14 148.056 1808.68 148.618 1808.16 149.139C1807.64 149.655 1807.08 150.118 1806.47 150.525C1805.86 150.936 1805.21 151.28 1804.54 151.561C1803.86 151.837 1803.16 152.051 1802.44 152.197C1801.72 152.337 1800.99 152.41 1800.26 152.41C1799.53 152.41 1798.8 152.337 1798.08 152.197C1797.36 152.051 1796.67 151.837 1795.98 151.561C1795.31 151.28 1794.67 150.936 1794.06 150.525C1793.45 150.118 1792.88 149.655 1792.36 149.139C1791.84 148.618 1791.38 148.056 1790.97 147.447C1790.57 146.837 1790.22 146.191 1789.94 145.514C1789.66 144.837 1789.45 144.139 1789.31 143.415C1789.16 142.697 1789.09 141.973 1789.09 141.238C1789.09 140.504 1789.16 139.78 1789.31 139.061C1789.45 138.337 1789.66 137.639 1789.94 136.962C1790.22 136.285 1790.57 135.639 1790.97 135.03C1791.38 134.421 1791.84 133.858 1792.36 133.337C1792.88 132.822 1793.45 132.358 1794.06 131.952C1794.67 131.54 1795.31 131.197 1795.98 130.915C1796.67 130.634 1797.36 130.426 1798.08 130.28C1798.8 130.139 1799.53 130.066 1800.26 130.066C1800.99 130.066 1801.72 130.139 1802.44 130.28C1803.16 130.426 1803.86 130.634 1804.54 130.915C1805.21 131.197 1805.86 131.54 1806.47 131.952C1807.08 132.358 1807.64 132.822 1808.16 133.337C1808.68 133.858 1809.14 134.421 1809.55 135.03C1809.96 135.639 1810.3 136.285 1810.58 136.962C1810.86 137.639 1811.07 138.337 1811.22 139.061C1811.36 139.78 1811.43 140.504 1811.43 141.238Z" fill="#3F2305"/>
<path d="M1671.47 189.507C1671.47 189.975 1671.43 190.434 1671.33 190.892C1671.24 191.35 1671.11 191.793 1670.93 192.225C1670.75 192.658 1670.53 193.064 1670.28 193.454C1670.02 193.84 1669.72 194.199 1669.39 194.533C1669.06 194.861 1668.7 195.152 1668.31 195.413C1667.93 195.673 1667.52 195.892 1667.09 196.069C1666.66 196.246 1666.21 196.382 1665.76 196.475C1665.3 196.564 1664.83 196.611 1664.37 196.611C1663.9 196.611 1663.44 196.564 1662.98 196.475C1662.53 196.382 1662.08 196.246 1661.65 196.069C1661.22 195.892 1660.81 195.673 1660.42 195.413C1660.04 195.152 1659.68 194.861 1659.34 194.533C1659.02 194.199 1658.72 193.84 1658.46 193.454C1658.2 193.064 1657.98 192.658 1657.81 192.225C1657.63 191.793 1657.49 191.35 1657.4 190.892C1657.31 190.434 1657.27 189.975 1657.27 189.507C1657.27 189.043 1657.31 188.579 1657.4 188.121C1657.49 187.663 1657.63 187.22 1657.81 186.788C1657.98 186.361 1658.2 185.949 1658.46 185.564C1658.72 185.173 1659.02 184.814 1659.34 184.486C1659.68 184.158 1660.04 183.861 1660.42 183.6C1660.81 183.345 1661.22 183.126 1661.65 182.944C1662.08 182.767 1662.53 182.632 1662.98 182.543C1663.44 182.449 1663.9 182.402 1664.37 182.402C1664.83 182.402 1665.3 182.449 1665.76 182.543C1666.21 182.632 1666.66 182.767 1667.09 182.944C1667.52 183.126 1667.93 183.345 1668.31 183.6C1668.7 183.861 1669.06 184.158 1669.39 184.486C1669.72 184.814 1670.02 185.173 1670.28 185.564C1670.53 185.949 1670.75 186.361 1670.93 186.788C1671.11 187.22 1671.24 187.663 1671.33 188.121C1671.43 188.579 1671.47 189.043 1671.47 189.507Z" fill="#3F2305"/>
<path d="M614.756 119.447C614.756 119.915 614.709 120.379 614.62 120.837C614.527 121.29 614.396 121.738 614.214 122.165C614.037 122.598 613.818 123.009 613.558 123.395C613.298 123.785 613.006 124.139 612.678 124.473C612.344 124.801 611.985 125.098 611.6 125.353C611.209 125.613 610.803 125.832 610.37 126.009C609.938 126.191 609.495 126.327 609.037 126.415C608.584 126.504 608.12 126.551 607.652 126.551C607.188 126.551 606.725 126.504 606.266 126.415C605.808 126.327 605.365 126.191 604.933 126.009C604.506 125.832 604.094 125.613 603.709 125.353C603.318 125.098 602.959 124.801 602.631 124.473C602.303 124.139 602.006 123.785 601.745 123.395C601.49 123.009 601.271 122.598 601.089 122.165C600.912 121.738 600.777 121.29 600.688 120.837C600.594 120.379 600.553 119.915 600.553 119.447C600.553 118.983 600.594 118.52 600.688 118.061C600.777 117.608 600.912 117.16 601.089 116.733C601.271 116.301 601.49 115.889 601.745 115.504C602.006 115.113 602.303 114.754 602.631 114.426C602.959 114.098 603.318 113.801 603.709 113.546C604.094 113.285 604.506 113.066 604.933 112.889C605.365 112.707 605.808 112.572 606.266 112.483C606.725 112.389 607.188 112.348 607.652 112.348C608.12 112.348 608.584 112.389 609.037 112.483C609.495 112.572 609.938 112.707 610.37 112.889C610.803 113.066 611.209 113.285 611.6 113.546C611.985 113.801 612.344 114.098 612.678 114.426C613.006 114.754 613.298 115.113 613.558 115.504C613.818 115.889 614.037 116.301 614.214 116.733C614.396 117.16 614.527 117.608 614.62 118.061C614.709 118.52 614.756 118.983 614.756 119.447Z" fill="#3F2305"/>
<path d="M358.844 104.283C358.844 104.751 358.802 105.215 358.708 105.668C358.62 106.126 358.484 106.574 358.307 107.001C358.125 107.434 357.906 107.845 357.651 108.23C357.391 108.621 357.094 108.975 356.766 109.309C356.438 109.637 356.078 109.934 355.688 110.189C355.302 110.449 354.891 110.668 354.464 110.845C354.031 111.027 353.589 111.158 353.13 111.251C352.672 111.34 352.208 111.387 351.745 111.387C351.276 111.387 350.813 111.34 350.359 111.251C349.901 111.158 349.458 111.027 349.026 110.845C348.594 110.668 348.182 110.449 347.797 110.189C347.411 109.934 347.052 109.637 346.719 109.309C346.391 108.975 346.099 108.621 345.839 108.23C345.578 107.845 345.359 107.434 345.182 107.001C345 106.574 344.87 106.126 344.776 105.668C344.688 105.215 344.641 104.751 344.641 104.283C344.641 103.819 344.688 103.355 344.776 102.897C344.87 102.444 345 101.996 345.182 101.569C345.359 101.137 345.578 100.725 345.839 100.34C346.099 99.9492 346.391 99.5898 346.719 99.2617C347.052 98.9336 347.411 98.6367 347.797 98.3763C348.182 98.1211 348.594 97.9023 349.026 97.7201C349.458 97.543 349.901 97.4076 350.359 97.319C350.813 97.2253 351.276 97.1836 351.745 97.1836C352.208 97.1836 352.672 97.2253 353.13 97.319C353.589 97.4076 354.031 97.543 354.464 97.7201C354.891 97.9023 355.302 98.1211 355.688 98.3763C356.078 98.6367 356.438 98.9336 356.766 99.2617C357.094 99.5898 357.391 99.9492 357.651 100.34C357.906 100.725 358.125 101.137 358.307 101.569C358.484 101.996 358.62 102.444 358.708 102.897C358.802 103.355 358.844 103.819 358.844 104.283Z" fill="#3F2305"/>
</svg>
