<svg width="740" height="494" viewBox="0 0 740 494" fill="none" xmlns="http://www.w3.org/2000/svg">
<mask id="mask0_7595_10531" style="mask-type:luminance" maskUnits="userSpaceOnUse" x="10" y="0" width="730" height="494">
<path d="M10.6641 0.335938H739.997V493.669H10.6641V0.335938Z" fill="white"/>
</mask>
<g mask="url(#mask0_7595_10531)">
<mask id="mask1_7595_10531" style="mask-type:luminance" maskUnits="userSpaceOnUse" x="-81" y="-201" width="843" height="848">
<path d="M518.012 -200.992L761.09 407.232L162.152 646.602L-80.9258 38.3776L518.012 -200.992Z" fill="white"/>
</mask>
<g mask="url(#mask1_7595_10531)">
<mask id="mask2_7595_10531" style="mask-type:luminance" maskUnits="userSpaceOnUse" x="-81" y="-201" width="843" height="848">
<path d="M518.012 -200.992L761.09 407.232L162.152 646.602L-80.9258 38.3776L518.012 -200.992Z" fill="white"/>
</mask>
<g mask="url(#mask2_7595_10531)">
<path d="M11.6682 269.682C11.7932 270.068 11.9546 270.438 12.1525 270.792C12.3557 271.146 12.5848 271.479 12.8505 271.786C13.1109 272.099 13.4025 272.375 13.7255 272.63C14.0432 272.88 14.3869 273.099 14.7463 273.281C15.1109 273.464 15.4859 273.615 15.8765 273.724C16.2671 273.833 16.6682 273.901 17.0744 273.932C17.4807 273.964 17.8817 273.953 18.288 273.906C18.689 273.854 19.0848 273.766 19.4702 273.641C20.0171 273.458 20.5275 273.208 21.0067 272.891C33.965 286.661 74.6525 322.807 88.564 335.104C88.1005 335.745 87.7723 336.448 87.5744 337.219C87.3817 337.984 87.3348 338.76 87.439 339.542C87.538 340.328 87.7827 341.068 88.163 341.76C88.5484 342.453 89.0484 343.047 89.6577 343.547C90.2723 344.052 90.9546 344.422 91.7046 344.661C92.4598 344.901 93.2307 344.995 94.0223 344.943C94.8088 344.885 95.564 344.688 96.2775 344.349C96.9911 344.005 97.6161 343.547 98.1525 342.964C98.689 342.385 99.1005 341.724 99.3869 340.984C99.6734 340.25 99.814 339.484 99.8036 338.693C99.7984 337.901 99.6473 337.141 99.3505 336.406C99.0484 335.672 98.6265 335.021 98.0796 334.448L158.09 265.49C158.892 266.073 159.783 266.443 160.762 266.594C161.741 266.75 162.699 266.672 163.642 266.359C165.038 265.901 166.132 265.052 166.929 263.813L222.168 292.583C221.996 293 221.871 293.427 221.793 293.87C221.71 294.318 221.684 294.766 221.699 295.214C221.72 295.667 221.788 296.109 221.903 296.542C222.022 296.979 222.184 297.396 222.392 297.797C222.6 298.198 222.85 298.568 223.142 298.911C223.429 299.26 223.752 299.568 224.111 299.844C224.47 300.115 224.856 300.349 225.262 300.536C225.673 300.729 226.095 300.87 226.538 300.969L216.184 380.609C215.449 380.583 214.736 380.677 214.033 380.901C213.554 381.057 213.1 381.266 212.673 381.536C212.241 381.802 211.85 382.115 211.502 382.474C211.147 382.839 210.845 383.234 210.59 383.672C210.34 384.109 210.142 384.568 209.996 385.052C209.856 385.536 209.772 386.031 209.752 386.531C209.731 387.036 209.772 387.536 209.871 388.031C209.975 388.526 210.132 389 210.35 389.453C210.564 389.911 210.835 390.333 211.153 390.724C211.475 391.115 211.835 391.458 212.241 391.76C212.647 392.063 213.08 392.307 213.548 392.505C214.012 392.698 214.491 392.833 214.991 392.911C215.491 392.99 215.991 393.005 216.491 392.964C216.996 392.917 217.486 392.813 217.96 392.646C218.439 392.484 218.887 392.26 219.314 391.99C219.736 391.714 220.121 391.391 220.465 391.021C220.809 390.656 221.1 390.25 221.35 389.813C243.267 399.589 321.225 434.198 345.752 443.505C345.236 444.87 345.199 446.245 345.642 447.635C345.84 448.245 346.121 448.813 346.496 449.333C346.871 449.854 347.314 450.307 347.824 450.688C348.34 451.073 348.897 451.37 349.507 451.578C350.111 451.792 350.731 451.901 351.371 451.917C352.012 451.938 352.642 451.854 353.257 451.677C353.871 451.495 354.449 451.229 354.981 450.875C355.512 450.516 355.981 450.089 356.377 449.583C356.778 449.083 357.09 448.536 357.319 447.938C382.038 454.932 474.574 481.057 501.481 487.453C501.528 487.708 501.595 487.953 501.679 488.198C501.788 488.599 501.944 488.984 502.132 489.354C502.324 489.729 502.554 490.073 502.814 490.401C503.074 490.724 503.366 491.021 503.689 491.286C504.007 491.552 504.356 491.786 504.72 491.979C505.09 492.177 505.475 492.339 505.871 492.453C506.272 492.573 506.684 492.651 507.095 492.688C507.512 492.724 507.929 492.719 508.345 492.672C508.757 492.625 509.163 492.537 509.559 492.406C509.955 492.276 510.335 492.109 510.699 491.901C511.064 491.698 511.403 491.453 511.715 491.182C512.028 490.906 512.314 490.604 512.564 490.271C512.819 489.938 513.033 489.583 513.215 489.208C513.397 488.833 513.538 488.443 513.642 488.036C513.741 487.635 513.804 487.224 513.824 486.807C513.845 486.391 513.819 485.974 513.757 485.563C513.689 485.151 513.585 484.75 513.439 484.354C513.095 483.302 512.512 482.412 511.684 481.677L549.236 431.328C550.225 431.948 551.304 432.255 552.47 432.266C553.637 432.271 554.72 431.969 555.715 431.365C556.715 430.76 557.475 429.938 558.012 428.901C558.543 427.865 558.767 426.766 558.679 425.599L619.944 416.49L620.116 416.927C620.356 417.651 620.72 418.307 621.199 418.896C621.684 419.484 622.257 419.969 622.918 420.349C623.574 420.729 624.283 420.974 625.038 421.094C625.788 421.214 626.538 421.193 627.283 421.031C628.028 420.875 628.72 420.589 629.361 420.172C630.002 419.76 630.543 419.245 630.996 418.63C631.444 418.016 631.767 417.339 631.97 416.604C632.168 415.87 632.231 415.12 632.158 414.365C651.127 410.594 708.251 399.245 727.371 395.026C727.522 395.469 727.725 395.885 727.975 396.281C728.225 396.677 728.512 397.042 728.845 397.37C729.179 397.703 729.543 397.99 729.939 398.234C730.335 398.484 730.757 398.682 731.199 398.833C731.642 398.984 732.095 399.083 732.564 399.13C733.028 399.177 733.491 399.172 733.955 399.115C734.418 399.057 734.871 398.943 735.309 398.781C735.751 398.62 736.163 398.411 736.559 398.156C736.949 397.901 737.304 397.604 737.626 397.266C737.955 396.927 738.236 396.557 738.475 396.156C738.715 395.755 738.903 395.333 739.048 394.885C739.189 394.443 739.283 393.984 739.319 393.521C739.361 393.052 739.345 392.589 739.278 392.125C739.21 391.661 739.095 391.214 738.923 390.776C738.757 390.339 738.538 389.927 738.278 389.542C738.012 389.156 737.71 388.802 737.366 388.484C737.022 388.167 736.647 387.896 736.241 387.661C735.835 387.427 735.408 387.245 734.96 387.109C734.512 386.974 734.054 386.896 733.585 386.865C733.121 386.833 732.658 386.854 732.194 386.932C731.731 387.005 731.288 387.13 730.85 387.307C730.418 387.484 730.012 387.708 729.632 387.979C729.246 388.25 728.903 388.563 728.59 388.911C728.278 389.26 728.012 389.641 727.788 390.047L595.231 325.688C595.408 325.229 595.528 324.75 595.595 324.26C595.658 323.771 595.663 323.281 595.606 322.792C595.554 322.297 595.444 321.823 595.278 321.354C595.106 320.891 594.887 320.453 594.611 320.042C594.34 319.63 594.022 319.255 593.658 318.922C593.298 318.583 592.897 318.297 592.47 318.057C592.038 317.813 591.585 317.63 591.106 317.495C590.632 317.365 590.147 317.292 589.653 317.276C589.158 317.26 588.668 317.302 588.184 317.401C587.699 317.505 587.236 317.661 586.788 317.875C586.345 318.083 585.929 318.349 585.543 318.661C585.163 318.974 584.819 319.323 584.522 319.719C584.22 320.109 583.975 320.536 583.778 320.99C583.58 321.443 583.439 321.911 583.35 322.396C583.267 322.885 583.241 323.375 583.272 323.87C583.304 324.359 583.397 324.844 583.543 325.313C583.673 325.786 583.85 326.234 584.085 326.661L456.434 421.917C455.996 421.427 455.496 421.021 454.929 420.693C454.366 420.37 453.762 420.135 453.121 420C452.486 419.865 451.84 419.828 451.189 419.896C450.538 419.964 449.918 420.13 449.319 420.396C448.72 420.656 448.179 421.01 447.694 421.443C447.205 421.88 446.798 422.38 446.47 422.948C446.142 423.51 445.913 424.115 445.772 424.755C445.637 425.391 445.6 426.036 445.668 426.688L357.392 444.016L357.324 443.844C357.199 443.458 357.038 443.089 356.835 442.734C356.637 442.38 356.403 442.052 356.137 441.745C355.877 441.432 355.58 441.156 355.262 440.901C354.944 440.651 354.6 440.432 354.241 440.25C353.877 440.068 353.502 439.917 353.111 439.807C352.72 439.698 352.324 439.625 351.918 439.594C351.512 439.557 351.106 439.568 350.705 439.609C350.298 439.656 349.908 439.745 349.517 439.865L348.861 440.13L302.173 358.391C302.705 358.021 303.173 357.573 303.569 357.057C303.965 356.536 304.267 355.969 304.486 355.354C304.699 354.74 304.814 354.109 304.83 353.458C304.845 352.807 304.762 352.167 304.574 351.542C304.387 350.917 304.111 350.339 303.741 349.802C303.371 349.266 302.923 348.802 302.408 348.406C301.887 348.01 301.324 347.703 300.71 347.484C300.095 347.271 299.46 347.156 298.809 347.141L292.887 249.573C293.225 249.521 293.559 249.443 293.892 249.349C294.278 249.224 294.647 249.057 295.002 248.859C295.356 248.662 295.689 248.427 295.996 248.161C296.304 247.901 296.585 247.609 296.835 247.286C297.09 246.969 297.304 246.625 297.491 246.266C297.673 245.901 297.819 245.521 297.929 245.13C298.038 244.74 298.111 244.344 298.142 243.938C298.173 243.531 298.163 243.125 298.116 242.724C298.069 242.318 297.981 241.922 297.856 241.536C297.725 241.151 297.564 240.781 297.366 240.427C297.168 240.068 296.934 239.74 296.668 239.427C296.408 239.12 296.111 238.839 295.793 238.589C295.475 238.339 295.132 238.12 294.772 237.938C294.408 237.75 294.033 237.604 293.637 237.495C293.246 237.385 292.85 237.313 292.444 237.281C292.038 237.25 291.632 237.26 291.231 237.307C290.824 237.354 290.429 237.443 290.043 237.568C289.225 237.833 288.502 238.255 287.866 238.828L197.996 153.948C198.309 153.557 198.569 153.13 198.778 152.672C198.991 152.214 199.142 151.74 199.231 151.245C199.324 150.75 199.361 150.25 199.33 149.745C199.304 149.245 199.215 148.75 199.064 148.271C198.913 147.792 198.71 147.333 198.449 146.901C198.194 146.474 197.882 146.078 197.528 145.724C197.173 145.365 196.778 145.057 196.345 144.797C195.918 144.537 195.46 144.333 194.981 144.182C194.502 144.037 194.007 143.948 193.507 143.917C193.002 143.885 192.502 143.922 192.007 144.01C191.512 144.104 191.038 144.255 190.58 144.464C190.121 144.672 189.694 144.932 189.298 145.245C188.908 145.557 188.554 145.917 188.246 146.313C187.939 146.714 187.684 147.141 187.481 147.604C187.278 148.063 187.132 148.542 187.048 149.037C186.96 149.531 186.934 150.031 186.97 150.537L39.6838 173.453C39.6421 173.323 39.59 173.193 39.5275 173.068C39.1682 171.969 38.5536 171.042 37.6734 170.287L149.892 12.5053C150.309 12.7448 150.746 12.9375 151.205 13.0782C151.663 13.2188 152.132 13.3073 152.611 13.3386C153.09 13.3698 153.569 13.349 154.043 13.2709C154.517 13.1928 154.975 13.0573 155.418 12.875C155.861 12.6875 156.272 12.4532 156.663 12.1719C157.054 11.8907 157.403 11.5678 157.715 11.2032C158.033 10.8386 158.298 10.4428 158.517 10.0209C158.741 9.5938 158.913 9.14588 159.028 8.68234C159.147 8.21359 159.21 7.74484 159.215 7.26047C159.225 6.7813 159.179 6.30734 159.074 5.83859C158.975 5.36984 158.819 4.91672 158.611 4.48442C158.403 4.05213 158.147 3.65109 157.845 3.27609C157.548 2.90109 157.205 2.56776 156.824 2.27088C156.449 1.97922 156.038 1.72922 155.6 1.5313C155.168 1.32817 154.71 1.18234 154.241 1.08859C153.772 0.994841 153.293 0.953175 152.814 0.974007C152.335 0.989632 151.866 1.05734 151.403 1.18755C150.939 1.31255 150.496 1.48963 150.074 1.7188C149.647 1.94797 149.262 2.22401 148.903 2.54172C148.543 2.85942 148.225 3.2188 147.949 3.60942C147.679 4.00526 147.449 4.42713 147.272 4.86984C147.095 5.31776 146.97 5.77609 146.903 6.25526C146.83 6.72922 146.814 7.20318 146.856 7.68234C146.897 8.16151 146.991 8.63026 147.142 9.08859L147.361 9.64067L33.2307 72.6615C33.0848 72.4428 32.9234 72.2344 32.7515 72.0313C32.5744 71.8334 32.3921 71.6459 32.1942 71.474C31.9963 71.2969 31.788 71.1355 31.5692 70.9896C31.3505 70.8386 31.1213 70.7084 30.8869 70.5886C30.6525 70.4688 30.4077 70.3646 30.1577 70.2761C29.9077 70.1876 29.6577 70.1146 29.3973 70.0626C29.1421 70.0053 28.8817 69.9636 28.6161 69.9428C28.3557 69.9219 28.09 69.9167 27.8244 69.9271C27.564 69.9376 27.2984 69.9688 27.038 70.0105C26.7775 70.0573 26.5223 70.1198 26.2723 70.198C26.0171 70.2709 25.7723 70.3646 25.5327 70.474C25.2932 70.5834 25.0588 70.7084 24.8348 70.849C24.6109 70.9896 24.3921 71.1407 24.189 71.3073C23.9859 71.474 23.788 71.6511 23.6109 71.8438C23.4286 72.0365 23.2567 72.2344 23.1005 72.448C22.9442 72.6615 22.8036 72.8855 22.6734 73.1146C22.5484 73.3438 22.4338 73.5834 22.3348 73.8282C22.2411 74.073 22.1577 74.3282 22.09 74.5834C22.0275 74.8386 21.9807 75.099 21.9442 75.3594C21.913 75.6198 21.8973 75.8855 21.8973 76.1459C21.9025 76.4115 21.9182 76.6771 21.9546 76.9376C21.9911 77.198 22.0432 77.4584 22.1109 77.7136C22.1786 77.9688 22.2619 78.2188 22.3609 78.4636C22.4598 78.7084 22.5796 78.9428 22.7098 79.1719C22.84 79.4011 22.9807 79.6251 23.1421 79.8334C23.2984 80.0469 23.4702 80.2448 23.6577 80.4323C23.84 80.6251 24.038 80.8021 24.2411 80.9636C24.4494 81.1303 24.6682 81.2813 24.8921 81.4167C25.1161 81.5521 25.3505 81.6719 25.5952 81.7813C25.8348 81.8855 26.0848 81.9792 26.3348 82.0521C26.59 82.1251 26.8452 82.1876 27.1057 82.2292C27.3661 82.2709 27.6317 82.2969 27.8921 82.3021L32.7567 168.891C32.4077 168.938 32.0692 169.016 31.7307 169.125C31.3452 169.25 30.9755 169.412 30.6213 169.609C30.2671 169.813 29.9338 170.042 29.6265 170.307C29.314 170.573 29.038 170.865 28.7827 171.182C28.5327 171.505 28.314 171.844 28.1317 172.208C27.9494 172.573 27.7984 172.948 27.689 173.339C27.5796 173.729 27.5119 174.13 27.4807 174.536C27.4494 174.943 27.4546 175.349 27.5067 175.75C27.5536 176.156 27.6421 176.552 27.7671 176.938C27.8921 177.323 28.0536 177.693 28.2567 178.047C28.4546 178.401 28.689 178.734 28.9494 179.042C29.215 179.354 29.5067 179.635 29.8296 179.885C30.1473 180.135 30.4911 180.354 30.8505 180.536C31.215 180.724 31.59 180.87 31.9859 180.979C32.3765 181.089 32.7723 181.161 33.1786 181.193C33.5848 181.224 33.9911 181.214 34.3921 181.167C34.7984 181.115 35.1942 181.031 35.5796 180.901L35.8817 180.781C51.2671 197.453 70.1161 218.922 76.6734 229.016C76.038 229.359 75.4807 229.807 75.0067 230.344C74.5275 230.885 74.1525 231.495 73.8869 232.161C73.6161 232.833 73.4702 233.531 73.4494 234.25C73.4234 234.974 73.5223 235.677 73.7411 236.365C67.6682 239.026 57.5327 243.568 47.5588 248.354C32.8765 255.417 25.1369 259.88 21.1317 262.828C20.6057 262.438 20.0327 262.135 19.4077 261.927C18.788 261.719 18.1473 261.615 17.4911 261.609C16.8348 261.604 16.1942 261.703 15.5692 261.901C14.9442 262.104 14.3609 262.396 13.8296 262.781C13.2984 263.167 12.84 263.625 12.4546 264.156C12.0692 264.688 11.7775 265.266 11.5744 265.891C11.3713 266.516 11.2723 267.156 11.2775 267.813C11.2775 268.469 11.3869 269.109 11.59 269.729L11.6682 269.682ZM36.8973 180.281C37.5015 179.906 38.0275 179.443 38.4702 178.885C58.939 192.474 134.71 242.76 156.298 257.521C156.179 257.734 156.069 257.953 155.97 258.182L85.7723 235.781C86.0119 234.682 85.9598 233.594 85.6213 232.516C85.4911 232.13 85.3296 231.76 85.1265 231.406C84.9286 231.052 84.6942 230.724 84.4286 230.417C84.163 230.109 83.8713 229.828 83.5536 229.578C83.2307 229.328 82.8921 229.109 82.5275 228.927C82.163 228.745 81.788 228.599 81.3973 228.49C81.0067 228.38 80.6057 228.307 80.1994 228.276C79.7932 228.245 79.3921 228.255 78.9859 228.302C78.5848 228.349 78.189 228.438 77.8036 228.563L77.6994 228.604C69.9859 216.589 47.1838 191.443 36.8973 180.281ZM222.611 291.625L167.382 262.849C167.71 262.016 167.861 261.146 167.83 260.25L285.923 244.729L286.142 245.271C286.319 245.802 286.564 246.307 286.877 246.776L232.319 290.578C231.996 290.24 231.637 289.948 231.246 289.688C230.856 289.432 230.439 289.224 230.002 289.063C229.564 288.901 229.111 288.792 228.647 288.734C228.184 288.672 227.72 288.667 227.257 288.714C226.788 288.755 226.335 288.854 225.892 289.005C225.449 289.151 225.028 289.349 224.627 289.594C224.231 289.839 223.861 290.12 223.528 290.448C223.194 290.776 222.903 291.135 222.647 291.531L222.611 291.625ZM36.7463 169.682C35.8557 169.172 34.8921 168.901 33.8661 168.875L28.9911 82.2553C29.3348 82.198 29.6734 82.1146 30.0067 82.0053C30.3921 81.8803 30.7619 81.7188 31.1161 81.5209C31.4755 81.323 31.8088 81.0886 32.1161 80.8282C32.4234 80.5626 32.7046 80.2709 32.9598 79.9532C33.2098 79.6303 33.4286 79.2917 33.6109 78.9271C33.7984 78.5626 33.9442 78.1876 34.0536 77.7969C34.1682 77.4063 34.2359 77.0053 34.2671 76.599C34.2984 76.1928 34.2932 75.7865 34.2463 75.3855C34.1942 74.9792 34.1109 74.5834 33.9859 74.198L33.7619 73.6407L147.892 10.625C148.199 11.0886 148.569 11.5053 148.996 11.8646L36.7463 169.682ZM187.153 151.672L187.314 152.078C187.762 153.469 188.6 154.552 189.83 155.339L162.814 254.448C161.793 254.271 160.793 254.344 159.809 254.672C158.684 255.031 157.746 255.667 156.996 256.578C135.418 241.734 59.5952 191.526 39.1265 177.938C39.7046 176.896 39.9494 175.781 39.8661 174.594L187.153 151.672ZM287.111 239.583C286.189 240.786 285.746 242.151 285.793 243.667L167.694 259.188L167.481 258.646C167.189 257.75 166.72 256.964 166.064 256.281C165.413 255.604 164.647 255.099 163.762 254.771L190.731 155.875C192.132 156.49 193.564 156.568 195.028 156.115C195.84 155.849 196.569 155.432 197.21 154.87L287.111 239.583ZM297.725 347.161C297.387 347.208 297.059 347.281 296.736 347.38C296.356 347.505 295.986 347.667 295.637 347.859C295.288 348.057 294.96 348.281 294.653 348.542C294.345 348.802 294.069 349.089 293.819 349.401C293.564 349.714 293.35 350.047 293.163 350.406C292.975 350.76 292.83 351.13 292.715 351.516C292.6 351.901 292.522 352.292 292.486 352.693C292.449 353.094 292.449 353.49 292.491 353.891C292.533 354.286 292.611 354.682 292.725 355.063L221.356 383.958C220.866 382.979 220.163 382.193 219.241 381.599L289.606 249.146C290.293 249.448 291.012 249.615 291.762 249.651L297.725 347.161ZM347.913 440.646C347.194 441.146 346.611 441.771 346.158 442.521C322.127 433.37 243.486 398.464 221.72 388.781C222.147 387.526 222.168 386.266 221.793 385L293.163 356.104C293.496 356.755 293.934 357.333 294.475 357.828C295.012 358.323 295.621 358.714 296.298 358.995C296.981 359.276 297.684 359.432 298.418 359.458C299.153 359.49 299.866 359.391 300.564 359.167L301.225 358.906L347.913 440.646ZM584.798 327.531C585.366 328.156 586.028 328.646 586.798 329L553.955 420.094C552.783 419.776 551.627 419.807 550.475 420.198C549.903 420.385 549.366 420.651 548.866 420.995C548.371 421.339 547.934 421.75 547.559 422.219C547.179 422.693 546.877 423.208 546.653 423.771C546.423 424.328 546.283 424.911 546.225 425.51L458.059 425.547C458.017 425.083 457.929 424.63 457.793 424.188C457.642 423.724 457.434 423.281 457.168 422.875L584.798 327.531ZM631.772 413.401L631.705 413.234C631.58 412.854 631.423 412.49 631.225 412.146C631.033 411.797 630.809 411.469 630.548 411.167C630.293 410.859 630.007 410.583 629.699 410.333C629.387 410.089 629.059 409.87 628.705 409.682C628.35 409.5 627.986 409.349 627.6 409.234C627.22 409.12 626.835 409.042 626.434 409C626.038 408.964 625.642 408.964 625.246 409C624.85 409.036 624.46 409.109 624.08 409.224L592.179 328.865C593.246 328.339 594.085 327.568 594.694 326.547L727.251 390.906C726.866 391.901 726.751 392.922 726.913 393.974C707.934 398.255 650.517 409.703 631.772 413.401ZM558.403 424.615C558.361 424.464 558.304 424.318 558.225 424.177C557.965 423.359 557.554 422.63 556.981 421.99C556.413 421.349 555.736 420.854 554.955 420.5L587.85 329.38C588.96 329.677 590.069 329.661 591.168 329.328L623.048 409.63C622.507 409.901 622.012 410.245 621.564 410.656C621.121 411.073 620.746 411.542 620.439 412.063C620.132 412.589 619.908 413.146 619.767 413.734C619.621 414.323 619.564 414.922 619.6 415.531L558.403 424.615ZM510.725 481.042C509.955 480.563 509.116 480.271 508.215 480.161C507.314 480.052 506.434 480.141 505.569 480.422C504.897 480.651 504.278 480.974 503.715 481.401L456.449 430.182C457.382 429.161 457.908 427.969 458.028 426.594L546.246 426.641C546.278 427.104 546.366 427.557 546.512 428C546.856 429.052 547.444 429.943 548.272 430.677L510.725 481.042ZM357.543 446.885C357.663 446.302 357.689 445.708 357.621 445.115L445.939 427.75L446.012 427.938C446.137 428.323 446.298 428.693 446.502 429.047C446.699 429.401 446.929 429.734 447.194 430.042C447.46 430.349 447.752 430.63 448.069 430.88C448.392 431.13 448.731 431.349 449.095 431.531C449.455 431.714 449.83 431.865 450.22 431.974C450.616 432.083 451.012 432.151 451.418 432.182C451.819 432.214 452.225 432.208 452.627 432.161C453.033 432.109 453.429 432.026 453.814 431.901C454.491 431.682 455.111 431.354 455.673 430.922L502.934 482.141C501.871 483.323 501.34 484.714 501.33 486.302C474.074 479.714 381.892 453.781 357.543 446.885ZM227.585 301.135C228.319 301.172 229.038 301.073 229.736 300.844C230.189 300.698 230.621 300.505 231.033 300.255C231.444 300.01 231.819 299.724 232.163 299.391C232.502 299.057 232.804 298.688 233.059 298.286C233.314 297.885 233.522 297.458 233.679 297.005C233.84 296.557 233.944 296.094 233.991 295.615C234.043 295.141 234.038 294.667 233.975 294.193C233.913 293.719 233.798 293.26 233.632 292.813C233.465 292.365 233.246 291.943 232.981 291.547L287.538 247.74C287.861 248.078 288.22 248.37 288.616 248.625L218.267 381.125C217.934 380.979 217.585 380.865 217.231 380.776L227.585 301.135ZM97.1577 333.703C96.0015 332.859 94.7098 332.464 93.2775 332.516L81.0796 240.432C81.2463 240.365 81.4338 240.292 81.6005 240.224C82.4546 239.948 83.215 239.505 83.8765 238.901C84.538 238.297 85.0432 237.578 85.3973 236.755L155.59 259.135C155.35 260.234 155.408 261.323 155.757 262.391C156.038 263.286 156.512 264.073 157.168 264.745L97.1577 333.703ZM21.814 272.156C22.2307 271.755 22.5848 271.302 22.8765 270.802C23.163 270.297 23.3817 269.766 23.5223 269.203C23.663 268.641 23.7255 268.068 23.7046 267.49C23.689 266.906 23.59 266.344 23.413 265.786C23.1213 264.906 22.6577 264.125 22.0275 263.448C30.6421 257.557 52.0432 247.052 74.2775 237.365C74.5536 237.87 74.8973 238.328 75.3036 238.74C75.7098 239.151 76.163 239.5 76.663 239.781C77.1682 240.068 77.6994 240.276 78.2619 240.417C78.8192 240.552 79.3921 240.609 79.965 240.583L92.1682 332.667C91.9963 332.734 91.814 332.807 91.6421 332.875C90.7619 333.172 89.9859 333.641 89.3088 334.281C67.189 314.745 33.2046 284.13 21.8296 272.208L21.814 272.156Z" fill="#776B5D"/>
</g>
</g>
</g>
<mask id="mask3_7595_10531" style="mask-type:luminance" maskUnits="userSpaceOnUse" x="0" y="4" width="708" height="483">
<path d="M0 4.33594H708V487.003H0V4.33594Z" fill="white"/>
</mask>
<g mask="url(#mask3_7595_10531)">
<mask id="mask4_7595_10531" style="mask-type:luminance" maskUnits="userSpaceOnUse" x="-81" y="-201" width="843" height="848">
<path d="M518.016 -200.992L761.094 407.232L162.156 646.602L-80.9219 38.3776L518.016 -200.992Z" fill="white"/>
</mask>
<g mask="url(#mask4_7595_10531)">
<mask id="mask5_7595_10531" style="mask-type:luminance" maskUnits="userSpaceOnUse" x="-81" y="-201" width="843" height="848">
<path d="M518.016 -200.992L761.094 407.232L162.156 646.602L-80.9219 38.3776L518.016 -200.992Z" fill="white"/>
</mask>
<g mask="url(#mask5_7595_10531)">
<path d="M567.094 477.423C566.719 476.496 566.156 475.704 565.401 475.053C564.646 474.397 563.787 473.954 562.813 473.715C562.427 468.783 560.891 459.991 556.88 444.189C554.203 433.527 551.167 422.793 549.318 416.413C549.99 416.142 550.594 415.772 551.13 415.293C551.667 414.814 552.11 414.257 552.453 413.621C552.797 412.986 553.021 412.314 553.13 411.6C553.235 410.892 553.219 410.178 553.078 409.475C565.11 408.105 593.698 408.887 616.318 409.954L616.443 410.257C616.594 410.637 616.776 410.996 617 411.335C617.219 411.678 617.474 411.991 617.755 412.283C618.042 412.574 618.349 412.835 618.688 413.064C619.021 413.293 619.375 413.491 619.75 413.652C620.125 413.809 620.511 413.934 620.906 414.017C621.302 414.1 621.709 414.147 622.115 414.152C622.521 414.158 622.922 414.121 623.323 414.048C623.724 413.975 624.11 413.861 624.49 413.71C624.865 413.559 625.224 413.371 625.568 413.152C625.906 412.928 626.224 412.678 626.516 412.392C626.808 412.111 627.068 411.798 627.297 411.465C627.526 411.126 627.719 410.772 627.88 410.402C628.042 410.027 628.162 409.642 628.25 409.241C628.334 408.845 628.375 408.444 628.38 408.038C628.386 407.632 628.354 407.225 628.276 406.829C628.203 406.428 628.094 406.038 627.943 405.663C627.839 405.329 627.709 405.012 627.558 404.699L697.089 352.954C697.266 353.152 697.453 353.34 697.651 353.512C697.849 353.684 698.058 353.845 698.281 353.991C698.5 354.137 698.729 354.267 698.964 354.387C699.198 354.501 699.443 354.605 699.693 354.694C699.943 354.777 700.198 354.845 700.453 354.902C700.714 354.954 700.974 354.991 701.24 355.012C701.5 355.033 701.766 355.038 702.026 355.022C702.292 355.007 702.552 354.98 702.813 354.934C703.073 354.887 703.328 354.824 703.578 354.741C703.834 354.663 704.078 354.569 704.318 354.454C704.558 354.345 704.787 354.22 705.011 354.079C705.235 353.939 705.448 353.783 705.651 353.616C705.854 353.449 706.047 353.267 706.229 353.074C706.412 352.882 706.578 352.678 706.735 352.465C706.886 352.251 707.026 352.027 707.151 351.798C707.281 351.564 707.391 351.324 707.485 351.079C707.584 350.835 707.662 350.579 707.724 350.324C707.787 350.069 707.834 349.809 707.865 349.548C707.896 349.283 707.906 349.022 707.906 348.757C707.901 348.496 707.88 348.23 707.844 347.97C707.808 347.71 707.755 347.449 707.683 347.194C707.615 346.939 707.526 346.694 707.427 346.449C707.323 346.204 707.209 345.97 707.073 345.741C706.943 345.512 706.797 345.293 706.636 345.079C706.474 344.871 706.302 344.673 706.12 344.486C705.933 344.298 705.735 344.121 705.526 343.96C705.318 343.798 705.104 343.647 704.875 343.512C704.646 343.376 704.412 343.257 704.172 343.152C703.927 343.048 703.683 342.96 703.427 342.887C703.172 342.814 702.917 342.757 702.656 342.72C702.396 342.678 702.13 342.652 701.865 342.647C701.604 342.642 701.339 342.652 701.078 342.678L676.24 214.715C676.427 214.642 676.61 214.569 676.813 214.486C677.261 214.309 677.683 214.085 678.078 213.809C678.469 213.533 678.828 213.215 679.151 212.855C679.469 212.496 679.745 212.105 679.979 211.684C680.209 211.262 680.386 210.819 680.511 210.355C680.641 209.887 680.714 209.418 680.729 208.934C680.745 208.454 680.709 207.975 680.615 207.507C680.521 207.033 680.375 206.579 680.177 206.142C679.974 205.699 679.729 205.293 679.433 204.913C679.141 204.533 678.802 204.189 678.427 203.887C678.058 203.585 677.651 203.329 677.219 203.121C676.781 202.908 676.334 202.751 675.86 202.647C675.391 202.548 674.917 202.496 674.433 202.507C673.953 202.512 673.479 202.574 673.011 202.689C672.547 202.809 672.099 202.975 671.672 203.199C671.245 203.418 670.844 203.684 670.479 204.001C670.115 204.314 669.792 204.663 669.505 205.053C669.224 205.439 668.99 205.855 668.802 206.303C668.615 206.746 668.479 207.204 668.401 207.678C668.318 208.152 668.292 208.632 668.323 209.111C668.354 209.59 668.443 210.064 668.584 210.522C668.724 210.986 668.912 211.423 669.156 211.84C669.396 212.257 669.683 212.637 670.016 212.986C670.349 213.335 670.714 213.642 671.115 213.908C671.521 214.173 671.948 214.387 672.396 214.548L623.151 401.845C622.011 401.652 620.901 401.767 619.828 402.194C619.693 402.251 619.558 402.303 619.422 402.355L542.646 274.543C543.052 274.246 543.417 273.908 543.735 273.522C544.058 273.137 544.334 272.72 544.552 272.267C544.771 271.819 544.938 271.345 545.042 270.855C545.151 270.366 545.198 269.871 545.183 269.366C545.167 268.866 545.094 268.371 544.959 267.887C544.828 267.408 544.636 266.944 544.391 266.507C544.146 266.069 543.849 265.668 543.505 265.303C543.162 264.934 542.781 264.616 542.36 264.345C541.938 264.069 541.49 263.85 541.016 263.689C540.542 263.527 540.052 263.418 539.552 263.376C539.052 263.329 538.558 263.345 538.058 263.418C537.563 263.496 537.084 263.632 536.62 263.824C536.156 264.012 535.724 264.262 535.318 264.559C534.912 264.855 534.552 265.199 534.229 265.585C533.912 265.97 533.641 266.387 533.422 266.84C533.203 267.293 533.042 267.762 532.938 268.251L410.229 253.6C410.261 252.746 410.11 251.923 409.792 251.132C409.641 250.757 409.459 250.397 409.235 250.053C409.016 249.715 408.761 249.397 408.479 249.105C408.193 248.819 407.886 248.553 407.547 248.324C407.214 248.095 406.86 247.902 406.485 247.741C406.11 247.579 405.724 247.46 405.328 247.371C404.933 247.288 404.526 247.246 404.12 247.241C403.714 247.236 403.313 247.267 402.912 247.345C402.511 247.418 402.125 247.533 401.745 247.684C401.37 247.829 401.011 248.017 400.667 248.241C400.328 248.46 400.011 248.715 399.719 248.996C399.427 249.283 399.167 249.59 398.938 249.928C398.709 250.262 398.511 250.616 398.354 250.991C398.193 251.366 398.068 251.751 397.985 252.147C397.901 252.543 397.86 252.949 397.854 253.355C397.849 253.762 397.88 254.163 397.953 254.564C398.031 254.965 398.141 255.35 398.292 255.73C398.422 256.038 398.573 256.34 398.75 256.621L320.052 314.595C319.62 314.105 319.12 313.699 318.563 313.371C318 313.043 317.401 312.803 316.766 312.663C316.13 312.522 315.49 312.486 314.844 312.543C314.193 312.605 313.573 312.767 312.974 313.022C312.38 313.277 311.834 313.621 311.344 314.048C310.854 314.48 310.443 314.97 310.11 315.527C309.776 316.09 309.537 316.684 309.391 317.319C309.245 317.949 309.198 318.59 309.255 319.241L216.693 335.777L216.438 335.137C216.287 334.757 216.104 334.397 215.88 334.053C215.662 333.715 215.407 333.397 215.125 333.105C214.844 332.814 214.532 332.553 214.198 332.324C213.86 332.09 213.505 331.897 213.13 331.736C212.761 331.574 212.375 331.454 211.974 331.371C211.578 331.288 211.172 331.241 210.766 331.236C210.36 331.23 209.959 331.267 209.558 331.345C209.157 331.418 208.766 331.533 208.391 331.684L208.224 331.751L164.953 252.845C165.495 252.48 165.969 252.043 166.37 251.527C166.771 251.012 167.084 250.449 167.308 249.835C167.532 249.22 167.657 248.59 167.677 247.934C167.703 247.283 167.625 246.642 167.443 246.012C167.266 245.387 166.995 244.798 166.63 244.257C166.266 243.715 165.823 243.246 165.313 242.84C164.797 242.439 164.235 242.126 163.62 241.897C163.005 241.673 162.375 241.548 161.719 241.527L153.052 82.4805C153.485 82.418 153.901 82.3086 154.308 82.1523C154.719 82.0013 155.104 81.8034 155.474 81.569C155.839 81.3346 156.177 81.0638 156.49 80.7565C156.797 80.4492 157.073 80.1107 157.308 79.7461C157.547 79.3815 157.745 78.9961 157.901 78.5898C158.058 78.1784 158.172 77.7617 158.24 77.3294C158.308 76.9023 158.334 76.4648 158.308 76.0325C158.287 75.595 158.219 75.168 158.104 74.7461C157.99 74.3242 157.834 73.9232 157.636 73.5325C157.438 73.1471 157.198 72.7825 156.922 72.444C156.646 72.1055 156.339 71.7982 156 71.5273C155.662 71.2565 155.292 71.0221 154.907 70.8242C154.516 70.6315 154.11 70.4753 153.688 70.3659C153.266 70.2565 152.834 70.194 152.401 70.1732C151.964 70.1523 151.532 70.1784 151.099 70.2513C150.672 70.3242 150.255 70.4388 149.849 70.6003C148.5 71.1419 147.474 72.0482 146.766 73.319L12.4013 12.793C12.5523 12.3503 12.6565 11.8971 12.7034 11.4284C12.7555 10.9648 12.7503 10.5013 12.6982 10.0378C12.6409 9.57421 12.5315 9.12109 12.3753 8.67838C12.219 8.24088 12.0107 7.82421 11.7607 7.42838C11.5055 7.03255 11.2138 6.67317 10.8805 6.34505C10.5471 6.01692 10.1773 5.73046 9.78151 5.49088C9.38047 5.24609 8.95859 5.04817 8.51589 4.89713C8.07318 4.7513 7.62005 4.65234 7.1513 4.60546C6.68776 4.5638 6.22422 4.569 5.76068 4.6263C5.29193 4.6888 4.84401 4.79817 4.40651 4.95963C3.9638 5.12109 3.55234 5.32942 3.15651 5.58984C2.76589 5.84504 2.40651 6.14192 2.08359 6.47525C1.76068 6.81379 1.47943 7.18359 1.23464 7.58463C0.995053 7.98567 0.802342 8.40755 0.65651 8.85546C0.515885 9.29817 0.422135 9.7565 0.380469 10.22C0.338802 10.6888 0.349219 11.1523 0.411719 11.6159C0.474219 12.0794 0.59401 12.5273 0.755469 12.9648C0.922135 13.4023 1.13568 13.819 1.39609 14.2044C1.65651 14.595 1.95339 14.9492 2.29714 15.2721C2.63568 15.595 3.00547 15.8711 3.41172 16.1107C3.81276 16.345 4.23984 16.5325 4.68255 16.6732C5.13047 16.819 5.5888 16.9075 6.05234 16.944C6.52109 16.9805 6.98463 16.9648 7.44818 16.8971C7.91172 16.8294 8.35964 16.7096 8.79193 16.543C17.8128 33.918 45.693 85.043 54.9586 102.012C54.5992 102.199 54.2607 102.418 53.943 102.673C53.6253 102.923 53.3336 103.204 53.0732 103.517C52.8076 103.829 52.5784 104.163 52.3805 104.517C52.1878 104.876 52.0263 105.246 51.9013 105.632C51.7815 106.022 51.693 106.418 51.6513 106.819C51.6044 107.225 51.5992 107.632 51.6305 108.033C51.6669 108.439 51.7398 108.84 51.8544 109.23C51.9638 109.621 52.1148 109.996 52.3023 110.355C52.4898 110.72 52.7086 111.059 52.9638 111.376C53.219 111.694 53.5003 111.986 53.8076 112.246C54.1201 112.507 54.4534 112.741 54.8076 112.934C55.1669 113.132 55.5367 113.293 55.9273 113.413C56.3128 113.538 56.7086 113.621 57.1148 113.668C57.5159 113.715 57.9221 113.72 58.3284 113.684C58.7346 113.652 59.1305 113.579 59.5211 113.465C59.9117 113.35 60.2867 113.204 60.6513 113.017C60.7971 112.965 60.943 112.908 61.0888 112.84L93.3909 165.579C92.4638 166.267 91.7867 167.142 91.3492 168.21C90.9169 169.277 90.7867 170.376 90.969 171.512C91.1461 172.652 91.6096 173.663 92.3492 174.543C93.094 175.423 94.0107 176.048 95.0992 176.413L80.4117 237.527C79.943 237.46 79.469 237.449 79.0003 237.486C78.5263 237.527 78.0628 237.621 77.6096 237.767C77.1565 237.913 76.7294 238.111 76.3232 238.355C75.9117 238.6 75.5419 238.887 75.1982 239.22C74.8596 239.548 74.5576 239.913 74.3023 240.314C74.0471 240.715 73.8388 241.142 73.6826 241.585C73.5211 242.033 73.4169 242.496 73.3648 242.965C73.3128 243.439 73.3128 243.913 73.3648 244.382C73.4221 244.855 73.5315 245.314 73.693 245.762C73.8544 246.21 74.0628 246.632 74.3232 247.027C74.5836 247.428 74.8857 247.793 75.2242 248.121C75.568 248.449 75.943 248.736 76.3544 248.98C76.7607 249.22 77.193 249.418 77.6461 249.559C78.0992 249.704 78.5628 249.793 79.0367 249.829C79.5055 249.866 79.9794 249.85 80.4482 249.777C80.9169 249.71 81.3753 249.585 81.818 249.408C82.0628 249.329 82.3076 249.23 82.5419 249.116C104.709 265.678 184.052 320.017 205.245 334.486C204.933 335.043 204.714 335.637 204.584 336.262C204.459 336.892 204.427 337.522 204.495 338.163C204.563 338.798 204.724 339.408 204.979 339.996C205.24 340.579 205.578 341.116 206 341.595C206.422 342.074 206.912 342.48 207.459 342.814C208.005 343.142 208.594 343.382 209.214 343.533C209.839 343.678 210.469 343.73 211.11 343.684C211.745 343.637 212.36 343.491 212.959 343.257C214.323 342.71 215.354 341.793 216.063 340.507C238.922 353.371 315.464 391.053 337.037 401.673C336.448 403.178 336.453 404.684 337.058 406.184C337.209 406.559 337.396 406.918 337.615 407.262C337.839 407.6 338.094 407.918 338.375 408.21C338.662 408.496 338.969 408.757 339.302 408.991C339.641 409.22 339.995 409.413 340.37 409.574C340.74 409.736 341.125 409.855 341.526 409.944C341.922 410.027 342.323 410.069 342.729 410.074C343.136 410.079 343.542 410.048 343.943 409.97C344.339 409.897 344.729 409.783 345.104 409.632C345.485 409.48 345.844 409.298 346.183 409.074C346.526 408.855 346.839 408.6 347.13 408.319C347.422 408.033 347.683 407.725 347.912 407.387C348.146 407.053 348.339 406.699 348.5 406.324C348.662 405.949 348.781 405.564 348.865 405.168C348.953 404.772 348.995 404.366 349 403.96C349.005 403.553 348.969 403.152 348.896 402.751C348.823 402.35 348.709 401.965 348.558 401.585C348.281 400.902 347.896 400.288 347.391 399.746L401.922 340.793C402.276 341.069 402.656 341.303 403.068 341.496C403.474 341.684 403.896 341.829 404.334 341.928C404.776 342.027 405.219 342.079 405.667 342.079C406.12 342.079 406.563 342.033 407 341.939C407.443 341.845 407.865 341.699 408.276 341.512C408.683 341.324 409.068 341.095 409.427 340.824C409.781 340.548 410.11 340.241 410.401 339.902C410.688 339.559 410.943 339.184 411.151 338.788L468.573 362.772C468.443 363.173 468.36 363.585 468.318 364.007C468.276 364.423 468.276 364.84 468.318 365.262C468.36 365.678 468.443 366.09 468.573 366.491C468.698 366.892 468.865 367.272 469.068 367.642C469.271 368.012 469.511 368.35 469.787 368.673C470.058 368.991 470.365 369.277 470.698 369.533C471.031 369.793 471.386 370.012 471.766 370.194C472.141 370.382 472.537 370.527 472.943 370.632L458.511 460.861C457.719 460.803 456.948 460.897 456.198 461.137C455.443 461.382 454.766 461.751 454.151 462.251C453.542 462.751 453.047 463.35 452.662 464.043C452.281 464.736 452.042 465.47 451.943 466.257C451.839 467.038 451.891 467.814 452.084 468.579C452.281 469.345 452.615 470.048 453.078 470.684C453.542 471.324 454.11 471.855 454.781 472.277C455.448 472.694 456.172 472.98 456.948 473.126C457.724 473.267 458.5 473.267 459.276 473.116C460.052 472.96 460.771 472.673 461.438 472.246C462.099 471.814 462.662 471.283 463.12 470.637C463.578 469.996 463.906 469.288 464.094 468.522C482.443 471.319 536.276 479.392 555.156 480.533C555.219 481.1 555.354 481.652 555.563 482.189C555.714 482.564 555.901 482.923 556.12 483.267C556.344 483.605 556.594 483.923 556.88 484.21C557.162 484.501 557.474 484.762 557.808 484.996C558.146 485.225 558.5 485.418 558.87 485.579C559.245 485.741 559.63 485.861 560.026 485.944C560.427 486.033 560.828 486.074 561.235 486.079C561.641 486.085 562.047 486.053 562.443 485.975C562.844 485.902 563.235 485.788 563.61 485.637C563.99 485.486 564.349 485.303 564.688 485.079C565.031 484.861 565.344 484.605 565.636 484.324C565.927 484.038 566.188 483.73 566.417 483.392C566.646 483.059 566.844 482.704 567.005 482.329C567.162 481.954 567.287 481.569 567.37 481.173C567.453 480.772 567.5 480.371 567.505 479.965C567.511 479.559 567.474 479.158 567.401 478.757C567.328 478.355 567.214 477.97 567.063 477.59L567.094 477.423ZM552.854 408.47L552.808 408.35C552.656 407.97 552.469 407.616 552.245 407.272C552.026 406.934 551.771 406.616 551.49 406.324C551.203 406.033 550.896 405.772 550.558 405.543C550.224 405.314 549.87 405.116 549.495 404.96C549.125 404.798 548.74 404.673 548.339 404.59C547.943 404.507 547.542 404.46 547.136 404.454C546.724 404.449 546.323 404.486 545.922 404.559C545.526 404.637 545.136 404.746 544.755 404.897C543.703 405.314 542.828 405.975 542.146 406.882L479.985 367.309C480.089 367.09 480.183 366.871 480.266 366.647C505.443 373.757 592.589 399.704 616.141 406.72C616.005 407.418 615.985 408.116 616.078 408.819C600.969 408.053 567.021 406.678 552.854 408.47ZM411.401 333.449C411.188 332.908 410.896 332.408 410.542 331.949C410.183 331.491 409.771 331.095 409.297 330.751C408.828 330.413 408.323 330.142 407.776 329.944C407.229 329.746 406.667 329.626 406.084 329.59L404.792 259.704C405.349 259.647 405.891 259.517 406.412 259.309C406.599 259.236 406.766 259.168 406.953 259.095L470.641 359.736C469.927 360.283 469.36 360.949 468.943 361.746L411.537 337.751C412.058 336.298 412.031 334.855 411.469 333.418L411.401 333.449ZM673.573 214.845C674.125 214.939 674.677 214.954 675.229 214.887L699.99 342.897C699.792 342.954 699.604 343.033 699.417 343.126C699.042 343.277 698.683 343.465 698.339 343.684C698 343.908 697.683 344.158 697.391 344.444C697.099 344.725 696.839 345.038 696.61 345.371C696.38 345.71 696.188 346.064 696.026 346.434C695.865 346.809 695.745 347.194 695.656 347.595C695.573 347.991 695.531 348.392 695.526 348.798C695.521 349.204 695.552 349.611 695.63 350.007C695.703 350.408 695.813 350.798 695.964 351.173C696.068 351.507 696.198 351.824 696.349 352.137L626.761 403.882C626.073 403.116 625.24 402.553 624.271 402.199L673.573 214.845ZM618.5 402.98C617.542 403.715 616.854 404.642 616.427 405.767C592.896 398.762 505.75 372.809 480.542 365.673C480.75 364.517 480.641 363.387 480.209 362.288C479.823 361.324 479.229 360.512 478.433 359.85L537.219 275.595C538.61 276.027 539.985 275.97 541.339 275.434C541.474 275.382 541.61 275.329 541.745 275.272L618.5 402.98ZM532.813 269.418C532.792 270.272 532.938 271.1 533.255 271.897C533.823 273.314 534.781 274.371 536.13 275.074L477.479 359.137C476.667 358.663 475.787 358.392 474.849 358.324C473.906 358.257 473 358.402 472.125 358.751C471.943 358.824 471.755 358.902 471.589 358.97L407.901 258.34C409.11 257.413 409.87 256.199 410.188 254.71L532.813 269.418ZM399.427 257.585C399.943 258.152 400.537 258.621 401.219 258.98L344.62 397.84C343.578 397.522 342.526 397.486 341.464 397.73L317.917 324.423C318.287 324.267 318.636 324.074 318.969 323.85C319.302 323.626 319.61 323.371 319.891 323.085C320.177 322.803 320.427 322.491 320.651 322.158C320.875 321.824 321.063 321.475 321.214 321.1C321.37 320.73 321.49 320.35 321.568 319.954C321.646 319.564 321.688 319.168 321.693 318.767C321.693 318.366 321.662 317.965 321.584 317.574C321.511 317.178 321.401 316.793 321.25 316.423C321.125 316.111 320.969 315.814 320.797 315.527L399.427 257.585ZM309.474 320.382L309.735 321.022C310.005 321.71 310.386 322.324 310.875 322.871C311.37 323.418 311.938 323.861 312.589 324.204C313.24 324.553 313.927 324.772 314.657 324.871C315.386 324.97 316.11 324.939 316.828 324.777L340.386 398.064C339.141 398.585 338.172 399.423 337.479 400.579C316.094 390.079 238.875 351.98 216.469 339.423C216.766 338.595 216.875 337.746 216.797 336.871L309.474 320.382ZM160.641 241.569C160.157 241.642 159.688 241.772 159.229 241.954C158.802 242.126 158.391 242.345 158.005 242.6L101.469 174.928C101.787 174.605 102.068 174.257 102.313 173.876C102.558 173.496 102.755 173.095 102.912 172.668C103.068 172.241 103.177 171.809 103.235 171.361C103.297 170.913 103.308 170.46 103.271 170.012C103.229 169.559 103.146 169.116 103.011 168.689C102.875 168.257 102.693 167.845 102.469 167.449C102.245 167.059 101.979 166.694 101.672 166.361C101.37 166.027 101.032 165.73 100.662 165.47L149.552 81.944C150.318 82.293 151.125 82.4857 151.974 82.5221L160.641 241.569ZM9.7763 16.0117C10.6878 15.4544 11.4065 14.7096 11.9326 13.7773L146.334 74.293C145.948 75.4075 145.886 76.5378 146.151 77.6888L64.0628 104.632C63.9013 104.267 63.7034 103.918 63.4742 103.59C63.2451 103.267 62.9846 102.965 62.693 102.689C62.4065 102.413 62.094 102.163 61.7555 101.949C61.4169 101.73 61.0628 101.553 60.693 101.402C60.318 101.257 59.9378 101.147 59.5471 101.074C59.1513 101.001 58.7555 100.965 58.3544 100.97C57.9534 100.975 57.5576 101.017 57.1669 101.095C56.7763 101.178 56.3961 101.293 56.0263 101.449L55.8596 101.517C46.7555 84.6575 18.7659 33.3242 9.7763 16.0117ZM62.0784 112.09C62.5628 111.73 62.9846 111.314 63.3492 110.829C63.7086 110.345 63.9951 109.819 64.2034 109.257C64.4117 108.689 64.5315 108.105 64.568 107.501C64.6096 106.902 64.5576 106.309 64.4221 105.72L146.505 78.7825C146.959 79.8346 147.651 80.6888 148.589 81.3503L99.7034 164.934C98.9274 164.564 98.1096 164.366 97.2555 164.34C96.3961 164.309 95.568 164.454 94.7711 164.772C94.6201 164.824 94.4742 164.882 94.3336 164.949L62.0784 112.09ZM96.1878 176.684C97.2815 176.845 98.3492 176.715 99.3805 176.309C99.8128 176.137 100.219 175.913 100.599 175.642L157.162 243.329C156.188 244.309 155.61 245.475 155.417 246.84L85.8024 243.376C85.7659 242.673 85.6201 241.996 85.3596 241.34C85.0211 240.496 84.5263 239.762 83.8648 239.137C83.2034 238.512 82.443 238.053 81.5836 237.767L96.1878 176.684ZM83.5784 248.387C84.8023 247.371 85.5211 246.069 85.7399 244.496L155.354 247.96C155.386 248.663 155.526 249.345 155.782 250.001C155.933 250.382 156.115 250.741 156.339 251.079C156.558 251.423 156.813 251.736 157.099 252.027C157.38 252.319 157.688 252.579 158.026 252.809C158.36 253.038 158.714 253.236 159.089 253.397C159.464 253.553 159.849 253.678 160.245 253.762C160.646 253.845 161.047 253.892 161.453 253.897C161.86 253.902 162.261 253.866 162.662 253.793C163.063 253.72 163.448 253.605 163.828 253.454L164.016 253.382L207.282 332.283C206.782 332.621 206.339 333.022 205.964 333.496C185.078 319.199 105.995 265.033 83.5732 248.371L83.5784 248.387ZM346.62 398.84C346.323 398.616 346.011 398.423 345.683 398.257L402.328 259.361C402.771 259.496 403.229 259.579 403.698 259.611L405.042 329.574C404.485 329.632 403.943 329.762 403.422 329.97C403.042 330.121 402.683 330.303 402.344 330.527C402 330.746 401.688 331.001 401.396 331.288C401.104 331.569 400.844 331.876 400.615 332.215C400.386 332.548 400.188 332.902 400.026 333.277C399.87 333.652 399.745 334.038 399.662 334.434C399.578 334.835 399.531 335.236 399.526 335.642C399.521 336.048 399.558 336.449 399.63 336.85C399.703 337.251 399.818 337.637 399.969 338.017C400.245 338.699 400.63 339.314 401.12 339.866L346.62 398.84ZM474.084 370.642C475.021 370.704 475.927 370.564 476.808 370.22C477.849 369.798 478.714 369.137 479.401 368.246L541.563 407.762C541.146 408.559 540.922 409.408 540.875 410.303C540.834 411.204 540.974 412.069 541.308 412.908L541.516 413.428L463.011 463.069C462.141 461.934 461.011 461.194 459.62 460.845L474.084 370.642ZM464.276 467.257C464.349 466.329 464.214 465.434 463.865 464.569L463.646 464.027L542.177 414.397C542.531 414.855 542.938 415.257 543.401 415.605C543.865 415.949 544.37 416.225 544.912 416.428C545.453 416.632 546.011 416.757 546.589 416.803C547.162 416.85 547.735 416.814 548.302 416.699C555.084 439.98 560.74 463.142 561.729 473.543C560.808 473.48 559.917 473.621 559.063 473.965C558.521 474.178 558.021 474.47 557.563 474.824C557.104 475.184 556.703 475.6 556.36 476.069C556.016 476.538 555.745 477.048 555.547 477.595C555.349 478.142 555.229 478.704 555.188 479.288C538.761 478.262 493.443 471.736 464.276 467.257Z" fill="#3F2305"/>
</g>
</g>
</g>
</svg>
