<svg width="496" height="482" viewBox="0 0 496 482" fill="none" xmlns="http://www.w3.org/2000/svg">
<path d="M14.1292 203.563C14.1292 203.162 14.15 202.761 14.1969 202.36C14.249 201.959 14.3167 201.563 14.4157 201.173C14.5094 200.782 14.6292 200.396 14.775 200.021C14.9157 199.646 15.0823 199.277 15.2646 198.923C15.4521 198.563 15.6605 198.219 15.8896 197.891C16.1188 197.558 16.3688 197.24 16.6344 196.943C16.9 196.641 17.1865 196.355 17.4886 196.089C17.7907 195.824 18.1084 195.574 18.4417 195.344C18.7698 195.12 19.1136 194.912 19.473 194.725C19.8271 194.537 20.1969 194.376 20.5719 194.23C20.9521 194.089 21.3323 193.969 21.723 193.876C22.1188 193.782 22.5146 193.709 22.9105 193.662C23.3115 193.615 23.7125 193.589 24.1188 193.594C24.5198 193.594 24.9209 193.62 25.3219 193.667C25.7177 193.719 26.1136 193.792 26.5042 193.891C26.8948 193.99 27.2802 194.11 27.6552 194.256C28.0302 194.402 28.3948 194.568 28.7542 194.756C29.1084 194.943 29.4521 195.152 29.7802 195.386C30.1136 195.615 30.4261 195.865 30.7282 196.136C31.025 196.402 31.3115 196.688 31.5771 196.99C31.8375 197.292 32.0875 197.61 32.3115 197.943C32.5407 198.277 32.7438 198.626 32.9313 198.98C33.1136 199.339 33.275 199.709 33.4157 200.084C33.5563 200.464 33.6761 200.85 33.7646 201.24C33.8584 201.631 33.9313 202.027 33.973 202.428C34.0198 202.829 34.0407 203.23 34.0355 203.631C34.0355 204.032 34.0094 204.433 33.9573 204.834C33.9052 205.235 33.8271 205.631 33.7282 206.016C33.6292 206.407 33.5042 206.792 33.3584 207.167C33.2125 207.542 33.0407 207.907 32.8532 208.261C32.6605 208.615 32.4469 208.959 32.2178 209.287C31.9834 209.615 31.7334 209.928 31.4625 210.23L88.4678 271.876C88.7959 271.62 89.1396 271.386 89.499 271.178C89.8584 270.964 90.2282 270.777 90.6084 270.61C90.9886 270.443 91.3792 270.303 91.7803 270.188C92.1761 270.074 92.5823 269.98 92.9938 269.917C93.4053 269.85 93.8167 269.813 94.2334 269.798C94.65 269.782 95.0615 269.798 95.4782 269.834C95.8896 269.876 96.3011 269.938 96.7073 270.027C97.1136 270.12 97.5094 270.235 97.9 270.376C98.2907 270.511 98.6761 270.678 99.0459 270.865C99.4157 271.053 99.775 271.266 100.119 271.495C100.463 271.73 100.791 271.985 101.103 272.256C101.416 272.532 101.707 272.824 101.983 273.136C102.259 273.449 102.515 273.771 102.749 274.115C102.983 274.459 103.197 274.818 103.39 275.188C103.577 275.558 103.744 275.938 103.884 276.329C104.025 276.719 104.145 277.115 104.239 277.521L230.489 260.298C230.489 260.141 230.489 259.99 230.489 259.839C230.489 259.199 230.551 258.563 230.676 257.933C230.796 257.308 230.978 256.693 231.218 256.1C231.463 255.506 231.754 254.938 232.108 254.402C232.457 253.865 232.853 253.365 233.301 252.907C233.749 252.449 234.233 252.032 234.759 251.667C235.285 251.303 235.843 250.99 236.431 250.73C237.015 250.469 237.624 250.271 238.249 250.131C238.874 249.99 239.504 249.907 240.145 249.891C240.785 249.87 241.426 249.912 242.056 250.016C242.692 250.12 243.306 250.282 243.905 250.506C244.509 250.73 245.082 251.006 245.629 251.339C246.176 251.673 246.687 252.058 247.16 252.49C247.634 252.923 248.062 253.396 248.442 253.912C248.827 254.428 249.155 254.975 249.431 255.553C249.707 256.131 249.926 256.73 250.088 257.35C250.244 257.975 250.343 258.605 250.384 259.24C250.421 259.881 250.4 260.521 250.312 261.157C250.228 261.792 250.082 262.412 249.879 263.021C249.676 263.626 249.416 264.209 249.098 264.766C248.78 265.324 248.41 265.844 247.994 266.334C247.577 266.818 247.114 267.261 246.614 267.657C246.108 268.053 245.572 268.396 244.999 268.693C244.431 268.985 243.838 269.219 243.223 269.402C242.608 269.579 241.978 269.699 241.343 269.756V417.891C242.999 418.037 244.525 418.568 245.921 419.485C247.312 420.397 248.405 421.589 249.202 423.053L359.088 375.907C358.864 375.219 358.718 374.521 358.65 373.808C358.582 373.089 358.588 372.376 358.676 371.662C358.759 370.949 358.921 370.256 359.155 369.574C359.39 368.896 359.697 368.251 360.072 367.636C360.452 367.027 360.884 366.459 361.384 365.943C361.884 365.423 362.431 364.964 363.03 364.568C363.629 364.167 364.259 363.839 364.931 363.574C365.598 363.313 366.291 363.126 366.999 363.011C367.707 362.902 368.421 362.865 369.14 362.907C369.858 362.949 370.561 363.068 371.254 363.261C371.947 363.454 372.608 363.725 373.244 364.058C373.874 364.397 374.468 364.803 375.015 365.266C375.561 365.73 376.051 366.251 376.489 366.824C376.921 367.396 377.291 368.006 377.593 368.662C377.895 369.313 378.124 369.99 378.28 370.688C378.431 371.391 378.515 372.105 378.515 372.824C378.515 374.438 378.14 375.964 377.384 377.391L477.999 441.615C478.239 441.308 478.494 441.016 478.765 440.74C479.041 440.459 479.327 440.204 479.629 439.959C479.931 439.714 480.249 439.49 480.577 439.282C480.91 439.079 481.249 438.891 481.598 438.725C481.952 438.558 482.311 438.412 482.681 438.287C483.046 438.162 483.421 438.063 483.801 437.98C484.181 437.902 484.567 437.844 484.952 437.808C485.338 437.772 485.728 437.761 486.114 437.772C486.504 437.777 486.89 437.813 487.275 437.865C487.66 437.923 488.041 438.001 488.416 438.1C488.791 438.199 489.16 438.318 489.52 438.464C489.884 438.605 490.233 438.772 490.577 438.954C490.921 439.136 491.249 439.339 491.567 439.563C491.89 439.787 492.192 440.027 492.483 440.287C492.77 440.542 493.046 440.818 493.306 441.11C493.561 441.402 493.801 441.704 494.025 442.022C494.249 442.339 494.452 442.673 494.634 443.016C494.817 443.355 494.983 443.709 495.124 444.068C495.265 444.433 495.39 444.803 495.489 445.178C495.588 445.553 495.666 445.933 495.718 446.318C495.775 446.704 495.806 447.089 495.817 447.48C495.822 447.865 495.811 448.256 495.775 448.641C495.739 449.027 495.681 449.412 495.598 449.792C495.52 450.173 495.416 450.548 495.291 450.912C495.166 451.282 495.02 451.641 494.853 451.99C494.686 452.344 494.504 452.683 494.296 453.011C494.088 453.344 493.864 453.657 493.619 453.959C493.374 454.266 493.114 454.553 492.838 454.824C492.561 455.094 492.27 455.35 491.963 455.589C491.655 455.829 491.332 456.048 491.004 456.245C490.671 456.449 490.327 456.631 489.973 456.787C489.619 456.949 489.254 457.089 488.884 457.209C488.515 457.324 488.14 457.423 487.759 457.495C487.374 457.568 486.994 457.62 486.603 457.652C486.218 457.678 485.827 457.683 485.442 457.667C485.051 457.652 484.666 457.61 484.28 457.553C483.9 457.49 483.52 457.407 483.145 457.298C482.77 457.193 482.405 457.063 482.046 456.917C481.686 456.766 481.338 456.6 480.999 456.407C480.66 456.219 480.332 456.011 480.02 455.782C479.702 455.553 479.405 455.308 479.119 455.042C478.832 454.782 478.561 454.501 478.311 454.209C478.056 453.912 477.822 453.605 477.603 453.282C477.384 452.959 477.192 452.626 477.009 452.277C476.832 451.933 476.676 451.579 476.541 451.214C476.405 450.85 476.291 450.48 476.197 450.105C476.103 449.725 476.03 449.344 475.983 448.959C475.936 448.574 475.91 448.183 475.905 447.798L250.223 429.537C250.124 430.11 249.983 430.667 249.785 431.209C249.593 431.756 249.353 432.282 249.072 432.782C248.785 433.287 248.457 433.761 248.093 434.209C247.723 434.652 247.322 435.063 246.879 435.438C246.442 435.818 245.973 436.152 245.473 436.443C244.978 436.74 244.457 436.99 243.916 437.193C243.374 437.397 242.817 437.548 242.249 437.657C241.681 437.761 241.108 437.818 240.53 437.824C239.952 437.834 239.379 437.787 238.806 437.693C238.239 437.6 237.681 437.459 237.134 437.266C236.588 437.079 236.062 436.839 235.556 436.558C235.051 436.277 234.577 435.949 234.129 435.584C233.681 435.219 233.27 434.818 232.89 434.381C232.515 433.938 232.176 433.475 231.879 432.975C231.582 432.48 231.332 431.959 231.129 431.423C230.921 430.881 230.765 430.329 230.655 429.761L53.9365 447.657C53.9365 447.657 53.9365 447.73 53.9365 447.756C53.9365 448.386 53.8792 449.011 53.7594 449.626C53.6448 450.245 53.4678 450.85 53.2386 451.433C53.0042 452.016 52.723 452.574 52.3844 453.105C52.0459 453.636 51.6605 454.131 51.2282 454.589C50.7959 455.048 50.3271 455.464 49.8167 455.834C49.3063 456.204 48.7698 456.522 48.1969 456.787C47.6292 457.053 47.0355 457.266 46.4261 457.417C45.8167 457.574 45.1969 457.667 44.5719 457.709C43.9417 457.745 43.3167 457.719 42.6917 457.641C42.0667 457.558 41.4573 457.417 40.8584 457.219C40.2594 457.027 39.6865 456.772 39.1344 456.464C38.5875 456.162 38.0719 455.803 37.5875 455.402C37.1032 454.995 36.6657 454.553 36.2698 454.063C35.8688 453.574 35.5198 453.053 35.223 452.501C34.9209 451.949 34.6761 451.37 34.4886 450.772C34.2959 450.173 34.1657 449.558 34.0928 448.933C34.0198 448.308 34.0042 447.683 34.0511 447.053C34.098 446.428 34.1969 445.808 34.3636 445.199C34.525 444.589 34.7438 444.006 35.0146 443.438C35.2907 442.87 35.6136 442.334 35.9886 441.829C36.3636 441.324 36.7855 440.86 37.249 440.433C37.7125 440.006 38.2125 439.631 38.749 439.298C39.2855 438.969 39.8427 438.688 40.4313 438.464C41.0198 438.24 41.624 438.074 42.2438 437.964C38.874 398.183 26.6292 253.454 23.7646 213.521C23.124 213.501 22.4938 213.417 21.8688 213.277C21.2438 213.136 20.6396 212.933 20.0511 212.678C19.4677 212.417 18.9105 212.105 18.3844 211.74C17.8584 211.37 17.374 210.959 16.9261 210.495C16.4834 210.037 16.0823 209.537 15.7334 209.001C15.3844 208.464 15.0927 207.896 14.848 207.303C14.6084 206.709 14.4313 206.1 14.3063 205.469C14.1865 204.839 14.124 204.204 14.1292 203.563ZM239.525 417.891V269.808C237.645 269.636 235.947 268.98 234.442 267.839L145.562 366.115C145.968 366.553 146.332 367.027 146.655 367.532C146.978 368.037 147.249 368.568 147.478 369.12C147.702 369.673 147.879 370.245 148.004 370.834C148.124 371.417 148.197 372.011 148.213 372.61C148.228 373.209 148.192 373.803 148.098 374.396C148.009 374.985 147.864 375.568 147.671 376.131C147.473 376.699 147.228 377.24 146.931 377.766C146.64 378.287 146.301 378.777 145.916 379.24L231.978 422.6C232.791 421.261 233.864 420.178 235.192 419.35C236.52 418.516 237.963 418.032 239.525 417.891ZM132.119 364.985L97.8063 289.089C96.749 289.459 95.6605 289.652 94.5407 289.652C94.2698 289.667 93.999 289.667 93.7282 289.652L47.7646 438.49C49.0771 439.027 50.2178 439.808 51.1969 440.829L129.942 378.271C129.603 377.756 129.312 377.214 129.072 376.641C128.832 376.068 128.65 375.48 128.52 374.876C128.395 374.272 128.322 373.657 128.306 373.037C128.291 372.423 128.332 371.808 128.437 371.193C128.535 370.584 128.692 369.985 128.905 369.407C129.119 368.824 129.379 368.266 129.697 367.735C130.015 367.204 130.374 366.704 130.785 366.24C131.197 365.777 131.645 365.355 132.134 364.975L132.119 364.985ZM46.0459 437.964L91.9417 289.35C91.5303 289.24 91.1292 289.105 90.7386 288.943C90.348 288.782 89.9678 288.594 89.598 288.386C89.2282 288.178 88.8792 287.943 88.5407 287.688C88.2021 287.433 87.8792 287.157 87.5771 286.865C87.275 286.568 86.9886 286.251 86.7282 285.923C86.4625 285.589 86.223 285.24 86.0042 284.876C85.7855 284.516 85.5928 284.141 85.4209 283.751C85.249 283.365 85.1084 282.964 84.9886 282.558C84.8688 282.152 84.775 281.74 84.7073 281.324C84.6396 280.902 84.6032 280.48 84.5875 280.058C84.5771 279.636 84.5928 279.214 84.6344 278.792C84.6709 278.37 84.7438 277.954 84.8375 277.537C84.9313 277.126 85.0511 276.719 85.1969 276.324C85.3428 275.928 85.5146 275.537 85.7125 275.162C85.9105 274.787 86.1292 274.428 86.3688 274.079C86.6136 273.73 86.8792 273.402 87.1605 273.089L30.1396 211.438C28.7855 212.469 27.2646 213.105 25.5823 213.355C28.4365 253.12 40.7282 398.35 44.0511 437.719C44.7282 437.73 45.4 437.813 46.0615 437.964H46.0459ZM104.468 279.298C104.468 279.449 104.468 279.6 104.468 279.751C104.468 280.631 104.353 281.501 104.124 282.35C103.895 283.199 103.556 284.006 103.114 284.766C102.671 285.527 102.134 286.214 101.509 286.834C100.879 287.454 100.181 287.98 99.4157 288.412L133.676 363.995C134.509 363.558 135.384 363.245 136.306 363.063C137.228 362.876 138.155 362.818 139.093 362.897C140.03 362.975 140.937 363.183 141.812 363.522C142.692 363.855 143.504 364.308 144.249 364.876L233.119 266.589C231.926 265.292 231.134 263.787 230.739 262.074L104.468 279.298ZM376.421 378.907C376.171 379.235 375.895 379.542 375.603 379.834C375.311 380.126 375.004 380.402 374.681 380.657C374.353 380.912 374.015 381.141 373.66 381.355C373.306 381.568 372.936 381.756 372.561 381.923C372.181 382.089 371.796 382.23 371.4 382.35C371.004 382.464 370.603 382.558 370.197 382.626C369.791 382.693 369.379 382.74 368.968 382.756C368.556 382.771 368.145 382.766 367.733 382.73C367.322 382.699 366.91 382.636 366.509 382.553C366.103 382.469 365.707 382.36 365.317 382.225C364.926 382.089 364.546 381.933 364.176 381.751C363.801 381.568 363.447 381.365 363.098 381.136C362.754 380.912 362.426 380.667 362.108 380.396C361.796 380.131 361.499 379.844 361.218 379.542C360.936 379.235 360.681 378.917 360.442 378.579C360.202 378.245 359.983 377.891 359.785 377.532L249.879 424.693C250.202 425.662 250.364 426.657 250.374 427.678L476.056 446.063C476.239 445.053 476.556 444.094 477.02 443.183L376.421 378.907ZM230.463 427.912C230.463 427.912 230.463 427.829 230.463 427.787C230.468 426.527 230.702 425.313 231.166 424.141L144.582 380.516C144.098 380.912 143.588 381.261 143.041 381.558C142.494 381.86 141.921 382.105 141.332 382.298C140.739 382.485 140.134 382.62 139.515 382.699C138.895 382.777 138.275 382.798 137.655 382.756C137.035 382.719 136.421 382.626 135.817 382.469C135.213 382.318 134.629 382.105 134.067 381.844C133.499 381.579 132.968 381.266 132.463 380.902C131.957 380.537 131.489 380.131 131.062 379.678L52.3115 442.245C53.0042 443.344 53.4677 444.532 53.6865 445.813L230.463 427.912Z" fill="#3F2305"/>
<path d="M244.274 472.079C204.342 469.215 59.6338 456.934 19.8265 453.616C19.7171 454.236 19.5505 454.84 19.3265 455.423C19.1025 456.012 18.8265 456.574 18.4932 457.111C18.165 457.647 17.7848 458.147 17.3577 458.611C16.9359 459.074 16.4671 459.491 15.9619 459.871C15.4567 460.246 14.9202 460.569 14.3577 460.845C13.79 461.116 13.2015 461.335 12.5921 461.496C11.9827 461.657 11.3682 461.762 10.738 461.809C10.113 461.855 9.48275 461.84 8.85775 461.767C8.23275 461.694 7.62337 461.559 7.02441 461.371C6.42025 461.178 5.84733 460.939 5.29004 460.637C4.73796 460.34 4.21712 459.991 3.72754 459.59C3.24316 459.194 2.79525 458.751 2.39421 458.272C1.98796 457.788 1.63379 457.272 1.3265 456.72C1.01921 456.173 0.769206 455.6 0.571289 455.001C0.373373 454.402 0.232748 453.793 0.154622 453.168C0.071289 452.543 0.0504557 451.918 0.0869143 451.288C0.123373 450.663 0.217122 450.043 0.373373 449.434C0.529622 448.819 0.737956 448.23 1.00879 447.663C1.27441 447.09 1.59212 446.553 1.96191 446.043C2.3265 445.532 2.74316 445.059 3.2015 444.631C3.65983 444.199 4.15462 443.814 4.68587 443.475C5.21712 443.137 5.77441 442.855 6.35775 442.621C6.94629 442.392 7.54525 442.215 8.16504 442.1C8.78483 441.98 9.40983 441.923 10.0348 441.923H10.1494L28.0505 265.215C27.4775 265.111 26.9255 264.949 26.3838 264.746C25.8421 264.543 25.3265 264.288 24.8317 263.996C24.3317 263.699 23.863 263.361 23.4255 262.986C22.988 262.605 22.5869 262.194 22.2223 261.746C21.8525 261.298 21.5296 260.824 21.2484 260.319C20.9619 259.814 20.7275 259.288 20.5348 258.746C20.3421 258.199 20.2015 257.642 20.1077 257.069C20.014 256.501 19.9671 255.923 19.9723 255.345C19.9827 254.767 20.0348 254.194 20.1442 253.626C20.2484 253.059 20.4046 252.506 20.6077 251.965C20.8109 251.423 21.0557 250.902 21.3525 250.402C21.6442 249.908 21.9775 249.434 22.3525 248.996C22.7327 248.559 23.139 248.152 23.5869 247.783C24.0348 247.418 24.5088 247.09 25.0088 246.803C25.514 246.517 26.0348 246.277 26.5817 246.085C27.1286 245.892 27.6859 245.746 28.2536 245.652L9.92546 19.9648C9.54004 19.9648 9.14941 19.9387 8.764 19.8919C8.37858 19.845 7.99316 19.7721 7.61816 19.6835C7.23796 19.5898 6.86816 19.4752 6.49837 19.3398C6.13379 19.2044 5.77962 19.0481 5.43067 18.871C5.08691 18.6939 4.75358 18.496 4.42546 18.2773C4.10254 18.0585 3.79525 17.8242 3.49837 17.5742C3.2015 17.3189 2.92025 17.0533 2.65462 16.7669C2.39421 16.4804 2.14421 16.1783 1.91504 15.8658C1.68587 15.5481 1.47754 15.2252 1.28483 14.8814C1.09212 14.5429 0.920248 14.1939 0.774414 13.8346C0.623373 13.4752 0.493164 13.1106 0.383789 12.7356C0.279622 12.3606 0.191081 11.9804 0.128581 11.595C0.066081 11.2148 0.0244144 10.8242 0.00878902 10.4387C-0.00683631 10.0481 -0.001627 9.65749 0.0244143 9.27207C0.0504557 8.88145 0.10254 8.49603 0.175456 8.11582C0.248373 7.7304 0.342122 7.3554 0.461914 6.9804C0.576497 6.61061 0.717122 6.24603 0.873373 5.89186C1.03483 5.5377 1.21191 5.19395 1.41504 4.86061C1.61296 4.52207 1.83171 4.20436 2.07129 3.89186C2.30567 3.58457 2.56087 3.2929 2.83171 3.01165C3.10775 2.73561 3.39421 2.46999 3.69629 2.2252C3.99837 1.9804 4.31608 1.75645 4.64421 1.54811C4.97233 1.33978 5.31087 1.15228 5.66504 0.980404C6.014 0.813737 6.37337 0.667904 6.74316 0.537696C7.11296 0.412696 7.48796 0.308529 7.86816 0.225196C8.24837 0.141862 8.63379 0.0845711 9.01921 0.0481124C9.40462 0.00644575 9.79525 -0.00397059 10.1859 0.00123741C10.5765 0.0116547 10.9619 0.0376954 11.3473 0.0949874C11.7327 0.14707 12.113 0.219987 12.4932 0.318946C12.8682 0.417903 13.238 0.537695 13.6025 0.678321C13.9671 0.818946 14.3161 0.980404 14.6598 1.1627C15.0036 1.34499 15.3369 1.54811 15.6598 1.77207C15.9775 1.99082 16.2848 2.2304 16.5765 2.49082C16.8682 2.74603 17.1442 3.02207 17.4046 3.30853C17.665 3.6002 17.9098 3.90228 18.1338 4.21999C18.3577 4.5377 18.5661 4.87103 18.7484 5.20957C18.9359 5.55332 19.1025 5.90749 19.2484 6.26686C19.3942 6.62624 19.514 6.99603 19.6182 7.37103C19.7171 7.75124 19.8005 8.13144 19.8577 8.51686C19.915 8.90228 19.9463 9.2877 19.9619 9.67832C19.9723 10.0637 19.9619 10.4544 19.9255 10.845C19.8942 11.2304 19.8369 11.6158 19.7588 11.996C19.6807 12.3762 19.5817 12.7564 19.4567 13.121C19.3369 13.4908 19.1911 13.8554 19.0244 14.2096C18.863 14.5585 18.6755 14.9023 18.4723 15.2356C18.2692 15.5637 18.0452 15.8814 17.8005 16.1887C17.5609 16.4908 17.3005 16.7825 17.0244 17.0585C16.7484 17.3346 16.4567 17.5898 16.1494 17.8294L80.3734 118.486C80.7327 118.298 81.1077 118.137 81.488 117.996C81.8734 117.855 82.2588 117.741 82.6598 117.647C83.0557 117.553 83.4567 117.486 83.863 117.439C84.264 117.397 84.6702 117.376 85.0817 117.387C85.488 117.392 85.8942 117.423 86.2952 117.48C86.7015 117.532 87.0973 117.616 87.4932 117.72C87.8838 117.824 88.2692 117.954 88.6494 118.105C89.0244 118.262 89.3942 118.434 89.7484 118.631C90.1077 118.829 90.4463 119.048 90.7796 119.288C91.1077 119.527 91.4202 119.788 91.7171 120.064C92.014 120.345 92.2952 120.642 92.5557 120.954C92.8161 121.267 93.0557 121.595 93.2796 121.934C93.4984 122.277 93.7015 122.631 93.8786 123.001C94.0557 123.366 94.2067 123.741 94.3369 124.126C94.4723 124.512 94.5765 124.907 94.6598 125.303C94.7432 125.704 94.8005 126.105 94.8317 126.512C94.8682 126.918 94.8734 127.324 94.8577 127.73C94.8421 128.142 94.8005 128.543 94.7327 128.944C94.665 129.35 94.5765 129.746 94.4619 130.137C94.3473 130.527 94.2067 130.908 94.0452 131.283C93.8838 131.658 93.7015 132.017 93.4932 132.371C93.2848 132.72 93.0557 133.059 92.8109 133.381C92.5609 133.704 92.2952 134.012 92.0088 134.303C91.7223 134.59 91.4202 134.861 91.1025 135.116C90.7796 135.371 90.4463 135.6 90.1025 135.814C89.7536 136.027 89.3942 136.215 89.0244 136.381C88.6494 136.553 88.2692 136.694 87.8838 136.819C87.4932 136.939 87.0973 137.038 86.6963 137.105C86.2952 137.178 85.8942 137.23 85.488 137.251C85.0765 137.272 84.6702 137.272 84.264 137.246C83.8577 137.22 83.4567 137.168 83.0557 137.09C82.6546 137.012 82.2588 136.913 81.8734 136.788L34.7119 246.684C36.1807 247.475 37.3734 248.569 38.29 249.965C39.2067 251.355 39.738 252.881 39.889 254.543H188.024C188.082 253.908 188.202 253.283 188.379 252.663C188.561 252.048 188.795 251.46 189.092 250.887C189.384 250.319 189.733 249.783 190.129 249.277C190.524 248.777 190.967 248.319 191.457 247.897C191.941 247.48 192.462 247.116 193.019 246.798C193.577 246.48 194.16 246.22 194.769 246.017C195.373 245.814 195.998 245.668 196.634 245.585C197.269 245.501 197.905 245.48 198.545 245.517C199.186 245.559 199.816 245.658 200.436 245.819C201.056 245.975 201.655 246.194 202.233 246.475C202.811 246.751 203.358 247.079 203.873 247.46C204.384 247.84 204.858 248.272 205.29 248.746C205.722 249.215 206.108 249.725 206.441 250.272C206.774 250.824 207.05 251.397 207.274 251.996C207.498 252.6 207.66 253.215 207.764 253.845C207.868 254.48 207.91 255.116 207.889 255.756C207.868 256.397 207.79 257.033 207.649 257.658C207.504 258.283 207.306 258.887 207.045 259.475C206.785 260.059 206.478 260.616 206.108 261.142C205.743 261.668 205.332 262.152 204.868 262.6C204.41 263.048 203.91 263.444 203.373 263.793C202.837 264.142 202.269 264.439 201.675 264.678C201.082 264.923 200.472 265.105 199.842 265.225C199.212 265.35 198.577 265.408 197.936 265.408H197.483L180.243 391.663C180.649 391.756 181.05 391.871 181.441 392.012C181.832 392.157 182.212 392.319 182.582 392.512C182.952 392.699 183.306 392.913 183.649 393.147C183.993 393.381 184.321 393.637 184.634 393.913C184.946 394.189 185.238 394.48 185.514 394.793C185.79 395.105 186.04 395.434 186.274 395.777C186.509 396.121 186.717 396.48 186.91 396.85C187.097 397.22 187.259 397.6 187.399 397.996C187.54 398.387 187.655 398.782 187.748 399.189C187.837 399.595 187.905 400.006 187.941 400.418C187.983 400.835 187.993 401.246 187.978 401.663C187.967 402.079 187.925 402.491 187.863 402.902C187.795 403.314 187.707 403.72 187.592 404.121C187.472 404.517 187.332 404.907 187.17 405.293C187.004 405.673 186.816 406.043 186.603 406.402C186.389 406.756 186.16 407.1 185.905 407.428L247.55 464.439C248.108 463.934 248.717 463.496 249.373 463.131C250.03 462.762 250.722 462.475 251.441 462.267C252.165 462.053 252.899 461.928 253.655 461.887C254.405 461.84 255.149 461.881 255.894 462.006C256.634 462.137 257.353 462.34 258.045 462.631C258.743 462.918 259.394 463.282 260.009 463.72C260.623 464.157 261.175 464.657 261.675 465.22C262.175 465.782 262.603 466.397 262.962 467.059C263.327 467.715 263.608 468.407 263.811 469.131C264.014 469.861 264.134 470.595 264.17 471.35C264.207 472.1 264.155 472.845 264.024 473.585C263.889 474.329 263.675 475.043 263.379 475.736C263.082 476.428 262.712 477.079 262.269 477.684C261.827 478.293 261.321 478.845 260.754 479.34C260.186 479.829 259.571 480.256 258.905 480.611C258.243 480.965 257.545 481.236 256.821 481.434C256.092 481.631 255.358 481.741 254.603 481.772C253.853 481.798 253.108 481.746 252.368 481.605C251.629 481.465 250.915 481.241 250.222 480.939C249.535 480.637 248.889 480.262 248.285 479.814C247.681 479.366 247.134 478.855 246.649 478.282C246.16 477.71 245.743 477.09 245.394 476.418C245.045 475.751 244.78 475.053 244.587 474.329C244.399 473.6 244.295 472.861 244.274 472.105V472.079ZM35.238 263.897L78.5973 349.954C79.0557 349.574 79.5452 349.23 80.0661 348.939C80.5869 348.642 81.1338 348.397 81.6963 348.199C82.264 348.006 82.8421 347.861 83.4359 347.772C84.0244 347.678 84.6182 347.642 85.2171 347.657C85.8161 347.673 86.4098 347.746 86.9932 347.866C87.5817 347.991 88.1494 348.168 88.7067 348.392C89.2588 348.621 89.79 348.897 90.29 349.215C90.7952 349.538 91.2692 349.907 91.7067 350.314L189.978 261.428C188.847 259.923 188.196 258.23 188.024 256.35H39.889C39.7484 257.902 39.264 259.34 38.4463 260.668C37.6286 261.996 36.5557 263.069 35.238 263.897ZM84.9567 367.579C82.9567 367.59 81.1234 367.043 79.4515 365.944L16.9359 444.689C17.9515 445.668 18.7327 446.809 19.2744 448.105L168.097 402.142C168.087 401.871 168.087 401.6 168.097 401.329C168.097 400.21 168.28 399.121 168.649 398.069L92.8213 363.741C91.8786 364.954 90.7171 365.897 89.3369 366.574C87.9567 367.246 86.4932 367.585 84.9567 367.579ZM20.0192 451.84C59.3734 455.168 204.535 467.454 244.384 470.303C244.634 468.611 245.28 467.095 246.327 465.746L184.623 408.71C183.712 409.538 182.686 410.173 181.54 410.621C180.389 411.064 179.202 411.288 177.972 411.288C176.879 411.288 175.811 411.116 174.769 410.762C173.733 410.413 172.78 409.907 171.905 409.241C171.035 408.579 170.295 407.793 169.681 406.881C169.071 405.975 168.623 404.991 168.332 403.934L19.8005 449.814C19.9463 450.475 20.0192 451.147 20.0192 451.824V451.84ZM195.639 265.147C193.92 264.751 192.415 263.949 191.123 262.751L92.8317 351.637C93.3994 352.381 93.8525 353.199 94.1911 354.074C94.5244 354.949 94.7327 355.861 94.8109 356.793C94.889 357.73 94.8369 358.657 94.6494 359.579C94.4619 360.501 94.1494 361.376 93.7171 362.21L169.368 396.496C169.8 395.73 170.327 395.032 170.941 394.407C171.561 393.777 172.254 393.241 173.014 392.798C173.774 392.355 174.582 392.017 175.431 391.788C176.28 391.559 177.144 391.444 178.03 391.444H178.467L195.639 265.147ZM14.6338 18.8502C13.7275 19.3189 12.764 19.6367 11.7588 19.8137L30.0713 245.501C31.0921 245.512 32.0869 245.673 33.0609 245.98L80.2223 136.069C79.8577 135.876 79.5088 135.658 79.1702 135.418C78.8369 135.178 78.514 134.923 78.2119 134.642C77.9046 134.366 77.6182 134.069 77.3525 133.751C77.0869 133.439 76.8369 133.111 76.613 132.762C76.389 132.418 76.1807 132.059 76.0036 131.689C75.8213 131.319 75.6598 130.939 75.5296 130.548C75.3942 130.158 75.2848 129.762 75.1963 129.355C75.113 128.954 75.0557 128.548 75.0192 128.137C74.988 127.725 74.9775 127.314 74.9932 126.897C75.014 126.486 75.0557 126.079 75.1234 125.673C75.1911 125.262 75.2848 124.861 75.4046 124.465C75.5192 124.074 75.665 123.684 75.8317 123.309C75.9932 122.928 76.1859 122.564 76.3942 122.21C76.6077 121.855 76.8421 121.517 77.0973 121.189C77.3525 120.866 77.6234 120.559 77.915 120.267C78.2067 119.975 78.5192 119.704 78.8421 119.449L14.6338 18.8502ZM11.9515 442.1C13.238 442.355 14.4307 442.845 15.5296 443.564L78.0869 364.824C77.6338 364.397 77.2275 363.928 76.8682 363.423C76.5036 362.918 76.1911 362.381 75.9307 361.819C75.665 361.251 75.4567 360.668 75.3057 360.064C75.1546 359.46 75.0557 358.85 75.0192 358.23C74.9827 357.605 75.0036 356.986 75.0817 356.371C75.1598 355.751 75.2952 355.147 75.4827 354.553C75.6755 353.96 75.9202 353.392 76.2223 352.845C76.5192 352.298 76.8682 351.788 77.2588 351.303L33.639 264.72C32.4619 265.184 31.238 265.418 29.9775 265.423H29.8525L11.9515 442.1Z" fill="#776B5D"/>
</svg>
