<svg width="114" height="108" viewBox="0 0 114 108" fill="none" xmlns="http://www.w3.org/2000/svg">
<g clip-path="url(#clip0_441_9179)">
<path d="M10.5 0C4.76 0 0 4.76 0 10.5V61.5C0 67.24 4.76 72 10.5 72H103.5C109.24 72 114 67.24 114 61.5V10.5C114 4.76 109.24 0 103.5 0H10.5ZM18 9H96C96 13.98 100.02 18 105 18V54C100.02 54 96 58.02 96 63H18C18 58.02 13.98 54 9 54V18C13.98 18 18 13.98 18 9ZM57 15C51.13 15 46.19 17.95 43.24 22.01C40.29 26.07 39 31.06 39 36C39 40.94 40.29 45.94 43.24 49.99C46.19 54.05 51.13 57 57 57C62.87 57 67.81 54.05 70.76 49.99C73.71 45.93 75 40.94 75 36C75 31.06 73.71 26.06 70.76 22.01C67.81 17.95 62.87 15 57 15ZM57 24C60.12 24 61.94 25.17 63.49 27.3C65.04 29.43 66 32.69 66 36C66 39.31 65.04 42.56 63.49 44.7C61.94 46.83 60.13 48 57 48C53.87 48 52.06 46.83 50.51 44.7C48.96 42.57 48 39.31 48 36C48 32.69 48.96 29.44 50.51 27.3C52.06 25.17 53.87 24 57 24ZM21 30C17.69 30 15 32.69 15 36C15 39.31 17.69 42 21 42C24.31 42 27 39.31 27 36C27 32.69 24.31 30 21 30ZM93 30C89.69 30 87 32.69 87 36C87 39.31 89.69 42 93 42C96.31 42 99 39.31 99 36C99 32.69 96.31 30 93 30ZM9.13 77.99C9.79 82.95 13.9 86.81 19.07 86.99C51.69 88.12 75.84 98.99 88.82 104.83C91.13 105.87 93.12 106.76 94.76 107.43C95.67 107.8 96.62 107.99 97.57 107.99C99.02 107.99 100.46 107.56 101.7 106.73C103.76 105.35 104.99 103.03 104.99 100.54V78H95.99V90C92.58 90 89.66 91.9 88.13 94.68C73.88 88.39 50.42 79.07 19.37 78C19.37 78 19.37 78 19.36 78H9.12L9.13 77.99Z" fill="white"/>
</g>
<defs>
<clipPath id="clip0_441_9179">
<rect width="114" height="107.99" fill="white"/>
</clipPath>
</defs>
</svg>
