<svg width="52" height="52" viewBox="0 0 52 52" fill="none" xmlns="http://www.w3.org/2000/svg">
<rect width="52" height="52" rx="4" fill="#27A3A3" fill-opacity="0.05"/>
<path d="M25.187 12.9696L26.4763 16.0108C27.038 17.3361 26.7268 18.8946 25.7053 19.8636L23.2963 22.1496C23.0248 22.4076 22.8838 22.7818 22.9445 23.1508C23.177 24.5616 23.6923 25.9528 24.4903 27.3253C25.2868 28.6948 26.2565 29.8603 27.4003 30.8211C27.7033 31.0753 28.124 31.1413 28.499 31.0161L31.3093 30.0786C32.603 29.6473 34.0115 30.1431 34.805 31.3086L36.6538 34.0243C37.5763 35.3796 37.4105 37.2486 36.266 38.3976L35.039 39.6291C33.818 40.8546 32.0743 41.2993 30.461 40.7961C26.6525 39.6081 23.1515 36.0816 19.9565 30.2158C16.757 24.3418 15.6283 19.3573 16.5695 15.2638C16.9655 13.5411 18.1918 12.1693 19.793 11.6578L21.4078 11.1418C22.9228 10.6596 24.539 11.4411 25.187 12.9696Z" fill="#27A3A3"/>
</svg>
