<svg width="96" height="120" viewBox="0 0 96 120" fill="none" xmlns="http://www.w3.org/2000/svg">
<g clip-path="url(#clip0_441_9177)">
<path d="M48 0C34.8 0 24 10.8 24 24V36H13.5C6.1 36 0 42.1 0 49.5V106.5C0 113.9 6.1 120 13.5 120H82.5C89.9 120 96 113.9 96 106.5V49.5C96 42.1 89.9 36 82.5 36H33V24C33 15.66 39.66 9 48 9C56.34 9 62.34 15.08 62.94 22.84C63.13 25.32 65.29 27.18 67.77 26.99C70.25 26.8 72.11 24.64 71.92 22.16C70.98 9.79 60.59 0 48.01 0L48 0ZM13.5 45H27.76C28.24 45.08 28.74 45.08 29.22 45H82.5C85.04 45 87 46.96 87 49.5V106.5C87 109.04 85.04 111 82.5 111H13.5C10.96 111 9 109.04 9 106.5V49.5C9 46.96 10.96 45 13.5 45ZM48 69C43.03 69 39 73.03 39 78C39 82.97 43.03 87 48 87C52.97 87 57 82.97 57 78C57 73.03 52.97 69 48 69Z" fill="white"/>
</g>
<defs>
<clipPath id="clip0_441_9177">
<rect width="96" height="120" fill="white"/>
</clipPath>
</defs>
</svg>
