<svg width="20" height="17" viewBox="0 0 20 17" fill="none" xmlns="http://www.w3.org/2000/svg">
<path d="M2.69922 0.574255C2.66893 0.575045 2.63874 0.578037 2.60889 0.583206H1.87565C1.79283 0.582035 1.7106 0.597336 1.63375 0.628219C1.55689 0.659103 1.48694 0.704953 1.42796 0.763106C1.36898 0.821259 1.32215 0.890554 1.29018 0.966965C1.25821 1.04338 1.24175 1.12538 1.24175 1.20821C1.24175 1.29103 1.25821 1.37304 1.29018 1.44945C1.32215 1.52586 1.36898 1.59515 1.42796 1.65331C1.48694 1.71146 1.55689 1.75731 1.63375 1.78819C1.7106 1.81908 1.79283 1.83438 1.87565 1.83321H2.08398V9.79219C1.38669 9.8987 0.833984 10.4839 0.833984 11.2082V15.7915C0.834001 15.9573 0.899854 16.1163 1.01706 16.2335C1.13427 16.3507 1.29323 16.4165 1.45898 16.4165H13.1257C13.2914 16.4165 13.4504 16.3507 13.5676 16.2335C13.6848 16.1163 13.7506 15.9573 13.7507 15.7915V11.2082C13.7507 10.4839 13.1979 9.8987 12.5007 9.79219V1.83321H12.709C12.7918 1.83438 12.874 1.81908 12.9509 1.78819C13.0277 1.75731 13.0977 1.71146 13.1567 1.65331C13.2157 1.59515 13.2625 1.52586 13.2945 1.44945C13.3264 1.37304 13.3429 1.29103 13.3429 1.20821C13.3429 1.12538 13.3264 1.04338 13.2945 0.966965C13.2625 0.890554 13.2157 0.821259 13.1567 0.763106C13.0977 0.704953 13.0277 0.659103 12.9509 0.628219C12.874 0.597336 12.7918 0.582035 12.709 0.583206H11.9782C11.9111 0.572185 11.8426 0.572185 11.7756 0.583206H2.81152C2.77443 0.576848 2.73685 0.573852 2.69922 0.574255ZM3.33398 1.83321H11.2507V10.3749C11.2507 10.5406 11.3165 10.6996 11.4337 10.8168C11.5509 10.934 11.7099 10.9999 11.8757 10.9999H12.2923C12.4153 10.9999 12.5007 11.0853 12.5007 11.2082V15.1665H8.33398V12.6665C8.33398 12.4365 8.14732 12.2499 7.91732 12.2499H6.66732C6.43732 12.2499 6.25065 12.4365 6.25065 12.6665V15.1665H2.08398V11.2082C2.08398 11.0853 2.16938 10.9999 2.29232 10.9999H2.70898C2.87474 10.9999 3.0337 10.934 3.15091 10.8168C3.26811 10.6996 3.33397 10.5406 3.33398 10.3749V1.83321ZM5.41732 3.49987C5.18732 3.49987 5.00065 3.68654 5.00065 3.91654V4.74987C5.00065 4.97987 5.18732 5.16654 5.41732 5.16654H6.25065C6.48065 5.16654 6.66732 4.97987 6.66732 4.74987V3.91654C6.66732 3.68654 6.48065 3.49987 6.25065 3.49987H5.41732ZM8.33398 3.49987C8.10398 3.49987 7.91732 3.68654 7.91732 3.91654V4.74987C7.91732 4.97987 8.10398 5.16654 8.33398 5.16654H9.16732C9.39732 5.16654 9.58398 4.97987 9.58398 4.74987V3.91654C9.58398 3.68654 9.39732 3.49987 9.16732 3.49987H8.33398ZM13.334 3.49987V4.74987H16.8757C17.4507 4.74987 17.9173 5.21654 17.9173 5.79154V15.1665H14.584V15.9999C14.584 16.147 14.5542 16.2857 14.5075 16.4165H18.5423C18.8882 16.4165 19.1673 16.1374 19.1673 15.7915V5.79154C19.1673 4.52904 18.1382 3.49987 16.8757 3.49987H13.334ZM5.41732 6.41654C5.18732 6.41654 5.00065 6.60321 5.00065 6.83321V7.66654C5.00065 7.89654 5.18732 8.08321 5.41732 8.08321H6.25065C6.48065 8.08321 6.66732 7.89654 6.66732 7.66654V6.83321C6.66732 6.60321 6.48065 6.41654 6.25065 6.41654H5.41732ZM8.33398 6.41654C8.10398 6.41654 7.91732 6.60321 7.91732 6.83321V7.66654C7.91732 7.89654 8.10398 8.08321 8.33398 8.08321H9.16732C9.39732 8.08321 9.58398 7.89654 9.58398 7.66654V6.83321C9.58398 6.60321 9.39732 6.41654 9.16732 6.41654H8.33398ZM15.4173 6.41654C15.1873 6.41654 15.0007 6.60321 15.0007 6.83321V7.66654C15.0007 7.89654 15.1873 8.08321 15.4173 8.08321H16.2507C16.4807 8.08321 16.6673 7.89654 16.6673 7.66654V6.83321C16.6673 6.60321 16.4807 6.41654 16.2507 6.41654H15.4173ZM5.41732 9.33321C5.18732 9.33321 5.00065 9.51987 5.00065 9.74987V10.5832C5.00065 10.8132 5.18732 10.9999 5.41732 10.9999H6.25065C6.48065 10.9999 6.66732 10.8132 6.66732 10.5832V9.74987C6.66732 9.51987 6.48065 9.33321 6.25065 9.33321H5.41732ZM8.33398 9.33321C8.10398 9.33321 7.91732 9.51987 7.91732 9.74987V10.5832C7.91732 10.8132 8.10398 10.9999 8.33398 10.9999H9.16732C9.39732 10.9999 9.58398 10.8132 9.58398 10.5832V9.74987C9.58398 9.51987 9.39732 9.33321 9.16732 9.33321H8.33398ZM15.4173 9.33321C15.1873 9.33321 15.0007 9.51987 15.0007 9.74987V10.5832C15.0007 10.8132 15.1873 10.9999 15.4173 10.9999H16.2507C16.4807 10.9999 16.6673 10.8132 16.6673 10.5832V9.74987C16.6673 9.51987 16.4807 9.33321 16.2507 9.33321H15.4173ZM3.75065 12.2499C3.52065 12.2499 3.33398 12.4365 3.33398 12.6665V13.4999C3.33398 13.7299 3.52065 13.9165 3.75065 13.9165H4.58398C4.81398 13.9165 5.00065 13.7299 5.00065 13.4999V12.6665C5.00065 12.4365 4.81398 12.2499 4.58398 12.2499H3.75065ZM10.0007 12.2499C9.77065 12.2499 9.58398 12.4365 9.58398 12.6665V13.4999C9.58398 13.7299 9.77065 13.9165 10.0007 13.9165H10.834C11.064 13.9165 11.2507 13.7299 11.2507 13.4999V12.6665C11.2507 12.4365 11.064 12.2499 10.834 12.2499H10.0007ZM15.4173 12.2499C15.1873 12.2499 15.0007 12.4365 15.0007 12.6665V13.4999C15.0007 13.7299 15.1873 13.9165 15.4173 13.9165H16.2507C16.4807 13.9165 16.6673 13.7299 16.6673 13.4999V12.6665C16.6673 12.4365 16.4807 12.2499 16.2507 12.2499H15.4173Z" fill="#475467"/>
</svg>
