<?xml version="1.0" encoding="UTF-8"?>
<svg id="Layer_1" data-name="Layer 1" xmlns="http://www.w3.org/2000/svg" viewBox="0 0 1920 1080">
  <defs>
    <style>
      .cls-1 {
        fill: #1a3e61;
        stroke-width: 0px;
      }
    </style>
  </defs>
  <g>
    <path class="cls-1" d="m1793.46,333.77c-.83-.83-1.78-1.47-2.86-1.91-1.08-.45-2.21-.67-3.38-.67s-2.3.22-3.37.67c-1.08.45-2.04,1.08-2.86,1.91-.83.83-1.46,1.78-1.91,2.86-.45,1.08-.67,2.21-.67,3.37s.22,2.3.67,3.38c.45,1.08,1.08,2.04,1.91,2.86.83.83,1.78,1.46,2.86,1.91,1.08.45,2.21.67,3.37.67,1.17,0,2.3-.22,3.38-.67,1.08-.45,2.04-1.09,2.86-1.91.83-.83,1.46-1.78,1.91-2.86.45-1.08.67-2.2.67-3.37s-.22-2.29-.67-3.37c-.45-1.08-1.08-2.03-1.91-2.86m137.93,152.56l-136.93-136.93c-.79.61-1.64,1.11-2.56,1.5-.92.39-1.87.67-2.85.82-.99.15-1.98.18-2.97.09-.99-.1-1.96-.31-2.9-.66-.94-.34-1.82-.79-2.64-1.35-.82-.56-1.57-1.22-2.23-1.97-.66-.75-1.21-1.57-1.67-2.46-.45-.89-.79-1.82-1-2.79-.22-.97-.31-1.96-.28-2.96.03-1,.19-1.97.47-2.93.28-.96.67-1.87,1.18-2.73.51-.86,1.11-1.64,1.82-2.35.71-.71,1.49-1.31,2.35-1.82.86-.51,1.77-.9,2.73-1.18.96-.28,1.94-.43,2.93-.47,1-.03,1.98.06,2.96.28.97.22,1.91.55,2.8,1,.89.45,1.71,1.01,2.46,1.67.75.66,1.41,1.4,1.97,2.22.56.82,1.01,1.71,1.35,2.64.34.94.56,1.9.66,2.9.09.99.07,1.98-.09,2.97-.16.99-.43,1.94-.82,2.86-.39.92-.9,1.77-1.5,2.56l136.16,136.16-1.38,2.93Z"/>
    <path class="cls-1" d="m1840.62,253.25c-.83-.83-1.78-1.46-2.86-1.91-1.08-.45-2.21-.67-3.38-.67-1.17,0-2.29.22-3.37.67-1.08.45-2.04,1.08-2.86,1.91-.83.83-1.47,1.78-1.91,2.86-.45,1.08-.67,2.21-.67,3.38s.22,2.29.67,3.37c.45,1.08,1.08,2.04,1.91,2.86.83.83,1.78,1.46,2.86,1.91,1.08.45,2.21.67,3.37.67s2.3-.22,3.38-.67c1.08-.45,2.03-1.08,2.86-1.91.83-.83,1.46-1.78,1.91-2.86.45-1.08.67-2.21.67-3.37s-.22-2.29-.67-3.37c-.45-1.08-1.08-2.03-1.91-2.86h0m107.75,122.37l-106.72-106.75c-.79.61-1.64,1.11-2.56,1.5-.92.4-1.87.67-2.86.82-.98.15-1.98.18-2.97.09-.99-.1-1.96-.32-2.9-.66-.94-.34-1.82-.79-2.64-1.35-.82-.56-1.57-1.22-2.22-1.97-.66-.75-1.21-1.57-1.67-2.46-.45-.89-.79-1.82-1-2.8-.22-.97-.31-1.96-.28-2.96.03-1,.19-1.98.47-2.93.28-.96.67-1.87,1.18-2.73.51-.86,1.11-1.64,1.82-2.35s1.49-1.31,2.35-1.82c.86-.51,1.77-.9,2.73-1.18.96-.28,1.94-.43,2.93-.47,1-.03,1.98.06,2.96.28.97.22,1.91.55,2.8,1s1.71,1.01,2.46,1.67c.75.66,1.41,1.4,1.97,2.23.56.82,1.01,1.71,1.35,2.64.34.94.56,1.9.66,2.9.09.99.07,1.98-.09,2.97-.15.98-.43,1.94-.82,2.85-.4.92-.9,1.77-1.5,2.56l106.21,106.21-1.63,2.69Z"/>
    <path class="cls-1" d="m1687.25,189.56c.83.83,1.78,1.46,2.86,1.91,1.08.45,2.2.67,3.37.67,1.17,0,2.3-.22,3.38-.67,1.08-.45,2.04-1.09,2.86-1.91.83-.83,1.46-1.78,1.91-2.86.45-1.08.67-2.21.67-3.38s-.22-2.29-.67-3.37c-.45-1.08-1.09-2.03-1.91-2.86-.83-.83-1.78-1.46-2.86-1.91-1.08-.45-2.21-.67-3.38-.67s-2.3.22-3.37.67c-1.08.45-2.03,1.09-2.86,1.91-.83.82-1.47,1.77-1.93,2.86-.45,1.08-.68,2.21-.68,3.38s.22,2.3.68,3.38c.45,1.08,1.09,2.03,1.93,2.86M1438.79-6.23l129.03,129.03h67.31l51.12,51.12c.79-.61,1.64-1.11,2.56-1.51.92-.4,1.87-.67,2.85-.82.99-.15,1.97-.18,2.97-.09.99.1,1.96.31,2.9.65.94.34,1.82.79,2.64,1.35.83.56,1.57,1.22,2.23,1.97.66.75,1.22,1.57,1.67,2.46.45.89.79,1.82,1,2.79.22.98.31,1.96.28,2.96-.03,1-.19,1.98-.47,2.94-.28.96-.67,1.87-1.18,2.72-.51.86-1.11,1.64-1.82,2.35-.71.71-1.49,1.31-2.35,1.82-.86.51-1.76.9-2.72,1.18-.96.28-1.94.44-2.93.47-1,.03-1.98-.06-2.96-.28-.97-.21-1.9-.55-2.79-1s-1.71-1.01-2.46-1.67c-.75-.66-1.41-1.4-1.97-2.22s-1.01-1.7-1.35-2.64c-.34-.94-.56-1.9-.66-2.9-.09-.99-.07-1.98.08-2.97.15-.99.43-1.94.82-2.86.39-.92.89-1.77,1.5-2.56l-50.23-50.23h-67.3L1435.11-5.61l3.68-.62Z"/>
    <path class="cls-1" d="m1658,65.94c-.83-.83-1.78-1.46-2.86-1.91-1.08-.45-2.21-.67-3.37-.67s-2.3.22-3.38.67c-1.08.45-2.04,1.09-2.86,1.91-.83.83-1.46,1.78-1.91,2.86-.45,1.08-.67,2.21-.67,3.38s.22,2.3.67,3.37c.45,1.08,1.09,2.04,1.91,2.86.83.83,1.78,1.47,2.86,1.91,1.08.45,2.21.67,3.38.67s2.3-.22,3.37-.67c1.08-.45,2.04-1.08,2.86-1.91.83-.82,1.48-1.78,1.93-2.86.45-1.08.68-2.21.68-3.38s-.23-2.3-.68-3.38c-.45-1.08-1.09-2.03-1.93-2.86m1,15.63c-.79.61-1.64,1.11-2.56,1.51-.92.4-1.87.67-2.85.82-.98.16-1.97.18-2.97.09-.99-.1-1.96-.31-2.9-.65-.94-.34-1.82-.79-2.64-1.35-.83-.56-1.57-1.22-2.23-1.97-.66-.75-1.22-1.57-1.67-2.46-.45-.89-.79-1.82-1-2.79-.22-.97-.31-1.96-.28-2.96.03-1,.19-1.97.46-2.93.28-.96.67-1.87,1.18-2.73.51-.86,1.11-1.64,1.82-2.35.7-.71,1.49-1.31,2.34-1.82.86-.51,1.77-.9,2.73-1.18.96-.28,1.94-.44,2.93-.47,1-.03,1.98.06,2.96.28.97.21,1.91.55,2.8,1,.89.45,1.71,1.01,2.46,1.67.75.66,1.41,1.4,1.97,2.22.56.82,1.01,1.7,1.35,2.64.34.94.56,1.9.66,2.9.1.99.07,1.98-.08,2.97-.15.99-.43,1.94-.82,2.86-.39.92-.89,1.77-1.5,2.56l82.56,82.57h67.31l137.64,137.64-.73,3.57-138.18-138.17h-67.31l-83.46-83.46Z"/>
    <path class="cls-1" d="m1754.78,247.65c1.29,1.29,2.68,2.43,4.19,3.44,1.51,1.01,3.1,1.86,4.78,2.56,1.68.7,3.41,1.22,5.19,1.57,1.78.35,3.58.53,5.39.53s3.61-.18,5.39-.53c1.78-.35,3.51-.88,5.18-1.57,1.68-.69,3.27-1.55,4.78-2.56,1.51-1.01,2.9-2.15,4.19-3.44,1.29-1.28,2.43-2.68,3.44-4.19,1.01-1.51,1.86-3.1,2.55-4.78.7-1.68,1.22-3.4,1.57-5.19.35-1.78.53-3.58.53-5.39s-.18-3.61-.53-5.39c-.35-1.78-.88-3.51-1.57-5.18-.69-1.68-1.55-3.27-2.55-4.78-1.01-1.51-2.15-2.91-3.44-4.19-1.28-1.28-2.68-2.43-4.19-3.44-1.51-1.01-3.1-1.86-4.78-2.56-1.68-.7-3.4-1.22-5.18-1.57-1.78-.35-3.58-.53-5.39-.53s-3.61.18-5.39.53-3.51.88-5.19,1.57c-1.68.69-3.27,1.55-4.78,2.55-1.51,1.01-2.9,2.15-4.19,3.44-1.29,1.28-2.44,2.68-3.45,4.18-1.01,1.51-1.87,3.1-2.57,4.78-.7,1.68-1.22,3.41-1.58,5.19-.35,1.78-.53,3.58-.53,5.4,0,1.82.18,3.62.54,5.4.36,1.78.88,3.51,1.58,5.19.7,1.68,1.55,3.27,2.57,4.78,1.01,1.51,2.16,2.9,3.45,4.18h0m41.25-41.25c.83.83,1.61,1.7,2.34,2.62.73.92,1.41,1.88,2.03,2.87.62,1,1.18,2.02,1.69,3.09.5,1.06.94,2.15,1.32,3.26.38,1.11.69,2.24.94,3.39.25,1.15.43,2.31.55,3.47.12,1.17.17,2.34.15,3.51-.02,1.18-.1,2.34-.26,3.51-.15,1.17-.37,2.32-.66,3.46-.29,1.14-.63,2.26-1.05,3.36-.41,1.1-.89,2.17-1.42,3.22-.54,1.05-1.13,2.06-1.78,3.03-.65.98-1.36,1.91-2.12,2.81-.76.9-1.57,1.74-2.42,2.55-.86.8-1.76,1.56-2.7,2.25-.94.7-1.92,1.34-2.94,1.93-1.02.59-2.06,1.11-3.14,1.58-1.08.47-2.18.87-3.3,1.21-1.12.34-2.26.62-3.42.83-1.16.21-2.32.35-3.49.43-1.17.08-2.34.09-3.52.03-1.17-.06-2.34-.18-3.5-.37-1.16-.19-2.3-.45-3.43-.77-1.13-.32-2.24-.71-3.32-1.16-1.08-.45-2.14-.96-3.17-1.53-1.03-.57-2.02-1.2-2.97-1.88-.96-.68-1.87-1.42-2.74-2.21-.87-.79-1.69-1.62-2.47-2.5-.77-.88-1.49-1.81-2.17-2.77-.67-.96-1.28-1.97-1.83-3-.55-1.04-1.05-2.1-1.48-3.19-.43-1.09-.8-2.2-1.11-3.34-.3-1.13-.54-2.28-.71-3.44-.17-1.16-.28-2.33-.32-3.5-.04-1.17-.01-2.34.08-3.51.09-1.17.26-2.33.49-3.48.23-1.15.52-2.28.88-3.4.36-1.12.78-2.21,1.26-3.28.48-1.07,1.03-2.11,1.63-3.11.6-1.01,1.26-1.98,1.98-2.91.71-.93,1.48-1.82,2.3-2.66.82-.84,1.68-1.64,2.59-2.38.91-.74,1.85-1.44,2.84-2.07.99-.63,2.01-1.21,3.06-1.73,1.05-.52,2.13-.98,3.24-1.37,1.1-.4,2.23-.73,3.37-.99,1.15-.27,2.3-.47,3.47-.6,1.17-.13,2.34-.2,3.51-.2,4.07,0,7.98.78,11.74,2.33,3.76,1.55,7.08,3.77,9.96,6.64Z"/>
    <path class="cls-1" d="m1690.2,232.58c-.83-.83-1.78-1.47-2.86-1.92-1.08-.45-2.21-.67-3.37-.67s-2.3.22-3.38.67c-1.08.45-2.04,1.08-2.86,1.91-.83.83-1.46,1.78-1.91,2.86-.45,1.08-.67,2.21-.67,3.38s.22,2.3.67,3.37c.45,1.08,1.09,2.04,1.91,2.86.83.83,1.78,1.47,2.86,1.91,1.08.45,2.21.67,3.38.67s2.3-.22,3.37-.67c1.08-.45,2.04-1.09,2.86-1.91.83-.83,1.46-1.78,1.91-2.86.45-1.08.67-2.21.67-3.37s-.22-2.3-.67-3.37c-.45-1.08-1.08-2.03-1.91-2.86m119.43,66.75h-67.31l-51.12-51.12c-.79.61-1.64,1.11-2.56,1.5-.92.39-1.87.67-2.85.82-.99.15-1.98.18-2.97.08-.99-.1-1.96-.32-2.9-.66-.94-.34-1.82-.79-2.64-1.36-.82-.56-1.56-1.22-2.22-1.97-.66-.75-1.21-1.57-1.66-2.46-.45-.89-.79-1.82-1-2.8-.21-.97-.31-1.96-.27-2.96.03-1,.19-1.98.47-2.93.28-.96.67-1.87,1.18-2.73.51-.86,1.12-1.64,1.82-2.34.71-.71,1.49-1.31,2.35-1.82.86-.51,1.77-.9,2.73-1.18.96-.28,1.94-.43,2.94-.46,1-.03,1.98.06,2.96.28.97.22,1.9.55,2.79,1,.89.45,1.71,1.01,2.46,1.67.75.66,1.41,1.4,1.96,2.22.56.83,1.01,1.71,1.35,2.64.34.94.56,1.9.65,2.9.09.99.07,1.98-.09,2.97-.16.99-.43,1.94-.82,2.85-.4.92-.9,1.77-1.51,2.56l50.23,50.23h67.31l131.14,131.14-1.58,2.73-130.83-130.83Z"/>
    <path class="cls-1" d="m1788.31,69.36c-1.01,0-1.98.19-2.91.58-.93.38-1.75.94-2.47,1.65-.71.72-1.26,1.54-1.65,2.47-.39.93-.58,1.9-.58,2.91s.19,1.98.58,2.91c.39.93.94,1.75,1.65,2.47.71.71,1.54,1.26,2.47,1.65.93.38,1.9.57,2.91.57s1.98-.19,2.91-.58c.93-.39,1.75-.94,2.47-1.65.71-.72,1.26-1.54,1.64-2.47.39-.93.58-1.9.57-2.91,0-1.01-.2-1.98-.58-2.9-.39-.93-.94-1.75-1.65-2.46-.71-.71-1.53-1.26-2.46-1.64s-1.9-.58-2.91-.58m150.94,9.11h-140.42c-.13.88-.36,1.73-.7,2.56-.34.82-.78,1.59-1.31,2.31-.54.71-1.15,1.35-1.84,1.91-.7.56-1.45,1.02-2.26,1.39-.81.37-1.65.63-2.53.79-.88.16-1.76.2-2.65.14-.89-.06-1.76-.24-2.6-.52-.84-.28-1.64-.66-2.39-1.15-.75-.48-1.43-1.05-2.03-1.7-.61-.65-1.12-1.37-1.55-2.15-.43-.78-.75-1.6-.97-2.47-.22-.86-.33-1.74-.33-2.63s.11-1.77.33-2.63c.22-.86.54-1.69.97-2.47.43-.78.94-1.5,1.55-2.15.61-.65,1.29-1.22,2.03-1.7.75-.48,1.55-.86,2.39-1.15s1.71-.45,2.6-.52c.89-.06,1.77-.02,2.65.14.88.16,1.72.42,2.53.79.81.37,1.56.83,2.26,1.39.69.56,1.31,1.2,1.84,1.91.54.71.97,1.48,1.31,2.31.34.82.58,1.68.7,2.56h140.42v3.04Z"/>
    <path class="cls-1" d="m1787.93,228.1c0-.89-.09-1.78-.26-2.65-.17-.87-.43-1.73-.77-2.55s-.76-1.61-1.26-2.35c-.49-.74-1.06-1.43-1.69-2.06-.63-.63-1.32-1.2-2.06-1.69-.74-.5-1.53-.92-2.35-1.26-.82-.34-1.68-.6-2.55-.77-.87-.18-1.76-.26-2.65-.26s-1.78.09-2.65.26c-.87.17-1.73.43-2.55.77-.82.34-1.61.76-2.35,1.26-.74.49-1.43,1.06-2.06,1.69-.63.63-1.2,1.32-1.69,2.06-.49.74-.92,1.53-1.25,2.35-.34.82-.6,1.68-.78,2.55-.17.87-.26,1.76-.26,2.65s.09,1.77.26,2.65c.17.87.43,1.72.77,2.55.34.82.76,1.61,1.26,2.35.49.74,1.06,1.43,1.69,2.06.63.63,1.32,1.19,2.06,1.69.74.49,1.53.91,2.35,1.25.82.34,1.68.6,2.55.78.87.17,1.76.26,2.65.26s1.78-.09,2.65-.26c.87-.17,1.73-.43,2.55-.78.82-.34,1.61-.76,2.35-1.25.74-.5,1.43-1.06,2.06-1.69.63-.63,1.2-1.32,1.69-2.06.5-.74.92-1.52,1.26-2.35.34-.83.6-1.68.77-2.55.17-.88.26-1.76.26-2.65"/>
    <path class="cls-1" d="m1587.68,88.02c.83.83,1.78,1.46,2.86,1.91,1.08.45,2.21.67,3.38.67s2.3-.22,3.37-.67c1.08-.45,2.03-1.08,2.86-1.91.83-.83,1.47-1.78,1.91-2.86.45-1.08.67-2.21.67-3.38s-.22-2.3-.67-3.38c-.45-1.08-1.08-2.03-1.91-2.86-.83-.83-1.78-1.46-2.86-1.91-1.08-.45-2.21-.67-3.37-.67-1.17,0-2.3.22-3.38.67-1.08.45-2.03,1.09-2.86,1.92-.83.82-1.47,1.78-1.92,2.86-.45,1.08-.68,2.21-.68,3.38s.22,2.3.68,3.38c.45,1.08,1.09,2.03,1.92,2.86m-1.01-15.63c.79-.61,1.64-1.11,2.56-1.5.92-.39,1.87-.67,2.85-.82.99-.15,1.98-.18,2.97-.09.99.1,1.96.31,2.9.65.94.34,1.82.79,2.64,1.35.82.56,1.57,1.22,2.22,1.97.66.75,1.21,1.57,1.67,2.46.45.89.79,1.82,1,2.8.22.97.31,1.96.28,2.96-.03,1-.19,1.98-.47,2.94-.28.96-.67,1.87-1.18,2.72-.51.86-1.11,1.64-1.82,2.35-.71.7-1.49,1.31-2.35,1.82-.86.51-1.77.9-2.73,1.18-.96.28-1.94.44-2.93.47-1,.03-1.98-.06-2.96-.28-.97-.22-1.91-.55-2.8-1-.89-.45-1.71-1.01-2.46-1.67-.75-.66-1.41-1.4-1.97-2.22-.56-.83-1.01-1.71-1.35-2.64-.34-.94-.56-1.9-.66-2.9-.09-.99-.07-1.98.09-2.97.16-.99.43-1.94.82-2.85.4-.92.9-1.77,1.5-2.56l-84.53-84.53,4.64.34,82.05,82.05Z"/>
    <path class="cls-1" d="m1856.08,136.7c1.17,0,2.3-.22,3.38-.67,1.08-.45,2.04-1.08,2.86-1.91.83-.83,1.46-1.78,1.91-2.86.45-1.08.67-2.2.67-3.37s-.22-2.3-.67-3.37c-.45-1.08-1.08-2.03-1.91-2.86-.83-.83-1.78-1.46-2.86-1.91-1.08-.45-2.21-.67-3.38-.67s-2.29.22-3.37.67c-1.08.45-2.04,1.09-2.86,1.91-.83.83-1.46,1.78-1.91,2.86-.45,1.08-.67,2.2-.67,3.37,0,1.17.23,2.29.68,3.37.45,1.08,1.08,2.03,1.91,2.86.83.83,1.78,1.46,2.86,1.91,1.08.45,2.2.67,3.37.67h0m-81.08-10.34h69.34c.13-.99.37-1.95.74-2.87.37-.93.85-1.8,1.44-2.6.59-.81,1.27-1.53,2.04-2.16.77-.64,1.61-1.16,2.51-1.59.9-.42,1.85-.73,2.83-.91.98-.19,1.97-.24,2.97-.18.99.06,1.97.25,2.91.56.95.31,1.84.73,2.69,1.27.84.54,1.6,1.17,2.28,1.89.68.73,1.26,1.53,1.74,2.4.48.88.85,1.8,1.09,2.76.25.96.37,1.95.37,2.95s-.12,1.98-.37,2.95c-.25.96-.61,1.89-1.09,2.76-.48.87-1.06,1.68-1.75,2.4-.68.73-1.44,1.36-2.28,1.89-.84.54-1.74.96-2.69,1.27-.95.31-1.92.49-2.91.56-1,.06-1.98,0-2.97-.18-.98-.19-1.92-.49-2.83-.91-.9-.42-1.74-.95-2.51-1.59-.77-.63-1.45-1.35-2.04-2.16-.59-.81-1.07-1.67-1.44-2.6-.37-.93-.62-1.88-.74-2.87h-70.58L1641.15-3.18l3.2-1.1,130.64,130.64Z"/>
  </g>
  <g>
    <path class="cls-1" d="m126.54,756.23c.83.83,1.78,1.47,2.86,1.91,1.08.45,2.21.67,3.38.67s2.3-.22,3.37-.67c1.08-.45,2.04-1.08,2.86-1.91.83-.83,1.46-1.78,1.91-2.86.45-1.08.67-2.21.67-3.37s-.22-2.3-.67-3.38c-.45-1.08-1.08-2.04-1.91-2.86-.83-.83-1.78-1.46-2.86-1.91-1.08-.45-2.21-.67-3.37-.67-1.17,0-2.3.22-3.38.67-1.08.45-2.04,1.09-2.86,1.91-.83.83-1.46,1.78-1.91,2.86-.45,1.08-.67,2.2-.67,3.37s.22,2.29.67,3.37c.45,1.08,1.08,2.03,1.91,2.86M-11.39,603.67l136.93,136.93c.79-.61,1.64-1.11,2.56-1.5.92-.39,1.87-.67,2.85-.82.99-.15,1.98-.18,2.97-.09.99.1,1.96.31,2.9.66.94.34,1.82.79,2.64,1.35.82.56,1.57,1.22,2.23,1.97.66.75,1.21,1.57,1.67,2.46.45.89.79,1.82,1,2.79.22.97.31,1.96.28,2.96-.03,1-.19,1.97-.47,2.93-.28.96-.67,1.87-1.18,2.73-.51.86-1.11,1.64-1.82,2.35-.71.71-1.49,1.31-2.35,1.82-.86.51-1.77.9-2.73,1.18-.96.28-1.94.43-2.93.47-1,.03-1.98-.06-2.96-.28-.97-.22-1.91-.55-2.8-1-.89-.45-1.71-1.01-2.46-1.67-.75-.66-1.41-1.4-1.97-2.22-.56-.82-1.01-1.71-1.35-2.64-.34-.94-.56-1.9-.66-2.9-.09-.99-.07-1.98.09-2.97.16-.99.43-1.94.82-2.86.39-.92.9-1.77,1.5-2.56L-12.77,606.6l1.38-2.93Z"/>
    <path class="cls-1" d="m79.38,836.75c.83.83,1.78,1.46,2.86,1.91,1.08.45,2.21.67,3.38.67,1.17,0,2.29-.22,3.37-.67,1.08-.45,2.04-1.08,2.86-1.91.83-.83,1.47-1.78,1.91-2.86.45-1.08.67-2.21.67-3.38s-.22-2.29-.67-3.37c-.45-1.08-1.08-2.04-1.91-2.86-.83-.83-1.78-1.46-2.86-1.91-1.08-.45-2.21-.67-3.37-.67s-2.3.22-3.38.67c-1.08.45-2.03,1.08-2.86,1.91-.83.83-1.46,1.78-1.91,2.86-.45,1.08-.67,2.21-.67,3.37s.22,2.29.67,3.37c.45,1.08,1.08,2.03,1.91,2.86h0m-107.75-122.37l106.72,106.75c.79-.61,1.64-1.11,2.56-1.5.92-.4,1.87-.67,2.86-.82.98-.15,1.98-.18,2.97-.09.99.1,1.96.32,2.9.66.94.34,1.82.79,2.64,1.35.82.56,1.57,1.22,2.22,1.97.66.75,1.21,1.57,1.67,2.46.45.89.79,1.82,1,2.8.22.97.31,1.96.28,2.96-.03,1-.19,1.98-.47,2.93-.28.96-.67,1.87-1.18,2.73-.51.86-1.11,1.64-1.82,2.35s-1.49,1.31-2.35,1.82c-.86.51-1.77.9-2.73,1.18-.96.28-1.94.43-2.93.47-1,.03-1.98-.06-2.96-.28-.97-.22-1.91-.55-2.8-1s-1.71-1.01-2.46-1.67c-.75-.66-1.41-1.4-1.97-2.23-.56-.82-1.01-1.71-1.35-2.64-.34-.94-.56-1.9-.66-2.9-.09-.99-.07-1.98.09-2.97.15-.98.43-1.94.82-2.85.4-.92.9-1.77,1.5-2.56l-106.21-106.21,1.63-2.69Z"/>
    <path class="cls-1" d="m232.75,900.44c-.83-.83-1.78-1.46-2.86-1.91-1.08-.45-2.2-.67-3.37-.67-1.17,0-2.3.22-3.38.67-1.08.45-2.04,1.09-2.86,1.91-.83.83-1.46,1.78-1.91,2.86-.45,1.08-.67,2.21-.67,3.38s.22,2.29.67,3.37c.45,1.08,1.09,2.03,1.91,2.86.83.83,1.78,1.46,2.86,1.91,1.08.45,2.21.67,3.38.67s2.3-.22,3.37-.67c1.08-.45,2.03-1.09,2.86-1.91.83-.82,1.47-1.77,1.93-2.86.45-1.08.68-2.21.68-3.38s-.22-2.3-.68-3.38c-.45-1.08-1.09-2.03-1.93-2.86m248.46,195.78l-129.03-129.03h-67.31s-51.12-51.12-51.12-51.12c-.79.61-1.64,1.11-2.56,1.51-.92.4-1.87.67-2.85.82-.99.15-1.97.18-2.97.09-.99-.1-1.96-.31-2.9-.65-.94-.34-1.82-.79-2.64-1.35-.83-.56-1.57-1.22-2.23-1.97-.66-.75-1.22-1.57-1.67-2.46-.45-.89-.79-1.82-1-2.79-.22-.98-.31-1.96-.28-2.96.03-1,.19-1.98.47-2.94.28-.96.67-1.87,1.18-2.72.51-.86,1.11-1.64,1.82-2.35.71-.71,1.49-1.31,2.35-1.82.86-.51,1.76-.9,2.72-1.18.96-.28,1.94-.44,2.93-.47,1-.03,1.98.06,2.96.28.97.21,1.9.55,2.79,1s1.71,1.01,2.46,1.67c.75.66,1.41,1.4,1.97,2.22s1.01,1.7,1.35,2.64c.34.94.56,1.9.66,2.9.09.99.07,1.98-.08,2.97-.15.99-.43,1.94-.82,2.86-.39.92-.89,1.77-1.5,2.56l50.23,50.23h67.3s131.46,131.46,131.46,131.46l-3.68.62Z"/>
    <path class="cls-1" d="m262,1024.06c.83.83,1.78,1.46,2.86,1.91,1.08.45,2.21.67,3.37.67s2.3-.22,3.38-.67c1.08-.45,2.04-1.09,2.86-1.91.83-.83,1.46-1.78,1.91-2.86.45-1.08.67-2.21.67-3.38s-.22-2.3-.67-3.37c-.45-1.08-1.09-2.04-1.91-2.86-.83-.83-1.78-1.47-2.86-1.91-1.08-.45-2.21-.67-3.38-.67s-2.3.22-3.37.67c-1.08.45-2.04,1.08-2.86,1.91-.83.82-1.48,1.78-1.93,2.86-.45,1.08-.68,2.21-.68,3.38s.23,2.3.68,3.38c.45,1.08,1.09,2.03,1.93,2.86m-1-15.63c.79-.61,1.64-1.11,2.56-1.51.92-.4,1.87-.67,2.85-.82.98-.16,1.97-.18,2.97-.09.99.1,1.96.31,2.9.65.94.34,1.82.79,2.64,1.35.83.56,1.57,1.22,2.23,1.97.66.75,1.22,1.57,1.67,2.46.45.89.79,1.82,1,2.79.22.97.31,1.96.28,2.96-.03,1-.19,1.97-.46,2.93-.28.96-.67,1.87-1.18,2.73-.51.86-1.11,1.64-1.82,2.35-.7.71-1.49,1.31-2.34,1.82-.86.51-1.77.9-2.73,1.18-.96.28-1.94.44-2.93.47-1,.03-1.98-.06-2.96-.28-.97-.21-1.91-.55-2.8-1-.89-.45-1.71-1.01-2.46-1.67-.75-.66-1.41-1.4-1.97-2.22-.56-.82-1.01-1.7-1.35-2.64-.34-.94-.56-1.9-.66-2.9-.1-.99-.07-1.98.08-2.97.15-.99.43-1.94.82-2.86.39-.92.89-1.77,1.5-2.56l-82.56-82.57h-67.31S-28.67,790.37-28.67,790.37l.73-3.57,138.18,138.17h67.31s83.46,83.46,83.46,83.46Z"/>
    <path class="cls-1" d="m165.22,842.35c-1.29-1.29-2.68-2.43-4.19-3.44-1.51-1.01-3.1-1.86-4.78-2.56-1.68-.7-3.41-1.22-5.19-1.57-1.78-.35-3.58-.53-5.39-.53s-3.61.18-5.39.53c-1.78.35-3.51.88-5.18,1.57-1.68.69-3.27,1.55-4.78,2.56-1.51,1.01-2.9,2.15-4.19,3.44-1.29,1.28-2.43,2.68-3.44,4.19-1.01,1.51-1.86,3.1-2.55,4.78-.7,1.68-1.22,3.4-1.57,5.19-.35,1.78-.53,3.58-.53,5.39s.18,3.61.53,5.39c.35,1.78.88,3.51,1.57,5.18.69,1.68,1.55,3.27,2.55,4.78,1.01,1.51,2.15,2.91,3.44,4.19,1.28,1.28,2.68,2.43,4.19,3.44,1.51,1.01,3.1,1.86,4.78,2.56,1.68.7,3.4,1.22,5.18,1.57,1.78.35,3.58.53,5.39.53s3.61-.18,5.39-.53,3.51-.88,5.19-1.57c1.68-.69,3.27-1.55,4.78-2.55,1.51-1.01,2.9-2.15,4.19-3.44,1.29-1.28,2.44-2.68,3.45-4.18,1.01-1.51,1.87-3.1,2.57-4.78.7-1.68,1.22-3.41,1.58-5.19.35-1.78.53-3.58.53-5.4,0-1.82-.18-3.62-.54-5.4-.36-1.78-.88-3.51-1.58-5.19-.7-1.68-1.55-3.27-2.57-4.78-1.01-1.51-2.16-2.9-3.45-4.18h0m-41.25,41.25c-.83-.83-1.61-1.7-2.34-2.62-.73-.92-1.41-1.88-2.03-2.87-.62-1-1.18-2.02-1.69-3.09-.5-1.06-.94-2.15-1.32-3.26-.38-1.11-.69-2.24-.94-3.39-.25-1.15-.43-2.31-.55-3.47-.12-1.17-.17-2.34-.15-3.51.02-1.18.1-2.34.26-3.51.15-1.17.37-2.32.66-3.46.29-1.14.63-2.26,1.05-3.36.41-1.1.89-2.17,1.42-3.22.54-1.05,1.13-2.06,1.78-3.03.65-.98,1.36-1.91,2.12-2.81.76-.9,1.57-1.74,2.42-2.55.86-.8,1.76-1.56,2.7-2.25.94-.7,1.92-1.34,2.94-1.93,1.02-.59,2.06-1.11,3.14-1.58,1.08-.47,2.18-.87,3.3-1.21,1.12-.34,2.26-.62,3.42-.83,1.16-.21,2.32-.35,3.49-.43,1.17-.08,2.34-.09,3.52-.03,1.17.06,2.34.18,3.5.37,1.16.19,2.3.45,3.43.77,1.13.32,2.24.71,3.32,1.16,1.08.45,2.14.96,3.17,1.53,1.03.57,2.02,1.2,2.97,1.88.96.68,1.87,1.42,2.74,2.21.87.79,1.69,1.62,2.47,2.5.77.88,1.49,1.81,2.17,2.77.67.96,1.28,1.97,1.83,3,.55,1.04,1.05,2.1,1.48,3.19.43,1.09.8,2.2,1.11,3.34.3,1.13.54,2.28.71,3.44.17,1.16.28,2.33.32,3.5.04,1.17.01,2.34-.08,3.51-.09,1.17-.26,2.33-.49,3.48-.23,1.15-.52,2.28-.88,3.4-.36,1.12-.78,2.21-1.26,3.28-.48,1.07-1.03,2.11-1.63,3.11-.6,1.01-1.26,1.98-1.98,2.91-.71.93-1.48,1.82-2.3,2.66-.82.84-1.68,1.64-2.59,2.38-.91.74-1.85,1.44-2.84,2.07-.99.63-2.01,1.21-3.06,1.73-1.05.52-2.13.98-3.24,1.37-1.1.4-2.23.73-3.37.99-1.15.27-2.3.47-3.47.6-1.17.13-2.34.2-3.51.2-4.07,0-7.98-.78-11.74-2.33-3.76-1.55-7.08-3.77-9.96-6.64Z"/>
    <path class="cls-1" d="m229.8,857.42c.83.83,1.78,1.47,2.86,1.92,1.08.45,2.21.67,3.37.67s2.3-.22,3.38-.67c1.08-.45,2.04-1.08,2.86-1.91.83-.83,1.46-1.78,1.91-2.86.45-1.08.67-2.21.67-3.38s-.22-2.3-.67-3.37c-.45-1.08-1.09-2.04-1.91-2.86-.83-.83-1.78-1.47-2.86-1.91-1.08-.45-2.21-.67-3.38-.67s-2.3.22-3.37.67c-1.08.45-2.04,1.09-2.86,1.91-.83.83-1.46,1.78-1.91,2.86-.45,1.08-.67,2.21-.67,3.37s.22,2.3.67,3.37c.45,1.08,1.08,2.03,1.91,2.86m-119.43-66.75h67.31s51.12,51.12,51.12,51.12c.79-.61,1.64-1.11,2.56-1.5.92-.39,1.87-.67,2.85-.82.99-.15,1.98-.18,2.97-.08.99.1,1.96.32,2.9.66.94.34,1.82.79,2.64,1.36.82.56,1.56,1.22,2.22,1.97.66.75,1.21,1.57,1.66,2.46.45.89.79,1.82,1,2.8.21.97.31,1.96.27,2.96-.03,1-.19,1.98-.47,2.93-.28.96-.67,1.87-1.18,2.73-.51.86-1.12,1.64-1.82,2.34-.71.71-1.49,1.31-2.35,1.82-.86.51-1.77.9-2.73,1.18-.96.28-1.94.43-2.94.46-1,.03-1.98-.06-2.96-.28-.97-.22-1.9-.55-2.79-1-.89-.45-1.71-1.01-2.46-1.67-.75-.66-1.41-1.4-1.96-2.22-.56-.83-1.01-1.71-1.35-2.64-.34-.94-.56-1.9-.65-2.9-.09-.99-.07-1.98.09-2.97.16-.99.43-1.94.82-2.85.4-.92.9-1.77,1.51-2.56l-50.23-50.23h-67.31S-22.03,662.57-22.03,662.57l1.58-2.73,130.83,130.83Z"/>
    <path class="cls-1" d="m131.69,1020.64c1.01,0,1.98-.19,2.91-.58.93-.38,1.75-.94,2.47-1.65.71-.72,1.26-1.54,1.65-2.47.39-.93.58-1.9.58-2.91s-.19-1.98-.58-2.91c-.39-.93-.94-1.75-1.65-2.47-.71-.71-1.54-1.26-2.47-1.65-.93-.38-1.9-.57-2.91-.57s-1.98.19-2.91.58c-.93.39-1.75.94-2.47,1.65-.71.72-1.26,1.54-1.64,2.47-.39.93-.58,1.9-.57,2.91,0,1.01.2,1.98.58,2.9.39.93.94,1.75,1.65,2.46.71.71,1.53,1.26,2.46,1.64.93.39,1.9.58,2.91.58m-150.94-9.11H121.17c.13-.88.36-1.73.7-2.56.34-.82.78-1.59,1.31-2.31.54-.71,1.15-1.35,1.84-1.91.7-.56,1.45-1.02,2.26-1.39.81-.37,1.65-.63,2.53-.79.88-.16,1.76-.2,2.65-.14.89.06,1.76.24,2.6.52.84.28,1.64.66,2.39,1.15.75.48,1.43,1.05,2.03,1.7.61.65,1.12,1.37,1.55,2.15.43.78.75,1.6.97,2.47.22.86.33,1.74.33,2.63s-.11,1.77-.33,2.63c-.22.86-.54,1.69-.97,2.47-.43.78-.94,1.5-1.55,2.15-.61.65-1.29,1.22-2.03,1.7-.75.48-1.55.86-2.39,1.15s-1.71.45-2.6.52c-.89.06-1.77.02-2.65-.14-.88-.16-1.72-.42-2.53-.79-.81-.37-1.56-.83-2.26-1.39-.69-.56-1.31-1.2-1.84-1.91-.54-.71-.97-1.48-1.31-2.31-.34-.82-.58-1.68-.7-2.56H-19.26v-3.04Z"/>
    <path class="cls-1" d="m132.07,861.9c0,.89.09,1.78.26,2.65.17.87.43,1.73.77,2.55s.76,1.61,1.26,2.35c.49.74,1.06,1.43,1.69,2.06.63.63,1.32,1.2,2.06,1.69.74.5,1.53.92,2.35,1.26.82.34,1.68.6,2.55.77.87.18,1.76.26,2.65.26s1.78-.09,2.65-.26c.87-.17,1.73-.43,2.55-.77.82-.34,1.61-.76,2.35-1.26.74-.49,1.43-1.06,2.06-1.69.63-.63,1.2-1.32,1.69-2.06.49-.74.92-1.53,1.25-2.35.34-.82.6-1.68.78-2.55.17-.87.26-1.76.26-2.65s-.09-1.77-.26-2.65c-.17-.87-.43-1.72-.77-2.55-.34-.82-.76-1.61-1.26-2.35-.49-.74-1.06-1.43-1.69-2.06-.63-.63-1.32-1.19-2.06-1.69-.74-.49-1.53-.91-2.35-1.25-.82-.34-1.68-.6-2.55-.78-.87-.17-1.76-.26-2.65-.26s-1.78.09-2.65.26c-.87.17-1.73.43-2.55.78-.82.34-1.61.76-2.35,1.25-.74.5-1.43,1.06-2.06,1.69-.63.63-1.2,1.32-1.69,2.06-.5.74-.92,1.52-1.26,2.35-.34.83-.6,1.68-.77,2.55-.17.88-.26,1.76-.26,2.65"/>
    <path class="cls-1" d="m332.32,1001.98c-.83-.83-1.78-1.46-2.86-1.91-1.08-.45-2.21-.67-3.38-.67s-2.3.22-3.37.67c-1.08.45-2.03,1.08-2.86,1.91-.83.83-1.47,1.78-1.91,2.86-.45,1.08-.67,2.21-.67,3.38s.22,2.3.67,3.38c.45,1.08,1.08,2.03,1.91,2.86.83.83,1.78,1.46,2.86,1.91,1.08.45,2.21.67,3.37.67,1.17,0,2.3-.22,3.38-.67,1.08-.45,2.03-1.09,2.86-1.92.83-.82,1.47-1.78,1.92-2.86.45-1.08.68-2.21.68-3.38s-.22-2.3-.68-3.38c-.45-1.08-1.09-2.03-1.92-2.86m1.01,15.63c-.79.61-1.64,1.11-2.56,1.5-.92.39-1.87.67-2.85.82-.99.15-1.98.18-2.97.09-.99-.1-1.96-.31-2.9-.65-.94-.34-1.82-.79-2.64-1.35-.82-.56-1.57-1.22-2.22-1.97-.66-.75-1.21-1.57-1.67-2.46-.45-.89-.79-1.82-1-2.8-.22-.97-.31-1.96-.28-2.96.03-1,.19-1.98.47-2.94.28-.96.67-1.87,1.18-2.72.51-.86,1.11-1.64,1.82-2.35.71-.7,1.49-1.31,2.35-1.82.86-.51,1.77-.9,2.73-1.18.96-.28,1.94-.44,2.93-.47,1-.03,1.98.06,2.96.28.97.22,1.91.55,2.8,1,.89.45,1.71,1.01,2.46,1.67.75.66,1.41,1.4,1.97,2.22.56.83,1.01,1.71,1.35,2.64.34.94.56,1.9.66,2.9.09.99.07,1.98-.09,2.97-.16.99-.43,1.94-.82,2.85-.4.92-.9,1.77-1.5,2.56l84.53,84.53-4.64-.34-82.05-82.05Z"/>
    <path class="cls-1" d="m63.92,953.3c-1.17,0-2.3.22-3.38.67-1.08.45-2.04,1.08-2.86,1.91-.83.83-1.46,1.78-1.91,2.86-.45,1.08-.67,2.2-.67,3.37s.22,2.3.67,3.37c.45,1.08,1.08,2.03,1.91,2.86.83.83,1.78,1.46,2.86,1.91,1.08.45,2.21.67,3.38.67s2.29-.22,3.37-.67c1.08-.45,2.04-1.09,2.86-1.91.83-.83,1.46-1.78,1.91-2.86.45-1.08.67-2.2.67-3.37,0-1.17-.23-2.29-.68-3.37-.45-1.08-1.08-2.03-1.91-2.86-.83-.83-1.78-1.46-2.86-1.91-1.08-.45-2.2-.67-3.37-.67h0m81.08,10.34h-69.34c-.13.99-.37,1.95-.74,2.87-.37.93-.85,1.8-1.44,2.6-.59.81-1.27,1.53-2.04,2.16-.77.64-1.61,1.16-2.51,1.59-.9.42-1.85.73-2.83.91-.98.19-1.97.24-2.97.18-.99-.06-1.97-.25-2.91-.56-.95-.31-1.84-.73-2.69-1.27-.84-.54-1.6-1.17-2.28-1.89-.68-.73-1.26-1.53-1.74-2.4-.48-.88-.85-1.8-1.09-2.76-.25-.96-.37-1.95-.37-2.95s.12-1.98.37-2.95c.25-.96.61-1.89,1.09-2.76.48-.87,1.06-1.68,1.75-2.4.68-.73,1.44-1.36,2.28-1.89.84-.54,1.74-.96,2.69-1.27.95-.31,1.92-.49,2.91-.56,1-.06,1.98,0,2.97.18.98.19,1.92.49,2.83.91.9.42,1.74.95,2.51,1.59.77.63,1.45,1.35,2.04,2.16.59.81,1.07,1.67,1.44,2.6.37.93.62,1.88.74,2.87h70.58s132.59,132.58,132.59,132.58l-3.2,1.1-130.64-130.64Z"/>
  </g>
</svg>