<svg width="23" height="20" viewBox="0 0 23 20" fill="none" xmlns="http://www.w3.org/2000/svg">
<path d="M6.49998 0.500244C4.57578 0.500244 2.99998 2.07604 2.99998 4.00024V9.00024H1.24998C1.06521 8.99822 0.886202 9.06447 0.747266 9.18629C0.608331 9.30812 0.519251 9.47693 0.497107 9.66038C0.474963 9.84383 0.521312 10.029 0.627268 10.1804C0.733224 10.3318 0.89133 10.4387 1.07127 10.4807L2.15526 16.7991V16.8C2.37279 18.0672 3.31542 19.0621 4.51073 19.387C4.5392 19.5512 4.62155 19.7013 4.7448 19.8135C4.86804 19.9257 5.02515 19.9936 5.19132 20.0066C5.35749 20.0196 5.52326 19.9769 5.66244 19.8852C5.80162 19.7935 5.9063 19.6581 5.95994 19.5002H17.04C17.0937 19.6581 17.1983 19.7935 17.3375 19.8852C17.4767 19.9769 17.6425 20.0196 17.8086 20.0066C17.9748 19.9936 18.1319 19.9257 18.2552 19.8135C18.3784 19.7013 18.4608 19.5512 18.4892 19.387C19.6849 19.0619 20.6286 18.0666 20.8457 16.7991H20.8447L21.9287 10.4807C22.1086 10.4387 22.2667 10.3318 22.3727 10.1804C22.4787 10.029 22.525 9.84383 22.5029 9.66038C22.4807 9.47693 22.3916 9.30812 22.2527 9.18629C22.1138 9.06447 21.9347 8.99822 21.75 9.00024H4.49998V4.00024C4.49998 2.88644 5.38618 2.00024 6.49998 2.00024C7.57319 2.00024 8.42686 2.8257 8.48826 3.88208C7.7745 4.13893 7.228 4.74694 7.05662 5.49731C6.99712 5.75681 7.21395 6.00024 7.48045 6.00024H11.0195C11.286 6.00024 11.5028 5.75681 11.4433 5.49731C11.2705 4.74067 10.7157 4.13027 9.99315 3.8772C9.92717 2.00979 8.38266 0.500244 6.49998 0.500244ZM2.59666 10.5002H20.4033L19.3672 16.5461C19.229 17.3531 18.5605 17.9392 17.7539 17.9905C17.7487 17.9901 17.7435 17.9898 17.7383 17.9895C17.7016 17.9904 17.665 17.994 17.6289 18.0002H5.37303C5.32884 17.9927 5.28407 17.9891 5.23924 17.9895H5.23826H5.23631C4.43412 17.9341 3.77082 17.3502 3.6328 16.5461L2.59666 10.5002Z" fill="#344054"/>
</svg>
