<svg width="21" height="18" viewBox="0 0 21 18" fill="none" xmlns="http://www.w3.org/2000/svg">
<path d="M10.0002 0.000244141C6.74395 0.000244141 4.38255 0.817329 3.05679 1.44263C2.09583 1.89608 1.50015 2.87145 1.50015 3.92017V8.84204C0.622706 9.3034 0.000153769 10.197 0.000153769 11.2502V14.6272C-0.0130721 14.7077 -0.0130721 14.7898 0.000153769 14.8704V16.2502C-0.00125177 16.3496 0.0171091 16.4483 0.0541694 16.5405C0.0912297 16.6328 0.14625 16.7167 0.216034 16.7875C0.285817 16.8582 0.368971 16.9144 0.460664 16.9528C0.552357 16.9912 0.65076 17.0109 0.750154 17.0109C0.849548 17.0109 0.947951 16.9912 1.03964 16.9528C1.13134 16.9144 1.21449 16.8582 1.28427 16.7875C1.35406 16.7167 1.40908 16.6328 1.44614 16.5405C1.4832 16.4483 1.50156 16.3496 1.50015 16.2502V15.5002H18.5002V16.2502C18.4988 16.3496 18.5171 16.4483 18.5542 16.5405C18.5912 16.6328 18.6463 16.7167 18.716 16.7875C18.7858 16.8582 18.869 16.9144 18.9607 16.9528C19.0524 16.9912 19.1508 17.0109 19.2502 17.0109C19.3496 17.0109 19.448 16.9912 19.5396 16.9528C19.6313 16.9144 19.7145 16.8582 19.7843 16.7875C19.8541 16.7167 19.9091 16.6328 19.9461 16.5405C19.9832 16.4483 20.0016 16.3496 20.0002 16.2502V14.8733C20.0134 14.7928 20.0134 14.7106 20.0002 14.6301V11.2502C20.0002 10.197 19.3776 9.3034 18.5002 8.84204V3.92017C18.5002 2.87081 17.9043 1.8956 16.9435 1.44263C15.6178 0.817329 13.2564 0.000244141 10.0002 0.000244141ZM10.0002 1.50024C13.006 1.50024 15.1417 2.25137 16.3029 2.79907H16.3039C16.7287 2.99924 17.0002 3.43677 17.0002 3.92017V8.50024H16.0002V8.25024C16.0002 6.74036 14.76 5.50024 13.2502 5.50024H12.0002C11.2077 5.50024 10.5037 5.85287 10.0002 6.39575C9.49661 5.85287 8.79257 5.50024 8.00015 5.50024H6.75015C5.24027 5.50024 4.00015 6.74036 4.00015 8.25024V8.50024H3.00015V3.92017C3.00015 3.43713 3.27179 2.99977 3.69742 2.79907C4.85866 2.25137 6.99435 1.50024 10.0002 1.50024ZM9.30777 2.50024C8.86277 2.50024 8.50015 2.86286 8.50015 3.30786C8.50015 3.50986 8.57557 3.70233 8.71207 3.85083C8.71707 3.85683 8.72505 3.86542 9.83805 4.97192C9.88205 5.01592 9.94065 5.03833 10.0002 5.03833C10.0597 5.03833 10.1183 5.01592 10.1623 4.97192C11.2758 3.86542 11.2828 3.85728 11.2873 3.85278C11.4243 3.70278 11.5002 3.50986 11.5002 3.30786C11.5002 2.86286 11.1375 2.50024 10.6925 2.50024C10.397 2.50024 10.1412 2.66118 10.0002 2.89868C9.85915 2.66118 9.60327 2.50024 9.30777 2.50024ZM6.75015 7.00024H8.00015C8.69927 7.00024 9.25015 7.55113 9.25015 8.25024V8.50024H5.50015V8.25024C5.50015 7.55113 6.05104 7.00024 6.75015 7.00024ZM12.0002 7.00024H13.2502C13.9493 7.00024 14.5002 7.55113 14.5002 8.25024V8.50024H10.7502V8.25024C10.7502 7.55113 11.301 7.00024 12.0002 7.00024ZM2.75015 10.0002H4.75015H15.2502H17.2502C17.9493 10.0002 18.5002 10.5511 18.5002 11.2502V14.0002H1.50015V11.2502C1.50015 10.5511 2.05104 10.0002 2.75015 10.0002Z" fill="#475467"/>
</svg>
