<svg width="22" height="21" viewBox="0 0 22 21" fill="none" xmlns="http://www.w3.org/2000/svg">
<path d="M7.58008 0.348899C7.38939 0.342631 7.19957 0.357953 7.01367 0.394798C6.64187 0.468486 6.28759 0.626994 5.97949 0.863548C5.36264 1.33678 5 2.06986 5 2.84792V11.8479H3.25C1.7375 11.8479 0.5 13.0854 0.5 14.5979V19.5979C0.5 20.0119 0.836 20.3479 1.25 20.3479H9.25H15.75H16.5H20.75C21.164 20.3479 21.5 20.0119 21.5 19.5979V11.0979C21.5 9.58542 20.2625 8.34792 18.75 8.34792H16.5V4.59792C16.5 3.47118 15.7384 2.47709 14.6504 2.18386L8.15039 0.43386C7.96232 0.383025 7.77077 0.355167 7.58008 0.348899ZM7.53418 1.8489C7.61048 1.85106 7.68609 1.86219 7.75977 1.8821L14.2598 3.6321C14.6967 3.74987 15 4.14566 15 4.59792V18.8479H10V14.5979C10 13.0854 8.7625 11.8479 7.25 11.8479H6.5V2.84792C6.5 2.54398 6.65043 2.23877 6.89258 2.053C7.07319 1.91433 7.30528 1.84243 7.53418 1.8489ZM8.5 4.84792C8.224 4.84792 8 5.07192 8 5.34792V6.34792C8 6.62392 8.224 6.84792 8.5 6.84792H9.5C9.776 6.84792 10 6.62392 10 6.34792V5.34792C10 5.07192 9.776 4.84792 9.5 4.84792H8.5ZM12 4.84792C11.724 4.84792 11.5 5.07192 11.5 5.34792V6.34792C11.5 6.62392 11.724 6.84792 12 6.84792H13C13.276 6.84792 13.5 6.62392 13.5 6.34792V5.34792C13.5 5.07192 13.276 4.84792 13 4.84792H12ZM8.5 8.34792C8.224 8.34792 8 8.57192 8 8.84792V9.84792C8 10.1239 8.224 10.3479 8.5 10.3479H9.5C9.776 10.3479 10 10.1239 10 9.84792V8.84792C10 8.57192 9.776 8.34792 9.5 8.34792H8.5ZM12 8.34792C11.724 8.34792 11.5 8.57192 11.5 8.84792V9.84792C11.5 10.1239 11.724 10.3479 12 10.3479H13C13.276 10.3479 13.5 10.1239 13.5 9.84792V8.84792C13.5 8.57192 13.276 8.34792 13 8.34792H12ZM12 11.8479C11.724 11.8479 11.5 12.0719 11.5 12.3479V13.3479C11.5 13.6239 11.724 13.8479 12 13.8479H13C13.276 13.8479 13.5 13.6239 13.5 13.3479V12.3479C13.5 12.0719 13.276 11.8479 13 11.8479H12ZM18 11.8479H19C19.276 11.8479 19.5 12.0719 19.5 12.3479V13.3479C19.5 13.6239 19.276 13.8479 19 13.8479H18C17.724 13.8479 17.5 13.6239 17.5 13.3479V12.3479C17.5 12.0719 17.724 11.8479 18 11.8479ZM3 15.3479H4C4.276 15.3479 4.5 15.5719 4.5 15.8479V16.8479C4.5 17.1239 4.276 17.3479 4 17.3479H3C2.724 17.3479 2.5 17.1239 2.5 16.8479V15.8479C2.5 15.5719 2.724 15.3479 3 15.3479ZM6.5 15.3479H7.5C7.776 15.3479 8 15.5719 8 15.8479V16.8479C8 17.1239 7.776 17.3479 7.5 17.3479H6.5C6.224 17.3479 6 17.1239 6 16.8479V15.8479C6 15.5719 6.224 15.3479 6.5 15.3479ZM12 15.3479C11.724 15.3479 11.5 15.5719 11.5 15.8479V16.8479C11.5 17.1239 11.724 17.3479 12 17.3479H13C13.276 17.3479 13.5 17.1239 13.5 16.8479V15.8479C13.5 15.5719 13.276 15.3479 13 15.3479H12ZM18 15.3479H19C19.276 15.3479 19.5 15.5719 19.5 15.8479V16.8479C19.5 17.1239 19.276 17.3479 19 17.3479H18C17.724 17.3479 17.5 17.1239 17.5 16.8479V15.8479C17.5 15.5719 17.724 15.3479 18 15.3479Z" fill="#475467"/>
</svg>
