<svg data-src="/img/info-circle-outline.d6f10603.svg" fill="none" class="v-icon__component theme--light grey--text text--lighten-2" style="height: 16px; width: 16px; font-size: 16px;" width="16" height="16" viewBox="0 0 16 16" xmlns="http://www.w3.org/2000/svg" data-id="svg-loader_64">
  <path class="icon-jibble-stroke" fill-rule="evenodd" clip-rule="evenodd" d="M8.00004 14.6663C11.6819 14.6663 14.6667 11.6816 14.6667 7.99967C14.6667 4.31778 11.6819 1.33301 8.00004 1.33301C4.31814 1.33301 1.33337 4.31778 1.33337 7.99967C1.33337 11.6816 4.31814 14.6663 8.00004 14.6663Z" stroke="#424B63" stroke-linecap="round" stroke-linejoin="round"></path>
  <path class="icon-jibble-stroke" d="M9.51511 11.4032H8.60602C8.27131 11.4032 7.99996 11.1318 7.99996 10.7971V6.85772C7.99996 6.69036 7.86429 6.55469 7.69693 6.55469H6.78784" stroke="#424B63" stroke-linecap="round" stroke-linejoin="round"></path>
  <path class="icon-jibble-stroke" d="M7.84561 4.2959C7.76193 4.2959 7.69409 4.36373 7.69409 4.44741C7.69409 4.53109 7.76193 4.59893 7.84561 4.59893C7.92929 4.59893 7.99712 4.53109 7.99712 4.44741C7.99712 4.36373 7.92929 4.2959 7.84561 4.2959" stroke="#424B63" stroke-linecap="round" stroke-linejoin="round"></path>
</svg>