<svg width="112" height="111" viewBox="0 0 112 111" fill="none" xmlns="http://www.w3.org/2000/svg">
<g clip-path="url(#clip0_34_3433)">
<path d="M0 8C0 3.58172 3.58172 0 8 0H112V111H8C3.58172 111 0 107.418 0 103V8Z" fill="#F5FAFF"/>
<mask id="mask0_34_3433" style="mask-type:alpha" maskUnits="userSpaceOnUse" x="8" y="-3" width="95" height="114">
<rect width="95" height="113.472" transform="matrix(-1 0 0 1 103 -2.47217)" fill="#D9D9D9"/>
</mask>
<g mask="url(#mask0_34_3433)">
<path d="M38.6479 52.7418H42.1523C42.3309 52.7416 42.5022 52.6705 42.6286 52.5442C42.7549 52.4178 42.826 52.2466 42.8262 52.0679V48.5636C42.826 48.3849 42.7549 48.2136 42.6286 48.0873C42.5022 47.9609 42.3309 47.8899 42.1523 47.8896H38.6479C38.4693 47.8899 38.298 47.9609 38.1716 48.0873C38.0453 48.2136 37.9742 48.3849 37.974 48.5636V52.0679C37.9742 52.2466 38.0453 52.4178 38.1716 52.5442C38.298 52.6705 38.4693 52.7416 38.6479 52.7418ZM42.1523 48.1592C42.2595 48.1593 42.3622 48.202 42.438 48.2778C42.5139 48.3536 42.5565 48.4564 42.5566 48.5636V52.0679C42.5565 52.1751 42.5139 52.2779 42.438 52.3537C42.3622 52.4295 42.2595 52.4721 42.1523 52.4722H38.6479C38.5407 52.4721 38.438 52.4295 38.3621 52.3537C38.2863 52.2779 38.2437 52.1751 38.2436 52.0679V48.5636C38.2437 48.4564 38.2863 48.3536 38.3621 48.2778C38.438 48.202 38.5407 48.1593 38.6479 48.1592H42.1523Z" fill="#E6E6E6"/>
<path d="M79.4839 31.8521H82.9882C83.1669 31.8519 83.3382 31.7809 83.4645 31.6545C83.5908 31.5282 83.6619 31.3569 83.6621 31.1782V27.6739C83.6619 27.4952 83.5908 27.3239 83.4645 27.1976C83.3382 27.0713 83.1669 27.0002 82.9882 27H79.4839C79.3052 27.0002 79.1339 27.0713 79.0076 27.1976C78.8812 27.3239 78.8102 27.4952 78.81 27.6739V31.1782C78.8102 31.3569 78.8812 31.5282 79.0076 31.6545C79.1339 31.7809 79.3052 31.8519 79.4839 31.8521ZM82.9882 27.2696C83.0954 27.2697 83.1982 27.3123 83.274 27.3881C83.3498 27.4639 83.3924 27.5667 83.3925 27.6739V31.1782C83.3924 31.2854 83.3498 31.3882 83.274 31.464C83.1982 31.5398 83.0954 31.5825 82.9882 31.5826H79.4839C79.3767 31.5825 79.2739 31.5398 79.1981 31.464C79.1223 31.3882 79.0796 31.2854 79.0795 31.1782V27.6739C79.0796 27.5667 79.1223 27.4639 79.1981 27.3881C79.2739 27.3123 79.3767 27.2697 79.4839 27.2696H82.9882Z" fill="#E6E6E6"/>
<path d="M40.8032 50.9898H44.3075C44.4862 50.9896 44.6575 50.9186 44.7838 50.7922C44.9102 50.6659 44.9812 50.4946 44.9814 50.3159V46.8116C44.9812 46.6329 44.9102 46.4616 44.7838 46.3353C44.6575 46.209 44.4862 46.1379 44.3075 46.1377H40.8032C40.6245 46.1379 40.4532 46.209 40.3269 46.3353C40.2006 46.4616 40.1295 46.6329 40.1293 46.8116V50.3159C40.1295 50.4946 40.2006 50.6659 40.3269 50.7922C40.4532 50.9186 40.6245 50.9896 40.8032 50.9898ZM44.3075 46.4073C44.4147 46.4074 44.5175 46.45 44.5933 46.5258C44.6691 46.6016 44.7118 46.7044 44.7119 46.8116V50.3159C44.7118 50.4231 44.6691 50.5259 44.5933 50.6017C44.5175 50.6775 44.4147 50.7202 44.3075 50.7203H40.8032C40.696 50.7202 40.5932 50.6775 40.5174 50.6017C40.4416 50.5259 40.399 50.4231 40.3989 50.3159V46.8116C40.399 46.7044 40.4416 46.6016 40.5174 46.5258C40.5932 46.45 40.696 46.4074 40.8032 46.4073H44.3075Z" fill="#E6E6E6"/>
<path d="M101.728 80.2389H105.232C105.411 80.2387 105.582 80.1676 105.709 80.0413C105.835 79.9149 105.906 79.7436 105.906 79.565V76.0606C105.906 75.882 105.835 75.7107 105.709 75.5843C105.582 75.458 105.411 75.3869 105.232 75.3867H101.728C101.549 75.3869 101.378 75.458 101.252 75.5843C101.125 75.7107 101.054 75.882 101.054 76.0606V79.565C101.054 79.7436 101.125 79.9149 101.252 80.0413C101.378 80.1676 101.549 80.2387 101.728 80.2389ZM105.232 75.6563C105.34 75.6564 105.442 75.699 105.518 75.7748C105.594 75.8506 105.637 75.9534 105.637 76.0606V79.565C105.637 79.6722 105.594 79.7749 105.518 79.8507C105.442 79.9265 105.34 79.9692 105.232 79.9693H101.728C101.621 79.9692 101.518 79.9265 101.442 79.8507C101.366 79.7749 101.324 79.6722 101.324 79.565V76.0606C101.324 75.9534 101.366 75.8506 101.442 75.7748C101.518 75.699 101.621 75.6564 101.728 75.6563H105.232Z" fill="#E6E6E6"/>
<path d="M95.604 38.5973H63.1735C61.6085 38.5973 60.0901 39.1297 58.8679 40.1071C57.6457 41.0844 56.7923 42.4486 56.4481 43.9752L40.0616 116.659C39.8829 117.451 39.8797 118.274 40.0524 119.068C40.225 119.862 40.5693 120.609 41.0611 121.256C41.5529 121.903 42.1802 122.434 42.8992 122.813C43.6181 123.192 44.4112 123.409 45.2229 123.449L78.5618 125.092C80.347 125.18 82.1032 124.615 83.5027 123.503C84.9022 122.392 85.8494 120.809 86.1676 119.05L95.463 67.6619L96.1546 67.8595L97.9332 58.1196L97.2213 57.9416L99.816 43.5974C99.9271 42.983 99.9014 42.3516 99.7405 41.7483C99.5797 41.1451 99.2877 40.5847 98.8855 40.1072C98.4832 39.6296 97.9806 39.2467 97.4134 38.9858C96.8462 38.7248 96.2284 38.5921 95.604 38.5973Z" fill="#3F3D56"/>
<path d="M67.4384 40.1646H63.6528C62.5656 40.1646 61.5111 40.5364 60.6644 41.2183C59.8177 41.9002 59.2297 42.8511 58.9979 43.9133L43.2691 116.004C43.1785 116.419 43.1786 116.848 43.2693 117.263C43.3601 117.679 43.5393 118.069 43.7948 118.408C44.0503 118.748 44.376 119.028 44.7498 119.23C45.1235 119.432 45.5364 119.551 45.9603 119.579L79.1913 121.757C80.1288 121.818 81.0562 121.532 81.7963 120.954C82.5365 120.375 83.0376 119.544 83.2042 118.619L96.6257 44.1069C96.7125 43.6247 96.6925 43.1292 96.567 42.6555C96.4415 42.1818 96.2135 41.7415 95.8992 41.3655C95.5849 40.9895 95.1919 40.6871 94.748 40.4796C94.3041 40.2721 93.82 40.1646 93.33 40.1646H89.7387C89.3911 40.1646 89.0532 40.2791 88.7773 40.4906C88.5015 40.702 88.303 40.9985 88.2126 41.3341C88.1328 41.6304 87.9576 41.8922 87.714 42.0788C87.4705 42.2655 87.1722 42.3666 86.8653 42.3666H69.8164C69.2155 42.3666 68.6368 42.1398 68.1959 41.7316C67.755 41.3233 67.4845 40.7637 67.4384 40.1646Z" fill="white"/>
<path d="M94.042 52.4189H57.9911L54.1505 69.7241L90.6724 70.398L94.042 52.4189Z" fill="#27A3A3"/>
<path d="M59.8086 85.1929H51.3212L51.0517 86.8177H59.539L59.8086 85.1929Z" fill="#27A3A3"/>
<path d="M52.9049 76.9047L88.9004 77.667L88.8968 77.8364L52.9013 77.0741L52.9049 76.9047Z" fill="#2F2E41"/>
<path d="M51.8016 81.9016L88.4746 82.7485L88.4707 82.9179L51.7977 82.071L51.8016 81.9016Z" fill="#2F2E41"/>
<path d="M56.3057 102.579H47.8183L47.5488 104.203H56.0361L56.3057 102.579Z" fill="#27A3A3"/>
<path d="M49.401 94.2905L85.3965 95.0527L85.3929 95.2221L49.3974 94.4599L49.401 94.2905Z" fill="#2F2E41"/>
<path d="M48.2967 99.2873L84.9697 100.134L84.9658 100.304L48.2928 99.4567L48.2967 99.2873Z" fill="#2F2E41"/>
<path d="M25.4227 99.4281C25.4196 99.1053 25.324 91.4874 23.2358 88.607L23.205 88.5645L15.9278 89.5684L16.0906 91.1673C15.7705 91.4786 13.2527 94.1095 12.5257 100.34L4.80163 121.085L8.3925 121.411L19.0221 98.7653L24.6473 123.381H28.207L25.4227 99.4281Z" fill="#2F2E41"/>
<path d="M24.0869 88.8867L23.3756 85.1521C23.5148 84.9729 24.1318 84.112 23.9945 83.1029C23.9049 82.4446 23.5119 81.8673 22.8262 81.3867L20.9824 77.0844L20.9575 77.0698C20.8334 76.9967 17.8976 75.2991 16.2972 76.9007C16.2572 76.9317 12.3166 80.0597 13.8991 84.2794L15.8525 90.1405L24.0869 88.8867Z" fill="#27A3A3"/>
<path d="M26.5588 93.9387C26.367 93.9168 26.1823 93.8531 26.0178 93.7521C25.8533 93.651 25.7129 93.5152 25.6065 93.354C25.5002 93.1929 25.4305 93.0104 25.4023 92.8194C25.3741 92.6284 25.3882 92.4336 25.4434 92.2486L21.6358 89.5052L23.9152 88.6382L27.1816 91.3763C27.4862 91.4897 27.7386 91.711 27.891 91.9981C28.0433 92.2852 28.0851 92.6182 28.0083 92.9341C27.9316 93.2499 27.7416 93.5267 27.4745 93.7118C27.2073 93.897 26.8815 93.9777 26.5588 93.9387Z" fill="#FFB6B6"/>
<path d="M25.8643 89.5015L20.0511 84.9214L21.7793 79.0169C21.8608 78.7373 21.8838 78.4439 21.8469 78.1551C21.8101 77.8662 21.7142 77.588 21.5652 77.3378C21.4272 77.1019 21.2415 76.8975 21.0199 76.7376C20.7983 76.5776 20.5458 76.4658 20.2785 76.4091C19.2833 76.1985 18.3799 76.7557 17.594 78.0655L17.588 78.0773C17.458 78.3952 14.4296 85.8814 16.742 87.4823C19.004 89.0483 24.2492 91.3279 24.302 91.3509L24.3635 91.3774L25.8643 89.5015Z" fill="#27A3A3"/>
<path d="M18.1376 75.3438C16.1928 75.3438 14.6161 73.7672 14.6161 71.8223C14.6161 69.8774 16.1928 68.3008 18.1376 68.3008C20.0825 68.3008 21.6592 69.8774 21.6592 71.8223C21.6592 73.7672 20.0825 75.3438 18.1376 75.3438Z" fill="#FFB6B6"/>
<path d="M12.6112 70.5657C10.8906 70.5657 9.49577 69.1709 9.49577 67.4504C9.49577 65.7298 10.8906 64.335 12.6112 64.335C14.3317 64.335 15.7266 65.7298 15.7266 67.4504C15.7266 69.1709 14.3317 70.5657 12.6112 70.5657Z" fill="#2F2E41"/>
<path d="M9.93119 70.0282C10.3344 70.3196 10.8016 70.5103 11.2936 70.5841C11.7856 70.658 12.2882 70.613 12.7592 70.4528C13.2302 70.2927 13.6561 70.022 14.0011 69.6635C14.3461 69.3051 14.6002 68.8692 14.7422 68.3923C14.6885 68.8197 14.5467 69.2312 14.3259 69.601C14.1051 69.9707 13.81 70.2907 13.4593 70.5407C13.1086 70.7906 12.7099 70.9652 12.2883 71.0533C11.8667 71.1414 11.4315 71.1411 11.01 71.0525C10.5885 70.9639 10.19 70.7889 9.83961 70.5385C9.4892 70.2881 9.19451 69.9678 8.97414 69.5978C8.75377 69.2277 8.61251 68.816 8.55929 68.3887C8.50606 67.9613 8.54202 67.5275 8.66489 67.1147C8.5951 67.6693 8.67585 68.2324 8.89865 68.7451C9.12146 69.2577 9.47811 69.7009 9.93119 70.0282Z" fill="#2F2E41"/>
<path d="M22.2256 70.0326C21.6817 69.0589 21.4736 68.6522 20.7724 68.0601C20.1522 67.5365 19.3895 67.3827 18.7742 67.8789C18.0464 67.5644 17.2366 67.4931 16.465 67.6755C15.6935 67.858 15.0013 68.2845 14.4914 68.8916C13.9816 69.4987 13.6811 70.2541 13.6347 71.0456C13.5884 71.8371 13.7985 72.6224 14.234 73.285C14.6695 73.9475 15.3071 74.4519 16.0521 74.7232C16.7971 74.9945 17.6097 75.0182 18.3693 74.7909C19.1288 74.5636 19.7948 74.0973 20.2683 73.4614C20.7417 72.8254 20.9974 72.0537 20.9973 71.2609C20.9968 71.1216 20.9884 70.9825 20.9722 70.8442C21.507 70.7691 21.6908 70.1077 22.2256 70.0326Z" fill="#2F2E41"/>
</g>
</g>
<defs>
<clipPath id="clip0_34_3433">
<path d="M0 8C0 3.58172 3.58172 0 8 0H112V111H8C3.58172 111 0 107.418 0 103V8Z" fill="white"/>
</clipPath>
</defs>
</svg>
