<svg width="36" height="36" viewBox="0 0 36 36" fill="none" xmlns="http://www.w3.org/2000/svg">
<rect width="36" height="36" rx="18" fill="#F2F4F7"/>
<path d="M23 10.0879C22.2522 10.0879 21.5045 10.3714 20.9378 10.9383L11.715 20.1603C11.54 20.3353 11.4119 20.5529 11.3439 20.7918L10.1077 25.1204C10.0773 25.2276 10.0759 25.3409 10.1039 25.4487C10.1319 25.5564 10.1882 25.6548 10.2669 25.7335C10.3457 25.8123 10.444 25.8686 10.5518 25.8966C10.6596 25.9245 10.7729 25.9232 10.88 25.8927L15.2095 24.6566L15.2103 24.6558C15.4476 24.5875 15.6647 24.461 15.8402 24.2855L25.0622 15.0627C26.196 13.9289 26.196 12.0721 25.0622 10.9383C24.4955 10.3714 23.7478 10.0879 23 10.0879ZM23 11.3306C23.4253 11.3306 23.8501 11.4945 24.1776 11.8221H24.1784C24.8346 12.4783 24.8346 13.5227 24.1784 14.1789L23.3703 14.987L21.0135 12.6302L21.8216 11.8221C22.1491 11.4945 22.5747 11.3306 23 11.3306ZM20.1297 13.514L22.4865 15.8708L14.9556 23.4017C14.9311 23.426 14.9002 23.4445 14.8652 23.4546L11.6182 24.3823L12.5459 21.1344V21.1336C12.5554 21.1 12.5729 21.07 12.5988 21.0441L20.1297 13.514Z" fill="#475467"/>
</svg>
