<svg width="33" height="38" viewBox="0 0 33 38" fill="none" xmlns="http://www.w3.org/2000/svg">
<path d="M3.9375 0.5C1.76663 0.5 0 2.26663 0 4.4375V31.5625C0 33.7334 1.76663 35.5 3.9375 35.5H23.625V29.9543C22.4884 30.4933 21.087 30.2934 20.1472 29.3528C19.5688 28.7744 19.25 28.0056 19.25 27.1875C19.25 26.3694 19.5688 25.6015 20.1472 25.0222L24.5222 20.6472C25.4305 19.739 26.8634 19.5533 28 20.0713V14.5H17.9375C15.7666 14.5 14 12.7334 14 10.5625V0.5H3.9375ZM16.625 1.26904V10.5625C16.625 11.2861 17.2139 11.875 17.9375 11.875H27.231L16.625 1.26904ZM26.6875 21.5C26.3515 21.5 26.0159 21.6281 25.7595 21.8845L21.3845 26.2595C20.8726 26.7723 20.8726 27.6027 21.3845 28.1155C21.8973 28.6282 22.7277 28.6282 23.2405 28.1155L25.375 25.981V35.9375C25.375 36.6629 25.9621 37.25 26.6875 37.25C27.4129 37.25 28 36.6629 28 35.9375V25.981L30.1345 28.1155C30.6473 28.6282 31.4777 28.6282 31.9905 28.1155C32.5032 27.6036 32.5032 26.7714 31.9905 26.2595L27.6155 21.8845C27.36 21.6281 27.0235 21.5 26.6875 21.5Z" fill="#475467"/>
</svg>
