<svg width="36" height="36" viewBox="0 0 36 36" fill="none" xmlns="http://www.w3.org/2000/svg">
<rect width="36" height="36" rx="8" fill="#FFF4D3"/>
<path d="M15.25 10.5002H10.75C9.785 10.5002 9 11.2852 9 12.2502V16.7502C9 17.7152 9.785 18.5002 10.75 18.5002H15.25C16.215 18.5002 17 17.7152 17 16.7502V12.2502C17 11.2852 16.215 10.5002 15.25 10.5002ZM15.25 19.5002H10.75C9.785 19.5002 9 20.2852 9 21.2502V25.7502C9 26.7152 9.785 27.5002 10.75 27.5002H15.25C16.215 27.5002 17 26.7152 17 25.7502V21.2502C17 20.2852 16.215 19.5002 15.25 19.5002ZM24.25 19.5002H19.75C18.785 19.5002 18 20.2852 18 21.2502V25.7502C18 26.7152 18.785 27.5002 19.75 27.5002H24.25C25.215 27.5002 26 26.7152 26 25.7502V21.2502C26 20.2852 25.215 19.5002 24.25 19.5002ZM27.4195 12.2627L24.2375 9.08072C23.555 8.39822 22.4455 8.39822 21.763 9.08072L18.581 12.2627C17.899 12.9447 17.899 14.0552 18.581 14.7372L21.7635 17.9197C22.1045 18.2602 22.552 18.4302 23.0005 18.4302C23.4485 18.4302 23.8965 18.2597 24.238 17.9192L27.42 14.7372C28.1015 14.0552 28.1015 12.9452 27.4195 12.2627Z" fill="#1F2228"/>
</svg>
