<svg width="180" height="145" viewBox="0 0 180 145" fill="none" xmlns="http://www.w3.org/2000/svg">
<g clip-path="url(#clip0_217_1346)">
<path d="M159.758 83.2287V80.0971H157.131C156.941 79.2048 156.588 78.3736 156.106 77.6306L157.962 75.7747L155.746 73.5592L153.889 75.4151C153.146 74.9367 152.314 74.5838 151.422 74.3904V71.7644H148.289V74.3904C147.396 74.5804 146.565 74.9333 145.822 75.4151L143.965 73.5592L141.749 75.7747L143.605 77.6306C143.127 78.3736 142.774 79.2048 142.58 80.0971H139.953V83.2287H142.58C142.77 84.121 143.123 84.9522 143.605 85.6952L141.749 87.5511L143.965 89.7666L145.822 87.9107C146.565 88.3891 147.396 88.742 148.289 88.9354V91.5614H151.422V88.9354C152.314 88.7454 153.146 88.3925 153.889 87.9107L155.746 89.7666L157.962 87.5511L156.106 85.6952C156.584 84.9522 156.937 84.121 157.131 83.2287H159.758ZM149.857 85.3797C147.804 85.3797 146.137 83.7138 146.137 81.6612C146.137 79.6086 147.804 77.9427 149.857 77.9427C151.911 77.9427 153.577 79.6086 153.577 81.6612C153.577 83.7138 151.911 85.3797 149.857 85.3797Z" stroke="white" stroke-opacity="0.15" stroke-width="0.310498" stroke-miterlimit="10"/>
<path d="M121.968 120.736V117.604H119.341C119.151 116.712 118.798 115.88 118.316 115.137L120.172 113.282L117.956 111.066L116.099 112.922C115.356 112.444 114.524 112.091 113.632 111.897V109.271H110.499V111.897C109.606 112.087 108.775 112.44 108.032 112.922L106.175 111.066L103.959 113.282L105.815 115.137C105.337 115.88 104.984 116.712 104.79 117.604H102.163V120.736H104.79C104.98 121.628 105.333 122.459 105.815 123.202L103.959 125.058L106.175 127.273L108.032 125.418C108.775 125.896 109.606 126.249 110.499 126.442V129.068H113.632V126.442C114.524 126.252 115.356 125.899 116.099 125.418L117.956 127.273L120.172 125.058L118.316 123.202C118.794 122.459 119.147 121.628 119.341 120.736H121.968ZM112.067 122.887C110.014 122.887 108.347 121.221 108.347 119.168C108.347 117.115 110.014 115.45 112.067 115.45C114.121 115.45 115.787 117.115 115.787 119.168C115.787 121.221 114.121 122.887 112.067 122.887Z" stroke="white" stroke-opacity="0.15" stroke-width="0.310498" stroke-miterlimit="10"/>
<path d="M105.155 9.07573V6.75505H103.21C103.067 6.09345 102.806 5.47936 102.453 4.92972L103.828 3.55564L102.188 1.91692L100.814 3.291C100.264 2.93476 99.6496 2.6769 98.9877 2.53441V0.590332H96.6661V2.53441C96.0043 2.6769 95.3899 2.93815 94.8401 3.291L93.4655 1.91692L91.8261 3.55564L93.2007 4.92972C92.8444 5.47936 92.5864 6.09345 92.4439 6.75505H90.499V9.07573H92.4439C92.5864 9.73732 92.8478 10.3514 93.2007 10.9011L91.8261 12.2751L93.4655 13.9139L94.8401 12.5398C95.3899 12.896 96.0043 13.1539 96.6661 13.2964V15.2404H98.9877V13.2964C99.6496 13.1539 100.264 12.8926 100.814 12.5398L102.188 13.9139L103.828 12.2751L102.453 10.9011C102.809 10.3514 103.067 9.73732 103.21 9.07573H105.155ZM97.8269 10.6703C96.3064 10.6703 95.0709 9.43875 95.0709 7.91539C95.0709 6.39202 96.303 5.16043 97.8269 5.16043C99.3509 5.16043 100.583 6.39202 100.583 7.91539C100.583 9.43875 99.3509 10.6703 97.8269 10.6703Z" stroke="white" stroke-opacity="0.15" stroke-width="0.310498" stroke-miterlimit="10"/>
<path d="M53.4685 66.8287H16.6898C14.4938 66.8287 12.7119 65.0475 12.7119 62.8523C12.7119 60.6572 14.4938 58.876 16.6898 58.876H53.4685C55.6645 58.876 57.4464 60.6572 57.4464 62.8523C57.4464 65.0475 55.6645 66.8287 53.4685 66.8287Z" fill="white" fill-opacity="0.15"/>
<path d="M70.3528 76.7894H33.2825C31.0693 76.7894 29.2734 75.3468 29.2734 73.569C29.2734 71.7912 31.0693 70.3486 33.2825 70.3486H70.3494C72.5626 70.3486 74.3585 71.7912 74.3585 73.569C74.3585 75.3468 72.5626 76.7894 70.3494 76.7894H70.3528Z" fill="white" fill-opacity="0.15"/>
</g>
<g clip-path="url(#clip1_217_1346)">
<path d="M53.5456 28.4127L53.9016 28.3479L52.044 29.6438V33.5315C52.044 34.4225 51.3474 35.1514 50.496 35.1514H47.6786C47.0904 35.1514 46.626 34.6493 46.626 34.0499C46.626 33.7259 46.7653 33.4182 46.9975 33.2076L50.883 29.7248C51.6415 29.0283 52.5703 28.5747 53.5456 28.4127Z" fill="#27A3A3" fill-opacity="0.29"/>
<path d="M59.6298 48.5966H48.1745C47.06 48.5966 46.1621 47.6571 46.1621 46.4908V37.5814C46.1621 37.306 46.3634 37.0954 46.6265 37.0954C46.8897 37.0954 47.0909 37.306 47.0909 37.5814V46.4908C47.0909 47.1225 47.5708 47.6247 48.1745 47.6247H59.6298C60.2335 47.6247 60.7134 47.1225 60.7134 46.4908V30.2919C60.7134 29.6601 60.2335 29.158 59.6298 29.158H53.5925C52.9888 29.158 52.5089 29.6601 52.5089 30.2919V33.5317C52.5089 34.698 51.6111 35.6375 50.4965 35.6375H47.6792C46.8432 35.6375 46.1621 34.9248 46.1621 34.05C46.1621 33.5803 46.3633 33.1429 46.6884 32.8351L49.5677 30.2433C49.769 30.0651 50.0631 30.0975 50.2179 30.2919C50.3882 30.5025 50.3572 30.8103 50.1714 30.9722L47.2922 33.5641C47.1683 33.6937 47.0909 33.8556 47.0909 34.05C47.0909 34.3902 47.3541 34.6656 47.6792 34.6656H50.4965C51.1002 34.6656 51.5801 34.1634 51.5801 33.5317V30.2919C51.5801 29.1256 52.478 28.186 53.5925 28.186H59.6298C60.7443 28.186 61.6422 29.1256 61.6422 30.2919V46.4908C61.6422 47.6571 60.7443 48.5966 59.6298 48.5966Z" fill="#27A3A3" fill-opacity="0.29"/>
<path d="M56.9972 38.8767H50.8052C50.5421 38.8767 50.3408 38.6661 50.3408 38.3908C50.3408 38.1154 50.5421 37.9048 50.8052 37.9048H56.9972C57.2604 37.9048 57.4616 38.1154 57.4616 38.3908C57.4616 38.6661 57.2604 38.8767 56.9972 38.8767Z" fill="#27A3A3" fill-opacity="0.29"/>
<path d="M56.9972 41.3062H50.8052C50.5421 41.3062 50.3408 41.0956 50.3408 40.8202C50.3408 40.5448 50.5421 40.3342 50.8052 40.3342H56.9972C57.2604 40.3342 57.4616 40.5448 57.4616 40.8202C57.4616 41.0956 57.2604 41.3062 56.9972 41.3062Z" fill="#27A3A3" fill-opacity="0.29"/>
<path d="M56.9972 43.7366H50.8052C50.5421 43.7366 50.3408 43.526 50.3408 43.2506C50.3408 42.9752 50.5421 42.7646 50.8052 42.7646H56.9972C57.2604 42.7646 57.4616 42.9752 57.4616 43.2506C57.4616 43.526 57.2604 43.7366 56.9972 43.7366Z" fill="#27A3A3" fill-opacity="0.29"/>
</g>
<path d="M35.4942 104.667H15.4389C13.8344 104.667 12.542 103.455 12.542 101.951V89.4165C12.542 87.9124 13.8344 86.7007 15.4389 86.7007H35.4942C37.0987 86.7007 38.3911 87.9124 38.3911 89.4165V101.951C38.3911 103.455 37.0987 104.667 35.4942 104.667ZM15.4389 87.9541C14.5698 87.9541 13.879 88.6018 13.879 89.4165V101.951C13.879 102.766 14.5698 103.413 15.4389 103.413H35.4942C36.3633 103.413 37.0541 102.766 37.0541 101.951V89.4165C37.0541 88.6018 36.3633 87.9541 35.4942 87.9541H15.4389Z" fill="#27A3A3" fill-opacity="0.29"/>
<path d="M13.2105 93.1754C13.0322 93.1754 12.854 93.1127 12.7425 92.9874C12.6088 92.8829 12.542 92.7158 12.542 92.5486C12.542 92.5069 12.542 92.4651 12.5643 92.4233C12.5643 92.3815 12.5866 92.3397 12.6088 92.298C12.6311 92.2562 12.6534 92.2353 12.6757 92.1935C12.698 92.1517 12.7203 92.1308 12.7648 92.1099C12.8094 92.089 12.8317 92.0473 12.854 92.0264C12.8985 92.0055 12.9208 91.9846 12.9654 91.9637C13.01 91.9428 13.0545 91.9428 13.0991 91.9219C13.1882 91.901 13.2774 91.901 13.3665 91.9219C13.4111 91.9219 13.4556 91.9428 13.5002 91.9637C13.5448 91.9846 13.5893 92.0055 13.6116 92.0264C13.6562 92.0473 13.6785 92.0682 13.7007 92.1099C13.723 92.1308 13.7676 92.1726 13.7899 92.1935C13.8122 92.2353 13.8344 92.2562 13.8567 92.298C13.879 92.3397 13.879 92.3815 13.9013 92.4233C13.9013 92.4651 13.9236 92.5069 13.9236 92.5486C13.9236 92.7158 13.8567 92.8829 13.723 92.9874C13.7007 93.0083 13.6562 93.05 13.6339 93.0709C13.5893 93.0918 13.567 93.1127 13.5225 93.1336C13.4779 93.1545 13.4333 93.1545 13.3888 93.1754C13.2996 93.1754 13.2551 93.1754 13.2105 93.1754Z" fill="#27A3A3" fill-opacity="0.29"/>
<path d="M18.8875 90.6328C18.4266 90.6328 17.9845 90.8159 17.6585 91.1419C17.3325 91.4679 17.1494 91.91 17.1494 92.3709C17.1494 92.8319 17.3325 93.274 17.6585 93.6C17.9845 93.926 18.4266 94.1091 18.8875 94.1091C19.3485 94.1091 19.7906 93.926 20.1166 93.6C20.4426 93.274 20.6257 92.8319 20.6257 92.3709C20.6257 91.91 20.4426 91.4679 20.1166 91.1419C19.7906 90.8159 19.3485 90.6328 18.8875 90.6328Z" fill="#27A3A3" fill-opacity="0.29"/>
<rect x="17.1494" y="95.8918" width="8.31926" height="1.18847" rx="0.594233" fill="#27A3A3" fill-opacity="0.29"/>
<rect x="17.1494" y="98.2688" width="14.2616" height="1.18847" rx="0.594233" fill="#27A3A3" fill-opacity="0.29"/>
<rect x="17.1494" y="100.646" width="16.0443" height="1.18847" rx="0.594233" fill="#27A3A3" fill-opacity="0.29"/>
<g clip-path="url(#clip2_217_1346)">
<path d="M135.336 12.9423H126.554C126.215 12.9423 125.955 12.6829 125.955 12.3436C125.955 12.0043 126.215 11.7448 126.554 11.7448H135.336C135.675 11.7448 135.935 12.0043 135.935 12.3436C135.935 12.6829 135.675 12.9423 135.336 12.9423ZM133.34 6.95462H128.55C128.21 6.95462 127.951 6.69515 127.951 6.35585C127.951 6.01655 128.21 5.75708 128.55 5.75708H133.34C133.679 5.75708 133.939 6.01655 133.939 6.35585C133.939 6.69515 133.679 6.95462 133.34 6.95462ZM135.336 15.9362H126.554C126.215 15.9362 125.955 15.6767 125.955 15.3374C125.955 14.9981 126.215 14.7386 126.554 14.7386H135.336C135.675 14.7386 135.935 14.9981 135.935 15.3374C135.935 15.6767 135.675 15.9362 135.336 15.9362ZM132.382 18.93H126.594C126.254 18.93 125.995 18.6706 125.995 18.3313C125.995 17.992 126.254 17.7325 126.594 17.7325H132.382C132.721 17.7325 132.981 17.992 132.981 18.3313C132.981 18.6706 132.721 18.93 132.382 18.93ZM135.336 18.93C135.296 18.93 135.256 18.93 135.216 18.9101C135.176 18.9101 135.136 18.8901 135.096 18.8702C135.056 18.8502 135.036 18.8302 134.997 18.8103C134.957 18.7903 134.937 18.7704 134.917 18.7304C134.797 18.6506 134.737 18.4909 134.737 18.3313C134.737 18.1716 134.797 18.0119 134.917 17.9121C134.937 17.8922 134.977 17.8522 134.997 17.8323C135.036 17.8123 135.056 17.7924 135.096 17.7724C135.136 17.7524 135.176 17.7524 135.216 17.7325C135.416 17.6926 135.615 17.7524 135.755 17.8922C135.875 18.0119 135.935 18.1516 135.935 18.3113C135.935 18.471 135.875 18.6306 135.755 18.7304C135.655 18.8702 135.495 18.93 135.336 18.93Z" fill="#27A3A3" fill-opacity="0.29"/>
<path d="M124.559 24.9176H137.332C138.769 24.9176 139.927 23.76 139.927 22.3229V4.35981C139.927 2.92276 138.769 1.76514 137.332 1.76514H124.559C123.121 1.76514 121.964 2.92276 121.964 4.35981V22.3229C121.964 23.76 123.121 24.9176 124.559 24.9176ZM123.161 4.35981C123.161 3.58141 123.78 2.96268 124.559 2.96268H137.332C138.111 2.96268 138.729 3.58141 138.729 4.35981V22.3229C138.729 23.1013 138.111 23.7201 137.332 23.7201H124.559C123.78 23.7201 123.161 23.1013 123.161 22.3229V4.35981Z" fill="#27A3A3" fill-opacity="0.29"/>
</g>
<path d="M79.0441 22.4725C78.9176 22.4725 78.7752 22.4092 78.6804 22.3144L74.3002 17.191L69.92 22.3144C69.7461 22.5199 69.4456 22.5357 69.2559 22.3618C69.0503 22.1879 69.0345 21.8874 69.2085 21.6977L73.9523 16.1632C74.0472 16.0525 74.1737 16.005 74.316 16.005C74.4583 16.005 74.5848 16.0683 74.6797 16.1632L79.4236 21.6977C79.5975 21.9032 79.5659 22.2037 79.3761 22.3618C79.2654 22.4409 79.1547 22.4725 79.0441 22.4725ZM80.151 20.4168C80.0086 20.4168 79.8663 20.3536 79.7714 20.2271L77.4628 17.2542L77.3679 17.3807C77.2098 17.5863 76.9093 17.6337 76.7038 17.4756C76.4982 17.3175 76.4507 17.017 76.6089 16.8115L77.0833 16.179C77.1781 16.0683 77.3046 15.9892 77.4628 15.9892C77.6051 15.9892 77.7474 16.0525 77.8423 16.179L80.5305 19.6578C80.6886 19.8634 80.657 20.1638 80.4514 20.3219C80.3565 20.3852 80.2458 20.4168 80.151 20.4168ZM78.0953 13.7754C76.9568 13.7754 76.0396 12.8583 76.0396 11.7197C76.0396 10.5812 76.9568 9.66406 78.0953 9.66406C79.2338 9.66406 80.151 10.5812 80.151 11.7197C80.151 12.8583 79.2338 13.7754 78.0953 13.7754ZM78.0953 10.6128C77.4786 10.6128 76.9884 11.103 76.9884 11.7197C76.9884 12.3364 77.4786 12.8266 78.0953 12.8266C78.712 12.8266 79.2022 12.3364 79.2022 11.7197C79.2022 11.103 78.712 10.6128 78.0953 10.6128Z" fill="#27A3A3" fill-opacity="0.29"/>
<path d="M69.5564 17.7282C69.8252 17.7282 70.0308 17.5226 70.0308 17.2538V6.18482C70.0308 5.56812 70.521 5.07792 71.1377 5.07792H79.2023V6.18482C79.2023 7.32335 80.1194 8.2405 81.2579 8.2405H82.3648V20.4164C82.3648 21.0331 81.8746 21.5233 81.2579 21.5233C80.9891 21.5233 80.7836 21.7289 80.7836 21.9977C80.7836 22.2665 80.9891 22.4721 81.2579 22.4721C82.3965 22.4721 83.3136 21.5549 83.3136 20.4164V7.76611C83.3136 5.75788 81.6849 4.12915 79.6767 4.12915H71.1377C69.9992 4.12915 69.082 5.0463 69.082 6.18482V17.2538C69.082 17.5226 69.2876 17.7282 69.5564 17.7282ZM82.3174 7.29172H81.2579C80.6412 7.29172 80.151 6.80153 80.151 6.18482V5.12536C81.2579 5.31512 82.1276 6.18482 82.3174 7.29172Z" fill="#27A3A3" fill-opacity="0.29"/>
<g clip-path="url(#clip3_217_1346)">
<path d="M143.621 66.2238L140.597 63.1845C140.107 62.6952 139.307 62.6952 138.818 63.1845L135.007 67.0095C134.859 67.1578 134.637 67.1578 134.488 67.0095L133.302 65.8235C133.065 65.5863 132.754 65.4528 132.413 65.4528C132.072 65.4528 131.76 65.5863 131.523 65.8235L130.826 66.5203C130.545 66.802 130.396 67.1578 130.396 67.5433V68.8331C130.396 69.9006 131.256 70.7605 132.324 70.7605H142.109C143.176 70.7605 144.036 69.9006 144.036 68.8331V67.2319C144.051 66.8613 143.903 66.4906 143.621 66.2238ZM143.606 64.5484C143.354 64.5484 143.162 64.3557 143.162 64.1037V60.9902C143.162 60.7382 143.354 60.5455 143.606 60.5455C143.858 60.5455 144.051 60.7382 144.051 60.9902V64.1037C144.051 64.3557 143.858 64.5484 143.606 64.5484ZM130.856 64.845C130.604 64.845 130.411 64.6522 130.411 64.4002V54.6151C130.411 53.5476 131.271 52.6877 132.339 52.6877H138.862C139.114 52.6877 139.307 52.8805 139.307 53.1325C139.307 53.3846 139.114 53.5773 138.862 53.5773H132.339C131.76 53.5773 131.301 54.0369 131.301 54.6151V64.4002C131.301 64.6522 131.108 64.845 130.856 64.845Z" fill="#27A3A3" fill-opacity="0.29"/>
<path d="M135.11 58.4104C134.946 58.4104 134.784 58.4426 134.633 58.5052C134.482 58.5678 134.345 58.6595 134.229 58.7752C134.113 58.8908 134.022 59.0281 133.959 59.1792C133.896 59.3303 133.864 59.4922 133.864 59.6558C133.864 59.8193 133.896 59.9813 133.959 60.1324C134.022 60.2835 134.113 60.4207 134.229 60.5364C134.345 60.652 134.482 60.7438 134.633 60.8063C134.784 60.8689 134.946 60.9011 135.11 60.9011C135.273 60.9011 135.435 60.8689 135.586 60.8063C135.737 60.7438 135.875 60.652 135.99 60.5364C136.106 60.4207 136.198 60.2835 136.26 60.1324C136.323 59.9813 136.355 59.8193 136.355 59.6558C136.355 59.4922 136.323 59.3303 136.26 59.1792C136.198 59.0281 136.106 58.8908 135.99 58.7752C135.875 58.6595 135.737 58.5678 135.586 58.5052C135.435 58.4426 135.273 58.4104 135.11 58.4104Z" fill="#27A3A3" fill-opacity="0.29"/>
<path d="M140.641 55.6529C140.641 54.0221 141.975 52.6877 143.606 52.6877C144.377 52.6877 145.088 52.9843 145.607 53.4735C145.667 53.5328 145.504 53.6218 145.474 53.7107C145.459 53.7997 145.578 53.9035 145.622 53.9628C145.681 54.0369 145.845 54.2 145.978 54.2296C146.067 54.2445 146.141 54.1259 146.156 54.1703C146.408 54.6003 146.556 55.1192 146.556 55.6529C146.556 57.2838 145.222 58.6181 143.591 58.6181C141.96 58.6181 140.641 57.2838 140.641 55.6529Z" fill="#27A3A3" fill-opacity="0.29"/>
<path d="M145.607 53.4734L143.62 55.6973L142.909 54.7781C142.76 54.5853 142.479 54.5557 142.286 54.7039C142.093 54.8522 142.064 55.1339 142.212 55.3266L143.25 56.661C143.324 56.7647 143.457 56.824 143.591 56.8389H143.606C143.739 56.8389 143.858 56.7796 143.932 56.6906L146.17 54.1702C146.022 53.9182 145.829 53.681 145.607 53.4734Z" fill="#27A3A3" fill-opacity="0.29"/>
</g>
<g clip-path="url(#clip4_217_1346)">
<path d="M43.1948 112.176C43.1948 112.176 43.2426 105.882 39.2576 101.163C35.7269 96.9839 33.85 94.3329 34.9658 93.1106C36.0816 91.8882 38.4646 91.5945 41.6885 94.9718C44.9124 98.3491 45.1634 107.719 44.7171 109.838L43.1908 112.176H43.1948Z" fill="#27A3A3"/>
<path opacity="0.2" d="M43.1948 112.176C43.1948 112.176 43.2426 105.882 39.2576 101.163C35.7269 96.9839 33.85 94.3329 34.9658 93.1106C36.0816 91.8882 38.4646 91.5945 41.6885 94.9718C44.9124 98.3491 45.1634 107.719 44.7171 109.838L43.1908 112.176H43.1948Z" fill="black"/>
<path d="M43.8828 105.41C43.7912 105.41 43.7075 105.347 43.6876 105.252C42.2928 98.7549 38.7103 95.1633 36.7018 93.5997C36.6142 93.5322 36.5982 93.4092 36.666 93.3219C36.7337 93.2346 36.8573 93.2187 36.9449 93.2862C38.9972 94.8816 42.6554 98.5486 44.0741 105.168C44.098 105.275 44.0303 105.383 43.9227 105.402C43.9067 105.402 43.8948 105.406 43.8828 105.406V105.41Z" fill="white"/>
<path d="M43.0597 114.517L41.4418 115.45C41.4418 115.45 41.0274 114.001 39.258 113.589C37.4887 113.176 35.6436 113.259 34.4043 111.727C33.165 110.195 34.6753 108.533 34.4043 107.402C34.1333 106.274 33.954 105.949 31.7343 104.822C29.5107 103.695 28.634 101.826 30.3077 100.556C31.9814 99.2857 34.6992 100.218 36.333 101.33C37.7915 102.322 39.1783 102.584 40.8082 102.782C42.4341 102.98 45.0921 103.889 44.6856 107.656C44.2791 111.426 43.0677 114.513 43.0677 114.513L43.0597 114.517Z" fill="#27A3A3"/>
<path d="M36.8301 109.557C36.7464 109.557 36.6667 109.505 36.6388 109.418C36.607 109.315 36.6627 109.199 36.7664 109.168C36.9138 109.12 40.3608 108.037 41.8193 109.203C41.907 109.271 41.919 109.398 41.8512 109.481C41.7835 109.568 41.6559 109.58 41.5723 109.513C40.2811 108.481 36.9258 109.537 36.8899 109.549C36.87 109.557 36.85 109.557 36.8301 109.557Z" fill="white"/>
<path d="M43.2429 114.212C43.1433 114.212 43.0556 114.136 43.0436 114.033C42.155 105.675 32.045 101.711 31.9454 101.671C31.8418 101.631 31.79 101.516 31.8298 101.413C31.8697 101.31 31.9853 101.258 32.0889 101.298C32.1925 101.337 42.5296 105.389 43.4421 113.989C43.4541 114.097 43.3744 114.196 43.2668 114.208C43.2588 114.208 43.2508 114.208 43.2469 114.208L43.2429 114.212Z" fill="white"/>
<path d="M142.363 109.019C142.41 108.885 144.116 100.118 142.363 93.9029C140.753 88.204 138.688 86.1006 135.724 85.6363C132.759 85.172 131.472 87.2992 133.046 90.1764C134.62 93.0576 138.405 96.8834 139.338 103.32C139.72 105.972 140.039 108.273 140.039 108.273L142.359 109.019H142.363Z" fill="#27A3A3"/>
<path opacity="0.2" d="M142.363 109.019C142.41 108.885 144.116 100.118 142.363 93.9029C140.753 88.204 138.688 86.1006 135.724 85.6363C132.759 85.172 131.472 87.2992 133.046 90.1764C134.62 93.0576 138.405 96.8834 139.338 103.32C139.72 105.972 140.039 108.273 140.039 108.273L142.359 109.019H142.363Z" fill="black"/>
<path d="M141.36 103.988C141.36 103.988 141.352 103.988 141.348 103.988C141.237 103.98 141.153 103.889 141.161 103.777C141.567 96.6815 139.232 90.3476 135.06 87.2401C134.972 87.1727 134.952 87.0496 135.02 86.9623C135.084 86.875 135.211 86.8552 135.299 86.9227C139.575 90.1055 141.974 96.5704 141.559 103.797C141.555 103.904 141.464 103.984 141.36 103.984V103.988Z" fill="white"/>
<path d="M146.948 113.584C146.721 111.953 147.661 109.509 149.897 108.929C152.132 108.354 153.129 107.072 152.324 105.675C151.515 104.278 151.706 102.996 153.734 102.417C155.763 101.837 157.54 100.821 156.372 98.6941C155.524 97.1503 155.336 96.1542 157.416 93.1103C159.142 90.5862 157.731 89.1059 155.571 89.3877C153.412 89.6695 152.077 92.2253 150.73 92.6578C149.383 93.0904 149.064 90.7966 147.283 91.8205C145.501 92.8444 145.613 95.4676 145.553 97.2972C145.497 99.1267 145.378 99.5394 143.768 99.3172C142.158 99.0949 140.584 99.3569 140.616 103.234C140.644 106.56 142.425 110.679 142.425 110.679L146.948 113.584Z" fill="#27A3A3"/>
<path d="M144.123 111.103C144.123 111.103 144.107 111.103 144.099 111.103C143.992 111.091 143.912 110.992 143.924 110.885C145.048 100.884 153.663 92.4547 155.911 90.7442C155.999 90.6767 156.122 90.6926 156.19 90.7799C156.258 90.8672 156.242 90.9902 156.154 91.0577C153.938 92.7444 145.43 101.067 144.323 110.929C144.311 111.032 144.223 111.103 144.123 111.103Z" fill="white"/>
<path d="M148.053 100.42C147.973 100.42 147.897 100.373 147.866 100.289C147.826 100.186 147.881 100.071 147.981 100.035C151.197 98.8447 154.835 99.4043 154.991 99.4281C155.098 99.444 155.174 99.5472 155.154 99.6543C155.138 99.7615 155.031 99.8329 154.927 99.821C154.891 99.8131 151.233 99.2535 148.121 100.404C148.097 100.412 148.073 100.416 148.053 100.416V100.42Z" fill="white"/>
<path d="M145.191 106.425C145.135 106.425 145.079 106.401 145.043 106.357C142.899 103.94 142.437 101.055 142.417 100.932C142.401 100.825 142.477 100.722 142.585 100.706C142.696 100.69 142.796 100.765 142.812 100.872C142.816 100.9 143.278 103.766 145.342 106.095C145.414 106.178 145.406 106.301 145.326 106.377C145.29 106.409 145.243 106.425 145.195 106.425H145.191Z" fill="white"/>
<path d="M43.0586 53.0914V114.518L106.189 78.2208V22.3743L59.2457 49.3649L57.6277 44.7137L43.0586 53.0914Z" fill="#27A3A3"/>
<path opacity="0.7" d="M43.0586 53.0914V114.518L106.189 78.2208V22.3743L59.2457 49.3649L57.6277 44.7137L43.0586 53.0914Z" fill="black"/>
<path d="M43.0566 114.518L46.2964 58.6753L109.427 22.3743L106.187 78.2208L43.0566 114.518Z" fill="#E0E0E0"/>
<path d="M43.0566 114.518L47.9144 59.6037L111.045 23.3066L106.187 78.2205L43.0566 114.518Z" fill="#27A3A3"/>
<path opacity="0.7" d="M43.0566 114.518L47.9144 59.6037L111.045 23.3066L106.187 78.2205L43.0566 114.518Z" fill="black"/>
<path d="M52.7705 58.6732V120.1L115.901 83.8026V27.9561L68.9576 54.9507L67.3397 50.2955L52.7705 58.6732Z" fill="#27A3A3"/>
<path opacity="0.5" d="M52.7705 58.6732V120.1L115.901 83.8026V27.9561L68.9576 54.9507L67.3397 50.2955L52.7705 58.6732Z" fill="black"/>
<path d="M52.7715 120.1L56.0073 64.2571L119.138 27.9561L115.902 83.8026L52.7715 120.1Z" fill="#E0E0E0"/>
<path d="M52.7705 120.1L57.6242 65.1865L120.755 28.8894L115.901 83.8033L52.7705 120.1Z" fill="#27A3A3"/>
<path opacity="0.5" d="M52.7705 120.1L57.6242 65.1865L120.755 28.8894L115.901 83.8033L52.7705 120.1Z" fill="black"/>
<path d="M106.192 139.645C94.8622 133.129 84.3498 126.049 79.5479 117.735L94.117 109.357L106.192 139.645Z" fill="#E0E0E0"/>
<path d="M64.1074 65.1878V126.618L127.238 90.3172V34.4746L80.2945 61.4652L78.6766 56.814L64.1074 65.1878Z" fill="#27A3A3"/>
<path opacity="0.2" d="M64.1074 65.1878V126.618L127.238 90.3172V34.4746L80.2945 61.4652L78.6766 56.814L64.1074 65.1878Z" fill="black"/>
<path d="M82.2907 83.3517C82.1313 83.3517 82.1074 83.1691 82.1074 83.058V30.6642C82.1074 30.2951 82.3784 29.8308 82.6972 29.6443L128.262 3.44735C128.337 3.40369 128.409 3.37988 128.469 3.37988C128.628 3.37988 128.652 3.56244 128.652 3.67356V56.0674C128.652 56.4365 128.381 56.9008 128.062 57.0873L82.4979 83.2842C82.4222 83.3279 82.3505 83.3517 82.2907 83.3517Z" fill="white"/>
<path d="M128.444 3.5815C128.444 3.5815 128.456 3.62912 128.456 3.67277V56.0666C128.456 56.3603 128.221 56.7651 127.966 56.9119L82.4014 83.1088C82.3655 83.1286 82.3376 83.1406 82.3177 83.1445C82.3137 83.1247 82.3097 83.0969 82.3097 83.0532V30.6634C82.3097 30.3697 82.5448 29.9649 82.7999 29.8181L128.36 3.61721C128.396 3.59737 128.424 3.58546 128.444 3.5815ZM128.468 3.18066C128.376 3.18066 128.269 3.21241 128.161 3.27591L82.5966 29.4728C82.2141 29.6911 81.9072 30.2269 81.9072 30.6634V83.0572C81.9072 83.3668 82.0626 83.5493 82.2898 83.5493C82.3814 83.5493 82.489 83.5176 82.5966 83.4541L128.161 57.2572C128.544 57.0389 128.85 56.5031 128.85 56.0666V3.67277C128.85 3.35925 128.695 3.18066 128.468 3.18066Z" fill="#27A3A3"/>
<path opacity="0.7" d="M128.444 3.5815C128.444 3.5815 128.456 3.62912 128.456 3.67277V56.0666C128.456 56.3603 128.221 56.7651 127.966 56.9119L82.4014 83.1088C82.3655 83.1286 82.3376 83.1406 82.3177 83.1445C82.3137 83.1247 82.3097 83.0969 82.3097 83.0532V30.6634C82.3097 30.3697 82.5448 29.9649 82.7999 29.8181L128.36 3.61721C128.396 3.59737 128.424 3.58546 128.444 3.5815ZM128.468 3.18066C128.376 3.18066 128.269 3.21241 128.161 3.27591L82.5966 29.4728C82.2141 29.6911 81.9072 30.2269 81.9072 30.6634V83.0572C81.9072 83.3668 82.0626 83.5493 82.2898 83.5493C82.3814 83.5493 82.489 83.5176 82.5966 83.4541L128.161 57.2572C128.544 57.0389 128.85 56.5031 128.85 56.0666V3.67277C128.85 3.35925 128.695 3.18066 128.468 3.18066Z" fill="white"/>
<path d="M86.7686 32.6602L102.956 23.3538V41.9706L86.7686 51.277V32.6602Z" fill="#27A3A3"/>
<path opacity="0.8" d="M86.7686 32.6602L102.956 23.3538V41.9706L86.7686 51.277V32.6602Z" fill="white"/>
<path d="M100.523 28.01V33.5939L100.017 33.8756V32.1652C100.017 31.2206 99.2435 30.8992 98.2911 31.4468L91.425 35.3956C90.4725 35.9433 89.6995 37.1537 89.6995 38.0983V39.8087L89.1934 40.1104V34.5265L100.523 28.01Z" fill="white"/>
<path d="M97.4026 42.2421C96.5738 42.7184 95.9003 42.2183 95.9003 41.123V32.1658L93.8201 33.2929V42.3175C93.8201 43.4129 93.1467 44.6908 92.3178 45.167L90.8154 46.0322V46.6235L98.909 41.9683V41.377C98.909 41.377 98.2355 41.7659 97.4066 42.2421H97.4026Z" fill="white"/>
<path d="M106.189 22.4241C106.189 22.94 106.652 23.0869 107.226 22.7614L122.962 13.713C123.532 13.3836 123.998 12.701 123.998 12.185C123.998 11.6691 123.536 11.5223 122.962 11.8477L107.226 20.8962C106.652 21.2256 106.189 21.9082 106.189 22.4241Z" fill="#455A64"/>
<path d="M106.189 28.0076C106.189 28.5235 106.652 28.6704 107.226 28.3449L122.962 19.2965C123.532 18.9671 123.998 18.2845 123.998 17.7685C123.998 17.2526 123.536 17.1058 122.962 17.4312L107.226 26.4797C106.652 26.8091 106.189 27.4917 106.189 28.0076Z" fill="#455A64"/>
<path d="M106.189 33.5908C106.189 34.1068 106.652 34.2536 107.226 33.9282L122.962 24.8797C123.532 24.5503 123.998 23.8677 123.998 23.3518C123.998 22.8359 123.536 22.689 122.962 23.0145L107.226 32.0629C106.652 32.3923 106.189 33.0749 106.189 33.5908Z" fill="#455A64"/>
<path d="M106.189 39.1765C106.189 39.6925 106.652 39.8393 107.226 39.5139L122.962 30.4654C123.532 30.136 123.998 29.4534 123.998 28.9375C123.998 28.4216 123.536 28.2747 122.962 28.6002L107.226 37.6486C106.652 37.978 106.189 38.6606 106.189 39.1765Z" fill="#455A64"/>
<path d="M86.7686 55.9317C86.7686 56.4476 87.2308 56.5944 87.8047 56.269L122.964 36.0528C123.534 35.7234 124 35.0408 124 34.5249C124 34.009 123.538 33.8621 122.964 34.1876L87.8047 54.4037C87.2348 54.7331 86.7686 55.4157 86.7686 55.9317Z" fill="#455A64"/>
<path d="M86.7686 61.5152C86.7686 62.0311 87.2308 62.1779 87.8047 61.8525L122.964 41.6363C123.534 41.3069 124 40.6243 124 40.1084C124 39.5925 123.538 39.4456 122.964 39.771L87.8047 59.9872C87.2348 60.3166 86.7686 60.9992 86.7686 61.5152Z" fill="#455A64"/>
<path d="M86.7686 67.0984C86.7686 67.6143 87.2308 67.7612 87.8047 67.4357L122.964 47.2196C123.534 46.8902 124 46.2076 124 45.6916C124 45.1757 123.538 45.0289 122.964 45.3543L87.8047 65.5705C87.2348 65.8999 86.7686 66.5825 86.7686 67.0984Z" fill="#455A64"/>
<path d="M64.1074 126.617L75.4368 77.2868L138.567 40.9897L127.238 90.3158L64.1074 126.617Z" fill="#27A3A3"/>
<path d="M79.5518 81.1519V117.735L94.1169 109.357V72.7742L79.5518 81.1519Z" fill="#27A3A3"/>
<path opacity="0.2" d="M79.5518 81.1519V117.735L94.1169 109.357V72.7742L79.5518 81.1519Z" fill="black"/>
<path d="M106.208 139.409C104.969 138.492 93.0261 129.396 86.953 116.407C80.4893 102.58 80.4933 86.4516 80.4973 80.3836V80.1931L123.806 55.2939C123.806 61.4215 123.814 77.5699 130.302 91.4442C136.235 104.132 147.724 113.121 149.545 114.494L106.216 139.409H106.208Z" fill="white"/>
<path d="M123.601 55.6393C123.601 62.0208 123.725 77.8676 130.113 91.5315C135.847 103.791 146.75 112.613 149.177 114.474L106.219 139.175C104.541 137.913 93.0402 128.976 87.1265 116.324C80.6788 102.537 80.6867 86.4438 80.6867 80.3837V80.3083L123.597 55.6353M123.996 54.9487L80.2882 80.0781C80.2882 85.7889 80.1687 102.382 86.7639 116.49C93.2395 130.337 106.187 139.647 106.187 139.647L149.894 114.518C149.894 114.518 136.943 105.211 130.467 91.3609C123.872 77.2524 123.992 60.6596 123.992 54.9487H123.996Z" fill="#27A3A3"/>
<path opacity="0.7" d="M123.601 55.6393C123.601 62.0208 123.725 77.8676 130.113 91.5315C135.847 103.791 146.75 112.613 149.177 114.474L106.219 139.175C104.541 137.913 93.0402 128.976 87.1265 116.324C80.6788 102.537 80.6867 86.4438 80.6867 80.3837V80.3083L123.597 55.6353M123.996 54.9487L80.2882 80.0781C80.2882 85.7889 80.1687 102.382 86.7639 116.49C93.2395 130.337 106.187 139.647 106.187 139.647L149.894 114.518C149.894 114.518 136.943 105.211 130.467 91.3609C123.872 77.2524 123.992 60.6596 123.992 54.9487H123.996Z" fill="white"/>
<path d="M119.058 63.3775L105.234 71.3267C104.661 71.6561 104.21 72.3307 104.23 72.8308C104.25 73.3348 104.732 73.4737 105.306 73.1443L119.13 65.1951C119.7 64.8658 120.146 64.1911 120.126 63.691C120.106 63.187 119.632 63.0481 119.058 63.3775Z" fill="#455A64"/>
<path d="M119.352 68.7901L105.528 76.7393C104.955 77.0687 104.524 77.7315 104.564 78.2236C104.608 78.7117 105.11 78.8427 105.68 78.5133L119.504 70.5641C120.074 70.2347 120.5 69.572 120.456 69.0838C120.412 68.5957 119.918 68.4647 119.348 68.7941L119.352 68.7901Z" fill="#455A64"/>
<path d="M119.905 74.0569L106.081 82.006C105.507 82.3354 105.097 82.9863 105.165 83.4625C105.232 83.9387 105.754 84.0578 106.328 83.7284L120.152 75.7792C120.722 75.4498 121.128 74.799 121.061 74.3228C120.993 73.8465 120.479 73.7275 119.905 74.0569Z" fill="#455A64"/>
<path d="M120.734 79.1648L106.91 87.1139C106.337 87.4433 105.946 88.0823 106.042 88.5426C106.137 89.003 106.679 89.1062 107.253 88.7808L121.077 80.8316C121.647 80.5022 122.034 79.8633 121.938 79.4029C121.842 78.9425 121.308 78.8354 120.738 79.1648H120.734Z" fill="#455A64"/>
<path d="M121.858 84.1064L108.034 92.0556C107.464 92.385 107.094 93.012 107.217 93.4565C107.341 93.901 107.907 93.9923 108.48 93.6629L122.304 85.7137C122.878 85.3843 123.237 84.7613 123.113 84.3168C122.99 83.8723 122.432 83.777 121.862 84.1064H121.858Z" fill="#455A64"/>
<path d="M123.297 88.8638L89.6079 108.235C89.038 108.564 88.6913 109.175 88.8468 109.604C89.0022 110.028 89.5959 110.104 90.1658 109.778L123.855 90.4076C124.425 90.0782 124.76 89.467 124.604 89.0424C124.449 88.6177 123.867 88.5383 123.293 88.8677L123.297 88.8638Z" fill="#455A64"/>
<path d="M125.091 93.4035L91.4019 112.774C90.832 113.104 90.5172 113.699 90.7045 114.104C90.8918 114.509 91.5135 114.568 92.0833 114.243L125.772 94.8719C126.346 94.5425 126.653 93.9511 126.462 93.5424C126.275 93.1376 125.661 93.0741 125.087 93.4035H125.091Z" fill="#455A64"/>
<path d="M127.29 97.7386L93.6012 117.109C93.0313 117.439 92.7444 118.018 92.9715 118.403C93.1987 118.788 93.8522 118.828 94.4221 118.498L128.111 99.1276C128.685 98.7982 128.956 98.2227 128.729 97.8417C128.502 97.4568 127.86 97.4092 127.286 97.7386H127.29Z" fill="#455A64"/>
<path d="M129.88 101.829L96.1904 121.2C95.6205 121.529 95.3615 122.093 95.6245 122.458C95.8875 122.823 96.565 122.847 97.1348 122.517L130.824 103.146C131.394 102.817 131.645 102.257 131.382 101.896C131.119 101.531 130.449 101.499 129.88 101.829Z" fill="#455A64"/>
<path d="M132.821 105.723L99.1323 125.094C98.5624 125.424 98.3273 125.975 98.6182 126.321C98.9091 126.666 99.6105 126.678 100.184 126.348L133.873 106.977C134.443 106.648 134.67 106.104 134.38 105.759C134.089 105.414 133.391 105.394 132.821 105.723Z" fill="#455A64"/>
<path d="M136.076 109.433L102.387 128.804C101.813 129.134 101.606 129.669 101.925 130.003C102.244 130.332 102.969 130.332 103.539 130.003L137.228 110.632C137.798 110.302 138.001 109.771 137.682 109.441C137.364 109.112 136.646 109.104 136.073 109.433H136.076Z" fill="#455A64"/>
<path d="M139.639 112.973L105.95 132.344C105.38 132.674 105.193 133.197 105.54 133.515C105.886 133.828 106.632 133.817 107.205 133.487L140.895 114.116C141.464 113.787 141.648 113.271 141.301 112.953C140.954 112.64 140.213 112.648 139.643 112.973H139.639Z" fill="#455A64"/>
<path d="M100.227 74.2039L84.335 83.3436C84.5103 89.0743 85.1678 97.3489 87.5787 105.679L103.471 96.5393C101.064 88.2091 100.406 79.9385 100.227 74.2039Z" fill="#27A3A3"/>
<path opacity="0.8" d="M100.227 74.2039L84.335 83.3436C84.5103 89.0743 85.1678 97.3489 87.5787 105.679L103.471 96.5393C101.064 88.2091 100.406 79.9385 100.227 74.2039Z" fill="white"/>
<path d="M90.8127 82.0746C90.8127 81.1856 90.5218 80.503 90.0356 80.0625L84.3291 83.3446C84.3769 84.8606 84.4566 86.5552 84.5961 88.3768C85.2217 88.48 85.959 88.3649 86.756 87.9998C88.9955 86.96 90.8127 84.305 90.8127 82.0746Z" fill="#27A3A3"/>
<path opacity="0.6" d="M90.8127 82.0746C90.8127 81.1856 90.5218 80.503 90.0356 80.0625L84.3291 83.3446C84.3769 84.8606 84.4566 86.5552 84.5961 88.3768C85.2217 88.48 85.959 88.3649 86.756 87.9998C88.9955 86.96 90.8127 84.305 90.8127 82.0746Z" fill="white"/>
<path d="M102.122 91.0633C101.062 89.7298 98.9058 85.6263 97.9852 83.8364C97.8219 83.5189 97.3556 83.5626 97.248 83.9039C95.658 88.9917 95.5225 94.3215 95.5225 94.3215C94.2433 93.3135 93.3268 92.3134 92.1472 90.5831C91.9759 90.333 91.5893 90.4005 91.5136 90.6942C89.7762 97.3575 90.6489 103.914 90.6489 103.914L103.469 96.544C102.939 94.7065 102.496 92.873 102.122 91.0672V91.0633Z" fill="#27A3A3"/>
<path opacity="0.6" d="M102.122 91.0633C101.062 89.7298 98.9058 85.6263 97.9852 83.8364C97.8219 83.5189 97.3556 83.5626 97.248 83.9039C95.658 88.9917 95.5225 94.3215 95.5225 94.3215C94.2433 93.3135 93.3268 92.3134 92.1472 90.5831C91.9759 90.333 91.5893 90.4005 91.5136 90.6942C89.7762 97.3575 90.6489 103.914 90.6489 103.914L103.469 96.544C102.939 94.7065 102.496 92.873 102.122 91.0672V91.0633Z" fill="white"/>
</g>
<defs>
<clipPath id="clip0_217_1346">
<rect width="157.338" height="128.814" fill="white" transform="translate(12.7109 0.42041)"/>
</clipPath>
<clipPath id="clip1_217_1346">
<rect width="19.8145" height="20.7346" fill="white" transform="translate(43.9951 28.0234)"/>
</clipPath>
<clipPath id="clip2_217_1346">
<rect width="26.683" height="26.683" fill="white" transform="translate(117.604)"/>
</clipPath>
<clipPath id="clip3_217_1346">
<rect width="18.9771" height="18.9771" fill="white" transform="translate(127.742 51.9463)"/>
</clipPath>
<clipPath id="clip4_217_1346">
<rect width="178.5" height="141.696" fill="white" transform="translate(0.75 3.18066)"/>
</clipPath>
</defs>
</svg>
