<svg width="19" height="20" viewBox="0 0 19 20" fill="none" xmlns="http://www.w3.org/2000/svg">
<path d="M10.5 0C10.3381 0 10.1763 0.0524766 10.041 0.157227L3.4541 5.25586C2.5431 5.96136 2 7.07018 2 8.22168V9.88574L3.5 8.69922V8.22168C3.5 7.53068 3.82557 6.86538 4.37207 6.44238L10.5 1.69824L16.6279 6.44238C17.1744 6.86588 17.5 7.53068 17.5 8.22168V18H11.5C11.5 19 11 19.5 11 19.5H17.75C18.4395 19.5 19 18.939 19 18.25V8.22168C19 7.07018 18.4569 5.96136 17.5459 5.25586L10.959 0.157227C10.8237 0.0524766 10.6619 0 10.5 0ZM4.97559 9.22754C4.81566 9.233 4.66168 9.28946 4.53613 9.38867L0.857422 12.2861C0.316509 12.7124 0 13.3652 0 14.0537V18.25C0 18.9318 0.568203 19.5 1.25 19.5H8.75C9.4318 19.5 10 18.9318 10 18.25V14.0537C10 13.3652 9.68439 12.7124 9.14258 12.2861L5.46387 9.38867C5.32517 9.27911 5.15225 9.22204 4.97559 9.22754ZM5 10.9326L8.21484 13.4648C8.39503 13.6066 8.5 13.8233 8.5 14.0537V18H1.5V14.0537C1.5 13.8233 1.60505 13.6076 1.78613 13.4648L5 10.9326Z" fill="#475467"/>
</svg>
