<svg width="112" height="112" viewBox="0 0 112 112" fill="none" xmlns="http://www.w3.org/2000/svg">
<g clip-path="url(#clip0_34_3720)">
<path d="M0 8C0 3.58172 3.58172 0 8 0H112V112H8C3.58172 112 0 108.418 0 104V8Z" fill="#F9F9F9"/>
<g clip-path="url(#clip1_34_3720)">
<path d="M49.217 103.318L27.5156 120.705H28.7377L53.8012 103.318H49.217Z" fill="#C7C7C7"/>
<path d="M51.2541 103.318L40.5312 120.705H41.7533L54.8975 103.318H51.2541Z" fill="#C7C7C7"/>
<path d="M56.5126 103.318L67.2354 120.705H66.0133L52.8691 103.318H56.5126Z" fill="#C7C7C7"/>
<path d="M58.3849 103.318L80.0835 120.705H78.8614L53.8008 103.318H58.3849Z" fill="#C7C7C7"/>
<path d="M94.6048 96.9386V91.8518L64.8037 90.6374L49.0648 48.873H13L25.7605 96.9386L56.2465 105.443H58.1563L94.6048 96.9386Z" fill="#455A64"/>
<path d="M13 48.873H17.1266L30.4214 92.6879L57.3918 100.28L94.6048 91.8518V96.9386L58.1563 105.443H56.2465L25.7605 96.9386L13 48.873Z" fill="#37474F"/>
<path d="M116.522 120.534C115.562 120.557 90.6231 112.894 89.8586 112.007C89.7762 111.908 90.1656 108.239 90.8107 105.325C90.8391 105.186 81.9551 93.6147 81.9551 93.6147L98.0208 87.4038L105.706 103.229L107.706 107.344C107.706 107.344 116.025 115.656 116.761 116.721C117.488 117.786 117.483 120.511 116.522 120.534Z" fill="#EBEBEB"/>
<path d="M117.225 120.671C116.222 120.697 90.1895 112.8 89.3881 111.876C89.0811 111.526 89.5472 109.927 90.8119 105.324L107.881 107.366C107.881 107.366 116.691 115.588 117.458 116.695C118.223 117.802 118.229 120.646 117.225 120.671Z" fill="#27A3A3"/>
<path d="M117.166 119.523C112.835 118.093 95.2287 112.73 90.8378 111.642C90.8009 111.634 90.7952 111.657 90.8293 111.671C95.0923 113.182 112.741 118.401 117.143 119.596C117.237 119.621 117.257 119.554 117.166 119.525V119.523Z" fill="#263238"/>
<path d="M109.637 109.078C107.898 108.524 105.684 108.521 104.163 109.612C104.104 109.654 104.163 109.736 104.226 109.725C106.053 109.394 107.739 109.247 109.603 109.298C109.734 109.301 109.762 109.115 109.64 109.075L109.637 109.078Z" fill="#263238"/>
<path d="M110.825 110.01C109.086 109.456 106.872 109.454 105.352 110.544C105.292 110.586 105.352 110.668 105.414 110.657C107.242 110.326 108.927 110.179 110.791 110.23C110.922 110.233 110.951 110.047 110.825 110.007V110.01Z" fill="#263238"/>
<path d="M112.014 110.942C110.275 110.388 108.061 110.386 106.54 111.476C106.481 111.518 106.54 111.6 106.603 111.589C108.43 111.258 110.115 111.112 111.98 111.162C112.111 111.165 112.139 110.979 112.014 110.939V110.942Z" fill="#263238"/>
<path d="M113.201 111.871C111.462 111.318 109.248 111.315 107.728 112.405C107.668 112.447 107.728 112.529 107.79 112.518C109.618 112.188 111.303 112.041 113.167 112.092C113.298 112.094 113.326 111.908 113.201 111.868V111.871Z" fill="#263238"/>
<path d="M112.95 105.018C112.29 104.021 110.957 104.397 110.179 104.987C108.92 105.945 107.786 107.479 107.229 108.944C107.214 108.981 107.24 109.004 107.268 109.009C107.268 109.145 107.382 109.295 107.538 109.244C109.045 108.766 110.716 108.442 112.029 107.518C112.796 106.979 113.575 105.959 112.95 105.016V105.018ZM109.673 108.058C108.937 108.309 108.195 108.526 107.47 108.806C108.047 108.035 108.59 107.244 109.244 106.532C109.556 106.193 109.883 105.849 110.241 105.555C110.798 105.098 112.958 104.166 112.552 106.109C112.327 107.179 110.551 107.758 109.673 108.06V108.058Z" fill="#263238"/>
<path d="M102.69 108.269C104.139 108.964 105.841 109.009 107.404 109.232C107.566 109.255 107.654 109.088 107.632 108.955C107.66 108.944 107.68 108.916 107.66 108.885C106.867 107.529 105.492 106.204 104.091 105.467C103.224 105.013 101.848 104.863 101.362 105.956C100.905 106.99 101.843 107.868 102.687 108.272L102.69 108.269ZM101.939 106.961C101.215 105.114 103.5 105.676 104.125 106.035C104.525 106.267 104.906 106.552 105.273 106.834C106.037 107.427 106.702 108.119 107.402 108.783C106.64 108.628 105.87 108.537 105.102 108.407C104.187 108.255 102.337 107.975 101.939 106.959V106.961Z" fill="#263238"/>
<path d="M106.52 103.969L88.8088 106.57C88.8088 106.57 79.1432 89.1296 75.2411 84.7913L75.2326 84.7829C74.9768 84.4976 74.7381 84.266 74.5193 84.0909H74.5107C74.2635 83.9468 73.8315 83.8423 73.2318 83.7717H73.2233C67.9855 83.1362 50.3624 84.8393 38.1816 84.057L43.8685 76.5017L46.3893 73.1492C60.1104 71.5929 76.9463 66.0176 84.5458 69.8079C92.7989 73.9231 106.517 103.972 106.517 103.972L106.52 103.969Z" fill="#263238"/>
<path d="M104.299 100.978C101.289 101.362 102.148 101.212 99.1409 101.63C97.6688 101.833 90.2739 102.842 88.9325 103.26C88.9041 103.268 88.9098 103.316 88.941 103.316C90.345 103.328 97.7171 102.161 99.1864 101.929C102.185 101.458 101.318 101.562 104.31 101.06C104.367 101.051 104.356 100.969 104.299 100.978Z" fill="#37474F"/>
<path d="M88.8977 103.014C86.8941 99.6837 77.7685 83.2457 75.9525 82.5989C74.2984 82.0086 41.2206 82.6921 40.7317 82.6978C40.6976 82.6978 40.6948 82.7514 40.7317 82.7514C44.648 82.7006 74.881 82.5961 75.745 82.935C77.5383 83.6383 88.4515 102.709 88.7187 103.107C88.7897 103.214 88.9716 103.132 88.9005 103.016L88.8977 103.014Z" fill="#37474F"/>
<path d="M28.9322 77.1776C28.9322 77.1776 27.8863 87.0912 32.9479 92.0198C39.0042 97.92 78.9739 96.4287 85.1694 94.4403C91.3649 92.4519 91.5582 82.5157 84.7857 80.2138C78.3458 78.0249 49.7838 76.7652 49.1075 76.4969C48.4311 76.2286 46.4502 73.0879 46.4502 73.0879L28.9322 77.1748V77.1776Z" fill="#263238"/>
<path d="M37.3905 76.898C37.382 76.85 37.3081 76.8669 37.3081 76.9121C37.3138 78.1633 36.8477 79.4823 36.0207 80.4313C35.0715 81.5187 33.6732 82.1288 32.4057 82.7671C32.2835 82.8292 32.3773 83.0184 32.5023 82.9789C33.2753 82.7473 34.037 82.414 34.7418 82.0214C35.3841 81.6627 35.9752 81.2137 36.4243 80.6318C37.2541 79.5557 37.615 78.2424 37.3905 76.9008V76.898Z" fill="#37474F"/>
<path d="M48.8353 75.8838C48.554 75.5251 48.2442 75.1833 47.9486 74.8331C47.2495 74.0084 46.5504 73.178 45.8172 72.3815C45.7489 72.3053 45.6125 72.4126 45.6751 72.4945C46.1667 73.1357 46.6896 73.7542 47.2012 74.3784C47.4627 74.6975 47.727 75.0167 47.9941 75.3359C48.2414 75.6324 48.5483 75.9262 48.733 76.2679C48.9234 76.6238 48.6734 76.926 48.3039 76.9655C47.9714 76.9994 47.6673 76.8328 47.4115 76.6407C46.8346 76.2001 46.3799 75.5731 45.8996 75.0336C45.6069 74.706 45.3113 74.3756 45.0129 74.0536C44.6946 73.709 44.3564 73.3814 44.0409 73.0368C44.021 73.0142 43.9812 73.0453 43.9983 73.0707C44.274 73.4463 44.5297 73.8418 44.8083 74.2202C45.0839 74.5987 45.3653 74.9715 45.6523 75.3415C45.9223 75.6917 46.2037 76.0363 46.4907 76.3724C46.7351 76.6577 47.0136 76.9373 47.3405 77.1293C47.8691 77.44 48.7899 77.505 49.0712 76.8243C49.2105 76.4882 49.0371 76.1465 48.8297 75.8838H48.8353Z" fill="#37474F"/>
<path d="M84.3205 94.4794C82.189 94.5189 80.0575 94.6432 77.9232 94.6884C75.8087 94.7336 73.6915 94.7449 71.5742 94.7251C67.3254 94.6855 63.0766 94.5246 58.8364 94.2336C54.5507 93.9399 49.9296 93.5162 45.6752 92.9288C43.6375 92.6492 41.5742 92.4147 39.562 91.9854C37.746 91.5985 36.1005 90.8472 34.7392 89.5367C31.9825 86.8789 30.911 82.9728 30.4705 79.2418C30.4109 78.7418 30.3625 78.2391 30.3227 77.7364C30.3227 77.7025 30.2688 77.7025 30.2716 77.7364C30.5217 81.5634 31.1185 85.5543 33.5399 88.63C34.5886 89.9603 35.9215 91.0505 37.4846 91.6747C39.3915 92.4345 41.506 92.6124 43.5181 92.8836C47.7924 93.4598 52.4306 93.9032 56.7276 94.2365C61.0531 94.5697 65.3872 94.7787 69.724 94.8409C74.0609 94.9058 78.4006 94.8437 82.7347 94.6319C83.2633 94.6065 83.7919 94.5754 84.3205 94.5302C84.3517 94.5302 84.3489 94.4822 84.3205 94.4822V94.4794Z" fill="#37474F"/>
<path d="M90.0159 85.2157C89.6095 83.5352 88.5921 82.1258 87.1597 81.1543C85.625 80.1121 83.7891 79.6376 81.9702 79.3749C79.9126 79.0783 77.8323 78.9258 75.7633 78.7253C71.5202 78.3157 67.2743 77.9373 63.0256 77.5899C58.7796 77.2425 49.6341 76.5364 49.1197 76.5166C49.0742 76.5166 49.0657 76.59 49.1112 76.5957C53.2093 77.0476 56.938 77.4374 61.0475 77.8073C65.1741 78.1802 69.3007 78.5699 73.4244 78.9766C75.4791 79.1772 77.5339 79.3834 79.5886 79.5924C81.4928 79.7872 83.4509 79.9793 85.2357 80.7108C86.7675 81.3378 88.143 82.3462 88.9246 83.8261C89.6805 85.2553 89.8368 86.9669 89.5356 88.54C89.2542 90.0003 88.5636 91.4237 87.5547 92.5253C86.56 93.6098 85.2982 94.4402 83.8431 94.7537C83.468 94.8328 83.0132 94.8921 82.6694 94.9599C82.6438 94.9655 82.6154 95.0192 82.6438 95.022C85.7131 95.0983 88.5523 92.8727 89.6635 90.085C90.2745 88.5485 90.4109 86.8228 90.0216 85.2157H90.0159Z" fill="#37474F"/>
<path d="M40.8629 52.7861C42.8949 60.7 46.9305 70.1476 48.5931 71.6587C50.6961 73.568 63.5533 76.0732 64.2325 76.1382C65.3466 76.2455 67.6457 64.8547 66.6056 64.8773C63.8545 64.9394 55.3797 64.0808 54.7715 63.4905C54.1406 62.872 49.835 57.7344 45.3958 51.9218C42.3322 47.9027 39.601 47.8744 40.86 52.7861H40.8629Z" fill="#FFB6B6"/>
<path d="M63.1943 75.6629C63.3819 75.7505 66.025 76.996 67.6534 77.4225C68.8669 77.7417 72.3882 78.5664 72.8741 77.27C73.2067 76.3888 71.1945 75.6601 69.7821 75.115C69.0375 74.8269 68.1138 74.0841 68.3184 73.6068C68.6794 72.7764 70.5949 73.5559 71.8567 74.2451C74.3008 75.5782 77.5719 78.0072 79.0157 76.7588C79.5613 76.2871 78.8935 75.4652 77.93 74.6659C79.4875 75.5867 81.1415 76.3295 81.7696 75.8296C82.1305 75.5443 82.1362 75.163 81.923 74.7337C82.4005 74.8749 82.8183 74.8354 83.1025 74.5219C83.5884 73.9909 83.327 73.2311 82.7614 72.4601C82.9348 72.4375 83.0911 72.3443 83.2076 72.1522C84.225 70.5282 78.8281 66.06 76.9893 65.673C71.581 64.532 65.9198 64.902 65.9198 64.902C63.848 66.6305 63.1915 75.6516 63.1943 75.6573V75.6629Z" fill="#FFB6B6"/>
<path d="M70.9799 70.5537C72.2503 70.7204 73.5093 71.161 74.6006 71.8416C75.9847 72.7031 76.914 73.7283 78.0849 74.7564C78.1162 74.7847 78.0735 74.8327 78.0423 74.8044C77.4852 74.3158 75.1804 72.4856 74.5864 72.0732C73.4979 71.3135 72.2901 70.791 70.9743 70.5791C70.96 70.5791 70.9657 70.5565 70.9771 70.5565L70.9799 70.5537Z" fill="#263238"/>
<path d="M71.928 68.2634C73.3518 68.6136 74.8069 68.9667 76.137 69.5993C77.5892 70.2913 78.7431 71.4521 79.8742 72.565C80.5534 73.2343 81.2213 73.9178 81.8693 74.6183C81.8977 74.6465 81.8579 74.6945 81.8266 74.6663C80.6785 73.5139 79.4934 72.3955 78.2742 71.3166C77.1288 70.2998 75.8585 69.5316 74.4091 69.0232C73.5934 68.7351 72.755 68.5119 71.9195 68.2888C71.9024 68.286 71.9081 68.2606 71.9252 68.2634H71.928Z" fill="#263238"/>
<path d="M73.3899 66.2437C74.7711 66.4922 75.9733 66.7012 77.2067 67.4045C78.8408 68.3337 80.4324 69.9295 80.9922 70.4944C81.6089 71.1186 82.2058 71.7625 82.7912 72.4178C82.8139 72.4432 82.7685 72.4856 82.7457 72.4601C81.4072 71.0338 79.9691 69.6809 78.4572 68.4382C77.7353 67.8451 76.9509 67.331 76.0784 66.9808C75.2145 66.6362 74.2937 66.4498 73.3871 66.2578C73.3814 66.2578 73.3842 66.2465 73.3871 66.2493L73.3899 66.2437Z" fill="#263238"/>
<path d="M65.7035 64.1151L61.8384 77.3813C61.8384 77.3813 50.4392 74.4383 48.3162 72.272C46.1932 70.1029 42.0979 58.7432 40.8418 53.2215C39.5856 47.6969 42.4105 47.7676 45.0905 51.2048C47.7705 54.6421 54.4378 62.9684 54.8016 63.1436C55.1682 63.3187 65.7035 64.1151 65.7035 64.1151Z" fill="#27A3A3"/>
<path d="M60.6141 71.5572C61.083 69.9925 61.5661 68.4306 61.9754 66.8489C62.2084 65.9508 62.4472 65.0526 62.6717 64.1516C62.6802 64.1177 62.6234 64.098 62.612 64.1318C62.0777 65.6824 61.5462 67.2415 61.0858 68.8175C60.6254 70.3851 60.1537 71.9498 59.716 73.523C59.4659 74.4183 59.2442 75.3164 59.051 76.2259C59.0481 76.2428 59.0766 76.2541 59.0822 76.2372C59.6677 74.7007 60.1451 73.1332 60.6169 71.5572H60.6141Z" fill="#263238"/>
<path opacity="0.1" d="M60.1958 76.9352C56.9588 76.0285 49.9362 73.9215 48.3163 72.2693C46.1933 70.1001 42.098 58.7404 40.8419 53.2187C40.2394 50.5666 40.5747 49.1996 41.3875 48.8833C41.4728 48.92 41.5609 48.9709 41.649 49.0217C45.8324 54.7383 54.5175 68.3829 60.1958 76.9323V76.9352Z" fill="black"/>
<path d="M27.7802 78.8942C27.8456 78.9592 51.9428 73.7143 52.1645 73.4347C52.4771 73.0421 48.1686 55.0337 43.6271 49.6589C42.4903 48.3145 38.8725 48.4077 37.2554 49.7634C29.2325 56.4855 27.5529 78.6598 27.7802 78.8942Z" fill="#27A3A3"/>
<path d="M35.3807 51.0536C30.5749 54.7282 17.911 69.5788 20.5569 73.1037C23.2226 76.6539 41.3488 75.4536 46.6434 73.9369C48.2179 73.485 44.1766 63.529 42.497 63.0347C41.0987 62.6252 33.2406 64.7435 33.1014 64.2916C32.9422 63.7804 34.6815 60.4871 37.4894 54.4712C40.7264 47.5344 37.5065 49.4296 35.3835 51.0536H35.3807Z" fill="#FFB6B6"/>
<path d="M49.8848 61.8737C53.3861 61.964 54.2728 62.5204 57.2654 61.0348C59.2321 60.0604 60.7014 60.8908 59.3656 62.7323C57.1801 65.7459 52.6386 66.5734 50.9818 66.4096L49.8848 61.8737Z" fill="#FFB6B6"/>
<path d="M40.248 63.6529C40.248 63.6529 44.4457 62.1645 48.1886 61.8905C50.7748 61.7013 56.4502 61.9159 60.8581 68.2397C61.904 69.7395 62.3246 72.6147 59.7213 70.7817C57.8712 69.4796 57.0953 68.0985 55.8818 67.5365C55.8818 67.5365 55.9784 71.2562 54.4267 72.2391C53.7333 72.6797 51.8092 73.832 50.1836 74.5212C50.1836 74.5212 49.9392 74.2105 49.6834 73.7699C49.6834 73.7699 48.1459 74.5522 45.608 73.8829L40.2509 63.6529H40.248Z" fill="#FFB6B6"/>
<path d="M50.6873 62.1045C51.7729 62.9151 54.0493 64.6747 55.405 66.7563C56.9112 69.0694 59.1877 73.9274 57.4569 75.0148C56.1894 75.8113 55.1549 74.0347 55.1549 74.0347C55.1549 74.0347 55.6693 76.2406 54.3648 76.7123C53.1768 77.1416 52.4607 75.7181 52.4607 75.7181C52.4607 75.7181 52.5402 77.1077 51.3153 77.3025C49.8432 77.537 49.9142 74.5827 48.2147 73.5405C47.8339 73.306 50.6816 62.1045 50.6816 62.1045H50.6873Z" fill="#FFB6B6"/>
<path d="M52.6802 67.9309C53.5754 68.8601 55.0646 71.4924 55.184 73.9836C55.184 74.04 55.1442 74.0711 55.1328 74.0203C54.4166 71.306 53.2258 68.9251 52.6603 67.945C52.6517 67.9309 52.6716 67.9196 52.683 67.9309H52.6802Z" fill="#263238"/>
<path d="M50.3753 69.5095C51.0659 70.3907 52.4784 73.1699 52.5125 75.7006C52.5125 75.7571 52.4698 75.7853 52.4585 75.7345C51.8276 72.8677 50.8613 70.5347 50.3526 69.5236C50.3469 69.5095 50.3668 69.4982 50.3753 69.5095Z" fill="#263238"/>
<path d="M55.8825 67.5137C56.9425 68.022 57.5791 68.6858 58.4118 69.4907C58.8239 69.889 59.2445 70.2816 59.6993 70.6318C60.1142 70.9509 60.7224 71.4311 61.268 71.1261C61.5721 70.9566 61.6346 70.5696 61.6233 70.2533C61.6119 69.9003 61.3789 69.2083 61.2197 68.892C61.2112 68.875 61.2396 68.8609 61.2481 68.8778C61.3959 69.1631 61.6716 69.7958 61.7313 70.1121C61.7853 70.3974 61.8108 70.7222 61.6886 70.9933C61.4215 71.578 60.6854 71.5384 60.1994 71.287C59.9096 71.1345 59.6453 70.9255 59.3923 70.7193C59.1479 70.5216 58.912 70.3098 58.6818 70.0952C58.2101 69.6517 57.7667 69.1829 57.3006 68.7338C56.7891 68.2423 56.4224 67.9797 55.8597 67.5475C55.8398 67.5334 55.8597 67.5024 55.8825 67.5137Z" fill="#263238"/>
<path d="M57.5714 71.7982C57.3895 71.1175 56.2641 68.2281 55.8577 67.5362C55.8463 67.5192 55.8719 67.5023 55.8833 67.5192C56.6165 68.4823 57.651 70.8859 57.8613 71.6372C58.0688 72.38 58.2933 73.3205 58.1654 74.0888C57.9721 75.2468 57.1622 75.34 56.8666 75.3484C56.5142 75.3597 56.1817 75.2326 55.9003 75.0236C55.5877 74.792 55.3206 74.374 55.1415 74.0351C55.133 74.0182 55.1557 73.9984 55.1671 74.0182C55.4939 74.5407 56.0907 75.1027 56.7387 75.1225C57.0201 75.131 57.3185 75.0519 57.5231 74.8542C57.7647 74.6197 57.8386 74.2723 57.8641 73.9532C57.9238 73.2245 57.7561 72.4986 57.5686 71.7982H57.5714Z" fill="#263238"/>
<path d="M40.2466 63.1528L43.8929 75.7637C43.8929 75.7637 21.2053 77.0488 19.9492 72.9535C18.693 68.8581 29.6517 55.4451 34.1989 51.762C39.4679 47.4944 39.7521 49.2851 38.0356 53.5555C36.2395 58.0266 33.1474 64.4097 33.1474 64.4097L40.2495 63.1528H40.2466Z" fill="#27A3A3"/>
<path d="M25.9812 66.4283C27.1094 65.8917 28.2888 65.4595 29.4796 65.0895C30.6619 64.7224 31.8754 64.4851 33.0975 64.2959C33.7938 64.1885 34.4957 64.1123 35.1977 64.0332C35.2205 64.0332 35.2233 64.0643 35.2006 64.0671C33.9728 64.2394 32.7536 64.519 31.5514 64.8297C30.355 65.1404 29.1699 65.4708 27.9876 65.8239C27.3197 66.0244 26.6604 66.256 25.9982 66.4763C25.9669 66.4876 25.9527 66.4424 25.9812 66.4283Z" fill="#263238"/>
<path d="M40.193 63.1071C40.0793 63.1184 33.7701 64.0957 33.5569 64.155C33.5967 64.0703 35.1968 61.0849 35.4326 60.6471C35.4554 60.6047 35.4781 60.5595 35.5009 60.5172C35.643 60.3279 35.7879 60.1415 35.9243 59.9466C36.0977 59.6981 36.271 59.4467 36.4444 59.1982C36.4501 59.1897 36.4387 59.1812 36.433 59.1897C36.2483 59.4298 36.0664 59.6727 35.8817 59.9156C35.7964 60.0285 35.7168 60.1415 35.6373 60.2573C35.7964 59.9466 35.9527 59.636 36.109 59.3224C36.3563 58.8225 36.5893 58.3198 36.8195 57.8114C36.8281 57.7945 36.8025 57.786 36.794 57.8001C36.3222 58.67 35.8248 59.5258 35.3502 60.3929C34.8785 61.26 33.0823 64.4515 33.0909 64.4515C33.0994 64.4628 40.0651 63.2258 40.1987 63.1919C40.2527 63.1806 40.2441 63.1015 40.1873 63.1071H40.193Z" fill="#263238"/>
<path d="M39.3298 70.8014C38.9319 69.3948 38.5454 67.9854 38.0936 66.593C37.8378 65.8022 37.5848 65.0114 37.3205 64.2205C37.312 64.1895 37.258 64.2036 37.2665 64.2347C37.6104 65.661 37.9571 67.0929 38.3664 68.5023C38.7728 69.906 39.1678 71.3126 39.5941 72.7135C39.8357 73.51 40.1 74.2951 40.3927 75.0747C40.3984 75.0888 40.424 75.0831 40.4211 75.0662C40.1256 73.6258 39.7305 72.2136 39.3298 70.7985V70.8014Z" fill="#263238"/>
<path d="M44.1434 75.9922C43.9843 75.5968 43.7939 75.0319 43.6177 74.6422C43.5722 74.5405 43.4955 74.5461 43.5296 74.6535C43.6404 75.0065 43.72 75.3991 43.828 75.7606C43.5097 75.7719 43.1942 75.7748 42.8759 75.7889C42.5093 75.803 42.1427 75.8228 41.7761 75.8369C41.057 75.8651 40.338 75.8849 39.619 75.899C38.1639 75.9273 36.706 75.9216 35.2509 75.8877C32.3322 75.8199 29.4078 75.6448 26.5118 75.2748C25.7018 75.1703 24.8918 75.0517 24.0876 74.9105C23.2719 74.7636 22.3909 74.6026 21.7259 74.4049C21.706 74.3993 21.6946 74.4332 21.7145 74.4416C22.3937 74.7015 23.0303 74.8964 23.7408 75.0489C24.4655 75.2042 25.1931 75.3398 25.9235 75.4528C27.3814 75.6759 28.8479 75.8199 30.3172 75.9273C33.2302 76.1363 36.1575 76.221 39.079 76.1899C39.8975 76.1815 40.716 76.1617 41.5345 76.1363C41.9466 76.1222 42.3615 76.108 42.7736 76.0854C43.1857 76.0628 44.1662 76.0628 44.1406 75.9951L44.1434 75.9922Z" fill="#263238"/>
<path d="M74.7448 77.6558H45.7168V78.8194H74.7448V77.6558Z" fill="#455A64"/>
<path d="M61.7797 77.6558H45.7168V78.8194H61.7797V77.6558Z" fill="#A6A6A6"/>
<path d="M61.2881 78.8173H86.7295L90.3246 61.645H64.8832L61.2881 78.8173Z" fill="#A6A6A6"/>
<path d="M62.4424 78.8173H87.8838L91.479 61.645H66.0375L62.4424 78.8173Z" fill="#C7C7C7"/>
<path d="M75.2655 70.6149C75.1661 71.5469 75.8453 72.301 76.7831 72.301C77.721 72.301 78.5594 71.5469 78.656 70.6149C78.7555 69.6828 78.0763 68.9287 77.1384 68.9287C76.2005 68.9287 75.3622 69.6828 75.2655 70.6149Z" fill="#EBEBEB"/>
<path d="M41.8002 55.4198C41.8002 55.4198 37.5571 51.2256 34.7862 51.299L32.416 53.3552C32.416 53.3552 31.643 53.6009 31.4071 53.1123C30.8273 51.9035 30.7335 48.9943 33.2657 47.1274C35.5848 45.4187 39.3589 45.5768 42.5022 46.427C45.5204 47.2432 48.1265 49.2598 47.1829 51.2143C46.2394 53.166 41.8002 55.4227 41.8002 55.4227V55.4198Z" fill="#27A3A3"/>
<path opacity="0.1" d="M42.1105 54.4985C42.1105 54.4985 45.6005 52.0667 45.9699 50.6064C46.3394 49.1462 43.4121 47.7312 41.5165 47.1692C38.5836 46.2992 36.58 46.4715 34.9203 48.0165C33.2606 49.5614 42.1077 54.4985 42.1077 54.4985H42.1105Z" fill="black"/>
<path d="M42.1093 54.4986C42.1093 54.4986 38.7274 48.7001 34.4502 48.0957L34.7827 51.2957C34.7827 51.2957 37.3377 51.324 41.7967 55.4165L42.1065 54.4986H42.1093Z" fill="#27A3A3"/>
<path d="M33.6289 51.3472C34.4133 51.2568 35.192 51.4347 35.9252 51.672C36.6641 51.912 37.3604 52.2651 38.0226 52.6661C38.6905 53.0587 39.3157 53.5219 39.9296 53.9964L40.8191 54.7505L41.6746 55.5442L41.7712 55.6346L41.8792 55.5809C42.6863 55.177 43.4565 54.7223 44.1983 54.2167C44.5677 53.9625 44.9343 53.7027 45.2697 53.4061C45.6079 53.1124 45.9347 52.8045 46.2104 52.4515C45.5709 53.0757 44.8235 53.5558 44.0704 54.019C43.6924 54.2478 43.303 54.4596 42.9108 54.6658C42.5186 54.8692 42.1236 55.0754 41.7257 55.2589L41.9303 55.2928L41.0749 54.4709C40.7793 54.2083 40.4753 53.9541 40.1712 53.6999C39.8529 53.4626 39.5402 53.2197 39.2134 52.9938C38.8781 52.7791 38.5512 52.5532 38.196 52.3724C37.5054 51.977 36.7608 51.672 35.9906 51.463C35.8002 51.4065 35.6012 51.3726 35.408 51.333C35.2091 51.3076 35.013 51.2765 34.814 51.2652C34.419 51.2342 34.0126 51.2455 33.6317 51.3472H33.6289Z" fill="#263238"/>
<path d="M32.416 53.3526C32.8594 53.0674 33.2658 52.7369 33.6636 52.398C34.0558 52.0534 34.4395 51.6976 34.7862 51.2993C34.3429 51.5846 33.9365 51.915 33.5386 52.254C33.1464 52.5985 32.7627 52.9544 32.416 53.3526Z" fill="#263238"/>
<path d="M40.3768 53.4564C40.3768 53.4564 40.0187 55.103 39.9676 57.484C39.9477 58.4273 40.3114 61.8081 41.3658 61.6867C42.4202 61.5652 40.7036 59.382 40.4024 57.597C40.0955 55.7865 40.5814 54.5071 40.6468 53.4395L40.3768 53.4536V53.4564Z" fill="#27A3A3"/>
<path d="M44.1173 53.6431C44.1173 53.6431 44.6089 55.4253 44.9017 57.5661C45.0182 58.4135 45.0381 61.4977 44.0746 61.4977C43.1112 61.4977 44.4327 59.354 44.5208 57.7158C44.6089 56.0523 44.0405 54.6147 43.8729 53.66L44.1173 53.6459V53.6431Z" fill="#27A3A3"/>
<path d="M42.4658 53.8507C41.3659 53.7801 39.314 51.4952 38.6149 49.6819C38.5666 49.5576 38.9133 48.3629 39.2629 46.8914C39.4732 45.9989 39.6835 44.9962 39.8114 44.0698L45.4669 46.2729C45.4669 46.2729 44.6257 48.137 44.4154 49.7553C44.3983 49.8909 44.3955 50.018 44.404 50.1423C44.404 50.1592 44.404 50.1818 44.404 50.2072C44.4239 50.9444 44.1909 53.9665 42.4686 53.8535L42.4658 53.8507Z" fill="#FFB6B6"/>
<path d="M44.4012 50.1395C44.4012 50.1564 44.404 50.1762 44.4012 50.2044C44.2136 50.2044 44.0147 50.1903 43.793 50.1536C40.4792 49.6283 40.2178 45.4934 40.2178 44.228L45.4641 46.2701C45.4641 46.2701 44.6229 48.1342 44.4069 49.7525C44.3955 49.8853 44.387 50.0124 44.3955 50.1367L44.4012 50.1395Z" fill="#263238"/>
<path d="M40.9612 36.8211C39.7761 38.6484 39.1907 44.7294 40.2564 46.4212C41.7996 48.8727 45.1475 50.0082 47.4523 47.9802C49.6861 46.0116 50.3057 38.0751 49.041 36.4539C47.1767 34.0645 42.7119 34.1209 40.9612 36.8211Z" fill="#FFB6B6"/>
<path d="M44.7787 41.256C44.9663 41.2334 45.134 41.1825 45.3159 41.1402C45.5205 41.095 45.6882 41.078 45.8416 40.9199C45.9212 40.8351 45.9155 40.6628 45.8416 40.5781C45.6654 40.3776 45.4011 40.3719 45.151 40.4171C44.8811 40.468 44.685 40.5725 44.5059 40.7815C44.3326 40.982 44.5372 41.2842 44.7816 41.256H44.7787Z" fill="#263238"/>
<path d="M48.9256 41.8178C48.7465 41.7642 48.5874 41.6851 48.4168 41.6145C48.2236 41.5354 48.0588 41.4902 47.9365 41.3094C47.8712 41.2134 47.9081 41.044 47.9962 40.9705C48.2037 40.8039 48.468 40.8406 48.7039 40.9282C48.9625 41.0214 49.1387 41.1598 49.278 41.3942C49.4144 41.623 49.1614 41.8856 48.9256 41.815V41.8178Z" fill="#263238"/>
<path d="M44.4638 46.0347C44.5491 46.142 44.6315 46.2861 44.7793 46.3172C44.9214 46.3482 45.0976 46.303 45.234 46.2691C45.2482 46.2663 45.2596 46.2804 45.2482 46.2917C45.1203 46.4358 44.8844 46.5036 44.6997 46.4471C44.5178 46.3906 44.4467 46.2211 44.424 46.046C44.4212 46.0206 44.4524 46.0178 44.4666 46.0319L44.4638 46.0347Z" fill="#263238"/>
<path d="M45.0526 44.8679C45.2374 45.2521 45.55 45.4865 45.9052 45.6051C46.0644 45.6588 46.2349 45.6842 46.4054 45.6927C46.4395 45.6955 46.4708 45.6955 46.5021 45.6927C46.5333 45.6927 46.5589 45.6927 46.593 45.6927C46.6413 45.6927 46.6726 45.656 46.6868 45.6108C46.6868 45.5938 46.6896 45.5797 46.6868 45.5656L46.6896 45.526C46.7379 45.2125 46.7692 44.7324 46.7692 44.7324C46.8772 44.8058 47.4314 45.1419 47.4456 44.9781C47.5394 43.6083 47.6417 42.0859 47.4428 40.7048C47.4399 40.6596 47.3689 40.6596 47.366 40.7048C47.2239 42.0181 47.3177 43.3456 47.1955 44.6646C47.0165 44.5686 46.7266 44.3991 46.5617 44.3822C46.5163 44.3906 46.5191 45.3142 46.485 45.4526C46.485 45.4526 46.485 45.4582 46.4793 45.4667C45.9393 45.4667 45.5585 45.2577 45.0896 44.8369C45.0612 44.8086 45.0271 44.8341 45.047 44.8679H45.0526Z" fill="#263238"/>
<path d="M46.2415 45.509C46.2415 45.509 45.9118 45.8507 45.5111 45.9355C45.3633 45.9694 45.207 45.9694 45.0535 45.9072C44.7381 45.7801 44.7665 45.4807 44.8603 45.2322C44.937 45.0288 45.0564 44.8594 45.0564 44.8594C45.0564 44.8594 45.477 45.3649 46.2386 45.509H46.2415Z" fill="#263238"/>
<path d="M45.5111 45.9352C45.3633 45.9691 45.207 45.9691 45.0535 45.907C44.7381 45.7799 44.7665 45.4805 44.8603 45.2319C45.207 45.311 45.5253 45.5935 45.5111 45.938V45.9352Z" fill="#FF9ABB"/>
<path d="M45.5866 42.3687C45.5866 42.3517 45.5525 42.3828 45.5497 42.3997C45.4985 42.8065 45.3707 43.2612 44.9813 43.3374C44.9699 43.3374 44.9671 43.36 44.9813 43.36C45.4389 43.3685 45.6037 42.7613 45.5866 42.3687Z" fill="#263238"/>
<path d="M45.2911 41.888C44.646 41.7354 44.3874 43.029 44.9842 43.1702C45.5725 43.3086 45.8311 42.0151 45.2911 41.888Z" fill="#263238"/>
<path d="M47.9634 42.6773C47.9691 42.6632 47.9918 42.7027 47.9861 42.7197C47.8895 43.1179 47.8469 43.5896 48.1822 43.7958C48.1936 43.8014 48.1879 43.8212 48.1737 43.8184C47.7417 43.6658 47.8042 43.0388 47.9605 42.6773H47.9634Z" fill="#263238"/>
<path d="M48.4098 42.3353C49.0663 42.42 48.8503 43.7221 48.2393 43.643C47.6396 43.5667 47.8585 42.2647 48.4098 42.3353Z" fill="#263238"/>
<path d="M41.5461 40.7351C42.3873 39.6929 42.4271 37.4531 43.22 37.134C44.9366 36.4448 46.7753 39.6166 48.5914 40.2832C50.3505 40.93 51.3509 40.0149 51.5527 38.4784C51.7545 36.9419 50.8877 35.5495 49.0148 34.5412C47.0794 33.499 44.9138 33.6459 43.6633 33.9283C43.6633 33.9283 44.3682 33.3775 44.2801 33.0979C44.1948 32.8183 43.0807 33.1883 42.7113 33.3832C42.3361 33.5809 41.9724 34.0724 41.9724 34.0724C41.9724 34.0724 41.6853 33.8605 41.1965 33.6995C40.7446 33.5498 40.0512 33.6939 39.983 33.7871C39.9119 33.8803 40.5258 34.1938 40.9663 34.3774C40.9663 34.3774 39.7244 35.1823 39.3947 36.137C39.0679 37.0916 38.9087 42.1247 39.2469 42.3026C39.6817 42.5314 41.2022 41.1588 41.5432 40.7351H41.5461Z" fill="#455A64"/>
<path d="M41.1857 34.3259C41.2056 34.3231 41.217 34.3513 41.1971 34.3598C40.6344 34.5744 40.1285 34.8766 39.7534 35.3568C39.3157 35.9132 39.1111 36.6108 39.023 37.3028C38.8468 38.6472 39.0486 39.9973 39.1594 41.336C39.1622 41.3756 39.0969 41.3812 39.0912 41.3417C38.8809 39.9295 38.6961 38.4128 38.9406 36.9949C39.148 35.7861 39.8898 34.5773 41.1857 34.3259Z" fill="#455A64"/>
<path d="M43.3202 36.6475C43.863 36.7633 44.4229 37.0175 44.8804 37.3282C45.3323 37.6332 45.6478 38.0936 46.0059 38.4975C46.8102 39.3985 47.7565 40.2147 48.9388 40.5621C48.953 40.5678 48.9473 40.5876 48.9303 40.5847C47.8247 40.3362 46.9039 39.6499 46.1338 38.8449C45.7444 38.4382 45.4204 37.9439 44.9856 37.5852C44.4911 37.1813 43.8772 36.9695 43.2889 36.7436C43.2264 36.721 43.2548 36.6334 43.3174 36.6475H43.3202Z" fill="#455A64"/>
<path d="M44.9348 33.8212C45.7761 33.7166 46.6343 33.759 47.467 33.8946C48.2685 34.0245 49.0642 34.242 49.7776 34.6374C51.0053 35.3209 51.9062 36.5806 51.7243 38.0238C51.6334 38.7554 51.2924 39.4699 50.7183 39.9529C50.6785 39.984 50.6302 39.9303 50.6643 39.8964C51.6277 38.922 51.9347 37.4307 51.2497 36.2134C50.5165 34.9029 49.0387 34.29 47.6234 34.0217C46.7338 33.8522 45.8357 33.8183 44.932 33.8381C44.9263 33.8381 44.9263 33.8296 44.932 33.8268L44.9348 33.8212Z" fill="#455A64"/>
<path d="M44.1332 44.3789C43.3147 44.1529 42.7179 43.396 42.7378 42.5119C42.7605 41.4669 43.6359 40.6365 44.6845 40.6591C45.7361 40.6817 46.5716 41.5488 46.5489 42.5939C46.5262 43.6389 45.6508 44.4692 44.6021 44.4467C44.4401 44.4438 44.2838 44.4184 44.1332 44.3789ZM45.0853 40.9726C44.9545 40.9359 44.821 40.9162 44.6789 40.9133C43.7694 40.8936 43.0106 41.6138 42.9907 42.5176C42.9708 43.4214 43.6955 44.1755 44.605 44.1953C45.5144 44.2151 46.2732 43.4948 46.2931 42.591C46.3102 41.8256 45.7958 41.1704 45.0853 40.9726Z" fill="#37474F"/>
<path d="M48.4582 45.0225C47.7562 44.8277 47.3186 43.938 47.472 42.9607C47.5488 42.4693 47.7619 42.0259 48.0745 41.7152C48.3957 41.3932 48.785 41.2492 49.1659 41.3085C49.5495 41.3678 49.8735 41.622 50.081 42.0259C50.2828 42.4156 50.351 42.9042 50.2742 43.3957C50.1122 44.4266 49.3534 45.1694 48.5804 45.0508C48.5378 45.0451 48.498 45.0367 48.4582 45.0254V45.0225ZM49.2227 41.5768C49.1914 41.5683 49.1602 41.5627 49.1289 41.557C48.8305 41.5118 48.5207 41.6304 48.2564 41.8931C47.9836 42.1671 47.7932 42.5597 47.725 43.0003C47.5857 43.8956 47.9836 44.7006 48.623 44.7994C49.2568 44.8983 49.8877 44.2487 50.027 43.3561C50.0952 42.9155 50.0355 42.4834 49.8593 42.1417C49.7087 41.8479 49.4842 41.6502 49.2255 41.5796L49.2227 41.5768Z" fill="#37474F"/>
<path d="M46.451 42.8L46.3203 42.5825C46.6443 42.3876 47.3548 42.1702 47.7385 42.7294L47.5282 42.8706C47.1843 42.3679 46.4823 42.7802 46.4539 42.7972L46.451 42.8Z" fill="#37474F"/>
<path d="M37.9849 41.9835L37.7803 41.8338C37.8513 41.7378 38.4822 40.9018 39.0592 40.8989C39.5991 40.8989 42.9243 41.7321 43.0635 41.7688L43.001 42.0146C42.0489 41.7745 39.4769 41.1503 39.0592 41.1531C38.6783 41.1531 38.1554 41.7547 37.9849 41.9835Z" fill="#37474F"/>
<path d="M40.8617 41.8823C40.8617 41.8823 40.0347 39.6595 39.0542 39.9052C38.0737 40.1509 38.3494 43.1335 39.2588 43.769C40.1683 44.4045 40.7765 43.5797 40.7765 43.5797L40.8646 41.8851L40.8617 41.8823Z" fill="#FFB6B6"/>
<path d="M39.1543 40.7558C39.1372 40.7501 39.1287 40.7727 39.1429 40.7812C39.7738 41.25 39.9756 41.9957 40.058 42.7385C39.9159 42.425 39.6687 42.2075 39.2538 42.3657C39.231 42.3742 39.2424 42.408 39.2623 42.408C39.5692 42.4222 39.7625 42.5267 39.8989 42.8063C39.9955 43.004 40.0353 43.2356 40.0836 43.4502C40.1007 43.5209 40.2229 43.518 40.2172 43.439C40.2172 43.4333 40.2172 43.4277 40.2172 43.422C40.4701 42.5323 40.1007 41.0975 39.1571 40.7558H39.1543Z" fill="#263238"/>
</g>
</g>
<defs>
<clipPath id="clip0_34_3720">
<path d="M0 8C0 3.58172 3.58172 0 8 0H112V112H8C3.58172 112 0 108.418 0 104V8Z" fill="white"/>
</clipPath>
<clipPath id="clip1_34_3720">
<rect width="105" height="87.7059" fill="white" transform="translate(13 33)"/>
</clipPath>
</defs>
</svg>
