<svg width="16" height="16" viewBox="0 0 16 16" fill="none" xmlns="http://www.w3.org/2000/svg">
<g clip-path="url(#clip0_34_2929)">
<path d="M15.2625 9.5C14.7 9.5 14.15 9.275 13.75 8.875C13.35 9.275 12.8125 9.5 12.2375 9.5H6.875C6.1875 9.5 5.625 8.9375 5.625 8.25V1.375C5.625 0.6875 6.1875 0.125 6.875 0.125H13.75C14.4375 0.125 15 0.6875 15 1.375V6.9C15 7.65 15.3125 8.35 15.825 8.8625C16.0625 9.1 15.9 9.5125 15.5625 9.5125H15.2625V9.5Z" fill="#344054"/>
<path d="M12.6 6.4875L10.725 1.4875C10.675 1.35 10.5375 1.25 10.375 1.25C10.2125 1.25 10.075 1.35 10.025 1.4875L8.375 5.75H11.525L11.9 6.7625C11.9625 6.9125 12.1 7 12.25 7C12.3 7 12.3375 6.9875 12.3875 6.975C12.575 6.9 12.675 6.6875 12.6 6.4875ZM9.5125 5L10.375 2.6875L11.2375 5H9.5125Z" fill="white"/>
<path d="M13.375 15.125C13.2755 15.125 13.1802 15.1645 13.1098 15.2348C13.0395 15.3052 13 15.4005 13 15.5C13 15.5995 13.0395 15.6948 13.1098 15.7652C13.1802 15.8355 13.2755 15.875 13.375 15.875C13.4745 15.875 13.5698 15.8355 13.6402 15.7652C13.7105 15.6948 13.75 15.5995 13.75 15.5C13.75 15.4005 13.7105 15.3052 13.6402 15.2348C13.5698 15.1645 13.4745 15.125 13.375 15.125Z" fill="#344054"/>
<path d="M11.75 15.5H10.1375C9.575 15.5 9.025 15.275 8.625 14.875C8.225 15.275 7.6875 15.5 7.1125 15.5H1.75C1.0625 15.5 0.5 14.9375 0.5 14.25V7.375C0.5 6.6875 1.0625 6.125 1.75 6.125H8.625C9.3125 6.125 9.875 6.6875 9.875 7.375V12.9C9.875 14.075 10.625 15.125 11.75 15.5Z" fill="white"/>
<path d="M6.94962 10.4252C6.94962 10.4127 6.96212 10.4002 6.96212 10.4002C7.01212 10.2002 6.89962 10.0002 6.69962 9.93769C6.52462 9.88769 6.33712 9.97519 6.26212 10.1377C6.22462 10.1252 6.18712 10.1252 6.14962 10.1127C5.74962 10.0377 5.31212 10.0502 4.87462 10.1377C4.87462 9.85019 4.88712 9.58769 4.89962 9.35019H7.48712C7.69962 9.35019 7.86212 9.18769 7.86212 8.97519C7.86212 8.76269 7.69962 8.60019 7.48712 8.60019H4.96212C5.01212 8.23769 5.04962 8.02519 5.04962 8.02519C5.08712 7.82519 4.96212 7.62519 4.76212 7.58769C4.56212 7.55019 4.36212 7.67519 4.32462 7.87519C4.31212 7.91269 4.26212 8.17519 4.21212 8.61269H3.07462C2.86212 8.61269 2.69962 8.77519 2.69962 8.98769C2.69962 9.20019 2.86212 9.36269 3.07462 9.36269H4.14962C4.12462 9.66269 4.12462 10.0127 4.12462 10.3752C3.84962 10.4877 3.59962 10.6252 3.36212 10.8002C2.82462 11.2002 2.47462 11.7377 2.41212 12.2877C2.36212 12.7252 2.48712 13.1502 2.77462 13.5002C3.11212 13.9127 3.57462 14.0877 4.03712 14.0877C4.42462 14.0877 4.81212 13.9627 5.11212 13.7377C5.87462 13.1752 6.41212 11.9877 6.69962 11.2002C6.76212 11.2627 6.81212 11.3252 6.86212 11.4002C7.34962 12.1877 6.97462 12.6502 6.29962 13.3252C6.26212 13.3627 6.21212 13.4002 6.17462 13.4502C6.02462 13.6002 6.02462 13.8377 6.17462 13.9752C6.32462 14.1252 6.56212 14.1252 6.69962 13.9752C6.73712 13.9377 6.77462 13.9002 6.81212 13.8627C7.37462 13.3002 8.33712 12.3627 7.48712 11.0127C7.36212 10.7627 7.17462 10.5752 6.94962 10.4252ZM3.34962 13.0002C3.18712 12.8127 3.12462 12.5877 3.14962 12.3502C3.18712 12.0127 3.43712 11.6502 3.79962 11.3752C3.91212 11.3002 4.02462 11.2252 4.14962 11.1627C4.19962 11.8127 4.32462 12.5002 4.53712 13.1877C4.21212 13.3627 3.68712 13.4127 3.34962 13.0002ZM5.14962 12.6002C4.99962 12.0252 4.92462 11.4502 4.88712 10.9002C5.12462 10.8502 5.34962 10.8127 5.57462 10.8127C5.72462 10.8127 5.86212 10.8252 5.99962 10.8502C6.01212 10.8502 6.01212 10.8502 6.02462 10.8502C5.82462 11.4002 5.52462 12.0877 5.14962 12.6002Z" fill="#344054"/>
<path d="M11.725 15.875H10.125C9.4625 15.875 8.8375 15.6125 8.3625 15.15C8.2375 15.025 8.2 14.8375 8.2875 14.6875C8.425 14.45 8.725 14.425 8.9 14.6125C9.2125 14.9625 9.6875 15.1125 10.15 15.1125H10.425C9.85 14.5375 9.5 13.75 9.5 12.8875V7.375C9.5 6.8875 9.1125 6.5 8.625 6.5H1.75C1.2625 6.5 0.875 6.8875 0.875 7.375V14.25C0.875 14.7375 1.2625 15.125 1.75 15.125H7.0875C7.2875 15.125 7.475 15.275 7.4875 15.4875C7.5 15.7 7.325 15.875 7.1125 15.875H1.75C0.85 15.875 0.125 15.15 0.125 14.25V7.375C0.125 6.475 0.85 5.75 1.75 5.75H8.375C8.375 5.75 10.25 6.625 10.25 6.5625V12.9C10.25 13.925 10.9 14.825 11.8625 15.15C12.0625 15.2125 12.175 15.45 12.0875 15.6625C12.0375 15.7875 11.8875 15.875 11.725 15.875Z" fill="#344054"/>
</g>
<defs>
<clipPath id="clip0_34_2929">
<rect width="16" height="16" fill="white"/>
</clipPath>
</defs>
</svg>
