<svg width="20" height="22" viewBox="0 0 20 22" fill="none" xmlns="http://www.w3.org/2000/svg">
<path d="M10 10.5C8.6215 10.5 7.5 9.3785 7.5 8C7.5 6.6215 8.6215 5.5 10 5.5C11.3785 5.5 12.5 6.6215 12.5 8C12.5 9.3785 11.3785 10.5 10 10.5ZM10 16.5C7.4345 16.5 5.5 15.1995 5.5 13.4745V13.026C5.5 12.1845 6.1845 11.5 7.026 11.5H12.974C13.8155 11.5 14.5 12.1845 14.5 13.0255V13.474C14.5 15.1995 12.5655 16.5 10 16.5ZM2.25 13.5C1.78587 13.5 1.34075 13.6844 1.01256 14.0126C0.684375 14.3408 0.5 14.7859 0.5 15.25C0.5 15.7141 0.684375 16.1592 1.01256 16.4874C1.34075 16.8156 1.78587 17 2.25 17C2.71413 17 3.15925 16.8156 3.48744 16.4874C3.81563 16.1592 4 15.7141 4 15.25C4 14.7859 3.81563 14.3408 3.48744 14.0126C3.15925 13.6844 2.71413 13.5 2.25 13.5ZM17.75 13.5C17.2859 13.5 16.8408 13.6844 16.5126 14.0126C16.1844 14.3408 16 14.7859 16 15.25C16 15.7141 16.1844 16.1592 16.5126 16.4874C16.8408 16.8156 17.2859 17 17.75 17C18.2141 17 18.6592 16.8156 18.9874 16.4874C19.3156 16.1592 19.5 15.7141 19.5 15.25C19.5 14.7859 19.3156 14.3408 18.9874 14.0126C18.6592 13.6844 18.2141 13.5 17.75 13.5ZM17.75 5C17.5202 5 17.2926 5.04526 17.0803 5.13321C16.868 5.22116 16.6751 5.35006 16.5126 5.51256C16.3501 5.67507 16.2212 5.86798 16.1332 6.0803C16.0453 6.29262 16 6.52019 16 6.75C16 6.97981 16.0453 7.20738 16.1332 7.4197C16.2212 7.63202 16.3501 7.82493 16.5126 7.98744C16.6751 8.14994 16.868 8.27884 17.0803 8.36679C17.2926 8.45473 17.5202 8.5 17.75 8.5C17.9798 8.5 18.2074 8.45473 18.4197 8.36679C18.632 8.27884 18.8249 8.14994 18.9874 7.98744C19.1499 7.82493 19.2788 7.63202 19.3668 7.4197C19.4547 7.20738 19.5 6.97981 19.5 6.75C19.5 6.52019 19.4547 6.29262 19.3668 6.0803C19.2788 5.86798 19.1499 5.67507 18.9874 5.51256C18.8249 5.35006 18.632 5.22116 18.4197 5.13321C18.2074 5.04526 17.9798 5 17.75 5ZM10 0.5C9.77019 0.5 9.54262 0.545265 9.3303 0.633211C9.11798 0.721157 8.92507 0.850061 8.76256 1.01256C8.60006 1.17507 8.47116 1.36798 8.38321 1.5803C8.29527 1.79262 8.25 2.02019 8.25 2.25C8.25 2.47981 8.29527 2.70738 8.38321 2.9197C8.47116 3.13202 8.60006 3.32493 8.76256 3.48744C8.92507 3.64994 9.11798 3.77884 9.3303 3.86679C9.54262 3.95474 9.77019 4 10 4C10.2298 4 10.4574 3.95474 10.6697 3.86679C10.882 3.77884 11.0749 3.64994 11.2374 3.48744C11.3999 3.32493 11.5288 3.13202 11.6168 2.9197C11.7047 2.70738 11.75 2.47981 11.75 2.25C11.75 2.02019 11.7047 1.79262 11.6168 1.5803C11.5288 1.36798 11.3999 1.17507 11.2374 1.01256C11.0749 0.850061 10.882 0.721157 10.6697 0.633211C10.4574 0.545265 10.2298 0.5 10 0.5ZM10 18C9.53587 18 9.09075 18.1844 8.76256 18.5126C8.43437 18.8408 8.25 19.2859 8.25 19.75C8.25 20.2141 8.43437 20.6592 8.76256 20.9874C9.09075 21.3156 9.53587 21.5 10 21.5C10.4641 21.5 10.9092 21.3156 11.2374 20.9874C11.5656 20.6592 11.75 20.2141 11.75 19.75C11.75 19.2859 11.5656 18.8408 11.2374 18.5126C10.9092 18.1844 10.4641 18 10 18ZM2.25 5C2.02019 5 1.79262 5.04526 1.5803 5.13321C1.36798 5.22116 1.17507 5.35006 1.01256 5.51256C0.85006 5.67507 0.721157 5.86798 0.633211 6.0803C0.545265 6.29262 0.5 6.52019 0.5 6.75C0.5 6.97981 0.545265 7.20738 0.633211 7.4197C0.721157 7.63202 0.85006 7.82493 1.01256 7.98744C1.17507 8.14994 1.36798 8.27884 1.5803 8.36679C1.79262 8.45473 2.02019 8.5 2.25 8.5C2.47981 8.5 2.70738 8.45473 2.9197 8.36679C3.13202 8.27884 3.32493 8.14994 3.48744 7.98744C3.64994 7.82493 3.77884 7.63202 3.86679 7.4197C3.95474 7.20738 4 6.97981 4 6.75C4 6.52019 3.95474 6.29262 3.86679 6.0803C3.77884 5.86798 3.64994 5.67507 3.48744 5.51256C3.32493 5.35006 3.13202 5.22116 2.9197 5.13321C2.70738 5.04526 2.47981 5 2.25 5Z" fill="#1D2939"/>
</svg>
