<svg width="24" height="24" viewBox="0 0 24 24" fill="none" xmlns="http://www.w3.org/2000/svg">
<path d="M12 11.5C10.6215 11.5 9.5 10.3785 9.5 9C9.5 7.6215 10.6215 6.5 12 6.5C13.3785 6.5 14.5 7.6215 14.5 9C14.5 10.3785 13.3785 11.5 12 11.5ZM12 17.5C9.4345 17.5 7.5 16.1995 7.5 14.4745V14.026C7.5 13.1845 8.1845 12.5 9.026 12.5H14.974C15.8155 12.5 16.5 13.1845 16.5 14.0255V14.474C16.5 16.1995 14.5655 17.5 12 17.5ZM4.25 14.5C3.78587 14.5 3.34075 14.6844 3.01256 15.0126C2.68437 15.3408 2.5 15.7859 2.5 16.25C2.5 16.7141 2.68437 17.1592 3.01256 17.4874C3.34075 17.8156 3.78587 18 4.25 18C4.71413 18 5.15925 17.8156 5.48744 17.4874C5.81563 17.1592 6 16.7141 6 16.25C6 15.7859 5.81563 15.3408 5.48744 15.0126C5.15925 14.6844 4.71413 14.5 4.25 14.5ZM19.75 14.5C19.2859 14.5 18.8408 14.6844 18.5126 15.0126C18.1844 15.3408 18 15.7859 18 16.25C18 16.7141 18.1844 17.1592 18.5126 17.4874C18.8408 17.8156 19.2859 18 19.75 18C20.2141 18 20.6592 17.8156 20.9874 17.4874C21.3156 17.1592 21.5 16.7141 21.5 16.25C21.5 15.7859 21.3156 15.3408 20.9874 15.0126C20.6592 14.6844 20.2141 14.5 19.75 14.5ZM19.75 6C19.5202 6 19.2926 6.04526 19.0803 6.13321C18.868 6.22116 18.6751 6.35006 18.5126 6.51256C18.3501 6.67507 18.2212 6.86798 18.1332 7.0803C18.0453 7.29262 18 7.52019 18 7.75C18 7.97981 18.0453 8.20738 18.1332 8.4197C18.2212 8.63202 18.3501 8.82493 18.5126 8.98744C18.6751 9.14994 18.868 9.27884 19.0803 9.36679C19.2926 9.45473 19.5202 9.5 19.75 9.5C19.9798 9.5 20.2074 9.45473 20.4197 9.36679C20.632 9.27884 20.8249 9.14994 20.9874 8.98744C21.1499 8.82493 21.2788 8.63202 21.3668 8.4197C21.4547 8.20738 21.5 7.97981 21.5 7.75C21.5 7.52019 21.4547 7.29262 21.3668 7.0803C21.2788 6.86798 21.1499 6.67507 20.9874 6.51256C20.8249 6.35006 20.632 6.22116 20.4197 6.13321C20.2074 6.04526 19.9798 6 19.75 6ZM12 1.5C11.7702 1.5 11.5426 1.54527 11.3303 1.63321C11.118 1.72116 10.9251 1.85006 10.7626 2.01256C10.6001 2.17507 10.4712 2.36798 10.3832 2.5803C10.2953 2.79262 10.25 3.02019 10.25 3.25C10.25 3.47981 10.2953 3.70738 10.3832 3.9197C10.4712 4.13202 10.6001 4.32493 10.7626 4.48744C10.9251 4.64994 11.118 4.77884 11.3303 4.86679C11.5426 4.95474 11.7702 5 12 5C12.2298 5 12.4574 4.95474 12.6697 4.86679C12.882 4.77884 13.0749 4.64994 13.2374 4.48744C13.3999 4.32493 13.5288 4.13202 13.6168 3.9197C13.7047 3.70738 13.75 3.47981 13.75 3.25C13.75 3.02019 13.7047 2.79262 13.6168 2.5803C13.5288 2.36798 13.3999 2.17507 13.2374 2.01256C13.0749 1.85006 12.882 1.72116 12.6697 1.63321C12.4574 1.54527 12.2298 1.5 12 1.5ZM12 19C11.5359 19 11.0908 19.1844 10.7626 19.5126C10.4344 19.8408 10.25 20.2859 10.25 20.75C10.25 21.2141 10.4344 21.6592 10.7626 21.9874C11.0908 22.3156 11.5359 22.5 12 22.5C12.4641 22.5 12.9092 22.3156 13.2374 21.9874C13.5656 21.6592 13.75 21.2141 13.75 20.75C13.75 20.2859 13.5656 19.8408 13.2374 19.5126C12.9092 19.1844 12.4641 19 12 19ZM4.25 6C4.02019 6 3.79262 6.04526 3.5803 6.13321C3.36798 6.22116 3.17507 6.35006 3.01256 6.51256C2.85006 6.67507 2.72116 6.86798 2.63321 7.0803C2.54527 7.29262 2.5 7.52019 2.5 7.75C2.5 7.97981 2.54527 8.20738 2.63321 8.4197C2.72116 8.63202 2.85006 8.82493 3.01256 8.98744C3.17507 9.14994 3.36798 9.27884 3.5803 9.36679C3.79262 9.45473 4.02019 9.5 4.25 9.5C4.47981 9.5 4.70738 9.45473 4.9197 9.36679C5.13202 9.27884 5.32493 9.14994 5.48744 8.98744C5.64994 8.82493 5.77884 8.63202 5.86679 8.4197C5.95474 8.20738 6 7.97981 6 7.75C6 7.52019 5.95474 7.29262 5.86679 7.0803C5.77884 6.86798 5.64994 6.67507 5.48744 6.51256C5.32493 6.35006 5.13202 6.22116 4.9197 6.13321C4.70738 6.04526 4.47981 6 4.25 6Z" fill="#1D2939"/>
</svg>
