<svg width="28" height="28" viewBox="0 0 28 28" fill="none" xmlns="http://www.w3.org/2000/svg">
<path d="M14.0003 0.666748C6.64833 0.666748 0.666992 6.64808 0.666992 14.0001C0.666992 21.3521 6.64833 27.3334 14.0003 27.3334C21.3523 27.3334 27.3337 21.3521 27.3337 14.0001C27.3337 6.64808 21.3523 0.666748 14.0003 0.666748ZM19.667 15.0001H15.0003V19.6667C15.0003 20.2194 14.5523 20.6667 14.0003 20.6667C13.4483 20.6667 13.0003 20.2194 13.0003 19.6667V15.0001H8.33366C7.78166 15.0001 7.33366 14.5527 7.33366 14.0001C7.33366 13.4474 7.78166 13.0001 8.33366 13.0001H13.0003V8.33341C13.0003 7.78075 13.4483 7.33341 14.0003 7.33341C14.5523 7.33341 15.0003 7.78075 15.0003 8.33341V13.0001H19.667C20.219 13.0001 20.667 13.4474 20.667 14.0001C20.667 14.5527 20.219 15.0001 19.667 15.0001Z" fill="#27A3A3"/>
</svg>
