<svg width="159" height="38" viewBox="0 0 159 38" fill="none" xmlns="http://www.w3.org/2000/svg">
<path d="M49.7055 30.0464H46.8221L46.2909 31.5166H45.3804L47.7706 24.9436H48.7665L51.1472 31.5166H50.2366L49.7055 30.0464ZM49.4589 29.3446L48.2638 26.0059L47.0687 29.3446H49.4589ZM54.3325 26.2335C54.7814 26.2335 55.1735 26.3315 55.5086 26.5275C55.8501 26.7236 56.103 26.9702 56.2674 27.2674V26.3189H57.14V31.6304C57.14 32.1047 57.0388 32.5252 56.8365 32.8919C56.6342 33.265 56.3433 33.5559 55.9639 33.7645C55.5908 33.9732 55.1545 34.0775 54.655 34.0775C53.9721 34.0775 53.403 33.9163 52.9477 33.5938C52.4924 33.2713 52.2237 32.8318 52.1415 32.2754H52.9951C53.09 32.5916 53.286 32.8445 53.5832 33.0342C53.8804 33.2302 54.2376 33.3282 54.655 33.3282C55.1292 33.3282 55.5149 33.1796 55.8121 32.8824C56.1157 32.5852 56.2674 32.1679 56.2674 31.6304V30.5397C56.0967 30.8432 55.8438 31.0961 55.5086 31.2984C55.1735 31.5008 54.7814 31.602 54.3325 31.602C53.8709 31.602 53.4504 31.4881 53.071 31.2605C52.6979 31.0329 52.4039 30.7135 52.1889 30.3025C51.9739 29.8915 51.8664 29.4236 51.8664 28.8988C51.8664 28.3676 51.9739 27.9029 52.1889 27.5045C52.4039 27.0998 52.6979 26.7868 53.071 26.5655C53.4504 26.3442 53.8709 26.2335 54.3325 26.2335ZM56.2674 28.9083C56.2674 28.5162 56.1884 28.1748 56.0303 27.8839C55.8722 27.593 55.6572 27.3717 55.3853 27.2199C55.1197 27.0619 54.8257 26.9828 54.5032 26.9828C54.1807 26.9828 53.8867 27.0587 53.6211 27.2105C53.3555 27.3622 53.1437 27.5835 52.9856 27.8744C52.8276 28.1653 52.7485 28.5067 52.7485 28.8988C52.7485 29.2971 52.8276 29.6449 52.9856 29.9421C53.1437 30.233 53.3555 30.4575 53.6211 30.6155C53.8867 30.7673 54.1807 30.8432 54.5032 30.8432C54.8257 30.8432 55.1197 30.7673 55.3853 30.6155C55.6572 30.4575 55.8722 30.233 56.0303 29.9421C56.1884 29.6449 56.2674 29.3003 56.2674 28.9083ZM63.3411 28.7186C63.3411 28.883 63.3316 29.0569 63.3126 29.2402H59.1582C59.1898 29.7524 59.3637 30.1539 59.6799 30.4448C60.0024 30.7294 60.3913 30.8716 60.8465 30.8716C61.2196 30.8716 61.5295 30.7863 61.7761 30.6155C62.029 30.4385 62.206 30.2045 62.3072 29.9137H63.2367C63.0976 30.4132 62.8194 30.821 62.4021 31.1372C61.9847 31.447 61.4662 31.602 60.8465 31.602C60.3533 31.602 59.9107 31.4913 59.5187 31.27C59.1329 31.0487 58.8294 30.7357 58.6081 30.331C58.3868 29.92 58.2761 29.4457 58.2761 28.9083C58.2761 28.3708 58.3836 27.8997 58.5986 27.495C58.8136 27.0903 59.114 26.7805 59.4997 26.5655C59.8917 26.3442 60.3407 26.2335 60.8465 26.2335C61.3398 26.2335 61.7761 26.341 62.1555 26.556C62.5349 26.771 62.8257 27.0682 63.0281 27.4476C63.2367 27.8207 63.3411 28.2443 63.3411 28.7186ZM62.4495 28.5383C62.4495 28.2095 62.3768 27.9282 62.2313 27.6942C62.0859 27.4539 61.8867 27.2737 61.6338 27.1536C61.3872 27.0271 61.1121 26.9639 60.8086 26.9639C60.3723 26.9639 59.9992 27.103 59.6894 27.3812C59.3859 27.6594 59.212 28.0451 59.1677 28.5383H62.4495ZM67.0128 26.224C67.6452 26.224 68.1573 26.4169 68.5494 26.8026C68.9414 27.182 69.1374 27.7321 69.1374 28.453V31.5166H68.2838V28.5763C68.2838 28.0578 68.1542 27.6626 67.8949 27.3907C67.6357 27.1124 67.2816 26.9733 66.8326 26.9733C66.3773 26.9733 66.0138 27.1156 65.7419 27.4002C65.4763 27.6847 65.3435 28.0989 65.3435 28.6427V31.5166H64.4804V26.3189H65.3435V27.0587C65.5142 26.7931 65.745 26.5876 66.0359 26.4422C66.3331 26.2967 66.6587 26.224 67.0128 26.224ZM71.6002 27.0302V30.0939C71.6002 30.3468 71.6539 30.527 71.7614 30.6345C71.8689 30.7357 72.0555 30.7863 72.321 30.7863H72.9565V31.5166H72.1788C71.6982 31.5166 71.3378 31.4059 71.0975 31.1846C70.8572 30.9633 70.7371 30.5997 70.7371 30.0939V27.0302H70.0636V26.3189H70.7371V25.01H71.6002V26.3189H72.9565V27.0302H71.6002ZM79.5282 31.583C78.9149 31.583 78.3553 31.4407 77.8494 31.1562C77.3435 30.8653 76.942 30.4638 76.6448 29.9516C76.3539 29.4331 76.2085 28.8513 76.2085 28.2064C76.2085 27.5614 76.3539 26.9828 76.6448 26.4706C76.942 25.9521 77.3435 25.5506 77.8494 25.2661C78.3553 24.9752 78.9149 24.8298 79.5282 24.8298C80.1479 24.8298 80.7107 24.9752 81.2165 25.2661C81.7224 25.5506 82.1208 25.949 82.4116 26.4612C82.7025 26.9733 82.8479 27.5551 82.8479 28.2064C82.8479 28.8577 82.7025 29.4394 82.4116 29.9516C82.1208 30.4638 81.7224 30.8653 81.2165 31.1562C80.7107 31.4407 80.1479 31.583 79.5282 31.583ZM79.5282 30.8337C79.9898 30.8337 80.404 30.7262 80.7707 30.5112C81.1438 30.2962 81.4347 29.9895 81.6434 29.5912C81.8583 29.1928 81.9658 28.7312 81.9658 28.2064C81.9658 27.6752 81.8583 27.2136 81.6434 26.8216C81.4347 26.4232 81.147 26.1165 80.7802 25.9015C80.4135 25.6866 79.9961 25.5791 79.5282 25.5791C79.0603 25.5791 78.643 25.6866 78.2762 25.9015C77.9095 26.1165 77.6186 26.4232 77.4036 26.8216C77.1949 27.2136 77.0906 27.6752 77.0906 28.2064C77.0906 28.7312 77.1949 29.1928 77.4036 29.5912C77.6186 29.9895 77.9095 30.2962 78.2762 30.5112C78.6493 30.7262 79.0666 30.8337 79.5282 30.8337ZM84.8505 27.163C85.0023 26.8658 85.2173 26.635 85.4955 26.4706C85.78 26.3062 86.1246 26.224 86.5293 26.224V27.1156H86.3017C85.3342 27.1156 84.8505 27.6404 84.8505 28.6901V31.5166H83.9874V26.3189H84.8505V27.163ZM89.6693 26.2335C90.1182 26.2335 90.5103 26.3315 90.8454 26.5275C91.1869 26.7236 91.4398 26.9702 91.6042 27.2674V26.3189H92.4768V31.6304C92.4768 32.1047 92.3756 32.5252 92.1733 32.8919C91.9709 33.265 91.6801 33.5559 91.3007 33.7645C90.9276 33.9732 90.4913 34.0775 89.9918 34.0775C89.3088 34.0775 88.7398 33.9163 88.2845 33.5938C87.8292 33.2713 87.5605 32.8318 87.4783 32.2754H88.3319C88.4268 32.5916 88.6228 32.8445 88.92 33.0342C89.2172 33.2302 89.5744 33.3282 89.9918 33.3282C90.466 33.3282 90.8517 33.1796 91.1489 32.8824C91.4524 32.5852 91.6042 32.1679 91.6042 31.6304V30.5397C91.4335 30.8432 91.1805 31.0961 90.8454 31.2984C90.5103 31.5008 90.1182 31.602 89.6693 31.602C89.2077 31.602 88.7872 31.4881 88.4078 31.2605C88.0347 31.0329 87.7407 30.7135 87.5257 30.3025C87.3107 29.8915 87.2032 29.4236 87.2032 28.8988C87.2032 28.3676 87.3107 27.9029 87.5257 27.5045C87.7407 27.0998 88.0347 26.7868 88.4078 26.5655C88.7872 26.3442 89.2077 26.2335 89.6693 26.2335ZM91.6042 28.9083C91.6042 28.5162 91.5252 28.1748 91.3671 27.8839C91.209 27.593 90.994 27.3717 90.7221 27.2199C90.4565 27.0619 90.1625 26.9828 89.84 26.9828C89.5175 26.9828 89.2235 27.0587 88.9579 27.2105C88.6923 27.3622 88.4805 27.5835 88.3224 27.8744C88.1643 28.1653 88.0853 28.5067 88.0853 28.8988C88.0853 29.2971 88.1643 29.6449 88.3224 29.9421C88.4805 30.233 88.6923 30.4575 88.9579 30.6155C89.2235 30.7673 89.5175 30.8432 89.84 30.8432C90.1625 30.8432 90.4565 30.7673 90.7221 30.6155C90.994 30.4575 91.209 30.233 91.3671 29.9421C91.5252 29.6449 91.6042 29.3003 91.6042 28.9083ZM93.6129 28.8988C93.6129 28.3676 93.7204 27.9029 93.9354 27.5045C94.1504 27.0998 94.4444 26.7868 94.8175 26.5655C95.1969 26.3442 95.6174 26.2335 96.079 26.2335C96.5343 26.2335 96.9295 26.3315 97.2646 26.5275C97.5997 26.7236 97.8495 26.9702 98.0139 27.2674V26.3189H98.8865V31.5166H98.0139V30.5491C97.8432 30.8527 97.5871 31.1056 97.2456 31.3079C96.9105 31.504 96.5185 31.602 96.0695 31.602C95.6079 31.602 95.1906 31.4881 94.8175 31.2605C94.4444 31.0329 94.1504 30.7135 93.9354 30.3025C93.7204 29.8915 93.6129 29.4236 93.6129 28.8988ZM98.0139 28.9083C98.0139 28.5162 97.9349 28.1748 97.7768 27.8839C97.6187 27.593 97.4037 27.3717 97.1318 27.2199C96.8662 27.0619 96.5722 26.9828 96.2497 26.9828C95.9272 26.9828 95.6332 27.0587 95.3676 27.2105C95.102 27.3622 94.8902 27.5835 94.7321 27.8744C94.5741 28.1653 94.495 28.5067 94.495 28.8988C94.495 29.2971 94.5741 29.6449 94.7321 29.9421C94.8902 30.233 95.102 30.4575 95.3676 30.6155C95.6332 30.7673 95.9272 30.8432 96.2497 30.8432C96.5722 30.8432 96.8662 30.7673 97.1318 30.6155C97.4037 30.4575 97.6187 30.233 97.7768 29.9421C97.9349 29.6449 98.0139 29.3003 98.0139 28.9083ZM102.878 26.224C103.51 26.224 104.022 26.4169 104.414 26.8026C104.806 27.182 105.002 27.7321 105.002 28.453V31.5166H104.149V28.5763C104.149 28.0578 104.019 27.6626 103.76 27.3907C103.5 27.1124 103.146 26.9733 102.697 26.9733C102.242 26.9733 101.879 27.1156 101.607 27.4002C101.341 27.6847 101.208 28.0989 101.208 28.6427V31.5166H100.345V26.3189H101.208V27.0587C101.379 26.7931 101.61 26.5876 101.901 26.4422C102.198 26.2967 102.523 26.224 102.878 26.224ZM106.858 25.4747C106.693 25.4747 106.554 25.4178 106.441 25.304C106.327 25.1902 106.27 25.0511 106.27 24.8867C106.27 24.7223 106.327 24.5831 106.441 24.4693C106.554 24.3555 106.693 24.2986 106.858 24.2986C107.016 24.2986 107.149 24.3555 107.256 24.4693C107.37 24.5831 107.427 24.7223 107.427 24.8867C107.427 25.0511 107.37 25.1902 107.256 25.304C107.149 25.4178 107.016 25.4747 106.858 25.4747ZM107.275 26.3189V31.5166H106.412V26.3189H107.275ZM109.391 30.8052H111.943V31.5166H108.405V30.8052L110.928 27.0208H108.424V26.3189H111.924V27.0208L109.391 30.8052ZM117.805 28.7186C117.805 28.883 117.796 29.0569 117.777 29.2402H113.622C113.654 29.7524 113.828 30.1539 114.144 30.4448C114.466 30.7294 114.855 30.8716 115.311 30.8716C115.684 30.8716 115.993 30.7863 116.24 30.6155C116.493 30.4385 116.67 30.2045 116.771 29.9137H117.701C117.562 30.4132 117.283 30.821 116.866 31.1372C116.449 31.447 115.93 31.602 115.311 31.602C114.817 31.602 114.375 31.4913 113.983 31.27C113.597 31.0487 113.293 30.7357 113.072 30.331C112.851 29.92 112.74 29.4457 112.74 28.9083C112.74 28.3708 112.848 27.8997 113.063 27.495C113.278 27.0903 113.578 26.7805 113.964 26.5655C114.356 26.3442 114.805 26.2335 115.311 26.2335C115.804 26.2335 116.24 26.341 116.619 26.556C116.999 26.771 117.29 27.0682 117.492 27.4476C117.701 27.8207 117.805 28.2443 117.805 28.7186ZM116.914 28.5383C116.914 28.2095 116.841 27.9282 116.695 27.6942C116.55 27.4539 116.351 27.2737 116.098 27.1536C115.851 27.0271 115.576 26.9639 115.273 26.9639C114.836 26.9639 114.463 27.103 114.153 27.3812C113.85 27.6594 113.676 28.0451 113.632 28.5383H116.914ZM119.808 27.163C119.959 26.8658 120.174 26.635 120.452 26.4706C120.737 26.3062 121.082 26.224 121.486 26.224V27.1156H121.259C120.291 27.1156 119.808 27.6404 119.808 28.6901V31.5166H118.944V26.3189H119.808V27.163Z" fill="#3A3A3A"/>
<path d="M54.1115 9.60901C54.1115 10.1246 53.9899 10.611 53.7467 11.0682C53.5035 11.5254 53.1144 11.9 52.5793 12.1918C52.0443 12.4739 51.3584 12.615 50.5218 12.615H48.6832V16.73H47.0197V6.58844H50.5218C51.3001 6.58844 51.9567 6.72463 52.4918 6.99702C53.0365 7.25968 53.4402 7.61962 53.7029 8.07684C53.9753 8.53406 54.1115 9.04478 54.1115 9.60901ZM50.5218 11.2579C51.1541 11.2579 51.626 11.1169 51.9373 10.8348C52.2486 10.5429 52.4042 10.1343 52.4042 9.60901C52.4042 8.50001 51.7767 7.94551 50.5218 7.94551H48.6832V11.2579H50.5218ZM57.3615 9.85708C57.6047 9.4485 57.9258 9.13234 58.3246 8.90859C58.7332 8.67512 59.2147 8.55838 59.7692 8.55838V10.2803H59.3461C58.6943 10.2803 58.1982 10.4456 57.8577 10.7764C57.5269 11.1071 57.3615 11.6811 57.3615 12.4983V16.73H55.698V8.68971H57.3615V9.85708ZM64.7859 16.8613C64.0271 16.8613 63.3412 16.6911 62.7284 16.3506C62.1155 16.0004 61.634 15.514 61.2838 14.8914C60.9335 14.259 60.7584 13.5294 60.7584 12.7025C60.7584 11.8854 60.9384 11.1606 61.2983 10.5283C61.6583 9.89599 62.1496 9.40959 62.7722 9.0691C63.3948 8.72862 64.0903 8.55838 64.8588 8.55838C65.6273 8.55838 66.3229 8.72862 66.9455 9.0691C67.5681 9.40959 68.0594 9.89599 68.4193 10.5283C68.7793 11.1606 68.9592 11.8854 68.9592 12.7025C68.9592 13.5197 68.7744 14.2445 68.4047 14.8768C68.0351 15.5091 67.5292 16.0004 66.8871 16.3506C66.2548 16.6911 65.5544 16.8613 64.7859 16.8613ZM64.7859 15.4167C65.2139 15.4167 65.6128 15.3145 65.9824 15.1103C66.3618 14.906 66.6683 14.5995 66.9017 14.1909C67.1352 13.7824 67.2519 13.2862 67.2519 12.7025C67.2519 12.1189 67.1401 11.6276 66.9163 11.2287C66.6926 10.8202 66.3959 10.5137 66.0262 10.3094C65.6565 10.1051 65.2577 10.003 64.8296 10.003C64.4016 10.003 64.0028 10.1051 63.6331 10.3094C63.2731 10.5137 62.9862 10.8202 62.7722 11.2287C62.5581 11.6276 62.4511 12.1189 62.4511 12.7025C62.4511 13.5683 62.67 14.2396 63.1078 14.7163C63.5553 15.1832 64.1146 15.4167 64.7859 15.4167ZM72.2672 9.87167C72.5493 9.502 72.9336 9.19071 73.42 8.93777C73.9064 8.68484 74.456 8.55838 75.0689 8.55838C75.7693 8.55838 76.4065 8.73348 76.9805 9.0837C77.5641 9.42418 78.0214 9.90572 78.3521 10.5283C78.6829 11.1509 78.8483 11.8659 78.8483 12.6734C78.8483 13.4808 78.6829 14.2055 78.3521 14.8476C78.0214 15.4799 77.5641 15.9761 76.9805 16.336C76.4065 16.6862 75.7693 16.8613 75.0689 16.8613C74.456 16.8613 73.9112 16.7397 73.4346 16.4965C72.9579 16.2436 72.5688 15.9323 72.2672 15.5626V20.5531H70.6037V8.68971H72.2672V9.87167ZM77.1556 12.6734C77.1556 12.1189 77.0388 11.6422 76.8053 11.2433C76.5816 10.8348 76.28 10.5283 75.9006 10.324C75.531 10.11 75.1321 10.003 74.7041 10.003C74.2858 10.003 73.8869 10.11 73.5075 10.324C73.1379 10.538 72.8363 10.8493 72.6028 11.2579C72.3791 11.6665 72.2672 12.148 72.2672 12.7025C72.2672 13.257 72.3791 13.7435 72.6028 14.1618C72.8363 14.5703 73.1379 14.8816 73.5075 15.0957C73.8869 15.3097 74.2858 15.4167 74.7041 15.4167C75.1321 15.4167 75.531 15.3097 75.9006 15.0957C76.28 14.8719 76.5816 14.5509 76.8053 14.1326C77.0388 13.7143 77.1556 13.2279 77.1556 12.6734ZM87.8623 12.5129C87.8623 12.8144 87.8429 13.0868 87.804 13.33H81.6607C81.7093 13.9721 81.9476 14.4877 82.3757 14.8768C82.8037 15.2659 83.329 15.4605 83.9516 15.4605C84.8466 15.4605 85.4789 15.0859 85.8486 14.3369H87.6434C87.4002 15.0762 86.9576 15.6842 86.3156 16.1609C85.6832 16.6278 84.8953 16.8613 83.9516 16.8613C83.1831 16.8613 82.4924 16.6911 81.8795 16.3506C81.2764 16.0004 80.7997 15.514 80.4495 14.8914C80.109 14.259 79.9388 13.5294 79.9388 12.7025C79.9388 11.8757 80.1042 11.1509 80.4349 10.5283C80.7754 9.89599 81.2472 9.40959 81.8504 9.0691C82.4632 8.72862 83.1636 8.55838 83.9516 8.55838C84.7104 8.55838 85.3865 8.72376 85.9799 9.05451C86.5733 9.38527 87.0354 9.85222 87.3662 10.4554C87.6969 11.0488 87.8623 11.7346 87.8623 12.5129ZM86.1259 11.9875C86.1161 11.3747 85.8972 10.8834 85.4692 10.5137C85.0412 10.1441 84.511 9.95922 83.8787 9.95922C83.3047 9.95922 82.8134 10.1441 82.4049 10.5137C81.9963 10.8737 81.7531 11.3649 81.6753 11.9875H86.1259ZM91.1629 9.85708C91.4061 9.4485 91.7271 9.13234 92.126 8.90859C92.5345 8.67512 93.0161 8.55838 93.5706 8.55838V10.2803H93.1474C92.4956 10.2803 91.9995 10.4456 91.659 10.7764C91.3283 11.1071 91.1629 11.6811 91.1629 12.4983V16.73H89.4994V8.68971H91.1629V9.85708ZM97.0404 10.0468V14.4974C97.0404 14.799 97.1085 15.0178 97.2447 15.154C97.3906 15.2805 97.6339 15.3437 97.9743 15.3437H98.9958V16.73H97.6825C96.9334 16.73 96.3595 16.5549 95.9606 16.2047C95.5618 15.8545 95.3623 15.2854 95.3623 14.4974V10.0468H94.4139V8.68971H95.3623V6.69058H97.0404V8.68971H98.9958V10.0468H97.0404ZM107.767 8.68971L102.835 20.5093H101.113L102.747 16.5987L99.5805 8.68971H101.434L103.695 14.8184L106.045 8.68971H107.767ZM126.018 6.58844L123.013 16.73H121.13L119 9.05451L116.738 16.73L114.87 16.7446L111.995 6.58844H113.761L115.862 14.8476L118.139 6.58844H120.007L122.122 14.8038L124.238 6.58844H126.018ZM126.836 12.6734C126.836 11.8659 127.001 11.1509 127.332 10.5283C127.673 9.90572 128.13 9.42418 128.704 9.0837C129.287 8.73348 129.93 8.55838 130.63 8.55838C131.262 8.55838 131.812 8.68484 132.279 8.93777C132.756 9.18098 133.135 9.48741 133.417 9.85708V8.68971H135.095V16.73H133.417V15.5334C133.135 15.9128 132.751 16.229 132.264 16.4819C131.778 16.7348 131.223 16.8613 130.601 16.8613C129.91 16.8613 129.278 16.6862 128.704 16.336C128.13 15.9761 127.673 15.4799 127.332 14.8476C127.001 14.2055 126.836 13.4808 126.836 12.6734ZM133.417 12.7025C133.417 12.148 133.3 11.6665 133.067 11.2579C132.843 10.8493 132.546 10.538 132.177 10.324C131.807 10.11 131.408 10.003 130.98 10.003C130.552 10.003 130.153 10.11 129.784 10.324C129.414 10.5283 129.112 10.8348 128.879 11.2433C128.655 11.6422 128.543 12.1189 128.543 12.6734C128.543 13.2279 128.655 13.7143 128.879 14.1326C129.112 14.5509 129.414 14.8719 129.784 15.0957C130.163 15.3097 130.562 15.4167 130.98 15.4167C131.408 15.4167 131.807 15.3097 132.177 15.0957C132.546 14.8816 132.843 14.5703 133.067 14.1618C133.3 13.7435 133.417 13.257 133.417 12.7025ZM138.944 5.93179V16.73H137.28V5.93179H138.944ZM142.791 5.93179V16.73H141.128V5.93179H142.791ZM152.344 12.5129C152.344 12.8144 152.325 13.0868 152.286 13.33H146.143C146.191 13.9721 146.43 14.4877 146.858 14.8768C147.286 15.2659 147.811 15.4605 148.434 15.4605C149.329 15.4605 149.961 15.0859 150.33 14.3369H152.125C151.882 15.0762 151.439 15.6842 150.797 16.1609C150.165 16.6278 149.377 16.8613 148.434 16.8613C147.665 16.8613 146.974 16.6911 146.361 16.3506C145.758 16.0004 145.282 15.514 144.931 14.8914C144.591 14.259 144.421 13.5294 144.421 12.7025C144.421 11.8757 144.586 11.1509 144.917 10.5283C145.257 9.89599 145.729 9.40959 146.332 9.0691C146.945 8.72862 147.646 8.55838 148.434 8.55838C149.192 8.55838 149.868 8.72376 150.462 9.05451C151.055 9.38527 151.517 9.85222 151.848 10.4554C152.179 11.0488 152.344 11.7346 152.344 12.5129ZM150.608 11.9875C150.598 11.3747 150.379 10.8834 149.951 10.5137C149.523 10.1441 148.993 9.95922 148.361 9.95922C147.787 9.95922 147.295 10.1441 146.887 10.5137C146.478 10.8737 146.235 11.3649 146.157 11.9875H150.608ZM155.922 10.0468V14.4974C155.922 14.799 155.99 15.0178 156.126 15.154C156.272 15.2805 156.515 15.3437 156.856 15.3437H157.877V16.73H156.564C155.815 16.73 155.241 16.5549 154.842 16.2047C154.443 15.8545 154.244 15.2854 154.244 14.4974V10.0468H153.295V8.68971H154.244V6.69058H155.922V8.68971H157.877V10.0468H155.922Z" fill="#0A0A0A"/>
<path d="M19.0081 21.1186C18.6287 20.6947 18.171 20.3548 17.6623 20.1193C17.1536 19.8837 16.6045 19.7573 16.0477 19.7477C15.491 19.738 14.9381 19.8452 14.4221 20.063C13.9062 20.2808 13.4378 20.6045 13.045 21.015C11.9078 22.1094 10.8989 23.3629 9.71193 24.3931C8.99088 25.0353 8.13611 25.4944 7.21514 25.7341C6.88726 25.8201 6.54384 25.8191 6.21642 25.7312C5.88901 25.6432 5.58809 25.4711 5.34131 25.2307L11.3227 32.3969L11.3627 32.4012C12.0551 32.4778 12.7553 32.3932 13.4123 32.1534C14.0694 31.9136 14.6669 31.5248 15.1615 31.015L18.8552 27.2699C19.6337 26.4602 20.0836 25.3706 20.1121 24.226C20.1405 23.0814 19.7454 21.969 19.0081 21.1186ZM16.1065 25.9865C15.6059 25.9651 15.1315 25.7479 14.7784 25.3783C14.4252 25.0087 14.2193 24.514 14.2018 23.9932C14.2208 23.4848 14.4306 23.0044 14.7864 22.6552C15.1421 22.3059 15.6153 22.1156 16.1044 22.1252C16.5935 22.1347 17.0596 22.3434 17.4024 22.7063C17.7453 23.0692 17.9377 23.5574 17.9383 24.0662C17.9297 24.5702 17.7344 25.0514 17.3929 25.4092C17.0515 25.767 16.5904 25.9738 16.1058 25.9865H16.1065Z" fill="#27A3A3"/>
<path d="M13.5078 15.5831H17.5529V11.9277H13.5078V15.5831Z" fill="#27A3A3"/>
<path d="M22.5993 11.9185H18.5542V15.5738H22.5993V11.9185Z" fill="#27A3A3"/>
<path d="M17.554 6.75635C15.3139 6.89424 13.4057 8.92473 13.5334 10.9822H17.554V6.75635Z" fill="#27A3A3"/>
<path d="M18.5562 10.9718H22.6027C22.6539 8.8749 20.6383 6.78749 18.5562 6.75977V10.9718Z" fill="#27A3A3"/>
<path d="M35.4869 22.1745C35.5381 22.1015 35.5907 22.0249 35.644 21.9359C36.2909 20.9553 37.1005 19.7092 37.3677 19.2145C37.3707 19.2091 37.3733 19.2035 37.3755 19.1977C38.2446 17.842 38.6108 16.2042 38.406 14.5888C38.2839 13.6398 37.9549 12.7325 37.4443 11.9359C36.9337 11.1393 36.2548 10.4745 35.4595 9.99226L21.6265 1.27199L21.6665 1.26616C16.7255 -2.11411 13.6211 2.34379 13.6211 2.34379L11.6449 4.39909L10.0418 6.06624L5.13102 11.1735L3.52799 12.8406L1.83376 14.6026C0.659472 15.8269 0 17.4856 0 19.2149C0 20.9441 0.659472 22.6028 1.83376 23.8271L3.52799 25.5891L5.13102 27.2562L10.5778 32.9209L12.1809 34.588L13.6239 36.0888C14.2064 36.6947 14.8978 37.1754 15.6589 37.5033C16.42 37.8312 17.2357 38 18.0595 38C18.8832 38 19.699 37.8312 20.46 37.5033C21.2211 37.1754 21.9126 36.6947 22.495 36.0888L23.9381 34.588L25.5411 32.9209L30.957 27.2883L32.5601 25.6212L34.2844 23.8278C34.455 23.6494 34.6156 23.4611 34.7657 23.2638L34.7713 23.2565C34.9423 23.0335 35.0986 22.7988 35.2393 22.5539C35.3129 22.4394 35.3971 22.3124 35.4869 22.1745ZM37.2295 14.7573C37.3191 15.4934 37.2659 16.2406 37.0731 16.9549C36.8803 17.6692 36.5518 18.336 36.1071 18.9161C36.0403 17.2892 35.3868 15.7481 34.2767 14.5997L32.5523 12.8064L30.9493 11.1392L26.0651 6.05968L24.7217 4.66248L34.8401 11.0495C35.4842 11.4374 36.0343 11.9735 36.4485 12.6167C36.8627 13.2599 37.1298 13.9931 37.2295 14.7602V14.7573ZM33.1472 22.6488L32.5558 23.2638L30.9528 24.931L23.2702 32.9209L21.6672 34.588L21.3571 34.9105C20.4808 35.8198 19.2935 36.3304 18.0556 36.3304C16.8177 36.3304 15.6304 35.8198 14.7541 34.9105L14.444 34.588L12.841 32.9209L5.12822 24.8996L3.52519 23.2324L2.96395 22.6488C2.08958 21.7371 1.59855 20.5021 1.59855 19.2145C1.59855 17.9269 2.08958 16.6918 2.96395 15.7802L3.52519 15.1965L5.12822 13.5294L12.3078 6.06478L13.9109 4.39763L14.7527 3.5221C15.6289 2.61267 16.8163 2.10191 18.0542 2.10191C19.2921 2.10191 20.4794 2.61267 21.3557 3.5221L22.1975 4.39763L23.8006 6.06478L30.95 13.5002L32.553 15.1674L33.1444 15.7824C34.0193 16.6936 34.5108 17.9286 34.5112 19.2162C34.5116 20.5039 34.0208 21.7391 33.1465 22.6509L33.1472 22.6488Z" fill="#27A3A3"/>
</svg>
