<svg width="19" height="18" viewBox="0 0 19 18" fill="none" xmlns="http://www.w3.org/2000/svg">
<path d="M3.2501 0C2.01635 0 1.0001 1.01625 1.0001 2.25V5.25C1.0001 6.48375 2.01635 7.5 3.2501 7.5H4.0001V10.5H3.2501C2.01635 10.5 1.0001 11.5162 1.0001 12.75V15.1074C0.981738 15.2019 0.981738 15.2991 1.0001 15.3936V15.75C1.0001 16.9838 2.01635 18 3.2501 18H6.2501C7.48385 18 8.5001 16.9838 8.5001 15.75V15H11.5001V15.75C11.5001 16.9838 12.5163 18 13.7501 18H16.7501C17.9838 18 19.0001 16.9838 19.0001 15.75V12.75C19.0001 11.5162 17.9838 10.5 16.7501 10.5H16.0001V7.5H16.7501C17.9838 7.5 19.0001 6.48375 19.0001 5.25V2.25C19.0001 1.01625 17.9838 0 16.7501 0H13.7501C12.5163 0 11.5001 1.01625 11.5001 2.25V3H8.5001V2.25C8.5001 1.01625 7.48385 0 6.2501 0H3.2501ZM3.2501 1.5H6.2501C6.67335 1.5 7.0001 1.82675 7.0001 2.25V3.62695C6.98687 3.70747 6.98687 3.7896 7.0001 3.87012V5.25C7.0001 5.67325 6.67335 6 6.2501 6H3.2501C2.82685 6 2.5001 5.67325 2.5001 5.25V2.25C2.5001 1.82675 2.82685 1.5 3.2501 1.5ZM13.7501 1.5H16.7501C17.1733 1.5 17.5001 1.82675 17.5001 2.25V5.25C17.5001 5.67325 17.1733 6 16.7501 6H15.3731C15.2926 5.98677 15.2105 5.98677 15.13 6H13.7501C13.3268 6 13.0001 5.67325 13.0001 5.25V3.87305C13.0133 3.79253 13.0133 3.7104 13.0001 3.62988V2.25C13.0001 1.82675 13.3268 1.5 13.7501 1.5ZM8.5001 4.5H11.5001V5.25C11.5001 6.48375 12.5163 7.5 13.7501 7.5H14.5001V10.5H13.7501C12.5163 10.5 11.5001 11.5162 11.5001 12.75V13.5H8.5001V12.75C8.5001 11.5162 7.48385 10.5 6.2501 10.5H5.5001V7.5H6.2501C7.48385 7.5 8.5001 6.48375 8.5001 5.25V4.5ZM3.2501 12H3.93565L2.5001 13.4307V12.75C2.5001 12.3268 2.82685 12 3.2501 12ZM6.05869 12H6.2501C6.67335 12 7.0001 12.3268 7.0001 12.75V12.9414C6.98975 12.9506 6.97965 12.96 6.96982 12.9697L3.46983 16.4697C3.46011 16.4796 3.45066 16.4897 3.4415 16.5H3.2501C2.82685 16.5 2.5001 16.1733 2.5001 15.75V15.5479L6.0294 12.0312C6.03946 12.0211 6.04923 12.0107 6.05869 12ZM13.7501 12H15.1271C15.2076 12.0132 15.2897 12.0132 15.3702 12H16.7501C17.1733 12 17.5001 12.3268 17.5001 12.75V15.75C17.5001 16.1733 17.1733 16.5 16.7501 16.5H13.7501C13.3268 16.5 13.0001 16.1733 13.0001 15.75V14.373C13.0133 14.2925 13.0133 14.2104 13.0001 14.1299V12.75C13.0001 12.3268 13.3268 12 13.7501 12ZM7.0001 15.0605V15.75C7.0001 16.1733 6.67335 16.5 6.2501 16.5H5.56065L7.0001 15.0605Z" fill="#475467"/>
</svg>
