<svg width="27" height="28" viewBox="0 0 27 28" fill="none" xmlns="http://www.w3.org/2000/svg">
<path d="M13.4995 0.666504C9.87257 0.666504 6.57328 2.12205 4.16615 4.48031V2.6665C4.16859 2.48823 4.13525 2.31128 4.06811 2.14611C4.00097 1.98094 3.90139 1.83092 3.77526 1.70491C3.64912 1.5789 3.499 1.47946 3.33377 1.41248C3.16854 1.3455 2.99156 1.31233 2.81328 1.31494C2.45989 1.32012 2.12301 1.46538 1.87666 1.71881C1.63031 1.97224 1.49465 2.3131 1.49948 2.6665V7.33317C1.49952 7.68678 1.64 8.0259 1.89005 8.27594C2.14009 8.52598 2.4792 8.66647 2.83282 8.6665H7.49948C7.67617 8.669 7.85158 8.63636 8.01554 8.57048C8.1795 8.50459 8.32873 8.40678 8.45455 8.28272C8.58038 8.15866 8.68029 8.01083 8.74849 7.84782C8.81669 7.68481 8.85181 7.50987 8.85181 7.33317C8.85181 7.15647 8.81669 6.98153 8.74849 6.81852C8.68029 6.65551 8.58038 6.50768 8.45455 6.38362C8.32873 6.25956 8.1795 6.16175 8.01554 6.09586C7.85158 6.02998 7.67617 5.99734 7.49948 5.99984H6.4461C8.32439 4.34088 10.7884 3.33317 13.4995 3.33317C19.4062 3.33317 24.1661 8.09311 24.1661 13.9998C24.1661 19.9066 19.4062 24.6665 13.4995 24.6665C7.59276 24.6665 2.83282 19.9066 2.83282 13.9998C2.83531 13.8232 2.80267 13.6477 2.73679 13.4838C2.6709 13.3198 2.57309 13.1706 2.44903 13.0448C2.32497 12.9189 2.17714 12.819 2.01413 12.7508C1.85112 12.6826 1.67618 12.6475 1.49948 12.6475C1.32278 12.6475 1.14784 12.6826 0.984835 12.7508C0.821825 12.819 0.673995 12.9189 0.549936 13.0448C0.425876 13.1706 0.328062 13.3198 0.262177 13.4838C0.196292 13.6477 0.16365 13.8232 0.166149 13.9998C0.166149 21.3478 6.15154 27.3332 13.4995 27.3332C20.8474 27.3332 26.8328 21.3478 26.8328 13.9998C26.8328 6.6519 20.8474 0.666504 13.4995 0.666504ZM7.16615 9.33317C6.61348 9.33317 6.16615 9.7805 6.16615 10.3332C6.16615 10.8858 6.61348 11.3332 7.16615 11.3332H10.2794L7.58933 17.2524C7.36066 17.7551 7.58275 18.348 8.08542 18.5767C8.22009 18.638 8.35951 18.6665 8.49818 18.6665C8.87818 18.6665 9.24231 18.4486 9.40964 18.0806L12.743 10.7472C12.8836 10.4372 12.858 10.0775 12.674 9.7915C12.49 9.5055 12.1728 9.33317 11.8328 9.33317H7.16615ZM16.8328 9.33317C15.0622 9.33317 13.7579 10.4546 13.5099 12.1912C13.4319 12.7379 13.8109 13.2448 14.3576 13.3228C14.9036 13.4014 15.4111 13.0224 15.4891 12.4751C15.5637 11.9544 15.8575 11.3332 16.8328 11.3332C17.5681 11.3332 18.1661 11.9312 18.1661 12.6665C18.1661 13.4018 17.5681 13.9998 16.8328 13.9998C15.2275 13.9998 13.4995 15.1472 13.4995 17.6665C13.4995 18.2192 13.9468 18.6665 14.4995 18.6665H19.1661C19.7188 18.6665 20.1661 18.2192 20.1661 17.6665C20.1661 17.1138 19.7188 16.6665 19.1661 16.6665H15.7052C16.0205 16.0618 16.6088 15.9998 16.8328 15.9998C18.6708 15.9998 20.1661 14.5045 20.1661 12.6665C20.1661 10.8285 18.6708 9.33317 16.8328 9.33317Z" fill="#104141"/>
</svg>
