<svg width="16" height="14" viewBox="0 0 16 14" fill="none" xmlns="http://www.w3.org/2000/svg">
<path d="M9.03429 0.243408C8.90991 0.243439 8.78836 0.280578 8.6852 0.350075C8.58205 0.419572 8.50197 0.518266 8.45522 0.63353C8.40846 0.748793 8.39716 0.875384 8.42276 0.997105C8.44836 1.11883 8.50969 1.23014 8.59891 1.31681L13.3653 6.08325H1.12414C1.04132 6.08208 0.959089 6.09738 0.882234 6.12827C0.805379 6.15915 0.735428 6.205 0.676447 6.26315C0.617466 6.32131 0.570631 6.3906 0.538664 6.46701C0.506696 6.54342 0.490234 6.62542 0.490234 6.70825C0.490234 6.79108 0.506696 6.87308 0.538664 6.94949C0.570631 7.0259 0.617466 7.0952 0.676447 7.15335C0.735428 7.2115 0.805379 7.25736 0.882234 7.28824C0.959089 7.31912 1.04132 7.33442 1.12414 7.33325H13.3653L8.59891 12.0997C8.53893 12.1573 8.49104 12.2263 8.45805 12.3026C8.42506 12.3789 8.40763 12.4611 8.40679 12.5442C8.40594 12.6274 8.4217 12.7098 8.45313 12.7868C8.48456 12.8638 8.53103 12.9338 8.58983 12.9926C8.64863 13.0514 8.71857 13.0978 8.79556 13.1293C8.87254 13.1607 8.95502 13.1764 9.03817 13.1756C9.12132 13.1748 9.20347 13.1573 9.2798 13.1243C9.35613 13.0914 9.42511 13.0435 9.4827 12.9835L15.316 7.15015C15.4332 7.03293 15.499 6.87398 15.499 6.70825C15.499 6.54252 15.4332 6.38357 15.316 6.26636L9.4827 0.433024C9.42444 0.37303 9.35474 0.325335 9.27771 0.292765C9.20069 0.260195 9.11792 0.243412 9.03429 0.243408Z" fill="#27A3A3"/>
</svg>
