<svg width="24" height="25" viewBox="0 0 24 25" fill="none" xmlns="http://www.w3.org/2000/svg">
<path d="M6.5 7.0001C3.47417 7.0001 1 9.47427 1 12.5001C1 15.5259 3.47417 18.0001 6.5 18.0001H8.5C8.63251 18.002 8.76407 17.9775 8.88704 17.9281C9.01001 17.8787 9.12193 17.8053 9.2163 17.7123C9.31067 17.6192 9.38561 17.5083 9.43676 17.3861C9.4879 17.2638 9.51424 17.1326 9.51424 17.0001C9.51424 16.8676 9.4879 16.7364 9.43676 16.6141C9.38561 16.4919 9.31067 16.381 9.2163 16.2879C9.12193 16.1949 9.01001 16.1215 8.88704 16.0721C8.76407 16.0227 8.63251 15.9982 8.5 16.0001H6.5C4.55483 16.0001 3 14.4453 3 12.5001C3 10.5549 4.55483 9.0001 6.5 9.0001H8.5C8.63251 9.00197 8.76407 8.97749 8.88704 8.92808C9.01001 8.87867 9.12193 8.8053 9.2163 8.71226C9.31067 8.61922 9.38561 8.50834 9.43676 8.38609C9.4879 8.26383 9.51424 8.13263 9.51424 8.0001C9.51424 7.86757 9.4879 7.73637 9.43676 7.61411C9.38561 7.49186 9.31067 7.38098 9.2163 7.28794C9.12193 7.1949 9.01001 7.12153 8.88704 7.07212C8.76407 7.02271 8.63251 6.99823 8.5 7.0001H6.5ZM15.5 7.0001C15.3675 6.99823 15.2359 7.02271 15.113 7.07212C14.99 7.12153 14.8781 7.1949 14.7837 7.28794C14.6893 7.38098 14.6144 7.49186 14.5632 7.61411C14.5121 7.73637 14.4858 7.86757 14.4858 8.0001C14.4858 8.13263 14.5121 8.26383 14.5632 8.38609C14.6144 8.50834 14.6893 8.61922 14.7837 8.71226C14.8781 8.8053 14.99 8.87867 15.113 8.92808C15.2359 8.97749 15.3675 9.00197 15.5 9.0001H17.5C19.4452 9.0001 21 10.5549 21 12.5001C21 14.4453 19.4452 16.0001 17.5 16.0001H15.5C15.3675 15.9982 15.2359 16.0227 15.113 16.0721C14.99 16.1215 14.8781 16.1949 14.7837 16.2879C14.6893 16.381 14.6144 16.4919 14.5632 16.6141C14.5121 16.7364 14.4858 16.8676 14.4858 17.0001C14.4858 17.1326 14.5121 17.2638 14.5632 17.3861C14.6144 17.5083 14.6893 17.6192 14.7837 17.7123C14.8781 17.8053 14.99 17.8787 15.113 17.9281C15.2359 17.9775 15.3675 18.002 15.5 18.0001H17.5C20.5258 18.0001 23 15.5259 23 12.5001C23 9.47427 20.5258 7.0001 17.5 7.0001H15.5ZM6 11.5001C5.86749 11.4982 5.73593 11.5227 5.61296 11.5721C5.48999 11.6215 5.37807 11.6949 5.2837 11.7879C5.18933 11.881 5.11439 11.9919 5.06324 12.1141C5.0121 12.2364 4.98576 12.3676 4.98576 12.5001C4.98576 12.6326 5.0121 12.7638 5.06324 12.8861C5.11439 13.0083 5.18933 13.1192 5.2837 13.2123C5.37807 13.3053 5.48999 13.3787 5.61296 13.4281C5.73593 13.4775 5.86749 13.502 6 13.5001H18C18.1325 13.502 18.2641 13.4775 18.387 13.4281C18.51 13.3787 18.6219 13.3053 18.7163 13.2123C18.8107 13.1192 18.8856 13.0083 18.9368 12.8861C18.9879 12.7638 19.0142 12.6326 19.0142 12.5001C19.0142 12.3676 18.9879 12.2364 18.9368 12.1141C18.8856 11.9919 18.8107 11.881 18.7163 11.7879C18.6219 11.6949 18.51 11.6215 18.387 11.5721C18.2641 11.5227 18.1325 11.4982 18 11.5001H6Z" fill="#344054"/>
</svg>
