<svg width="15" height="16" viewBox="0 0 15 16" fill="none" xmlns="http://www.w3.org/2000/svg">
<path d="M7.5 0.3479C3.3645 0.3479 0 3.7124 0 7.8479C0 11.9834 3.3645 15.3479 7.5 15.3479C11.6355 15.3479 15 11.9834 15 7.8479C15 3.7124 11.6355 0.3479 7.5 0.3479ZM10.7104 6.55828L6.96038 10.3083C6.8505 10.4182 6.7065 10.4729 6.5625 10.4729C6.4185 10.4729 6.2745 10.4182 6.16462 10.3083L4.28963 8.43328C4.06988 8.21353 4.06988 7.85765 4.28963 7.6379C4.50938 7.41815 4.86525 7.41815 5.085 7.6379L6.56213 9.11503L9.91425 5.7629C10.134 5.54315 10.4899 5.54315 10.7096 5.7629C10.9294 5.98265 10.9298 6.33853 10.7104 6.55828Z" fill="#27A3A3"/>
</svg>
