<svg width="16" height="15" viewBox="0 0 16 15" fill="none" xmlns="http://www.w3.org/2000/svg">
<path d="M2.37503 6.2505e-05C1.39363 6.2505e-05 0.586034 0.773989 0.513862 1.73834C0.504239 1.78327 0.4996 1.82912 0.500027 1.87506V3.12506V3.75006V13.1251C0.500027 14.1532 1.3469 15.0001 2.37503 15.0001H13.625C14.6532 15.0001 15.5 14.1532 15.5 13.1251V4.37506C15.5 3.34694 14.6532 2.50006 13.625 2.50006H2.37503C2.02232 2.50006 1.75003 2.22777 1.75003 1.87506C1.75003 1.52235 2.02232 1.25006 2.37503 1.25006H12.7917C12.8745 1.25123 12.9567 1.23593 13.0336 1.20505C13.1105 1.17417 13.1804 1.12832 13.2394 1.07016C13.2984 1.01201 13.3452 0.942714 13.3772 0.866304C13.4091 0.789893 13.4256 0.707891 13.4256 0.625062C13.4256 0.542234 13.4091 0.460232 13.3772 0.383821C13.3452 0.307411 13.2984 0.238115 13.2394 0.179962C13.1804 0.12181 13.1105 0.0759591 13.0336 0.0450755C12.9567 0.0141919 12.8745 -0.00110877 12.7917 6.2505e-05H2.37503ZM1.75003 3.75006H2.37503H13.625C13.9777 3.75006 14.25 4.02235 14.25 4.37506V13.1251C14.25 13.4778 13.9777 13.7501 13.625 13.7501H2.37503C2.02232 13.7501 1.75003 13.4778 1.75003 13.1251V3.75006ZM11.9584 7.50006C11.6821 7.50006 11.4171 7.60981 11.2218 7.80516C11.0264 8.00051 10.9167 8.26546 10.9167 8.54173C10.9167 8.818 11.0264 9.08295 11.2218 9.2783C11.4171 9.47365 11.6821 9.5834 11.9584 9.5834C12.2346 9.5834 12.4996 9.47365 12.6949 9.2783C12.8903 9.08295 13 8.818 13 8.54173C13 8.26546 12.8903 8.00051 12.6949 7.80516C12.4996 7.60981 12.2346 7.50006 11.9584 7.50006Z" fill="#475467"/>
</svg>
