<svg width="310" height="293" viewBox="0 0 310 293" fill="none" xmlns="http://www.w3.org/2000/svg">
<g clip-path="url(#clip0_1005_5289)">
<path d="M208.205 4.20941C208.205 4.20941 157.805 -10.6328 108.036 19.3878C58.2736 49.4016 32.8915 105.381 11.112 150.292C-10.6607 195.202 1.40932 239.208 39.129 257.687C76.8486 276.166 102.786 244.917 155.89 240.848C209.001 236.779 223.233 243.4 267.485 212.302C311.737 181.204 320.157 112.49 285.731 63.64C251.311 14.7973 208.205 4.20941 208.205 4.20941Z" fill="#27A3A3"/>
<path opacity="0.7" d="M208.205 4.20941C208.205 4.20941 157.805 -10.6328 108.036 19.3878C58.2736 49.4016 32.8915 105.381 11.112 150.292C-10.6607 195.202 1.40932 239.208 39.129 257.687C76.8486 276.166 102.786 244.917 155.89 240.848C209.001 236.779 223.233 243.4 267.485 212.302C311.737 181.204 320.157 112.49 285.731 63.64C251.311 14.7973 208.205 4.20941 208.205 4.20941Z" fill="white"/>
<path d="M93.6453 30.4765L86.6942 19.3809H25.459V30.4765V34.4701V219.061H277.495V30.4765H93.6453Z" fill="#263238"/>
<path d="M275.843 35.5615H27.334V215.04H275.843V35.5615Z" fill="white"/>
<mask id="mask0_1005_5289" style="mask-type:luminance" maskUnits="userSpaceOnUse" x="27" y="35" width="249" height="181">
<path d="M275.847 35.561H27.3379V215.04H275.847V35.561Z" fill="white"/>
</mask>
<g mask="url(#mask0_1005_5289)">
<path d="M276.167 33.1392H26.3477V42.9036H276.167V33.1392Z" fill="#27A3A3" stroke="#263238" stroke-width="0.686186" stroke-miterlimit="10"/>
</g>
<path d="M275.843 35.5615H27.334V215.04H275.843V35.5615Z" stroke="#263238" stroke-width="0.686186" stroke-linecap="round" stroke-linejoin="round"/>
<path d="M182.264 60.1064H34.2266V147.033H182.264V60.1064Z" stroke="#263238" stroke-width="0.686186" stroke-miterlimit="10"/>
<path d="M34.9609 155.987H77.4221" stroke="#263238" stroke-width="0.686186" stroke-miterlimit="10"/>
<path d="M34.9609 164.942H77.4221" stroke="#263238" stroke-width="0.686186" stroke-miterlimit="10"/>
<path d="M34.9609 173.904H77.4221" stroke="#263238" stroke-width="0.686186" stroke-miterlimit="10"/>
<path d="M34.9609 182.859H77.4221" stroke="#263238" stroke-width="0.686186" stroke-miterlimit="10"/>
<path d="M41.8984 63.0845C39.188 63.0845 36.9922 65.2803 36.9922 67.9907C36.9922 70.7011 39.188 72.8969 41.8984 72.8969C44.6089 72.8969 46.8046 70.7011 46.8046 67.9907C46.8046 65.2803 44.6089 63.0845 41.8984 63.0845ZM42.5572 69.1504L40.4437 70.3718V65.4998L42.5572 66.7213L44.6706 67.9427L42.5572 69.1641V69.1504Z" stroke="#263238" stroke-width="0.686186" stroke-miterlimit="10"/>
<path d="M256.017 60.106H190.164V112.791H256.017V60.106Z" stroke="#263238" stroke-width="0.686186" stroke-miterlimit="10"/>
<path d="M256.017 97.2355L246.006 86.9771L233.366 93.2968L209.659 73.2739L190.164 94.4771V112.791H256.017V97.2355Z" stroke="#263238" stroke-width="0.686186" stroke-miterlimit="10"/>
<path d="M234.155 78.0155C237.501 78.0155 240.214 75.3028 240.214 71.9565C240.214 68.6102 237.501 65.8975 234.155 65.8975C230.808 65.8975 228.096 68.6102 228.096 71.9565C228.096 75.3028 230.808 78.0155 234.155 78.0155Z" stroke="#263238" stroke-width="0.686186" stroke-miterlimit="10"/>
<path d="M256.017 123.853H190.164V176.538H256.017V123.853Z" stroke="#263238" stroke-width="0.686186" stroke-miterlimit="10"/>
<path d="M256.017 160.982L246.006 150.717L233.366 157.043L209.659 137.021L190.164 158.224V176.531H256.017V160.982Z" stroke="#263238" stroke-width="0.686186" stroke-miterlimit="10"/>
<path d="M240.125 136.67C240.662 133.367 238.42 130.254 235.118 129.717C231.815 129.179 228.702 131.421 228.164 134.724C227.627 138.027 229.869 141.14 233.172 141.677C236.475 142.215 239.588 139.973 240.125 136.67Z" stroke="#263238" stroke-width="0.686186" stroke-miterlimit="10"/>
<path d="M34.7354 267.211C34.7354 267.211 16.5583 235.283 20.7509 227.172C24.9435 219.055 35.6686 233.664 35.6686 233.664C35.6686 233.664 26.3433 203.904 31.476 190.914C36.6018 177.925 45.4605 190.914 45.9271 200.116C46.3937 209.318 44.0607 225.004 44.0607 225.004C44.0607 225.004 47.7866 192.541 56.6453 202.278C65.504 212.015 45.4605 244.485 45.4605 244.485C45.4605 244.485 58.9783 236.909 58.5117 246.646C58.0451 256.383 42.2011 265.043 42.2011 265.043" fill="#27A3A3"/>
<path d="M34.8936 261.262C34.8936 261.262 18.0683 245.569 26.2682 238.536C34.4613 231.502 38.7774 246.111 38.7774 246.111C38.7774 246.111 29.7197 201.2 44.3835 199.574C59.0473 197.948 48.2673 238.536 48.2673 238.536C48.2673 238.536 60.7765 221.223 59.9119 235.29C59.0473 249.357 40.4997 261.262 40.4997 261.262" stroke="#263238" stroke-width="0.686186" stroke-miterlimit="10"/>
<path d="M43.1553 258.407L31.7852 246.09" stroke="#263238" stroke-width="0.686186" stroke-miterlimit="10"/>
<path d="M40.791 259.355L43.8651 223.351" stroke="#263238" stroke-width="0.686186" stroke-miterlimit="10"/>
<path d="M40.3164 256.747L50.4994 243.25" stroke="#263238" stroke-width="0.686186" stroke-miterlimit="10"/>
<path d="M55.0426 254.236H23.6016L26.7443 291.324H51.8999L55.0426 254.236Z" fill="#263238"/>
<path d="M218.038 241.431L226.78 263.883H208.417L200.814 241.431H218.038Z" fill="#27A3A3" stroke="#263238" stroke-width="0.686186" stroke-miterlimit="10"/>
<path d="M207.196 227.824H178.17V254.455H207.196V227.824Z" fill="white" stroke="#263238" stroke-width="0.686186" stroke-miterlimit="10"/>
<path d="M202.262 233.8H173.236V260.431H202.262V233.8Z" fill="white" stroke="#263238" stroke-width="0.686186" stroke-miterlimit="10"/>
<path d="M194.721 239.002H165.695V265.633H194.721V239.002Z" fill="white" stroke="#263238" stroke-width="0.686186" stroke-miterlimit="10"/>
<path d="M181.834 243.606H152.809V270.237H181.834V243.606Z" fill="white" stroke="#263238" stroke-width="0.686186" stroke-miterlimit="10"/>
<path d="M218.086 241.431H151.91V291.324H218.086V241.431Z" fill="#27A3A3" stroke="#263238" stroke-width="0.686186" stroke-miterlimit="10"/>
<path d="M218.079 241.431H169.127V291.324H218.079V241.431Z" fill="#27A3A3" stroke="#263238" stroke-width="0.686186" stroke-miterlimit="10"/>
<path d="M169.126 241.431L161.948 263.883H143.586L151.909 241.431H169.126Z" fill="#27A3A3" stroke="#263238" stroke-width="0.686186" stroke-miterlimit="10"/>
<path d="M207.637 250.832H177.438V281.813H207.637V250.832Z" fill="white" stroke="#263238" stroke-width="0.686186" stroke-miterlimit="10"/>
<path d="M207.637 273.599L201.982 267.712L197.021 270.587L188.32 262.229L177.527 270.848L177.438 271.04V281.813H207.637V273.599Z" fill="#263238" stroke="#263238" stroke-width="0.686186" stroke-miterlimit="10"/>
<path d="M200.502 259.224C200.502 261.22 198.882 262.833 196.893 262.833C194.903 262.833 193.283 261.214 193.283 259.224C193.283 257.234 194.903 255.614 196.893 255.614C198.882 255.614 200.502 257.234 200.502 259.224Z" fill="#263238" stroke="#263238" stroke-width="0.686186" stroke-miterlimit="10"/>
<path d="M284.049 227.824H255.023V254.455H284.049V227.824Z" fill="white" stroke="#263238" stroke-width="0.686186" stroke-miterlimit="10"/>
<path d="M279.116 233.8H250.09V260.431H279.116V233.8Z" fill="white" stroke="#263238" stroke-width="0.686186" stroke-miterlimit="10"/>
<path d="M271.574 239.001H242.549V265.632H271.574V239.001Z" fill="white" stroke="#263238" stroke-width="0.686186" stroke-miterlimit="10"/>
<path d="M258.69 243.606H229.664V270.237H258.69V243.606Z" fill="white" stroke="#263238" stroke-width="0.686186" stroke-miterlimit="10"/>
<path d="M294.939 241.431H228.764V291.324H294.939V241.431Z" fill="#27A3A3" stroke="#263238" stroke-width="0.686186" stroke-miterlimit="10"/>
<path d="M294.933 241.431H245.98V291.324H294.933V241.431Z" fill="#27A3A3" stroke="#263238" stroke-width="0.686186" stroke-miterlimit="10"/>
<path d="M268.533 246.166V246.557C268.155 246.557 267.853 246.626 267.62 246.756C267.387 246.893 267.167 247.14 266.954 247.511C266.81 247.758 266.591 248.348 266.289 249.281L262.282 260.864H261.856L258.583 251.676L255.33 260.864H254.946L250.678 248.931C250.362 248.039 250.157 247.518 250.074 247.353C249.93 247.086 249.738 246.887 249.498 246.756C249.251 246.626 248.921 246.557 248.51 246.557V246.166H253.828V246.557H253.574C253.196 246.557 252.915 246.639 252.716 246.811C252.517 246.983 252.421 247.188 252.421 247.429C252.421 247.669 252.579 248.245 252.888 249.137L255.715 257.2L258.096 250.345L257.67 249.137L257.334 248.17C257.183 247.82 257.018 247.504 256.833 247.236C256.744 247.099 256.627 246.989 256.497 246.9C256.319 246.77 256.14 246.681 255.969 246.626C255.831 246.585 255.619 246.564 255.33 246.564V246.173H260.93V246.564H260.545C260.147 246.564 259.859 246.646 259.674 246.818C259.489 246.989 259.4 247.216 259.4 247.504C259.4 247.868 259.557 248.492 259.88 249.391L262.638 257.2L265.369 249.281C265.678 248.403 265.836 247.799 265.836 247.456C265.836 247.291 265.788 247.14 265.685 247.003C265.582 246.859 265.452 246.763 265.301 246.708C265.033 246.612 264.683 246.557 264.251 246.557V246.166H268.546H268.533Z" fill="#263238"/>
<path d="M269.658 248.883H286.888" stroke="#263238" stroke-width="0.686186" stroke-miterlimit="10"/>
<path d="M269.658 252.877H286.888" stroke="#263238" stroke-width="0.686186" stroke-miterlimit="10"/>
<path d="M269.658 256.871H286.888" stroke="#263238" stroke-width="0.686186" stroke-miterlimit="10"/>
<path d="M269.658 260.871H286.888" stroke="#263238" stroke-width="0.686186" stroke-miterlimit="10"/>
<path d="M258.69 193.733H229.664V220.364H258.69V193.733Z" fill="white" stroke="#263238" stroke-width="0.686186" stroke-miterlimit="10"/>
<path d="M294.939 191.559H228.764V241.451H294.939V191.559Z" fill="#27A3A3" stroke="#263238" stroke-width="0.686186" stroke-miterlimit="10"/>
<path d="M294.933 191.559H245.98V241.451H294.933V191.559Z" fill="#27A3A3" stroke="#263238" stroke-width="0.686186" stroke-miterlimit="10"/>
<path d="M284.49 200.959H254.291V231.941H284.49V200.959Z" fill="white" stroke="#263238" stroke-width="0.686186" stroke-miterlimit="10"/>
<path d="M284.49 223.727L278.836 217.839L273.875 220.714L265.174 212.356L254.38 220.975L254.291 221.174V231.94H284.49V223.727Z" fill="#263238" stroke="#263238" stroke-width="0.686186" stroke-miterlimit="10"/>
<path d="M277.355 209.358C277.355 211.355 275.736 212.967 273.746 212.967C271.756 212.967 270.137 211.348 270.137 209.358C270.137 207.368 271.756 205.749 273.746 205.749C275.736 205.749 277.355 207.368 277.355 209.358Z" fill="#263238" stroke="#263238" stroke-width="0.686186" stroke-miterlimit="10"/>
<path d="M175.012 101.374L192.359 128.656L169.166 128.464C169.166 128.464 169.749 105.854 170.333 103.322C170.916 100.79 174.422 100.591 175.012 101.374Z" fill="white" stroke="#263238" stroke-width="0.686186" stroke-miterlimit="10"/>
<path d="M212.876 127.99L73.377 118.871L68.3594 195.629L207.858 204.748L212.876 127.99Z" fill="#27A3A3" stroke="#263238" stroke-width="0.686186" stroke-miterlimit="10"/>
<path d="M208.704 191.842L69.2051 182.723L68.3618 195.623L207.861 204.742L208.704 191.842Z" fill="white" stroke="#263238" stroke-width="0.686186" stroke-miterlimit="10"/>
<path d="M204.829 196.512L72.4238 187.857L72.2144 191.061L204.62 199.717L204.829 196.512Z" fill="#263238"/>
<path d="M75.713 189.72C75.7679 188.883 75.1366 188.162 74.2995 188.107C73.4623 188.052 72.7418 188.684 72.6869 189.521C72.632 190.358 73.2633 191.079 74.1005 191.133C74.9376 191.188 75.6581 190.557 75.713 189.72Z" fill="white" stroke="#263238" stroke-width="0.686186" stroke-miterlimit="10"/>
<path d="M91.5091 131.037C91.2415 135.175 87.6664 138.304 83.5287 138.036C79.391 137.769 76.262 134.194 76.5296 130.056C76.7972 125.918 80.3723 122.789 84.51 123.057C88.6477 123.325 91.7767 126.9 91.5091 131.037Z" fill="#263238" stroke="#263238" stroke-width="0.686186" stroke-linecap="round" stroke-linejoin="round"/>
<path d="M81.0598 125.898L88.45 130.838L80.4766 134.777L81.0598 125.898Z" fill="#27A3A3"/>
<path d="M127.321 68.9035C127.321 68.9035 124.432 76.9867 124.624 78.5238C124.816 80.0609 125.585 80.6441 124.624 81.6048C123.663 82.5654 120.582 84.8779 120.967 86.2228C121.351 87.5677 123.279 89.1116 123.279 89.1116C123.279 89.1116 125.399 97.5792 127.513 98.5398C129.633 99.5005 132.899 98.732 132.899 98.732L135.212 104.894L151.378 100.852L150.418 91.0398C150.418 91.0398 155.228 81.8038 154.075 76.2182C152.922 70.6395 142.911 65.2461 136.371 65.2461C129.832 65.2461 127.904 67.3664 127.328 68.9035H127.321Z" fill="white" stroke="#263238" stroke-width="0.686186" stroke-miterlimit="10"/>
<path d="M127.432 91.4377C127.432 91.4377 129.957 91.1083 130.718 89.5713" stroke="#263238" stroke-width="0.686186" stroke-miterlimit="10"/>
<path d="M127.648 81.5636C127.648 82.2292 127.429 82.7713 127.154 82.7713C126.88 82.7713 126.66 82.2292 126.66 81.5636C126.66 80.898 126.88 80.356 127.154 80.356C127.429 80.356 127.648 80.898 127.648 81.5636Z" fill="#263238"/>
<path d="M126.441 78.8254C126.441 78.8254 127.869 77.0688 128.747 79.2646" stroke="#263238" stroke-width="0.686186" stroke-miterlimit="10"/>
<path d="M131.171 71.9842C131.171 71.9842 124.817 72.3685 124.432 66.4055C124.048 60.4425 132.708 57.1694 135.981 57.1694C139.254 57.1694 136.941 60.4425 136.941 60.4425C136.941 60.4425 145.025 58.1301 147.138 60.2504C149.252 62.3707 147.522 64.0999 147.522 64.0999C147.522 64.0999 158.11 68.5258 158.11 76.2248C158.11 83.9238 152.532 91.4307 151.564 92.9678C150.603 94.5048 148.291 95.8566 144.057 96.0487C139.823 96.2409 137.319 94.1274 136.358 91.2386L135.398 88.3497C135.398 88.3497 138.671 84.8845 137.127 81.9957C135.583 79.1068 134.622 80.8429 134.238 81.9957C133.854 83.1484 134.622 84.3081 133.854 84.3081C133.085 84.3081 133.662 83.3474 131.541 81.2271C129.421 79.1068 127.692 78.1461 128.46 76.0327C129.229 73.9192 131.157 71.9911 131.157 71.9911L131.171 71.9842Z" fill="#263238" stroke="#263238" stroke-width="0.686186" stroke-miterlimit="10"/>
<path d="M130.6 103.96L128.309 109.031L157.526 102.389L154.143 98.1621L130.6 103.96Z" fill="white" stroke="#263238" stroke-width="0.686186" stroke-miterlimit="10"/>
<path d="M107.888 160.131C107.888 160.131 101.986 168.99 99.6877 173.58C97.389 178.171 90.8359 187.187 89.3057 188.059C87.7755 188.93 82.9653 188.498 82.5262 188.827C82.087 189.157 78.3679 193.308 77.3867 194.516C76.4054 195.723 77.6062 196.156 78.4777 196.265C79.3491 196.375 80.3373 195.826 81.4283 194.845C82.5193 193.864 83.6172 193.864 84.0495 193.754C84.4887 193.644 81.0989 198.345 81.2087 199.113C81.3185 199.882 82.6291 200.863 83.3976 200.753C84.1662 200.643 86.1287 199.223 86.1287 199.223C86.1287 199.223 91.5976 199.991 93.2376 198.674C94.8775 197.363 97.1763 189.925 97.6086 188.944C98.0477 187.963 110.392 176.647 115.099 172.928C119.8 169.209 122.647 165.819 122.647 162.979C122.647 160.138 107.888 160.138 107.888 160.138V160.131Z" fill="white" stroke="#263238" stroke-width="0.686186" stroke-miterlimit="10"/>
<path d="M142.334 277.421C142.334 277.421 133.627 279.501 128.563 279.501C123.499 279.501 121.289 279.24 121.289 280.928C121.289 282.616 129.345 285.738 134.025 287.556C138.704 289.375 147.796 291.975 148.579 291.715C149.361 291.454 150.919 281.971 150.919 281.971L142.341 277.421H142.334Z" fill="white" stroke="#263238" stroke-width="0.686186" stroke-miterlimit="10"/>
<path d="M121.803 279.939C121.46 280.152 121.281 280.468 121.281 280.934C121.281 282.622 129.337 285.745 134.017 287.563C138.697 289.381 147.789 291.982 148.571 291.721C148.749 291.66 148.969 291.117 149.202 290.315C140.103 288.503 125.556 281.73 121.81 279.939H121.803Z" fill="#263238" stroke="#263238" stroke-width="0.686186" stroke-miterlimit="10"/>
<path d="M126.743 166.335C126.743 166.335 126.612 176.47 127.525 185.17C128.438 193.878 132.589 232.071 132.98 238.048C133.371 244.025 142.333 277.414 142.333 277.414L150.91 281.964C150.91 281.964 155.199 244.807 155.199 238.569V228.174C155.199 228.174 162.733 198.681 165.073 191.662C167.413 184.649 168.58 170.747 168.319 162.952C168.319 162.952 158.966 166.98 146.882 167.501C134.799 168.023 126.743 166.335 126.743 166.335Z" fill="#263238" stroke="#263238" stroke-width="0.686186" stroke-miterlimit="10"/>
<path d="M174.226 112.482L170.72 140.547C170.72 140.547 169.354 161.791 168.963 163.74C168.572 165.689 166.822 166.663 158.828 169.394C150.841 172.125 129.206 170.177 127.449 168.42C125.692 166.663 125.308 149.516 125.308 149.516C125.308 149.516 122.968 159.452 121.218 160.817C119.462 162.183 112.84 161.599 109.718 158.676C106.603 155.753 110.301 122.233 110.109 119.118C109.917 116.002 129.206 108.399 129.206 108.399C129.206 108.399 156.022 102.237 157.524 102.395C159.027 102.553 173.835 99.4308 175.009 101.38C176.175 103.328 176.957 104.495 176.957 104.495" fill="white"/>
<path d="M174.226 112.482L170.72 140.547C170.72 140.547 169.354 161.791 168.963 163.74C168.572 165.689 166.822 166.663 158.828 169.394C150.841 172.125 129.206 170.177 127.449 168.42C125.692 166.663 125.308 149.516 125.308 149.516C125.308 149.516 122.968 159.452 121.218 160.817C119.462 162.183 112.84 161.599 109.718 158.676C106.603 155.753 110.301 122.233 110.109 119.118C109.917 116.002 129.206 108.399 129.206 108.399C129.206 108.399 156.022 102.237 157.524 102.395C159.027 102.553 173.835 99.4308 175.009 101.38C176.175 103.328 176.957 104.495 176.957 104.495" stroke="#263238" stroke-width="0.686186" stroke-miterlimit="10"/>
<path d="M125.314 149.509L120.051 123.983" stroke="#263238" stroke-width="0.686186" stroke-miterlimit="10"/>
<path d="M153.784 114.444L141.666 150.785" stroke="#263238" stroke-width="0.686186" stroke-miterlimit="10"/>
<path d="M150.477 138.118L141.666 160.144" stroke="#263238" stroke-width="0.686186" stroke-miterlimit="10"/>
<path d="M108.319 150.511C108.319 150.511 107.879 151.06 107.879 151.931C107.879 152.803 106.13 159.802 106.898 161.229C107.667 162.649 110.837 164.509 115.976 164.729C121.116 164.948 123.085 164.18 123.525 162.869C123.964 161.558 125.165 155.108 125.055 154.34C124.945 153.571 124.286 154.01 124.286 154.01C124.286 154.01 119.366 155.211 114.227 153.461C109.087 151.712 108.326 150.511 108.326 150.511H108.319Z" fill="white" stroke="#263238" stroke-width="0.686186" stroke-miterlimit="10"/>
<path d="M127.396 173.746C127.396 173.746 127.657 195.573 128.179 208.432C128.7 221.291 130.779 232.469 131.555 235.07C132.337 237.671 150.006 260.274 154.034 265.084C158.062 269.894 165.857 277.168 165.857 277.168L174.654 272.357C174.654 272.357 163.257 256.115 159.62 248.581C155.983 241.047 149.615 228.572 149.615 228.572L153.643 192.581L160.272 188.945" fill="#263238"/>
<path d="M127.396 173.746C127.396 173.746 127.657 195.573 128.179 208.432C128.7 221.291 130.779 232.469 131.555 235.07C132.337 237.671 150.006 260.274 154.034 265.084C158.062 269.894 165.857 277.168 165.857 277.168L174.654 272.357C174.654 272.357 163.257 256.115 159.62 248.581C155.983 241.047 149.615 228.572 149.615 228.572L153.643 192.581L160.272 188.945" stroke="#263238" stroke-width="0.686186" stroke-miterlimit="10"/>
<path d="M158.845 190.708L153.418 194.324L149.609 228.572L155.195 238.576" stroke="#696969" stroke-width="0.686186" stroke-miterlimit="10"/>
<path d="M165.997 276.824C165.997 276.824 161.812 283.027 160.227 284.468C158.641 285.909 152.438 289.662 151.574 290.527C150.709 291.391 155.471 292.112 158.93 292.112C162.388 292.112 166.718 291.391 168.886 290.094C171.048 288.798 179.131 283.027 180.14 282.018C181.148 281.009 174.657 272.35 174.657 272.35L166.004 276.824H165.997Z" fill="white" stroke="#263238" stroke-width="0.686186" stroke-miterlimit="10"/>
<path d="M180.132 282.018C180.475 281.675 179.947 280.44 179.103 278.972C175.946 282.293 168.961 289.367 165.99 290.246C162.73 291.213 154.441 290.561 151.806 290.321C151.703 290.404 151.621 290.472 151.566 290.534C150.701 291.399 155.463 292.119 158.922 292.119C162.38 292.119 166.71 291.399 168.878 290.102C171.04 288.805 179.123 283.034 180.132 282.025V282.018Z" fill="#263238" stroke="#263238" stroke-width="0.686186" stroke-miterlimit="10"/>
<path d="M309.681 291.323H13.1797" stroke="#263238" stroke-width="0.686186" stroke-miterlimit="10"/>
</g>
<defs>
<clipPath id="clip0_1005_5289">
<rect width="309.367" height="291.924" fill="white" transform="translate(0.316406 0.538086)"/>
</clipPath>
</defs>
</svg>
