<svg width="20" height="18" viewBox="0 0 20 18" fill="none" xmlns="http://www.w3.org/2000/svg">
<path d="M3.25 0C3.15525 0 3.06204 0.00524024 2.96973 0.0146484C2.78574 0.0333993 2.6071 0.0706645 2.43555 0.124023C1.57361 0.392123 0.892123 1.07361 0.624023 1.93555C0.570665 2.1071 0.533399 2.28574 0.514648 2.46973V2.4707C0.505305 2.56271 0.5 2.65558 0.5 2.75V3.75V15.25C0.5 16.7599 1.74011 18 3.25 18H16.75C18.2599 18 19.5 16.7599 19.5 15.25V3.75V2.75C19.5 2.6553 19.4949 2.56206 19.4854 2.46973C19.4666 2.28574 19.4293 2.1071 19.376 1.93555C19.1079 1.07361 18.4264 0.392123 17.5645 0.124023C17.3929 0.0706645 17.2143 0.0333993 17.0303 0.0146484H17.0293C16.9373 0.00519694 16.8444 0 16.75 0H3.25ZM3.25 1.5C3.664 1.5 4 1.836 4 2.25C4 2.664 3.664 3 3.25 3C2.836 3 2.5 2.664 2.5 2.25C2.5 1.836 2.836 1.5 3.25 1.5ZM5.75 1.5C6.164 1.5 6.5 1.836 6.5 2.25C6.5 2.664 6.164 3 5.75 3C5.336 3 5 2.664 5 2.25C5 1.836 5.336 1.5 5.75 1.5ZM8.75 1.5H16.75C17.164 1.5 17.5 1.836 17.5 2.25C17.5 2.664 17.164 3 16.75 3H8.75C8.336 3 8 2.664 8 2.25C8 1.836 8.336 1.5 8.75 1.5ZM2 4.5H18V15.25C18 15.9491 17.4491 16.5 16.75 16.5H3.25C2.55089 16.5 2 15.9491 2 15.25V4.5ZM4.25 6C4.05109 6.00002 3.86034 6.07904 3.71969 6.21969C3.57904 6.36034 3.50002 6.55109 3.5 6.75V14.25C3.50002 14.4489 3.57904 14.6397 3.71969 14.7803C3.86034 14.921 4.05109 15 4.25 15H8.25C8.44891 15 8.63966 14.921 8.78031 14.7803C8.92096 14.6397 8.99998 14.4489 9 14.25V6.75C8.99998 6.55109 8.92096 6.36034 8.78031 6.21969C8.63966 6.07904 8.44891 6.00002 8.25 6H4.25ZM11.25 6C11.1506 5.99859 11.0519 6.01696 10.9597 6.05402C10.8675 6.09108 10.7836 6.1461 10.7128 6.21588C10.642 6.28566 10.5858 6.36882 10.5474 6.46051C10.5091 6.5522 10.4893 6.65061 10.4893 6.75C10.4893 6.84939 10.5091 6.9478 10.5474 7.03949C10.5858 7.13118 10.642 7.21434 10.7128 7.28412C10.7836 7.3539 10.8675 7.40892 10.9597 7.44598C11.0519 7.48304 11.1506 7.50141 11.25 7.5H15.75C15.8494 7.50141 15.9481 7.48304 16.0403 7.44598C16.1325 7.40892 16.2164 7.3539 16.2872 7.28412C16.358 7.21434 16.4142 7.13118 16.4526 7.03949C16.4909 6.9478 16.5107 6.84939 16.5107 6.75C16.5107 6.65061 16.4909 6.5522 16.4526 6.46051C16.4142 6.36882 16.358 6.28566 16.2872 6.21588C16.2164 6.1461 16.1325 6.09108 16.0403 6.05402C15.9481 6.01696 15.8494 5.99859 15.75 6H11.25ZM5 7.5H7.5V13.5H5V7.5ZM11.25 8.5C11.1506 8.49859 11.0519 8.51696 10.9597 8.55402C10.8675 8.59108 10.7836 8.6461 10.7128 8.71588C10.642 8.78566 10.5858 8.86882 10.5474 8.96051C10.5091 9.0522 10.4893 9.15061 10.4893 9.25C10.4893 9.34939 10.5091 9.4478 10.5474 9.53949C10.5858 9.63118 10.642 9.71434 10.7128 9.78412C10.7836 9.8539 10.8675 9.90892 10.9597 9.94598C11.0519 9.98304 11.1506 10.0014 11.25 10H15.75C15.8494 10.0014 15.9481 9.98304 16.0403 9.94598C16.1325 9.90892 16.2164 9.8539 16.2872 9.78412C16.358 9.71434 16.4142 9.63118 16.4526 9.53949C16.4909 9.4478 16.5107 9.34939 16.5107 9.25C16.5107 9.15061 16.4909 9.0522 16.4526 8.96051C16.4142 8.86882 16.358 8.78566 16.2872 8.71588C16.2164 8.6461 16.1325 8.59108 16.0403 8.55402C15.9481 8.51696 15.8494 8.49859 15.75 8.5H11.25ZM11.25 11C11.1506 10.9986 11.0519 11.017 10.9597 11.054C10.8675 11.0911 10.7836 11.1461 10.7128 11.2159C10.642 11.2857 10.5858 11.3688 10.5474 11.4605C10.5091 11.5522 10.4893 11.6506 10.4893 11.75C10.4893 11.8494 10.5091 11.9478 10.5474 12.0395C10.5858 12.1312 10.642 12.2143 10.7128 12.2841C10.7836 12.3539 10.8675 12.4089 10.9597 12.446C11.0519 12.483 11.1506 12.5014 11.25 12.5H15.75C15.8494 12.5014 15.9481 12.483 16.0403 12.446C16.1325 12.4089 16.2164 12.3539 16.2872 12.2841C16.358 12.2143 16.4142 12.1312 16.4526 12.0395C16.4909 11.9478 16.5107 11.8494 16.5107 11.75C16.5107 11.6506 16.4909 11.5522 16.4526 11.4605C16.4142 11.3688 16.358 11.2857 16.2872 11.2159C16.2164 11.1461 16.1325 11.0911 16.0403 11.054C15.9481 11.017 15.8494 10.9986 15.75 11H11.25ZM11.25 13.5C11.1506 13.4986 11.0519 13.517 10.9597 13.554C10.8675 13.5911 10.7836 13.6461 10.7128 13.7159C10.642 13.7857 10.5858 13.8688 10.5474 13.9605C10.5091 14.0522 10.4893 14.1506 10.4893 14.25C10.4893 14.3494 10.5091 14.4478 10.5474 14.5395C10.5858 14.6312 10.642 14.7143 10.7128 14.7841C10.7836 14.8539 10.8675 14.9089 10.9597 14.946C11.0519 14.983 11.1506 15.0014 11.25 15H13.75C13.8494 15.0014 13.9481 14.983 14.0403 14.946C14.1325 14.9089 14.2164 14.8539 14.2872 14.7841C14.358 14.7143 14.4142 14.6312 14.4526 14.5395C14.4909 14.4478 14.5107 14.3494 14.5107 14.25C14.5107 14.1506 14.4909 14.0522 14.4526 13.9605C14.4142 13.8688 14.358 13.7857 14.2872 13.7159C14.2164 13.6461 14.1325 13.5911 14.0403 13.554C13.9481 13.517 13.8494 13.4986 13.75 13.5H11.25Z" fill="#475467"/>
</svg>
