<svg width="20" height="21" viewBox="0 0 20 21" fill="none" xmlns="http://www.w3.org/2000/svg">
<path d="M10 0.5C4.48603 0.5 0 4.98604 0 10.5C0 16.014 4.48603 20.5 10 20.5C15.514 20.5 20 16.014 20 10.5C20 4.98604 15.514 0.5 10 0.5ZM10 2C14.7033 2 18.5 5.7967 18.5 10.5C18.5 15.2033 14.7033 19 10 19C5.29669 19 1.5 15.2033 1.5 10.5C1.5 5.7967 5.29669 2 10 2ZM5.75 9.75C5.65062 9.74859 5.55194 9.76696 5.45972 9.80402C5.36749 9.84108 5.28355 9.8961 5.21277 9.96588C5.142 10.0357 5.08579 10.1188 5.04743 10.2105C5.00907 10.3022 4.98932 10.4006 4.98932 10.5C4.98932 10.5994 5.00907 10.6978 5.04743 10.7895C5.08579 10.8812 5.142 10.9643 5.21277 11.0341C5.28355 11.1039 5.36749 11.1589 5.45972 11.196C5.55194 11.233 5.65062 11.2514 5.75 11.25H14.25C14.3494 11.2514 14.4481 11.233 14.5403 11.196C14.6325 11.1589 14.7164 11.1039 14.7872 11.0341C14.858 10.9643 14.9142 10.8812 14.9526 10.7895C14.9909 10.6978 15.0107 10.5994 15.0107 10.5C15.0107 10.4006 14.9909 10.3022 14.9526 10.2105C14.9142 10.1188 14.858 10.0357 14.7872 9.96588C14.7164 9.8961 14.6325 9.84108 14.5403 9.80402C14.4481 9.76696 14.3494 9.74859 14.25 9.75H5.75Z" fill="#667085"/>
</svg>
