<svg width="30" height="30" viewBox="0 0 30 30" fill="none" xmlns="http://www.w3.org/2000/svg">
<path d="M15 2.5C8.10754 2.5 2.5 8.10755 2.5 15C2.5 21.8925 8.10754 27.5 15 27.5C21.8925 27.5 27.5 21.8925 27.5 15C27.5 8.10755 21.8925 2.5 15 2.5ZM15 4.375C20.8791 4.375 25.625 9.12087 25.625 15C25.625 20.8791 20.8791 25.625 15 25.625C9.12087 25.625 4.375 20.8791 4.375 15C4.375 9.12087 9.12087 4.375 15 4.375ZM14.9854 8.73657C14.7369 8.74045 14.5002 8.84278 14.3272 9.02108C14.1541 9.19938 14.0589 9.43907 14.0625 9.6875V14.0625H9.6875C9.56327 14.0607 9.43993 14.0837 9.32465 14.13C9.20936 14.1763 9.10444 14.2451 9.01597 14.3324C8.9275 14.4196 8.85724 14.5235 8.80929 14.6381C8.76134 14.7528 8.73665 14.8758 8.73665 15C8.73665 15.1242 8.76134 15.2472 8.80929 15.3619C8.85724 15.4765 8.9275 15.5804 9.01597 15.6676C9.10444 15.7549 9.20936 15.8237 9.32465 15.87C9.43993 15.9163 9.56327 15.9393 9.6875 15.9375H14.0625V20.3125C14.0607 20.4367 14.0837 20.5601 14.13 20.6754C14.1763 20.7906 14.2451 20.8956 14.3324 20.984C14.4196 21.0725 14.5235 21.1428 14.6381 21.1907C14.7528 21.2387 14.8758 21.2634 15 21.2634C15.1242 21.2634 15.2472 21.2387 15.3619 21.1907C15.4765 21.1428 15.5804 21.0725 15.6676 20.984C15.7549 20.8956 15.8237 20.7906 15.87 20.6754C15.9163 20.5601 15.9393 20.4367 15.9375 20.3125V15.9375H20.3125C20.4367 15.9393 20.5601 15.9163 20.6754 15.87C20.7906 15.8237 20.8956 15.7549 20.984 15.6676C21.0725 15.5804 21.1428 15.4765 21.1907 15.3619C21.2387 15.2472 21.2634 15.1242 21.2634 15C21.2634 14.8758 21.2387 14.7528 21.1907 14.6381C21.1428 14.5235 21.0725 14.4196 20.984 14.3324C20.8956 14.2451 20.7906 14.1763 20.6754 14.13C20.5601 14.0837 20.4367 14.0607 20.3125 14.0625H15.9375V9.6875C15.9393 9.56202 15.9159 9.43746 15.8687 9.32119C15.8214 9.20493 15.7513 9.09933 15.6626 9.01065C15.5738 8.92197 15.4681 8.85202 15.3517 8.80494C15.2354 8.75786 15.1108 8.73461 14.9854 8.73657Z" fill="#4A5366"/>
</svg>
