<svg width="18" height="19" viewBox="0 0 18 19" fill="none" xmlns="http://www.w3.org/2000/svg">
<path d="M2.42871 2.36722C2.40145 2.36793 2.37428 2.37062 2.34741 2.37528H1.6875C1.61296 2.37422 1.53896 2.38799 1.46979 2.41579C1.40062 2.44358 1.33766 2.48485 1.28458 2.53719C1.2315 2.58952 1.18935 2.65189 1.16058 2.72066C1.1318 2.78943 1.11699 2.86323 1.11699 2.93778C1.11699 3.01232 1.1318 3.08612 1.16058 3.15489C1.18935 3.22366 1.2315 3.28603 1.28458 3.33837C1.33766 3.3907 1.40062 3.43197 1.46979 3.45976C1.53896 3.48756 1.61296 3.50133 1.6875 3.50028H1.875V10.6634C1.24744 10.7592 0.75 11.2859 0.75 11.9378V16.0628C0.750015 16.212 0.809283 16.355 0.914769 16.4605C1.02025 16.566 1.16332 16.6253 1.3125 16.6253H11.8125C11.9617 16.6253 12.1047 16.566 12.2102 16.4605C12.3157 16.355 12.375 16.212 12.375 16.0628V11.9378C12.375 11.2859 11.8776 10.7592 11.25 10.6634V3.50028H11.4375C11.512 3.50133 11.586 3.48756 11.6552 3.45976C11.7244 3.43197 11.7873 3.3907 11.8404 3.33837C11.8935 3.28603 11.9357 3.22366 11.9644 3.15489C11.9932 3.08612 12.008 3.01232 12.008 2.93778C12.008 2.86323 11.9932 2.78943 11.9644 2.72066C11.9357 2.65189 11.8935 2.58952 11.8404 2.53719C11.7873 2.48485 11.7244 2.44358 11.6552 2.41579C11.586 2.38799 11.512 2.37422 11.4375 2.37528H10.7798C10.7194 2.36536 10.6578 2.36536 10.5974 2.37528H2.52979C2.4964 2.36955 2.46258 2.36686 2.42871 2.36722ZM3 3.50028H10.125V11.1878C10.125 11.337 10.1843 11.48 10.2898 11.5855C10.3953 11.691 10.5383 11.7503 10.6875 11.7503H11.0625C11.1731 11.7503 11.25 11.8271 11.25 11.9378V15.5003H7.5V13.2503C7.5 13.0433 7.332 12.8753 7.125 12.8753H6C5.793 12.8753 5.625 13.0433 5.625 13.2503V15.5003H1.875V11.9378C1.875 11.8271 1.95186 11.7503 2.0625 11.7503H2.4375C2.58668 11.7503 2.72975 11.691 2.83523 11.5855C2.94072 11.48 2.99998 11.337 3 11.1878V3.50028ZM4.875 5.00028C4.668 5.00028 4.5 5.16828 4.5 5.37528V6.12528C4.5 6.33228 4.668 6.50028 4.875 6.50028H5.625C5.832 6.50028 6 6.33228 6 6.12528V5.37528C6 5.16828 5.832 5.00028 5.625 5.00028H4.875ZM7.5 5.00028C7.293 5.00028 7.125 5.16828 7.125 5.37528V6.12528C7.125 6.33228 7.293 6.50028 7.5 6.50028H8.25C8.457 6.50028 8.625 6.33228 8.625 6.12528V5.37528C8.625 5.16828 8.457 5.00028 8.25 5.00028H7.5ZM12 5.00028V6.12528H15.1875C15.705 6.12528 16.125 6.54528 16.125 7.06278V15.5003H13.125V16.2503C13.125 16.3827 13.0982 16.5075 13.0562 16.6253H16.6875C16.9988 16.6253 17.25 16.374 17.25 16.0628V7.06278C17.25 5.92653 16.3237 5.00028 15.1875 5.00028H12ZM4.875 7.62528C4.668 7.62528 4.5 7.79328 4.5 8.00028V8.75028C4.5 8.95728 4.668 9.12528 4.875 9.12528H5.625C5.832 9.12528 6 8.95728 6 8.75028V8.00028C6 7.79328 5.832 7.62528 5.625 7.62528H4.875ZM7.5 7.62528C7.293 7.62528 7.125 7.79328 7.125 8.00028V8.75028C7.125 8.95728 7.293 9.12528 7.5 9.12528H8.25C8.457 9.12528 8.625 8.95728 8.625 8.75028V8.00028C8.625 7.79328 8.457 7.62528 8.25 7.62528H7.5ZM13.875 7.62528C13.668 7.62528 13.5 7.79328 13.5 8.00028V8.75028C13.5 8.95728 13.668 9.12528 13.875 9.12528H14.625C14.832 9.12528 15 8.95728 15 8.75028V8.00028C15 7.79328 14.832 7.62528 14.625 7.62528H13.875ZM4.875 10.2503C4.668 10.2503 4.5 10.4183 4.5 10.6253V11.3753C4.5 11.5823 4.668 11.7503 4.875 11.7503H5.625C5.832 11.7503 6 11.5823 6 11.3753V10.6253C6 10.4183 5.832 10.2503 5.625 10.2503H4.875ZM7.5 10.2503C7.293 10.2503 7.125 10.4183 7.125 10.6253V11.3753C7.125 11.5823 7.293 11.7503 7.5 11.7503H8.25C8.457 11.7503 8.625 11.5823 8.625 11.3753V10.6253C8.625 10.4183 8.457 10.2503 8.25 10.2503H7.5ZM13.875 10.2503C13.668 10.2503 13.5 10.4183 13.5 10.6253V11.3753C13.5 11.5823 13.668 11.7503 13.875 11.7503H14.625C14.832 11.7503 15 11.5823 15 11.3753V10.6253C15 10.4183 14.832 10.2503 14.625 10.2503H13.875ZM3.375 12.8753C3.168 12.8753 3 13.0433 3 13.2503V14.0003C3 14.2073 3.168 14.3753 3.375 14.3753H4.125C4.332 14.3753 4.5 14.2073 4.5 14.0003V13.2503C4.5 13.0433 4.332 12.8753 4.125 12.8753H3.375ZM9 12.8753C8.793 12.8753 8.625 13.0433 8.625 13.2503V14.0003C8.625 14.2073 8.793 14.3753 9 14.3753H9.75C9.957 14.3753 10.125 14.2073 10.125 14.0003V13.2503C10.125 13.0433 9.957 12.8753 9.75 12.8753H9ZM13.875 12.8753C13.668 12.8753 13.5 13.0433 13.5 13.2503V14.0003C13.5 14.2073 13.668 14.3753 13.875 14.3753H14.625C14.832 14.3753 15 14.2073 15 14.0003V13.2503C15 13.0433 14.832 12.8753 14.625 12.8753H13.875Z" fill="#212838"/>
</svg>
