<svg width="18" height="19" viewBox="0 0 18 19" fill="none" xmlns="http://www.w3.org/2000/svg">
<path d="M7.31233 2.38281C4.15086 2.38281 1.57782 4.91818 1.50643 8.06274C1.48769 8.14442 1.48744 8.22925 1.50569 8.31104C1.56817 11.4599 4.14517 14.0078 7.31233 14.0078C8.81015 14.0078 10.173 13.434 11.2044 12.5005L15.5396 16.8357C15.5915 16.8897 15.6535 16.9328 15.7222 16.9625C15.7909 16.9922 15.8649 17.0078 15.9397 17.0086C16.0145 17.0094 16.0888 16.9952 16.1581 16.9669C16.2273 16.9386 16.2903 16.8968 16.3432 16.8439C16.3961 16.7909 16.438 16.728 16.4662 16.6587C16.4945 16.5894 16.5087 16.5152 16.5079 16.4404C16.5072 16.3655 16.4915 16.2916 16.4618 16.2229C16.4321 16.1542 16.389 16.0921 16.335 16.0403L11.9625 11.6677C12.5845 10.8369 12.9933 9.83844 13.097 8.75049H15.9373C16.0119 8.75154 16.0859 8.73777 16.155 8.70998C16.2242 8.68218 16.2872 8.64092 16.3403 8.58858C16.3933 8.53624 16.4355 8.47388 16.4643 8.40511C16.493 8.33634 16.5078 8.26253 16.5078 8.18799C16.5078 8.11344 16.493 8.03964 16.4643 7.97087C16.4355 7.9021 16.3933 7.83974 16.3403 7.7874C16.2872 7.73506 16.2242 7.6938 16.155 7.666C16.0859 7.63821 16.0119 7.62443 15.9373 7.62549H10.264L8.92586 5.28394C8.87435 5.19383 8.79893 5.11974 8.70793 5.06984C8.61693 5.01995 8.5139 4.9962 8.41023 5.00122C8.29899 5.00664 8.19185 5.04497 8.10241 5.11133C8.01296 5.1777 7.94523 5.26912 7.90779 5.37402L6.39461 9.61108L5.1451 7.86133C5.09308 7.78842 5.0244 7.72898 4.94478 7.68796C4.86516 7.64694 4.7769 7.62552 4.68733 7.62549H2.66292C2.94538 5.30701 4.9216 3.50781 7.31233 3.50781C9.29983 3.50781 11.0024 4.74924 11.6849 6.50049H12.8736C12.1461 4.11924 9.92983 2.38281 7.31233 2.38281ZM8.55525 6.90405L9.44881 8.46704C9.49802 8.55316 9.56913 8.62474 9.65492 8.67452C9.74072 8.7243 9.83814 8.7505 9.93733 8.75049H11.9639C11.6878 11.0732 9.7079 12.8828 7.31233 12.8828C4.91677 12.8828 2.93687 11.0732 2.66072 8.75049H4.39803L6.10457 11.1396C6.16431 11.2232 6.24577 11.2888 6.34014 11.3293C6.43451 11.3699 6.53818 11.3838 6.6399 11.3696C6.74162 11.3554 6.83752 11.3137 6.91719 11.2489C6.99687 11.184 7.05728 11.0987 7.09187 11.002L8.55525 6.90405Z" fill="#212838"/>
</svg>
