<svg width="16" height="17" viewBox="0 0 16 17" fill="none" xmlns="http://www.w3.org/2000/svg">
<path d="M6.83264 1.83207C6.75211 1.83104 6.67252 1.84948 6.60065 1.88581C6.52877 1.92214 6.46673 1.9753 6.41981 2.04076C6.37289 2.10622 6.34248 2.18204 6.33115 2.26178C6.31983 2.34151 6.32794 2.42281 6.35478 2.49874H4.87952C4.26485 2.49874 3.69479 2.80415 3.35413 3.31515L2.56506 4.49874H2.49931C2.43305 4.4978 2.36727 4.51004 2.30579 4.53475C2.2443 4.55946 2.18834 4.59614 2.14116 4.64266C2.09397 4.68918 2.0565 4.74462 2.03093 4.80575C2.00536 4.86687 1.99219 4.93248 1.99219 4.99874C1.99219 5.065 2.00536 5.1306 2.03093 5.19173C2.0565 5.25286 2.09397 5.3083 2.14116 5.35482C2.18834 5.40134 2.2443 5.43802 2.30579 5.46273C2.36727 5.48744 2.43305 5.49968 2.49931 5.49874H13.4993C13.5656 5.49968 13.6313 5.48744 13.6928 5.46273C13.7543 5.43802 13.8103 5.40134 13.8575 5.35482C13.9046 5.3083 13.9421 5.25286 13.9677 5.19173C13.9933 5.1306 14.0064 5.065 14.0064 4.99874C14.0064 4.93248 13.9933 4.86687 13.9677 4.80575C13.9421 4.74462 13.9046 4.68918 13.8575 4.64266C13.8103 4.59614 13.7543 4.55946 13.6928 4.53475C13.6313 4.51004 13.5656 4.4978 13.4993 4.49874H13.4336L12.6445 3.31515C12.3038 2.80415 11.7334 2.49874 11.1191 2.49874H9.64384C9.67068 2.42281 9.67879 2.34151 9.66746 2.26178C9.65614 2.18204 9.62572 2.10622 9.5788 2.04076C9.53188 1.9753 9.46985 1.92214 9.39797 1.88581C9.32609 1.84948 9.24651 1.83104 9.16598 1.83207H6.83264ZM2.99019 6.49874L3.70764 13.1941C3.80764 14.1281 4.59123 14.8321 5.53056 14.8321H10.4681C11.4071 14.8321 12.1906 14.1281 12.291 13.1941L13.0084 6.49874H2.99019Z" fill="#667085"/>
</svg>
