<svg width="16" height="17" viewBox="0 0 16 17" fill="none" xmlns="http://www.w3.org/2000/svg">
<path d="M12.8852 6.67897L13.6985 5.86564C14.5432 5.02097 14.5432 3.6463 13.6985 2.8013C13.2895 2.39264 12.7458 2.16797 12.1662 2.16797C11.5865 2.16797 11.0425 2.39297 10.6338 2.80164L9.82084 3.61464L12.8852 6.67897ZM9.11384 4.32164L3.09084 10.3446C2.9625 10.473 2.86484 10.6313 2.80817 10.803L1.6915 14.1766C1.63184 14.356 1.67884 14.5536 1.8125 14.6873C1.90817 14.7826 2.0355 14.8336 2.16617 14.8336C2.21884 14.8336 2.27184 14.8253 2.3235 14.8083L5.69617 13.6913C5.8685 13.6346 6.02717 13.537 6.1555 13.4083L12.1782 7.38564L9.11384 4.32164Z" fill="#667085"/>
</svg>
