<svg width="18" height="18" viewBox="0 0 18 18" fill="none" xmlns="http://www.w3.org/2000/svg">
<path d="M2.4375 2.625C1.51219 2.625 0.75 3.38719 0.75 4.3125C0.75 5.04002 1.22384 5.66059 1.875 5.89526V14.25H1.6875C1.61296 14.2489 1.53896 14.2627 1.46979 14.2905C1.40062 14.3183 1.33766 14.3596 1.28458 14.4119C1.2315 14.4642 1.18935 14.5266 1.16058 14.5954C1.1318 14.6642 1.11699 14.738 1.11699 14.8125C1.11699 14.887 1.1318 14.9608 1.16058 15.0296C1.18935 15.0984 1.2315 15.1608 1.28458 15.2131C1.33766 15.2654 1.40062 15.3067 1.46979 15.3345C1.53896 15.3623 1.61296 15.3761 1.6875 15.375H8.4375V16.3125C8.43727 16.3338 8.43825 16.3551 8.44043 16.3762C8.34427 16.4842 8.28137 16.6177 8.25931 16.7606C8.23726 16.9035 8.25698 17.0497 8.31611 17.1817C8.37524 17.3136 8.47125 17.4257 8.59258 17.5043C8.71392 17.583 8.8554 17.6249 9 17.625C9.14474 17.625 9.28639 17.5832 9.40786 17.5045C9.52934 17.4258 9.62546 17.3136 9.68461 17.1815C9.74377 17.0494 9.76344 16.9031 9.74125 16.76C9.71906 16.617 9.65597 16.4835 9.55957 16.3755C9.56172 16.3546 9.5627 16.3335 9.5625 16.3125V15.375H16.3125C16.387 15.3761 16.461 15.3623 16.5302 15.3345C16.5994 15.3067 16.6623 15.2654 16.7154 15.2131C16.7685 15.1608 16.8107 15.0984 16.8394 15.0296C16.8682 14.9608 16.883 14.887 16.883 14.8125C16.883 14.738 16.8682 14.6642 16.8394 14.5954C16.8107 14.5266 16.7685 14.4642 16.7154 14.4119C16.6623 14.3596 16.5994 14.3183 16.5302 14.2905C16.461 14.2627 16.387 14.2489 16.3125 14.25H16.125V5.89526C16.7762 5.66059 17.25 5.04002 17.25 4.3125C17.25 3.38719 16.4878 2.625 15.5625 2.625H2.4375ZM2.4375 3.75H15.5625C15.8799 3.75 16.125 3.99506 16.125 4.3125C16.125 4.62994 15.8799 4.875 15.5625 4.875H2.4375C2.12006 4.875 1.875 4.62994 1.875 4.3125C1.875 3.99506 2.12006 3.75 2.4375 3.75ZM3 6H15V14.25H9.09229C9.0589 14.2443 9.02508 14.2416 8.99121 14.2419C8.96395 14.2427 8.93678 14.2453 8.90991 14.25H3V6ZM6.375 7.5C4.93191 7.5 3.75 8.68192 3.75 10.125C3.75 11.5681 4.93191 12.75 6.375 12.75C7.81809 12.75 9 11.5681 9 10.125C9 8.68192 7.81809 7.5 6.375 7.5ZM10.6875 8.25C10.613 8.24895 10.539 8.26272 10.4698 8.29051C10.4006 8.31831 10.3377 8.35957 10.2846 8.41191C10.2315 8.46425 10.1893 8.52661 10.1606 8.59538C10.1318 8.66415 10.117 8.73795 10.117 8.8125C10.117 8.88705 10.1318 8.96085 10.1606 9.02962C10.1893 9.09839 10.2315 9.16075 10.2846 9.21309C10.3377 9.26543 10.4006 9.30669 10.4698 9.33449C10.539 9.36228 10.613 9.37605 10.6875 9.375H13.3125C13.387 9.37605 13.461 9.36228 13.5302 9.33449C13.5994 9.30669 13.6623 9.26543 13.7154 9.21309C13.7685 9.16075 13.8107 9.09839 13.8394 9.02962C13.8682 8.96085 13.883 8.88705 13.883 8.8125C13.883 8.73795 13.8682 8.66415 13.8394 8.59538C13.8107 8.52661 13.7685 8.46425 13.7154 8.41191C13.6623 8.35957 13.5994 8.31831 13.5302 8.29051C13.461 8.26272 13.387 8.24895 13.3125 8.25H10.6875ZM6.375 8.625V9.75C6.375 9.957 6.543 10.125 6.75 10.125H7.875C7.875 10.9601 7.21009 11.625 6.375 11.625C5.53991 11.625 4.875 10.9601 4.875 10.125C4.875 9.28991 5.53991 8.625 6.375 8.625ZM10.6875 10.875C10.613 10.8739 10.539 10.8877 10.4698 10.9155C10.4006 10.9433 10.3377 10.9846 10.2846 11.0369C10.2315 11.0892 10.1893 11.1516 10.1606 11.2204C10.1318 11.2892 10.117 11.363 10.117 11.4375C10.117 11.512 10.1318 11.5858 10.1606 11.6546C10.1893 11.7234 10.2315 11.7858 10.2846 11.8381C10.3377 11.8904 10.4006 11.9317 10.4698 11.9595C10.539 11.9873 10.613 12.0011 10.6875 12H13.3125C13.387 12.0011 13.461 11.9873 13.5302 11.9595C13.5994 11.9317 13.6623 11.8904 13.7154 11.8381C13.7685 11.7858 13.8107 11.7234 13.8394 11.6546C13.8682 11.5858 13.883 11.512 13.883 11.4375C13.883 11.363 13.8682 11.2892 13.8394 11.2204C13.8107 11.1516 13.7685 11.0892 13.7154 11.0369C13.6623 10.9846 13.5994 10.9433 13.5302 10.9155C13.461 10.8877 13.387 10.8739 13.3125 10.875H10.6875Z" fill="#212838"/>
</svg>
