<svg width="541" height="256" viewBox="0 0 541 256" fill="none" xmlns="http://www.w3.org/2000/svg">
<g opacity="0.2" clip-path="url(#clip0_6259_16023)">
<path d="M540.892 16.7461H0V300.017H540.892V16.7461Z" fill="#E6E6E6"/>
<path d="M525.283 40.1367H15.6172V276.568H525.283V40.1367Z" fill="white"/>
<path d="M540.892 0H0V24.5353H540.892V0Z" fill="#016A70"/>
<path d="M16.711 20.0997C19.1747 20.0997 21.1719 17.8528 21.1719 15.0811C21.1719 12.3094 19.1747 10.0625 16.711 10.0625C14.2472 10.0625 12.25 12.3094 12.25 15.0811C12.25 17.8528 14.2472 20.0997 16.711 20.0997Z" fill="white"/>
<path d="M33.4649 20.0997C35.9286 20.0997 37.9258 17.8528 37.9258 15.0811C37.9258 12.3094 35.9286 10.0625 33.4649 10.0625C31.0011 10.0625 29.0039 12.3094 29.0039 15.0811C29.0039 17.8528 31.0011 20.0997 33.4649 20.0997Z" fill="white"/>
<path d="M49.0821 20.0997C51.5458 20.0997 53.543 17.8528 53.543 15.0811C53.543 12.3094 51.5458 10.0625 49.0821 10.0625C46.6183 10.0625 44.6211 12.3094 44.6211 15.0811C44.6211 17.8528 46.6183 20.0997 49.0821 20.0997Z" fill="white"/>
<path d="M499.961 228.647H247.267C247.058 228.647 246.857 228.556 246.708 228.393C246.56 228.229 246.477 228.008 246.477 227.778V94.5728C246.477 94.3422 246.56 94.121 246.708 93.9578C246.857 93.7947 247.058 93.7031 247.267 93.7031C247.477 93.7031 247.678 93.7947 247.827 93.9578C247.975 94.121 248.058 94.3422 248.058 94.5728V226.908H499.961C500.171 226.908 500.372 226.999 500.52 227.163C500.668 227.326 500.752 227.547 500.752 227.778C500.752 228.008 500.668 228.229 500.52 228.393C500.372 228.556 500.171 228.647 499.961 228.647Z" fill="#3F3D56"/>
<path d="M302.079 219.694H278.927C278.3 219.693 277.699 219.427 277.256 218.955C276.813 218.483 276.563 217.843 276.562 217.175V183.179C276.563 182.511 276.813 181.871 277.256 181.399C277.699 180.927 278.3 180.661 278.927 180.66H302.079C302.706 180.661 303.307 180.927 303.75 181.399C304.193 181.871 304.443 182.511 304.444 183.179V217.175C304.443 217.843 304.193 218.483 303.75 218.955C303.307 219.427 302.706 219.693 302.079 219.694Z" fill="#016A70"/>
<path d="M343.333 219.709H320.181C319.554 219.709 318.953 219.439 318.51 218.958C318.067 218.478 317.817 217.827 317.816 217.148V149.78C317.817 149.101 318.067 148.45 318.51 147.97C318.953 147.49 319.554 147.22 320.181 147.219H343.333C343.96 147.22 344.561 147.49 345.004 147.97C345.447 148.45 345.697 149.101 345.697 149.78V217.148C345.697 217.827 345.447 218.478 345.004 218.958C344.561 219.439 343.96 219.709 343.333 219.709Z" fill="#016A70"/>
<path d="M385.719 219.694H362.568C361.941 219.693 361.34 219.427 360.897 218.955C360.453 218.483 360.204 217.843 360.203 217.175V183.179C360.204 182.511 360.453 181.871 360.897 181.399C361.34 180.927 361.941 180.661 362.568 180.66H385.719C386.346 180.661 386.947 180.927 387.391 181.399C387.834 181.871 388.083 182.511 388.084 183.179V217.175C388.083 217.843 387.834 218.483 387.391 218.955C386.947 219.427 386.346 219.693 385.719 219.694Z" fill="#016A70"/>
<path d="M427.082 219.713H404.856C404.268 219.727 403.699 219.477 403.273 219.016C402.848 218.555 402.601 217.922 402.586 217.255V136.298C402.601 135.631 402.848 134.998 403.273 134.537C403.699 134.077 404.268 133.826 404.856 133.84H427.082C427.67 133.826 428.239 134.077 428.664 134.537C429.09 134.998 429.337 135.631 429.352 136.298V217.255C429.337 217.922 429.09 218.555 428.664 219.016C428.239 219.477 427.67 219.727 427.082 219.713Z" fill="#016A70"/>
<path d="M469.364 219.696H446.212C445.585 219.695 444.984 219.424 444.541 218.941C444.098 218.458 443.848 217.804 443.848 217.121V112.977C443.848 112.294 444.098 111.64 444.541 111.157C444.984 110.675 445.585 110.403 446.212 110.402H469.364C469.991 110.403 470.592 110.675 471.035 111.157C471.479 111.64 471.728 112.294 471.729 112.977V217.121C471.728 217.804 471.479 218.458 471.035 218.941C470.592 219.424 469.991 219.695 469.364 219.696Z" fill="#016A70"/>
<path d="M289.957 168.389C292.421 168.389 294.418 166.142 294.418 163.37C294.418 160.598 292.421 158.352 289.957 158.352C287.493 158.352 285.496 160.598 285.496 163.37C285.496 166.142 287.493 168.389 289.957 168.389Z" fill="#3F3D56"/>
<path d="M332.34 134.943C334.804 134.943 336.801 132.697 336.801 129.925C336.801 127.153 334.804 124.906 332.34 124.906C329.876 124.906 327.879 127.153 327.879 129.925C327.879 132.697 329.876 134.943 332.34 134.943Z" fill="#3F3D56"/>
<path d="M374.159 168.389C376.931 168.389 379.178 166.142 379.178 163.37C379.178 160.598 376.931 158.352 374.159 158.352C371.388 158.352 369.141 160.598 369.141 163.37C369.141 166.142 371.388 168.389 374.159 168.389Z" fill="#3F3D56"/>
<path d="M415.98 118.19C418.444 118.19 420.441 115.943 420.441 113.171C420.441 110.399 418.444 108.152 415.98 108.152C413.517 108.152 411.52 110.399 411.52 113.171C411.52 115.943 413.517 118.19 415.98 118.19Z" fill="#3F3D56"/>
<path d="M457.8 98.1192C460.572 98.1192 462.818 95.8723 462.818 93.1006C462.818 90.3289 460.572 88.082 457.8 88.082C455.028 88.082 452.781 90.3289 452.781 93.1006C452.781 95.8723 455.028 98.1192 457.8 98.1192Z" fill="#3F3D56"/>
<path d="M374.327 165.079L332.32 130.284L290.886 164.603L289.938 163.203L332.32 128.098L374.127 162.728L415.673 112.451L415.84 112.376L457.748 93.7031L458.339 95.3257L416.598 113.923L374.327 165.079Z" fill="#3F3D56"/>
<path d="M144.957 70.2656H73.582V74.7266H144.957V70.2656Z" fill="#E6E6E6"/>
<path d="M183.991 87.0117H73.582V93.7032H183.991V87.0117Z" fill="#016A70"/>
<path d="M165.042 103.711H74.707V110.402H165.042V103.711Z" fill="#E6E6E6"/>
<path d="M125.998 121.582H73.582V128.273H125.998V121.582Z" fill="#E6E6E6"/>
<path d="M152.764 140.523H73.582V144.984H152.764V140.523Z" fill="#016A70"/>
<path d="M49.0587 68.0156H40.1367V76.9376H49.0587V68.0156Z" fill="#E6E6E6"/>
<path d="M49.0587 84.7695H40.1367V94.8067H49.0587V84.7695Z" fill="#016A70"/>
<path d="M49.0587 101.469H40.1367V111.506H49.0587V101.469Z" fill="#E6E6E6"/>
<path d="M49.0587 120.457H40.1367V130.494H49.0587V120.457Z" fill="#E6E6E6"/>
<path d="M49.0587 138.281H40.1367V148.318H49.0587V138.281Z" fill="#016A70"/>
<path d="M144.957 158.352H73.582V163.928H144.957V158.352Z" fill="#E6E6E6"/>
<path d="M183.991 175.094H73.582V181.785H183.991V175.094Z" fill="#016A70"/>
<path d="M165.042 191.793H74.707V198.484H165.042V191.793Z" fill="#E6E6E6"/>
<path d="M125.998 209.664H73.582V216.356H125.998V209.664Z" fill="#E6E6E6"/>
<path d="M152.764 228.617H73.582V233.078H152.764V228.617Z" fill="#E6E6E6"/>
<path d="M49.0587 157.223H40.1367V165.029H49.0587V157.223Z" fill="#E6E6E6"/>
<path d="M49.0587 173.977H40.1367V184.014H49.0587V173.977Z" fill="#016A70"/>
<path d="M49.0587 190.723H40.1367V200.76H49.0587V190.723Z" fill="#E6E6E6"/>
<path d="M49.0587 208.547H40.1367V218.584H49.0587V208.547Z" fill="#E6E6E6"/>
<path d="M49.0587 226.418H40.1367V235.34H49.0587V226.418Z" fill="#E6E6E6"/>
</g>
<defs>
<clipPath id="clip0_6259_16023">
<rect width="540.892" height="300" fill="white"/>
</clipPath>
</defs>
</svg>
