<svg width="88" height="88" viewBox="0 0 88 88" fill="none" xmlns="http://www.w3.org/2000/svg">
<path d="M58.6667 51.3332C58.6667 54.3707 61.1293 56.8332 64.1667 56.8332C67.2042 56.8332 69.6667 54.3707 69.6667 51.3332C69.6667 48.2958 67.2042 45.8333 64.1667 45.8333C61.1293 45.8333 58.6667 48.2958 58.6667 51.3332Z" stroke="white" stroke-width="5.49999"/>
<path d="M14.6668 73.3333C10.6167 73.3333 7.33344 70.0501 7.33344 66C7.33344 61.9498 10.6167 58.6666 14.6668 58.6666C18.7168 58.6666 22.0001 63.5554 22.0001 66C22.0001 68.4445 18.7168 73.3333 14.6668 73.3333Z" stroke="white" stroke-width="5.49999"/>
<path d="M29.3334 73.3333C25.2833 73.3333 22.0001 67.8333 22.0001 66C22.0001 64.1666 25.2833 58.6666 29.3334 58.6666C33.3835 58.6666 36.6667 61.9498 36.6667 66C36.6667 70.0501 33.3835 73.3333 29.3334 73.3333Z" stroke="white" stroke-width="5.49999"/>
<path d="M47.6667 73.3332H58.6667C69.0375 73.3332 74.2229 73.3332 77.4448 70.1113C80.6667 66.8894 80.6667 61.704 80.6667 51.3333V47.6666C80.6667 37.2958 80.6667 32.1103 77.4448 28.8884C75.0934 26.537 71.6958 25.9018 66 25.7301M66 25.7301C63.8917 25.6666 61.4684 25.6666 58.6667 25.6666H36.6667M66 25.7301C66 22.2536 66 20.5153 65.4225 19.1476C64.6797 17.3877 63.279 15.9871 61.519 15.2441C60.1514 14.6666 58.413 14.6666 54.9366 14.6666H36.6667C22.8389 14.6666 15.925 14.6666 11.6292 18.9624C7.33344 23.2582 7.33344 26.5054 7.33344 40.3333V47.6666" stroke="white" stroke-width="5.49999" stroke-linecap="round"/>
</svg>
