<svg width="113" height="84" viewBox="0 0 113 84" fill="none" xmlns="http://www.w3.org/2000/svg">
<g opacity="0.15">
<path d="M23.6666 44.4998L10.3359 43.7101C19.8914 19.1661 47.3261 5.18662 74.0741 12.1371C102.563 19.5399 119.485 47.8825 111.87 75.4419C105.572 98.2366 84.4611 113.356 61.2292 113.714" stroke="white" stroke-width="7.7519" stroke-linecap="round" stroke-linejoin="round"/>
<path d="M62.0152 113.714C33.5916 113.714 10.3359 87.8744 10.3359 56.8668" stroke="white" stroke-width="7.7519" stroke-linecap="round" stroke-linejoin="round" stroke-dasharray="2.58 15.5"/>
<path d="M70.3041 50.2611C68.4876 48.3536 64.0338 43.8714 56.9982 47.0535C49.9628 50.2357 48.8452 60.4741 59.4871 61.5619C64.2974 62.0534 67.4333 60.9914 70.3041 63.9955C73.1754 66.9996 73.7087 75.3546 66.3692 77.6058C59.0292 79.8575 54.2737 76.1391 52.9946 74.9758M61.5387 41.464V45.552M61.5387 78.2988V82.8073" stroke="white" stroke-width="7.7519" stroke-linecap="round" stroke-linejoin="round"/>
</g>
</svg>
