<svg width="24" height="24" viewBox="0 0 24 24" fill="none" xmlns="http://www.w3.org/2000/svg">
<circle cx="12" cy="12" r="12" fill="#212838"/>
<path d="M18.7747 8.48549C18.6406 8.48866 18.5132 8.54474 18.4204 8.6415L12.1793 14.8825L5.93827 8.6415C5.89095 8.59277 5.83433 8.55403 5.77176 8.52757C5.70919 8.50111 5.64196 8.48748 5.57403 8.48748C5.47299 8.4875 5.37425 8.51767 5.29046 8.57412C5.20666 8.63058 5.14161 8.71075 5.10364 8.80438C5.06566 8.898 5.05648 9.00084 5.07727 9.09971C5.09807 9.19859 5.14789 9.28901 5.22036 9.35941L11.8204 15.9594C11.9156 16.0546 12.0447 16.1081 12.1793 16.1081C12.3139 16.1081 12.4431 16.0546 12.5383 15.9594L19.1383 9.35941C19.2121 9.28855 19.2628 9.19704 19.2837 9.09687C19.3046 8.99669 19.2948 8.89254 19.2555 8.79806C19.2162 8.70358 19.1492 8.62318 19.0634 8.5674C18.9776 8.51163 18.877 8.48308 18.7747 8.48549Z" fill="#F8FAFC"/>
</svg>
