<svg width="24" height="24" viewBox="0 0 24 24" fill="none" xmlns="http://www.w3.org/2000/svg">
<circle cx="12" cy="12" r="12" transform="matrix(1 0 0 -1 0 24)" fill="#667085"/>
<path d="M18.7786 15.5145C18.6445 15.5113 18.5171 15.4553 18.4243 15.3585L12.1832 9.11745L5.94217 15.3585C5.89485 15.4072 5.83823 15.446 5.77567 15.4724C5.7131 15.4989 5.64586 15.5125 5.57793 15.5125C5.47689 15.5125 5.37816 15.4823 5.29436 15.4259C5.21057 15.3694 5.14552 15.2893 5.10754 15.1956C5.06957 15.102 5.06039 14.9992 5.08118 14.9003C5.10197 14.8014 5.15179 14.711 5.22427 14.6406L11.8243 8.04059C11.9195 7.94541 12.0486 7.89195 12.1832 7.89195C12.3178 7.89195 12.447 7.94541 12.5422 8.04059L19.1422 14.6406C19.216 14.7114 19.2667 14.803 19.2876 14.9031C19.3085 15.0033 19.2987 15.1075 19.2594 15.2019C19.2201 15.2964 19.1531 15.3768 19.0673 15.4326C18.9815 15.4884 18.8809 15.5169 18.7786 15.5145Z" fill="#F8FAFC"/>
</svg>
