<svg width="20" height="20" viewBox="0 0 20 20" fill="none" xmlns="http://www.w3.org/2000/svg">
<path d="M10.0003 1.66602C5.40535 1.66602 1.66699 5.40438 1.66699 9.99935C1.66699 14.5943 5.40535 18.3327 10.0003 18.3327C14.5953 18.3327 18.3337 14.5943 18.3337 9.99935C18.3337 5.40438 14.5953 1.66602 10.0003 1.66602ZM10.0003 2.91602C13.9197 2.91602 17.0837 6.07993 17.0837 9.99935C17.0837 13.9188 13.9197 17.0827 10.0003 17.0827C6.0809 17.0827 2.91699 13.9188 2.91699 9.99935C2.91699 6.07993 6.0809 2.91602 10.0003 2.91602ZM9.99056 5.82373C9.82494 5.82632 9.66712 5.89454 9.55177 6.0134C9.43641 6.13227 9.37295 6.29206 9.37533 6.45768V9.37435H6.45866C6.37584 9.37318 6.29361 9.38848 6.21676 9.41936C6.1399 9.45025 6.06995 9.4961 6.01097 9.55425C5.95199 9.6124 5.90515 9.6817 5.87319 9.75811C5.84122 9.83452 5.82476 9.91652 5.82476 9.99935C5.82476 10.0822 5.84122 10.1642 5.87319 10.2406C5.90515 10.317 5.95199 10.3863 6.01097 10.4444C6.06995 10.5026 6.1399 10.5485 6.21676 10.5793C6.29361 10.6102 6.37584 10.6255 6.45866 10.6243H9.37533V13.541C9.37415 13.6238 9.38946 13.7061 9.42034 13.7829C9.45122 13.8598 9.49707 13.9297 9.55523 13.9887C9.61338 14.0477 9.68267 14.0945 9.75908 14.1265C9.83549 14.1585 9.9175 14.1749 10.0003 14.1749C10.0832 14.1749 10.1652 14.1585 10.2416 14.1265C10.318 14.0945 10.3873 14.0477 10.4454 13.9887C10.5036 13.9297 10.5494 13.8598 10.5803 13.7829C10.6112 13.7061 10.6265 13.6238 10.6253 13.541V10.6243H13.542C13.6248 10.6255 13.707 10.6102 13.7839 10.5793C13.8608 10.5485 13.9307 10.5026 13.9897 10.4444C14.0487 10.3863 14.0955 10.317 14.1275 10.2406C14.1594 10.1642 14.1759 10.0822 14.1759 9.99935C14.1759 9.91652 14.1594 9.83452 14.1275 9.75811C14.0955 9.6817 14.0487 9.6124 13.9897 9.55425C13.9307 9.4961 13.8608 9.45025 13.7839 9.41936C13.707 9.38848 13.6248 9.37318 13.542 9.37435H10.6253V6.45768C10.6265 6.37403 10.6109 6.29099 10.5794 6.21348C10.5479 6.13597 10.5012 6.06557 10.442 6.00645C10.3828 5.94733 10.3124 5.90069 10.2348 5.86931C10.1573 5.83792 10.0742 5.82242 9.99056 5.82373Z" fill="#4a5366"/>
</svg>
