<svg width="21" height="20" viewBox="0 0 21 20" fill="none" xmlns="http://www.w3.org/2000/svg">
<path d="M18.4216 8.36824H17.7503V8.33366H10.2503V11.667H14.9599C14.2728 13.6074 12.4266 15.0003 10.2503 15.0003C7.48908 15.0003 5.25033 12.7616 5.25033 10.0003C5.25033 7.23908 7.48908 5.00033 10.2503 5.00033C11.5249 5.00033 12.6845 5.48116 13.5674 6.26658L15.9245 3.90949C14.4362 2.52241 12.4453 1.66699 10.2503 1.66699C5.64824 1.66699 1.91699 5.39824 1.91699 10.0003C1.91699 14.6024 5.64824 18.3337 10.2503 18.3337C14.8524 18.3337 18.5837 14.6024 18.5837 10.0003C18.5837 9.44158 18.5262 8.89616 18.4216 8.36824Z" fill="#FBC02D"/>
<path d="M2.87793 6.12158L5.61585 8.12949C6.35668 6.29533 8.15085 5.00033 10.2504 5.00033C11.525 5.00033 12.6846 5.48116 13.5675 6.26658L15.9246 3.90949C14.4363 2.52241 12.4454 1.66699 10.2504 1.66699C7.0496 1.66699 4.27376 3.47408 2.87793 6.12158Z" fill="#E53935"/>
<path d="M10.2498 18.3336C12.4023 18.3336 14.3581 17.5099 15.8369 16.1703L13.2577 13.9878C12.4211 14.6215 11.3811 15.0003 10.2498 15.0003C8.0823 15.0003 6.24189 13.6182 5.54855 11.6895L2.83105 13.7832C4.21022 16.482 7.01105 18.3336 10.2498 18.3336Z" fill="#4CAF50"/>
<path d="M18.4213 8.36759L18.4146 8.33301H17.75H10.25V11.6663H14.9596C14.6296 12.5984 14.03 13.4022 13.2567 13.9876L13.2579 13.9868L15.8371 16.1693C15.6546 16.3351 18.5833 14.1663 18.5833 9.99967C18.5833 9.44092 18.5258 8.89551 18.4213 8.36759Z" fill="#1565C0"/>
</svg>
