<svg width="167" height="22" viewBox="0 0 167 22" fill="none" xmlns="http://www.w3.org/2000/svg">
<g clip-path="url(#clip0_178_25)">
<mask id="mask0_178_25" style="mask-type:luminance" maskUnits="userSpaceOnUse" x="16" y="4" width="14" height="12">
<path d="M16.7988 7.3227H23.811C25.1872 7.3227 26.303 8.43859 26.303 9.81472C26.303 11.1908 25.1872 12.3069 23.811 12.3067H17.9962V15.6294H23.8012C26.9999 15.6444 29.6258 13.035 29.6258 9.81457C29.6258 6.5941 27.0224 4 23.8113 4H18.7173L16.799 7.3227H16.7988Z" fill="white"/>
</mask>
<g mask="url(#mask0_178_25)">
<path d="M29.6258 4H16.7988V15.6447H29.6258V4Z" fill="#002A2D"/>
</g>
<mask id="mask1_178_25" style="mask-type:luminance" maskUnits="userSpaceOnUse" x="0" y="4" width="20" height="14">
<path d="M11.4058 18L17.5703 7.3227L19.4887 4H15.6519L9.7444 14.2322L3.83693 4H0L8.08291 18H11.4058Z" fill="white"/>
</mask>
<g mask="url(#mask1_178_25)">
<path d="M19.4887 4H0V18H19.4887V4Z" fill="#016A70"/>
</g>
</g>
<path d="M42.845 18L37.965 4.24H42.685L44.585 10.6C44.6383 10.7733 44.7117 11.0267 44.805 11.36C44.8983 11.6933 44.9983 12.0467 45.105 12.42C45.225 12.7933 45.325 13.1333 45.405 13.44H45.565C45.645 13.16 45.7383 12.84 45.845 12.48C45.9517 12.12 46.0517 11.7733 46.145 11.44C46.2517 11.0933 46.3317 10.8133 46.385 10.6L48.305 4.24H52.825L47.965 18H42.845ZM58.9 18.24C57.6333 18.24 56.5333 18.0467 55.6 17.66C54.68 17.26 53.9667 16.6533 53.46 15.84C52.9667 15.0267 52.72 13.9867 52.72 12.72C52.72 11.48 52.9667 10.4533 53.46 9.64C53.9533 8.82667 54.64 8.22 55.52 7.82C56.4133 7.40667 57.46 7.2 58.66 7.2C59.9267 7.2 61 7.4 61.88 7.8C62.7733 8.18667 63.4533 8.78667 63.92 9.6C64.3867 10.4133 64.62 11.4533 64.62 12.72V13.4H56.7C56.7 13.88 56.7667 14.2933 56.9 14.64C57.0467 14.9867 57.2733 15.2533 57.58 15.44C57.9 15.6133 58.3133 15.7 58.82 15.7C59.18 15.7 59.48 15.66 59.72 15.58C59.9733 15.5 60.1733 15.3933 60.32 15.26C60.48 15.1133 60.5933 14.9467 60.66 14.76C60.7267 14.5733 60.76 14.3733 60.76 14.16H64.62C64.62 14.7867 64.5 15.3533 64.26 15.86C64.02 16.3667 63.66 16.8 63.18 17.16C62.7 17.5067 62.1 17.7733 61.38 17.96C60.6733 18.1467 59.8467 18.24 58.9 18.24ZM56.72 11.52H60.6C60.6 11.24 60.56 10.9933 60.48 10.78C60.4 10.5533 60.28 10.3667 60.12 10.22C59.9733 10.06 59.7867 9.94 59.56 9.86C59.3467 9.78 59.1 9.74 58.82 9.74C58.38 9.74 58.0133 9.81333 57.72 9.96C57.4267 10.1067 57.2 10.3133 57.04 10.58C56.88 10.8333 56.7733 11.1467 56.72 11.52ZM66.5398 18V7.44H69.7998L70.0598 9.04H70.1998C70.4798 8.62667 70.8065 8.28667 71.1798 8.02C71.5532 7.74 71.9665 7.53333 72.4198 7.4C72.8732 7.26667 73.3398 7.2 73.8198 7.2C74.6598 7.2 75.3465 7.36 75.8798 7.68C76.4265 7.98667 76.8332 8.43333 77.0998 9.02C77.3665 9.60667 77.4998 10.32 77.4998 11.16V18H73.5198V11.64C73.5198 11.4133 73.4865 11.2133 73.4198 11.04C73.3665 10.8533 73.2865 10.6933 73.1798 10.56C73.0732 10.4267 72.9332 10.3267 72.7598 10.26C72.5998 10.18 72.4065 10.14 72.1798 10.14C71.8465 10.14 71.5532 10.22 71.2998 10.38C71.0598 10.5267 70.8665 10.7267 70.7198 10.98C70.5865 11.22 70.5198 11.4933 70.5198 11.8V18H66.5398ZM84.3597 18.24C83.6397 18.24 82.9997 18.16 82.4397 18C81.893 17.8267 81.4664 17.5333 81.1597 17.12C80.853 16.7067 80.6997 16.14 80.6997 15.42V10.14H79.2197V7.44H80.8597L81.7197 4.24H84.6797V7.44H86.9197V10.14H84.6797V14.16C84.6797 14.6133 84.753 14.96 84.8997 15.2C85.0464 15.4267 85.3464 15.54 85.7997 15.54H86.9197V17.88C86.7064 17.9467 86.4397 18.0067 86.1197 18.06C85.813 18.1267 85.4997 18.1733 85.1797 18.2C84.873 18.2267 84.5997 18.24 84.3597 18.24ZM92.4064 18.24C91.1531 18.24 90.2264 17.8933 89.6264 17.2C89.0264 16.5067 88.7264 15.5333 88.7264 14.28V7.44H92.7064V13.8C92.7064 14.0133 92.7331 14.2133 92.7864 14.4C92.8531 14.5867 92.9397 14.7467 93.0464 14.88C93.1531 15.0133 93.2931 15.12 93.4664 15.2C93.6397 15.2667 93.8331 15.3 94.0464 15.3C94.3797 15.3 94.6664 15.2267 94.9064 15.08C95.1597 14.92 95.3531 14.7133 95.4864 14.46C95.6331 14.2067 95.7064 13.9333 95.7064 13.64V7.44H99.6864V18H96.4264L96.2264 16.4H96.0864C95.8331 16.7867 95.5064 17.12 95.1064 17.4C94.7197 17.68 94.2931 17.8867 93.8264 18.02C93.3597 18.1667 92.8864 18.24 92.4064 18.24ZM102.106 18V7.44H105.366L105.626 9.04H105.766C105.94 8.64 106.16 8.3 106.426 8.02C106.706 7.74 107.026 7.53333 107.386 7.4C107.746 7.25333 108.126 7.18 108.526 7.18C108.793 7.18 109.033 7.20667 109.246 7.26C109.46 7.31333 109.613 7.36667 109.706 7.42V10.76H108.426C108 10.76 107.633 10.82 107.326 10.94C107.033 11.0467 106.793 11.2133 106.606 11.44C106.433 11.6533 106.3 11.92 106.206 12.24C106.126 12.5467 106.086 12.9 106.086 13.3V18H102.106ZM116.498 18.24C115.231 18.24 114.131 18.0467 113.198 17.66C112.278 17.26 111.564 16.6533 111.058 15.84C110.564 15.0267 110.318 13.9867 110.318 12.72C110.318 11.48 110.564 10.4533 111.058 9.64C111.551 8.82667 112.238 8.22 113.118 7.82C114.011 7.40667 115.058 7.2 116.258 7.2C117.524 7.2 118.598 7.4 119.478 7.8C120.371 8.18667 121.051 8.78667 121.518 9.6C121.984 10.4133 122.218 11.4533 122.218 12.72V13.4H114.298C114.298 13.88 114.364 14.2933 114.498 14.64C114.644 14.9867 114.871 15.2533 115.178 15.44C115.498 15.6133 115.911 15.7 116.418 15.7C116.778 15.7 117.078 15.66 117.318 15.58C117.571 15.5 117.771 15.3933 117.918 15.26C118.078 15.1133 118.191 14.9467 118.258 14.76C118.324 14.5733 118.358 14.3733 118.358 14.16H122.218C122.218 14.7867 122.098 15.3533 121.858 15.86C121.618 16.3667 121.258 16.8 120.778 17.16C120.298 17.5067 119.698 17.7733 118.978 17.96C118.271 18.1467 117.444 18.24 116.498 18.24ZM114.318 11.52H118.198C118.198 11.24 118.158 10.9933 118.078 10.78C117.998 10.5533 117.878 10.3667 117.718 10.22C117.571 10.06 117.384 9.94 117.158 9.86C116.944 9.78 116.698 9.74 116.418 9.74C115.978 9.74 115.611 9.81333 115.318 9.96C115.024 10.1067 114.798 10.3133 114.638 10.58C114.478 10.8333 114.371 11.1467 114.318 11.52Z" fill="#016A70"/>
<path d="M128.251 18V4.28H135.031C135.978 4.28 136.765 4.46 137.391 4.82C138.018 5.16667 138.485 5.65333 138.791 6.28C139.111 6.90667 139.271 7.63333 139.271 8.46C139.271 9.3 139.098 10.0467 138.751 10.7C138.405 11.34 137.911 11.84 137.271 12.2C136.645 12.56 135.891 12.74 135.011 12.74H130.151V18H128.251ZM130.151 11.1H134.891C135.638 11.1 136.231 10.8667 136.671 10.4C137.125 9.93333 137.351 9.29333 137.351 8.48C137.351 7.93333 137.258 7.47333 137.071 7.1C136.885 6.72667 136.611 6.44 136.251 6.24C135.891 6.02667 135.438 5.92 134.891 5.92H130.151V11.1ZM141.212 18V3.54H142.972V18H141.212ZM148.964 18.24C147.951 18.24 147.138 17.98 146.524 17.46C145.911 16.94 145.604 16.0333 145.604 14.74V7.48H147.364V14.5C147.364 14.94 147.418 15.3 147.524 15.58C147.631 15.86 147.784 16.08 147.984 16.24C148.184 16.4 148.418 16.5133 148.684 16.58C148.964 16.6467 149.264 16.68 149.584 16.68C150.091 16.68 150.558 16.56 150.984 16.32C151.411 16.08 151.758 15.7333 152.024 15.28C152.304 14.8133 152.444 14.2733 152.444 13.66V7.48H154.204V18H152.784L152.624 16.42H152.484C152.204 16.8467 151.884 17.1933 151.524 17.46C151.178 17.7267 150.784 17.92 150.344 18.04C149.918 18.1733 149.458 18.24 148.964 18.24ZM160.615 18.24C159.895 18.24 159.261 18.1667 158.715 18.02C158.168 17.8733 157.715 17.66 157.355 17.38C156.995 17.1 156.721 16.7667 156.535 16.38C156.348 15.9933 156.255 15.5533 156.255 15.06C156.255 14.9933 156.255 14.9333 156.255 14.88C156.255 14.8133 156.261 14.76 156.275 14.72H158.015C158.001 14.7733 157.995 14.82 157.995 14.86C157.995 14.9 157.995 14.94 157.995 14.98C158.008 15.4467 158.128 15.8133 158.355 16.08C158.595 16.3467 158.921 16.5333 159.335 16.64C159.748 16.7467 160.208 16.8 160.715 16.8C161.155 16.8 161.561 16.7467 161.935 16.64C162.308 16.52 162.601 16.3467 162.815 16.12C163.041 15.88 163.155 15.58 163.155 15.22C163.155 14.78 163.008 14.4467 162.715 14.22C162.435 13.98 162.061 13.7933 161.595 13.66C161.128 13.5267 160.641 13.3867 160.135 13.24C159.708 13.12 159.281 12.9867 158.855 12.84C158.428 12.6933 158.041 12.5133 157.695 12.3C157.361 12.0867 157.088 11.8133 156.875 11.48C156.675 11.1333 156.575 10.7 156.575 10.18C156.575 9.71333 156.668 9.3 156.855 8.94C157.055 8.58 157.335 8.27333 157.695 8.02C158.055 7.76667 158.488 7.58 158.995 7.46C159.515 7.32667 160.088 7.26 160.715 7.26C161.381 7.26 161.961 7.33333 162.455 7.48C162.961 7.62667 163.381 7.83333 163.715 8.1C164.048 8.36667 164.295 8.67333 164.455 9.02C164.615 9.35333 164.695 9.71333 164.695 10.1C164.695 10.18 164.695 10.26 164.695 10.34C164.695 10.4067 164.688 10.46 164.675 10.5H162.955V10.28C162.955 10.0133 162.881 9.76 162.735 9.52C162.601 9.26667 162.361 9.06667 162.015 8.92C161.681 8.76 161.215 8.68 160.615 8.68C160.228 8.68 159.895 8.71333 159.615 8.78C159.335 8.83333 159.101 8.92667 158.915 9.06C158.728 9.18 158.588 9.32667 158.495 9.5C158.401 9.66 158.355 9.84667 158.355 10.06C158.355 10.4067 158.468 10.6733 158.695 10.86C158.921 11.0467 159.221 11.2 159.595 11.32C159.981 11.44 160.395 11.5733 160.835 11.72C161.301 11.8533 161.775 11.9933 162.255 12.14C162.748 12.2733 163.195 12.4467 163.595 12.66C164.008 12.8733 164.335 13.1667 164.575 13.54C164.828 13.9 164.955 14.38 164.955 14.98C164.955 15.54 164.848 16.0267 164.635 16.44C164.421 16.8533 164.115 17.1933 163.715 17.46C163.328 17.7267 162.868 17.92 162.335 18.04C161.815 18.1733 161.241 18.24 160.615 18.24Z" fill="#001516"/>
<defs>
<clipPath id="clip0_178_25">
<rect width="29.6252" height="14" fill="white" transform="translate(0 4)"/>
</clipPath>
</defs>
</svg>
