<svg width="163" height="123" viewBox="0 0 163 123" fill="none" xmlns="http://www.w3.org/2000/svg">
<g clip-path="url(#clip0_8172_15265)">
<path d="M162.607 9.60787H0.421875C0.650949 8.30885 1.09832 7.07991 1.72357 5.96685C3.72062 2.40938 7.52873 0 11.892 0H151.137C155.498 0 159.309 2.40938 161.303 5.96685C161.928 7.07991 162.378 8.30885 162.607 9.60787Z" fill="white"/>
<path d="M194.159 122.274C194.159 122.452 194.016 122.595 193.838 122.595H127.192C127.014 122.595 126.871 122.452 126.871 122.274C126.871 122.188 126.903 122.112 126.957 122.056H151.137C151.652 122.056 152.156 122.021 152.652 121.953H193.838C194.016 121.953 194.159 122.096 194.159 122.274Z" fill="#016A70" fill-opacity="0.24"/>
<path d="M119.422 56.902H43.6059C42.9013 56.902 42.3281 56.1767 42.3281 55.285C42.3281 54.3933 42.9013 53.668 43.6059 53.668H119.422C120.126 53.668 120.699 54.3933 120.699 55.285C120.699 56.1767 120.126 56.902 119.422 56.902Z" fill="white"/>
<path d="M162.608 9.60787C162.379 8.30885 161.929 7.07991 161.304 5.96685C159.31 2.40938 155.499 0 151.138 0H11.8929C7.52962 0 3.72151 2.40938 1.72447 5.96685C1.09921 7.07991 0.651841 8.30885 0.422767 9.60787C0.304185 10.2708 0.242188 10.9527 0.242188 11.6507V110.945C0.242188 117.37 5.4679 122.595 11.8929 122.595H151.138C152.47 122.595 153.752 122.369 154.946 121.954C159.506 120.375 162.789 116.036 162.789 110.945V11.6507C162.789 10.9554 162.727 10.2708 162.608 9.60787ZM162.25 110.945C162.25 116.566 158.073 121.215 152.653 121.954C152.157 122.021 151.653 122.056 151.138 122.056H28.4432C13.165 122.056 0.781198 109.67 0.781198 94.3915V11.6507C0.781198 10.9527 0.845877 10.2708 0.969855 9.60787C1.21241 8.29806 1.68405 7.07182 2.34433 5.96685C4.28207 2.71662 7.83416 0.539011 11.8929 0.539011H151.138C155.197 0.539011 158.749 2.71662 160.687 5.96685C161.347 7.07182 161.819 8.29806 162.061 9.60787C162.185 10.2708 162.25 10.9527 162.25 11.6507V110.945Z" fill="#016A70" fill-opacity="0.24"/>
<path d="M80.072 83.1799H61.8384C60.7257 83.1799 59.8203 82.2746 59.8203 81.1618V79.3382C59.8203 78.2254 60.7257 77.3203 61.8384 77.3203H80.072C81.1848 77.3203 82.0902 78.2254 82.0902 79.3382V81.1618C82.0902 82.2746 81.1848 83.1799 80.072 83.1799Z" fill="#016A70"/>
<path d="M150.142 23.5823H131.909C130.796 23.5823 129.891 22.6769 129.891 21.5642V19.7405C129.891 18.6278 130.796 17.7227 131.909 17.7227H150.142C151.255 17.7227 152.16 18.6278 152.16 19.7405V21.5642C152.16 22.6769 151.255 23.5823 150.142 23.5823Z" fill="#016A70"/>
<path d="M107.121 83.3127H88.8873C87.7001 83.3127 86.7344 82.3468 86.7344 81.1599V79.3362C86.7344 78.1492 87.7001 77.1836 88.8873 77.1836H107.121C108.308 77.1836 109.274 78.1492 109.274 79.3362V81.1599C109.274 82.3468 108.308 83.3127 107.121 83.3127ZM88.8873 77.7226C87.9974 77.7226 87.2734 78.4464 87.2734 79.3362V81.1599C87.2734 82.0497 87.9974 82.7737 88.8873 82.7737H107.121C108.011 82.7737 108.735 82.0497 108.735 81.1599V79.3362C108.735 78.4464 108.011 77.7226 107.121 77.7226H88.8873Z" fill="#016A70"/>
<path d="M129.487 48.5466H33.5428C32.6511 48.5466 31.9258 47.8212 31.9258 46.9295C31.9258 46.0378 32.6511 45.3125 33.5428 45.3125H129.487C130.378 45.3125 131.104 46.0378 131.104 46.9295C131.104 47.8212 130.378 48.5466 129.487 48.5466Z" fill="white"/>
<path d="M27.4323 22.2692H15.3045C14.4128 22.2692 13.6875 21.5439 13.6875 20.6522C13.6875 19.7605 14.4128 19.0352 15.3045 19.0352H27.4323C28.324 19.0352 29.0493 19.7605 29.0493 20.6522C29.0493 21.5439 28.324 22.2692 27.4323 22.2692Z" fill="white"/>
<path d="M99.9284 22.2692H87.8006C86.9089 22.2692 86.1836 21.5439 86.1836 20.6522C86.1836 19.7605 86.9089 19.0352 87.8006 19.0352H99.9284C100.82 19.0352 101.545 19.7605 101.545 20.6522C101.545 21.5439 100.82 22.2692 99.9284 22.2692Z" fill="white"/>
<path d="M122.839 22.2692H110.711C109.819 22.2692 109.094 21.5439 109.094 20.6522C109.094 19.7605 109.819 19.0352 110.711 19.0352H122.839C123.73 19.0352 124.456 19.7605 124.456 20.6522C124.456 21.5439 123.73 22.2692 122.839 22.2692Z" fill="white"/>
<path d="M108.198 65.2575H54.8358C53.9441 65.2575 53.2188 64.5322 53.2188 63.6405C53.2188 62.7488 53.9441 62.0234 54.8358 62.0234H108.198C109.09 62.0234 109.815 62.7488 109.815 63.6405C109.815 64.5322 109.09 65.2575 108.198 65.2575Z" fill="white"/>
<path d="M110.522 100.631H52.509C51.9698 100.631 51.5312 100.193 51.5312 99.6535C51.5312 99.1144 51.9698 98.6758 52.509 98.6758H110.522C111.061 98.6758 111.499 99.1144 111.499 99.6535C111.499 100.193 111.061 100.631 110.522 100.631Z" fill="white"/>
<path d="M111.061 5.76408H53.0481C52.5089 5.76408 52.0703 5.32549 52.0703 4.78633C52.0703 4.24718 52.5089 3.80859 53.0481 3.80859H111.061C111.6 3.80859 112.038 4.24718 112.038 4.78633C112.038 5.32549 111.6 5.76408 111.061 5.76408Z" fill="white"/>
</g>
<defs>
<clipPath id="clip0_8172_15265">
<rect width="162.512" height="122.625" fill="white" transform="translate(0.242188)"/>
</clipPath>
</defs>
</svg>
