<svg width="95" height="66" viewBox="0 0 95 66" fill="none" xmlns="http://www.w3.org/2000/svg">
<g opacity="0.5">
<path d="M50.8118 11.3769C53.9634 9.03006 58.4005 8.13037 61.8722 9.96127C57.9638 11.6719 54.7816 14.7211 52.8886 18.5693C52.1639 20.056 51.5115 21.7857 50.0162 22.4728C49.0858 22.9004 47.9878 22.8178 47.0244 22.4726C46.0609 22.1273 45.204 21.5408 44.3589 20.9605L44.1055 20.9297C45.6094 17.2824 47.6603 13.7238 50.8118 11.3769Z" fill="#F0F0F0"/>
<path d="M61.8441 10.0397C58.6025 10.1421 55.4753 11.2715 52.9067 13.2675C52.3462 13.6873 51.8548 14.1935 51.4507 14.7676C51.0749 15.3396 50.858 16.0026 50.8224 16.6877C50.7764 17.3259 50.8028 17.984 50.6037 18.5998C50.4972 18.9134 50.3261 19.2009 50.1017 19.4432C49.8773 19.6856 49.6045 19.8773 49.3014 20.006C48.5544 20.3463 47.7306 20.3958 46.9233 20.416C46.027 20.4384 45.0957 20.4473 44.2805 20.8727C44.1818 20.9243 44.1082 20.7668 44.2068 20.7153C45.625 19.9751 47.2823 20.4581 48.7729 20.0175C49.4684 19.812 50.1067 19.3939 50.386 18.6943C50.6302 18.0826 50.6036 17.4039 50.6446 16.7574C50.6696 16.0885 50.8567 15.436 51.1896 14.8568C51.5634 14.2639 52.0346 13.7394 52.583 13.3058C53.8022 12.3099 55.1692 11.5134 56.6338 10.9455C58.3018 10.288 60.0691 9.92299 61.8592 9.86626C61.97 9.8628 61.9541 10.0363 61.8441 10.0397Z" fill="white"/>
<path d="M53.6948 12.5758C53.4211 12.0959 53.3255 11.5336 53.4251 10.9892C53.5248 10.4449 53.8131 9.95394 54.2387 9.6041C54.325 9.53361 54.4377 9.66556 54.3513 9.73614C53.9544 10.0612 53.6859 10.5185 53.5941 11.0256C53.5024 11.5327 53.5935 12.0562 53.851 12.5015C53.9068 12.5984 53.7503 12.6721 53.6948 12.5758Z" fill="white"/>
<path d="M50.8025 16.3612C51.8836 16.6658 53.0389 16.5485 54.038 16.0326C54.1369 15.9814 54.2105 16.1389 54.1117 16.19C53.071 16.7249 51.8685 16.8445 50.7442 16.525C50.6371 16.4945 50.696 16.3308 50.8025 16.3612Z" fill="white"/>
<path d="M58.2924 10.5185C58.36 10.7264 58.4776 10.9142 58.6349 11.0649C58.7922 11.2157 58.9842 11.3247 59.1936 11.3821C59.3011 11.4113 59.2421 11.5749 59.1353 11.546C58.9042 11.4814 58.6924 11.3608 58.5182 11.1946C58.3441 11.0285 58.2129 10.8218 58.1363 10.5928C58.1272 10.5718 58.1265 10.5482 58.1341 10.5267C58.1418 10.5051 58.1573 10.4874 58.1775 10.4769C58.1982 10.4672 58.2219 10.4661 58.2434 10.4739C58.265 10.4817 58.2826 10.4977 58.2924 10.5185Z" fill="white"/>
<path d="M64.6232 23.0441C64.5555 23.0278 64.4879 23.0115 64.4192 22.9962C63.509 22.7822 62.583 22.6431 61.6504 22.5802C61.5783 22.5742 61.5053 22.5692 61.4332 22.5653C59.1848 22.438 56.9324 22.7326 54.7907 23.4342C53.9387 23.7142 53.1091 24.0591 52.309 24.4659C51.2041 25.0278 50.0504 25.7257 48.8609 25.8823C48.737 25.9 48.6121 25.91 48.4869 25.9122L44.0862 21.2443C44.0815 21.2287 44.0756 21.214 44.0709 21.1982L43.8867 21.02C43.9265 20.9961 43.9683 20.9722 44.0081 20.9483C44.0312 20.9343 44.0552 20.9214 44.0782 20.9075C44.0939 20.8985 44.1096 20.8896 44.1232 20.8806C44.1285 20.8776 44.1337 20.8746 44.1379 20.8726C44.1515 20.8636 44.1651 20.8567 44.1777 20.8487C44.4109 20.7144 44.6456 20.5815 44.8815 20.45C44.8826 20.449 44.8826 20.449 44.8846 20.449C46.6851 19.4518 48.5839 18.5974 50.5511 18.0607C50.6102 18.0445 50.6704 18.0274 50.7316 18.0134C51.6197 17.7764 52.5254 17.613 53.4398 17.5247C53.9407 17.4781 54.4436 17.457 54.9466 17.4615C56.2462 17.4759 57.5355 17.6962 58.7672 18.1145C61.2224 18.9485 63.3857 20.5649 64.5369 22.8673C64.5663 22.9262 64.5948 22.9841 64.6232 23.0441Z" fill="#F0F0F0"/>
<path d="M64.5563 23.0895C61.907 21.2039 58.7356 20.2077 55.4926 20.2424C54.7943 20.2374 54.0996 20.3434 53.4341 20.5564C52.7924 20.7851 52.2232 21.1828 51.7856 21.7082C51.3678 22.1899 50.9957 22.7313 50.469 23.1022C50.1967 23.288 49.8884 23.4137 49.5644 23.471C49.2405 23.5283 48.9082 23.5159 48.5893 23.4346C47.7896 23.253 47.1023 22.7925 46.4457 22.3186C45.7167 21.7925 44.9677 21.2344 44.0628 21.0794C43.9531 21.0606 43.9885 20.8902 44.0979 20.9089C45.6724 21.1787 46.7072 22.5701 48.1605 23.123C48.8386 23.381 49.5979 23.4346 50.2387 23.0456C50.799 22.7054 51.1832 22.1473 51.602 21.656C52.0215 21.1371 52.5606 20.7297 53.1723 20.4692C53.8249 20.2227 54.5144 20.0899 55.2112 20.0766C56.7795 20.0213 58.3467 20.215 59.8553 20.6505C61.5798 21.1379 63.2088 21.9191 64.672 22.9602C64.7626 23.0247 64.6463 23.1536 64.5563 23.0895Z" fill="white"/>
<path d="M56.5359 20.1697C56.604 19.6204 56.8635 19.1134 57.2682 18.7392C57.6729 18.3651 58.1963 18.1481 58.745 18.127C58.8561 18.1231 58.8673 18.2969 58.7561 18.3008C58.2451 18.3194 57.7575 18.5216 57.3814 18.8708C57.0052 19.22 56.7653 19.6933 56.705 20.2051C56.6917 20.3164 56.5227 20.2803 56.5359 20.1697Z" fill="white"/>
<path d="M51.9626 21.436C52.6439 22.3353 53.6364 22.9428 54.7422 23.1373C54.8518 23.1564 54.8165 23.3268 54.707 23.3077C53.5567 23.1032 52.5251 22.4689 51.8182 21.5314C51.7509 21.442 51.8957 21.3471 51.9626 21.436Z" fill="white"/>
<path d="M61.4353 21.3172C61.365 21.5242 61.3469 21.7455 61.3824 21.9613C61.418 22.1772 61.5062 22.3807 61.6391 22.5537C61.7075 22.6422 61.5626 22.7371 61.4946 22.6491C61.3487 22.4573 61.2516 22.2324 61.2118 21.9941C61.172 21.7557 61.1907 21.5111 61.2662 21.2817C61.2716 21.2595 61.2851 21.2402 61.3041 21.2276C61.323 21.2151 61.346 21.2103 61.3684 21.2142C61.3907 21.219 61.4103 21.2325 61.4228 21.2518C61.4354 21.2711 61.4399 21.2946 61.4353 21.3172Z" fill="white"/>
<path d="M49.9801 14.8687H49.6391V5.4508C49.6391 4.73499 49.4992 4.02619 49.2275 3.36487C48.9557 2.70355 48.5574 2.10266 48.0553 1.5965C47.5532 1.09035 46.9571 0.688848 46.3011 0.414919C45.6451 0.140991 44.9419 3.85896e-07 44.2319 0H24.4385C23.7284 -1.54352e-06 23.0252 0.140986 22.3692 0.414913C21.7132 0.68884 21.1171 1.09034 20.615 1.59649C20.1129 2.10265 19.7146 2.70354 19.4429 3.36486C19.1711 4.02618 19.0313 4.73498 19.0313 5.45079V57.1179C19.0312 58.5635 19.6009 59.95 20.615 60.9722C21.629 61.9944 23.0044 62.5687 24.4384 62.5687H44.2318C45.6659 62.5687 47.0413 61.9944 48.0553 60.9722C49.0694 59.95 49.639 58.5636 49.6391 57.1179V21.5725H49.9801V14.8687Z" fill="#3F3D56"/>
<path d="M44.4502 1.41797H41.8665C41.9853 1.71162 42.0307 2.03022 41.9986 2.34571C41.9665 2.66119 41.8579 2.96387 41.6824 3.22709C41.5069 3.49031 41.2699 3.70599 40.9923 3.85512C40.7146 4.00426 40.4049 4.08227 40.0903 4.0823H28.7509C28.4363 4.08227 28.1265 4.00426 27.8489 3.85512C27.5712 3.70599 27.3342 3.49031 27.1587 3.22709C26.9833 2.96387 26.8747 2.66119 26.8426 2.34571C26.8105 2.03022 26.8558 1.71162 26.9747 1.41797H24.5615C23.4905 1.41797 22.4634 1.84683 21.7062 2.61022C20.9489 3.3736 20.5234 4.40897 20.5234 5.48856V57.0799C20.5234 57.6144 20.6279 58.1437 20.8308 58.6376C21.0337 59.1315 21.3312 59.5802 21.7061 59.9582C22.0811 60.3362 22.5263 60.636 23.0162 60.8406C23.5061 61.0452 24.0312 61.1505 24.5615 61.1505H44.4502C44.9805 61.1505 45.5056 61.0452 45.9955 60.8406C46.4854 60.636 46.9306 60.3362 47.3055 59.9582C47.6805 59.5802 47.9779 59.1315 48.1809 58.6376C48.3838 58.1438 48.4882 57.6144 48.4882 57.0799V5.48856C48.4882 4.40897 48.0628 3.3736 47.3055 2.61022C46.5482 1.84684 45.5211 1.41797 44.4502 1.41797Z" fill="white"/>
<path d="M34.888 44.5778C33.4234 44.5792 31.9729 44.2894 30.6195 43.725C29.2662 43.1607 28.0365 42.3328 27.0009 41.2889C25.9653 40.2449 25.1441 39.0053 24.5842 37.641C24.0244 36.2768 23.7369 34.8146 23.7383 33.3382C23.7362 31.2651 24.3038 29.2319 25.3781 27.4641C26.4524 25.6963 27.9914 24.263 29.8245 23.3231C31.1532 22.6416 32.6038 22.2351 34.0908 22.1275C35.5778 22.0199 37.0712 22.2135 38.4828 22.6967C40.9829 23.5555 43.0994 25.281 44.4553 27.5659C45.8113 29.8508 46.3187 32.5467 45.8871 35.1735C45.4556 37.8002 44.1131 40.1873 42.0988 41.9095C40.0845 43.6318 37.5292 44.5773 34.888 44.5778ZM34.888 22.5394C33.1965 22.5344 31.5284 22.9377 30.0233 23.7156C28.7076 24.3914 27.5447 25.3339 26.6076 26.4842C25.6705 27.6346 24.9794 28.9677 24.5777 30.4001C24.176 31.8324 24.0724 33.333 24.2733 34.8077C24.4743 36.2823 24.9755 37.6991 25.7455 38.9692C26.5154 40.2393 27.5376 41.3352 28.7477 42.1882C29.9578 43.0411 31.3298 43.6327 32.7775 43.9257C34.2252 44.2187 35.7173 44.2069 37.1602 43.8909C38.6032 43.575 39.9657 42.9618 41.1624 42.0897C41.7409 41.6689 42.2759 41.1904 42.7593 40.6614C44.1729 39.1196 45.1098 37.1957 45.4553 35.1253C45.8009 33.0549 45.54 30.9278 44.7046 29.0046C43.8693 27.0814 42.4957 25.4455 40.7521 24.2972C39.0086 23.1489 36.9707 22.538 34.888 22.5394Z" fill="#F0F0F0"/>
<path d="M10.7269 23.3631C11.0329 23.4018 11.3268 23.5077 11.5879 23.6732C11.849 23.8388 12.0709 24.0601 12.2379 24.3214C12.405 24.5828 12.5132 24.8779 12.5549 25.186C12.5966 25.4941 12.5707 25.8076 12.4792 26.1045L16.1837 29.2151L14.8576 31.9455L9.68732 27.4787C9.20269 27.2906 8.80333 26.9299 8.56491 26.4648C8.32649 25.9998 8.26558 25.4627 8.39372 24.9554C8.52186 24.4481 8.83016 24.0058 9.26017 23.7124C9.69019 23.4189 10.2121 23.2946 10.7269 23.3631Z" fill="#FFB6B6"/>
<path d="M45.3264 36.3354C45.2521 35.5303 44.9449 34.083 44.6843 33.5479C43.8831 31.434 38.7065 29.6966 38.0113 29.4726L37.835 27.4965L30.6423 26.7163L29.7299 29.2434L27.1502 30.219C26.9751 30.2848 26.8166 30.3889 26.686 30.5238C26.5555 30.6587 26.4562 30.821 26.3952 30.9991L24.0808 31.6735L21.7969 32.3391L13.8625 26.7031L13.4878 26.95L10.9839 28.597L10.5977 28.8511L20.8656 38.1895L24.6798 37.2874L27.5481 36.6072L27.7929 37.6092L27.159 41.1295C28.9957 42.9817 31.427 44.1137 34.0168 44.3223C36.6066 44.531 39.1854 43.8027 41.2907 42.2681L42.9201 40.8106C44.0557 39.5728 44.894 38.0884 45.3701 36.472L45.3264 36.3354Z" fill="#E4E4E4"/>
<path d="M36.496 25.1001C39.2112 24.1939 40.6835 21.2404 39.7846 18.5033C38.8856 15.7662 35.9557 14.282 33.2405 15.1882C30.5253 16.0945 29.053 19.048 29.952 21.785C30.8509 24.5221 33.7808 26.0064 36.496 25.1001Z" fill="#FFB6B6"/>
<path d="M30.7777 14.1923C31.2812 13.4675 32.0367 12.9602 32.8942 12.7711C33.742 12.5954 34.6244 12.7585 35.3551 13.2262C36.1498 12.9035 37.0065 12.6894 37.8482 12.7983C38.69 12.9071 39.515 13.381 39.9045 14.1619C39.9864 14.3642 40.0858 14.5588 40.2015 14.7435C40.5447 15.205 41.1824 15.2649 41.7455 15.287C41.4608 15.4544 41.1761 15.6218 40.8912 15.7892C41.175 15.9225 41.4589 16.0559 41.7427 16.1892C41.3564 16.3378 40.9701 16.4865 40.5839 16.6352C41.4829 17.4318 41.7004 18.8496 41.3599 20.0383C41.0377 21.1637 40.2987 22.1111 39.4736 22.9221C39.3126 22.3169 39.4897 21.6608 39.6076 21.0342C39.7322 20.3722 39.7521 19.5981 39.2923 19.1307C38.9821 18.8154 38.5271 18.7201 38.098 18.6436C35.9338 18.2578 33.7496 17.9963 31.5559 17.8606C31.2623 17.8197 30.9633 17.8505 30.684 17.9503C30.1501 18.1894 29.9356 18.8462 29.7809 19.4285C29.7068 18.4064 29.766 17.3789 29.957 16.3723C30.1034 15.6019 30.3339 14.8308 30.7777 14.1923Z" fill="#2F2E41"/>
<path d="M37.5089 49.873H31.3875C31.1749 49.873 30.9711 49.7879 30.8207 49.6363C30.6704 49.4848 30.5859 49.2792 30.5859 49.0649C30.5859 48.8506 30.6704 48.6451 30.8207 48.4935C30.9711 48.342 31.1749 48.2568 31.3875 48.2568H37.5089C37.7215 48.2568 37.9254 48.342 38.0758 48.4935C38.2261 48.6451 38.3105 48.8506 38.3105 49.0649C38.3105 49.2792 38.2261 49.4848 38.0758 49.6363C37.9254 49.7879 37.7215 49.873 37.5089 49.873Z" fill="#016A79"/>
<path d="M17.4221 6.62991H0.584702C0.429545 6.62966 0.280824 6.56736 0.171198 6.45667C0.0615721 6.34599 0 6.19597 0 6.03956C0 5.88316 0.0615721 5.73314 0.171198 5.62246C0.280824 5.51177 0.429545 5.44947 0.584702 5.44922H17.4221C17.5774 5.44922 17.7264 5.51142 17.8362 5.62213C17.946 5.73284 18.0077 5.88299 18.0077 6.03956C18.0077 6.19613 17.946 6.34629 17.8362 6.457C17.7264 6.56771 17.5774 6.62991 17.4221 6.62991Z" fill="#016A79"/>
<path d="M27.1444 10.4003H0.585587C0.43028 10.4003 0.281333 10.3382 0.171514 10.2274C0.0616949 10.1167 0 9.9666 0 9.81004C0 9.65348 0.0616949 9.50333 0.171514 9.39262C0.281333 9.28192 0.43028 9.21973 0.585587 9.21973H27.1444C27.2997 9.21973 27.4486 9.28192 27.5585 9.39262C27.6683 9.50333 27.73 9.65348 27.73 9.81004C27.73 9.9666 27.6683 10.1167 27.5585 10.2274C27.4486 10.3382 27.2997 10.4003 27.1444 10.4003Z" fill="#016A79"/>
<path d="M22.0406 13.9531H0.585587C0.43028 13.9531 0.281333 13.8909 0.171514 13.7802C0.061695 13.6695 0 13.5193 0 13.3628C0 13.2062 0.061695 13.0561 0.171514 12.9454C0.281333 12.8347 0.43028 12.7725 0.585587 12.7725H22.0406C22.1959 12.7725 22.3449 12.8347 22.4547 12.9454C22.5645 13.0561 22.6262 13.2062 22.6262 13.3628C22.6262 13.5193 22.5645 13.6695 22.4547 13.7802C22.3449 13.8909 22.1959 13.9531 22.0406 13.9531Z" fill="#CACACA"/>
<path d="M12.6839 17.4921H0.585587C0.43028 17.4921 0.281333 17.4299 0.171514 17.3192C0.061695 17.2085 0 17.0584 0 16.9018C0 16.7453 0.061695 16.5951 0.171514 16.4844C0.281333 16.3737 0.43028 16.3115 0.585587 16.3115H12.6839C12.8392 16.3115 12.9882 16.3737 13.098 16.4844C13.2078 16.5951 13.2695 16.7453 13.2695 16.9018C13.2695 17.0584 13.2078 17.2085 13.098 17.3192C12.9882 17.4299 12.8392 17.4921 12.6839 17.4921Z" fill="#CACACA"/>
<path d="M19.3664 21.0302H0.584662C0.429515 21.03 0.280808 20.9677 0.171189 20.857C0.0615698 20.7463 0 20.5963 0 20.4399C0 20.2835 0.0615698 20.1335 0.171189 20.0228C0.280808 19.9122 0.429515 19.8499 0.584662 19.8496H19.3664C19.5216 19.8499 19.6703 19.9122 19.7799 20.0228C19.8895 20.1335 19.9511 20.2835 19.9511 20.4399C19.9511 20.5963 19.8895 20.7463 19.7799 20.857C19.6703 20.9677 19.5216 21.03 19.3664 21.0302Z" fill="#CACACA"/>
</g>
</svg>
