<svg width="27" height="26" viewBox="0 0 27 26" fill="none" xmlns="http://www.w3.org/2000/svg">
<path d="M2.90257 14.0601H21.523L18.0363 17.5468C17.6229 17.9602 17.6229 18.6305 18.0363 19.044C18.2433 19.251 18.5139 19.3542 18.7849 19.3542C19.056 19.3542 19.3265 19.251 19.5335 19.044L24.8276 13.7498C25.0262 13.5518 25.1379 13.2824 25.1379 13.0012C25.1379 12.7201 25.0262 12.4512 24.8276 12.2527L19.5335 6.95854C19.12 6.54507 18.4498 6.54507 18.0363 6.95854C17.6229 7.37201 17.6229 8.04225 18.0363 8.45572L21.523 11.9424H2.90257C2.3181 11.9424 1.84375 12.4168 1.84375 13.0012C1.84375 13.5857 2.3181 14.0601 2.90257 14.0601Z" fill="#6b7280"/>
</svg>
