<svg width="20" height="20" viewBox="0 0 20 20" fill="none" xmlns="http://www.w3.org/2000/svg">
<path d="M12.9173 10.0007C12.9173 11.6115 11.6115 12.9173 10.0007 12.9173C8.38982 12.9173 7.08398 11.6115 7.08398 10.0007C7.08398 8.38982 8.38982 7.08398 10.0007 7.08398C11.6115 7.08398 12.9173 8.38982 12.9173 10.0007Z" stroke="#212838" stroke-width="1.5"/>
<path d="M17.5085 11.7464C17.9434 11.6291 18.1609 11.5704 18.2468 11.4583C18.3327 11.3462 18.3327 11.1658 18.3327 10.805V9.19362C18.3327 8.83287 18.3327 8.65245 18.2468 8.54037C18.1608 8.4282 17.9434 8.36953 17.5085 8.25227C15.8832 7.81394 14.8659 6.11471 15.2854 4.50001C15.4008 4.05594 15.4584 3.83392 15.4033 3.70369C15.3483 3.57347 15.1903 3.48373 14.8741 3.30425L13.4368 2.48822C13.1267 2.31211 12.9716 2.22405 12.8324 2.2428C12.6932 2.26155 12.5362 2.41822 12.222 2.73156C11.006 3.94468 8.99402 3.94463 7.77797 2.73148C7.46387 2.41814 7.30683 2.26147 7.16762 2.24272C7.02842 2.22397 6.87332 2.31202 6.56312 2.48814L5.12588 3.30417C4.80979 3.48364 4.65174 3.57337 4.59667 3.70357C4.54158 3.83378 4.59924 4.05584 4.71456 4.49995C5.13382 6.1147 4.11578 7.81397 2.4902 8.25228C2.05528 8.36953 1.83782 8.4282 1.75192 8.54028C1.66602 8.65245 1.66602 8.83287 1.66602 9.19362V10.805C1.66602 11.1658 1.66602 11.3462 1.75192 11.4583C1.83781 11.5704 2.05527 11.6291 2.4902 11.7464C4.11552 12.1847 5.13275 13.8839 4.71328 15.4986C4.59792 15.9427 4.54024 16.1647 4.59532 16.2949C4.6504 16.4252 4.80845 16.5149 5.12456 16.6944L6.56181 17.5104C6.87202 17.6865 7.02713 17.7746 7.16635 17.7559C7.30557 17.7371 7.46258 17.5804 7.77661 17.267C8.99327 16.0529 11.0067 16.0529 12.2234 17.2669C12.5374 17.5804 12.6944 17.737 12.8337 17.7558C12.9728 17.7745 13.128 17.6864 13.4382 17.5104L14.8754 16.6943C15.1916 16.5149 15.3497 16.4251 15.4047 16.2949C15.4598 16.1646 15.4021 15.9426 15.2867 15.4985C14.867 13.8839 15.8834 12.1848 17.5085 11.7464Z" stroke="#212838" stroke-width="1.5" stroke-linecap="round"/>
</svg>
