<svg width="19" height="19" viewBox="0 0 19 19" fill="none" xmlns="http://www.w3.org/2000/svg">
<path d="M9.53089 0.500014C9.3981 0.499185 9.26773 0.535583 9.15457 0.605082C9.04141 0.67458 8.94999 0.774396 8.89067 0.893211L6.45008 5.7744L0.65482 6.66627C0.525101 6.68631 0.403469 6.74189 0.303412 6.82685C0.203355 6.9118 0.128782 7.02281 0.0879655 7.14756C0.0471485 7.27231 0.0416817 7.40593 0.0721712 7.5336C0.102661 7.66126 0.167915 7.77799 0.260698 7.87084L4.26946 11.8796L3.37667 17.6813C3.35669 17.8111 3.37308 17.9439 3.42401 18.065C3.47495 18.186 3.55843 18.2906 3.66519 18.3671C3.77195 18.4436 3.89782 18.489 4.02882 18.4982C4.15982 18.5075 4.29083 18.4803 4.40731 18.4196L9.52627 15.7487L14.6452 18.4196C14.7617 18.4803 14.8927 18.5075 15.0237 18.4982C15.1547 18.489 15.2806 18.4436 15.3873 18.3671C15.4941 18.2906 15.5776 18.186 15.6285 18.065C15.6795 17.9439 15.6958 17.8111 15.6759 17.6813L14.7831 11.8796L18.7918 7.87084C18.8846 7.77799 18.9499 7.66126 18.9804 7.5336C19.0109 7.40593 19.0054 7.27231 18.9646 7.14756C18.9237 7.02281 18.8492 6.9118 18.7491 6.82685C18.6491 6.74189 18.5274 6.68631 18.3977 6.66627L12.6025 5.7744L10.1619 0.893211C10.1032 0.775802 10.0133 0.676916 9.9019 0.607514C9.79053 0.538112 9.66211 0.500903 9.53089 0.500014Z" fill="#97A1B5"/>
</svg>
