<svg width="24" height="25" viewBox="0 0 24 25" fill="none" xmlns="http://www.w3.org/2000/svg">
<path d="M17.75 11.2326C20.0972 11.2326 22 9.32981 22 6.9826C22 4.63539 20.0972 2.7326 17.75 2.7326C15.4028 2.7326 13.5 4.63539 13.5 6.9826C13.5 9.32981 15.4028 11.2326 17.75 11.2326Z" stroke="#014043" stroke-width="1.5"/>
<path d="M6.25 11.2326C8.59721 11.2326 10.5 9.32981 10.5 6.9826C10.5 4.63539 8.59721 2.7326 6.25 2.7326C3.90279 2.7326 2 4.63539 2 6.9826C2 9.32981 3.90279 11.2326 6.25 11.2326Z" fill="#014043" stroke="#014043" stroke-width="1.5"/>
<path d="M17.75 22.7326C20.0972 22.7326 22 20.8298 22 18.4826C22 16.1354 20.0972 14.2326 17.75 14.2326C15.4028 14.2326 13.5 16.1354 13.5 18.4826C13.5 20.8298 15.4028 22.7326 17.75 22.7326Z" fill="#014043" stroke="#014043" stroke-width="1.5"/>
<path d="M6.25 22.7326C8.59721 22.7326 10.5 20.8298 10.5 18.4826C10.5 16.1354 8.59721 14.2326 6.25 14.2326C3.90279 14.2326 2 16.1354 2 18.4826C2 20.8298 3.90279 22.7326 6.25 22.7326Z" fill="#014043" stroke="#014043" stroke-width="1.5"/>
</svg>
