<svg width="24" height="25" viewBox="0 0 24 25" fill="none" xmlns="http://www.w3.org/2000/svg">
<path d="M17.75 11.2327C20.0972 11.2327 22 9.32988 22 6.98267C22 4.63546 20.0972 2.73267 17.75 2.73267C15.4028 2.73267 13.5 4.63546 13.5 6.98267C13.5 9.32988 15.4028 11.2327 17.75 11.2327Z" stroke="#999985" stroke-width="1.5"/>
<path d="M6.25 11.2327C8.59721 11.2327 10.5 9.32988 10.5 6.98267C10.5 4.63546 8.59721 2.73267 6.25 2.73267C3.90279 2.73267 2 4.63546 2 6.98267C2 9.32988 3.90279 11.2327 6.25 11.2327Z" stroke="#FFFFDD" stroke-width="1.5"/>
<path d="M17.75 22.7327C20.0972 22.7327 22 20.8299 22 18.4827C22 16.1355 20.0972 14.2327 17.75 14.2327C15.4028 14.2327 13.5 16.1355 13.5 18.4827C13.5 20.8299 15.4028 22.7327 17.75 22.7327Z" stroke="#FFFFDD" stroke-width="1.5"/>
<path d="M6.25 22.7327C8.59721 22.7327 10.5 20.8299 10.5 18.4827C10.5 16.1355 8.59721 14.2327 6.25 14.2327C3.90279 14.2327 2 16.1355 2 18.4827C2 20.8299 3.90279 22.7327 6.25 22.7327Z" stroke="#FFFFDD" stroke-width="1.5"/>
</svg>
