<svg width="24" height="25" viewBox="0 0 24 25" fill="none" xmlns="http://www.w3.org/2000/svg">
<path d="M20 13.7327V11.3896C20 10.572 20 10.1633 19.8478 9.79573C19.6955 9.42819 19.4065 9.13916 18.8284 8.5611L14.0919 3.82455C13.593 3.32567 13.3436 3.07622 13.0345 2.92842C12.9702 2.89767 12.9044 2.87039 12.8372 2.84668C12.5141 2.73267 12.1614 2.73267 11.4558 2.73267C8.21082 2.73267 6.58831 2.73267 5.48933 3.61874C5.26731 3.79775 5.06508 3.99998 4.88607 4.222C4 5.32098 4 6.94349 4 10.1885V13.7327M13 3.23267V3.73267C13 6.5611 13 7.97531 13.8787 8.85399C14.7574 9.73267 16.1716 9.73267 19 9.73267H19.5" fill="#014043"/>
<path d="M20 13.7327V11.3896C20 10.572 20 10.1633 19.8478 9.79573C19.6955 9.42819 19.4065 9.13916 18.8284 8.5611L14.0919 3.82455C13.593 3.32567 13.3436 3.07622 13.0345 2.92842C12.9702 2.89767 12.9044 2.87039 12.8372 2.84668C12.5141 2.73267 12.1614 2.73267 11.4558 2.73267C8.21082 2.73267 6.58831 2.73267 5.48933 3.61874C5.26731 3.79775 5.06508 3.99998 4.88607 4.222C4 5.32098 4 6.94349 4 10.1885V13.7327M13 3.23267V3.73267C13 6.5611 13 7.97531 13.8787 8.85399C14.7574 9.73267 16.1716 9.73267 19 9.73267H19.5" stroke="#67A6A9" stroke-width="1.5" stroke-linecap="round" stroke-linejoin="round"/>
<path d="M19.75 16.7327H17.25C16.6977 16.7327 16.25 17.1804 16.25 17.7327V19.7327M16.25 19.7327V22.7327M16.25 19.7327H19.25M4.25 22.7327V20.2327M4.25 20.2327V16.7327H6C6.9665 16.7327 7.75 17.5162 7.75 18.4827C7.75 19.4492 6.9665 20.2327 6 20.2327H4.25ZM10.25 16.7327H11.75C12.8546 16.7327 13.75 17.6281 13.75 18.7327V20.7327C13.75 21.8373 12.8546 22.7327 11.75 22.7327H10.25V16.7327Z" stroke="#016A70" stroke-width="1.5" stroke-linecap="round" stroke-linejoin="round"/>
</svg>
