<svg width="20" height="20" viewBox="0 0 20 20" fill="none" xmlns="http://www.w3.org/2000/svg">
<g clip-path="url(#clip0_11155_19961)">
<path d="M7.9342 12.0297L12.0284 7.93555" stroke="#344054" stroke-width="1.5" stroke-linecap="round"/>
<path d="M10.4741 12.5903C11.0905 13.5407 10.926 14.5148 10.214 15.2269L7.71795 17.7229C6.90261 18.5383 5.58069 18.5383 4.76535 17.7229L2.27691 15.2345C1.46157 14.4192 1.46157 13.0973 2.27691 12.2819L4.77292 9.78584C5.35787 9.20092 6.46964 8.86309 7.42502 9.55492M12.5906 10.4738C13.541 11.0902 14.5151 10.9258 15.2272 10.2137L17.7232 7.71762C18.5385 6.90228 18.5385 5.58035 17.7232 4.765L15.2348 2.27655C14.4195 1.4612 13.0975 1.4612 12.2822 2.27655L9.78613 4.77258C9.20121 5.35753 8.86346 6.4693 9.5553 7.42469" stroke="#344054" stroke-width="1.5" stroke-linecap="round" stroke-linejoin="round"/>
</g>
<defs>
<clipPath id="clip0_11155_19961">
<rect width="20" height="20" fill="white"/>
</clipPath>
</defs>
</svg>
