<svg width="24" height="25" viewBox="0 0 24 25" fill="none" xmlns="http://www.w3.org/2000/svg">
<path d="M6 18.7072C6.1287 20.0156 6.41956 20.8963 7.07691 21.5536C8.25596 22.7327 10.1536 22.7327 13.9489 22.7327C17.7442 22.7327 19.6419 22.7327 20.8209 21.5536C22 20.3746 22 18.4769 22 14.6816C22 10.8863 22 8.98863 20.8209 7.80958C20.1636 7.15223 19.2829 6.86137 17.9745 6.73267" stroke="#999985" stroke-width="1.5"/>
<path d="M2 10.7327C2 6.96143 2 5.07582 3.17157 3.90424C4.34315 2.73267 6.22876 2.73267 10 2.73267C13.7712 2.73267 15.6569 2.73267 16.8284 3.90424C18 5.07582 18 6.96143 18 10.7327C18 14.5039 18 16.3896 16.8284 17.5611C15.6569 18.7327 13.7712 18.7327 10 18.7327C6.22876 18.7327 4.34315 18.7327 3.17157 17.5611C2 16.3896 2 14.5039 2 10.7327Z" stroke="#FFFFDD" stroke-width="1.5"/>
<path d="M2 11.8512C2.61902 11.7725 3.24484 11.7337 3.87171 11.735C6.52365 11.686 9.11064 12.409 11.1711 13.7751C13.082 15.0421 14.4247 16.7857 15 18.7327" stroke="#FFFFDD" stroke-width="1.5" stroke-linejoin="round"/>
<path d="M12.9998 7.73267H13.0088" stroke="#FFFFDD" stroke-width="2" stroke-linecap="round" stroke-linejoin="round"/>
</svg>
