<svg width="24" height="25" viewBox="0 0 24 25" fill="none" xmlns="http://www.w3.org/2000/svg">
<path d="M18.9 8.73267C18.9656 8.40956 19 8.07514 19 7.73267C19 4.97125 16.7614 2.73267 14 2.73267C11.2386 2.73267 9 4.97125 9 7.73267C9 8.07514 9.03443 8.40956 9.10002 8.73267" stroke="#014043" stroke-width="1.5"/>
<path d="M7 8.72591H16C18.8284 8.72591 20.2426 8.72591 21.1213 9.60501C22 10.4841 22 11.899 22 14.7288V16.7298C22 19.5596 22 20.9745 21.1213 21.8536C20.2426 22.7327 18.8284 22.7327 16 22.7327H10C6.22876 22.7327 4.34315 22.7327 3.17157 21.5606C2 20.3884 2 18.5019 2 14.7288V12.7279C2 8.95478 2 7.06825 3.17157 5.89611C4.11466 4.95257 5.52043 4.76856 8 4.73267H10" fill="#014043"/>
<path d="M7 8.72591H16C18.8284 8.72591 20.2426 8.72591 21.1213 9.60501C22 10.4841 22 11.899 22 14.7288V16.7298C22 19.5596 22 20.9745 21.1213 21.8536C20.2426 22.7327 18.8284 22.7327 16 22.7327H10C6.22876 22.7327 4.34315 22.7327 3.17157 21.5606C2 20.3884 2 18.5019 2 14.7288V12.7279C2 8.95478 2 7.06825 3.17157 5.89611C4.11466 4.95257 5.52043 4.76856 8 4.73267H10" stroke="#014043" stroke-width="1.5" stroke-linecap="round"/>
<path d="M15.75 14.7327C15.75 15.6991 16.5335 16.4827 17.5 16.4827C18.4665 16.4827 19.25 15.6991 19.25 14.7327C19.25 13.7662 18.4665 12.9827 17.5 12.9827C16.5335 12.9827 15.75 13.7662 15.75 14.7327Z" stroke="#F8FAFC" stroke-width="0.5"/>
</svg>
