<svg width="24" height="25" viewBox="0 0 24 25" fill="none" xmlns="http://www.w3.org/2000/svg">
<path d="M16 14.7326C16 15.561 16.6716 16.2326 17.5 16.2326C18.3284 16.2326 19 15.561 19 14.7326C19 13.9042 18.3284 13.2326 17.5 13.2326C16.6716 13.2326 16 13.9042 16 14.7326Z" stroke="#999985" stroke-width="1.5"/>
<path d="M18.9 8.7326C18.9656 8.40949 19 8.07507 19 7.7326C19 4.97118 16.7614 2.7326 14 2.7326C11.2386 2.7326 9 4.97118 9 7.7326C9 8.07507 9.03443 8.40949 9.10002 8.7326" stroke="#FFFFDD" stroke-width="1.5"/>
<path d="M7 8.72584H16C18.8284 8.72584 20.2426 8.72585 21.1213 9.60495C22 10.4841 22 11.8989 22 14.7287V16.7297C22 19.5595 22 20.9744 21.1213 21.8535C20.2426 22.7326 18.8284 22.7326 16 22.7326H10C6.22876 22.7326 4.34315 22.7326 3.17157 21.5605C2 20.3883 2 18.5018 2 14.7287V12.7278C2 8.95472 2 7.06819 3.17157 5.89605C4.11466 4.95251 5.52043 4.76849 8 4.7326H10" stroke="#FFFFDD" stroke-width="1.5" stroke-linecap="round"/>
</svg>